<svg width="59" height="59" xmlns="http://www.w3.org/2000/svg"><g><path stroke-width="4" fill-rule="evenodd" d="M9.327.513c-2.72.373-4.552 2.95-4.004 5.637.37 1.82 1.824 3.274 3.65 3.654l.312.065-3.187.01c-3.152.01-3.188.01-3.41.07-1.095.294-1.88 1.113-2.105 2.193-.062.3-.085 27.884-.024 28.267.173 1.084.985 1.996 2.03 2.282.35.096.687.113 2.162.114h1.416l.008 6.817.008 6.816.06.196c.307 1.014.96 1.706 1.885 1.996.44.14.385.137 4.764.127l4.116-.01.226-.066c.978-.28 1.703-.99 2.007-1.963l.08-.253v-2.002l-.08-.247c-.376-1.21-1.342-1.966-2.614-2.05-.507-.032-.763-.177-.937-.53l-.093-.188-.007-4.322-.007-4.322H18.2l11.257 5.16 11.256 5.16h4.958V38.955l.287-.065c3.33-.75 5.238-4.287 4.043-7.49-.662-1.77-2.283-3.174-4.078-3.53l-.25-.05V13.624h-4.917l-11.29 5.173L18.18 23.97h-2.592v-8.429l3.597-.006 3.596-.007 2.435-5.36c1.637-3.6 2.458-5.438 2.5-5.597.1-.36.1-1.756.002-2.095C27.142.492 24.692-.19 23.24 1.232c-.347.34-.317.284-2.477 4.604l-2.02 4.038-4.08-.003c-3.4 0-4.048-.008-3.884-.038 2.856-.52 4.57-3.49 3.593-6.232C13.64 1.543 11.476.218 9.327.513m1.07 1.92c1.435.206 2.526 1.68 2.315 3.128-.343 2.343-3.21 3.257-4.82 1.535-1.28-1.37-.877-3.565.807-4.408.536-.27 1.05-.346 1.698-.253m15.1.065c.325.19.394.37.394 1.03v.52L23.72 8.83l-2.174 4.78-1.57.007-1.57.007V11.79H19.93l2.267-4.537c1.645-3.29 2.295-4.564 2.364-4.633.245-.243.64-.294.937-.12M8.253 14.582c1.007 1.68 1.686 2.782 1.7 2.767.015-.014.772-1.268 1.682-2.785l1.656-2.76 1.6-.007 1.6-.008v1.834h-2.82v7.838l-.15-.06c-1.18-.475-2.5-.248-3.435.592l-.158.142-.08-.087c-.794-.848-2.31-1.128-3.502-.648l-.148.06v-6.88H4.28v2.82H2.418l.007-2.432c.007-2.214.013-2.443.056-2.552.074-.183.21-.363.342-.454.253-.174.21-.17 2.064-.172h1.692l1.675 2.79m2.794-2.78c0 .047-1.11 1.85-1.127 1.83-.016-.017-1.04-1.725-1.093-1.82-.006-.012.49-.02 1.104-.02.615 0 1.117.004 1.117.01M43.754 33.39v17.847h-1.86V15.54h1.86v17.85M39.99 50.666c-.006.007-4.656-2.116-10.333-4.718l-10.32-4.73.006-7.84.008-7.84.913-.417c.503-.23.918-.418.924-.418.006 0 .01 3.438.01 7.64v7.642h1.918v-16.17l8.437-3.867 8.438-3.868.007 17.286c.004 9.507 0 17.292-.006 17.3M4.28 21.627v2.338l-.67.012c-.596.012-.698.02-.93.083l-.26.07v-4.84h1.86v2.338m47.933.483v.96h6.598V21.15h-6.598v.96M7.948 23.114c.45.133.794.454.964.9l.064.168.008 3.18.008 3.178H6.197v-3.136c0-3.438-.007-3.265.173-3.605.296-.56.988-.86 1.577-.685m4.826.037c.346.132.673.458.817.813l.065.162.007 3.207.008 3.207h-2.792v-3.037c0-3.315 0-3.32.16-3.644.314-.644 1.083-.957 1.735-.708M4.28 31.05v5.158h11.306v-10.32h1.86v15l-7.153-.006-7.155-.007-.133-.062c-.2-.09-.397-.29-.49-.495l-.082-.176v-6.74c0-7.506-.017-6.866.187-7.143.224-.306.406-.367 1.103-.37h.557v5.16m41.905-1.084c2.368 1.013 3.01 4.082 1.247 5.956-.436.464-1.393 1.048-1.716 1.048-.04 0-.045-.342-.045-3.594v-3.593l.142.042c.078.023.246.086.373.14m6.028 3.424v.958h6.598V32.43h-6.598v.96m-43.224 0v.93H6.197v-1.862h2.791v.93m4.68 0v.93h-2.79v-1.86h2.791v.93m0 13.655c0 4.92-.008 4.783.28 5.395.452.966 1.277 1.52 2.428 1.63.848.08 1.048.327 1.064 1.318.016.91-.094 1.172-.586 1.403l-.156.072-3.806.008c-4.456.01-4.27.022-4.568-.308-.288-.32-.268.228-.268-7.205v-6.55H13.67v4.236m38.543-2.376v.96h6.598v-1.918h-6.598v.957" stroke="null"/></g></svg>
