<svg id="SvgjsSvg1205" xmlns="http://www.w3.org/2000/svg" version="1.1" xmlns:xlink="http://www.w3.org/1999/xlink" xmlns:svgjs="http://svgjs.com/svgjs" width="52" height="51" viewBox="0 0 52 51"><title>Shape 1</title><desc>Created with Avocode.</desc><defs id="SvgjsDefs1206"><linearGradient id="SvgjsLinearGradient1209" gradientUnits="userSpaceOnUse" x1="1430.9824670259597" y1="237.2485075" x2="1395.0175329740403" y2="286.7499925"><stop id="SvgjsStop1210" stop-opacity="1" stop-color="#0fa0d9" offset="0"></stop><stop id="SvgjsStop1211" stop-opacity="1" stop-color="#0fa0d9" offset="0.45"></stop><stop id="SvgjsStop1212" stop-opacity="1" stop-color="#0ecebf" offset="1"></stop></linearGradient></defs><path id="SvgjsPath1207" d="M1434.51 260.632V259.664H1436.36C1436.83 259.664 1437.1999999999998 259.282 1437.1999999999998 258.81V256.019H1438.1599999999999C1438.62 256.019 1438.9999999999998 255.637 1438.9999999999998 255.165V252.432C1438.9999999999998 252.125 1438.8399999999997 251.84199999999998 1438.5799999999997 251.69L1413.4199999999996 237.111C1413.1599999999996 236.96099999999998 1412.8399999999997 236.96099999999998 1412.5799999999997 237.111L1387.4199999999996 251.69C1387.1599999999996 251.84199999999998 1386.9999999999995 252.125 1386.9999999999995 252.432V255.165C1386.9999999999995 255.637 1387.3799999999997 256.019 1387.8399999999995 256.019H1388.7999999999995V258.81C1388.7999999999995 259.282 1389.1699999999994 259.664 1389.6399999999994 259.664H1391.4899999999993V260.632C1391.4899999999993 261.296 1391.8599999999992 261.875 1392.3899999999994 262.176V278.002H1389.6399999999994C1389.1699999999994 278.002 1388.7999999999995 278.384 1388.7999999999995 278.856V281.646H1387.8399999999995C1387.3799999999994 281.646 1386.9999999999995 282.029 1386.9999999999995 282.50100000000003V286.146C1386.9999999999995 286.617 1387.3799999999997 287 1387.8399999999995 287H1438.1599999999994C1438.6199999999994 287 1438.9999999999993 286.617 1438.9999999999993 286.146V282.50100000000003C1438.9999999999993 282.02900000000005 1438.6199999999992 281.646 1438.1599999999994 281.646H1437.1999999999994V278.856C1437.1999999999994 278.384 1436.8299999999995 278.002 1436.3599999999994 278.002H1433.6099999999994V262.176C1434.1399999999994 261.875 1434.5099999999995 261.296 1434.5099999999995 260.632ZM1432.82 260.632C1432.82 260.664 1432.8 260.689 1432.77 260.689H1429.17C1429.14 260.689 1429.1200000000001 260.66400000000004 1429.1200000000001 260.632V259.664H1432.8200000000002ZM1424.62 278.002V262.176C1425.1599999999999 261.875 1425.52 261.296 1425.52 260.632V259.664H1427.43V260.632C1427.43 261.296 1427.8 261.875 1428.3300000000002 262.176V278.002ZM1421.03 278.002V262.398H1422.94V278.002ZM1415.64 278.002V262.176C1416.17 261.875 1416.5400000000002 261.296 1416.5400000000002 260.632V259.664H1418.4500000000003V260.632C1418.4500000000003 261.296 1418.8100000000002 261.875 1419.3500000000004 262.176V278.002ZM1412.05 278.002V262.398H1413.95V278.002ZM1406.65 278.002V262.176C1407.19 261.875 1407.5500000000002 261.296 1407.5500000000002 260.632V259.664H1409.4600000000003V260.632C1409.4600000000003 261.296 1409.8300000000002 261.875 1410.3600000000004 262.176V278.002ZM1403.06 278.002V262.398H1404.97V278.002ZM1397.67 278.002V262.176C1398.2 261.875 1398.5700000000002 261.296 1398.5700000000002 260.632V259.664H1400.4800000000002V260.632C1400.4800000000002 261.296 1400.8400000000001 261.875 1401.3800000000003 262.176V278.002ZM1405.87 259.664V260.632C1405.87 260.664 1405.84 260.689 1405.81 260.689H1402.22C1402.19 260.689 1402.16 260.66400000000004 1402.16 260.632V259.664ZM1414.85 259.664V260.632C1414.85 260.664 1414.83 260.689 1414.8 260.689H1411.2C1411.17 260.689 1411.15 260.66400000000004 1411.15 260.632V259.664ZM1423.84 259.664V260.632C1423.84 260.664 1423.81 260.689 1423.78 260.689H1420.19C1420.16 260.689 1420.13 260.66400000000004 1420.13 260.632V259.664ZM1388.68 252.927L1413 238.83599999999998L1437.32 252.927V254.31099999999998H1388.6799999999998ZM1390.48 256.019H1435.52V257.956H1390.48ZM1396.88 259.664V260.632C1396.88 260.664 1396.8600000000001 260.689 1396.8300000000002 260.689H1393.2300000000002C1393.2000000000003 260.689 1393.1800000000003 260.66400000000004 1393.1800000000003 260.632V259.664ZM1394.08 262.398H1395.98V278.002H1394.08ZM1437.32 285.292H1388.6799999999998V283.35499999999996H1437.32ZM1435.52 281.646H1390.48V279.71000000000004H1435.52ZM1430.02 278.002V262.398H1431.92V278.002Z " fill="#000000" fill-opacity="1" transform="matrix(1,0,0,1,-1387,-236)"></path><path id="SvgjsPath1208" d="M1434.51 260.632V259.664H1436.36C1436.83 259.664 1437.1999999999998 259.282 1437.1999999999998 258.81V256.019H1438.1599999999999C1438.62 256.019 1438.9999999999998 255.637 1438.9999999999998 255.165V252.432C1438.9999999999998 252.125 1438.8399999999997 251.84199999999998 1438.5799999999997 251.69L1413.4199999999996 237.111C1413.1599999999996 236.96099999999998 1412.8399999999997 236.96099999999998 1412.5799999999997 237.111L1387.4199999999996 251.69C1387.1599999999996 251.84199999999998 1386.9999999999995 252.125 1386.9999999999995 252.432V255.165C1386.9999999999995 255.637 1387.3799999999997 256.019 1387.8399999999995 256.019H1388.7999999999995V258.81C1388.7999999999995 259.282 1389.1699999999994 259.664 1389.6399999999994 259.664H1391.4899999999993V260.632C1391.4899999999993 261.296 1391.8599999999992 261.875 1392.3899999999994 262.176V278.002H1389.6399999999994C1389.1699999999994 278.002 1388.7999999999995 278.384 1388.7999999999995 278.856V281.646H1387.8399999999995C1387.3799999999994 281.646 1386.9999999999995 282.029 1386.9999999999995 282.50100000000003V286.146C1386.9999999999995 286.617 1387.3799999999997 287 1387.8399999999995 287H1438.1599999999994C1438.6199999999994 287 1438.9999999999993 286.617 1438.9999999999993 286.146V282.50100000000003C1438.9999999999993 282.02900000000005 1438.6199999999992 281.646 1438.1599999999994 281.646H1437.1999999999994V278.856C1437.1999999999994 278.384 1436.8299999999995 278.002 1436.3599999999994 278.002H1433.6099999999994V262.176C1434.1399999999994 261.875 1434.5099999999995 261.296 1434.5099999999995 260.632ZM1432.82 260.632C1432.82 260.664 1432.8 260.689 1432.77 260.689H1429.17C1429.14 260.689 1429.1200000000001 260.66400000000004 1429.1200000000001 260.632V259.664H1432.8200000000002ZM1424.62 278.002V262.176C1425.1599999999999 261.875 1425.52 261.296 1425.52 260.632V259.664H1427.43V260.632C1427.43 261.296 1427.8 261.875 1428.3300000000002 262.176V278.002ZM1421.03 278.002V262.398H1422.94V278.002ZM1415.64 278.002V262.176C1416.17 261.875 1416.5400000000002 261.296 1416.5400000000002 260.632V259.664H1418.4500000000003V260.632C1418.4500000000003 261.296 1418.8100000000002 261.875 1419.3500000000004 262.176V278.002ZM1412.05 278.002V262.398H1413.95V278.002ZM1406.65 278.002V262.176C1407.19 261.875 1407.5500000000002 261.296 1407.5500000000002 260.632V259.664H1409.4600000000003V260.632C1409.4600000000003 261.296 1409.8300000000002 261.875 1410.3600000000004 262.176V278.002ZM1403.06 278.002V262.398H1404.97V278.002ZM1397.67 278.002V262.176C1398.2 261.875 1398.5700000000002 261.296 1398.5700000000002 260.632V259.664H1400.4800000000002V260.632C1400.4800000000002 261.296 1400.8400000000001 261.875 1401.3800000000003 262.176V278.002ZM1405.87 259.664V260.632C1405.87 260.664 1405.84 260.689 1405.81 260.689H1402.22C1402.19 260.689 1402.16 260.66400000000004 1402.16 260.632V259.664ZM1414.85 259.664V260.632C1414.85 260.664 1414.83 260.689 1414.8 260.689H1411.2C1411.17 260.689 1411.15 260.66400000000004 1411.15 260.632V259.664ZM1423.84 259.664V260.632C1423.84 260.664 1423.81 260.689 1423.78 260.689H1420.19C1420.16 260.689 1420.13 260.66400000000004 1420.13 260.632V259.664ZM1388.68 252.927L1413 238.83599999999998L1437.32 252.927V254.31099999999998H1388.6799999999998ZM1390.48 256.019H1435.52V257.956H1390.48ZM1396.88 259.664V260.632C1396.88 260.664 1396.8600000000001 260.689 1396.8300000000002 260.689H1393.2300000000002C1393.2000000000003 260.689 1393.1800000000003 260.66400000000004 1393.1800000000003 260.632V259.664ZM1394.08 262.398H1395.98V278.002H1394.08ZM1437.32 285.292H1388.6799999999998V283.35499999999996H1437.32ZM1435.52 281.646H1390.48V279.71000000000004H1435.52ZM1430.02 278.002V262.398H1431.92V278.002Z " fill="url(#SvgjsLinearGradient1209)" transform="matrix(1,0,0,1,-1387,-236)"></path></svg>