<svg id="SvgjsSvg1173" xmlns="http://www.w3.org/2000/svg" version="1.1" xmlns:xlink="http://www.w3.org/1999/xlink" xmlns:svgjs="http://svgjs.com/svgjs" width="50" height="51" viewBox="0 0 50 51"><title>Shape 1</title><desc>Created with Avocode.</desc><defs id="SvgjsDefs1174"><linearGradient id="SvgjsLinearGradient1177" gradientUnits="userSpaceOnUse" x1="971.9823049121246" y1="238.248956014947" x2="936.0176950878753" y2="287.74999475384396"><stop id="SvgjsStop1178" stop-opacity="1" stop-color="#0fa0d9" offset="0"></stop><stop id="SvgjsStop1179" stop-opacity="1" stop-color="#0fa0d9" offset="0.45"></stop><stop id="SvgjsStop1180" stop-opacity="1" stop-color="#0ecebf" offset="1"></stop></linearGradient></defs><path id="SvgjsPath1175" d="M954 259.666C955.051 259.666 955.966 259.271 956.5 258.978C957.034 259.271 957.949 259.666 959 259.666C960.551 259.666 962.285 258.784 963.026 257.629C963.0999999999999 257.51800000000003 964.833 254.86900000000003 964.833 250.49900000000002C964.833 247.28300000000002 962.216 244.66600000000003 959 244.66600000000003C958.057 244.66600000000003 957.198 245.01200000000003 956.5 245.37900000000002C955.801 245.01200000000003 954.942 244.66600000000003 954 244.66600000000003C950.783 244.66600000000003 948.166 247.28300000000002 948.166 250.49900000000002C948.166 255.437 949.702 257.355 950.0360000000001 257.713C950.7900000000001 258.661 952.336 259.666 954.0000000000001 259.666ZM954 246.333C954.743 246.333 955.503 246.71699999999998 956.082 247.053C956.341 247.203 956.659 247.203 956.917 247.053C957.496 246.71699999999998 958.2560000000001 246.333 959 246.333C961.297 246.333 963.166 248.202 963.166 250.499C963.166 254.334 961.6540000000001 256.683 961.6310000000001 256.716C961.2420000000001 257.32300000000004 960.066 258 959.0000000000001 258C957.9260000000002 258 957.0030000000002 257.335 956.9970000000001 257.331C956.85 257.221 956.6750000000001 257.166 956.5000000000001 257.166C956.3250000000002 257.166 956.1500000000001 257.221 956.0020000000001 257.331C955.993 257.338 955.0740000000001 258 954.0000000000001 258C952.9380000000001 258 951.8300000000002 257.307 951.3260000000001 256.656C951.3090000000001 256.634 951.2810000000002 256.603 951.2620000000002 256.583C951.2470000000002 256.56800000000004 949.8330000000002 255.01800000000003 949.8330000000002 250.49900000000002C949.8330000000002 248.20200000000003 951.7020000000002 246.33300000000003 954.0000000000002 246.33300000000003ZM955.786 243.428C955.9409999999999 243.688 956.217 243.833 956.501 243.833C956.646 243.833 956.795 243.794 956.929 243.713C957.323 243.477 957.451 242.965 957.2139999999999 242.57L954.7139999999999 238.403C954.477 238.009 953.9659999999999 237.881 953.5709999999999 238.118C953.1759999999999 238.355 953.0479999999999 238.867 953.286 239.262ZM958.387 243.308C958.4459999999999 243.327 958.977 243.498 959.6809999999999 243.498H959.6819999999999C960.6779999999999 243.498 961.545 243.158 962.1859999999999 242.517C963.7109999999999 240.992 963.007 238.81 962.9759999999999 238.71699999999998C962.8929999999999 238.469 962.6979999999999 238.27399999999997 962.4499999999999 238.19099999999997C962.391 238.17199999999997 961.8589999999999 238.00099999999998 961.155 238.00099999999998C960.158 238.00099999999998 959.2919999999999 238.33999999999997 958.651 238.98199999999997C957.126 240.50699999999998 957.8299999999999 242.68799999999996 957.8599999999999 242.78099999999998C957.9429999999999 243.02999999999997 958.1379999999999 243.22499999999997 958.387 243.30799999999996ZM959.829 240.16C960.156 239.833 960.601 239.667 961.155 239.667C961.2719999999999 239.667 961.3829999999999 239.675 961.481 239.687C961.532 240.13600000000002 961.509 240.83700000000002 961.007 241.33800000000002C960.6809999999999 241.66500000000002 960.2339999999999 241.83200000000002 959.6809999999999 241.83200000000002C959.564 241.83200000000002 959.453 241.82300000000004 959.3549999999999 241.812C959.3039999999999 241.363 959.3269999999999 240.662 959.829 240.16000000000003ZM976.5 261.333H936.5C935.121 261.333 934 262.45500000000004 934 263.833V267.16600000000005C934 267.62600000000003 934.373 267.9990000000001 934.833 267.9990000000001C935.293 267.9990000000001 935.6659999999999 267.6260000000001 935.6659999999999 267.16600000000005V263.833C935.6659999999999 263.374 936.0409999999999 263 936.4999999999999 263H938.9999999999999V267.167C938.9999999999999 267.626 939.3729999999999 268 939.8329999999999 268C940.2929999999999 268 940.6659999999998 267.626 940.6659999999998 267.167V263H962.3329999999999V267.167C962.3329999999999 267.626 962.7059999999999 268 963.1659999999998 268C963.6259999999999 268 963.9989999999998 267.626 963.9989999999998 267.167V263H972.3329999999997V267.167C972.3329999999997 267.626 972.7059999999998 268 973.1659999999997 268C973.6259999999997 268 973.9989999999997 267.626 973.9989999999997 267.167V263H976.4989999999997C976.9589999999997 263 977.3329999999996 263.374 977.3329999999996 263.833V269.66600000000005H974.8329999999996C974.3729999999996 269.66600000000005 973.9989999999997 270.0400000000001 973.9989999999997 270.50000000000006V278.00000000000006H973.1659999999997C972.7059999999997 278.00000000000006 972.3329999999997 278.37300000000005 972.3329999999997 278.8330000000001C972.3329999999997 279.29300000000006 972.7059999999998 279.6660000000001 973.1659999999997 279.6660000000001H975.6659999999997V285.5000000000001C975.6659999999997 285.9590000000001 975.2919999999997 286.33300000000014 974.8329999999997 286.33300000000014H948.9999999999998V282.16600000000017C948.9999999999998 281.70700000000016 948.6259999999997 281.33300000000014 948.1659999999998 281.33300000000014C947.7069999999999 281.33300000000014 947.3329999999999 281.70700000000016 947.3329999999999 282.16600000000017V286.33300000000014H945.6669999999998V282.16600000000017C945.6669999999998 281.70700000000016 945.2929999999998 281.33300000000014 944.8329999999999 281.33300000000014C944.3729999999998 281.33300000000014 943.9999999999999 281.70700000000016 943.9999999999999 282.16600000000017V286.33300000000014H942.3329999999999V282.16600000000017C942.3329999999999 281.70700000000016 941.9599999999998 281.33300000000014 941.4999999999999 281.33300000000014C941.0399999999998 281.33300000000014 940.6669999999999 281.70700000000016 940.6669999999999 282.16600000000017V286.33300000000014H933.1669999999999C932.7069999999999 286.33300000000014 932.333 285.9590000000001 932.333 285.5000000000001V282.1670000000001C932.333 281.7070000000001 931.9599999999999 281.3330000000001 931.5 281.3330000000001C931.04 281.3330000000001 930.667 281.7070000000001 930.667 282.1670000000001V285.5000000000001C930.667 286.8780000000001 931.788 288.0000000000001 933.167 288.0000000000001H974.8330000000001C976.2120000000001 288.0000000000001 977.3330000000001 286.8780000000001 977.3330000000001 285.5000000000001V279.6660000000001C977.3330000000001 278.5840000000001 976.4750000000001 278.0000000000001 975.667 278.0000000000001V271.33300000000014H977.3330000000001C978.142 271.33300000000014 979.0000000000001 270.74900000000014 979.0000000000001 269.66600000000017V263.83300000000014C979.0000000000001 262.45500000000015 977.8780000000002 261.33300000000014 976.5000000000001 261.33300000000014ZM961.5 279.666C961.96 279.666 962.333 279.293 962.333 278.83299999999997C962.333 278.373 961.9599999999999 277.99999999999994 961.5 277.99999999999994H952.333V271.33299999999997H964V283.83299999999997C964 284.14099999999996 964.169 284.42299999999994 964.44 284.568C964.71 284.712 965.0400000000001 284.697 965.296 284.527L967.3330000000001 283.168L969.3710000000001 284.527C969.5110000000001 284.62 969.6720000000001 284.667 969.8330000000001 284.667C969.9680000000001 284.667 970.1030000000001 284.63399999999996 970.2260000000001 284.568C970.4970000000001 284.423 970.6660000000002 284.14099999999996 970.6660000000002 283.83299999999997V271.33299999999997H971.5000000000001C971.9600000000002 271.33299999999997 972.3330000000001 270.96 972.3330000000001 270.49999999999994C972.3330000000001 270.03999999999996 971.96 269.6669999999999 971.5000000000001 269.6669999999999H931.5000000000001C930.0980000000001 269.6669999999999 929.0000000000001 270.76499999999993 929.0000000000001 272.1669999999999V277.1669999999999C929.0000000000001 278.5449999999999 930.1220000000001 279.6669999999999 931.5000000000001 279.6669999999999H961.5000000000001ZM969 271.333V282.276L967.795 281.473C967.515 281.286 967.15 281.286 966.87 281.473L965.666 282.276V271.333ZM939 271.333H950.666V278H939ZM930.666 277.166V272.166C930.666 271.691 931.0250000000001 271.33299999999997 931.5 271.33299999999997H937.333V277.99999999999994H931.5C931.032 277.99999999999994 930.666 277.63399999999996 930.666 277.16599999999994ZM946.5 273C946.04 273 945.667 273.373 945.667 273.833V275.5C945.667 275.96 946.0400000000001 276.333 946.5 276.333C946.96 276.333 947.333 275.96000000000004 947.333 275.5V273.833C947.333 273.37300000000005 946.9599999999999 273 946.5 273ZM943.166 273C942.706 273 942.3330000000001 273.373 942.3330000000001 273.833V275.5C942.3330000000001 275.96 942.7060000000001 276.333 943.166 276.333C943.6260000000001 276.333 944 275.96000000000004 944 275.5V273.833C944 273.37300000000005 943.626 273 943.166 273Z " fill="#000000" fill-opacity="1" transform="matrix(1,0,0,1,-929,-237)"></path><path id="SvgjsPath1176" d="M954 259.666C955.051 259.666 955.966 259.271 956.5 258.978C957.034 259.271 957.949 259.666 959 259.666C960.551 259.666 962.285 258.784 963.026 257.629C963.0999999999999 257.51800000000003 964.833 254.86900000000003 964.833 250.49900000000002C964.833 247.28300000000002 962.216 244.66600000000003 959 244.66600000000003C958.057 244.66600000000003 957.198 245.01200000000003 956.5 245.37900000000002C955.801 245.01200000000003 954.942 244.66600000000003 954 244.66600000000003C950.783 244.66600000000003 948.166 247.28300000000002 948.166 250.49900000000002C948.166 255.437 949.702 257.355 950.0360000000001 257.713C950.7900000000001 258.661 952.336 259.666 954.0000000000001 259.666ZM954 246.333C954.743 246.333 955.503 246.71699999999998 956.082 247.053C956.341 247.203 956.659 247.203 956.917 247.053C957.496 246.71699999999998 958.2560000000001 246.333 959 246.333C961.297 246.333 963.166 248.202 963.166 250.499C963.166 254.334 961.6540000000001 256.683 961.6310000000001 256.716C961.2420000000001 257.32300000000004 960.066 258 959.0000000000001 258C957.9260000000002 258 957.0030000000002 257.335 956.9970000000001 257.331C956.85 257.221 956.6750000000001 257.166 956.5000000000001 257.166C956.3250000000002 257.166 956.1500000000001 257.221 956.0020000000001 257.331C955.993 257.338 955.0740000000001 258 954.0000000000001 258C952.9380000000001 258 951.8300000000002 257.307 951.3260000000001 256.656C951.3090000000001 256.634 951.2810000000002 256.603 951.2620000000002 256.583C951.2470000000002 256.56800000000004 949.8330000000002 255.01800000000003 949.8330000000002 250.49900000000002C949.8330000000002 248.20200000000003 951.7020000000002 246.33300000000003 954.0000000000002 246.33300000000003ZM955.786 243.428C955.9409999999999 243.688 956.217 243.833 956.501 243.833C956.646 243.833 956.795 243.794 956.929 243.713C957.323 243.477 957.451 242.965 957.2139999999999 242.57L954.7139999999999 238.403C954.477 238.009 953.9659999999999 237.881 953.5709999999999 238.118C953.1759999999999 238.355 953.0479999999999 238.867 953.286 239.262ZM958.387 243.308C958.4459999999999 243.327 958.977 243.498 959.6809999999999 243.498H959.6819999999999C960.6779999999999 243.498 961.545 243.158 962.1859999999999 242.517C963.7109999999999 240.992 963.007 238.81 962.9759999999999 238.71699999999998C962.8929999999999 238.469 962.6979999999999 238.27399999999997 962.4499999999999 238.19099999999997C962.391 238.17199999999997 961.8589999999999 238.00099999999998 961.155 238.00099999999998C960.158 238.00099999999998 959.2919999999999 238.33999999999997 958.651 238.98199999999997C957.126 240.50699999999998 957.8299999999999 242.68799999999996 957.8599999999999 242.78099999999998C957.9429999999999 243.02999999999997 958.1379999999999 243.22499999999997 958.387 243.30799999999996ZM959.829 240.16C960.156 239.833 960.601 239.667 961.155 239.667C961.2719999999999 239.667 961.3829999999999 239.675 961.481 239.687C961.532 240.13600000000002 961.509 240.83700000000002 961.007 241.33800000000002C960.6809999999999 241.66500000000002 960.2339999999999 241.83200000000002 959.6809999999999 241.83200000000002C959.564 241.83200000000002 959.453 241.82300000000004 959.3549999999999 241.812C959.3039999999999 241.363 959.3269999999999 240.662 959.829 240.16000000000003ZM976.5 261.333H936.5C935.121 261.333 934 262.45500000000004 934 263.833V267.16600000000005C934 267.62600000000003 934.373 267.9990000000001 934.833 267.9990000000001C935.293 267.9990000000001 935.6659999999999 267.6260000000001 935.6659999999999 267.16600000000005V263.833C935.6659999999999 263.374 936.0409999999999 263 936.4999999999999 263H938.9999999999999V267.167C938.9999999999999 267.626 939.3729999999999 268 939.8329999999999 268C940.2929999999999 268 940.6659999999998 267.626 940.6659999999998 267.167V263H962.3329999999999V267.167C962.3329999999999 267.626 962.7059999999999 268 963.1659999999998 268C963.6259999999999 268 963.9989999999998 267.626 963.9989999999998 267.167V263H972.3329999999997V267.167C972.3329999999997 267.626 972.7059999999998 268 973.1659999999997 268C973.6259999999997 268 973.9989999999997 267.626 973.9989999999997 267.167V263H976.4989999999997C976.9589999999997 263 977.3329999999996 263.374 977.3329999999996 263.833V269.66600000000005H974.8329999999996C974.3729999999996 269.66600000000005 973.9989999999997 270.0400000000001 973.9989999999997 270.50000000000006V278.00000000000006H973.1659999999997C972.7059999999997 278.00000000000006 972.3329999999997 278.37300000000005 972.3329999999997 278.8330000000001C972.3329999999997 279.29300000000006 972.7059999999998 279.6660000000001 973.1659999999997 279.6660000000001H975.6659999999997V285.5000000000001C975.6659999999997 285.9590000000001 975.2919999999997 286.33300000000014 974.8329999999997 286.33300000000014H948.9999999999998V282.16600000000017C948.9999999999998 281.70700000000016 948.6259999999997 281.33300000000014 948.1659999999998 281.33300000000014C947.7069999999999 281.33300000000014 947.3329999999999 281.70700000000016 947.3329999999999 282.16600000000017V286.33300000000014H945.6669999999998V282.16600000000017C945.6669999999998 281.70700000000016 945.2929999999998 281.33300000000014 944.8329999999999 281.33300000000014C944.3729999999998 281.33300000000014 943.9999999999999 281.70700000000016 943.9999999999999 282.16600000000017V286.33300000000014H942.3329999999999V282.16600000000017C942.3329999999999 281.70700000000016 941.9599999999998 281.33300000000014 941.4999999999999 281.33300000000014C941.0399999999998 281.33300000000014 940.6669999999999 281.70700000000016 940.6669999999999 282.16600000000017V286.33300000000014H933.1669999999999C932.7069999999999 286.33300000000014 932.333 285.9590000000001 932.333 285.5000000000001V282.1670000000001C932.333 281.7070000000001 931.9599999999999 281.3330000000001 931.5 281.3330000000001C931.04 281.3330000000001 930.667 281.7070000000001 930.667 282.1670000000001V285.5000000000001C930.667 286.8780000000001 931.788 288.0000000000001 933.167 288.0000000000001H974.8330000000001C976.2120000000001 288.0000000000001 977.3330000000001 286.8780000000001 977.3330000000001 285.5000000000001V279.6660000000001C977.3330000000001 278.5840000000001 976.4750000000001 278.0000000000001 975.667 278.0000000000001V271.33300000000014H977.3330000000001C978.142 271.33300000000014 979.0000000000001 270.74900000000014 979.0000000000001 269.66600000000017V263.83300000000014C979.0000000000001 262.45500000000015 977.8780000000002 261.33300000000014 976.5000000000001 261.33300000000014ZM961.5 279.666C961.96 279.666 962.333 279.293 962.333 278.83299999999997C962.333 278.373 961.9599999999999 277.99999999999994 961.5 277.99999999999994H952.333V271.33299999999997H964V283.83299999999997C964 284.14099999999996 964.169 284.42299999999994 964.44 284.568C964.71 284.712 965.0400000000001 284.697 965.296 284.527L967.3330000000001 283.168L969.3710000000001 284.527C969.5110000000001 284.62 969.6720000000001 284.667 969.8330000000001 284.667C969.9680000000001 284.667 970.1030000000001 284.63399999999996 970.2260000000001 284.568C970.4970000000001 284.423 970.6660000000002 284.14099999999996 970.6660000000002 283.83299999999997V271.33299999999997H971.5000000000001C971.9600000000002 271.33299999999997 972.3330000000001 270.96 972.3330000000001 270.49999999999994C972.3330000000001 270.03999999999996 971.96 269.6669999999999 971.5000000000001 269.6669999999999H931.5000000000001C930.0980000000001 269.6669999999999 929.0000000000001 270.76499999999993 929.0000000000001 272.1669999999999V277.1669999999999C929.0000000000001 278.5449999999999 930.1220000000001 279.6669999999999 931.5000000000001 279.6669999999999H961.5000000000001ZM969 271.333V282.276L967.795 281.473C967.515 281.286 967.15 281.286 966.87 281.473L965.666 282.276V271.333ZM939 271.333H950.666V278H939ZM930.666 277.166V272.166C930.666 271.691 931.0250000000001 271.33299999999997 931.5 271.33299999999997H937.333V277.99999999999994H931.5C931.032 277.99999999999994 930.666 277.63399999999996 930.666 277.16599999999994ZM946.5 273C946.04 273 945.667 273.373 945.667 273.833V275.5C945.667 275.96 946.0400000000001 276.333 946.5 276.333C946.96 276.333 947.333 275.96000000000004 947.333 275.5V273.833C947.333 273.37300000000005 946.9599999999999 273 946.5 273ZM943.166 273C942.706 273 942.3330000000001 273.373 942.3330000000001 273.833V275.5C942.3330000000001 275.96 942.7060000000001 276.333 943.166 276.333C943.6260000000001 276.333 944 275.96000000000004 944 275.5V273.833C944 273.37300000000005 943.626 273 943.166 273Z " fill="url(#SvgjsLinearGradient1177)" transform="matrix(1,0,0,1,-929,-237)"></path></svg>