<svg width="54" height="54" xmlns="http://www.w3.org/2000/svg"><g><path fill-rule="evenodd" d="M26.726.245c0 .017-.21.027-.574.027-.545 0-.575.003-.607.053-.042.068-.288.078-.34.014-.044-.053-.178-.053-.198 0-.01.027-.054.04-.146.04-.126 0-.213.047-.18.1.007.01-.027.016-.077.01-.07-.007-.097.003-.125.046-.023.04-.062.056-.12.056-.065 0-.12.03-.222.12-.075.067-.147.12-.16.12-.016 0-.027.02-.027.04 0 .03-.03.04-.097.04-.074 0-.1.014-.11.054-.01.04-.037.054-.107.054s-.096.013-.107.053c-.01.035-.037.054-.078.054-.035 0-.088.024-.117.053-.03.03-.07.053-.092.053-.02 0-.046.024-.055.054-.013.04-.04.053-.11.053-.073 0-.09.01-.09.054 0 .04-.018.053-.08.053-.05 0-.092.02-.114.054-.018.03-.054.054-.08.054-.026 0-.047.018-.047.04 0 .022-.02.04-.043.04-.06 0-.275.14-.277.18 0 .02-.025.034-.054.034-.035 0-.053.017-.053.05 0 .037-.026.055-.093.068-.05.01-.102.033-.114.052-.01.02-.04.042-.067.05-.026.01-.047.037-.047.06 0 .022-.024.04-.054.04-.036 0-.054.018-.054.054 0 .035-.018.053-.053.053-.037 0-.055.018-.055.053 0 .036-.017.054-.053.054-.03 0-.077.024-.107.053-.03.03-.065.054-.08.054-.014 0-.04.023-.06.052-.018.03-.047.054-.065.054-.017 0-.04.024-.05.053-.008.028-.034.052-.056.052-.023 0-.047.024-.055.054-.01.03-.033.053-.054.053-.022 0-.046.023-.054.053s-.032.053-.053.053c-.023 0-.047.024-.055.053-.007.03-.03.053-.05.053-.018 0-.04.024-.05.053-.01.03-.034.054-.054.054-.02 0-.043.024-.053.053-.01.03-.032.053-.052.053-.02 0-.04.025-.05.054-.007.03-.032.053-.055.053-.024 0-.043.02-.043.044 0 .024-.03.072-.067.106-.036.034-.067.086-.067.116 0 .03-.017.054-.04.054-.022 0-.04.024-.04.053 0 .036-.017.054-.053.054s-.053.018-.053.054c0 .036-.018.053-.054.053-.036 0-.053.018-.053.054 0 .037-.018.054-.054.054-.037 0-.053.018-.053.06 0 .034-.024.076-.054.094-.03.02-.054.058-.054.087 0 .03-.018.053-.04.053-.023 0-.053.03-.067.067-.015.037-.044.067-.067.067-.028 0-.04.026-.04.082 0 .06-.015.087-.054.097-.03.01-.054.036-.054.062 0 .026-.024.053-.054.06-.03.01-.053.034-.053.058 0 .023-.025.066-.055.096s-.053.077-.053.106c0 .036-.018.054-.053.054-.037 0-.055.018-.055.053 0 .03-.024.077-.053.106-.03.03-.054.076-.054.104 0 .028-.024.056-.053.064-.04.01-.054.037-.054.11 0 .078-.008.096-.052.096-.036 0-.053.018-.053.054 0 .03-.018.06-.04.07-.02.008-.047.055-.056.103-.01.056-.036.093-.068.102-.038.01-.05.036-.05.108 0 .078-.01.096-.054.096-.038 0-.054.018-.054.06 0 .04-.054.115-.147.207-.08.08-.147.157-.147.17 0 .013.024-.004.053-.04.03-.034.053-.048.053-.03 0 .017-.03.055-.066.083-.036.03-.066.066-.066.082 0 .015-.018.022-.04.013-.03-.01-.044.013-.057.095-.01.065-.03.11-.053.11-.022 0-.044.042-.054.106-.01.063-.03.106-.054.106-.023 0-.036.03-.036.09 0 .07-.014.097-.054.11-.04.012-.053.04-.053.107s-.014.094-.054.107c-.062.02-.064.2-.004.26.044.045.038.154-.01.154-.025 0-.045.037-.056.106-.01.065-.032.107-.054.107-.026 0-.037.036-.037.118 0 .143-.02.203-.07.203-.026 0-.037.033-.037.103 0 .083-.012.108-.054.12-.046.01-.054.036-.054.162 0 .132-.007.15-.054.15s-.053.018-.053.16c0 .143-.007.16-.055.16-.046 0-.053.018-.053.145 0 .122-.01.148-.053.162-.042.012-.055.04-.055.112 0 .074-.024.12-.108.212-.095.103-.106.128-.09.208.014.08.01.092-.046.1-.06.008-.062.02-.07.25-.01.326.03.386.264.386.117 0 .158.01.158.037 0 .048.083.07.27.07.13 0 .153.008.165.053.012.046.037.054.163.054h.15v.182l.197.018c.108.01.22.01.25.002.033-.01.064-.004.076.015.014.02.006.026-.025.014-.024-.01-.044-.005-.044.01 0 .033.1.032.12-.002.027-.043.254-.034.254.01 0 .05.06.07.216.07.072 0 .13.01.13.024 0 .038.157.083.285.083.077 0 .116.01.116.034 0 .097.08.143.26.15.042 0 .06.018.06.056 0 .077.276.07.354-.007.05-.05.052-.05.09.004.033.047.068.056.21.056.147 0 .173.007.187.053.015.047.04.054.216.054.18 0 .198.004.198.053 0 .038.02.053.064.053.034 0 .085.025.112.055.028.032.07.05.097.044.03-.008.048.006.054.046.008.055.022.057.395.063.35.006.392.012.432.06.034.042.077.054.19.054.124 0 .15.008.16.053.013.046.037.054.162.054h.148l.008.1.01.1.21.008c.15.006.22.02.24.048.03.04.123.027.123-.02 0-.052.236-.025.254.03.014.048.04.054.21.054.174 0 .198.006.21.054.012.046.037.053.177.053.155 0 .163.004.163.066 0 .094.094.15.256.15.116 0 .14.007.152.052.02.073.143.073.166 0 .01-.03.03-.053.045-.053.017 0 .015.015-.006.04-.024.03-.025.04-.002.04.017 0 .037-.018.046-.04.024-.064.17-.053.17.013 0 .047.017.054.15.054.11 0 .16.012.184.045.024.032.084.048.21.056.14.01.184.023.205.062.015.028.046.05.068.05.023 0 .06.02.083.042.023.023.06.034.084.025.023-.01.034-.008.024.003-.11.108.31.19.43.084.04-.034.054-.042.036-.018-.038.05.064.076.292.077.1 0 .126.01.138.052.012.047.036.054.202.054.16 0 .193.007.217.053.022.038.058.053.13.053.118 0 .192.05.192.13 0 .05.014.056.15.056.107 0 .168.013.203.045.04.037.06.04.102.013.06-.038.32-.043.32-.006 0 .03.17.08.284.08.05 0 .09.017.1.04.012.032.062.04.216.04.117 0 .2.012.2.028 0 .014-.01.027-.022.027-.037 0-.055.067-.03.108.023.036.075.045.272.05.07 0 .1.015.107.047.013.07.19.073.25.006.064-.07.172-.07.172.002 0 .05.018.054.214.054.195 0 .213.004.213.053 0 .047.017.053.157.053.134 0 .16.008.17.054.008.03.034.053.057.053.024 0 .067.025.097.055.043.042.075.05.146.037.082-.017.093-.01.11.05.022.094.27.105.358.017l.053-.053v.053c0 .048.02.054.155.054.125 0 .16.01.187.054.028.045.062.054.22.054.17 0 .187.005.187.053 0 .047.017.055.12.055.065 0 .12.012.12.026 0 .016.012.028.027.028.016 0 .02-.012.012-.027-.01-.013-.006-.025.007-.025.013 0 .025.035.026.08.004.124.025.138.203.132.228-.007.263-.003.243.03-.013.018-.03.017-.056-.004-.023-.02-.038-.02-.038-.004 0 .048.09.063.123.02.05-.07.384-.06.384.012 0 .047.018.053.167.053.14 0 .174.01.202.053.027.045.062.054.197.054.16 0 .163 0 .115.053-.048.054-.02.134.047.134.014 0 .01-.02-.008-.042-.027-.033-.027-.048 0-.074.017-.018.028-.02.024-.005-.027.1.035.15.177.14.078-.004.136.002.13.013-.05.08.106.124.173.05.025-.025.034-.03.02-.012-.032.05.023.045.065-.004.042-.052.186-.054.186-.003 0 .046.082.07.257.07.114 0 .14.008.15.053.013.047.037.053.218.053.18 0 .202.005.202.048 0 .05.08.14.123.137.013 0 0-.018-.028-.04-.028-.02-.04-.04-.024-.04s.05.025.076.054c.027.03.077.053.11.053.04 0 .064.016.064.04 0 .063.198.06.27-.004.052-.047.095-.04.162.023.036.035.093.047.222.047.13 0 .174.01.174.037 0 .05.06.07.2.07.072 0 .12.013.13.036.006.02.055.045.107.055.138.025.217.075.217.135 0 .05.02.054.42.06.4.008.42.01.42.06 0 .05.02.054.204.054.18 0 .205.006.217.054.013.046.037.054.173.054.148 0 .158.004.153.06-.012.145-.01.147.21.15.138.004.218.018.248.044.056.05.096.05.116 0 .025-.068.257-.056.257.013 0 .048.018.054.154.054.126 0 .16.01.188.054.028.045.062.053.22.053.17 0 .187.006.187.055 0 .088.095.16.21.16.082 0 .107.012.118.053.02.077.263.077.34 0 .057-.057.12-.07.146-.028.014.026.17-.043.206-.092.01-.015.02-.072.02-.127 0-.057.02-.12.047-.15.12-.13.167-.198.167-.242 0-.026.024-.054.054-.062.045-.012.053-.036.053-.163 0-.134.006-.15.056-.15s.055-.012.046-.106c-.01-.104 0-.12.08-.11.027.005.034-.02.026-.1-.005-.06 0-.1.01-.094.012.007.02 0 .02-.015 0-.016.016-.026.034-.022.057.012.055-.117-.004-.196-.07-.096-.07-.174-.002-.192.045-.012.053-.037.053-.164 0-.13.007-.15.054-.15.045 0 .054-.017.054-.103 0-.08.012-.105.054-.116.04-.01.053-.037.053-.097 0-.047.024-.106.055-.136.037-.037.053-.088.053-.173 0-.102.008-.12.053-.12.046 0 .055-.018.055-.107 0-.09.01-.106.053-.106.044 0 .054-.018.054-.104 0-.08.01-.107.053-.118.04-.01.053-.036.053-.11 0-.064.013-.096.038-.096.043 0 .07-.057.07-.15 0-.038.015-.063.04-.063s.045-.038.056-.107c.01-.06.032-.107.05-.107.02 0 .042-.03.05-.068.01-.037.03-.067.044-.067.015 0 .026-.012.026-.028 0-.015-.014-.02-.03-.01-.02.013-.024.008-.012-.01.01-.018.03-.027.04-.02.034.02.14-.094.125-.135-.01-.024.01-.048.05-.064.054-.02.068-.044.068-.116 0-.07.013-.095.053-.105.03-.008.054-.032.054-.053 0-.022.024-.046.053-.054.04-.01.053-.036.053-.107 0-.07.013-.096.054-.107.04-.01.053-.036.053-.106s.013-.097.054-.107c.03-.008.053-.032.053-.054s.024-.046.053-.054c.043-.01.054-.036.054-.12 0-.085.01-.106.047-.103.03.002.046-.015.046-.05s.018-.053.053-.053c.04 0 .054-.02.06-.087.004-.047-.002-.085-.013-.083-.078.012-.122-.006-.09-.037.026-.026.037-.026.053 0 .03.05.257-.163.235-.22-.008-.022-.034-.04-.057-.04-.047 0-.047-.003-.013-.092.014-.037.044-.068.066-.068.025 0 .04-.024.04-.06 0-.033.025-.075.055-.094.03-.018.053-.056.053-.083 0-.028.025-.057.054-.064.03-.007.054-.032.054-.054s.024-.048.053-.058c.04-.012.055-.04.055-.108 0-.074.01-.092.053-.092.036 0 .053-.018.053-.053 0-.036.02-.054.055-.054.036 0 .053-.017.053-.052 0-.03.018-.054.04-.054.024 0 .05-.02.06-.046.01-.026.04-.063.065-.082.027-.02.05-.05.05-.07 0-.018.023-.056.052-.082.03-.027.054-.07.054-.098 0-.03.018-.05.052-.05.036 0 .054-.017.054-.052 0-.036.017-.054.053-.054.035 0 .052-.018.052-.053 0-.036.018-.054.054-.054.035 0 .053-.017.053-.053s.017-.053.053-.053c.035 0 .053-.018.053-.054 0-.036.018-.053.053-.053s.053-.018.053-.054c0-.035.018-.053.053-.053.036 0 .054-.018.054-.054 0-.036.017-.054.053-.054.03 0 .068-.024.086-.053.018-.03.06-.054.093-.054.043 0 .06-.017.06-.054 0-.036.018-.054.054-.054.036 0 .053-.017.053-.053 0-.037.018-.054.054-.054.035 0 .053-.018.053-.054 0-.044.018-.053.107-.053.078 0 .107-.012.107-.042 0-.023.022-.05.048-.058.025-.01.056-.033.068-.053.01-.02.043-.035.07-.035.08 0 .135-.03.135-.07 0-.023.03-.037.08-.037.045 0 .082.012.082.027 0 .044.102.03.13-.018.016-.03.055-.043.123-.04.078.002.102-.008.113-.05.01-.044.037-.053.158-.053.104 0 .15-.01.16-.04.01-.025.052-.04.118-.04.056 0 .11-.01.118-.024.01-.014.032-.02.052-.012.02.008.054-.005.077-.028.024-.023.078-.042.12-.042.044 0 .11-.024.148-.053.078-.06.233-.072.233-.015 0 .057.063.07.36.07.253 0 .276.004.29.053.007.03.033.053.058.053.024 0 .06.02.082.04.054.053.653.054.724 0 .078-.06.566-.053.61.008.03.037.09.048.338.056.2.007.32.023.355.047.075.054.623.053.698 0 .037-.026.156-.04.395-.046.288-.008.347-.017.376-.056.018-.026.047-.047.064-.047.045 0 .042-.63-.003-.65-.027-.013-.027-.02 0-.032.04-.018.046-.118.01-.118-.015 0-.03-.027-.035-.06-.005-.038-.025-.06-.055-.056-.025.002-.04-.005-.034-.016.03-.05-.073-.138-.146-.122-.045.01-.083.005-.095-.014-.013-.022 0-.026.045-.012.06.018.06.017.017-.03-.043-.044-.05-.044-.095-.002-.074.066-.278.06-.34-.008-.038-.042-.083-.054-.205-.054-.116 0-.156-.01-.156-.037 0-.054-.062-.07-.25-.07-.126 0-.155-.008-.13-.033.066-.066 0-.188-.076-.14-.012.007-.03 0-.04-.014-.008-.015-.07-.027-.134-.027-.088 0-.12-.01-.12-.04 0-.053-.158-.054-.228 0-.07.053-.136.05-.198-.014-.043-.042-.09-.053-.227-.053-.13 0-.174-.01-.174-.038 0-.05-.06-.07-.203-.07-.08 0-.124-.013-.134-.04-.01-.022-.03-.04-.044-.04-.016 0-.05-.02-.078-.045-.047-.042-.095-.055-.23-.06-.04 0-.06-.018-.06-.055 0-.06-.302-.077-.337-.02-.01.018 0 .022.028.01.025-.008.04-.006.032.007-.022.035-.15.026-.15-.012 0-.02-.053-.038-.15-.046-.102-.008-.157-.026-.174-.056-.02-.035-.065-.045-.207-.045-.16 0-.185-.005-.197-.052-.012-.04-.037-.053-.115-.053-.057 0-.125-.02-.156-.047-.054-.045-.055-.045-.016.004.035.045.035.05 0 .038-.023-.007-.042-.042-.043-.078-.003-.13-.005-.13-.17-.13-.12 0-.167-.012-.178-.04-.008-.023-.037-.04-.063-.04-.027 0-.056.017-.064.04-.026.068-.364.056-.364-.014 0-.048-.018-.054-.174-.054-.13 0-.173-.01-.173-.037 0-.047-.083-.07-.265-.07-.138 0-.142-.002-.1-.05.095-.103.02-.163-.205-.163-.123 0-.147-.01-.16-.054-.01-.04-.036-.053-.096-.053-.048 0-.106.023-.137.053-.03.03-.077.054-.107.054s-.077-.024-.107-.054c-.042-.04-.09-.053-.21-.053-.136 0-.16-.008-.172-.054-.013-.047-.037-.053-.217-.053s-.202-.005-.202-.05c0-.074-.125-.164-.227-.164-.064 0-.09-.014-.1-.053-.012-.045-.036-.053-.15-.053-.1 0-.15.014-.19.053-.066.066-.07.066-.087 0-.013-.048-.037-.053-.217-.053-.185 0-.203-.005-.203-.054 0-.047-.018-.053-.16-.053-.12 0-.16-.01-.16-.038 0-.044-.058-.07-.163-.07-.043 0-.078-.01-.078-.026s-.012-.028-.028-.028c-.015 0-.02.012-.012.027.01.014.003.026-.013.026-.02 0-.025-.022-.015-.052.04-.122-.025-.162-.254-.162-.147 0-.212.01-.212.032 0 .025-.007.025-.032 0-.018-.017-.096-.032-.173-.032-.106 0-.156-.013-.195-.053-.043-.043-.09-.055-.224-.055-.148 0-.173-.007-.185-.053-.013-.045-.037-.053-.164-.053-.155 0-.164-.01-.152-.138.004-.036-.03-.044-.203-.048-.15-.003-.22-.017-.255-.05-.04-.035-.06-.037-.1-.01-.08.05-.232.038-.293-.023-.038-.037-.09-.052-.177-.052-.08 0-.135-.014-.154-.04-.018-.026-.095-.047-.21-.058-.11-.01-.18-.03-.18-.048 0-.07-.108-.148-.21-.148-.082 0-.107-.01-.118-.054-.02-.076-.366-.07-.366.006 0 .016.02.013.045-.01.04-.03.043-.03.032.005-.02.06-.122.057-.138-.003-.01-.043-.04-.05-.216-.05-.185 0-.202-.004-.202-.053 0-.048-.018-.053-.187-.053-.16 0-.193-.008-.22-.053-.02-.03-.06-.053-.092-.053s-.064-.018-.072-.04c-.01-.02-.055-.05-.104-.062-.052-.014-.085-.038-.08-.06.004-.03-.063-.04-.36-.046-.322-.007-.374-.015-.423-.06-.043-.04-.095-.053-.206-.053-.126 0-.15-.008-.162-.053-.013-.048-.232-.08-.375-.056-.012.002-.014-.01-.005-.024.01-.015.03-.02.044-.01.016.01.023-.02.018-.074l-.008-.09h-.214c-.178 0-.217-.008-.233-.047-.024-.058-.098-.062-.12-.007-.025.067-.276.055-.276-.014 0-.05-.017-.054-.198-.054-.175 0-.2-.006-.216-.053-.014-.046-.04-.054-.175-.054-.14 0-.158-.007-.158-.054 0-.1-.094-.16-.248-.16-.112 0-.148-.01-.175-.054-.042-.068-.14-.068-.227 0-.09.07-.18.07-.18 0 0-.047-.017-.053-.146-.053-.112 0-.16-.014-.2-.055-.043-.042-.09-.053-.225-.053-.147 0-.172-.007-.184-.054-.008-.03-.036-.053-.067-.053-.03 0-.067-.018-.085-.04-.018-.022-.046-.04-.06-.04-.017 0-.006.018.022.04.03.02.04.04.023.04-.032 0-.145-.12-.145-.158 0-.08-.28-.076-.37.004-.038.035-.054.042-.036.018.038-.05-.064-.076-.295-.076-.09 0-.128-.01-.128-.038 0-.05-.06-.07-.21-.07-.08 0-.146-.018-.19-.053-.037-.028-.11-.052-.16-.053-.108 0-.177-.045-.19-.12-.01-.044-.037-.054-.17-.06-.106-.007-.168-.023-.182-.048-.024-.044-.126-.054-.126-.013 0 .014.017.02.037.01.022-.007.046 0 .056.014.025.043-.337.005-.388-.04-.024-.02-.102-.036-.178-.036-.16 0-.22-.02-.22-.07 0-.028-.047-.037-.2-.037-.216 0-.218 0-.168-.08.057-.09-.01-.126-.252-.13-.072-.003-.102-.017-.114-.054-.022-.07-.188-.07-.257 0-.068.066-.15.065-.167-.003-.012-.047-.036-.053-.216-.053-.185 0-.203-.005-.203-.054 0-.047-.018-.053-.157-.053-.135 0-.16-.008-.17-.054-.01-.03-.035-.053-.058-.053-.024 0-.068-.024-.097-.053-.03-.03-.082-.054-.117-.054-.045 0-.063-.014-.06-.047.004-.057-.284-.082-.413-.037-.048.017-.082.017-.092 0C28.254.712 28.176.7 28.09.7c-.133 0-.158-.008-.17-.054-.012-.047-.036-.054-.2-.054-.162 0-.188-.006-.2-.05-.01-.043-.04-.055-.154-.062-.13-.007-.143-.014-.167-.088-.036-.106-.06-.12-.227-.12-.077 0-.14-.012-.14-.027 0-.014-.024-.026-.053-.026-.03 0-.054.01-.054.025m-2.5.467c-.135.122-.18.122-.052 0 .054-.05.112-.093.127-.093.016 0-.018.04-.075.092m4.69.16c.02.023.023.04.008.04s-.042-.017-.06-.04c-.02-.02-.022-.04-.007-.04s.042.02.06.04m1.71.458c0 .055-.046.045-.06-.014-.01-.036-.003-.048.023-.038.02.008.036.03.036.052m-4.24.892c.013.047.037.053.208.053h.194l-.05.056c-.077.086.023.16.215.16.12 0 .143.007.155.052.01.038.036.054.093.054.044 0 .11-.025.148-.054.037-.03.092-.053.12-.053.03 0 .06.02.067.052.013.048.037.054.217.054.185 0 .203.004.203.053 0 .046.018.052.16.052.146 0 .167.008.256.094.098.094.153.127.092.053-.02-.026-.022-.04-.005-.04.016 0 .036.023.045.053.013.04.04.053.106.053s.092.013.102.053c.02.074.225.074.32 0 .067-.053.067-.053.08 0 .013.045.038.053.164.053.114 0 .162.013.203.053.042.042.09.054.214.054.12 0 .16.01.16.037 0 .043.058.07.153.07.085 0 .186.08.174.138-.01.057.097.08.342.07.345-.01.506.003.506.042 0 .052.06.07.236.07.123 0 .158.01.185.053.027.043.063.054.17.054.13 0 .136.002.096.047-.084.093-.014.133.238.138.09.002.114.014.126.058.016.06.205.063.266.002.045-.045.232-.04.25.008.01.025.07.046.17.057.095.01.163.032.17.055.012.026.07.036.217.036.175 0 .2.006.2.05 0 .11.072.155.26.162.042 0 .06.018.06.055 0 .048.018.055.147.055.11 0 .16-.013.2-.054.03-.028.06-.052.067-.052.007 0 .014.024.014.053 0 .05.017.055.197.055.174 0 .198.006.21.053.013.046.037.054.178.054.12 0 .162.01.162.037 0 .04.057.07.145.07.033 0 .082.023.11.052.026.03.068.053.094.053.025 0 .052.024.06.054.012.046.036.052.205.052.104 0 .184-.01.177-.02-.008-.013-.002-.04.012-.06.02-.032.024-.03.018.013-.007.048.01.055.15.062.12.006.168.02.196.06.03.043.068.052.222.052.167 0 .185.004.185.052s.02.054.16.054c.11 0 .162.01.164.033l.007.1c.005.063.013.066.204.074.137.006.215.022.248.05.043.04.05.04.096 0 .073-.066.26-.06.28.01.01.046.036.052.19.052.146 0 .18.01.208.054.027.043.063.053.187.053.134 0 .154.007.154.052 0 .074.125.162.23.162.06 0 .09.013.09.037 0 .103.31.087.38-.018.01-.017.045-.004.09.03.055.044.11.058.226.058.13 0 .155.008.167.053.012.047.037.053.2.053.164 0 .188.007.2.054.008.03.034.053.058.053s.073.02.108.043c.036.023.078.034.093.025.014-.01.04.014.053.052.026.066.036.07.207.068.32-.004.648.03.648.067 0 .045.062.066.193.066.066 0 .12.016.14.04.015.022.09.048.162.057.147.02.174.042.158.13-.01.057 0 .06.195.064.145.003.22.016.253.046.048.043.13.032.13-.017 0-.057.234-.033.252.025.015.047.04.053.216.053.18 0 .198.005.198.054 0 .048.018.053.174.053h.173v.08c0 .083.065.137.153.13.155-.014.243.006.257.056.017.068.196.062.246-.007.048-.065.173-.06.173.01 0 .047.017.053.154.053.12 0 .164.01.2.053.036.042.08.053.208.053.14 0 .165.007.177.053.007.03.03.053.053.053.02 0 .07.023.107.053.037.03.084.053.103.053.02 0 .042.025.052.056.017.052.035.056.236.05.453-.012.522-.005.506.054-.007.03-.036.054-.064.054-.032 0-.05.02-.05.053 0 .036-.018.054-.053.054-.037 0-.055.017-.055.053 0 .043-.018.054-.092.054-.068 0-.096.013-.108.053-.01.03-.035.053-.058.053-.022 0-.047.024-.055.054-.007.03-.036.053-.064.053-.032 0-.05.02-.05.054 0 .036-.018.054-.054.054-.035 0-.053.018-.053.053 0 .036-.017.054-.052.054-.036 0-.054.02-.054.054 0 .036-.018.054-.053.054s-.053.017-.053.053c0 .037-.017.054-.053.054s-.054.018-.054.054c0 .036-.017.053-.053.053-.034 0-.053.02-.053.052 0 .027-.024.056-.054.064-.03.007-.053.032-.053.053 0 .02-.024.045-.054.053-.03.007-.053.033-.053.056s-.018.042-.04.042c-.022 0-.04.024-.04.053 0 .036-.018.054-.054.054-.035 0-.053.016-.053.052s-.018.053-.053.053c-.036 0-.054.018-.054.054 0 .035-.018.052-.053.052-.04 0-.054.018-.054.08 0 .053-.017.082-.054.094-.03.01-.053.04-.053.068 0 .034-.02.052-.054.052-.035 0-.054.018-.054.05 0 .028-.024.057-.054.065-.03.01-.053.037-.053.067 0 .03-.024.06-.055.067-.038.01-.053.037-.053.097 0 .066-.01.083-.053.083-.036 0-.055.018-.055.05 0 .028-.024.057-.053.065-.04.01-.054.036-.054.11 0 .078-.01.096-.053.096-.036 0-.053.018-.053.053 0 .036-.018.054-.054.054-.04 0-.053.018-.053.08 0 .052-.02.093-.054.114-.028.018-.052.054-.052.08 0 .03-.02.047-.053.047-.045 0-.054.02-.054.108 0 .09-.008.107-.052.107-.035 0-.054.018-.054.05 0 .028-.024.057-.053.064-.04.01-.053.036-.053.11 0 .078-.01.095-.053.095-.044 0-.053.018-.053.107 0 .09-.008.107-.053.107-.035 0-.053.017-.053.052 0 .03-.017.054-.037.054-.043 0-.07.057-.07.146 0 .04-.02.066-.053.075-.04.01-.054.037-.054.095 0 .057-.015.086-.053.098-.03.01-.054.04-.054.07 0 .032-.065.12-.148.204-.086.086-.142.163-.134.185.01.02-.01.045-.05.06-.054.02-.067.045-.067.117 0 .068-.014.094-.054.105-.04.01-.054.036-.054.107 0 .07-.013.095-.054.106-.04.01-.053.036-.053.106s-.014.097-.054.107c-.04.01-.054.036-.054.106s-.013.096-.05.106c-.04.01-.05.038-.05.114 0 .065-.017.11-.044.125-.054.03-.055.086-.003.13.057.046.05.15-.013.213-.036.035-.053.09-.053.16 0 .09-.01.107-.055.107-.044 0-.053.018-.053.107 0 .09-.01.106-.054.106-.047 0-.053.018-.053.147 0 .13-.007.147-.054.147-.043 0-.052.018-.052.11 0 .086-.01.112-.053.123-.045.012-.054.036-.054.158 0 .126-.005.143-.052.143-.036 0-.054.02-.054.055 0 .03-.017.053-.04.053-.02 0-.05-.024-.066-.053-.023-.043-.056-.054-.164-.054-.1 0-.146-.012-.18-.05-.034-.042-.08-.055-.21-.06-.09-.002-.16-.014-.15-.027.007-.013.024-.016.038-.007.013.008.025-.023.025-.07 0-.065-.01-.08-.042-.068-.025.01-.035.005-.024-.013.013-.02-.058-.026-.224-.02-.133.003-.252-.004-.263-.016-.01-.014.007-.017.04-.008.05.012.057.008.032-.022-.03-.037-.106-.025-.106.017 0 .013-.06.024-.134.024-.097 0-.134-.01-.134-.036 0-.053-.06-.07-.253-.07-.147 0-.17-.007-.183-.053-.012-.045-.037-.053-.163-.053-.125 0-.15-.008-.15-.047 0-.11-.047-.133-.284-.137-.088-.002-.113-.014-.125-.058-.016-.06-.205-.063-.265-.002-.043.043-.154.038-.154-.006 0-.043-.08-.07-.21-.07-.052 0-.113-.02-.138-.04-.025-.024-.122-.05-.222-.058-.123-.013-.178-.03-.178-.054 0-.02-.025-.036-.057-.036-.03 0-.07-.02-.088-.044-.018-.025-.06-.047-.097-.05-.043-.002-.066-.023-.072-.063-.008-.055-.022-.058-.207-.054-.108 0-.192.01-.186.02.006.01 0 .036-.016.058-.02.03-.024.027-.018-.015.007-.05-.01-.054-.196-.06-.177-.008-.206-.016-.218-.06-.012-.047-.037-.054-.188-.054-.144 0-.18-.01-.212-.053-.028-.04-.07-.054-.188-.058-.083-.004-.152-.017-.152-.03 0-.013.012-.017.027-.008.014.01.026.004.026-.01 0-.017-.012-.03-.025-.03-.013 0-.028-.027-.033-.06-.007-.055-.02-.06-.16-.05-.13.007-.157 0-.187-.047-.04-.066-.083-.072-.128-.016-.05.06-.255.05-.32-.015-.042-.04-.09-.053-.212-.053-.134 0-.16-.008-.17-.053-.013-.05-.037-.055-.204-.055-.104 0-.19-.003-.19-.007s-.01-.047-.025-.095c-.02-.078-.02-.085.016-.056.022.018.034.05.026.07-.008.02-.002.035.012.035.05 0 .026-.105-.03-.135-.03-.017-.12-.026-.198-.02-.078.004-.136 0-.13-.012.008-.01 0-.02-.015-.02s-.024-.015-.02-.033c.01-.057-.118-.055-.197.004-.095.07-.174.07-.192.002-.01-.047-.035-.053-.216-.053-.185 0-.203-.005-.203-.054 0-.046-.016-.052-.16-.052-.087 0-.16-.01-.16-.022 0-.044-.262-.192-.34-.192-.058 0-.084-.015-.094-.053-.022-.085-.366-.056-.366.032 0 .012-.012.022-.027.022s-.027-.024-.027-.053c0-.047-.017-.053-.16-.053-.12 0-.16-.01-.16-.037 0-.046-.083-.07-.26-.07-.114 0-.14-.01-.154-.053-.014-.043-.04-.053-.135-.053-.066 0-.12-.012-.12-.027s-.012-.027-.027-.027c-.016 0-.02.014-.01.03.013.02.008.025-.01.013-.02-.01-.025-.047-.016-.082.02-.08-.05-.12-.202-.12-.06 0-.132-.015-.162-.033-.042-.027-.063-.027-.106 0-.092.058-.365.043-.382-.02-.012-.046-.036-.054-.17-.054-.113 0-.174-.015-.222-.053-.048-.037-.11-.053-.214-.054-.113 0-.136-.007-.1-.028.12-.07.027-.148-.192-.156-.167-.006-.192-.016-.172-.068.018-.047-.19-.04-.237.008-.044.044-.172.038-.19-.01-.012-.03-.06-.04-.2-.04-.162 0-.187-.006-.2-.053-.01-.048-.035-.054-.216-.054-.178 0-.203-.006-.203-.05 0-.025-.017-.07-.038-.098-.034-.045-.073-.056-.234-.064-.024 0-.05-.025-.057-.053-.02-.07-.283-.064-.365.01-.055.05-.056.05-.056-.007 0-.054-.014-.058-.215-.058-.196 0-.214-.004-.214-.053 0-.048-.016-.054-.156-.054-.134 0-.16-.007-.17-.053-.012-.04-.037-.053-.114-.053-.063 0-.115-.018-.14-.047-.035-.045-.036-.045-.022 0 .008.026.002.047-.013.047-.014 0-.024-.027-.02-.06.012-.16.03-.154-.415-.154-.39 0-.412-.003-.425-.053-.013-.048-.037-.054-.217-.054-.185 0-.203-.004-.203-.052s-.017-.054-.158-.054h-.16l-.007-.1-.01-.1h-.22c-.146 0-.22-.01-.22-.03 0-.05-.075-.064-.117-.022-.06.06-.25.05-.27-.015-.014-.045-.04-.053-.175-.053-.117 0-.158-.01-.158-.037 0-.046-.082-.07-.254-.07-.123 0-.137-.008-.174-.086-.022-.046-.058-.09-.08-.096-.03-.01-.033-.003-.013.026.014.022.006.018-.02-.01-.023-.025-.074-.047-.112-.047-.04 0-.07-.015-.07-.037 0-.104-.31-.087-.38.02-.01.02-.03.013-.056-.022-.03-.04-.078-.054-.226-.063-.156-.007-.19-.018-.2-.06-.012-.044-.04-.05-.213-.05-.178 0-.202-.006-.214-.054-.01-.03-.038-.053-.07-.053-.028 0-.057-.014-.063-.03-.005-.018-.04-.034-.075-.036-.04-.003-.076-.028-.092-.064-.024-.053-.046-.06-.2-.057-.096.002-.254-.005-.352-.015l-.178-.018.05-.055c.032-.033.052-.093.052-.153 0-.077.012-.102.053-.113.045-.01.054-.035.054-.146 0-.11.008-.135.052-.147.04-.01.054-.036.054-.104 0-.057.02-.107.053-.136.028-.025.052-.077.052-.115 0-.038.024-.1.054-.137.03-.038.053-.107.053-.155 0-.064.013-.09.053-.1.04-.01.053-.037.053-.107s.013-.097.053-.107c.03-.008.053-.037.053-.068 0-.03.036-.09.08-.134.087-.087.11-.14.034-.08-.025.02-.017-.002.02-.05.036-.046.084-.092.105-.1.025-.01.022.002-.01.038-.028.03-.037.054-.02.054.038 0 .092-.1.07-.134-.008-.014.015-.038.053-.052.057-.022.068-.043.068-.13 0-.093.007-.104.054-.092.047.012.053 0 .053-.096 0-.092.01-.11.054-.11s.053-.018.053-.107c0-.09.01-.107.054-.107.036 0 .054-.017.054-.053s.018-.053.053-.053c.036 0 .054-.018.054-.054 0-.035.02-.053.054-.053.048 0 .052-.012.037-.107-.016-.11-.005-.122.095-.108.025.003.032-.013.022-.05-.014-.054.006-.067.08-.058.022.003.034-.03.034-.092 0-.052-.008-.09-.02-.083-.03.02-.1-.03-.077-.054.012-.012.03-.005.043.015.017.027.05.01.137-.073.11-.104.114-.11.07-.16-.064-.07-.06-.165.01-.165.033 0 .052-.018.052-.05 0-.028.024-.057.053-.065.03-.007.054-.033.054-.056 0-.025.024-.068.053-.097.03-.03.054-.078.054-.107 0-.036.016-.053.052-.053s.053-.018.053-.054c0-.036.018-.054.054-.054.033 0 .052-.018.052-.05 0-.028.024-.057.054-.065.03-.006.053-.03.053-.052s.023-.046.052-.054c.03-.007.054-.033.054-.056 0-.024.012-.043.027-.043s.046-.048.07-.106c.023-.06.058-.108.078-.108.02 0 .044-.024.053-.054.01-.03.033-.053.053-.053.02 0 .044-.024.054-.054.01-.028.03-.052.048-.053.018 0 .108-.072.2-.16.094-.088.186-.16.205-.16.02 0 .04-.023.05-.053.006-.03.032-.053.055-.053.024 0 .043-.017.043-.04 0-.02.02-.04.043-.04.024 0 .05-.023.057-.053.007-.03.036-.053.064-.053.03 0 .05-.02.05-.05 0-.037.026-.056.095-.07.05-.01.1-.034.11-.055.007-.023.032-.04.053-.04.022 0 .046-.024.054-.053.008-.03.036-.054.064-.054.034 0 .052-.02.052-.053 0-.067.116-.074.18-.012.036.038.05.03.153-.073.1-.102.107-.12.07-.148-.04-.03-.04-.033.002-.033.025 0 .053.023.062.052.023.077.173.063.173-.016 0-.023.028-.037.074-.037.053 0 .103-.03.173-.107.065-.07.12-.107.165-.107.04 0 .082-.024.1-.054.023-.035.064-.054.12-.054.06 0 .086-.014.096-.053.01-.04.038-.054.096-.054.11 0 .16-.024.196-.09.027-.053.024-.052-.04.007-.097.09-.09.057.01-.047.08-.085.14-.118.08-.044-.025.03-.026.04-.004.04.017 0 .038-.018.047-.04.008-.022.044-.04.08-.04.045 0 .063-.015.063-.054 0-.047.018-.053.154-.053.125 0 .16-.01.187-.053.028-.048.06-.054.282-.054.228 0 .252.005.265.054m-2.542 1.022c-.035.035-.07.008-.044-.033.01-.015.03-.02.046-.01.018.01.018.025 0 .044m6.704.25c.014.02.043.027.064.02.06-.024.045-.05-.026-.05-.047 0-.057.008-.038.03m1.217.277c.002.03-.008.048-.02.04-.032-.02-.035-.093-.005-.093.01 0 .023.025.025.054m6.673 1.82c.05.058.05.058-.01.026-.032-.017-.06-.043-.06-.057 0-.04.013-.033.07.03m-17.13.17c0 .014-.014.03-.03.035-.016.005-.03-.01-.03-.035 0-.024.014-.04.03-.035.016.006.03.02.03.035m25.91.15c-.02.02-.033.007-.043-.044-.012-.064-.01-.067.03-.028.03.03.033.05.013.07m-25.995-.056c0 .032-.052.065-.07.046-.02-.02.013-.07.045-.07.013 0 .025.01.025.024m27.174.322c.008.015-.01.027-.04.027-.032 0-.05-.01-.04-.026.008-.014.026-.026.04-.026.012 0 .03.012.04.026m3.784 1.1c-.025.026-.033.018-.033-.03 0-.05.01-.058.034-.034.025.025.025.04 0 .065m-2.293 1.53c-.01.027-.05.04-.125.04-.082 0-.12.014-.145.053-.03.05-.062.054-.326.054-.276 0-.294.003-.294.053 0 .048-.018.054-.16.054-.143 0-.16.005-.16.052s-.018.053-.148.053c-.106 0-.152.012-.163.04-.01.02-.057.047-.107.056-.05.01-.1.033-.11.05-.032.052-.135.07-.152.026-.023-.063-.09-.04-.187.06-.074.08-.11.098-.184.095-.072 0-.096.01-.107.05-.007.03-.03.053-.053.053-.022 0-.046.024-.053.053-.008.03-.034.054-.057.054s-.042.018-.042.04c0 .024-.025.04-.065.04-.09 0-.15.026-.15.068 0 .02-.023.043-.053.052-.03.01-.053.034-.053.055 0 .02-.02.038-.043.038-.023 0-.048.023-.055.05-.01.03-.04.06-.07.067-.034.01-.048.028-.038.054.01.027-.004.042-.043.048-.038.005-.06.026-.056.055.002.03-.016.047-.05.047-.03 0-.058.022-.066.05-.007.03-.036.058-.064.065-.028.006-.05.03-.05.052 0 .02-.025.046-.055.053-.03.008-.054.032-.054.054 0 .02-.024.044-.053.052-.03.008-.054.032-.054.054 0 .02-.025.045-.054.053-.03.007-.054.03-.054.052s-.024.046-.053.054c-.03.007-.054.03-.054.053 0 .02-.024.045-.054.053-.03.007-.053.03-.053.053 0 .022-.025.046-.055.053-.042.01-.053.036-.053.12 0 .083-.01.105-.045.102-.025-.002-.052.02-.06.05-.008.03-.033.053-.054.053-.02 0-.046.025-.054.054-.01.028-.033.052-.054.052-.02 0-.045.024-.053.054s-.033.053-.055.053c-.024 0-.044.03-.05.075-.004.05.003.07.02.06.062-.04.025.017-.09.136-.11.113-.117.13-.08.17.052.058.052.16 0 .16-.024 0-.05.02-.06.047-.008.026-.038.068-.065.094-.027.028-.05.077-.05.112 0 .04-.018.067-.052.076-.03.008-.053.033-.053.057 0 .023-.024.066-.053.096-.03.03-.054.078-.054.108s-.016.053-.037.053c-.042 0-.07.058-.07.147 0 .04-.02.067-.053.075-.04.01-.053.037-.053.096 0 .054-.018.09-.054.11-.03.016-.053.047-.053.07 0 .02-.018.046-.04.054-.023.01-.04.05-.04.095 0 .058-.015.084-.054.094-.04.012-.053.038-.053.12 0 .085-.01.102-.053.102-.045 0-.054.018-.054.107 0 .088-.01.106-.053.106-.045 0-.054.018-.054.107 0 .09-.01.107-.054.107s-.053.018-.053.104c0 .08-.012.106-.054.117-.045.013-.054.038-.054.15 0 .12-.007.137-.054.137-.04 0-.053.018-.053.065 0 .036-.014.074-.03.084-.02.013-.02.026.006.044.028.02.026.023-.01.01-.048-.014-.18.12-.18.185 0 .02-.025.044-.054.053-.04.012-.054.04-.054.105 0 .066-.013.093-.053.103-.045.012-.053.036-.053.16s-.01.15-.054.16c-.04.01-.053.037-.053.107s-.013.097-.054.107c-.038.01-.052.037-.052.097 0 .047.023.105.053.136.03.03.055.083.055.12 0 .05-.015.067-.054.067-.046 0-.052.017-.052.16 0 .142-.006.16-.053.16-.048 0-.054.018-.054.157 0 .135-.007.16-.052.17-.045.013-.054.038-.054.15 0 .102-.014.15-.053.19-.04.042-.053.09-.053.21 0 .136-.007.16-.053.172-.046.01-.053.036-.053.17 0 .146-.007.166-.093.25-.09.087-.13.163-.06.116.02-.013.014-.004-.012.02-.033.03-.048.084-.048.168 0 .087-.01.122-.037.122-.02 0-.045.02-.054.043-.026.067-.018.304.01.304.038 0-.002.086-.06.135-.05.037-.05.044-.01.083.06.06.065.502.007.502-.054 0-.07.087-.07.42 0 .24-.007.3-.037.3-.05 0-.07.06-.07.21 0 .07-.013.14-.03.157-.03.03-.035.054-.067.335-.01.095-.03.153-.05.153-.05 0-.046.312.003.36.054.054.052 1.314-.002 1.386-.05.067-.053.67-.003.72.02.018.04.122.05.23.01.14.026.207.056.23.038.028.044.113.047.67.003.753.03.885.16.767.048-.043.05-.037.05.13 0 .2.016.26.07.26.027 0 .037.04.037.15 0 .127.008.152.053.164.057.015.07.115.054.457-.005.124.002.144.05.157.04.01.057.036.057.09 0 .173.12.28.185.166.022-.037.028-.023.028.067 0 .095.01.113.055.113.044 0 .053.018.053.107 0 .09.01.107.055.107.033 0 .053.018.053.047 0 .026.024.062.053.08.035.022.055.063.055.114 0 .062.012.08.05.08.034 0 .056.022.062.06.005.033.025.057.044.053.02-.004.028.005.018.02-.01.016-.028.022-.042.013-.013-.008-.024.023-.024.07 0 .06.014.087.053.097.03.008.053.032.053.054 0 .02.024.045.054.053s.053.03.053.048c0 .08.104.164.143.113.047-.06.062-.058.08.008.006.03.032.053.055.053.024 0 .067.025.096.055.03.03.077.053.106.053.036 0 .053.018.053.054 0 .035.017.053.053.053.03 0 .053.017.053.037 0 .043.057.07.146.07.04 0 .067.02.076.053.008.032.036.054.07.054.03 0 .055.01.055.025 0 .015.013.027.03.027.014 0 .02-.012.01-.027-.01-.014-.005-.026.008-.026.015 0 .026.036.028.082.003.106-.01.1.215.108.107.004.202.018.21.032.01.015-.002.02-.028.01-.024-.01-.044-.006-.044.008 0 .034.1.033.12 0 .01-.017.24-.028.6-.028.542 0 .587-.003.65-.053.075-.06.18-.07.226-.025.053.053.26.065.24.014-.013-.033-.002-.045.042-.045.1 0 .18-.03.18-.07 0-.02.027-.036.064-.036.092 0 .15-.028.15-.07 0-.023.026-.038.063-.038.093 0 .15-.027.15-.07 0-.02.027-.037.064-.037.09 0 .148-.027.148-.07 0-.02.02-.037.044-.037.024 0 .22-.174.437-.387.215-.212.405-.386.422-.386.017 0 .03-.018.03-.04 0-.022.016-.04.034-.04.02 0 .076-.05.127-.107.052-.06.11-.107.127-.107.018 0 .033-.018.033-.04 0-.02.024-.05.054-.067.03-.016.053-.046.053-.068 0-.02.018-.04.04-.04.043 0 .105-.116.1-.186-.004-.03 0-.03.01-.006.01.023.098-.047.252-.2.13-.128.23-.24.225-.245-.007-.008.015-.027.048-.044.033-.018.056-.05.05-.07-.004-.02 0-.03.012-.018.028.028.12-.06.1-.094-.01-.015-.004-.02.012-.01.034.022.124-.1.1-.14-.008-.012.015-.03.052-.04.037-.01.066-.034.066-.055 0-.022.025-.046.054-.055.03-.01.053-.034.053-.054 0-.02.025-.043.055-.053.045-.014.05-.032.037-.106-.015-.078-.01-.09.046-.097.05-.007.064-.027.07-.11.007-.068.022-.1.05-.1.023 0 .047-.022.054-.05.008-.028.037-.057.065-.065.038-.01.05-.037.05-.11 0-.07.012-.095.043-.095.024 0 .05-.023.056-.05.008-.03.037-.058.065-.065.04-.01.05-.037.05-.11 0-.07.013-.095.044-.095.022 0 .047-.023.055-.05.007-.03.036-.058.064-.065.09-.024.066-.15-.033-.17-.07-.014-.076-.02-.037-.043.03-.017.052-.016.065.004.026.042.137-.068.118-.118-.008-.022-.026-.04-.04-.04-.05 0-.024-.154.03-.168.04-.01.054-.036.054-.107 0-.07.013-.096.053-.107.04-.01.054-.036.054-.095 0-.055.017-.092.053-.11.038-.02.053-.056.053-.122 0-.06.013-.092.038-.092.04 0 .07-.055.07-.135 0-.028.023-.075.053-.105.036-.035.054-.09.054-.157 0-.08.012-.106.053-.117.04-.01.054-.037.054-.11 0-.064.013-.096.038-.096.043 0 .07-.057.07-.15 0-.035.024-.088.053-.117.037-.036.055-.09.055-.16 0-.074.01-.107.037-.107.045 0 .07-.058.07-.163 0-.043.01-.078.022-.078.034 0 .175-.21.155-.23-.03-.03.036-.088.08-.072.024.01.037 0 .034-.02-.022-.16.003-.292.056-.292.03 0 .052-.014.05-.032-.013-.1.006-.16.055-.173.046-.012.054-.036.054-.16 0-.08-.01-.14-.023-.13-.03.018-.1-.032-.076-.056.012-.012.03-.007.042.01.015.025.034.023.078-.008.068-.048.077-.114.02-.136-.07-.026-.058-.357.012-.357.05 0 .054-.018.054-.187 0-.158.008-.192.053-.22.044-.028.052-.063.052-.214 0-.152.01-.187.054-.215.046-.028.053-.062.053-.24 0-.19.004-.208.053-.208.035 0 .053-.017.053-.053 0-.03.024-.077.054-.107.04-.04.053-.09.053-.203 0-.127.008-.15.053-.163.074-.018.083-.404.01-.398-.024.002-.05-.014-.058-.036-.01-.033-.007-.034.027-.006.063.052.182-.05.13-.11-.02-.025-.055-.045-.078-.046-.028-.002-.032-.007-.01-.016.024-.01.033-.107.033-.358 0-.316.004-.348.053-.378.05-.03.054-.063.054-.348 0-.278.006-.32.053-.367.044-.044.053-.09.053-.264 0-.188.006-.212.054-.225.043-.01.053-.036.053-.133 0-.078-.018-.142-.053-.187-.072-.09-.084-1.364-.013-1.39.054-.022.05-.095-.007-.12-.04-.015-.047-.054-.047-.254 0-.194-.008-.242-.047-.27-.04-.028-.046-.077-.046-.294 0-.236-.005-.26-.053-.274-.048-.012-.053-.04-.06-.324-.007-.286-.012-.31-.057-.303-.03.005-.043-.003-.03-.023.01-.016.035-.024.055-.016.03.013.038-.032.038-.237 0-.223-.006-.253-.047-.254-.09-.003-.167-.095-.167-.2 0-.076-.012-.102-.053-.113-.046-.012-.054-.036-.054-.16s-.01-.15-.054-.16c-.042-.01-.054-.037-.054-.118 0-.087-.01-.105-.053-.105-.07 0-.08-.213-.014-.267.022-.018.04-.05.04-.07 0-.02-.018-.045-.04-.054-.022-.008-.04-.04-.04-.068 0-.03-.023-.06-.054-.067-.03-.01-.054-.035-.055-.06-.008-.147-.017-.192-.044-.22-.036-.034-.114-.012-.114.033 0 .023.008.023.035 0 .028-.022.044-.02.07.01.026.032.02.036-.044.028-.04-.004-.084-.01-.095-.01-.01-.002-.02-.027-.02-.056 0-.03-.018-.053-.04-.053-.025 0-.045-.037-.056-.106-.012-.065-.033-.107-.055-.107-.02 0-.037-.02-.037-.043 0-.023-.024-.048-.053-.056-.03-.008-.054-.037-.054-.066 0-.028-.03-.08-.065-.113-.037-.035-.067-.076-.067-.092s-.02-.04-.044-.053c-.03-.017-.034-.03-.013-.043.046-.028.038-.114-.01-.133-.025-.01-.055-.01-.068-.002-.013.008-.038-.016-.055-.054-.017-.037-.047-.068-.065-.068-.02 0-.042-.025-.052-.055-.01-.036-.037-.052-.075-.048-.092.01-.23-.03-.23-.068 0-.02-.047-.042-.108-.052-.07-.01-.107-.03-.107-.057 0-.028-.03-.04-.107-.04-.09 0-.107-.008-.107-.053 0-.044-.017-.053-.103-.053-.082 0-.107-.013-.118-.055-.008-.03-.033-.053-.057-.053-.023 0-.065-.023-.092-.05-.04-.04-.095-.05-.274-.054-.165-.004-.228-.015-.244-.044-.03-.05-.097-.05-.117 0m-2.012.013c0 .03-.052.065-.07.046-.02-.02.014-.07.045-.07.014 0 .025.01.025.024m.093.534c.02.033-.03.064-.065.042-.03-.018-.01-.066.027-.066.013 0 .03.01.04.025m-.094.106c0 .033-.075.06-.092.032-.007-.012-.005-.03.004-.038.025-.026.088-.02.088.006m3.985.25c-.025.024-.032.017-.032-.033s.008-.057.033-.032c.025.026.025.04 0 .065m-2.008 1.064c0 .014.03.037.066.05.038.015.068.04.068.054 0 .015.013.027.03.027.014 0 .02-.01.01-.025-.01-.015-.005-.027.008-.027.013 0 .023.036.023.08 0 .1.01.11.135.132.062.01.1.03.103.055.006.095.013.107.063.107.03 0 .06-.01.068-.025.018-.03.13.07.156.138.01.026.035.047.058.047.028 0 .04.026.04.083 0 .06.015.086.05.096.034.01.06.047.07.106.01.05.034.1.056.108.02.008.038.048.038.09 0 .11.026.157.076.143.024-.007.017.002-.016.02-.083.043-.088.26-.006.282.04.01.053.036.053.098 0 .12.07.21.15.195.062-.01.064-.007.064.172 0 .165.005.183.053.183.05 0 .054.018.054.253 0 .226.005.256.053.282.03.016.053.046.053.068 0 .02-.024.063-.053.092-.047.048-.053.09-.053.36v.308l.106.107.107.107v.543c0 .51-.003.546-.053.592-.045.04-.054.08-.054.253 0 .184-.005.208-.053.22-.045.012-.053.037-.053.15 0 .1.014.15.053.19.048.048.053.09.053.384 0 .31-.003.332-.053.345-.05.013-.053.036-.053.36 0 .325-.004.348-.054.36-.03.01-.053.035-.053.06 0 .025-.024.076-.054.113-.038.048-.053.108-.053.208 0 .12-.008.142-.056.155-.053.014-.056.03-.047.23.007.15 0 .216-.02.216-.053 0-.07.09-.025.122.068.05.058.374-.012.393-.047.01-.054.035-.054.2 0 .164-.006.19-.053.205-.046.014-.054.04-.054.175 0 .117-.01.16-.038.16-.046 0-.07.082-.07.26 0 .12-.006.14-.053.14-.046 0-.054.017-.054.114s-.015.13-.094.206c-.096.093-.13.168-.046.104.025-.02.017-.003-.018.037-.036.04-.082.074-.103.074-.024 0-.033.015-.023.04.008.022.003.04-.01.04-.015 0-.027.054-.027.12 0 .088-.01.12-.04.12-.025 0-.045.038-.056.107-.01.063-.033.108-.053.108-.023 0-.04.04-.044.113-.006.088-.018.113-.05.108-.057-.01-.063.144-.01.226.052.08.05.13-.015.195-.03.028-.053.08-.053.116 0 .035-.017.07-.037.078-.02.008-.045.058-.055.11-.01.054-.035.105-.057.113-.023.01-.038.05-.038.104 0 .064-.016.1-.054.12-.037.02-.053.056-.053.118 0 .067-.012.093-.052.103-.04.01-.054.037-.054.097 0 .054-.018.09-.053.11-.033.018-.053.056-.053.105 0 .053-.015.08-.053.09-.04.01-.053.036-.053.11 0 .078-.01.096-.053.096-.044 0-.053.017-.053.106 0 .09-.01.107-.054.107-.04 0-.053.02-.053.08 0 .052-.02.093-.054.114-.03.02-.053.055-.053.08 0 .03-.02.048-.053.048-.045 0-.054.017-.054.106 0 .09-.01.107-.053.107-.035 0-.054.018-.054.05 0 .028-.023.057-.053.065-.04.01-.053.036-.053.096 0 .058-.013.083-.043.083-.023 0-.05.023-.056.052-.007.03-.036.06-.064.068-.027.01-.05.038-.05.065 0 .027-.09.136-.2.243-.18.176-.272.3-.154.21.077-.058-.135.162-.71.74-.477.476-.652.64-.538.504.08-.098-.02-.026-.15.107-.08.082-.166.146-.196.146-.037 0-.055.017-.055.053 0 .04-.018.052-.08.052-.046 0-.088.017-.096.038-.008.02-.068.045-.133.055-.077.01-.118.03-.118.056 0 .032-.06.04-.32.04s-.32-.008-.32-.04c0-.02-.025-.045-.055-.054-.028-.01-.052-.034-.052-.055 0-.02-.024-.038-.054-.038s-.054-.008-.055-.02c-.016-.138-.012-.162.02-.135.026.022.028.038.005.066-.023.027-.023.036 0 .036.103 0 .05-.14-.056-.148-.05-.003-.065-.023-.076-.11-.01-.076-.027-.105-.067-.113-.03-.006-.063-.028-.074-.048-.012-.02-.057-.037-.1-.037-.067 0-.08-.01-.08-.067 0-.05-.014-.066-.053-.066-.044 0-.053-.018-.053-.107 0-.09-.01-.107-.054-.107-.047 0-.053-.018-.053-.15 0-.126-.008-.15-.053-.163-.068-.018-.08-.232-.014-.258.022-.008.04-.038.04-.066 0-.028-.018-.058-.04-.066-.03-.01-.04-.058-.04-.174 0-.168-.032-.21-.137-.176-.028.01-.05.003-.05-.014s.012-.023.027-.014c.015.01.027.004.027-.012 0-.015-.012-.028-.027-.028s-.027-.033-.027-.073c0-.146-.033-.274-.07-.274-.028 0-.037-.057-.037-.25 0-.33-.025-.5-.07-.5-.048 0-.047-.02 0-.068.056-.055.055-.64 0-.725-.045-.07-.054-1.436-.01-1.463.014-.01.018.005.008.03-.012.03-.008.04.013.027.02-.01.033-.067.033-.126 0-.086.01-.11.054-.122.067-.018.075-.475.01-.56-.05-.067-.05-.383 0-.383.043 0 .07-.167.07-.445 0-.157.007-.197.04-.197.032 0 .04-.047.04-.267 0-.248.003-.266.053-.266.036 0 .053-.017.053-.057 0-.03.02-.072.044-.09.042-.03.056-.08.06-.22.002-.04.02-.06.056-.06.05 0 .054-.018.054-.2 0-.17.007-.2.05-.213.038-.012.05-.04.05-.11 0-.06-.02-.117-.05-.147-.066-.066-.064-.15.003-.17.047-.016.054-.042.054-.217 0-.18.004-.198.053-.198.048 0 .053-.018.053-.16 0-.143.006-.16.054-.16.047 0 .053-.02.053-.16 0-.143.006-.16.054-.16s.054-.02.054-.16c0-.144.006-.162.054-.162.045 0 .053-.018.053-.114 0-.084.015-.122.054-.147.03-.02.054-.063.054-.098 0-.04.042-.107.11-.175.075-.077.105-.127.095-.163-.007-.03-.002-.045.012-.036.043.027.103-.045.103-.124 0-.05.017-.08.054-.092.044-.014.053-.04.053-.162 0-.115.01-.145.043-.145.023 0 .048-.023.056-.05.007-.03.036-.058.064-.065.038-.01.05-.037.05-.11 0-.066.013-.095.04-.095.044 0 .09-.14.052-.153-.06-.02-.1-.06-.082-.08.01-.01.03-.007.04.01.01.018.04.007.08-.03.056-.055.058-.064.02-.102-.055-.054-.056-.18-.003-.18.026 0 .046-.037.057-.104.01-.07.033-.11.067-.118.036-.01.05-.037.05-.106 0-.07.012-.096.053-.107.038-.01.053-.036.053-.094 0-.057.016-.085.053-.097.03-.01.053-.04.053-.066 0-.027.016-.055.036-.063.02-.007.044-.047.055-.088.01-.04.042-.09.07-.11.03-.022.052-.068.052-.115 0-.054.013-.078.042-.078.023 0 .048-.024.056-.053.007-.03.03-.055.047-.055.02 0 .04-.048.05-.107.012-.07.032-.106.058-.106.023 0 .04-.024.04-.054 0-.036.018-.053.054-.053.035 0 .053-.018.053-.052 0-.028.024-.06.054-.068.04-.013.054-.04.054-.11 0-.073.01-.09.053-.09.036 0 .054-.02.054-.054 0-.035.02-.053.054-.053.036 0 .054-.017.054-.053s.017-.053.053-.053c.034 0 .054-.017.054-.047 0-.026.025-.068.054-.093.03-.025.053-.076.053-.113 0-.05.015-.067.055-.067.035 0 .053-.018.053-.053 0-.036.018-.054.054-.054.035 0 .053-.018.053-.053 0-.036.018-.054.053-.054.036 0 .054-.017.054-.053s.018-.053.053-.053c.036 0 .054-.018.054-.054 0-.035.016-.053.052-.053s.053-.018.053-.054c0-.035.018-.054.05-.054.03 0 .057-.024.065-.053.008-.03.033-.054.056-.054.024 0 .043-.018.043-.038s.04-.045.093-.055c.05-.01.093-.03.093-.043 0-.015.03-.04.067-.057.037-.016.067-.045.067-.063 0-.018.024-.04.053-.046.03-.008.053-.034.053-.057 0-.028.025-.042.08-.042.05 0 .092-.02.114-.053.018-.03.054-.053.08-.053.026 0 .07-.024.1-.054s.077-.053.105-.053c.08 0 .136-.03.136-.07 0-.027.04-.037.15-.037.127 0 .152-.008.163-.053.015-.056.142-.08.142-.026m.54.404c-.026.025-.04.025-.065 0s-.018-.032.032-.032.057.007.032.032m-5.396.515c0 .013-.013.03-.03.034-.014.005-.027-.01-.027-.035s.014-.04.03-.036c.015.006.028.02.028.035m-.084.09c0 .033-.052.066-.07.047-.02-.02.013-.07.045-.07.013 0 .024.01.024.024m-16.398.11c0 .05-.048.05-.06 0-.01-.034-.003-.046.023-.036.02.008.036.025.036.037m16.932-.003c0 .032-.075.06-.092.032-.007-.013-.006-.03.004-.04.025-.026.088-.02.088.007m-.107.108c0 .036-.048.06-.08.04-.014-.008-.02-.027-.01-.04.02-.033.09-.033.09 0m-15.663.215c.01.015-.008.027-.04.027-.03 0-.05-.012-.04-.027.01-.015.027-.027.04-.027.013 0 .03.012.04.027m12.478.17c-.036.04-.075.07-.087.07-.012 0 .013-.035.055-.08.042-.043.08-.075.086-.07.005.006-.02.042-.055.08m8.99.184c-.02.035-.06.022-.087-.03-.025-.047-.022-.05.037-.02.035.015.058.038.05.05m-34.594.016c-.02.026-.03.03-.016.012.033-.05-.022-.044-.063.005-.017.022-.06.04-.096.04-.047 0-.063.015-.063.056 0 .03-.023.087-.053.124-.042.054-.053.108-.053.262 0 .17-.006.194-.054.206-.044.012-.053.037-.053.15 0 .1.014.15.053.19.044.043.054.09.054.253 0 .17-.008.204-.054.232-.05.032-.053.063-.053.505 0 .386-.007.477-.04.504-.022.02-.04.046-.04.06 0 .016.018.013.04-.005.025-.02.04-.023.04-.006 0 .015-.024.035-.053.045-.05.015-.054.04-.054.28 0 .24.005.265.054.28.03.01.053.03.053.046 0 .018-.015.016-.04-.004-.022-.02-.04-.022-.04-.007 0 .014.018.04.04.06.046.037.06 1.36.016 1.36-.013 0-.03.02-.04.045-.015.037-.01.038.023.01.025-.02.04-.023.04-.006 0 .015-.023.035-.052.044-.078.025-.064.174.016.174.027 0 .037.04.037.143 0 .104.015.164.053.213.033.042.054.108.054.174 0 .083.01.11.053.12.05.012.054.036.054.27 0 .22.008.264.054.31.065.064.073.25.013.31-.052.053-.05.088.007.11.037.016.047.053.047.18 0 .134.01.162.05.17.07.013.15.102.15.164 0 .037.02.055.054.055.047 0 .054.018.054.133 0 .104.012.14.053.167.04.023.055.062.055.133 0 .083.01.1.053.1.045 0 .054.02.054.108 0 .09.008.107.057.107.055 0 .055 0 .008.053-.047.052-.047.056.01.116.04.044.056.09.05.153-.005.076.003.093.05.1.04.005.054.022.046.054-.02.075.08.15.133.098.06-.06.072-.052.072.052 0 .076.01.094.052.094.04 0 .054.017.054.066 0 .05.014.067.053.067.035 0 .053.018.053.054 0 .03.017.054.037.054.02 0 .052.042.07.093.016.052.047.094.068.094.02 0 .038.025.038.054 0 .03.018.054.04.054.05 0 .05.012.008.08-.04.063-.002.113.09.12.043.003.065.024.07.064.007.038.024.055.046.047.02-.01.055.014.08.05.022.036.06.065.086.065.035 0 .038.007.013.032-.026.025-.042.02-.075-.02-.024-.03-.038-.036-.032-.014.02.072.1.1.138.05.048-.064.116-.06.137.006.01.028.04.052.07.052.033 0 .05.018.05.053s.018.054.05.054c.028 0 .057.023.065.052.01.04.036.054.11.054.078 0 .096.01.096.053s.018.052.107.052c.087 0 .106.01.106.052 0 .054.118.162.176.162.018 0 .04.024.047.053.012.047.036.053.205.053.105 0 .185-.01.178-.02-.008-.013 0-.04.014-.062.023-.03.025-.03.013.007-.02.06.032.076.252.076.167 0 .185.005.185.053 0 .05.017.054.186.054.158 0 .19.008.214.053.022.04.056.054.148.054.066 0 .12.01.12.02 0 .013.02.046.048.075.026.028.05.063.053.078.002.015.095.028.205.03.11 0 .21.012.22.023.01.012-.016.013-.06.003-.076-.018-.078-.017-.034.027s.05.044.096.002c.073-.065.277-.06.34.01.037.04.082.052.2.052.13 0 .156.008.168.053.012.048.036.054.222.054.187 0 .202.004.156.038-.057.042-.032.123.043.142.024.006.02-.005-.01-.03-.03-.022-.042-.054-.03-.07.01-.02.032-.002.058.05.038.078.05.084.183.084.11 0 .14.008.13.036-.017.04.085.08.11.042.007-.012.03-.017.048-.01.02.008.05-.005.07-.027.05-.063.178-.055.195.01.01.048.035.054.2.054.163 0 .187.007.2.054.01.046.036.053.176.053.127 0 .163.01.163.04 0 .023.016.04.037.04.02 0 .058.02.083.046.042.042.087.055.216.06.034 0 .063.024.07.056.018.065.29.072.354.01.047-.048.067-.047.067.003 0 .025.037.045.107.056l.106.018v.467c0 .426-.004.472-.053.534-.046.058-.053.108-.053.354s.007.296.053.354c.05.064.053.11.053.712 0 .607-.003.646-.053.696-.047.048-.053.09-.053.357 0 .27.006.308.053.35.05.047.053.083.053.7 0 .614-.003.653-.053.703-.047.048-.053.09-.053.36 0 .272.006.314.053.36.048.05.053.09.053.375v.322h.134c.104 0 .14.01.166.053.024.038.063.054.134.054.1 0 .123.033.102.143-.01.05.074.07.3.066.13-.003.243.005.254.016.01.012-.008.014-.04.006-.067-.016-.085.02-.023.043.02.008.052-.003.07-.024.05-.062.256-.05.273.016.012.044.037.053.15.053.1 0 .15.013.19.052.037.038.09.054.173.054h.12v.12c0 .066-.01.12-.022.12-.05 0-.083.152-.083.387 0 .236.033.388.084.388.056 0 .027 1.31-.03 1.382-.08.102-.08.61 0 .635.03.01.053.03.053.045 0 .018-.015.015-.04-.005-.034-.03-.038-.027-.024.01.008.024.026.044.04.044.056 0 .028 1.31-.03 1.382-.046.06-.053.108-.053.358 0 .255.006.297.053.344.05.05.053.09.053.697 0 .604-.003.648-.053.712-.046.058-.053.108-.053.354 0 .247.007.297.053.355.05.065.053.11.053.712 0 .608-.003.647-.053.697-.047.046-.053.088-.053.343 0 .25.007.3.053.358.058.074.086 1.382.03 1.382-.014 0-.032.02-.04.044-.015.037-.01.038.023.01.025-.02.04-.023.04-.005 0 .016-.024.037-.054.046-.083.026-.07.474.013.49.03.005.075.028.1.05.043.038.052.038.096-.002.082-.075 1.318-.066 1.394.01.073.074.335.068.33-.007-.007-.064.217-.067.286-.004.05.045.13.034.13-.02 0-.02-.01-.02-.04.004-.038.032-.093.017-.06-.015.048-.05 1.412-.01 1.463.042.078.078.346.077.346 0 0-.047.02-.055.14-.058.308-.008.273.03.28-.31.004-.27 0-.308-.05-.356-.07-.072-.068-1.44.003-1.462.035-.012.035-.007.004.03-.022.027-.025.045-.01.045.08 0 .084-.643.005-.722-.08-.08-.08-1.326 0-1.398.045-.04.05-.085.05-.362 0-.278-.005-.322-.05-.363-.08-.072-.08-1.29 0-1.39.08-.1.076-.73-.004-.73-.016 0-.013.017.01.043.03.038.03.043-.005.03-.07-.022-.073-1.39-.003-1.46.08-.078.08-.648.002-.726-.048-.047-.052-.09-.048-.54.002-.267.008-.46.015-.426.01.054.026.06.165.06.12 0 .165.012.202.053.038.043.082.055.21.055h.16l-.052.056c-.076.085.024.158.216.158.12 0 .144.01.156.054.02.07.15.07.24 0s.18-.07.18 0c0 .047.017.053.157.053.134 0 .16.008.17.054.02.07.377.08.404.01.01-.023.017-.267.017-.54 0-.385.01-.51.038-.55.053-.068.053-.632 0-.702-.03-.04-.037-.184-.037-.703 0-.52.008-.665.037-.704.053-.068.053-.632 0-.7-.054-.073-.054-1.337 0-1.408.047-.063.055-.675.01-.703-.02-.013-.025-.003-.013.027.008.025.005.04-.008.03-.013-.007-.025-.17-.027-.36l-.004-.348.07.026c.04.014.136.026.216.026.123 0 .145.007.145.05 0 .075.088.137.195.137.073 0 .1.012.113.054.02.066.252.07.354.007.053-.03.063-.03.076.005.013.032.06.04.214.04.18 0 .197.006.197.054s.017.053.186.053c.158 0 .192.008.22.053.018.03.054.053.08.053.026 0 .072.025.103.055.032.034.076.05.106.043.04-.01.05 0 .05.05 0 .065.006.066.2.06.11-.002.194-.012.19-.02-.007-.01 0-.035.014-.056.02-.03.025-.028.02.014-.008.048.008.055.163.062.134.006.18.02.208.06.03.04.07.052.195.052.133 0 .16.008.174.053.015.05.163.073.386.057.022 0 .013.01-.02.028-.062.03-.076.09-.037.15.014.025.078.033.22.027.17-.007.202 0 .24.045.043.05.047.05.096.007.076-.068.264-.064.282.007.013.047.037.053.217.053.185 0 .203.005.203.054 0 .048.017.054.154.054.15 0 .156.002.18.085.015.046.044.09.066.097.035.01.035.007.003-.032-.02-.025-.03-.053-.02-.062.01-.008.03.016.048.054.03.063.047.07.172.07.117 0 .142.01.153.054.01.036.037.055.08.055.036 0 .096-.024.134-.054.037-.028.09-.052.12-.052s.06.022.067.053c.012.046.036.055.157.055.112 0 .155.012.19.053.037.043.08.053.217.053.148 0 .173.008.185.055.008.03.036.053.066.053.03 0 .068.018.086.04.047.057.094.05.052-.006-.02-.026-.002-.015.037.025.04.04.07.084.07.097 0 .014.02.033.044.042.065.025.305.02.305-.008 0-.014.04-.014.1 0 .055.012.168.023.25.023.128.002.153.01.165.055.012.046.036.054.164.054.115 0 .166.012.21.052.038.036.093.054.172.054.063 0 .115.012.115.026 0 .015.012.027.028.027s.02-.015.01-.032c-.013-.02-.008-.023.01-.01.02.01.026.03.017.043-.05.082.02.132.178.132.117 0 .163.01.174.04.018.046.105.055.13.014.028-.045.257-.032.293.016.02.03.09.047.21.057.126.01.178.024.178.05 0 .037.095.05.314.037.11-.006.153.03.072.062-.126.048-.01.14.19.147l.136.005.005-.142c.006-.2-.03-.24-.233-.255-.13-.01-.166-.022-.18-.062-.01-.036-.04-.05-.103-.05-.066 0-.092-.014-.103-.054-.01-.042-.036-.054-.11-.054-.078 0-.096-.01-.096-.054 0-.036-.017-.053-.053-.053-.03 0-.053-.018-.053-.038s-.024-.066-.054-.1c-.047-.056-.05-.057-.037-.01.012.038.01.043-.01.018-.013-.02-.018-.065-.01-.102.008-.05 0-.07-.043-.08-.03-.008-.06-.04-.068-.068-.01-.034-.033-.05-.064-.044-.026.006-.068-.014-.092-.044-.044-.053-.046-.053-.1-.003-.056.05-.057.05-.057-.008 0-.04-.016-.057-.053-.057-.044 0-.053-.018-.053-.096 0-.075-.012-.1-.053-.11-.03-.01-.053-.038-.053-.066 0-.032-.02-.05-.054-.05s-.053-.018-.053-.05c0-.08-.03-.137-.07-.137-.022 0-.037-.027-.037-.067 0-.05-.014-.066-.053-.066h-.054l.054-.054c.064-.065.077-.255.015-.23-.06.022-.102-.05-.08-.147.014-.07.01-.082-.023-.07-.024.01-.062-.006-.086-.033-.025-.027-.08-.064-.123-.08-.072-.032-.077-.044-.077-.177 0-.126-.007-.144-.054-.144-.048 0-.054-.02-.054-.16 0-.143-.006-.162-.053-.162-.05 0-.053-.022-.06-.42-.007-.417-.008-.42-.067-.42-.034.002-.06-.013-.06-.032 0-.02-.01-.036-.023-.036s-.03-.11-.042-.246c-.01-.155-.032-.263-.056-.29-.05-.055-.055-.666-.006-.745.026-.042.023-.06-.013-.1-.032-.037-.045-.107-.05-.256-.002-.124-.018-.225-.04-.253-.052-.07-.05-1.334.003-1.404.052-.07.052-.633 0-.703-.06-.077-.054-.48.007-.513.04-.022.047-.084.056-.495l.01-.47.09-.092c.108-.115.14-.602.04-.602-.026 0-.063-.017-.08-.04-.042-.05-.078-.05-.133-.002-.056.05-.35.027-.35-.027 0-.027-.042-.036-.17-.036-.147 0-.172-.007-.184-.053-.012-.046-.036-.053-.203-.053-.177 0-.242-.027-.15-.063.046-.017.05-.04.015-.096-.024-.038-.074-.048-.272-.052-.07-.002-.1-.016-.11-.05-.018-.072-.185-.074-.248-.005-.062.07-.162.07-.18 0-.013-.047-.037-.053-.217-.053-.185 0-.203-.005-.203-.054 0-.048-.018-.053-.185-.053-.18 0-.185-.002-.24-.09-.063-.102-.102-.124-.22-.124-.058 0-.085-.015-.095-.053-.02-.08-.27-.078-.343 0l-.05.056-.02-.056c-.017-.046-.043-.054-.177-.054-.123 0-.168-.012-.206-.054-.038-.04-.083-.053-.202-.053-.13 0-.155-.008-.167-.054-.01-.043-.035-.054-.122-.054-.06 0-.11-.012-.11-.027 0-.016-.012-.028-.028-.028-.015 0-.02.012-.01.027.008.014.004.026-.01.026-.013 0-.024-.036-.026-.08-.003-.128-.02-.137-.255-.132-.51.01-.6.002-.614-.055-.012-.048-.036-.055-.2-.055s-.188-.006-.2-.053c-.012-.046-.037-.053-.168-.053-.15 0-.153-.002-.106-.054.05-.054.02-.134-.046-.134-.014 0-.01.018.008.04.027.033.027.05 0 .074-.017.018-.03.02-.025.006.027-.1-.035-.152-.176-.143-.112.006-.14 0-.138-.032.002-.022-.012-.037-.03-.033-.02.004-.034-.006-.034-.02 0-.043-.054-.03-.102.02-.025.027-.033.03-.018.008.02-.033.013-.032-.046.006-.104.065-.277.06-.296-.01-.012-.044-.036-.052-.163-.052-.11 0-.15-.01-.15-.037 0-.042-.114-.07-.296-.07-.108 0-.13-.007-.13-.048 0-.055-.097-.156-.124-.13-.01.01.003.025.027.035.024.01.044.03.044.045 0 .016-.028.002-.062-.03s-.09-.058-.123-.058c-.038 0-.066-.02-.074-.053-.018-.067-.257-.076-.348-.012-.052.037-.06.036-.083-.006-.02-.035-.072-.048-.216-.057-.128-.007-.188-.02-.188-.044 0-.035-.115-.066-.246-.066-.043 0-.096-.018-.12-.04-.02-.022-.064-.04-.095-.04-.03 0-.077-.02-.104-.045-.027-.025-.076-.047-.11-.05-.04-.002-.06-.024-.067-.064-.01-.055-.023-.06-.175-.055-.475.012-.572.003-.586-.053-.014-.048-.038-.054-.218-.054-.185 0-.203-.004-.203-.053 0-.048-.02-.054-.158-.054-.143 0-.25-.055-.163-.085.113-.038-.02-.116-.208-.122-.136-.004-.22-.02-.248-.046-.056-.05-.096-.05-.116 0-.026.068-.257.056-.257-.013 0-.05-.017-.054-.186-.054-.158 0-.192-.008-.22-.053-.027-.044-.063-.054-.187-.054-.136 0-.154-.007-.154-.054 0-.088-.095-.16-.21-.16-.082 0-.107-.012-.118-.054-.012-.045-.037-.053-.15-.053-.1 0-.15.013-.19.052-.03.03-.06.054-.067.054-.007 0-.037-.025-.066-.054-.04-.04-.09-.053-.2-.053-.12 0-.147-.01-.16-.055-.016-.047-.04-.053-.213-.053-.174 0-.198-.006-.21-.054-.008-.03-.035-.053-.06-.053-.024 0-.075-.024-.113-.053-.037-.03-.082-.054-.1-.054-.02 0-.04-.024-.048-.053-.013-.047-.038-.054-.206-.054-.105 0-.185.01-.178.023.007.01 0 .038-.014.06-.023.032-.025.03-.014-.006.02-.06-.032-.076-.25-.076-.168 0-.186-.004-.186-.052 0-.047-.018-.053-.15-.053-.11 0-.16-.013-.184-.045-.02-.03-.085-.048-.183-.056-.083-.007-.15-.023-.15-.036 0-.013-.013-.024-.03-.024-.015 0-.02.015-.008.034.01.018.01.024-.003.013-.012-.01-.025-.05-.03-.09-.01-.1-.052-.12-.242-.11-.09.004-.174-.004-.186-.017-.013-.014-.003-.017.024-.007.056.02.064-.023.01-.044-.022-.008-.054.002-.07.024-.048.056-.257.05-.29-.008-.02-.034-.07-.048-.215-.056-.13-.007-.19-.02-.19-.045 0-.048-.062-.067-.225-.067-.134 0-.14-.003-.128-.064.01-.06-.058-.13-.12-.12-.124.02-.274-.007-.274-.052 0-.057-.197-.08-.23-.026-.013.02-.004.025.027.013.025-.008.04-.006.032.006-.025.04-.256.035-.256-.006 0-.04-.11-.07-.253-.07-.048 0-.102-.018-.12-.04-.023-.027-.083-.04-.19-.04-.13 0-.156-.008-.17-.054-.01-.03-.043-.054-.076-.056-.12-.007-.133-.01-.146-.05-.012-.035-.007-.035.03-.004.027.02.045.025.045.01 0-.035-.097-.07-.132-.048-.014.01-.03-.012-.034-.045-.008-.056-.022-.06-.214-.065-.162-.004-.203.002-.192.03.008.02 0 .045-.016.055-.02.012-.027 0-.022-.03.007-.045-.014-.05-.2-.058-.184-.007-.206-.013-.206-.06 0-.048-.02-.053-.213-.053-.195 0-.213-.004-.213-.053 0-.045-.018-.054-.107-.054-.12 0-.213-.072-.213-.162 0-.05-.014-.055-.164-.05-.13.006-.168-.002-.188-.037-.03-.056-.1-.06-.12-.005-.026.068-.346.056-.364-.013-.01-.046-.035-.055-.156-.055-.114 0-.15-.01-.176-.053-.03-.046-.063-.054-.225-.054h-.19l.05-.056c.077-.084-.023-.157-.216-.157-.118 0-.143-.01-.154-.054-.01-.038-.037-.052-.097-.052-.047 0-.105.023-.136.053-.03.03-.082.055-.117.055-.04 0-.07-.02-.078-.054-.012-.046-.036-.052-.216-.052-.186 0-.204-.005-.204-.054 0-.047-.018-.053-.155-.053-.11 0-.165-.012-.198-.046-.124-.13-.24-.204-.154-.1.02.025.023.04.005.04-.015 0-.035-.024-.045-.053-.01-.035-.04-.053-.088-.053-.043 0-.086-.02-.106-.053-.043-.07-.215-.072-.273-.004m8.157.43c.025.03.02.032-.03.005-.063-.034-.075-.06-.04-.094.01-.01.023-.003.03.016.005.02.023.052.04.073m-5.928.165c-.01.015-.02.023-.023.018l-.044-.06c-.037-.047-.035-.05.022-.018.033.018.053.045.044.06m22.742.517c0 .022-.018.04-.04.04-.042 0-.053-.03-.022-.062.03-.03.062-.02.062.022m-13.006.334c0 .015-.018.027-.04.027-.022 0-.04-.012-.04-.027s.018-.027.04-.027c.022 0 .04.01.04.026m1.148.357c0 .013-.018.01-.04-.01-.022-.018-.032-.044-.023-.06.018-.026.063.024.064.07m16.398.484c0 .022-.01.04-.025.04-.033 0-.058-.04-.036-.063.03-.03.062-.018.062.023m1.997.147c-.02.032-.063.054-.106.054-.04 0-.08.014-.092.03-.012.02-.006.025.02.012.02-.01.012 0-.017.02-.06.048-.065.052-.174.17-.043.05-.087.088-.098.088-.01 0 .023-.042.073-.093.05-.052.08-.094.07-.094-.06 0-1.15 1.138-1.154 1.202 0 .048-.017.068-.053.068-.04 0-.05.02-.05.093 0 .077-.012.095-.06.102-.055.008-.06.02-.044.114.016.098.013.104-.052.104-.06 0-.068.01-.076.113-.006.09-.018.112-.053.106-.028-.004-.047.014-.052.054-.006.04-.024.058-.056.053-.04-.007-.046.014-.046.14 0 .114.008.143.037.132.04-.015.086.035.057.064-.01.01-.027.002-.038-.016-.016-.026-.036-.022-.085.018-.062.05-.062.054-.018.103.06.07.058.146-.008.202-.04.035-.053.08-.053.18 0 .096-.012.134-.038.134-.047 0-.07.082-.07.257 0 .115-.01.14-.053.15-.05.014-.055.038-.055.216 0 .163-.01.206-.046.227-.037.02-.05.07-.057.228-.006.11-.02.203-.03.203-.032 0-.082.13-.082.21 0 .055-.014.08-.052.09-.07.02-.08.428-.014.516.02.028.04.04.04.024s-.014-.045-.033-.066c-.027-.032-.025-.032.015-.002.026.02.045.05.044.066-.03.25.007.79.055.804.07.022.08.417.014.484-.043.042-.03.117.02.117.02 0 .032.06.032.167 0 .14.007.168.05.176.07.014.15.103.15.166 0 .034.018.052.053.052.044 0 .054.018.054.096 0 .073.01.1.052.11.03.008.054.036.054.064 0 .033.02.05.053.05.035 0 .052.018.052.054 0 .035.018.053.054.053.035 0 .053.017.053.053 0 .034.017.053.05.053s.054.025.065.078c.012.06.04.086.108.112.05.018.1.055.106.082.018.075.368.07.444-.005.035-.036.09-.053.16-.053.09 0 .107-.01.107-.054 0-.047.02-.053.16-.053.144 0 .16-.006.16-.054 0-.044.02-.054.097-.054.074 0 .1-.012.11-.053.008-.03.037-.054.064-.054.034 0 .052-.02.052-.054 0-.036.018-.054.053-.054.036 0 .054-.017.054-.053s.016-.054.05-.054c.065 0 .27-.206.27-.272 0-.03.018-.05.053-.05s.053-.017.053-.052c0-.036.018-.054.053-.054s.053-.017.053-.053.018-.054.053-.054.054-.016.054-.05c0-.027.017-.056.037-.064.02-.008.046-.05.055-.095.01-.045.04-.087.07-.096.032-.01.05-.04.05-.082 0-.035.01-.065.023-.065s.04-.033.06-.073c.02-.04.058-.095.084-.12.026-.028.047-.076.047-.108 0-.033.024-.075.053-.093.034-.02.054-.062.054-.113 0-.044.01-.08.024-.08.022 0 .136-.17.136-.203 0-.008-.014-.005-.03.005-.02.01-.01-.012.02-.05.027-.04.067-.077.09-.086.024-.01.02.002-.012.04-.027.03-.036.054-.02.054.04 0 .093-.1.072-.135-.01-.014.014-.037.052-.052.062-.023.068-.04.068-.173 0-.13.007-.148.054-.148.048 0 .053-.018.053-.17 0-.16.005-.17.056-.158.07.02.06-.194-.01-.247-.064-.046-.058-.205.01-.253.044-.032.052-.07.052-.238 0-.16.01-.21.052-.254.046-.05.053-.103.06-.48.007-.35.015-.428.048-.44.035-.01.035-.006.004.032-.022.026-.025.045-.01.045.08 0 .083-.63.004-.732-.045-.057-.05-.11-.05-.43 0-.344-.004-.36-.055-.36-.046 0-.052-.02-.052-.162 0-.095-.012-.16-.028-.16s-.02-.013-.01-.03c.048-.078.04-.268-.013-.282-.038-.01-.055-.04-.06-.11-.008-.083-.02-.098-.07-.097-.034.002-.06-.013-.06-.035 0-.02-.035-.05-.078-.068-.044-.016-.085-.05-.092-.078-.007-.026-.03-.048-.055-.048-.023 0-.042-.02-.042-.042 0-.024-.022-.05-.05-.056-.028-.008-.057-.037-.065-.064-.01-.038-.037-.05-.106-.05-.07 0-.097-.014-.108-.055-.012-.044-.036-.052-.164-.052-.097 0-.176-.017-.223-.047-.07-.042-.07-.042-.036 0 .02.03.024.048.008.048s-.036-.024-.045-.054c-.015-.047-.04-.053-.23-.053-.182 0-.215.008-.244.054m-29.94.054c.053 0 .12.02.15.046.05.045.052.045.033-.005-.01-.03-.01-.044.002-.032.012.01.023.04.025.066.01.15 0 .143.182.133.094-.005.166 0 .16.008-.03.048.07.083.118.04.077-.07.378-.062.378.01 0 .047.018.053.155.053.12 0 .164.012.2.054.036.042.078.053.214.053h.168l.006.082c.005.054-.003.076-.022.064-.016-.01-.023-.034-.015-.054.008-.02.003-.038-.01-.038-.015 0-.027.023-.027.05 0 .068.11.11.28.11.118 0 .143.008.13.04-.032.084.157.084.24 0 .05-.05.178-.052.178-.002 0 .046.082.07.257.07.116 0 .14.008.152.053.012.046.037.052.202.052.177 0 .19.004.223.072.02.04.052.077.072.083.024.01.03 0 .015-.022-.014-.022-.01-.028.01-.015.017.01.024.03.016.044-.007.013.035.032.094.042.07.01.108.03.108.056 0 .025.016.034.04.025.022-.01.04-.004.04.01s.036.026.08.026c.045 0 .08-.012.08-.026 0-.014.017-.02.037-.012.02.008.055-.004.077-.027.054-.054.063-.053.08.01.012.047.037.055.166.055.112 0 .17.014.22.053.05.04.108.054.21.054.107 0 .144.01.144.037 0 .024.043.045.114.057.127.02.208.078.208.146 0 .04.048.047.405.06.33.014.41.024.43.058.017.033.068.042.22.042.182 0 .2.005.2.054 0 .047.018.053.16.053.152 0 .208.03.12.063-.152.06 0 .143.267.15.156.002.22.014.235.042.028.05.097.05.116 0 .027-.07.278-.057.278.012 0 .048.018.054.157.054.135 0 .16.007.17.053.014.048.038.054.205.054.153 0 .19.008.19.042 0 .076.124.172.222.172.07 0 .095.013.106.053.02.077.25.078.346.002.067-.053.067-.053.08 0 .013.047.038.053.218.053.185 0 .202.005.202.053s.018.054.16.054c.125 0 .173.012.214.053.03.03.078.054.107.054.03 0 .078.023.107.052.03.03.076.053.104.053.027 0 .056.024.064.054.012.045.036.052.192.052.122 0 .172-.01.16-.03-.014-.02-.004-.02.036 0 .03.017.116.03.19.03.1 0 .15.014.19.054.04.04.088.053.21.053.134 0 .158.007.17.052.013.05.232.08.375.056.012-.002.014.01.005.024-.01.016-.028.02-.042.013-.014-.01-.025.02-.025.063 0 .102.038.114.314.11.123-.003.232.004.242.015.01.012-.01.014-.042.006-.05-.013-.056-.01-.032.02.03.038.107.026.107-.017 0-.054.26-.026.273.03.013.047.037.053.217.053.185 0 .203.005.203.054 0 .047.018.053.16.053.135 0 .16.008.16.047.002.103.05.13.232.138.034 0 .066.025.076.056.02.064.274.07.355.01.067-.05.134-.045.166.016.024.043.057.054.166.054.095 0 .146.013.168.043.022.03.09.047.224.057.137.01.19.024.19.05 0 .02.02.037.046.037.024 0 .067.02.094.045.027.025.076.047.11.05.038.002.06.023.067.062.008.055.02.06.206.055.11-.003.193-.015.186-.026-.007-.012 0-.03.015-.04.016-.008.025 0 .02.02-.004.026.045.037.198.043.177.005.206.013.218.06.01.043.037.05.173.05.136 0 .16.01.173.055.013.05.19.077.36.055.017-.002.032.01.032.025 0 .016-.012.022-.026.013-.016-.01-.028-.004-.028.012 0 .015.01.028.025.028.013 0 .03.027.033.06.008.054.026.06.17.068.104.006.166.022.18.047.028.05.084.05.126 0 .053-.065.257-.055.275.012.013.048.037.053.218.053.185 0 .203.005.203.054 0 .048.018.053.183.053h.182l-.01.077c-.016.1.02.12.233.137.13.01.174.022.174.052 0 .028.028.04.093.04.074 0 .092-.01.086-.046-.004-.026.006-.047.022-.047.017 0 .022.01.013.026-.01.014-.003.026.012.026.016 0 .028-.012.028-.026 0-.053.127-.03.142.026.012.046.036.054.172.054.124 0 .168.01.206.053.038.04.082.053.202.053.13 0 .155.007.166.053.008.03.035.053.06.053.024 0 .075.023.112.053.038.03.083.053.102.053.018 0 .04.024.047.054.012.046.036.053.188.053.15 0 .177-.007.19-.053.01-.03.03-.054.047-.054.018 0 .018.012-.003.037-.035.042.08.07.295.07.1 0 .126.01.138.053.01.046.036.054.16.054h.147l-.014.22c-.008.12-.03.244-.05.273-.054.076-.052.583 0 .627.058.048.062 1.39.005 1.477-.065.1-.055.665.013.743.03.033.052.076.052.096 0 .02.018.036.04.036.034 0 .04.066.04.438 0 .46.01.523.07.523.032 0 .03.012-.005.066-.023.035-.035.077-.025.092.01.016.004.028-.01.028-.018 0-.03.072-.03.182 0 .19.04.29.11.267.055-.02.104.1.104.253 0 .106-.007.13-.032.104-.018-.018-.066-.032-.107-.032-.04 0-.1-.024-.128-.054-.03-.028-.077-.052-.105-.052-.027 0-.056-.024-.064-.054-.01-.047-.035-.053-.204-.053-.105 0-.185.01-.178.022.007.012.002.04-.013.06-.02.03-.024.028-.018-.014.007-.048-.01-.054-.156-.06-.136-.008-.166-.018-.177-.062-.012-.045-.038-.052-.2-.052-.164 0-.188-.006-.2-.053-.013-.047-.232-.08-.375-.055-.012.002-.014-.01-.005-.024.01-.014.028-.02.042-.01.037.02.03-.107-.007-.144-.02-.02-.11-.032-.218-.032-.136 0-.2-.012-.235-.044-.046-.042-.053-.042-.098 0-.073.065-.26.06-.28-.01-.01-.045-.036-.053-.164-.053-.113 0-.164-.013-.208-.054-.043-.04-.094-.053-.212-.053-.136 0-.156-.006-.156-.05 0-.068-.076-.144-.123-.126-.02.008-.037.002-.037-.012s-.036-.026-.08-.026c-.05 0-.08-.013-.08-.037 0-.082-.21-.098-.26-.02-.028.047-.167.072-.167.03 0-.038-.14-.08-.27-.08-.094 0-.13-.01-.13-.038 0-.053-.06-.07-.254-.07-.146 0-.17-.006-.182-.053-.008-.03-.034-.054-.057-.054-.024 0-.072-.018-.107-.04-.034-.024-.078-.04-.098-.035-.02.006-.04-.016-.045-.047-.01-.076-.304-.092-.383-.02-.03.026-.05.032-.05.014 0-.017.015-.033.033-.034.076-.007-.19-.048-.32-.05-.1 0-.14-.01-.14-.038 0-.043-.08-.07-.218-.07-.058 0-.104-.015-.112-.036-.008-.02-.073-.044-.15-.053-.158-.02-.21-.042-.162-.072.1-.062 0-.126-.208-.13-.146-.004-.215-.016-.236-.044-.038-.05-.107-.05-.127.002-.025.065-.247.054-.265-.014-.012-.047-.036-.053-.217-.053h-.203v.376c0 .305-.007.384-.04.418-.024.023-.037.058-.03.077.008.02.003.043-.01.052-.03.017-.035.39-.01.486.01.033.026.054.038.047.012-.008.03 0 .04.017.013.02.01.025-.01.013-.017-.01-.03-.007-.03.007 0 .015.01.034.026.043.048.03.034 1.318-.015 1.368-.024.023-.037.058-.03.077.008.02.003.043-.01.052-.058.035-.03.445.034.517.033.038.04.052.013.032-.057-.044-.063.004-.006.052.07.058.057 1.418-.015 1.483-.076.07-.076.463 0 .532.047.042.05.09.054.524l.002.48h-.11c-.07 0-.127-.02-.165-.055-.043-.04-.094-.052-.21-.052-.144 0-.152-.003-.166-.075-.015-.083-.107-.14-.23-.14-.052 0-.08-.014-.09-.052-.018-.074-.223-.074-.318 0-.067.053-.068.053-.08 0-.013-.044-.038-.052-.165-.052-.11 0-.15-.01-.15-.038 0-.055-.06-.07-.308-.07h-.226v.537c0 .497-.004.542-.054.605-.092.117-.066.728.03.728.056 0 .027 1.31-.03 1.382-.092.117-.066.728.03.728.046 0 .028 1.325-.016 1.362-.05.04-.055.096-.006.063.02-.012.013-.003-.013.022-.076.07-.07.545.005.57.03.01.054.03.054.045 0 .017-.015.015-.04-.005-.03-.024-.04-.025-.04-.003 0 .017.018.038.04.046.034.013.04.115.04.69 0 .577-.006.68-.04.692-.022.008-.04.03-.04.046 0 .022.01.02.04-.003.025-.02.04-.022.04-.005 0 .016-.024.036-.054.046-.076.024-.08.5-.005.57.026.024.032.033.013.02-.05-.032-.044.023.006.064.044.037.062 1.362.017 1.362-.084 0-.123.605-.044.71.022.028.04.038.04.023s-.014-.045-.032-.065c-.028-.032-.027-.033.01-.005.032.024.044.084.047.245l.006.214h-.17c-.246 0-.3-.06-.28-.32.01-.158.005-.2-.036-.253-.07-.09-.077-1.302-.008-1.38.067-.072.07-.677.004-.736-.068-.063-.07-1.332-.003-1.382.066-.048.067-.7 0-.75-.065-.048-.067-1.31 0-1.36.066-.048.067-.7 0-.75-.067-.048-.067-1.31 0-1.36.068-.05.065-.702 0-.75-.065-.047-.054-1.43.01-1.45.034-.01.035-.007.004.03-.024.03-.027.046-.007.046.035 0 .034.005.04-.314 0-.148-.008-.248-.024-.25-.014-.002-.06-.006-.1-.008-.04-.003-.08-.015-.092-.028-.012-.012.006-.016.04-.007.032.01.052.004.044-.01-.02-.032-.12-.03-.12.004 0 .047-.162.028-.232-.027-.048-.038-.108-.054-.21-.054-.105 0-.144-.01-.144-.037 0-.043-.08-.068-.22-.07-.072 0-.1-.01-.1-.04 0-.02-.022-.04-.048-.04-.026 0-.068-.024-.093-.053-.025-.03-.068-.053-.097-.053-.03 0-.06-.025-.07-.055-.015-.05-.037-.055-.18-.052-.092.002-.23.003-.306.002l-.14-.002v-.537c0-.496.004-.54.053-.604.046-.06.053-.11.053-.358 0-.255-.006-.297-.053-.344-.05-.05-.053-.09-.053-.697 0-.603.003-.648.053-.71.046-.06.053-.11.053-.356s-.007-.296-.053-.354c-.05-.064-.053-.108-.053-.71 0-.61.003-.648.053-.698.08-.08.08-.6 0-.7-.042-.055-.053-.117-.06-.33l-.007-.266-.088-.01c-.05-.004-.112-.03-.14-.06-.04-.04-.09-.05-.23-.05-.163 0-.175-.004-.128-.04.057-.04.032-.122-.043-.14-.022-.007-.017.007.013.03.04.033.045.05.02.075-.024.024-.03.023-.03-.005 0-.078-.088-.134-.206-.134-.08 0-.115-.012-.115-.037 0-.044-.1-.078-.12-.043-.01.012-.03.017-.05.01-.02-.008-.05.005-.07.027-.042.052-.187.056-.187.005 0-.048-.083-.07-.254-.07-.105 0-.14-.013-.167-.055-.027-.042-.063-.053-.17-.053-.09 0-.148-.014-.167-.04-.025-.033-.09-.056-.184-.065-.01 0-.02-.015-.02-.032 0-.02.013-.02.04.003.028.023.04.024.04.004 0-.017-.014-.032-.033-.034l-.06-.01c-.015-.004-.058-.008-.097-.01-.047-.002-.075-.02-.084-.057-.018-.064-.29-.07-.354-.008-.046.047-.066.046-.066-.002 0-.028-.046-.044-.16-.057-.095-.01-.163-.033-.17-.055-.012-.027-.07-.037-.217-.037-.183 0-.2-.003-.2-.052 0-.045-.018-.054-.11-.054-.114 0-.235-.1-.217-.18.006-.024-.035-.033-.15-.033-.108 0-.17-.012-.19-.04-.02-.02-.052-.04-.072-.04-.02 0-.045.02-.053.04-.026.07-.347.057-.365-.013-.012-.046-.036-.053-.19-.053-.147 0-.18-.01-.21-.053-.026-.043-.06-.053-.19-.053-.152 0-.156-.002-.114-.05.09-.098.012-.163-.195-.163-.134 0-.158-.008-.17-.054-.01-.04-.037-.053-.097-.053-.047 0-.105.023-.136.053-.065.066-.175.07-.21.008-.02-.035-.07-.048-.215-.057-.164-.008-.19-.016-.19-.06 0-.043-.02-.05-.146-.05-.114 0-.147-.01-.147-.04 0-.024-.027-.052-.06-.063-.037-.015-.046-.028-.025-.04.085-.054-.022-.204-.12-.167-.023.01-.032.004-.022-.012.026-.042-.152-.212-.223-.212-.042 0-.055.01-.04.033.012.022.004.02-.027-.004-.024-.02-.045-.053-.045-.074 0-.02-.018-.036-.04-.036-.023 0-.04-.024-.04-.056 0-.034-.02-.062-.053-.07-.03-.008-.054-.032-.054-.054 0-.02-.023-.045-.052-.053-.038-.01-.053-.036-.053-.093 0-.058-.016-.084-.054-.094-.03-.008-.052-.036-.052-.067 0-.03-.023-.06-.054-.067-.063-.017-.073-.128-.013-.15.056-.023.05-.1-.006-.116-.038-.01-.045-.034-.037-.12.008-.087 0-.11-.04-.12-.03-.007-.064-.05-.078-.098-.02-.065-.048-.093-.113-.112-.078-.023-.087-.035-.087-.127 0-.082-.01-.1-.053-.1-.05 0-.053-.018-.053-.203 0-.18-.006-.204-.054-.217-.07-.018-.08-.345-.013-.372.05-.02.05-.06 0-.114-.023-.028-.04-.12-.047-.26-.01-.237-.042-.303-.143-.303h-.064v-.596c0-.56.003-.6.053-.644.08-.07.075-.735-.005-.735-.015 0-.01.018.01.044.03.037.03.042-.003.03-.03-.01-.042-.062-.046-.21-.002-.11.002-.184.01-.166.008.02.057.034.11.034m35.394.918c0 .015-.018.003-.04-.025-.02-.028-.04-.063-.04-.078 0-.014.02-.003.04.025.022.03.04.064.04.08m-10.71.043c.028.05.025.052-.023.022-.03-.02-.047-.043-.04-.055.02-.032.033-.026.065.033m3.95.21c-.077.075-.146.136-.155.136-.008 0 .05-.065.13-.146.08-.08.148-.142.153-.136.006.005-.052.07-.128.146m-16.864-.024c.01.015-.008.027-.04.027-.03 0-.048-.012-.04-.027.01-.015.028-.027.04-.027.014 0 .032.01.04.026m10.25.994c-.026.025-.04.025-.065 0s-.018-.032.032-.032.057.007.032.032m5.923.408c-.02.022-.044.033-.058.025-.034-.02 0-.065.05-.065.033 0 .034.008.008.04m-27.824.34c-.026.024-.033.017-.033-.033s.007-.057.032-.032c.024.025.024.04 0 .064m18.225.013c-.033.034-.017.07.018.04.026-.022.044-.02.067.002.02.02.03.022.03.002 0-.016-.018-.037-.04-.046-.053-.02-.053-.02-.075.002m11.574.326c0 .242-.006.265-.055.278-.047.013-.053.037-.053.214s-.006.2-.054.213c-.045.013-.053.038-.053.165 0 .112-.01.15-.038.15-.02 0-.047.026-.057.06-.01.032-.03.067-.046.077-.016.01-.03.042-.032.07-.005.075-.064.14-.11.122-.063-.025-.05-.294.016-.336.042-.027.053-.062.053-.174 0-.105.015-.154.055-.194.04-.04.053-.09.053-.198 0-.122.01-.148.054-.162.04-.013.053-.04.053-.12 0-.08.012-.108.053-.12.04-.013.054-.04.054-.114 0-.078.058-.194.097-.194.004 0 .01.12.01.264m5.207-.024c-.05.03-.065.015-.043-.043.014-.036.025-.04.05-.014.025.025.024.037-.007.056m-2.205.693c.02.032-.03.064-.066.042-.03-.02-.01-.067.027-.067.013 0 .03.01.04.025m-10.686.14c-.01.018-.026.014-.04-.008-.036-.058-.027-.086.016-.05.022.018.033.045.024.06m2.12-.028c-.016.048-.074.057-.074.01 0-.024.02-.043.043-.043.023 0 .037.014.03.032m-7.09.774c-.026.025-.04.025-.065 0-.024-.025-.017-.032.033-.032s.057.007.032.032m1.15.304c.012.06.01.065-.027.03-.022-.023-.032-.054-.022-.07.027-.043.034-.037.05.04m-19.478.417c0 .043-.007.05-.03.03-.016-.018-.02-.044-.01-.06.026-.045.04-.035.04.03m2.653.13c-.02.02-.03.008-.04-.043-.013-.065-.01-.067.028-.03.03.032.034.052.013.073m-2.416.308c.004.003-.004.013-.02.022-.014.01-.04-.01-.058-.044-.03-.057-.03-.058.018-.02l.06.043m35.325.01c-.014.02-.03.023-.047.005-.015-.015-.018-.04-.008-.058.013-.02.03-.022.047-.005.014.015.018.04.007.058m-31.305.193c-.01.016-.026.013-.04-.01-.036-.057-.027-.085.016-.05.023.02.034.046.025.06m-3.395.633c.01.035.003.046-.023.037-.02-.008-.037-.03-.037-.052 0-.055.045-.045.06.014m14.508 2.405c.01.015-.01.027-.04.027s-.05-.012-.04-.027c.01-.015.027-.027.04-.027.013 0 .03.012.04.027m9.094.013c0 .022-.012.04-.027.04-.014 0-.026-.018-.026-.04 0-.022.01-.04.025-.04.015 0 .027.018.027.04m9.628.308c.01.014-.003.034-.026.043-.05.02-.08-.003-.055-.043.02-.036.058-.036.08 0M42.163 25c0 .03.01.06.024.068.013.008.022-.015.02-.052-.005-.078-.044-.09-.044-.015m5.315 1.01c-.3.305-.558.572-.57.595-.014.022.242-.224.567-.547.324-.323.59-.59.59-.594 0-.037-.116.07-.587.547m-3.013-.44c-.025.024-.032.017-.032-.033s.007-.057.032-.032.025.04 0 .064m-1.576 1.575c-.025.025-.04.025-.065 0s-.017-.032.032-.032c.05 0 .057.007.032.032m5.162 1.196c-.088.09-.19.18-.227.204-.037.024.023-.047.133-.157.11-.11.213-.2.227-.203.015-.002-.045.07-.133.157m-4.318.07c.004.004-.004.013-.02.023-.014.01-.04-.01-.058-.044-.03-.06-.03-.06.018-.023.028.022.055.04.06.044m-.845.845c-.025.025-.04.025-.065 0s-.017-.033.032-.033c.05 0 .057.008.032.033M1.46 31.843c-.048.046-.098.05-.586.05H.34v.548c0 .348-.01.548-.027.548-.04 0-.033.1.007.116.026.01.026.014 0 .016-.024 0-.034.068-.034.24 0 .165.01.242.034.252.026.01.026.013 0 .015-.04.003-.046.11-.007.11.017 0 .027.248.027.693 0 .445-.01.695-.027.695-.038 0-.033.073.007.09.026.01.026.013 0 .014-.047.003-.047.472 0 .49.026.012.026.015 0 .017-.04.002-.046.11-.007.11.017 0 .027.248.027.693 0 .445-.01.695-.027.695-.04 0-.033.1.007.116.026.01.026.014 0 .016-.024.002-.034.066-.034.227 0 .155.01.23.034.238.026.012.026.015 0 .017-.04.002-.046.11-.007.11.017 0 .027.248.027.693 0 .445-.01.694-.027.694-.04 0-.033.1.007.116.026.01.026.014 0 .016-.047.003-.047.446 0 .465.026.012.026.015 0 .017-.04.002-.046.11-.007.11.017 0 .027.248.027.693 0 .445-.01.694-.027.694-.04 0-.033.1.007.116.026.01.026.014 0 .016-.047.003-.047.446 0 .465.026.012.026.015 0 .016-.04.003-.046.11-.007.11.017 0 .027.25.027.694 0 .445-.01.694-.027.694-.04 0-.033.1.007.116.026.01.026.014 0 .016-.024 0-.034.068-.034.24 0 .165.01.242.034.252.026.01.026.013 0 .015-.04.003-.046.082-.007.082.017 0 .027.25.027.695 0 .445-.01.694-.027.694-.04 0-.033.1.007.116.026.01.026.014 0 .015-.024.002-.034.07-.034.24 0 .166.01.243.034.252.026.01.026.014 0 .016-.04.002-.046.11-.007.11.017 0 .027.248.027.693 0 .445-.01.695-.027.695-.04 0-.035.58.007.597.026.01.026.014 0 .016-.04.002-.046.11-.007.11.017 0 .027.248.027.693 0 .445-.01.694-.027.694-.04 0-.033.1.007.116.026.01.026.014 0 .016-.047.003-.047.446 0 .465.026.01.026.014 0 .016-.04.002-.046.11-.007.11.017 0 .027.248.027.693 0 .445-.01.694-.027.694-.04 0-.033.1.007.116.026.01.026.014 0 .016-.047.003-.047.446 0 .465.026.01.026.014 0 .015-.04.003-.046.11-.007.11.017 0 .027.17.027.453v.454h.24c.143 0 .24.01.24.026 0 .017.138.027.36.027.224 0 .362-.01.362-.027s.25-.027.694-.027c.445 0 .694.01.694.026 0 .017.143.027.374.027.232 0 .374-.01.374-.027s.245-.027.68-.027c.437 0 .682.01.682.026 0 .017.143.027.374.027.232 0 .374-.01.374-.027s.25-.027.694-.027c.445 0 .695.01.695.026 0 .017.138.027.36.027.223 0 .36-.01.36-.027s.25-.027.695-.027c.445 0 .695.01.695.026 0 .015.054.027.12.027.132 0 .158-.047.08-.15-.046-.06-.058-1.492-.012-1.52.014-.01.017.005.007.03-.012.032-.008.04.015.026.047-.03.037-.638-.012-.703-.054-.07-.053-1.335 0-1.406.053-.068.053-.632 0-.7-.03-.04-.036-.186-.036-.705 0-.52.006-.664.036-.703.052-.07.052-.634 0-.703-.03-.04-.038-.178-.038-.645v-.594h.146c.13 0 .147-.005.147-.052 0-.05.018-.054.228-.054.19 0 .235-.008.28-.053.044-.043.09-.053.254-.053.182 0 .2-.004.2-.053 0-.045.018-.053.11-.053.068 0 .134.02.177.054.045.037.107.053.195.053.104 0 .13-.01.145-.053.015-.047.04-.053.218-.053.164 0 .2-.006.187-.038-.01-.026.015-.048.08-.07.05-.016.1-.047.107-.068.008-.02.048-.037.09-.037.102 0 .16-.025.16-.07 0-.028.048-.037.213-.037.196 0 .213-.004.213-.053 0-.05.018-.054.24-.054.212 0 .245-.006.274-.053.03-.046.062-.054.24-.054.19 0 .208-.004.208-.054 0-.068.213-.067.236 0 .01.035.007.036-.032.005-.025-.022-.044-.025-.044-.01 0 .075.338.077.36.003.016-.046.212-.073.38-.053.016.002.035-.023.04-.057.006-.045.023-.06.067-.052.037.005.072-.013.093-.047.028-.044.062-.054.19-.054.112 0 .158-.01.17-.04.008-.024.05-.04.1-.04.168 0 .336-.034.336-.067 0-.024.074-.038.243-.046.19-.01.248-.02.268-.057.028-.05.353-.066.383-.018.027.04.116.03.143-.018.02-.035.063-.043.225-.04.155.004.204-.004.215-.034.01-.022.07-.048.144-.06.18-.028.178-.027.215-.032.018-.002.033-.018.033-.034 0-.02-.012-.02-.04.003-.027.023-.04.024-.04.003 0-.016.012-.03.027-.033l.06-.007c.02-.002.03-.025.026-.05-.005-.026.005-.046.02-.046.017 0 .023.012.014.026-.01.015-.004.027.012.027s.028-.01.028-.024c0-.012.092-.027.203-.033.153-.007.21-.02.237-.056.026-.035.075-.045.227-.045.166 0 .194-.007.205-.05.012-.045.044-.053.253-.06.195-.01.245-.02.266-.057.034-.06.242-.065.29-.007.042.05.097.056.064.007-.013-.02-.003-.013.02.013.06.063.122.06.163-.005.03-.045.064-.054.214-.054.153 0 .184-.007.21-.052.017-.035.054-.054.105-.054.052 0 .08-.016.093-.053.01-.028.03-.052.045-.052.017 0 .016.015-.005.04-.024.03-.025.04-.003.04.017 0 .038-.018.047-.04.008-.022.044-.04.08-.04.045 0 .063-.015.063-.054 0-.05.018-.053.227-.053.19 0 .235-.008.28-.053.044-.043.09-.053.243-.053.167 0 .19-.006.204-.053.012-.047.036-.053.222-.053.23 0 .293-.014.293-.07 0-.055.126-.045.205.017.046.036.108.053.196.053.106 0 .132-.01.146-.053.015-.047.04-.054.217-.054.144 0 .198-.01.195-.033-.01-.073.004-.095.053-.082.03.008.075-.01.108-.043.038-.038.09-.055.163-.055.09 0 .107-.01.107-.054 0-.05.018-.053.228-.053.194 0 .234-.008.273-.054.038-.044.078-.053.253-.053.19 0 .21-.005.21-.053 0-.07.443-.084.47-.014.022.058.08.05.128-.018.03-.045.033-.064.01-.08-.02-.01-.024-.028-.013-.04.023-.023.075.045.057.074-.006.01.077.02.185.02.177.005.198 0 .21-.05.014-.047.147-.076.268-.055.043.007.126-.054.126-.092 0-.022.02-.04.042-.04.023 0 .048-.017.056-.04.012-.03.06-.04.186-.04.153 0 .17-.005.17-.053 0-.035.02-.053.055-.053.046 0 .052-.02.052-.16 0-.123.012-.174.05-.213.08-.078.077-.723-.002-.723-.016 0-.013.018.01.044.03.038.03.043-.005.03-.07-.022-.073-1.39-.003-1.46.076-.076.077-.65 0-.727-.077-.077-.077-1.304 0-1.382.044-.044.05-.092.05-.36v-.313l-.107.01c-.06.007-.123.032-.14.056-.02.028-.07.044-.132.044-.077 0-.103.012-.114.054-.013.047-.037.053-.225.053-.16 0-.21.01-.21.037 0 .027-.066.04-.246.052-.183.01-.252.026-.27.057-.016.028-.063.04-.152.04-.18 0-.295.028-.295.07 0 .048-.106.048-.167 0-.08-.06-.334-.053-.354.01-.015.047-.04.055-.182.057-.25.003-.27.008-.354.096-.063.065-.107.084-.223.095-.09.008-.157.03-.177.057-.024.033-.077.043-.225.043-.166 0-.194.007-.205.05-.012.046-.044.053-.253.06-.195.01-.245.02-.266.057-.035.063-.33.067-.4.006-.04-.037-.05-.035-.112.02-.06.054-.063.062-.023.093.03.022.033.035.012.035-.02 0-.048-.023-.067-.052-.027-.044-.062-.054-.186-.054-.127 0-.16.01-.183.053-.022.04-.055.053-.15.053-.172 0-.318.092-.284.18.007.018 0 .034-.018.034-.017 0-.024-.012-.015-.027.01-.015.004-.027-.012-.027-.015 0-.028.012-.028.027s-.08.027-.187.027c-.15 0-.197.01-.24.053-.044.044-.09.053-.254.053-.184 0-.2.005-.2.054 0 .05-.02.053-.23.053-.193 0-.233.008-.272.054-.03.036-.078.053-.15.053-.062 0-.13-.02-.17-.053-.102-.08-.294-.044-.24.045.008.012-.082.017-.2.013-.164-.007-.21 0-.207.026.012.08-.004.09-.104.082-.08-.008-.118.003-.16.046-.03.03-.08.056-.11.056-.036 0-.053.017-.053.053 0 .05-.018.054-.228.054-.194 0-.234.008-.273.054-.038.045-.078.053-.253.053-.19 0-.21.005-.21.054 0 .05-.017.054-.21.054-.235 0-.296.015-.296.07 0 .053-.134.047-.174-.007-.05-.07-.35-.076-.37-.007-.012.05-.182.072-.375.052-.035-.004-.046.007-.034.036.018.046-.02.08-.098.084-.028.003-.066.024-.084.05-.02.027-.07.043-.143.043-.092 0-.11.008-.11.053 0 .05-.018.054-.212.054-.234 0-.296.014-.296.07 0 .028-.05.036-.227.036-.174 0-.227.01-.227.037 0 .054-.43.078-.462.027-.028-.05-.098-.046-.137.007-.025.033-.07.043-.18.04-.128-.005-.15 0-.162.048-.012.05-.035.054-.225.054-.208 0-.342.056-.28.118.01.01.008.018-.007.015-.054-.01-.08.002-.045.024.02.012-.032.023-.134.026-.202.005-.263.02-.263.07 0 .025-.06.037-.23.044-.18.007-.235.02-.262.056-.027.036-.074.047-.21.047-.2 0-.26.016-.26.07 0 .054-.328.05-.373-.004-.018-.023-.046-.04-.06-.04-.016 0-.007.023.02.053.026.03.04.053.028.053-.01 0-.044-.03-.073-.067-.064-.08-.09-.084-.148-.014-.032.036-.08.053-.146.053-.125 0-.183.022-.183.07 0 .026-.036.036-.134.036-.134 0-.227.032-.28.094-.014.018-.047.04-.073.05-.053.017-.07-1.3-.018-1.333.014-.01.017.005.007.03-.012.032-.008.04.015.026.047-.03.037-.637-.012-.7-.054-.072-.053-1.336 0-1.407.053-.07.053-.634 0-.703-.03-.04-.036-.185-.036-.704 0-.52.006-.665.036-.704.052-.07.052-.634 0-.703-.054-.07-.055-1.335 0-1.406.048-.065.058-.673.01-.702-.022-.014-.026-.006-.014.026.01.026.007.04-.005.033-.013-.008-.025-.117-.028-.243-.007-.332.03-.306-.467-.31-.527-.004-.503 0-.52-.05-.01-.035-.007-.035.03-.004.027.022.046.025.046.01 0-.08-.665-.084-.737-.005-.044.05-.088.053-.693.053s-.65-.003-.693-.052c-.072-.078-.736-.075-.736.005 0 .016.02.013.046-.01.038-.03.042-.03.03.005-.022.07-1.39.074-1.46.004-.08-.08-.644-.084-.724-.005-.05.05-.086.053-.695.053-.61 0-.644-.002-.696-.054-.077-.08-.642-.077-.72.003m2.412 2c.05.08.498.08.548 0 .018-.03.048-.053.066-.053.02 0 .01.018-.018.04-.03.022-.04.04-.024.04s.044-.02.062-.04c.028-.034.14-.04.694-.04.556 0 .667.006.695.04.04.05.096.054.063.005-.013-.02-.003-.013.02.013.05.054.53.074.53.022 0-.014.018-.02.038-.01.02.006.055-.006.078-.03.034-.033.118-.04.472-.04h.43l-.004.26c-.003.2-.014.272-.048.31-.063.07-.062.47 0 .542.07.074.074 1.39.007 1.49-.063.1-.068.55-.005.62.058.063.074 1.402.02 1.468-.08.097-.08.725 0 .752.04.014.04 1.36 0 1.373-.034.01-.063.18-.063.37 0 .186.03.356.062.367.042.014.042 1.36 0 1.373-.016.006-.033.042-.037.082-.005.04-.016.12-.026.177-.01.062-.006.11.01.12.016.01.02.036.013.057-.04.107.37.05.485-.067.1-.102.11-.106.272-.106.15 0 .17-.006.17-.054 0-.05.016-.053.24-.053.222 0 .246-.005.258-.054.013-.047.037-.053.222-.053s.21-.006.22-.053c.022-.08.316-.08.394 0 .07.07.224.06.235-.014.005-.05.024-.052.207-.044.186.008.203.004.216-.047.008-.03.035-.057.058-.058.16-.008.2-.018.23-.06.02-.024.054-.045.077-.045s.05-.024.06-.053c.014-.048.04-.054.227-.054.194 0 .212-.005.212-.054 0-.05.018-.053.24-.053.19 0 .246-.01.258-.04.01-.028.053-.04.126-.042.18 0 .31-.03.31-.07 0-.043.338-.047.364-.006.007.013-.007.015-.032.005-.032-.012-.04-.008-.026.015.034.056.336.033.336-.026 0-.042.028-.05.207-.056.177-.007.205-.015.202-.055-.003-.043.023-.06.08-.05.013.003.05-.012.083-.034.033-.02.104-.046.158-.056.056-.01.097-.034.097-.055 0-.03.045-.04.185-.04.205 0 .27-.014.27-.066 0-.024.064-.037.228-.043.18-.007.237-.02.263-.056.027-.037.075-.046.228-.046.17 0 .195-.007.207-.054.018-.065.127-.072.188-.01.022.02.058.034.078.026.02-.008.036-.002.036.012 0 .03.132.035.2.01.022-.01.04-.033.04-.054 0-.028.044-.037.176-.037.147 0 .184-.01.233-.06.034-.034.043-.04.023-.014-.066.085.01.05.104-.045.07-.07.112-.093.185-.093.135 0 .216-.027.216-.07 0-.028.05-.037.216-.037.193 0 .217-.005.23-.053.012-.048.036-.053.224-.053.175 0 .22-.01.264-.054.07-.068.385-.08.41-.013.022.056.06.05.123-.02.04-.042.046-.062.022-.077-.018-.01-.023-.03-.012-.04.025-.025.074.044.055.075-.007.012.073.022.178.022.168 0 .192-.007.205-.054.01-.045.036-.053.158-.053.132 0 .156-.01.26-.107.11-.1.127-.107.28-.107.185 0 .245-.017.245-.07 0-.028.05-.037.212-.037.188 0 .214-.006.23-.054.014-.048.04-.053.24-.053.197 0 .23-.007.26-.054.046-.076.24-.075.315 0 .074.074.225.064.226-.014 0-.05.014-.053.208-.044.194.01.21.006.224-.047.013-.05.072-.072.15-.058.045.008.125-.03.125-.057 0-.016-.018-.012-.044.01-.037.03-.042.03-.03-.004.013-.04.027-.045.162-.05.055-.003.073-.018.073-.057 0-.05.018-.055.212-.055.234 0 .296-.014.296-.07 0-.028.048-.037.21-.037.188 0 .212-.005.225-.053.012-.048.036-.053.244-.053.18 0 .234-.01.246-.04.017-.045.266-.052.292-.01.008.012-.007.014-.032.005-.028-.01-.04-.007-.028.01.035.057.346.042.33-.016-.01-.048.306-.095.41-.06.016.006.026.237.026.595v.585h-.2c-.174 0-.2.006-.214.053-.015.048-.04.054-.23.054-.175 0-.22.01-.264.053-.044.044-.09.054-.254.054-.183 0-.2.004-.2.053 0 .04-.018.053-.067.053-.037 0-.09-.024-.12-.053-.04-.04-.09-.053-.19-.053-.113 0-.138.008-.15.053-.012.047-.036.053-.213.053-.178 0-.202.006-.214.054-.008.03-.03.053-.047.053-.02 0-.064.024-.102.054-.036.03-.107.054-.156.054-.13 0-.21.028-.21.07 0 .028-.048.037-.21.037-.19 0-.215.007-.23.054-.015.048-.04.054-.23.054-.175 0-.22.01-.264.053-.07.07-.385.08-.41.015-.023-.06-.086-.05-.134.024-.03.048-.034.067-.01.076.02.006.024.022.012.034-.022.023-.077-.04-.06-.068.005-.008-.076-.014-.182-.013-.157 0-.192.01-.2.046-.008.045-.03.05-.244.056-.065.002-.117.026-.167.077-.074.074-.097.116-.047.085.015-.01.027-.003.027.013s-.016.027-.034.025c-.166-.022-.398.007-.446.055-.044.044-.09.054-.252.054-.175 0-.2.006-.216.053-.015.048-.04.054-.23.054-.178 0-.218.007-.256.052-.062.072-.248.074-.312.003-.066-.073-.267-.074-.248 0 .012.047-.002.05-.2.05-.192 0-.215.006-.228.054-.008.03-.038.053-.07.055-.132.005-.18.017-.227.06-.027.024-.07.044-.093.044-.025 0-.045.017-.045.04 0 .03-.04.04-.197.04-.156 0-.21.01-.264.053-.05.04-.11.053-.23.053-.183 0-.244.017-.244.07 0 .028-.05.037-.213.037-.18 0-.224.01-.27.053-.056.058-.2.073-.218.023-.006-.018-.034-.033-.063-.036-.03-.002-.07-.013-.088-.025-.053-.033-.218.006-.218.05 0 .03-.04.04-.174.04-.098 0-.173.01-.173.027 0 .014-.015.023-.034.02-.018-.004-.03.014-.03.04.003.025-.007.04-.02.03-.014-.008-.045.008-.07.036-.026.027-.036.034-.023.015.033-.05-.023-.044-.064.005-.018.022-.067.04-.108.04-.1 0-.16.025-.16.067 0 .025-.063.037-.228.044-.183.008-.234.02-.255.056-.02.038-.063.047-.227.047-.177 0-.203.007-.215.052-.02.08-.448.092-.503.014-.038-.054-.038-.054-.086 0-.04.045-.073.052-.203.044-.138-.008-.155-.003-.17.047-.012.05-.033.056-.21.056-.195 0-.2.003-.315.108-.106.098-.128.106-.264.106-.125 0-.15.01-.165.054-.015.047-.04.053-.23.053-.178 0-.218.01-.257.055-.038.045-.08.053-.253.053-.19 0-.208.005-.208.054 0 .047-.018.053-.174.053-.138 0-.184-.01-.227-.053-.07-.072-.214-.073-.232-.002-.01.043-.04.054-.164.06-.136.007-.152.015-.16.072-.01.06-.016.063-.164.047-.123-.013-.163-.008-.19.025-.02.024-.063.053-.097.066-.035.014-.062.042-.062.065 0 .033-.04.04-.21.04-.248 0-.24-.01-.246.3-.003.16-.016.235-.048.27-.062.07-.056.522.007.62.068.1.063 1.416-.005 1.49-.064.072-.064.47 0 .543.068.074.073 1.39.006 1.49-.064.102-.067.55-.003.62.026.03.047.064.046.078 0 .013-.018 0-.04-.028-.022-.028-.04-.04-.04-.023 0 .016.02.044.04.062.052.042.06 1.33.01 1.38-.04.042-.058.168-.058.41v.2l-.26-.01c-.237-.006-.267-.002-.318.05-.074.073-1.44.074-1.465 0-.01-.035-.007-.035.03-.004.025.02.046.025.046.01 0-.084-.638-.09-.722-.006-.05.05-.09.053-.696.053-.603 0-.648-.003-.712-.053-.058-.047-.108-.054-.367-.054-.265 0-.304.006-.347.054-.04.042-.082.053-.218.053h-.17v-.48c0-.446.005-.485.054-.535.047-.047.053-.09.053-.36 0-.272-.006-.314-.054-.36-.083-.084-.083-1.328 0-1.403.08-.072.08-.613 0-.715-.083-.104-.083-1.296 0-1.4.08-.103.08-.644 0-.716-.083-.074-.083-1.318 0-1.4.083-.084.077-.722-.007-.722-.015 0-.01.02.01.044.03.038.03.043-.004.03-.073-.022-.074-1.39-.002-1.462.082-.08.082-.64 0-.722-.08-.083-.08-1.306 0-1.39.082-.08.082-.64 0-.72-.072-.073-.07-1.44 0-1.464.036-.012.036-.007.005.03-.02.025-.025.045-.01.045.084 0 .09-.638.006-.722-.05-.05-.054-.09-.054-.703 0-.617.003-.653.053-.7.047-.042.053-.08.053-.347 0-.26-.007-.308-.054-.367-.05-.063-.054-.107-.054-.702v-.636l.085-.088c.048-.048.072-.088.055-.088-.018 0-.032.014-.032.03 0 .018-.007.025-.016.016-.06-.06.068-.07.765-.07.714 0 .75.002.78.052m19.372 3.778c-.1.093-.123.084-.03-.013.042-.045.082-.075.09-.068.007.007-.02.043-.06.08m-1.82.385c.02.032-.03.064-.066.042-.03-.02-.01-.068.027-.068.013 0 .03.012.04.025m-8.147 1.79c.02.032-.03.063-.066.04-.03-.017-.01-.065.027-.065.012 0 .03.01.038.025m4.648 1.096c-.013.02-.028.023-.046.005-.014-.015-.018-.04-.007-.058.013-.02.028-.022.046-.005.014.015.017.04.006.058m2.017.723c0 .014-.018.025-.04.025-.042 0-.053-.03-.023-.06.02-.022.063.003.063.036m4.673 1.04c0 .035-.048.06-.08.04-.015-.01-.02-.028-.012-.042.02-.032.092-.032.092 0m6.098.244c.012.045.007.05-.024.023-.042-.034-.05-.077-.014-.077.013 0 .03.025.038.055m-3.582.004c-.025.025-.04.025-.064 0-.025-.025-.018-.032.032-.032s.057.007.032.032m-19.183.144c-.036.038-.09.08-.12.096-.03.015-.01-.014.04-.065.11-.108.176-.134.08-.03m3.834.384c-.013.022-.03.023-.046.005-.015-.014-.018-.04-.008-.058.013-.02.03-.022.046-.004.015.014.018.04.008.058m4.672 1.014c.02.032-.03.063-.066.04-.03-.017-.01-.065.027-.065.013 0 .03.01.04.024" stroke="null"/></g></svg>
