<svg id="SvgjsSvg1093" xmlns="http://www.w3.org/2000/svg" version="1.1" xmlns:xlink="http://www.w3.org/1999/xlink" xmlns:svgjs="http://svgjs.com/svgjs" width="52" height="50" viewBox="0 0 52 50"><title>Shape 1</title><desc>Created with Avocode.</desc><defs id="SvgjsDefs1094"><linearGradient id="SvgjsLinearGradient1097" gradientUnits="userSpaceOnUse" x1="1088.9819275681327" y1="237.25" x2="1053.0180724318673" y2="286.75"><stop id="SvgjsStop1098" stop-opacity="1" stop-color="#3d3daf" offset="0"></stop><stop id="SvgjsStop1099" stop-opacity="1" stop-color="#3d3daf" offset="0.45"></stop><stop id="SvgjsStop1100" stop-opacity="1" stop-color="#c741ba" offset="1"></stop></linearGradient></defs><path id="SvgjsPath1095" d="M1093.42 273.48C1093.44 273.267 1093.46 273.055 1093.46 272.845C1093.46 272.80600000000004 1093.45 272.769 1093.45 272.73100000000005L1090.57 259.17400000000004C1090.56 257.71700000000004 1089.2 255.34400000000002 1089.2 255.22100000000003V248.00800000000004C1089.2 247.86100000000005 1089.14 247.72300000000004 1089.03 247.61800000000005C1088.93 247.51600000000005 1088.79 247.45800000000006 1088.6499999999999 247.45800000000006H1088.6399999999999L1080.9199999999998 247.47300000000004V244.41000000000005H1087.9799999999998C1088.2799999999997 244.41000000000005 1088.5299999999997 244.16500000000005 1088.5299999999997 243.86100000000005V237.55000000000004C1088.5299999999997 237.24600000000004 1088.2799999999997 237.00000000000003 1087.9799999999998 237.00000000000003H1069.4299999999998C1069.1299999999999 237.00000000000003 1068.8799999999999 237.24600000000004 1068.8799999999999 237.55000000000004V243.86100000000005C1068.8799999999999 244.16500000000005 1069.1299999999999 244.41000000000005 1069.4299999999998 244.41000000000005H1076.4899999999998V247.48100000000005L1065.4999999999998 247.50300000000004V243.11900000000003C1065.4999999999998 242.97000000000003 1065.4099999999999 242.83500000000004 1065.2799999999997 242.77100000000002C1065.1399999999996 242.70800000000003 1064.9799999999998 242.728 1064.8699999999997 242.824C1064.7899999999997 242.89000000000001 1064.6599999999996 242.96900000000002 1064.4799999999996 242.96900000000002C1064.2099999999996 242.96900000000002 1063.9799999999996 242.79200000000003 1063.8999999999996 242.52900000000002C1063.8499999999997 242.36500000000004 1063.6999999999996 242.25200000000004 1063.5299999999997 242.25200000000004C1063.3599999999997 242.25300000000004 1063.2099999999998 242.36600000000004 1063.1599999999999 242.53100000000003C1063.09 242.79500000000004 1062.85 242.97300000000004 1062.58 242.97300000000004C1062.32 242.97300000000004 1062.08 242.79100000000005 1062 242.53000000000003C1061.96 242.36500000000004 1061.81 242.25200000000004 1061.64 242.25200000000004H1061.63C1061.46 242.25200000000004 1061.3100000000002 242.36300000000003 1061.2700000000002 242.52700000000004C1061.1900000000003 242.79000000000005 1060.9500000000003 242.96600000000004 1060.6900000000003 242.96600000000004C1060.4200000000003 242.96600000000004 1060.1800000000003 242.78400000000005 1060.1000000000004 242.52400000000003C1060.0600000000004 242.36000000000004 1059.9100000000003 242.24700000000004 1059.7400000000005 242.24700000000004C1059.5600000000004 242.24700000000004 1059.4100000000005 242.35900000000004 1059.3700000000006 242.52300000000005C1059.2900000000006 242.78600000000006 1059.0600000000006 242.96300000000005 1058.7900000000006 242.96300000000005C1058.6100000000006 242.96300000000005 1058.4800000000007 242.88400000000004 1058.4000000000005 242.81900000000005C1058.2900000000006 242.72200000000004 1058.1300000000006 242.70300000000003 1057.9900000000005 242.76500000000004C1057.8600000000004 242.82800000000003 1057.7700000000004 242.96400000000006 1057.7700000000004 243.11400000000003V247.43700000000004L1053.7100000000005 247.45900000000003C1053.4100000000005 247.46200000000002 1053.1600000000005 247.70700000000002 1053.1600000000005 248.00900000000004V255.22200000000004C1053.1600000000005 255.34600000000003 1051.8000000000006 257.71900000000005 1051.7800000000004 259.17600000000004L1048.9100000000005 272.732C1048.9100000000005 272.77000000000004 1048.9000000000005 272.807 1048.9000000000005 272.846C1048.9000000000005 273.039 1048.9100000000005 273.232 1048.9400000000005 273.427C1046.7300000000005 273.67 1045.0000000000005 275.55 1045.0000000000005 277.827V282.572C1045.0000000000005 285.013 1046.9800000000005 287 1049.4200000000005 287H1092.5800000000006C1095.0200000000007 287 1097.0000000000007 285.013 1097.0000000000007 282.572V277.827C1097.0000000000007 275.672 1095.4500000000007 273.874 1093.4200000000008 273.48ZM1069.98 243.312V238.10000000000002H1087.43V243.312ZM1079.82 244.594V247.266H1077.59V244.594ZM1059.73 243.346C1060.24 243.833 1061.14 243.83 1061.63 243.355C1062.13 243.838 1063.0400000000002 243.837 1063.5400000000002 243.35299999999998C1063.8500000000001 243.64999999999998 1064.3000000000002 243.79399999999998 1064.7300000000002 243.71499999999997V251.426H1058.5400000000002V243.708C1058.9700000000003 243.79 1059.4300000000003 243.643 1059.7300000000002 243.346ZM1054.26 248.555L1057.77 248.536V251.426H1056.71C1056.41 251.426 1056.16 251.671 1056.16 251.975C1056.16 252.28 1056.41 252.525 1056.71 252.525H1066.8C1067.1 252.525 1067.35 252.28 1067.35 251.975C1067.35 251.672 1067.1 251.426 1066.8 251.426H1065.5V248.60399999999998L1088.1 248.559V254.671H1087.7099999999998C1087.3099999999997 254.517 1086.8799999999999 254.42999999999998 1086.4299999999998 254.42999999999998C1086.4299999999998 254.42999999999998 1055.0499999999997 254.51699999999997 1054.6399999999999 254.671H1054.2599999999998ZM1052.87 259.347C1052.8799999999999 259.31 1052.8799999999999 259.272 1052.8799999999999 259.233C1052.8799999999999 257.641 1053.6799999999998 255.95000000000002 1054.84 255.428H1087.4399999999998C1088.6 255.95 1089.4799999999998 257.641 1089.4799999999998 259.233C1089.4799999999998 259.272 1089.4799999999998 259.309 1089.4899999999998 259.347L1092.3599999999997 272.9C1092.3599999999997 273.063 1092.3399999999997 273.229 1092.3199999999997 273.397H1050.0399999999997C1050.0099999999998 273.23 1049.9999999999998 273.06399999999996 1049.9999999999998 272.9ZM1092.58 285.898H1049.4199999999998C1047.59 285.898 1046.1 284.40500000000003 1046.1 282.57000000000005V277.82500000000005C1046.1 275.99000000000007 1047.59 274.49700000000007 1049.4199999999998 274.49700000000007H1049.4399999999998C1049.4799999999998 274.51000000000005 1049.5299999999997 274.52200000000005 1049.58 274.52200000000005H1092.77C1092.78 274.52200000000005 1092.79 274.51900000000006 1092.79 274.51900000000006C1094.52 274.63200000000006 1095.8999999999999 276.0640000000001 1095.8999999999999 277.82500000000005V282.57000000000005C1095.8999999999999 284.40500000000003 1094.4099999999999 285.898 1092.58 285.898ZM1088.3 276.751H1092.9099999999999C1093.12 276.751 1093.29 276.578 1093.29 276.366C1093.29 276.15299999999996 1093.12 275.981 1092.9099999999999 275.981H1088.3C1088.09 275.981 1087.9199999999998 276.153 1087.9199999999998 276.366C1087.9199999999998 276.579 1088.09 276.751 1088.3 276.751ZM1084.52 276.706L1087.21 276.75100000000003H1087.22C1087.43 276.75100000000003 1087.6000000000001 276.583 1087.6000000000001 276.372C1087.6100000000001 276.16 1087.44 275.98400000000004 1087.22 275.981L1084.53 275.936C1084.32 275.96099999999996 1084.1399999999999 276.102 1084.1399999999999 276.31399999999996C1084.1399999999999 276.527 1084.3 276.703 1084.52 276.70599999999996ZM1080.75 276.654H1080.76C1080.97 276.654 1081.14 276.485 1081.14 276.274C1081.14 276.061 1080.97 275.887 1080.76 275.884C1070.23 275.75600000000003 1059.53 275.79 1048.96 275.981C1048.75 275.984 1048.58 276.161 1048.58 276.372C1048.59 276.583 1048.76 276.75100000000003 1048.97 276.75100000000003H1048.98C1059.54 276.56000000000006 1070.23 276.528 1080.75 276.65400000000005ZM1093.27 283.645H1049.33C1049.12 283.645 1048.9399999999998 283.817 1048.9399999999998 284.029C1048.9399999999998 284.243 1049.12 284.415 1049.33 284.415H1093.27C1093.48 284.415 1093.65 284.243 1093.65 284.029C1093.65 283.816 1093.48 283.645 1093.27 283.645ZM1056.85 262.066H1062.61L1062.05 265.80199999999996C1062.01 266.01199999999994 1062.1599999999999 266.20899999999995 1062.37 266.241C1062.3899999999999 266.24399999999997 1062.4099999999999 266.246 1062.4299999999998 266.246C1062.61 266.246 1062.7799999999997 266.109 1062.81 265.919L1063.3899999999999 262.066H1068.06C1068.27 262.066 1068.44 261.89399999999995 1068.44 261.68199999999996C1068.44 261.46899999999994 1068.27 261.29699999999997 1068.06 261.29699999999997H1063.51L1063.89 258.79499999999996C1063.92 258.58399999999995 1063.7800000000002 258.388 1063.5700000000002 258.35599999999994C1063.3600000000001 258.32399999999996 1063.16 258.46799999999996 1063.13 258.67799999999994L1062.73 261.29599999999994H1056.85C1056.6299999999999 261.29599999999994 1056.4599999999998 261.46799999999996 1056.4599999999998 261.6809999999999C1056.4599999999998 261.89399999999995 1056.6299999999999 262.0659999999999 1056.85 262.0659999999999ZM1055.59 268.558H1061.6299999999999L1061.2099999999998 271.3C1061.1799999999998 271.51 1061.3199999999997 271.707 1061.5299999999997 271.73900000000003C1061.5499999999997 271.742 1061.5699999999997 271.74300000000005 1061.5899999999997 271.74300000000005C1061.7799999999997 271.74300000000005 1061.9399999999996 271.607 1061.9699999999998 271.41700000000003L1062.4099999999999 268.55800000000005H1070.5199999999998L1070.5699999999997 271.00500000000005C1070.5699999999997 271.21400000000006 1070.7499999999998 271.38200000000006 1070.9499999999998 271.38200000000006H1070.9599999999998C1071.1699999999998 271.37700000000007 1071.34 271.2010000000001 1071.34 270.9890000000001L1071.29 268.5580000000001H1079.42L1079.8200000000002 271.1750000000001C1079.8500000000001 271.3650000000001 1080.0100000000002 271.5020000000001 1080.2000000000003 271.5020000000001C1080.2200000000003 271.5020000000001 1080.2400000000002 271.5000000000001 1080.2600000000002 271.4970000000001C1080.4700000000003 271.46500000000015 1080.6100000000001 271.27000000000015 1080.5800000000002 271.05900000000014L1080.2 268.55700000000013H1086.2C1086.41 268.55700000000013 1086.5900000000001 268.3850000000001 1086.5900000000001 268.17200000000014C1086.5900000000001 267.9590000000001 1086.41 267.78700000000015 1086.2 267.78700000000015H1080.0800000000002L1079.2100000000003 262.06500000000017H1084.9400000000003C1085.1500000000003 262.06500000000017 1085.3200000000004 261.89300000000014 1085.3200000000004 261.68100000000015C1085.3200000000004 261.46700000000016 1085.1500000000003 261.29500000000013 1084.9400000000003 261.29500000000013H1079.0900000000004L1078.6600000000003 258.4370000000001C1078.6300000000003 258.22700000000015 1078.4200000000003 258.0820000000001 1078.2200000000003 258.1150000000001C1078.0100000000002 258.1470000000001 1077.8700000000003 258.34300000000013 1077.9000000000003 258.55400000000014L1078.3200000000004 261.29500000000013H1071.1500000000003L1071.1000000000004 258.8480000000001C1071.0900000000004 258.63600000000014 1070.9200000000003 258.4300000000001 1070.7100000000003 258.4710000000001C1070.4900000000002 258.47500000000014 1070.3300000000002 258.6520000000001 1070.3300000000002 258.8630000000001L1070.5100000000002 267.7870000000001H1055.5900000000001C1055.3700000000001 267.7870000000001 1055.2 267.9590000000001 1055.2 268.1720000000001C1055.2 268.3850000000001 1055.3700000000001 268.5580000000001 1055.5900000000001 268.5580000000001ZM1078.43 262.066L1079.3 267.787H1071.27L1071.16 262.066ZM1070.01 280.649C1070.01 281.391 1070.62 281.995 1071.36 281.995C1072.1 281.995 1072.6999999999998 281.391 1072.6999999999998 280.649C1072.6999999999998 279.907 1072.1 279.303 1071.36 279.303C1070.62 279.303 1070.01 279.907 1070.01 280.649ZM1071.93 280.649C1071.93 280.967 1071.68 281.226 1071.3600000000001 281.226C1071.0400000000002 281.226 1070.7800000000002 280.967 1070.7800000000002 280.649C1070.7800000000002 280.331 1071.0400000000002 280.072 1071.3600000000001 280.072C1071.68 280.072 1071.93 280.33 1071.93 280.649ZM1059.41 246.049H1063.78C1063.99 246.049 1064.17 245.877 1064.17 245.66400000000002C1064.17 245.45100000000002 1063.99 245.27900000000002 1063.78 245.27900000000002H1059.41C1059.2 245.27900000000002 1059.03 245.45100000000002 1059.03 245.66400000000002C1059.03 245.877 1059.2 246.049 1059.41 246.049ZM1059.47 246.901C1059.24 246.917 1059.08 247.06300000000002 1059.07 247.275C1059.07 247.487 1059.23 247.66400000000002 1059.45 247.671L1060.96 247.71699999999998H1060.97C1061.18 247.71699999999998 1061.3500000000001 247.552 1061.3600000000001 247.344C1061.3600000000001 247.131 1061.2 246.954 1060.98 246.947ZM1063.73 246.948L1062.22 246.90200000000002C1061.98 246.917 1061.83 247.06400000000002 1061.82 247.276C1061.81 247.488 1061.98 247.66500000000002 1062.1899999999998 247.672L1063.7099999999998 247.718H1063.7199999999998C1063.9299999999998 247.718 1064.1 247.552 1064.1 247.344C1064.11 247.132 1063.9399999999998 246.95499999999998 1063.73 246.948ZM1059.34 249.655L1062.62 249.623C1062.83 249.62099999999998 1063 249.44799999999998 1063 249.23499999999999C1063 249.023 1062.83 248.85399999999998 1062.62 248.85399999999998H1062.61L1059.34 248.885C1059.12 248.88799999999998 1058.9499999999998 249.06099999999998 1058.9599999999998 249.274C1058.9599999999998 249.486 1059.1299999999999 249.655 1059.34 249.655ZM1072.38 253.081H1085.0700000000002C1085.9800000000002 253.081 1086.7200000000003 252.34199999999998 1086.7200000000003 251.434C1086.7200000000003 250.526 1085.9800000000002 249.787 1085.0700000000002 249.787H1072.38C1071.47 249.787 1070.73 250.526 1070.73 251.434C1070.73 252.34199999999998 1071.47 253.081 1072.38 253.081ZM1072.38 250.556H1085.0700000000002C1085.5600000000002 250.556 1085.9500000000003 250.949 1085.9500000000003 251.43300000000002C1085.9500000000003 251.91700000000003 1085.5600000000002 252.311 1085.0700000000002 252.311H1072.38C1071.9 252.311 1071.5 251.917 1071.5 251.43300000000002C1071.5 250.949 1071.9 250.556 1072.38 250.556ZM1083.08 241.854H1071.6399999999999C1071.4599999999998 241.854 1071.32 241.71200000000002 1071.32 241.53900000000002V239.609C1071.32 239.39600000000002 1071.1499999999999 239.22400000000002 1070.9399999999998 239.22400000000002C1070.7299999999998 239.22400000000002 1070.5499999999997 239.39600000000002 1070.5499999999997 239.609V241.53900000000002C1070.5499999999997 242.13600000000002 1071.0399999999997 242.62300000000002 1071.6399999999996 242.62300000000002H1083.0799999999997C1083.2899999999997 242.62300000000002 1083.4699999999998 242.45100000000002 1083.4699999999998 242.23800000000003C1083.4699999999998 242.02600000000004 1083.2899999999997 241.85400000000004 1083.0799999999997 241.85400000000004ZM1085.55 238.524H1072.56C1072.35 238.524 1072.1799999999998 238.696 1072.1799999999998 238.909C1072.1799999999998 239.12199999999999 1072.35 239.29399999999998 1072.56 239.29399999999998H1085.55C1085.72 239.29399999999998 1085.86 239.43599999999998 1085.86 239.60899999999998V241.539C1085.86 241.713 1085.7199999999998 241.855 1085.55 241.855C1085.33 241.855 1085.1599999999999 242.027 1085.1599999999999 242.23999999999998C1085.1599999999999 242.45199999999997 1085.33 242.62399999999997 1085.55 242.62399999999997C1086.1399999999999 242.62399999999997 1086.6299999999999 242.13799999999998 1086.6299999999999 241.53999999999996V239.60999999999996C1086.6299999999999 239.01099999999997 1086.1399999999999 238.52399999999994 1085.55 238.52399999999994Z " fill="#000000" fill-opacity="1" transform="matrix(1,0,0,1,-1045,-237)"></path><path id="SvgjsPath1096" d="M1093.42 273.48C1093.44 273.267 1093.46 273.055 1093.46 272.845C1093.46 272.80600000000004 1093.45 272.769 1093.45 272.73100000000005L1090.57 259.17400000000004C1090.56 257.71700000000004 1089.2 255.34400000000002 1089.2 255.22100000000003V248.00800000000004C1089.2 247.86100000000005 1089.14 247.72300000000004 1089.03 247.61800000000005C1088.93 247.51600000000005 1088.79 247.45800000000006 1088.6499999999999 247.45800000000006H1088.6399999999999L1080.9199999999998 247.47300000000004V244.41000000000005H1087.9799999999998C1088.2799999999997 244.41000000000005 1088.5299999999997 244.16500000000005 1088.5299999999997 243.86100000000005V237.55000000000004C1088.5299999999997 237.24600000000004 1088.2799999999997 237.00000000000003 1087.9799999999998 237.00000000000003H1069.4299999999998C1069.1299999999999 237.00000000000003 1068.8799999999999 237.24600000000004 1068.8799999999999 237.55000000000004V243.86100000000005C1068.8799999999999 244.16500000000005 1069.1299999999999 244.41000000000005 1069.4299999999998 244.41000000000005H1076.4899999999998V247.48100000000005L1065.4999999999998 247.50300000000004V243.11900000000003C1065.4999999999998 242.97000000000003 1065.4099999999999 242.83500000000004 1065.2799999999997 242.77100000000002C1065.1399999999996 242.70800000000003 1064.9799999999998 242.728 1064.8699999999997 242.824C1064.7899999999997 242.89000000000001 1064.6599999999996 242.96900000000002 1064.4799999999996 242.96900000000002C1064.2099999999996 242.96900000000002 1063.9799999999996 242.79200000000003 1063.8999999999996 242.52900000000002C1063.8499999999997 242.36500000000004 1063.6999999999996 242.25200000000004 1063.5299999999997 242.25200000000004C1063.3599999999997 242.25300000000004 1063.2099999999998 242.36600000000004 1063.1599999999999 242.53100000000003C1063.09 242.79500000000004 1062.85 242.97300000000004 1062.58 242.97300000000004C1062.32 242.97300000000004 1062.08 242.79100000000005 1062 242.53000000000003C1061.96 242.36500000000004 1061.81 242.25200000000004 1061.64 242.25200000000004H1061.63C1061.46 242.25200000000004 1061.3100000000002 242.36300000000003 1061.2700000000002 242.52700000000004C1061.1900000000003 242.79000000000005 1060.9500000000003 242.96600000000004 1060.6900000000003 242.96600000000004C1060.4200000000003 242.96600000000004 1060.1800000000003 242.78400000000005 1060.1000000000004 242.52400000000003C1060.0600000000004 242.36000000000004 1059.9100000000003 242.24700000000004 1059.7400000000005 242.24700000000004C1059.5600000000004 242.24700000000004 1059.4100000000005 242.35900000000004 1059.3700000000006 242.52300000000005C1059.2900000000006 242.78600000000006 1059.0600000000006 242.96300000000005 1058.7900000000006 242.96300000000005C1058.6100000000006 242.96300000000005 1058.4800000000007 242.88400000000004 1058.4000000000005 242.81900000000005C1058.2900000000006 242.72200000000004 1058.1300000000006 242.70300000000003 1057.9900000000005 242.76500000000004C1057.8600000000004 242.82800000000003 1057.7700000000004 242.96400000000006 1057.7700000000004 243.11400000000003V247.43700000000004L1053.7100000000005 247.45900000000003C1053.4100000000005 247.46200000000002 1053.1600000000005 247.70700000000002 1053.1600000000005 248.00900000000004V255.22200000000004C1053.1600000000005 255.34600000000003 1051.8000000000006 257.71900000000005 1051.7800000000004 259.17600000000004L1048.9100000000005 272.732C1048.9100000000005 272.77000000000004 1048.9000000000005 272.807 1048.9000000000005 272.846C1048.9000000000005 273.039 1048.9100000000005 273.232 1048.9400000000005 273.427C1046.7300000000005 273.67 1045.0000000000005 275.55 1045.0000000000005 277.827V282.572C1045.0000000000005 285.013 1046.9800000000005 287 1049.4200000000005 287H1092.5800000000006C1095.0200000000007 287 1097.0000000000007 285.013 1097.0000000000007 282.572V277.827C1097.0000000000007 275.672 1095.4500000000007 273.874 1093.4200000000008 273.48ZM1069.98 243.312V238.10000000000002H1087.43V243.312ZM1079.82 244.594V247.266H1077.59V244.594ZM1059.73 243.346C1060.24 243.833 1061.14 243.83 1061.63 243.355C1062.13 243.838 1063.0400000000002 243.837 1063.5400000000002 243.35299999999998C1063.8500000000001 243.64999999999998 1064.3000000000002 243.79399999999998 1064.7300000000002 243.71499999999997V251.426H1058.5400000000002V243.708C1058.9700000000003 243.79 1059.4300000000003 243.643 1059.7300000000002 243.346ZM1054.26 248.555L1057.77 248.536V251.426H1056.71C1056.41 251.426 1056.16 251.671 1056.16 251.975C1056.16 252.28 1056.41 252.525 1056.71 252.525H1066.8C1067.1 252.525 1067.35 252.28 1067.35 251.975C1067.35 251.672 1067.1 251.426 1066.8 251.426H1065.5V248.60399999999998L1088.1 248.559V254.671H1087.7099999999998C1087.3099999999997 254.517 1086.8799999999999 254.42999999999998 1086.4299999999998 254.42999999999998C1086.4299999999998 254.42999999999998 1055.0499999999997 254.51699999999997 1054.6399999999999 254.671H1054.2599999999998ZM1052.87 259.347C1052.8799999999999 259.31 1052.8799999999999 259.272 1052.8799999999999 259.233C1052.8799999999999 257.641 1053.6799999999998 255.95000000000002 1054.84 255.428H1087.4399999999998C1088.6 255.95 1089.4799999999998 257.641 1089.4799999999998 259.233C1089.4799999999998 259.272 1089.4799999999998 259.309 1089.4899999999998 259.347L1092.3599999999997 272.9C1092.3599999999997 273.063 1092.3399999999997 273.229 1092.3199999999997 273.397H1050.0399999999997C1050.0099999999998 273.23 1049.9999999999998 273.06399999999996 1049.9999999999998 272.9ZM1092.58 285.898H1049.4199999999998C1047.59 285.898 1046.1 284.40500000000003 1046.1 282.57000000000005V277.82500000000005C1046.1 275.99000000000007 1047.59 274.49700000000007 1049.4199999999998 274.49700000000007H1049.4399999999998C1049.4799999999998 274.51000000000005 1049.5299999999997 274.52200000000005 1049.58 274.52200000000005H1092.77C1092.78 274.52200000000005 1092.79 274.51900000000006 1092.79 274.51900000000006C1094.52 274.63200000000006 1095.8999999999999 276.0640000000001 1095.8999999999999 277.82500000000005V282.57000000000005C1095.8999999999999 284.40500000000003 1094.4099999999999 285.898 1092.58 285.898ZM1088.3 276.751H1092.9099999999999C1093.12 276.751 1093.29 276.578 1093.29 276.366C1093.29 276.15299999999996 1093.12 275.981 1092.9099999999999 275.981H1088.3C1088.09 275.981 1087.9199999999998 276.153 1087.9199999999998 276.366C1087.9199999999998 276.579 1088.09 276.751 1088.3 276.751ZM1084.52 276.706L1087.21 276.75100000000003H1087.22C1087.43 276.75100000000003 1087.6000000000001 276.583 1087.6000000000001 276.372C1087.6100000000001 276.16 1087.44 275.98400000000004 1087.22 275.981L1084.53 275.936C1084.32 275.96099999999996 1084.1399999999999 276.102 1084.1399999999999 276.31399999999996C1084.1399999999999 276.527 1084.3 276.703 1084.52 276.70599999999996ZM1080.75 276.654H1080.76C1080.97 276.654 1081.14 276.485 1081.14 276.274C1081.14 276.061 1080.97 275.887 1080.76 275.884C1070.23 275.75600000000003 1059.53 275.79 1048.96 275.981C1048.75 275.984 1048.58 276.161 1048.58 276.372C1048.59 276.583 1048.76 276.75100000000003 1048.97 276.75100000000003H1048.98C1059.54 276.56000000000006 1070.23 276.528 1080.75 276.65400000000005ZM1093.27 283.645H1049.33C1049.12 283.645 1048.9399999999998 283.817 1048.9399999999998 284.029C1048.9399999999998 284.243 1049.12 284.415 1049.33 284.415H1093.27C1093.48 284.415 1093.65 284.243 1093.65 284.029C1093.65 283.816 1093.48 283.645 1093.27 283.645ZM1056.85 262.066H1062.61L1062.05 265.80199999999996C1062.01 266.01199999999994 1062.1599999999999 266.20899999999995 1062.37 266.241C1062.3899999999999 266.24399999999997 1062.4099999999999 266.246 1062.4299999999998 266.246C1062.61 266.246 1062.7799999999997 266.109 1062.81 265.919L1063.3899999999999 262.066H1068.06C1068.27 262.066 1068.44 261.89399999999995 1068.44 261.68199999999996C1068.44 261.46899999999994 1068.27 261.29699999999997 1068.06 261.29699999999997H1063.51L1063.89 258.79499999999996C1063.92 258.58399999999995 1063.7800000000002 258.388 1063.5700000000002 258.35599999999994C1063.3600000000001 258.32399999999996 1063.16 258.46799999999996 1063.13 258.67799999999994L1062.73 261.29599999999994H1056.85C1056.6299999999999 261.29599999999994 1056.4599999999998 261.46799999999996 1056.4599999999998 261.6809999999999C1056.4599999999998 261.89399999999995 1056.6299999999999 262.0659999999999 1056.85 262.0659999999999ZM1055.59 268.558H1061.6299999999999L1061.2099999999998 271.3C1061.1799999999998 271.51 1061.3199999999997 271.707 1061.5299999999997 271.73900000000003C1061.5499999999997 271.742 1061.5699999999997 271.74300000000005 1061.5899999999997 271.74300000000005C1061.7799999999997 271.74300000000005 1061.9399999999996 271.607 1061.9699999999998 271.41700000000003L1062.4099999999999 268.55800000000005H1070.5199999999998L1070.5699999999997 271.00500000000005C1070.5699999999997 271.21400000000006 1070.7499999999998 271.38200000000006 1070.9499999999998 271.38200000000006H1070.9599999999998C1071.1699999999998 271.37700000000007 1071.34 271.2010000000001 1071.34 270.9890000000001L1071.29 268.5580000000001H1079.42L1079.8200000000002 271.1750000000001C1079.8500000000001 271.3650000000001 1080.0100000000002 271.5020000000001 1080.2000000000003 271.5020000000001C1080.2200000000003 271.5020000000001 1080.2400000000002 271.5000000000001 1080.2600000000002 271.4970000000001C1080.4700000000003 271.46500000000015 1080.6100000000001 271.27000000000015 1080.5800000000002 271.05900000000014L1080.2 268.55700000000013H1086.2C1086.41 268.55700000000013 1086.5900000000001 268.3850000000001 1086.5900000000001 268.17200000000014C1086.5900000000001 267.9590000000001 1086.41 267.78700000000015 1086.2 267.78700000000015H1080.0800000000002L1079.2100000000003 262.06500000000017H1084.9400000000003C1085.1500000000003 262.06500000000017 1085.3200000000004 261.89300000000014 1085.3200000000004 261.68100000000015C1085.3200000000004 261.46700000000016 1085.1500000000003 261.29500000000013 1084.9400000000003 261.29500000000013H1079.0900000000004L1078.6600000000003 258.4370000000001C1078.6300000000003 258.22700000000015 1078.4200000000003 258.0820000000001 1078.2200000000003 258.1150000000001C1078.0100000000002 258.1470000000001 1077.8700000000003 258.34300000000013 1077.9000000000003 258.55400000000014L1078.3200000000004 261.29500000000013H1071.1500000000003L1071.1000000000004 258.8480000000001C1071.0900000000004 258.63600000000014 1070.9200000000003 258.4300000000001 1070.7100000000003 258.4710000000001C1070.4900000000002 258.47500000000014 1070.3300000000002 258.6520000000001 1070.3300000000002 258.8630000000001L1070.5100000000002 267.7870000000001H1055.5900000000001C1055.3700000000001 267.7870000000001 1055.2 267.9590000000001 1055.2 268.1720000000001C1055.2 268.3850000000001 1055.3700000000001 268.5580000000001 1055.5900000000001 268.5580000000001ZM1078.43 262.066L1079.3 267.787H1071.27L1071.16 262.066ZM1070.01 280.649C1070.01 281.391 1070.62 281.995 1071.36 281.995C1072.1 281.995 1072.6999999999998 281.391 1072.6999999999998 280.649C1072.6999999999998 279.907 1072.1 279.303 1071.36 279.303C1070.62 279.303 1070.01 279.907 1070.01 280.649ZM1071.93 280.649C1071.93 280.967 1071.68 281.226 1071.3600000000001 281.226C1071.0400000000002 281.226 1070.7800000000002 280.967 1070.7800000000002 280.649C1070.7800000000002 280.331 1071.0400000000002 280.072 1071.3600000000001 280.072C1071.68 280.072 1071.93 280.33 1071.93 280.649ZM1059.41 246.049H1063.78C1063.99 246.049 1064.17 245.877 1064.17 245.66400000000002C1064.17 245.45100000000002 1063.99 245.27900000000002 1063.78 245.27900000000002H1059.41C1059.2 245.27900000000002 1059.03 245.45100000000002 1059.03 245.66400000000002C1059.03 245.877 1059.2 246.049 1059.41 246.049ZM1059.47 246.901C1059.24 246.917 1059.08 247.06300000000002 1059.07 247.275C1059.07 247.487 1059.23 247.66400000000002 1059.45 247.671L1060.96 247.71699999999998H1060.97C1061.18 247.71699999999998 1061.3500000000001 247.552 1061.3600000000001 247.344C1061.3600000000001 247.131 1061.2 246.954 1060.98 246.947ZM1063.73 246.948L1062.22 246.90200000000002C1061.98 246.917 1061.83 247.06400000000002 1061.82 247.276C1061.81 247.488 1061.98 247.66500000000002 1062.1899999999998 247.672L1063.7099999999998 247.718H1063.7199999999998C1063.9299999999998 247.718 1064.1 247.552 1064.1 247.344C1064.11 247.132 1063.9399999999998 246.95499999999998 1063.73 246.948ZM1059.34 249.655L1062.62 249.623C1062.83 249.62099999999998 1063 249.44799999999998 1063 249.23499999999999C1063 249.023 1062.83 248.85399999999998 1062.62 248.85399999999998H1062.61L1059.34 248.885C1059.12 248.88799999999998 1058.9499999999998 249.06099999999998 1058.9599999999998 249.274C1058.9599999999998 249.486 1059.1299999999999 249.655 1059.34 249.655ZM1072.38 253.081H1085.0700000000002C1085.9800000000002 253.081 1086.7200000000003 252.34199999999998 1086.7200000000003 251.434C1086.7200000000003 250.526 1085.9800000000002 249.787 1085.0700000000002 249.787H1072.38C1071.47 249.787 1070.73 250.526 1070.73 251.434C1070.73 252.34199999999998 1071.47 253.081 1072.38 253.081ZM1072.38 250.556H1085.0700000000002C1085.5600000000002 250.556 1085.9500000000003 250.949 1085.9500000000003 251.43300000000002C1085.9500000000003 251.91700000000003 1085.5600000000002 252.311 1085.0700000000002 252.311H1072.38C1071.9 252.311 1071.5 251.917 1071.5 251.43300000000002C1071.5 250.949 1071.9 250.556 1072.38 250.556ZM1083.08 241.854H1071.6399999999999C1071.4599999999998 241.854 1071.32 241.71200000000002 1071.32 241.53900000000002V239.609C1071.32 239.39600000000002 1071.1499999999999 239.22400000000002 1070.9399999999998 239.22400000000002C1070.7299999999998 239.22400000000002 1070.5499999999997 239.39600000000002 1070.5499999999997 239.609V241.53900000000002C1070.5499999999997 242.13600000000002 1071.0399999999997 242.62300000000002 1071.6399999999996 242.62300000000002H1083.0799999999997C1083.2899999999997 242.62300000000002 1083.4699999999998 242.45100000000002 1083.4699999999998 242.23800000000003C1083.4699999999998 242.02600000000004 1083.2899999999997 241.85400000000004 1083.0799999999997 241.85400000000004ZM1085.55 238.524H1072.56C1072.35 238.524 1072.1799999999998 238.696 1072.1799999999998 238.909C1072.1799999999998 239.12199999999999 1072.35 239.29399999999998 1072.56 239.29399999999998H1085.55C1085.72 239.29399999999998 1085.86 239.43599999999998 1085.86 239.60899999999998V241.539C1085.86 241.713 1085.7199999999998 241.855 1085.55 241.855C1085.33 241.855 1085.1599999999999 242.027 1085.1599999999999 242.23999999999998C1085.1599999999999 242.45199999999997 1085.33 242.62399999999997 1085.55 242.62399999999997C1086.1399999999999 242.62399999999997 1086.6299999999999 242.13799999999998 1086.6299999999999 241.53999999999996V239.60999999999996C1086.6299999999999 239.01099999999997 1086.1399999999999 238.52399999999994 1085.55 238.52399999999994Z " fill="url(#SvgjsLinearGradient1097)" transform="matrix(1,0,0,1,-1045,-237)"></path></svg>