<svg id="SvgjsSvg1141" xmlns="http://www.w3.org/2000/svg" version="1.1" xmlns:xlink="http://www.w3.org/1999/xlink" xmlns:svgjs="http://svgjs.com/svgjs" width="50" height="51" viewBox="0 0 50 51"><title>Shape 1</title><desc>Created with Avocode.</desc><defs id="SvgjsDefs1142"><linearGradient id="SvgjsLinearGradient1145" gradientUnits="userSpaceOnUse" x1="533.9829165741489" y1="238.24726375" x2="498.01708342585107" y2="287.74998625"><stop id="SvgjsStop1146" stop-opacity="1" stop-color="#0fa0d9" offset="0"></stop><stop id="SvgjsStop1147" stop-opacity="1" stop-color="#0fa0d9" offset="0.45"></stop><stop id="SvgjsStop1148" stop-opacity="1" stop-color="#0ecebf" offset="1"></stop></linearGradient></defs><path id="SvgjsPath1143" d="M535.921 281.103H525.245C527.964 280.033 530.044 278.512 531.63 276.669C538.101 275.702 541 270.43399999999997 541 265.585C541 262.143 539.053 259.269 536.533 258.767C536.534 258.74 536.534 258.714 536.534 258.688C536.534 258.257 536.359 257.82599999999996 536.009 257.481C535.658 257.137 535.22 256.964 534.783 256.964H494.50300000000004C494.06500000000005 256.964 493.62700000000007 257.137 493.27700000000004 257.481C492.92600000000004 257.826 492.75100000000003 258.257 492.75100000000003 258.688C492.819 267.96 494.45900000000006 277.335 504.04100000000005 281.103H493.27700000000004C492.05100000000004 281.103 491.00000000000006 282.051 491.00000000000006 283.344C491.00000000000006 284.379 491.70000000000005 285.155 492.92600000000004 285.413L504.047 286.189C504.31 286.189 504.57300000000004 286.362 504.66 286.62C505.098 287.483 505.97400000000005 288 506.937 288H521.473C522.4359999999999 288 523.312 287.483 523.6619999999999 286.62C523.7499999999999 286.362 524.012 286.189 524.275 286.189L536.184 285.413H536.271C537.497 285.15500000000003 538.198 284.379 538.198 283.344C538.198 282.137 537.235 281.103 535.9209999999999 281.103ZM536.534 260.585C538.023 261.102 539.161 263.171 539.161 265.585C539.161 268.94399999999996 537.587 272.99199999999996 533.217 274.46099999999996C533.29 274.33899999999994 533.362 274.215 533.432 274.09099999999995C535.864 269.93799999999993 536.364 264.93699999999995 536.534 260.5849999999999ZM494.503 258.688H534.783C534.695 270.327 532.1560000000001 281.103 514.643 281.103C497.13000000000005 281.103 494.59000000000003 270.327 494.50300000000004 258.688ZM536.096 283.689L524.362 284.46500000000003C523.487 284.55100000000004 522.699 285.06800000000004 522.261 285.84400000000005C522.086 286.10300000000007 521.823 286.27600000000007 521.56 286.27600000000007H506.93699999999995C506.674 286.27600000000007 506.41099999999994 286.10300000000007 506.23599999999993 285.84400000000005C505.7989999999999 285.06800000000004 505.00999999999993 284.55100000000004 504.13499999999993 284.46500000000003L493.1889999999999 283.689C492.7509999999999 283.603 492.7509999999999 283.43100000000004 492.7509999999999 283.344C492.7509999999999 283.086 493.0139999999999 282.827 493.27699999999993 282.827H536.0089999999999C536.2709999999998 282.827 536.5339999999999 283.086 536.5339999999999 283.344C536.5339999999999 283.431 536.5339999999999 283.603 536.0959999999999 283.689ZM514.03 245.153C512.716 246.446 512.016 247.739 512.016 249.119C512.016 250.498 512.716 251.877 514.03 253.257C514.2049999999999 253.429 514.38 253.516 514.643 253.516C514.905 253.516 515.08 253.429 515.2560000000001 253.257C515.6060000000001 252.912 515.6060000000001 252.395 515.2560000000001 252.05C514.292 251.01500000000001 513.767 250.067 513.767 249.119C513.767 248.17 514.292 247.222 515.2560000000001 246.36C516.5690000000001 245.15300000000002 517.2700000000001 243.774 517.2700000000001 242.394C517.2700000000001 241.01500000000001 516.657 239.549 515.2560000000001 238.256C514.9050000000001 237.912 514.3800000000001 237.912 514.0300000000001 238.256C513.6800000000001 238.601 513.6800000000001 239.118 514.0300000000001 239.463C514.993 240.498 515.5180000000001 241.446 515.5180000000001 242.394C515.5180000000001 243.34300000000002 514.9930000000002 244.291 514.0300000000001 245.153ZM521.648 249.119C521.648 250.498 522.3480000000001 251.877 523.662 253.257C523.837 253.429 524.0120000000001 253.516 524.2750000000001 253.516C524.45 253.516 524.7130000000001 253.429 524.8000000000001 253.257C525.1500000000001 252.912 525.1500000000001 252.395 524.8000000000001 252.05C523.8370000000001 251.01500000000001 523.312 250.067 523.312 249.119C523.312 248.17 523.837 247.222 524.8000000000001 246.36C526.201 245.15300000000002 526.902 243.774 526.902 242.394C526.902 240.929 526.289 239.549 524.888 238.256C524.538 237.911 524.0120000000001 237.911 523.662 238.256C523.312 238.601 523.312 239.118 523.662 239.463C524.625 240.498 525.1500000000001 241.446 525.1500000000001 242.394C525.1500000000001 243.34300000000002 524.6250000000001 244.205 523.662 245.153C522.3480000000001 246.446 521.648 247.739 521.648 249.119ZM503.259 249.119C503.259 250.498 503.96000000000004 251.877 505.273 253.257C505.44800000000004 253.429 505.62300000000005 253.516 505.886 253.516C506.06100000000004 253.516 506.324 253.429 506.411 253.257C506.762 252.912 506.762 252.395 506.411 252.05C505.448 251.01500000000001 504.923 250.067 504.923 249.119C504.923 248.17 505.448 247.222 506.411 246.36C507.813 245.15300000000002 508.513 243.774 508.513 242.394C508.513 240.929 507.9 239.549 506.49899999999997 238.256C506.14899999999994 237.911 505.623 237.911 505.27299999999997 238.256C504.92299999999994 238.601 504.92299999999994 239.118 505.27299999999997 239.463C506.236 240.498 506.76199999999994 241.446 506.76199999999994 242.394C506.76199999999994 243.34300000000002 506.23599999999993 244.205 505.27299999999997 245.153C503.96 246.446 503.25899999999996 247.739 503.25899999999996 249.119ZM509.564 276.792C503.34700000000004 275.758 500.194 272.30899999999997 498.88100000000003 265.412C498.793 264.981 498.26800000000003 264.637 497.83000000000004 264.72299999999996C497.39200000000005 264.80899999999997 497.04200000000003 265.32599999999996 497.13000000000005 265.75699999999995C498.53100000000006 273.42999999999995 502.29600000000005 277.30999999999995 509.21400000000006 278.51699999999994C509.30100000000004 278.51699999999994 509.30100000000004 278.51699999999994 509.38900000000007 278.51699999999994C509.82700000000006 278.51699999999994 510.1770000000001 278.2579999999999 510.26400000000007 277.82699999999994C510.3520000000001 277.30999999999995 510.00200000000007 276.87799999999993 509.5640000000001 276.7919999999999Z " fill="#000000" fill-opacity="1" transform="matrix(1,0,0,1,-491,-237)"></path><path id="SvgjsPath1144" d="M535.921 281.103H525.245C527.964 280.033 530.044 278.512 531.63 276.669C538.101 275.702 541 270.43399999999997 541 265.585C541 262.143 539.053 259.269 536.533 258.767C536.534 258.74 536.534 258.714 536.534 258.688C536.534 258.257 536.359 257.82599999999996 536.009 257.481C535.658 257.137 535.22 256.964 534.783 256.964H494.50300000000004C494.06500000000005 256.964 493.62700000000007 257.137 493.27700000000004 257.481C492.92600000000004 257.826 492.75100000000003 258.257 492.75100000000003 258.688C492.819 267.96 494.45900000000006 277.335 504.04100000000005 281.103H493.27700000000004C492.05100000000004 281.103 491.00000000000006 282.051 491.00000000000006 283.344C491.00000000000006 284.379 491.70000000000005 285.155 492.92600000000004 285.413L504.047 286.189C504.31 286.189 504.57300000000004 286.362 504.66 286.62C505.098 287.483 505.97400000000005 288 506.937 288H521.473C522.4359999999999 288 523.312 287.483 523.6619999999999 286.62C523.7499999999999 286.362 524.012 286.189 524.275 286.189L536.184 285.413H536.271C537.497 285.15500000000003 538.198 284.379 538.198 283.344C538.198 282.137 537.235 281.103 535.9209999999999 281.103ZM536.534 260.585C538.023 261.102 539.161 263.171 539.161 265.585C539.161 268.94399999999996 537.587 272.99199999999996 533.217 274.46099999999996C533.29 274.33899999999994 533.362 274.215 533.432 274.09099999999995C535.864 269.93799999999993 536.364 264.93699999999995 536.534 260.5849999999999ZM494.503 258.688H534.783C534.695 270.327 532.1560000000001 281.103 514.643 281.103C497.13000000000005 281.103 494.59000000000003 270.327 494.50300000000004 258.688ZM536.096 283.689L524.362 284.46500000000003C523.487 284.55100000000004 522.699 285.06800000000004 522.261 285.84400000000005C522.086 286.10300000000007 521.823 286.27600000000007 521.56 286.27600000000007H506.93699999999995C506.674 286.27600000000007 506.41099999999994 286.10300000000007 506.23599999999993 285.84400000000005C505.7989999999999 285.06800000000004 505.00999999999993 284.55100000000004 504.13499999999993 284.46500000000003L493.1889999999999 283.689C492.7509999999999 283.603 492.7509999999999 283.43100000000004 492.7509999999999 283.344C492.7509999999999 283.086 493.0139999999999 282.827 493.27699999999993 282.827H536.0089999999999C536.2709999999998 282.827 536.5339999999999 283.086 536.5339999999999 283.344C536.5339999999999 283.431 536.5339999999999 283.603 536.0959999999999 283.689ZM514.03 245.153C512.716 246.446 512.016 247.739 512.016 249.119C512.016 250.498 512.716 251.877 514.03 253.257C514.2049999999999 253.429 514.38 253.516 514.643 253.516C514.905 253.516 515.08 253.429 515.2560000000001 253.257C515.6060000000001 252.912 515.6060000000001 252.395 515.2560000000001 252.05C514.292 251.01500000000001 513.767 250.067 513.767 249.119C513.767 248.17 514.292 247.222 515.2560000000001 246.36C516.5690000000001 245.15300000000002 517.2700000000001 243.774 517.2700000000001 242.394C517.2700000000001 241.01500000000001 516.657 239.549 515.2560000000001 238.256C514.9050000000001 237.912 514.3800000000001 237.912 514.0300000000001 238.256C513.6800000000001 238.601 513.6800000000001 239.118 514.0300000000001 239.463C514.993 240.498 515.5180000000001 241.446 515.5180000000001 242.394C515.5180000000001 243.34300000000002 514.9930000000002 244.291 514.0300000000001 245.153ZM521.648 249.119C521.648 250.498 522.3480000000001 251.877 523.662 253.257C523.837 253.429 524.0120000000001 253.516 524.2750000000001 253.516C524.45 253.516 524.7130000000001 253.429 524.8000000000001 253.257C525.1500000000001 252.912 525.1500000000001 252.395 524.8000000000001 252.05C523.8370000000001 251.01500000000001 523.312 250.067 523.312 249.119C523.312 248.17 523.837 247.222 524.8000000000001 246.36C526.201 245.15300000000002 526.902 243.774 526.902 242.394C526.902 240.929 526.289 239.549 524.888 238.256C524.538 237.911 524.0120000000001 237.911 523.662 238.256C523.312 238.601 523.312 239.118 523.662 239.463C524.625 240.498 525.1500000000001 241.446 525.1500000000001 242.394C525.1500000000001 243.34300000000002 524.6250000000001 244.205 523.662 245.153C522.3480000000001 246.446 521.648 247.739 521.648 249.119ZM503.259 249.119C503.259 250.498 503.96000000000004 251.877 505.273 253.257C505.44800000000004 253.429 505.62300000000005 253.516 505.886 253.516C506.06100000000004 253.516 506.324 253.429 506.411 253.257C506.762 252.912 506.762 252.395 506.411 252.05C505.448 251.01500000000001 504.923 250.067 504.923 249.119C504.923 248.17 505.448 247.222 506.411 246.36C507.813 245.15300000000002 508.513 243.774 508.513 242.394C508.513 240.929 507.9 239.549 506.49899999999997 238.256C506.14899999999994 237.911 505.623 237.911 505.27299999999997 238.256C504.92299999999994 238.601 504.92299999999994 239.118 505.27299999999997 239.463C506.236 240.498 506.76199999999994 241.446 506.76199999999994 242.394C506.76199999999994 243.34300000000002 506.23599999999993 244.205 505.27299999999997 245.153C503.96 246.446 503.25899999999996 247.739 503.25899999999996 249.119ZM509.564 276.792C503.34700000000004 275.758 500.194 272.30899999999997 498.88100000000003 265.412C498.793 264.981 498.26800000000003 264.637 497.83000000000004 264.72299999999996C497.39200000000005 264.80899999999997 497.04200000000003 265.32599999999996 497.13000000000005 265.75699999999995C498.53100000000006 273.42999999999995 502.29600000000005 277.30999999999995 509.21400000000006 278.51699999999994C509.30100000000004 278.51699999999994 509.30100000000004 278.51699999999994 509.38900000000007 278.51699999999994C509.82700000000006 278.51699999999994 510.1770000000001 278.2579999999999 510.26400000000007 277.82699999999994C510.3520000000001 277.30999999999995 510.00200000000007 276.87799999999993 509.5640000000001 276.7919999999999Z " fill="url(#SvgjsLinearGradient1145)" transform="matrix(1,0,0,1,-491,-237)"></path></svg>