<svg id="SvgjsSvg1101" xmlns="http://www.w3.org/2000/svg" version="1.1" xmlns:xlink="http://www.w3.org/1999/xlink" xmlns:svgjs="http://svgjs.com/svgjs" width="44" height="50" viewBox="0 0 44 50"><title>Shape 1</title><desc>Created with Avocode.</desc><defs id="SvgjsDefs1102"><linearGradient id="SvgjsLinearGradient1105" gradientUnits="userSpaceOnUse" x1="1200.9819275681325" y1="237.25" x2="1165.0180724318668" y2="286.75"><stop id="SvgjsStop1106" stop-opacity="1" stop-color="#3d3daf" offset="0"></stop><stop id="SvgjsStop1107" stop-opacity="1" stop-color="#3d3daf" offset="0.45"></stop><stop id="SvgjsStop1108" stop-opacity="1" stop-color="#c741ba" offset="1"></stop></linearGradient></defs><path id="SvgjsPath1103" d="M1196.27 277.887C1196.45 277.741 1196.56 277.517 1196.56 277.266C1196.56 277.259 1196.56 240.98900000000003 1196.56 240.98900000000003C1196.56 240.54900000000004 1196.21 240.19100000000003 1195.77 240.19100000000003H1172.8899999999999C1172.33 238.34500000000003 1170.62 237.00000000000003 1168.61 237.00000000000003C1166.6299999999999 237.00000000000003 1164.8999999999999 238.33100000000002 1164.32 240.19100000000003H1161.79C1161.35 240.19100000000003 1161 240.54900000000004 1161 240.98900000000003V286.20200000000006C1161 286.64300000000003 1161.35 287.00000000000006 1161.79 287.00000000000006H1186.9099999999999C1187.1599999999999 287.00000000000006 1187.3899999999999 286.88400000000007 1187.5299999999997 286.70300000000003ZM1187.71 284.269V278.064H1193.8600000000001ZM1168.61 238.595C1169.7299999999998 238.595 1170.7099999999998 239.245 1171.1899999999998 240.191H1166.0299999999997C1166.5099999999998 239.239 1167.4999999999998 238.595 1168.6099999999997 238.595ZM1162.58 241.787H1171.51V247.372C1171.51 248.10500000000002 1170.92 248.70200000000003 1170.19 248.70200000000003C1169.46 248.70200000000003 1168.8700000000001 248.10500000000002 1168.8700000000001 247.372V244.181C1168.8700000000001 243.74 1168.5200000000002 243.383 1168.0800000000002 243.383C1167.64 243.383 1167.2900000000002 243.74 1167.2900000000002 244.181V247.372C1167.2900000000002 248.985 1168.5900000000001 250.298 1170.1900000000003 250.298C1171.7900000000002 250.298 1173.0900000000004 248.985 1173.0900000000004 247.372V241.787H1194.9800000000005V276.468H1186.9100000000005C1186.4800000000005 276.468 1186.1200000000006 276.82500000000005 1186.1200000000006 277.266V285.404H1162.5800000000006ZM1189.45 273.755C1189.88 273.755 1190.24 273.39799999999997 1190.24 272.957C1190.24 272.517 1189.88 272.15999999999997 1189.45 272.15999999999997H1168.1200000000001C1167.68 272.15999999999997 1167.3300000000002 272.517 1167.3300000000002 272.957C1167.3300000000002 273.39799999999997 1167.68 273.755 1168.1200000000001 273.755ZM1168.12 268.968H1189.4499999999998C1189.8799999999999 268.968 1190.2399999999998 268.611 1190.2399999999998 268.17C1190.2399999999998 267.72900000000004 1189.8799999999999 267.372 1189.4499999999998 267.372H1168.12C1167.6799999999998 267.372 1167.33 267.72900000000004 1167.33 268.17C1167.33 268.611 1167.6799999999998 268.968 1168.12 268.968ZM1168.12 264.181H1189.4499999999998C1189.8799999999999 264.181 1190.2399999999998 263.82399999999996 1190.2399999999998 263.383C1190.2399999999998 262.942 1189.8799999999999 262.585 1189.4499999999998 262.585H1168.12C1167.6799999999998 262.585 1167.33 262.942 1167.33 263.383C1167.33 263.82399999999996 1167.6799999999998 264.181 1168.12 264.181ZM1168.12 259.393H1189.4499999999998C1189.8799999999999 259.393 1190.2399999999998 259.03599999999994 1190.2399999999998 258.59599999999995C1190.2399999999998 258.155 1189.8799999999999 257.79799999999994 1189.4499999999998 257.79799999999994H1168.12C1167.6799999999998 257.79799999999994 1167.33 258.155 1167.33 258.59599999999995C1167.33 259.03599999999994 1167.6799999999998 259.393 1168.12 259.393ZM1168.12 254.606H1189.4499999999998C1189.8799999999999 254.606 1190.2399999999998 254.249 1190.2399999999998 253.808C1190.2399999999998 253.368 1189.8799999999999 253.011 1189.4499999999998 253.011H1168.12C1167.6799999999998 253.011 1167.33 253.368 1167.33 253.808C1167.33 254.249 1167.6799999999998 254.606 1168.12 254.606ZM1199.99 240.191H1198.94C1198.5 240.191 1198.15 240.549 1198.15 240.989C1198.15 241.43 1198.5 241.787 1198.94 241.787H1199.2V285.404H1190.76C1190.32 285.404 1189.97 285.761 1189.97 286.202C1189.97 286.643 1190.32 287 1190.76 287H1199.99C1200.43 287 1200.78 286.643 1200.78 286.202V240.989C1200.78 240.549 1200.43 240.191 1199.99 240.191ZM1204.21 240.191H1203.15C1202.72 240.191 1202.3600000000001 240.549 1202.3600000000001 240.989C1202.3600000000001 241.43 1202.72 241.787 1203.15 241.787H1203.42V285.404H1203.15C1202.72 285.404 1202.3600000000001 285.761 1202.3600000000001 286.202C1202.3600000000001 286.643 1202.72 287 1203.15 287H1204.21C1204.65 287 1205 286.643 1205 286.202V240.989C1205 240.549 1204.65 240.191 1204.21 240.191Z " fill="#000000" fill-opacity="1" transform="matrix(1,0,0,1,-1161,-237)"></path><path id="SvgjsPath1104" d="M1196.27 277.887C1196.45 277.741 1196.56 277.517 1196.56 277.266C1196.56 277.259 1196.56 240.98900000000003 1196.56 240.98900000000003C1196.56 240.54900000000004 1196.21 240.19100000000003 1195.77 240.19100000000003H1172.8899999999999C1172.33 238.34500000000003 1170.62 237.00000000000003 1168.61 237.00000000000003C1166.6299999999999 237.00000000000003 1164.8999999999999 238.33100000000002 1164.32 240.19100000000003H1161.79C1161.35 240.19100000000003 1161 240.54900000000004 1161 240.98900000000003V286.20200000000006C1161 286.64300000000003 1161.35 287.00000000000006 1161.79 287.00000000000006H1186.9099999999999C1187.1599999999999 287.00000000000006 1187.3899999999999 286.88400000000007 1187.5299999999997 286.70300000000003ZM1187.71 284.269V278.064H1193.8600000000001ZM1168.61 238.595C1169.7299999999998 238.595 1170.7099999999998 239.245 1171.1899999999998 240.191H1166.0299999999997C1166.5099999999998 239.239 1167.4999999999998 238.595 1168.6099999999997 238.595ZM1162.58 241.787H1171.51V247.372C1171.51 248.10500000000002 1170.92 248.70200000000003 1170.19 248.70200000000003C1169.46 248.70200000000003 1168.8700000000001 248.10500000000002 1168.8700000000001 247.372V244.181C1168.8700000000001 243.74 1168.5200000000002 243.383 1168.0800000000002 243.383C1167.64 243.383 1167.2900000000002 243.74 1167.2900000000002 244.181V247.372C1167.2900000000002 248.985 1168.5900000000001 250.298 1170.1900000000003 250.298C1171.7900000000002 250.298 1173.0900000000004 248.985 1173.0900000000004 247.372V241.787H1194.9800000000005V276.468H1186.9100000000005C1186.4800000000005 276.468 1186.1200000000006 276.82500000000005 1186.1200000000006 277.266V285.404H1162.5800000000006ZM1189.45 273.755C1189.88 273.755 1190.24 273.39799999999997 1190.24 272.957C1190.24 272.517 1189.88 272.15999999999997 1189.45 272.15999999999997H1168.1200000000001C1167.68 272.15999999999997 1167.3300000000002 272.517 1167.3300000000002 272.957C1167.3300000000002 273.39799999999997 1167.68 273.755 1168.1200000000001 273.755ZM1168.12 268.968H1189.4499999999998C1189.8799999999999 268.968 1190.2399999999998 268.611 1190.2399999999998 268.17C1190.2399999999998 267.72900000000004 1189.8799999999999 267.372 1189.4499999999998 267.372H1168.12C1167.6799999999998 267.372 1167.33 267.72900000000004 1167.33 268.17C1167.33 268.611 1167.6799999999998 268.968 1168.12 268.968ZM1168.12 264.181H1189.4499999999998C1189.8799999999999 264.181 1190.2399999999998 263.82399999999996 1190.2399999999998 263.383C1190.2399999999998 262.942 1189.8799999999999 262.585 1189.4499999999998 262.585H1168.12C1167.6799999999998 262.585 1167.33 262.942 1167.33 263.383C1167.33 263.82399999999996 1167.6799999999998 264.181 1168.12 264.181ZM1168.12 259.393H1189.4499999999998C1189.8799999999999 259.393 1190.2399999999998 259.03599999999994 1190.2399999999998 258.59599999999995C1190.2399999999998 258.155 1189.8799999999999 257.79799999999994 1189.4499999999998 257.79799999999994H1168.12C1167.6799999999998 257.79799999999994 1167.33 258.155 1167.33 258.59599999999995C1167.33 259.03599999999994 1167.6799999999998 259.393 1168.12 259.393ZM1168.12 254.606H1189.4499999999998C1189.8799999999999 254.606 1190.2399999999998 254.249 1190.2399999999998 253.808C1190.2399999999998 253.368 1189.8799999999999 253.011 1189.4499999999998 253.011H1168.12C1167.6799999999998 253.011 1167.33 253.368 1167.33 253.808C1167.33 254.249 1167.6799999999998 254.606 1168.12 254.606ZM1199.99 240.191H1198.94C1198.5 240.191 1198.15 240.549 1198.15 240.989C1198.15 241.43 1198.5 241.787 1198.94 241.787H1199.2V285.404H1190.76C1190.32 285.404 1189.97 285.761 1189.97 286.202C1189.97 286.643 1190.32 287 1190.76 287H1199.99C1200.43 287 1200.78 286.643 1200.78 286.202V240.989C1200.78 240.549 1200.43 240.191 1199.99 240.191ZM1204.21 240.191H1203.15C1202.72 240.191 1202.3600000000001 240.549 1202.3600000000001 240.989C1202.3600000000001 241.43 1202.72 241.787 1203.15 241.787H1203.42V285.404H1203.15C1202.72 285.404 1202.3600000000001 285.761 1202.3600000000001 286.202C1202.3600000000001 286.643 1202.72 287 1203.15 287H1204.21C1204.65 287 1205 286.643 1205 286.202V240.989C1205 240.549 1204.65 240.191 1204.21 240.191Z " fill="url(#SvgjsLinearGradient1105)" transform="matrix(1,0,0,1,-1161,-237)"></path></svg>