<svg id="SvgjsSvg1189" xmlns="http://www.w3.org/2000/svg" version="1.1" xmlns:xlink="http://www.w3.org/1999/xlink" xmlns:svgjs="http://svgjs.com/svgjs" width="56" height="50" viewBox="0 0 56 50"><title>Forma 1</title><desc>Created with Avocode.</desc><defs id="SvgjsDefs1190"><linearGradient id="SvgjsLinearGradient1193" gradientUnits="userSpaceOnUse" x1="1190.4792169880604" y1="237.25496500000003" x2="1154.5203967915143" y2="286.748035"><stop id="SvgjsStop1194" stop-opacity="1" stop-color="#0fa0d9" offset="0"></stop><stop id="SvgjsStop1195" stop-opacity="1" stop-color="#0fa0d9" offset="0.45"></stop><stop id="SvgjsStop1196" stop-opacity="1" stop-color="#0ecebf" offset="1"></stop></linearGradient></defs><path id="SvgjsPath1191" d="M1168.32 260.201C1168.6299999999999 259.721 1168.4299999999998 258.15500000000003 1168.4299999999998 258.15500000000003C1156.85 254.17600000000002 1148.1999999999998 249.18900000000002 1148.6899999999998 247.16300000000004C1148.9299999999998 246.16100000000003 1149.2599999999998 245.72200000000004 1149.4899999999998 245.64500000000004C1150.0099999999998 245.47600000000003 1151.1799999999998 246.08900000000003 1152.62 247.03100000000003L1155 244.23800000000003C1153.87 243.54700000000003 1151.09 241.26500000000001 1148.36 242.15300000000002C1147.25 242.51200000000003 1145.78 243.52500000000003 1145.11 246.30400000000003C1143.54 252.81100000000004 1159.1 258.684 1167.4399999999998 261.57300000000004C1167.4399999999998 261.574 1168.0099999999998 260.68000000000006 1168.32 260.201ZM1195.4 247.588C1195.02 247.051 1194.6200000000001 246.527 1194.2 246.022C1189.6000000000001 240.517 1182.68 237.005 1174.95 237.005C1174.94 237.005 1174.93 237.006 1174.91 237.006C1174.9 237.006 1174.9 237.005 1174.89 237.005C1174.8600000000001 237.005 1174.8300000000002 237.009 1174.8000000000002 237.009C1167.13 237.053 1160.2700000000002 240.553 1155.7000000000003 246.023C1155.2800000000002 246.528 1154.8800000000003 247.051 1154.5000000000002 247.588C1154.2100000000003 247.99699999999999 1153.9400000000003 248.421 1153.6800000000003 248.84699999999998C1154.2000000000003 249.177 1154.7900000000002 249.528 1155.4500000000003 249.897C1155.6800000000003 249.534 1155.9100000000003 249.17 1156.1600000000003 248.82C1157.7200000000003 249.858 1159.5200000000002 250.765 1161.5100000000002 251.513C1161.4000000000003 251.911 1161.3100000000002 252.329 1161.2200000000003 252.73600000000002C1161.8300000000002 253.002 1162.4700000000003 253.26800000000003 1163.1200000000003 253.53400000000002C1163.2200000000003 253.07500000000002 1163.3200000000004 252.61200000000002 1163.4300000000003 252.168C1166.6000000000004 253.13500000000002 1170.1500000000003 253.716 1173.9200000000003 253.806V256.413L1174.0500000000004 256.494L1174.2300000000005 257.56500000000005L1174.5100000000004 259.2060000000001L1175.9800000000005 259.58700000000005V253.80600000000004C1176.7100000000005 253.78900000000004 1177.4200000000005 253.73800000000003 1178.1300000000006 253.68600000000004L1178.6700000000005 252.16400000000004L1178.8800000000006 251.57700000000006C1177.9300000000005 251.66700000000006 1176.9600000000005 251.73300000000006 1175.9800000000005 251.75700000000006V239.14500000000007C1180.1500000000005 239.78900000000007 1183.7400000000005 244.10000000000008 1185.7900000000004 250.27200000000008C1184.8000000000004 250.56400000000008 1183.7500000000005 250.80100000000007 1182.6900000000005 251.01200000000009C1183.3800000000006 251.36100000000008 1184.0800000000006 251.90300000000008 1184.5700000000006 252.67000000000007C1185.1700000000005 252.52100000000007 1185.7800000000007 252.37400000000008 1186.3600000000006 252.19900000000007C1187.1200000000006 255.11500000000007 1187.5700000000006 258.35800000000006 1187.5900000000006 261.78900000000004H1184.4000000000005C1184.3700000000006 261.99600000000004 1184.3400000000006 262.19200000000006 1184.3000000000006 262.41100000000006C1185.5500000000006 262.9220000000001 1187.0300000000007 263.53100000000006 1187.3600000000006 263.66400000000004C1188.3100000000006 264.05500000000006 1189.0200000000007 264.64500000000004 1189.5000000000007 265.36600000000004C1189.5400000000006 264.85900000000004 1189.5800000000006 264.355 1189.6000000000006 263.83900000000006H1194.5300000000007C1194.4500000000007 264.47300000000007 1194.3700000000006 265.11400000000003 1194.2500000000007 265.7250000000001C1194.5700000000006 265.56500000000005 1194.8400000000006 265.2530000000001 1194.9800000000007 264.6640000000001C1195.0600000000006 264.3440000000001 1195.0700000000006 264.0790000000001 1195.0500000000006 263.8390000000001H1197.8700000000006C1197.5300000000007 268.04000000000013 1196.0500000000006 271.9190000000001 1193.7400000000005 275.1800000000001C1192.1600000000005 274.12400000000014 1190.3200000000004 273.20100000000014 1188.2900000000004 272.4450000000001C1188.4000000000003 272.0390000000001 1188.4900000000005 271.6180000000001 1188.5900000000004 271.2000000000001C1187.9400000000003 271.7120000000001 1187.1200000000003 271.9960000000001 1186.1900000000003 271.9960000000001C1185.7900000000002 271.9960000000001 1185.4500000000003 271.9450000000001 1185.2200000000003 271.9120000000001L1185.1500000000003 271.8990000000001C1184.9000000000003 271.8830000000001 1184.5600000000004 271.8530000000001 1182.4700000000003 271.14100000000013C1182.7200000000003 270.81100000000015 1183.0100000000002 270.37900000000013 1183.3300000000002 269.8750000000001V268.85000000000014C1184.3000000000002 269.18200000000013 1185.13 269.4490000000001 1185.3200000000002 269.4640000000001C1185.8600000000001 269.5010000000001 1187.2300000000002 269.9700000000001 1187.63 268.3360000000001C1188.0200000000002 266.7020000000001 1186.99 266.16200000000015 1186.42 265.92700000000013C1186.1000000000001 265.79500000000013 1184.5900000000001 265.17600000000016 1183.3300000000002 264.6610000000001V262.5850000000001L1182.6200000000001 264.3660000000001C1181.99 264.1100000000001 1181.5500000000002 263.9280000000001 1181.5500000000002 263.9280000000001C1181.5500000000002 263.9280000000001 1183.1000000000001 255.38800000000012 1182.67 254.3070000000001C1182.25 253.2260000000001 1180.98 252.9800000000001 1180.98 252.9800000000001L1177.6 262.5340000000001L1173.9199999999998 261.5850000000001L1172.35 261.1790000000001L1171.81 257.97100000000006L1170.1 256.87700000000007C1170.1 256.87700000000007 1170.1999999999998 259.5210000000001 1169.9499999999998 260.94700000000006C1169.8999999999999 261.21600000000007 1169.84 261.44200000000006 1169.7599999999998 261.59900000000005C1169.7299999999998 261.65700000000004 1169.6799999999998 261.73100000000005 1169.6399999999999 261.797C1169.4599999999998 262.093 1169.1799999999998 262.447 1168.87 262.80400000000003C1168.87 262.80600000000004 1168.86 262.80800000000005 1168.86 262.81C1168.7199999999998 262.978 1168.56 263.148 1168.4099999999999 263.31C1168.3899999999999 263.329 1168.37 263.349 1168.36 263.365C1168.2099999999998 263.519 1168.07 263.669 1167.9299999999998 263.807C1167.4599999999998 264.28200000000004 1167.09 264.634 1167.09 264.634L1168.59 265.73900000000003L1171.08 263.841H1171.09L1171.6499999999999 263.41L1172.55 263.841L1174.82 264.93L1175.97 265.486L1176.23 265.61199999999997L1172.46 274.986C1172.46 274.986 1173.7 276.093 1174.63 275.37899999999996C1175.5600000000002 274.664 1179.5200000000002 267.49299999999994 1179.5200000000002 267.49299999999994C1179.5200000000002 267.49299999999994 1180.2200000000003 267.74799999999993 1181.1200000000001 268.0729999999999L1180.91 268.59899999999993C1181.0400000000002 268.59399999999994 1181.15 268.58099999999996 1181.28 268.5779999999999V270.7279999999999C1181.19 270.6969999999999 1181.1 270.6669999999999 1181 270.6319999999999C1180.87 270.6129999999999 1180.73 270.6009999999999 1180.6 270.5819999999999C1180.1999999999998 271.2959999999999 1179.83 271.9349999999999 1179.49 272.50099999999986C1181.72 272.7499999999999 1183.84 273.15699999999987 1185.79 273.7309999999999C1183.75 279.90499999999986 1180.1499999999999 284.2139999999999 1175.98 284.8579999999999V277.4139999999999C1175.3700000000001 277.8319999999999 1174.67 278.06399999999985 1173.92 278.0649999999999V284.8729999999999C1169.71 284.2959999999999 1166.0600000000002 279.9779999999999 1164 273.7639999999999C1166.1 273.1329999999999 1168.41 272.6899999999999 1170.84 272.4469999999999L1171.6999999999998 270.3239999999999C1168.7499999999998 270.5499999999999 1165.9599999999998 271.0619999999999 1163.4199999999998 271.8379999999999C1162.7699999999998 269.3809999999999 1162.36 266.6839999999999 1162.2299999999998 263.8419999999999H1164.3499999999997L1164.8899999999996 263.33599999999996C1163.2099999999996 262.76399999999995 1161.6299999999997 262.18799999999993 1160.1399999999996 261.60799999999995C1160.1399999999996 261.66799999999995 1160.1299999999997 261.72799999999995 1160.1299999999997 261.78999999999996H1151.9599999999996C1151.9699999999996 260.51899999999995 1152.0899999999997 259.275 1152.2999999999995 258.061C1151.6399999999994 257.707 1151.0099999999995 257.35299999999995 1150.4199999999994 256.995C1150.0899999999995 258.61400000000003 1149.8899999999994 260.284 1149.8899999999994 262.001C1149.8899999999994 267.366 1151.5999999999995 272.33799999999997 1154.4999999999993 276.414C1154.8799999999994 276.95 1155.2799999999993 277.476 1155.6999999999994 277.97999999999996C1160.2699999999993 283.44899999999996 1167.1299999999994 286.95 1174.7999999999993 286.99299999999994C1174.8299999999992 286.99299999999994 1174.8599999999992 286.99799999999993 1174.8799999999992 286.99799999999993C1174.8899999999992 286.99799999999993 1174.8999999999992 286.99499999999995 1174.9099999999992 286.99499999999995C1174.9199999999992 286.99499999999995 1174.9299999999992 286.99799999999993 1174.9399999999991 286.99799999999993C1182.6699999999992 286.99799999999993 1189.5899999999992 283.48599999999993 1194.1899999999991 277.9819999999999C1194.6099999999992 277.47599999999994 1195.009999999999 276.9529999999999 1195.3899999999992 276.4149999999999C1198.2899999999993 272.3389999999999 1199.999999999999 267.3689999999999 1199.999999999999 262.0019999999999C1199.999999999999 256.6369999999999 1198.289999999999 251.6649999999999 1195.3999999999992 247.5879999999999ZM1162.09 249.6C1160.32 248.94299999999998 1158.73 248.15 1157.36 247.253C1160.05 244.06799999999998 1163.59 241.61499999999998 1167.6299999999999 240.25699999999998C1165.32 242.47199999999998 1163.4099999999999 245.712 1162.09 249.59999999999997ZM1173.92 251.757C1170.3400000000001 251.67000000000002 1166.98 251.131 1164 250.241C1166.07 244.02800000000002 1169.7 239.70700000000002 1173.92 239.12900000000002ZM1152.03 263.842H1160.18C1160.3100000000002 266.913 1160.78 269.827 1161.51 272.491C1159.51 273.238 1157.71 274.14599999999996 1156.16 275.183C1153.8500000000001 271.92199999999997 1152.3700000000001 268.043 1152.03 263.842ZM1157.37 276.747C1158.7399999999998 275.853 1160.33 275.06100000000004 1162.09 274.404C1163.4099999999999 278.293 1165.32 281.53 1167.6299999999999 283.74399999999997C1163.59 282.388 1160.06 279.93199999999996 1157.37 276.74699999999996ZM1182.09 283.809C1184.4299999999998 281.584 1186.37 278.309 1187.6999999999998 274.36600000000004C1189.5099999999998 275.03200000000004 1191.1299999999999 275.83500000000004 1192.5299999999997 276.747C1189.7999999999997 279.981 1186.2099999999998 282.464 1182.0899999999997 283.809ZM1182.09 240.193C1186.1999999999998 241.53900000000002 1189.8 244.019 1192.53 247.25300000000001C1191.33 248.037 1189.95 248.734 1188.45 249.34C1188.38 249.32 1188.3300000000002 249.309 1188.3300000000002 249.309L1188.3000000000002 249.399C1188.1000000000001 249.479 1187.91 249.562 1187.7000000000003 249.638C1186.3700000000003 245.697 1184.4300000000003 242.42000000000002 1182.0900000000004 240.193ZM1189.64 261.791C1189.6200000000001 258.138 1189.14 254.676 1188.2800000000002 251.555C1190.3200000000002 250.8 1192.1600000000003 249.87800000000001 1193.7400000000002 248.822C1196.3400000000001 252.501 1197.9000000000003 256.96500000000003 1197.9400000000003 261.79200000000003H1189.6400000000003Z " fill="#000000" fill-opacity="1" transform="matrix(1,0,0,1,-1144,-237)"></path><path id="SvgjsPath1192" d="M1168.32 260.201C1168.6299999999999 259.721 1168.4299999999998 258.15500000000003 1168.4299999999998 258.15500000000003C1156.85 254.17600000000002 1148.1999999999998 249.18900000000002 1148.6899999999998 247.16300000000004C1148.9299999999998 246.16100000000003 1149.2599999999998 245.72200000000004 1149.4899999999998 245.64500000000004C1150.0099999999998 245.47600000000003 1151.1799999999998 246.08900000000003 1152.62 247.03100000000003L1155 244.23800000000003C1153.87 243.54700000000003 1151.09 241.26500000000001 1148.36 242.15300000000002C1147.25 242.51200000000003 1145.78 243.52500000000003 1145.11 246.30400000000003C1143.54 252.81100000000004 1159.1 258.684 1167.4399999999998 261.57300000000004C1167.4399999999998 261.574 1168.0099999999998 260.68000000000006 1168.32 260.201ZM1195.4 247.588C1195.02 247.051 1194.6200000000001 246.527 1194.2 246.022C1189.6000000000001 240.517 1182.68 237.005 1174.95 237.005C1174.94 237.005 1174.93 237.006 1174.91 237.006C1174.9 237.006 1174.9 237.005 1174.89 237.005C1174.8600000000001 237.005 1174.8300000000002 237.009 1174.8000000000002 237.009C1167.13 237.053 1160.2700000000002 240.553 1155.7000000000003 246.023C1155.2800000000002 246.528 1154.8800000000003 247.051 1154.5000000000002 247.588C1154.2100000000003 247.99699999999999 1153.9400000000003 248.421 1153.6800000000003 248.84699999999998C1154.2000000000003 249.177 1154.7900000000002 249.528 1155.4500000000003 249.897C1155.6800000000003 249.534 1155.9100000000003 249.17 1156.1600000000003 248.82C1157.7200000000003 249.858 1159.5200000000002 250.765 1161.5100000000002 251.513C1161.4000000000003 251.911 1161.3100000000002 252.329 1161.2200000000003 252.73600000000002C1161.8300000000002 253.002 1162.4700000000003 253.26800000000003 1163.1200000000003 253.53400000000002C1163.2200000000003 253.07500000000002 1163.3200000000004 252.61200000000002 1163.4300000000003 252.168C1166.6000000000004 253.13500000000002 1170.1500000000003 253.716 1173.9200000000003 253.806V256.413L1174.0500000000004 256.494L1174.2300000000005 257.56500000000005L1174.5100000000004 259.2060000000001L1175.9800000000005 259.58700000000005V253.80600000000004C1176.7100000000005 253.78900000000004 1177.4200000000005 253.73800000000003 1178.1300000000006 253.68600000000004L1178.6700000000005 252.16400000000004L1178.8800000000006 251.57700000000006C1177.9300000000005 251.66700000000006 1176.9600000000005 251.73300000000006 1175.9800000000005 251.75700000000006V239.14500000000007C1180.1500000000005 239.78900000000007 1183.7400000000005 244.10000000000008 1185.7900000000004 250.27200000000008C1184.8000000000004 250.56400000000008 1183.7500000000005 250.80100000000007 1182.6900000000005 251.01200000000009C1183.3800000000006 251.36100000000008 1184.0800000000006 251.90300000000008 1184.5700000000006 252.67000000000007C1185.1700000000005 252.52100000000007 1185.7800000000007 252.37400000000008 1186.3600000000006 252.19900000000007C1187.1200000000006 255.11500000000007 1187.5700000000006 258.35800000000006 1187.5900000000006 261.78900000000004H1184.4000000000005C1184.3700000000006 261.99600000000004 1184.3400000000006 262.19200000000006 1184.3000000000006 262.41100000000006C1185.5500000000006 262.9220000000001 1187.0300000000007 263.53100000000006 1187.3600000000006 263.66400000000004C1188.3100000000006 264.05500000000006 1189.0200000000007 264.64500000000004 1189.5000000000007 265.36600000000004C1189.5400000000006 264.85900000000004 1189.5800000000006 264.355 1189.6000000000006 263.83900000000006H1194.5300000000007C1194.4500000000007 264.47300000000007 1194.3700000000006 265.11400000000003 1194.2500000000007 265.7250000000001C1194.5700000000006 265.56500000000005 1194.8400000000006 265.2530000000001 1194.9800000000007 264.6640000000001C1195.0600000000006 264.3440000000001 1195.0700000000006 264.0790000000001 1195.0500000000006 263.8390000000001H1197.8700000000006C1197.5300000000007 268.04000000000013 1196.0500000000006 271.9190000000001 1193.7400000000005 275.1800000000001C1192.1600000000005 274.12400000000014 1190.3200000000004 273.20100000000014 1188.2900000000004 272.4450000000001C1188.4000000000003 272.0390000000001 1188.4900000000005 271.6180000000001 1188.5900000000004 271.2000000000001C1187.9400000000003 271.7120000000001 1187.1200000000003 271.9960000000001 1186.1900000000003 271.9960000000001C1185.7900000000002 271.9960000000001 1185.4500000000003 271.9450000000001 1185.2200000000003 271.9120000000001L1185.1500000000003 271.8990000000001C1184.9000000000003 271.8830000000001 1184.5600000000004 271.8530000000001 1182.4700000000003 271.14100000000013C1182.7200000000003 270.81100000000015 1183.0100000000002 270.37900000000013 1183.3300000000002 269.8750000000001V268.85000000000014C1184.3000000000002 269.18200000000013 1185.13 269.4490000000001 1185.3200000000002 269.4640000000001C1185.8600000000001 269.5010000000001 1187.2300000000002 269.9700000000001 1187.63 268.3360000000001C1188.0200000000002 266.7020000000001 1186.99 266.16200000000015 1186.42 265.92700000000013C1186.1000000000001 265.79500000000013 1184.5900000000001 265.17600000000016 1183.3300000000002 264.6610000000001V262.5850000000001L1182.6200000000001 264.3660000000001C1181.99 264.1100000000001 1181.5500000000002 263.9280000000001 1181.5500000000002 263.9280000000001C1181.5500000000002 263.9280000000001 1183.1000000000001 255.38800000000012 1182.67 254.3070000000001C1182.25 253.2260000000001 1180.98 252.9800000000001 1180.98 252.9800000000001L1177.6 262.5340000000001L1173.9199999999998 261.5850000000001L1172.35 261.1790000000001L1171.81 257.97100000000006L1170.1 256.87700000000007C1170.1 256.87700000000007 1170.1999999999998 259.5210000000001 1169.9499999999998 260.94700000000006C1169.8999999999999 261.21600000000007 1169.84 261.44200000000006 1169.7599999999998 261.59900000000005C1169.7299999999998 261.65700000000004 1169.6799999999998 261.73100000000005 1169.6399999999999 261.797C1169.4599999999998 262.093 1169.1799999999998 262.447 1168.87 262.80400000000003C1168.87 262.80600000000004 1168.86 262.80800000000005 1168.86 262.81C1168.7199999999998 262.978 1168.56 263.148 1168.4099999999999 263.31C1168.3899999999999 263.329 1168.37 263.349 1168.36 263.365C1168.2099999999998 263.519 1168.07 263.669 1167.9299999999998 263.807C1167.4599999999998 264.28200000000004 1167.09 264.634 1167.09 264.634L1168.59 265.73900000000003L1171.08 263.841H1171.09L1171.6499999999999 263.41L1172.55 263.841L1174.82 264.93L1175.97 265.486L1176.23 265.61199999999997L1172.46 274.986C1172.46 274.986 1173.7 276.093 1174.63 275.37899999999996C1175.5600000000002 274.664 1179.5200000000002 267.49299999999994 1179.5200000000002 267.49299999999994C1179.5200000000002 267.49299999999994 1180.2200000000003 267.74799999999993 1181.1200000000001 268.0729999999999L1180.91 268.59899999999993C1181.0400000000002 268.59399999999994 1181.15 268.58099999999996 1181.28 268.5779999999999V270.7279999999999C1181.19 270.6969999999999 1181.1 270.6669999999999 1181 270.6319999999999C1180.87 270.6129999999999 1180.73 270.6009999999999 1180.6 270.5819999999999C1180.1999999999998 271.2959999999999 1179.83 271.9349999999999 1179.49 272.50099999999986C1181.72 272.7499999999999 1183.84 273.15699999999987 1185.79 273.7309999999999C1183.75 279.90499999999986 1180.1499999999999 284.2139999999999 1175.98 284.8579999999999V277.4139999999999C1175.3700000000001 277.8319999999999 1174.67 278.06399999999985 1173.92 278.0649999999999V284.8729999999999C1169.71 284.2959999999999 1166.0600000000002 279.9779999999999 1164 273.7639999999999C1166.1 273.1329999999999 1168.41 272.6899999999999 1170.84 272.4469999999999L1171.6999999999998 270.3239999999999C1168.7499999999998 270.5499999999999 1165.9599999999998 271.0619999999999 1163.4199999999998 271.8379999999999C1162.7699999999998 269.3809999999999 1162.36 266.6839999999999 1162.2299999999998 263.8419999999999H1164.3499999999997L1164.8899999999996 263.33599999999996C1163.2099999999996 262.76399999999995 1161.6299999999997 262.18799999999993 1160.1399999999996 261.60799999999995C1160.1399999999996 261.66799999999995 1160.1299999999997 261.72799999999995 1160.1299999999997 261.78999999999996H1151.9599999999996C1151.9699999999996 260.51899999999995 1152.0899999999997 259.275 1152.2999999999995 258.061C1151.6399999999994 257.707 1151.0099999999995 257.35299999999995 1150.4199999999994 256.995C1150.0899999999995 258.61400000000003 1149.8899999999994 260.284 1149.8899999999994 262.001C1149.8899999999994 267.366 1151.5999999999995 272.33799999999997 1154.4999999999993 276.414C1154.8799999999994 276.95 1155.2799999999993 277.476 1155.6999999999994 277.97999999999996C1160.2699999999993 283.44899999999996 1167.1299999999994 286.95 1174.7999999999993 286.99299999999994C1174.8299999999992 286.99299999999994 1174.8599999999992 286.99799999999993 1174.8799999999992 286.99799999999993C1174.8899999999992 286.99799999999993 1174.8999999999992 286.99499999999995 1174.9099999999992 286.99499999999995C1174.9199999999992 286.99499999999995 1174.9299999999992 286.99799999999993 1174.9399999999991 286.99799999999993C1182.6699999999992 286.99799999999993 1189.5899999999992 283.48599999999993 1194.1899999999991 277.9819999999999C1194.6099999999992 277.47599999999994 1195.009999999999 276.9529999999999 1195.3899999999992 276.4149999999999C1198.2899999999993 272.3389999999999 1199.999999999999 267.3689999999999 1199.999999999999 262.0019999999999C1199.999999999999 256.6369999999999 1198.289999999999 251.6649999999999 1195.3999999999992 247.5879999999999ZM1162.09 249.6C1160.32 248.94299999999998 1158.73 248.15 1157.36 247.253C1160.05 244.06799999999998 1163.59 241.61499999999998 1167.6299999999999 240.25699999999998C1165.32 242.47199999999998 1163.4099999999999 245.712 1162.09 249.59999999999997ZM1173.92 251.757C1170.3400000000001 251.67000000000002 1166.98 251.131 1164 250.241C1166.07 244.02800000000002 1169.7 239.70700000000002 1173.92 239.12900000000002ZM1152.03 263.842H1160.18C1160.3100000000002 266.913 1160.78 269.827 1161.51 272.491C1159.51 273.238 1157.71 274.14599999999996 1156.16 275.183C1153.8500000000001 271.92199999999997 1152.3700000000001 268.043 1152.03 263.842ZM1157.37 276.747C1158.7399999999998 275.853 1160.33 275.06100000000004 1162.09 274.404C1163.4099999999999 278.293 1165.32 281.53 1167.6299999999999 283.74399999999997C1163.59 282.388 1160.06 279.93199999999996 1157.37 276.74699999999996ZM1182.09 283.809C1184.4299999999998 281.584 1186.37 278.309 1187.6999999999998 274.36600000000004C1189.5099999999998 275.03200000000004 1191.1299999999999 275.83500000000004 1192.5299999999997 276.747C1189.7999999999997 279.981 1186.2099999999998 282.464 1182.0899999999997 283.809ZM1182.09 240.193C1186.1999999999998 241.53900000000002 1189.8 244.019 1192.53 247.25300000000001C1191.33 248.037 1189.95 248.734 1188.45 249.34C1188.38 249.32 1188.3300000000002 249.309 1188.3300000000002 249.309L1188.3000000000002 249.399C1188.1000000000001 249.479 1187.91 249.562 1187.7000000000003 249.638C1186.3700000000003 245.697 1184.4300000000003 242.42000000000002 1182.0900000000004 240.193ZM1189.64 261.791C1189.6200000000001 258.138 1189.14 254.676 1188.2800000000002 251.555C1190.3200000000002 250.8 1192.1600000000003 249.87800000000001 1193.7400000000002 248.822C1196.3400000000001 252.501 1197.9000000000003 256.96500000000003 1197.9400000000003 261.79200000000003H1189.6400000000003Z " fill="url(#SvgjsLinearGradient1193)" transform="matrix(1,0,0,1,-1144,-237)"></path></svg>