<svg id="SvgjsSvg1181" xmlns="http://www.w3.org/2000/svg" version="1.1" xmlns:xlink="http://www.w3.org/1999/xlink" xmlns:svgjs="http://svgjs.com/svgjs" width="71" height="50" viewBox="0 0 71 50"><title>Forma 1</title><desc>Created with Avocode.</desc><defs id="SvgjsDefs1182"><linearGradient id="SvgjsLinearGradient1185" gradientUnits="userSpaceOnUse" x1="1080.9655262129124" y1="237.25" x2="1045.001671076647" y2="286.75"><stop id="SvgjsStop1186" stop-opacity="1" stop-color="#0fa0d9" offset="0"></stop><stop id="SvgjsStop1187" stop-opacity="1" stop-color="#0fa0d9" offset="0.45"></stop><stop id="SvgjsStop1188" stop-opacity="1" stop-color="#0ecebf" offset="1"></stop></linearGradient></defs><path id="SvgjsPath1183" d="M1097.4 284.962C1095.89 284.513 1094.38 284.096 1092.8500000000001 283.709V274.962L1092.8000000000002 275.007C1092.8300000000002 274.809 1092.8500000000001 274.605 1092.8500000000001 274.397C1092.8500000000001 272.986 1092.0600000000002 271.711 1090.7800000000002 271.07L1088.3200000000002 269.83299999999997V268.126C1088.3200000000002 267.186 1087.7700000000002 266.37899999999996 1086.89 266.01899999999995C1086.3400000000001 265.79499999999996 1085.76 265.78499999999997 1085.23 265.96999999999997L1080.84 261.64C1081.05 261.64 1081.27 261.553 1081.4199999999998 261.4C1081.57 261.24899999999997 1081.6599999999999 261.03799999999995 1081.6599999999999 260.825C1081.6599999999999 260.61 1081.57 260.399 1081.4199999999998 260.248C1081.2699999999998 260.09499999999997 1081.05 260.009 1080.84 260.009C1080.62 260.009 1080.3999999999999 260.095 1080.25 260.248C1080.1 260.399 1080.01 260.609 1080.01 260.824L1079.41 260.232C1079.6200000000001 260.23100000000005 1079.8300000000002 260.151 1079.99 259.99300000000005C1080.31 259.67400000000004 1080.31 259.1580000000001 1079.99 258.83900000000006C1079.67 258.52000000000004 1079.14 258.52000000000004 1078.82 258.83900000000006C1078.6599999999999 258.99700000000007 1078.58 259.2060000000001 1078.58 259.41400000000004L1077.98 258.82300000000004C1078.19 258.82200000000006 1078.4 258.742 1078.56 258.58400000000006C1078.8799999999999 258.26500000000004 1078.8799999999999 257.74800000000005 1078.56 257.43000000000006C1078.24 257.11100000000005 1077.71 257.11100000000005 1077.3899999999999 257.43000000000006C1077.2299999999998 257.58900000000006 1077.1499999999999 257.7970000000001 1077.1499999999999 258.0060000000001L1076.8799999999999 257.74500000000006C1076.76 257.62800000000004 1076.6399999999999 257.5180000000001 1076.52 257.41100000000006C1076.53 257.41100000000006 1076.54 257.41400000000004 1076.55 257.41400000000004C1076.76 257.41400000000004 1076.98 257.326 1077.1299999999999 257.17500000000007C1077.28 257.02200000000005 1077.37 256.81200000000007 1077.37 256.59800000000007C1077.37 256.3830000000001 1077.28 256.17300000000006 1077.1299999999999 256.0210000000001C1076.9799999999998 255.86900000000009 1076.76 255.78300000000007 1076.55 255.78300000000007C1076.33 255.78300000000007 1076.11 255.86900000000009 1075.96 256.0210000000001C1075.81 256.17300000000006 1075.72 256.3830000000001 1075.72 256.59800000000007C1075.72 256.6790000000001 1075.73 256.75700000000006 1075.76 256.83400000000006C1072.87 254.92100000000005 1068.92 255.20100000000005 1066.34 257.67100000000005V251.68200000000004H1066.57C1067.02 251.68200000000004 1067.3899999999999 251.31700000000004 1067.3899999999999 250.86600000000004C1067.3899999999999 250.41600000000005 1067.02 250.05100000000004 1066.57 250.05100000000004H1066.34V247.86800000000005H1069.07C1070.5 247.86800000000005 1071.6599999999999 246.72300000000004 1071.6599999999999 245.31600000000006C1071.6599999999999 243.90900000000005 1070.4999999999998 242.76400000000007 1069.07 242.76400000000007H1066.4199999999998C1066.6999999999998 242.28400000000008 1066.87 241.72700000000006 1066.87 241.13300000000007C1066.87 239.33400000000006 1065.3799999999999 237.87000000000006 1063.56 237.87000000000006C1061.73 237.87000000000006 1060.24 239.33400000000006 1060.24 241.13300000000007C1060.24 241.72700000000006 1060.41 242.28400000000008 1060.69 242.76400000000007H1058.04C1056.61 242.76400000000007 1055.45 243.90900000000008 1055.45 245.31600000000006C1055.45 246.72300000000007 1056.6100000000001 247.86800000000005 1058.04 247.86800000000005H1060.77V250.05100000000004H1060.54C1060.09 250.05100000000004 1059.72 250.41600000000005 1059.72 250.86600000000004C1059.72 251.31700000000004 1060.09 251.68200000000004 1060.54 251.68200000000004H1060.77V277.33900000000006H1059.41C1058.95 277.33900000000006 1058.5800000000002 277.70400000000006 1058.5800000000002 278.15400000000005V280.37600000000003C1057.2 280.45000000000005 1055.8300000000002 280.55 1054.45 280.67400000000004L1052.32 277.06000000000006C1053.55 276.2780000000001 1054.6399999999999 275.33700000000005 1055.58 274.2680000000001L1055.8 274.4330000000001C1055.95 274.5460000000001 1056.12 274.6000000000001 1056.3 274.6000000000001C1056.55 274.6000000000001 1056.79 274.49000000000007 1056.96 274.27900000000005C1057.23 273.92100000000005 1057.16 273.40900000000005 1056.8 273.1360000000001L1056.59 272.97600000000006C1057.3899999999999 271.82200000000006 1058.02 270.55100000000004 1058.48 269.1940000000001L1058.75 269.2660000000001C1058.82 269.28400000000005 1058.89 269.29300000000006 1058.96 269.29300000000006C1059.33 269.29300000000006 1059.66 269.05100000000004 1059.76 268.68500000000006C1059.8799999999999 268.25000000000006 1059.62 267.80300000000005 1059.17 267.68800000000005L1058.91 267.619C1059.21 266.221 1059.3000000000002 264.80800000000005 1059.2 263.41400000000004L1059.47 263.37700000000007C1059.93 263.31700000000006 1060.24 262.90600000000006 1060.18 262.45900000000006C1060.1200000000001 262.01300000000003 1059.7 261.70000000000005 1059.25 261.76000000000005L1058.98 261.79600000000005C1058.72 260.42100000000005 1058.26 259.07900000000006 1057.6100000000001 257.80500000000006L1057.8500000000001 257.66400000000004C1058.2500000000002 257.43700000000007 1058.38 256.93800000000005 1058.15 256.54900000000004C1057.92 256.16 1057.41 256.028 1057.02 256.25500000000005L1056.78 256.3910000000001C1055.99 255.19300000000007 1055.04 254.12700000000007 1053.97 253.2150000000001L1054.14 252.9970000000001C1054.41 252.6390000000001 1054.3400000000001 252.1270000000001 1053.98 251.8540000000001C1053.6200000000001 251.5820000000001 1053.1 251.6510000000001 1052.82 252.0090000000001L1052.6599999999999 252.2200000000001C1051.4799999999998 251.42900000000012 1050.1899999999998 250.8010000000001 1048.81 250.3570000000001C1048.8799999999999 249.9460000000001 1048.6299999999999 249.54400000000012 1048.21 249.43600000000012C1047.8 249.32800000000012 1047.3700000000001 249.54900000000012 1047.22 249.9340000000001C1045.8 249.6360000000001 1044.3700000000001 249.54300000000012 1042.95 249.6460000000001L1042.91 249.3750000000001C1042.8500000000001 248.9280000000001 1042.44 248.61600000000013 1041.98 248.6760000000001C1041.53 248.7370000000001 1041.21 249.1480000000001 1041.27 249.5940000000001L1041.31 249.8560000000001C1039.9099999999999 250.11400000000012 1038.55 250.5680000000001 1037.26 251.2140000000001L1037.12 250.97200000000012C1036.8899999999999 250.58200000000014 1036.3799999999999 250.45000000000013 1035.9799999999998 250.67700000000013C1035.5899999999997 250.90300000000013 1035.4499999999998 251.40200000000013 1035.6799999999998 251.79200000000014L1035.82 252.02700000000016C1034.6 252.81400000000016 1033.52 253.75200000000015 1032.61 254.80100000000016L1032.3799999999999 254.63200000000015C1032.01 254.35900000000015 1031.4999999999998 254.42800000000014 1031.2199999999998 254.78700000000015C1030.9399999999998 255.14500000000015 1031.0099999999998 255.65700000000015 1031.3799999999999 255.93000000000015L1031.6 256.0960000000002C1030.78 257.26700000000017 1030.1499999999999 258.5400000000002 1029.7099999999998 259.87300000000016L1029.4199999999998 259.8000000000002C1028.9799999999998 259.6850000000002 1028.5299999999997 259.94500000000016 1028.4099999999999 260.3810000000002C1028.3 260.8160000000002 1028.56 261.2630000000002 1028.9999999999998 261.3770000000002L1029.2799999999997 261.4480000000002C1028.9799999999998 262.8210000000002 1028.8799999999997 264.2370000000002 1028.9899999999998 265.6510000000002L1028.6999999999998 265.68800000000016C1028.2499999999998 265.74900000000014 1027.9299999999998 266.16000000000014 1027.9899999999998 266.60600000000017C1028.0499999999997 267.0160000000002 1028.3999999999999 267.3120000000002 1028.8099999999997 267.3120000000002C1028.8499999999997 267.3120000000002 1028.8899999999996 267.3100000000002 1028.9199999999996 267.3050000000002L1029.1999999999996 267.2680000000002C1029.4499999999996 268.6290000000002 1029.9099999999996 269.9730000000002 1030.5699999999995 271.2600000000002L1030.3199999999995 271.40100000000024C1029.9299999999994 271.62700000000024 1029.7899999999995 272.12600000000026 1030.0199999999995 272.51600000000025C1030.1799999999996 272.77600000000024 1030.4499999999996 272.92200000000025 1030.7399999999996 272.92200000000025C1030.8799999999997 272.92200000000025 1031.0199999999995 272.88600000000025 1031.1599999999996 272.81100000000026L1031.3999999999996 272.6730000000003C1032.1899999999996 273.8840000000003 1033.1399999999996 274.9450000000003 1034.2099999999996 275.84700000000026L1034.0399999999995 276.06800000000027C1033.7599999999995 276.4260000000003 1033.8299999999995 276.9380000000003 1034.1999999999996 277.21100000000024C1034.3399999999997 277.32300000000026 1034.5199999999995 277.3780000000002 1034.6999999999996 277.3780000000002C1034.9499999999996 277.3780000000002 1035.1899999999996 277.2670000000002 1035.3599999999997 277.0560000000002L1035.5199999999998 276.8390000000002C1036.6999999999998 277.63200000000023 1037.9799999999998 278.25400000000025 1039.3199999999997 278.6910000000002L1038.0699999999997 283.3680000000002C1036.0799999999997 283.8470000000002 1034.0899999999997 284.3800000000002 1032.1399999999996 284.9620000000002C1031.7099999999996 285.0930000000002 1031.4599999999996 285.5490000000002 1031.5899999999997 285.9800000000002C1031.7199999999998 286.4110000000002 1032.1899999999996 286.65400000000017 1032.6199999999997 286.52400000000017C1034.2599999999998 286.0350000000002 1035.9199999999996 285.5830000000002 1037.5899999999997 285.1680000000002L1037.3699999999997 285.97600000000017C1037.2499999999998 286.4110000000002 1037.5199999999998 286.8580000000002 1037.9599999999996 286.97200000000015C1038.0299999999995 286.99100000000016 1038.0999999999997 287.00000000000017 1038.1699999999996 287.00000000000017C1038.5399999999995 287.00000000000017 1038.8699999999997 286.75800000000015 1038.9699999999996 286.39200000000017L1039.4199999999996 284.7280000000002C1040.2399999999996 284.5380000000002 1041.0599999999997 284.3580000000002 1041.8799999999997 284.18800000000016C1044.3299999999997 283.67700000000013 1046.8399999999997 283.24300000000017 1049.3399999999997 282.89700000000016C1050.7399999999998 282.70300000000015 1052.1499999999996 282.5380000000002 1053.5599999999997 282.39700000000016L1054.9999999999998 284.84500000000014C1055.1599999999999 285.10500000000013 1055.4299999999998 285.2500000000001 1055.7199999999998 285.2500000000001C1055.86 285.2500000000001 1055.9999999999998 285.2140000000001 1056.1299999999999 285.1390000000001C1056.53 284.91200000000015 1056.6599999999999 284.4130000000001 1056.4299999999998 284.0240000000001L1055.37 282.23000000000013C1061.33 281.7330000000001 1067.33 281.70800000000014 1073.29 282.1590000000001C1081.3 282.76600000000013 1089.25 284.2350000000001 1096.92 286.5240000000001C1097 286.5480000000001 1097.0800000000002 286.55900000000014 1097.16 286.55900000000014C1097.51 286.55900000000014 1097.8400000000001 286.33200000000016 1097.95 285.98000000000013C1098.0800000000002 285.5480000000001 1097.8300000000002 285.09300000000013 1097.4 284.96200000000016ZM1051.48 275.648L1047.15 268.31800000000004C1047.23 268.25600000000003 1047.3100000000002 268.19000000000005 1047.38 268.12300000000005L1054.25 273.27600000000007C1053.45 274.17800000000005 1052.52 274.97800000000007 1051.48 275.6480000000001ZM1041.27 266.148C1040.37 264.619 1040.9 262.65000000000003 1042.45 261.759C1042.96 261.464 1043.53 261.324 1044.0800000000002 261.324C1045.2 261.324 1046.3000000000002 261.89500000000004 1046.9 262.918C1047.3400000000001 263.659 1047.46 264.523 1047.24 265.35200000000003C1047.02 266.18100000000004 1046.48 266.87500000000006 1045.73 267.307C1044.17 268.197 1042.18 267.678 1041.27 266.148ZM1043.84 269.365L1045 277.79200000000003C1044.7 277.81100000000004 1044.41 277.821 1044.11 277.821C1043.1799999999998 277.821 1042.25 277.72400000000005 1041.34 277.538L1043.54 269.34000000000003C1043.6399999999999 269.35200000000003 1043.74 269.36 1043.84 269.365ZM1045.49 269.172C1045.56 269.151 1045.63 269.129 1045.7 269.105L1050.05 276.458C1048.95 276.992 1047.8 277.365 1046.6399999999999 277.584ZM1055.26 271.985L1048.41 266.841C1048.45 266.764 1048.49 266.68600000000004 1048.53 266.606L1056.87 268.776C1056.4799999999998 269.92400000000004 1055.9399999999998 271.00100000000003 1055.26 271.985ZM1057.3 267.201L1048.98 265.035C1048.98 264.94800000000004 1048.99 264.86100000000005 1049 264.774L1057.55 263.633C1057.6299999999999 264.817 1057.55 266.015 1057.3 267.20099999999996ZM1057.34 262.015L1048.8 263.154C1048.77 263.07099999999997 1048.75 262.989 1048.72 262.907L1056.17 258.62899999999996C1056.72 259.71299999999997 1057.1100000000001 260.84999999999997 1057.3400000000001 262.015ZM1055.35 257.214L1047.8999999999999 261.485C1047.85 261.416 1047.79 261.35 1047.7299999999998 261.286L1052.9599999999998 254.518C1053.87 255.299 1054.6699999999998 256.202 1055.35 257.214ZM1046.43 260.279C1046.3500000000001 260.237 1046.27 260.199 1046.19 260.161L1048.39 251.941C1049.5600000000002 252.326 1050.65 252.857 1051.65 253.52100000000002ZM1044.07 251.236C1044.97 251.236 1045.8899999999999 251.32899999999998 1046.8 251.51399999999998L1044.6 259.721C1044.51 259.712 1044.4199999999998 259.705 1044.33 259.701L1043.1699999999998 251.26600000000002C1043.4699999999998 251.246 1043.7699999999998 251.23600000000002 1044.07 251.23600000000002ZM1041.53 251.477L1042.69 259.89300000000003C1042.6100000000001 259.91700000000003 1042.52 259.94500000000005 1042.44 259.97400000000005L1038.0900000000001 252.62500000000006C1039.19 252.08500000000006 1040.3500000000001 251.70200000000006 1041.5300000000002 251.47700000000006ZM1036.66 253.439L1040.99 260.77299999999997C1040.92 260.82699999999994 1040.86 260.88399999999996 1040.79 260.94199999999995L1033.92 255.79099999999994C1034.71 254.90599999999995 1035.6200000000001 254.11199999999994 1036.66 253.43899999999994ZM1032.92 257.084L1039.77 262.225C1039.73 262.302 1039.69 262.38 1039.65 262.458L1031.3100000000002 260.29C1031.7000000000003 259.161 1032.2300000000002 258.082 1032.92 257.084ZM1030.88 261.865L1039.2 264.029C1039.19 264.115 1039.19 264.202 1039.18 264.289L1030.63 265.431C1030.5500000000002 264.231 1030.64 263.031 1030.88 261.865ZM1030.84 267.049L1039.3799999999999 265.909C1039.3999999999999 265.993 1039.4299999999998 266.07599999999996 1039.4599999999998 266.159L1031.9999999999998 270.437C1031.4499999999998 269.343 1031.0699999999997 268.20300000000003 1030.8399999999997 267.04900000000004ZM1032.83 271.851L1040.27 267.581C1040.33 267.649 1040.3799999999999 267.716 1040.44 267.78000000000003L1035.22 274.545C1034.32 273.773 1033.51 272.873 1032.83 271.851ZM1036.53 275.538L1041.75 268.786C1041.81 268.822 1041.88 268.857 1041.95 268.889L1039.75 277.10900000000004C1038.61 276.73100000000005 1037.53 276.20400000000006 1036.53 275.538ZM1049.11 281.281C1046.57 281.632 1044.02 282.073 1041.53 282.591C1040.99 282.704 1040.44 282.82300000000004 1039.8899999999999 282.946L1040.9199999999998 279.117C1041.9699999999998 279.338 1043.0399999999997 279.452 1044.11 279.452C1044.4799999999998 279.452 1044.85 279.438 1045.2199999999998 279.411L1045.2599999999998 279.69C1045.3199999999997 280.099 1045.6699999999998 280.396 1046.0799999999997 280.396C1046.1199999999997 280.396 1046.1499999999996 280.394 1046.1899999999996 280.389C1046.6399999999996 280.329 1046.9599999999996 279.918 1046.8999999999996 279.471L1046.8599999999997 279.202C1048.2299999999996 278.952 1049.5799999999997 278.511 1050.8799999999997 277.87L1052.6399999999996 280.851C1051.4599999999996 280.977 1050.2899999999997 281.11899999999997 1049.1099999999997 281.281ZM1088.32 278.13H1089.06C1089.85 278.13 1090.59 277.89 1091.2 277.48V282.37600000000003C1089.54 281.94500000000005 1088.32 280.458 1088.32 278.694ZM1090.03 272.524C1090.75 272.884 1091.2 273.602 1091.2 274.397C1091.2 275.556 1090.24 276.49899999999997 1089.06 276.49899999999997H1088.32V271.664ZM1086.26 267.526C1086.35 267.565 1086.66 267.723 1086.66 268.12600000000003V278.694C1086.66 280.26800000000003 1087.3400000000001 281.687 1088.43 282.68100000000004C1087.1200000000001 282.40500000000003 1085.8100000000002 282.15200000000004 1084.49 281.92100000000005V268.70200000000006L1085.54 267.66800000000006C1085.83 267.38300000000004 1086.1599999999999 267.48800000000006 1086.26 267.52600000000007ZM1066.15 268.317C1066.63 268.79200000000003 1067.17 269.196 1067.76 269.522C1067.6 270.057 1067.51 270.617 1067.51 271.19C1067.51 271.214 1067.52 271.238 1067.52 271.262H1067.51V280.24C1066.8799999999999 280.225 1066.24 280.21500000000003 1065.61 280.21000000000004V267.71700000000004C1065.78 267.92500000000007 1065.9599999999998 268.12600000000003 1066.1499999999999 268.31700000000006ZM1069.17 275.257C1069.2 275.291 1069.23 275.325 1069.27 275.358C1069.87 275.951 1070.58 276.4 1071.35 276.692V280.397C1070.62 280.355 1069.8999999999999 280.32 1069.1699999999998 280.292ZM1070.44 274.205C1069.6200000000001 273.399 1069.17 272.328 1069.17 271.19C1069.17 270.051 1069.6200000000001 268.981 1070.44 268.175L1070.52 268.092C1071.34 267.286 1072.43 266.84299999999996 1073.58 266.84299999999996C1074.74 266.84299999999996 1075.83 267.28599999999994 1076.6399999999999 268.092L1079.6999999999998 271.10699999999997L1076.5599999999997 274.205C1075.7399999999998 275.01099999999997 1074.6599999999996 275.454 1073.4999999999998 275.454C1072.3399999999997 275.454 1071.2599999999998 275.01 1070.4399999999998 274.205ZM1077.73 275.358L1079 274.105V281.09700000000004C1078.28 281.00600000000003 1077.56 280.922 1076.83 280.845V276.08900000000006C1077.1499999999999 275.87700000000007 1077.4499999999998 275.63300000000004 1077.73 275.35800000000006ZM1080.66 272.473L1082.8300000000002 270.333V281.64200000000005C1082.1100000000001 281.52700000000004 1081.39 281.41800000000006 1080.66 281.31600000000003ZM1067.43 258.899C1069.72 256.65 1073.43 256.65 1075.71 258.899L1083.9 266.97L1080.88 269.95300000000003L1077.8100000000002 266.93800000000005C1076.68 265.82500000000005 1075.18 265.21100000000007 1073.5800000000002 265.21100000000007C1071.9900000000002 265.21100000000007 1070.4800000000002 265.82500000000005 1069.3500000000001 266.93800000000005L1069.2700000000002 267.0210000000001C1068.9500000000003 267.3310000000001 1068.6800000000003 267.6700000000001 1068.4500000000003 268.03100000000006C1068.0400000000002 267.7900000000001 1067.6600000000003 267.50000000000006 1067.3200000000002 267.16400000000004C1066.2200000000003 266.07300000000004 1065.6100000000001 264.62500000000006 1065.6100000000001 263.08500000000004C1065.6100000000001 261.54600000000005 1066.22 260.09700000000004 1067.3200000000002 259.009ZM1063.56 239.502C1064.47 239.502 1065.21 240.233 1065.21 241.133C1065.21 242.032 1064.47 242.764 1063.56 242.764C1062.6399999999999 242.764 1061.8999999999999 242.032 1061.8999999999999 241.133C1061.8999999999999 240.233 1062.6399999999999 239.502 1063.56 239.502ZM1058.04 246.237C1057.53 246.237 1057.11 245.82399999999998 1057.11 245.316C1057.11 244.808 1057.53 244.395 1058.04 244.395H1069.07C1069.59 244.395 1070 244.80800000000002 1070 245.316C1070 245.824 1069.59 246.237 1069.07 246.237ZM1062.43 247.868H1064.68V250.051H1062.43ZM1062.43 251.682H1064.68V259.89C1064.23 260.828 1063.98 261.858 1063.95 262.924V277.339H1062.43ZM1060.23 278.97H1063.95V280.211C1062.71 280.22 1061.47 280.249 1060.23 280.298ZM1073 280.504V277.064C1073.17 277.077 1073.33 277.08500000000004 1073.5 277.08500000000004C1074.08 277.08500000000004 1074.64 277.00500000000005 1075.18 276.85100000000006V280.68100000000004C1074.5900000000001 280.62700000000007 1074 280.57700000000006 1073.42 280.53200000000004C1073.28 280.52200000000005 1073.14 280.51400000000007 1073 280.504ZM1046.27 265.1C1046.42 264.526 1046.34 263.928 1046.04 263.415C1045.73 262.90200000000004 1045.25 262.536 1044.6599999999999 262.384C1044.08 262.232 1043.4699999999998 262.314 1042.9499999999998 262.613C1042.4299999999998 262.911 1042.0599999999997 263.392 1041.9099999999999 263.966C1041.7499999999998 264.54 1041.83 265.139 1042.1399999999999 265.652C1042.56 266.36 1043.31 266.755 1044.09 266.755C1044.48 266.755 1044.87 266.658 1045.22 266.454C1045.74 266.15500000000003 1046.1100000000001 265.67400000000004 1046.27 265.1ZM1044.67 264.684C1044.63 264.83700000000005 1044.53 264.96500000000003 1044.39 265.04400000000004C1044.1000000000001 265.208 1043.74 265.112 1043.5700000000002 264.831C1043.4900000000002 264.694 1043.4700000000003 264.535 1043.5100000000002 264.382C1043.5500000000002 264.229 1043.6500000000003 264.10200000000003 1043.7900000000002 264.022C1043.88 263.969 1043.9800000000002 263.941 1044.0900000000001 263.941C1044.14 263.941 1044.19 263.948 1044.2400000000002 263.96099999999996C1044.4000000000003 264.00199999999995 1044.5300000000002 264.09899999999993 1044.6100000000001 264.23499999999996C1044.6100000000001 264.23499999999996 1044.6100000000001 264.23499999999996 1044.6100000000001 264.23599999999993C1044.69 264.37199999999996 1044.71 264.53099999999995 1044.67 264.6839999999999ZM1068.34 266.254C1068.8 266.254 1069.1699999999998 265.889 1069.1699999999998 265.43800000000005V261.177C1069.1699999999998 260.726 1068.8 260.36100000000005 1068.34 260.36100000000005C1067.8899999999999 260.36100000000005 1067.51 260.72600000000006 1067.51 261.177V265.43800000000005C1067.51 265.88900000000007 1067.89 266.254 1068.34 266.254ZM1072.17 268.561C1071.72 268.561 1071.3500000000001 268.926 1071.3500000000001 269.37699999999995V273.05099999999993C1071.3500000000001 273.50199999999995 1071.72 273.8669999999999 1072.17 273.8669999999999C1072.63 273.8669999999999 1073 273.5019999999999 1073 273.05099999999993V269.37699999999995C1073 268.92599999999993 1072.63 268.561 1072.17 268.561ZM1072.17 264.516C1072.63 264.516 1073 264.151 1073 263.701V259.259C1073 258.809 1072.63 258.44300000000004 1072.17 258.44300000000004C1071.72 258.44300000000004 1071.3500000000001 258.809 1071.3500000000001 259.259V263.701C1071.3500000000001 264.151 1071.72 264.516 1072.17 264.516ZM1076 273.027C1076.46 273.027 1076.83 272.661 1076.83 272.211V270.12600000000003C1076.83 269.675 1076.46 269.31000000000006 1076 269.31000000000006C1075.55 269.31000000000006 1075.18 269.67500000000007 1075.18 270.12600000000003V272.211C1075.18 272.661 1075.55 273.027 1076 273.027ZM1076 264.623C1076.46 264.623 1076.83 264.258 1076.83 263.807V261.821C1076.83 261.37100000000004 1076.46 261.00500000000005 1076 261.00500000000005C1075.55 261.00500000000005 1075.18 261.37100000000004 1075.18 261.821V263.807C1075.18 264.257 1075.55 264.623 1076 264.623ZM1079.83 267.366C1080.29 267.366 1080.6599999999999 267.001 1080.6599999999999 266.551V265.537C1080.6599999999999 265.087 1080.29 264.722 1079.83 264.722C1079.37 264.722 1079 265.087 1079 265.537V266.551C1079 267.001 1079.37 267.366 1079.83 267.366ZM1037.36 242.614C1037.3899999999999 243.043 1037.75 243.377 1038.1899999999998 243.377H1051.4399999999998C1051.83 243.377 1052.1599999999999 243.11700000000002 1052.2499999999998 242.74900000000002C1052.3199999999997 242.46200000000002 1052.3499999999997 242.175 1052.3499999999997 241.89400000000003C1052.3499999999997 239.85000000000002 1050.6699999999996 238.18600000000004 1048.5899999999997 238.18600000000004C1048.0599999999997 238.18600000000004 1047.5399999999997 238.29500000000004 1047.0699999999997 238.50500000000002C1046.2499999999998 237.562 1045.0399999999997 237.00000000000003 1043.7499999999998 237.00000000000003C1042.1299999999999 237.00000000000003 1040.6299999999999 237.90800000000002 1039.8899999999999 239.30300000000003C1038.4299999999998 239.62100000000004 1037.35 240.90100000000004 1037.35 242.41300000000004C1037.35 242.47200000000004 1037.36 242.52900000000005 1037.36 242.58700000000005ZM1040.5 240.861C1040.82 240.843 1041.11 240.64 1041.22 240.34099999999998C1041.6200000000001 239.31799999999998 1042.64 238.63099999999997 1043.75 238.63099999999997C1044.72 238.63099999999997 1045.63 239.15099999999998 1046.11 239.98699999999997C1046.2299999999998 240.19099999999997 1046.4299999999998 240.33499999999998 1046.6599999999999 240.38299999999995C1046.8899999999999 240.43099999999995 1047.1399999999999 240.37699999999995 1047.33 240.23699999999997C1047.6999999999998 239.96299999999997 1048.1299999999999 239.81799999999996 1048.59 239.81799999999996C1049.6999999999998 239.81799999999996 1050.62 240.66999999999996 1050.6899999999998 241.74599999999995H1039.1599999999999C1039.3999999999999 241.24899999999994 1039.9099999999999 240.89499999999995 1040.4999999999998 240.86099999999996ZM1074.39 249.878C1074.42 250.308 1074.7800000000002 250.64399999999998 1075.22 250.64399999999998H1091.79C1092.17 250.64399999999998 1092.51 250.384 1092.6 250.016C1092.6799999999998 249.672 1092.7199999999998 249.328 1092.7199999999998 248.994C1092.7199999999998 247.218 1091.6499999999999 245.684 1090.12 244.978C1090.1399999999999 244.82500000000002 1090.1499999999999 244.672 1090.1499999999999 244.518C1090.1499999999999 242.187 1088.2199999999998 240.291 1085.86 240.291C1084.02 240.291 1082.4199999999998 241.435 1081.82 243.093C1079.97 243.219 1078.31 244.313 1077.48 245.93599999999998C1075.71 246.278 1074.38 247.81699999999998 1074.38 249.64299999999997C1074.38 249.70899999999997 1074.39 249.77399999999997 1074.39 249.83899999999997ZM1085.86 241.922C1087.31 241.922 1088.49 243.087 1088.49 244.518C1088.49 244.536 1088.49 244.554 1088.49 244.572C1088.4 244.567 1088.31 244.56300000000002 1088.22 244.56300000000002C1087.54 244.56300000000002 1086.8700000000001 244.716 1086.26 245.00900000000001C1085.57 244.15800000000002 1084.61 243.55 1083.55 243.264C1084 242.455 1084.87 241.922 1085.86 241.922ZM1078.1 247.5C1078.4199999999998 247.482 1078.6999999999998 247.278 1078.82 246.979C1079.35 245.62300000000002 1080.7 244.71200000000002 1082.1699999999998 244.71200000000002C1083.4599999999998 244.71200000000002 1084.6599999999999 245.401 1085.3 246.51000000000002C1085.4199999999998 246.71400000000003 1085.62 246.85800000000003 1085.85 246.906C1086.09 246.954 1086.33 246.9 1086.52 246.75900000000001C1087.02 246.39000000000001 1087.61 246.19500000000002 1088.22 246.19500000000002C1089.79 246.19500000000002 1091.06 247.45100000000002 1091.06 248.99400000000003C1091.06 249.00000000000003 1091.06 249.00600000000003 1091.06 249.01300000000003H1076.1399999999999C1076.3999999999999 248.17600000000004 1077.1699999999998 247.55200000000002 1078.1 247.50000000000003Z " fill="#000000" fill-opacity="1" transform="matrix(1,0,0,1,-1027,-237)"></path><path id="SvgjsPath1184" d="M1097.4 284.962C1095.89 284.513 1094.38 284.096 1092.8500000000001 283.709V274.962L1092.8000000000002 275.007C1092.8300000000002 274.809 1092.8500000000001 274.605 1092.8500000000001 274.397C1092.8500000000001 272.986 1092.0600000000002 271.711 1090.7800000000002 271.07L1088.3200000000002 269.83299999999997V268.126C1088.3200000000002 267.186 1087.7700000000002 266.37899999999996 1086.89 266.01899999999995C1086.3400000000001 265.79499999999996 1085.76 265.78499999999997 1085.23 265.96999999999997L1080.84 261.64C1081.05 261.64 1081.27 261.553 1081.4199999999998 261.4C1081.57 261.24899999999997 1081.6599999999999 261.03799999999995 1081.6599999999999 260.825C1081.6599999999999 260.61 1081.57 260.399 1081.4199999999998 260.248C1081.2699999999998 260.09499999999997 1081.05 260.009 1080.84 260.009C1080.62 260.009 1080.3999999999999 260.095 1080.25 260.248C1080.1 260.399 1080.01 260.609 1080.01 260.824L1079.41 260.232C1079.6200000000001 260.23100000000005 1079.8300000000002 260.151 1079.99 259.99300000000005C1080.31 259.67400000000004 1080.31 259.1580000000001 1079.99 258.83900000000006C1079.67 258.52000000000004 1079.14 258.52000000000004 1078.82 258.83900000000006C1078.6599999999999 258.99700000000007 1078.58 259.2060000000001 1078.58 259.41400000000004L1077.98 258.82300000000004C1078.19 258.82200000000006 1078.4 258.742 1078.56 258.58400000000006C1078.8799999999999 258.26500000000004 1078.8799999999999 257.74800000000005 1078.56 257.43000000000006C1078.24 257.11100000000005 1077.71 257.11100000000005 1077.3899999999999 257.43000000000006C1077.2299999999998 257.58900000000006 1077.1499999999999 257.7970000000001 1077.1499999999999 258.0060000000001L1076.8799999999999 257.74500000000006C1076.76 257.62800000000004 1076.6399999999999 257.5180000000001 1076.52 257.41100000000006C1076.53 257.41100000000006 1076.54 257.41400000000004 1076.55 257.41400000000004C1076.76 257.41400000000004 1076.98 257.326 1077.1299999999999 257.17500000000007C1077.28 257.02200000000005 1077.37 256.81200000000007 1077.37 256.59800000000007C1077.37 256.3830000000001 1077.28 256.17300000000006 1077.1299999999999 256.0210000000001C1076.9799999999998 255.86900000000009 1076.76 255.78300000000007 1076.55 255.78300000000007C1076.33 255.78300000000007 1076.11 255.86900000000009 1075.96 256.0210000000001C1075.81 256.17300000000006 1075.72 256.3830000000001 1075.72 256.59800000000007C1075.72 256.6790000000001 1075.73 256.75700000000006 1075.76 256.83400000000006C1072.87 254.92100000000005 1068.92 255.20100000000005 1066.34 257.67100000000005V251.68200000000004H1066.57C1067.02 251.68200000000004 1067.3899999999999 251.31700000000004 1067.3899999999999 250.86600000000004C1067.3899999999999 250.41600000000005 1067.02 250.05100000000004 1066.57 250.05100000000004H1066.34V247.86800000000005H1069.07C1070.5 247.86800000000005 1071.6599999999999 246.72300000000004 1071.6599999999999 245.31600000000006C1071.6599999999999 243.90900000000005 1070.4999999999998 242.76400000000007 1069.07 242.76400000000007H1066.4199999999998C1066.6999999999998 242.28400000000008 1066.87 241.72700000000006 1066.87 241.13300000000007C1066.87 239.33400000000006 1065.3799999999999 237.87000000000006 1063.56 237.87000000000006C1061.73 237.87000000000006 1060.24 239.33400000000006 1060.24 241.13300000000007C1060.24 241.72700000000006 1060.41 242.28400000000008 1060.69 242.76400000000007H1058.04C1056.61 242.76400000000007 1055.45 243.90900000000008 1055.45 245.31600000000006C1055.45 246.72300000000007 1056.6100000000001 247.86800000000005 1058.04 247.86800000000005H1060.77V250.05100000000004H1060.54C1060.09 250.05100000000004 1059.72 250.41600000000005 1059.72 250.86600000000004C1059.72 251.31700000000004 1060.09 251.68200000000004 1060.54 251.68200000000004H1060.77V277.33900000000006H1059.41C1058.95 277.33900000000006 1058.5800000000002 277.70400000000006 1058.5800000000002 278.15400000000005V280.37600000000003C1057.2 280.45000000000005 1055.8300000000002 280.55 1054.45 280.67400000000004L1052.32 277.06000000000006C1053.55 276.2780000000001 1054.6399999999999 275.33700000000005 1055.58 274.2680000000001L1055.8 274.4330000000001C1055.95 274.5460000000001 1056.12 274.6000000000001 1056.3 274.6000000000001C1056.55 274.6000000000001 1056.79 274.49000000000007 1056.96 274.27900000000005C1057.23 273.92100000000005 1057.16 273.40900000000005 1056.8 273.1360000000001L1056.59 272.97600000000006C1057.3899999999999 271.82200000000006 1058.02 270.55100000000004 1058.48 269.1940000000001L1058.75 269.2660000000001C1058.82 269.28400000000005 1058.89 269.29300000000006 1058.96 269.29300000000006C1059.33 269.29300000000006 1059.66 269.05100000000004 1059.76 268.68500000000006C1059.8799999999999 268.25000000000006 1059.62 267.80300000000005 1059.17 267.68800000000005L1058.91 267.619C1059.21 266.221 1059.3000000000002 264.80800000000005 1059.2 263.41400000000004L1059.47 263.37700000000007C1059.93 263.31700000000006 1060.24 262.90600000000006 1060.18 262.45900000000006C1060.1200000000001 262.01300000000003 1059.7 261.70000000000005 1059.25 261.76000000000005L1058.98 261.79600000000005C1058.72 260.42100000000005 1058.26 259.07900000000006 1057.6100000000001 257.80500000000006L1057.8500000000001 257.66400000000004C1058.2500000000002 257.43700000000007 1058.38 256.93800000000005 1058.15 256.54900000000004C1057.92 256.16 1057.41 256.028 1057.02 256.25500000000005L1056.78 256.3910000000001C1055.99 255.19300000000007 1055.04 254.12700000000007 1053.97 253.2150000000001L1054.14 252.9970000000001C1054.41 252.6390000000001 1054.3400000000001 252.1270000000001 1053.98 251.8540000000001C1053.6200000000001 251.5820000000001 1053.1 251.6510000000001 1052.82 252.0090000000001L1052.6599999999999 252.2200000000001C1051.4799999999998 251.42900000000012 1050.1899999999998 250.8010000000001 1048.81 250.3570000000001C1048.8799999999999 249.9460000000001 1048.6299999999999 249.54400000000012 1048.21 249.43600000000012C1047.8 249.32800000000012 1047.3700000000001 249.54900000000012 1047.22 249.9340000000001C1045.8 249.6360000000001 1044.3700000000001 249.54300000000012 1042.95 249.6460000000001L1042.91 249.3750000000001C1042.8500000000001 248.9280000000001 1042.44 248.61600000000013 1041.98 248.6760000000001C1041.53 248.7370000000001 1041.21 249.1480000000001 1041.27 249.5940000000001L1041.31 249.8560000000001C1039.9099999999999 250.11400000000012 1038.55 250.5680000000001 1037.26 251.2140000000001L1037.12 250.97200000000012C1036.8899999999999 250.58200000000014 1036.3799999999999 250.45000000000013 1035.9799999999998 250.67700000000013C1035.5899999999997 250.90300000000013 1035.4499999999998 251.40200000000013 1035.6799999999998 251.79200000000014L1035.82 252.02700000000016C1034.6 252.81400000000016 1033.52 253.75200000000015 1032.61 254.80100000000016L1032.3799999999999 254.63200000000015C1032.01 254.35900000000015 1031.4999999999998 254.42800000000014 1031.2199999999998 254.78700000000015C1030.9399999999998 255.14500000000015 1031.0099999999998 255.65700000000015 1031.3799999999999 255.93000000000015L1031.6 256.0960000000002C1030.78 257.26700000000017 1030.1499999999999 258.5400000000002 1029.7099999999998 259.87300000000016L1029.4199999999998 259.8000000000002C1028.9799999999998 259.6850000000002 1028.5299999999997 259.94500000000016 1028.4099999999999 260.3810000000002C1028.3 260.8160000000002 1028.56 261.2630000000002 1028.9999999999998 261.3770000000002L1029.2799999999997 261.4480000000002C1028.9799999999998 262.8210000000002 1028.8799999999997 264.2370000000002 1028.9899999999998 265.6510000000002L1028.6999999999998 265.68800000000016C1028.2499999999998 265.74900000000014 1027.9299999999998 266.16000000000014 1027.9899999999998 266.60600000000017C1028.0499999999997 267.0160000000002 1028.3999999999999 267.3120000000002 1028.8099999999997 267.3120000000002C1028.8499999999997 267.3120000000002 1028.8899999999996 267.3100000000002 1028.9199999999996 267.3050000000002L1029.1999999999996 267.2680000000002C1029.4499999999996 268.6290000000002 1029.9099999999996 269.9730000000002 1030.5699999999995 271.2600000000002L1030.3199999999995 271.40100000000024C1029.9299999999994 271.62700000000024 1029.7899999999995 272.12600000000026 1030.0199999999995 272.51600000000025C1030.1799999999996 272.77600000000024 1030.4499999999996 272.92200000000025 1030.7399999999996 272.92200000000025C1030.8799999999997 272.92200000000025 1031.0199999999995 272.88600000000025 1031.1599999999996 272.81100000000026L1031.3999999999996 272.6730000000003C1032.1899999999996 273.8840000000003 1033.1399999999996 274.9450000000003 1034.2099999999996 275.84700000000026L1034.0399999999995 276.06800000000027C1033.7599999999995 276.4260000000003 1033.8299999999995 276.9380000000003 1034.1999999999996 277.21100000000024C1034.3399999999997 277.32300000000026 1034.5199999999995 277.3780000000002 1034.6999999999996 277.3780000000002C1034.9499999999996 277.3780000000002 1035.1899999999996 277.2670000000002 1035.3599999999997 277.0560000000002L1035.5199999999998 276.8390000000002C1036.6999999999998 277.63200000000023 1037.9799999999998 278.25400000000025 1039.3199999999997 278.6910000000002L1038.0699999999997 283.3680000000002C1036.0799999999997 283.8470000000002 1034.0899999999997 284.3800000000002 1032.1399999999996 284.9620000000002C1031.7099999999996 285.0930000000002 1031.4599999999996 285.5490000000002 1031.5899999999997 285.9800000000002C1031.7199999999998 286.4110000000002 1032.1899999999996 286.65400000000017 1032.6199999999997 286.52400000000017C1034.2599999999998 286.0350000000002 1035.9199999999996 285.5830000000002 1037.5899999999997 285.1680000000002L1037.3699999999997 285.97600000000017C1037.2499999999998 286.4110000000002 1037.5199999999998 286.8580000000002 1037.9599999999996 286.97200000000015C1038.0299999999995 286.99100000000016 1038.0999999999997 287.00000000000017 1038.1699999999996 287.00000000000017C1038.5399999999995 287.00000000000017 1038.8699999999997 286.75800000000015 1038.9699999999996 286.39200000000017L1039.4199999999996 284.7280000000002C1040.2399999999996 284.5380000000002 1041.0599999999997 284.3580000000002 1041.8799999999997 284.18800000000016C1044.3299999999997 283.67700000000013 1046.8399999999997 283.24300000000017 1049.3399999999997 282.89700000000016C1050.7399999999998 282.70300000000015 1052.1499999999996 282.5380000000002 1053.5599999999997 282.39700000000016L1054.9999999999998 284.84500000000014C1055.1599999999999 285.10500000000013 1055.4299999999998 285.2500000000001 1055.7199999999998 285.2500000000001C1055.86 285.2500000000001 1055.9999999999998 285.2140000000001 1056.1299999999999 285.1390000000001C1056.53 284.91200000000015 1056.6599999999999 284.4130000000001 1056.4299999999998 284.0240000000001L1055.37 282.23000000000013C1061.33 281.7330000000001 1067.33 281.70800000000014 1073.29 282.1590000000001C1081.3 282.76600000000013 1089.25 284.2350000000001 1096.92 286.5240000000001C1097 286.5480000000001 1097.0800000000002 286.55900000000014 1097.16 286.55900000000014C1097.51 286.55900000000014 1097.8400000000001 286.33200000000016 1097.95 285.98000000000013C1098.0800000000002 285.5480000000001 1097.8300000000002 285.09300000000013 1097.4 284.96200000000016ZM1051.48 275.648L1047.15 268.31800000000004C1047.23 268.25600000000003 1047.3100000000002 268.19000000000005 1047.38 268.12300000000005L1054.25 273.27600000000007C1053.45 274.17800000000005 1052.52 274.97800000000007 1051.48 275.6480000000001ZM1041.27 266.148C1040.37 264.619 1040.9 262.65000000000003 1042.45 261.759C1042.96 261.464 1043.53 261.324 1044.0800000000002 261.324C1045.2 261.324 1046.3000000000002 261.89500000000004 1046.9 262.918C1047.3400000000001 263.659 1047.46 264.523 1047.24 265.35200000000003C1047.02 266.18100000000004 1046.48 266.87500000000006 1045.73 267.307C1044.17 268.197 1042.18 267.678 1041.27 266.148ZM1043.84 269.365L1045 277.79200000000003C1044.7 277.81100000000004 1044.41 277.821 1044.11 277.821C1043.1799999999998 277.821 1042.25 277.72400000000005 1041.34 277.538L1043.54 269.34000000000003C1043.6399999999999 269.35200000000003 1043.74 269.36 1043.84 269.365ZM1045.49 269.172C1045.56 269.151 1045.63 269.129 1045.7 269.105L1050.05 276.458C1048.95 276.992 1047.8 277.365 1046.6399999999999 277.584ZM1055.26 271.985L1048.41 266.841C1048.45 266.764 1048.49 266.68600000000004 1048.53 266.606L1056.87 268.776C1056.4799999999998 269.92400000000004 1055.9399999999998 271.00100000000003 1055.26 271.985ZM1057.3 267.201L1048.98 265.035C1048.98 264.94800000000004 1048.99 264.86100000000005 1049 264.774L1057.55 263.633C1057.6299999999999 264.817 1057.55 266.015 1057.3 267.20099999999996ZM1057.34 262.015L1048.8 263.154C1048.77 263.07099999999997 1048.75 262.989 1048.72 262.907L1056.17 258.62899999999996C1056.72 259.71299999999997 1057.1100000000001 260.84999999999997 1057.3400000000001 262.015ZM1055.35 257.214L1047.8999999999999 261.485C1047.85 261.416 1047.79 261.35 1047.7299999999998 261.286L1052.9599999999998 254.518C1053.87 255.299 1054.6699999999998 256.202 1055.35 257.214ZM1046.43 260.279C1046.3500000000001 260.237 1046.27 260.199 1046.19 260.161L1048.39 251.941C1049.5600000000002 252.326 1050.65 252.857 1051.65 253.52100000000002ZM1044.07 251.236C1044.97 251.236 1045.8899999999999 251.32899999999998 1046.8 251.51399999999998L1044.6 259.721C1044.51 259.712 1044.4199999999998 259.705 1044.33 259.701L1043.1699999999998 251.26600000000002C1043.4699999999998 251.246 1043.7699999999998 251.23600000000002 1044.07 251.23600000000002ZM1041.53 251.477L1042.69 259.89300000000003C1042.6100000000001 259.91700000000003 1042.52 259.94500000000005 1042.44 259.97400000000005L1038.0900000000001 252.62500000000006C1039.19 252.08500000000006 1040.3500000000001 251.70200000000006 1041.5300000000002 251.47700000000006ZM1036.66 253.439L1040.99 260.77299999999997C1040.92 260.82699999999994 1040.86 260.88399999999996 1040.79 260.94199999999995L1033.92 255.79099999999994C1034.71 254.90599999999995 1035.6200000000001 254.11199999999994 1036.66 253.43899999999994ZM1032.92 257.084L1039.77 262.225C1039.73 262.302 1039.69 262.38 1039.65 262.458L1031.3100000000002 260.29C1031.7000000000003 259.161 1032.2300000000002 258.082 1032.92 257.084ZM1030.88 261.865L1039.2 264.029C1039.19 264.115 1039.19 264.202 1039.18 264.289L1030.63 265.431C1030.5500000000002 264.231 1030.64 263.031 1030.88 261.865ZM1030.84 267.049L1039.3799999999999 265.909C1039.3999999999999 265.993 1039.4299999999998 266.07599999999996 1039.4599999999998 266.159L1031.9999999999998 270.437C1031.4499999999998 269.343 1031.0699999999997 268.20300000000003 1030.8399999999997 267.04900000000004ZM1032.83 271.851L1040.27 267.581C1040.33 267.649 1040.3799999999999 267.716 1040.44 267.78000000000003L1035.22 274.545C1034.32 273.773 1033.51 272.873 1032.83 271.851ZM1036.53 275.538L1041.75 268.786C1041.81 268.822 1041.88 268.857 1041.95 268.889L1039.75 277.10900000000004C1038.61 276.73100000000005 1037.53 276.20400000000006 1036.53 275.538ZM1049.11 281.281C1046.57 281.632 1044.02 282.073 1041.53 282.591C1040.99 282.704 1040.44 282.82300000000004 1039.8899999999999 282.946L1040.9199999999998 279.117C1041.9699999999998 279.338 1043.0399999999997 279.452 1044.11 279.452C1044.4799999999998 279.452 1044.85 279.438 1045.2199999999998 279.411L1045.2599999999998 279.69C1045.3199999999997 280.099 1045.6699999999998 280.396 1046.0799999999997 280.396C1046.1199999999997 280.396 1046.1499999999996 280.394 1046.1899999999996 280.389C1046.6399999999996 280.329 1046.9599999999996 279.918 1046.8999999999996 279.471L1046.8599999999997 279.202C1048.2299999999996 278.952 1049.5799999999997 278.511 1050.8799999999997 277.87L1052.6399999999996 280.851C1051.4599999999996 280.977 1050.2899999999997 281.11899999999997 1049.1099999999997 281.281ZM1088.32 278.13H1089.06C1089.85 278.13 1090.59 277.89 1091.2 277.48V282.37600000000003C1089.54 281.94500000000005 1088.32 280.458 1088.32 278.694ZM1090.03 272.524C1090.75 272.884 1091.2 273.602 1091.2 274.397C1091.2 275.556 1090.24 276.49899999999997 1089.06 276.49899999999997H1088.32V271.664ZM1086.26 267.526C1086.35 267.565 1086.66 267.723 1086.66 268.12600000000003V278.694C1086.66 280.26800000000003 1087.3400000000001 281.687 1088.43 282.68100000000004C1087.1200000000001 282.40500000000003 1085.8100000000002 282.15200000000004 1084.49 281.92100000000005V268.70200000000006L1085.54 267.66800000000006C1085.83 267.38300000000004 1086.1599999999999 267.48800000000006 1086.26 267.52600000000007ZM1066.15 268.317C1066.63 268.79200000000003 1067.17 269.196 1067.76 269.522C1067.6 270.057 1067.51 270.617 1067.51 271.19C1067.51 271.214 1067.52 271.238 1067.52 271.262H1067.51V280.24C1066.8799999999999 280.225 1066.24 280.21500000000003 1065.61 280.21000000000004V267.71700000000004C1065.78 267.92500000000007 1065.9599999999998 268.12600000000003 1066.1499999999999 268.31700000000006ZM1069.17 275.257C1069.2 275.291 1069.23 275.325 1069.27 275.358C1069.87 275.951 1070.58 276.4 1071.35 276.692V280.397C1070.62 280.355 1069.8999999999999 280.32 1069.1699999999998 280.292ZM1070.44 274.205C1069.6200000000001 273.399 1069.17 272.328 1069.17 271.19C1069.17 270.051 1069.6200000000001 268.981 1070.44 268.175L1070.52 268.092C1071.34 267.286 1072.43 266.84299999999996 1073.58 266.84299999999996C1074.74 266.84299999999996 1075.83 267.28599999999994 1076.6399999999999 268.092L1079.6999999999998 271.10699999999997L1076.5599999999997 274.205C1075.7399999999998 275.01099999999997 1074.6599999999996 275.454 1073.4999999999998 275.454C1072.3399999999997 275.454 1071.2599999999998 275.01 1070.4399999999998 274.205ZM1077.73 275.358L1079 274.105V281.09700000000004C1078.28 281.00600000000003 1077.56 280.922 1076.83 280.845V276.08900000000006C1077.1499999999999 275.87700000000007 1077.4499999999998 275.63300000000004 1077.73 275.35800000000006ZM1080.66 272.473L1082.8300000000002 270.333V281.64200000000005C1082.1100000000001 281.52700000000004 1081.39 281.41800000000006 1080.66 281.31600000000003ZM1067.43 258.899C1069.72 256.65 1073.43 256.65 1075.71 258.899L1083.9 266.97L1080.88 269.95300000000003L1077.8100000000002 266.93800000000005C1076.68 265.82500000000005 1075.18 265.21100000000007 1073.5800000000002 265.21100000000007C1071.9900000000002 265.21100000000007 1070.4800000000002 265.82500000000005 1069.3500000000001 266.93800000000005L1069.2700000000002 267.0210000000001C1068.9500000000003 267.3310000000001 1068.6800000000003 267.6700000000001 1068.4500000000003 268.03100000000006C1068.0400000000002 267.7900000000001 1067.6600000000003 267.50000000000006 1067.3200000000002 267.16400000000004C1066.2200000000003 266.07300000000004 1065.6100000000001 264.62500000000006 1065.6100000000001 263.08500000000004C1065.6100000000001 261.54600000000005 1066.22 260.09700000000004 1067.3200000000002 259.009ZM1063.56 239.502C1064.47 239.502 1065.21 240.233 1065.21 241.133C1065.21 242.032 1064.47 242.764 1063.56 242.764C1062.6399999999999 242.764 1061.8999999999999 242.032 1061.8999999999999 241.133C1061.8999999999999 240.233 1062.6399999999999 239.502 1063.56 239.502ZM1058.04 246.237C1057.53 246.237 1057.11 245.82399999999998 1057.11 245.316C1057.11 244.808 1057.53 244.395 1058.04 244.395H1069.07C1069.59 244.395 1070 244.80800000000002 1070 245.316C1070 245.824 1069.59 246.237 1069.07 246.237ZM1062.43 247.868H1064.68V250.051H1062.43ZM1062.43 251.682H1064.68V259.89C1064.23 260.828 1063.98 261.858 1063.95 262.924V277.339H1062.43ZM1060.23 278.97H1063.95V280.211C1062.71 280.22 1061.47 280.249 1060.23 280.298ZM1073 280.504V277.064C1073.17 277.077 1073.33 277.08500000000004 1073.5 277.08500000000004C1074.08 277.08500000000004 1074.64 277.00500000000005 1075.18 276.85100000000006V280.68100000000004C1074.5900000000001 280.62700000000007 1074 280.57700000000006 1073.42 280.53200000000004C1073.28 280.52200000000005 1073.14 280.51400000000007 1073 280.504ZM1046.27 265.1C1046.42 264.526 1046.34 263.928 1046.04 263.415C1045.73 262.90200000000004 1045.25 262.536 1044.6599999999999 262.384C1044.08 262.232 1043.4699999999998 262.314 1042.9499999999998 262.613C1042.4299999999998 262.911 1042.0599999999997 263.392 1041.9099999999999 263.966C1041.7499999999998 264.54 1041.83 265.139 1042.1399999999999 265.652C1042.56 266.36 1043.31 266.755 1044.09 266.755C1044.48 266.755 1044.87 266.658 1045.22 266.454C1045.74 266.15500000000003 1046.1100000000001 265.67400000000004 1046.27 265.1ZM1044.67 264.684C1044.63 264.83700000000005 1044.53 264.96500000000003 1044.39 265.04400000000004C1044.1000000000001 265.208 1043.74 265.112 1043.5700000000002 264.831C1043.4900000000002 264.694 1043.4700000000003 264.535 1043.5100000000002 264.382C1043.5500000000002 264.229 1043.6500000000003 264.10200000000003 1043.7900000000002 264.022C1043.88 263.969 1043.9800000000002 263.941 1044.0900000000001 263.941C1044.14 263.941 1044.19 263.948 1044.2400000000002 263.96099999999996C1044.4000000000003 264.00199999999995 1044.5300000000002 264.09899999999993 1044.6100000000001 264.23499999999996C1044.6100000000001 264.23499999999996 1044.6100000000001 264.23499999999996 1044.6100000000001 264.23599999999993C1044.69 264.37199999999996 1044.71 264.53099999999995 1044.67 264.6839999999999ZM1068.34 266.254C1068.8 266.254 1069.1699999999998 265.889 1069.1699999999998 265.43800000000005V261.177C1069.1699999999998 260.726 1068.8 260.36100000000005 1068.34 260.36100000000005C1067.8899999999999 260.36100000000005 1067.51 260.72600000000006 1067.51 261.177V265.43800000000005C1067.51 265.88900000000007 1067.89 266.254 1068.34 266.254ZM1072.17 268.561C1071.72 268.561 1071.3500000000001 268.926 1071.3500000000001 269.37699999999995V273.05099999999993C1071.3500000000001 273.50199999999995 1071.72 273.8669999999999 1072.17 273.8669999999999C1072.63 273.8669999999999 1073 273.5019999999999 1073 273.05099999999993V269.37699999999995C1073 268.92599999999993 1072.63 268.561 1072.17 268.561ZM1072.17 264.516C1072.63 264.516 1073 264.151 1073 263.701V259.259C1073 258.809 1072.63 258.44300000000004 1072.17 258.44300000000004C1071.72 258.44300000000004 1071.3500000000001 258.809 1071.3500000000001 259.259V263.701C1071.3500000000001 264.151 1071.72 264.516 1072.17 264.516ZM1076 273.027C1076.46 273.027 1076.83 272.661 1076.83 272.211V270.12600000000003C1076.83 269.675 1076.46 269.31000000000006 1076 269.31000000000006C1075.55 269.31000000000006 1075.18 269.67500000000007 1075.18 270.12600000000003V272.211C1075.18 272.661 1075.55 273.027 1076 273.027ZM1076 264.623C1076.46 264.623 1076.83 264.258 1076.83 263.807V261.821C1076.83 261.37100000000004 1076.46 261.00500000000005 1076 261.00500000000005C1075.55 261.00500000000005 1075.18 261.37100000000004 1075.18 261.821V263.807C1075.18 264.257 1075.55 264.623 1076 264.623ZM1079.83 267.366C1080.29 267.366 1080.6599999999999 267.001 1080.6599999999999 266.551V265.537C1080.6599999999999 265.087 1080.29 264.722 1079.83 264.722C1079.37 264.722 1079 265.087 1079 265.537V266.551C1079 267.001 1079.37 267.366 1079.83 267.366ZM1037.36 242.614C1037.3899999999999 243.043 1037.75 243.377 1038.1899999999998 243.377H1051.4399999999998C1051.83 243.377 1052.1599999999999 243.11700000000002 1052.2499999999998 242.74900000000002C1052.3199999999997 242.46200000000002 1052.3499999999997 242.175 1052.3499999999997 241.89400000000003C1052.3499999999997 239.85000000000002 1050.6699999999996 238.18600000000004 1048.5899999999997 238.18600000000004C1048.0599999999997 238.18600000000004 1047.5399999999997 238.29500000000004 1047.0699999999997 238.50500000000002C1046.2499999999998 237.562 1045.0399999999997 237.00000000000003 1043.7499999999998 237.00000000000003C1042.1299999999999 237.00000000000003 1040.6299999999999 237.90800000000002 1039.8899999999999 239.30300000000003C1038.4299999999998 239.62100000000004 1037.35 240.90100000000004 1037.35 242.41300000000004C1037.35 242.47200000000004 1037.36 242.52900000000005 1037.36 242.58700000000005ZM1040.5 240.861C1040.82 240.843 1041.11 240.64 1041.22 240.34099999999998C1041.6200000000001 239.31799999999998 1042.64 238.63099999999997 1043.75 238.63099999999997C1044.72 238.63099999999997 1045.63 239.15099999999998 1046.11 239.98699999999997C1046.2299999999998 240.19099999999997 1046.4299999999998 240.33499999999998 1046.6599999999999 240.38299999999995C1046.8899999999999 240.43099999999995 1047.1399999999999 240.37699999999995 1047.33 240.23699999999997C1047.6999999999998 239.96299999999997 1048.1299999999999 239.81799999999996 1048.59 239.81799999999996C1049.6999999999998 239.81799999999996 1050.62 240.66999999999996 1050.6899999999998 241.74599999999995H1039.1599999999999C1039.3999999999999 241.24899999999994 1039.9099999999999 240.89499999999995 1040.4999999999998 240.86099999999996ZM1074.39 249.878C1074.42 250.308 1074.7800000000002 250.64399999999998 1075.22 250.64399999999998H1091.79C1092.17 250.64399999999998 1092.51 250.384 1092.6 250.016C1092.6799999999998 249.672 1092.7199999999998 249.328 1092.7199999999998 248.994C1092.7199999999998 247.218 1091.6499999999999 245.684 1090.12 244.978C1090.1399999999999 244.82500000000002 1090.1499999999999 244.672 1090.1499999999999 244.518C1090.1499999999999 242.187 1088.2199999999998 240.291 1085.86 240.291C1084.02 240.291 1082.4199999999998 241.435 1081.82 243.093C1079.97 243.219 1078.31 244.313 1077.48 245.93599999999998C1075.71 246.278 1074.38 247.81699999999998 1074.38 249.64299999999997C1074.38 249.70899999999997 1074.39 249.77399999999997 1074.39 249.83899999999997ZM1085.86 241.922C1087.31 241.922 1088.49 243.087 1088.49 244.518C1088.49 244.536 1088.49 244.554 1088.49 244.572C1088.4 244.567 1088.31 244.56300000000002 1088.22 244.56300000000002C1087.54 244.56300000000002 1086.8700000000001 244.716 1086.26 245.00900000000001C1085.57 244.15800000000002 1084.61 243.55 1083.55 243.264C1084 242.455 1084.87 241.922 1085.86 241.922ZM1078.1 247.5C1078.4199999999998 247.482 1078.6999999999998 247.278 1078.82 246.979C1079.35 245.62300000000002 1080.7 244.71200000000002 1082.1699999999998 244.71200000000002C1083.4599999999998 244.71200000000002 1084.6599999999999 245.401 1085.3 246.51000000000002C1085.4199999999998 246.71400000000003 1085.62 246.85800000000003 1085.85 246.906C1086.09 246.954 1086.33 246.9 1086.52 246.75900000000001C1087.02 246.39000000000001 1087.61 246.19500000000002 1088.22 246.19500000000002C1089.79 246.19500000000002 1091.06 247.45100000000002 1091.06 248.99400000000003C1091.06 249.00000000000003 1091.06 249.00600000000003 1091.06 249.01300000000003H1076.1399999999999C1076.3999999999999 248.17600000000004 1077.1699999999998 247.55200000000002 1078.1 247.50000000000003Z " fill="url(#SvgjsLinearGradient1185)" transform="matrix(1,0,0,1,-1027,-237)"></path></svg>