<svg width="14" height="24" xmlns="http://www.w3.org/2000/svg"><g><path fill-rule="evenodd" d="M9.05.026c0 .012-.184.028-.41.036-.252.01-.41.024-.416.04-.005.014-.045.026-.09.026s-.085.01-.09.02C8.04.167 7.87.195 7.69.21c-.017 0-.024.01-.017.022.006.01-.02.02-.06.02-.04 0-.08.01-.088.02-.007.013-.067.03-.134.04-.066.007-.128.026-.137.04-.008.014-.03.02-.05.013-.017-.007-.048.003-.068.022-.02.02-.064.036-.098.036-.035 0-.063.012-.063.025 0 .014-.026.025-.057.025-.03 0-.077.016-.103.036-.026.02-.072.036-.103.036-.03 0-.054.01-.054.024 0 .022-.14.065-.18.054-.01-.002-.012.006-.003.02.008.014 0 .025-.02.025s-.04.01-.045.024c-.005.012-.035.026-.07.03-.032.003-.082.03-.11.06-.028.03-.08.06-.116.07-.036.008-.06.026-.053.038.007.012-.004.022-.024.022s-.05.02-.068.044c-.018.025-.062.053-.1.062-.036.01-.067.027-.067.04 0 .014-.015.025-.035.025-.02 0-.037.012-.037.025 0 .013-.016.024-.037.024-.02 0-.035.01-.035.025 0 .014-.01.02-.02.014-.01-.008-.04.014-.065.046-.024.033-.057.06-.073.06-.016 0-.05.025-.078.055-.03.03-.074.072-.104.092-.028.02-.058.054-.065.075-.006.022-.04.053-.072.068-.033.015-.06.046-.06.07 0 .02-.007.033-.015.026-.02-.02-.108.06-.108.096 0 .016-.022.037-.05.045-.025.01-.047.026-.047.038 0 .028-.118.146-.147.146-.01 0-.028.024-.037.053-.01.03-.043.08-.075.11-.032.033-.058.07-.058.083 0 .012-.038.064-.085.113-.048.05-.086.104-.086.12s-.018.036-.04.044c-.02.008-.03.025-.022.04.008.012.005.024-.008.024-.013 0-.03.03-.04.063-.008.034-.025.055-.04.047-.012-.01-.022-.006-.02.005.01.054-.005.107-.025.094-.013-.01-.02.007-.014.034.007.027 0 .05-.012.05-.013 0-.023.016-.023.036 0 .02-.01.037-.025.037-.013 0-.024.025-.024.055 0 .04-.006.046-.022.02-.016-.024-.026-.013-.038.043-.01.042-.044.13-.076.193-.033.064-.06.136-.06.16 0 .023-.01.042-.024.042-.013 0-.024.022-.024.05 0 .026-.01.048-.025.048-.013 0-.024.025-.024.056 0 .03-.012.068-.026.082-.015.014-.032.063-.04.11-.006.044-.022.092-.034.105-.012.013-.022.066-.022.117 0 .05-.01.092-.02.092s-.02.013-.022.03c-.01.15-.042.336-.058.336-.012 0-.02.038-.02.085 0 .048-.012.087-.024.087s-.03.093-.04.207c-.01.115-.026.208-.038.208s-.022.072-.022.16c0 .088-.01.158-.024.158-.016 0-.024.456-.024 1.32v1.318H2.212c-.77 0-1.2.008-1.21.024-.01.014-.06.025-.112.025-.053 0-.096.01-.096.024s-.04.025-.086.025c-.047 0-.085.01-.085.025 0 .013-.022.024-.048.024-.026 0-.074.026-.106.058-.033.032-.082.066-.11.075-.03.01-.06.04-.07.07-.008.03-.036.072-.06.093-.026.022-.047.053-.047.07 0 .015-.01.02-.024.013-.015-.008-.027-.004-.03.01 0 .015-.004.037-.008.05-.003.014-.007.053-.01.088 0 .036-.013.057-.027.048-.014-.01-.024.028-.024.095 0 .065-.01.113-.03.12C.007 8.96 0 9.4 0 11.04c0 1.632.007 2.087.03 2.11.017.018.03.068.03.112s.01.08.022.08c.012 0 .027.045.035.1.008.065.036.12.085.164.04.037.08.09.09.12.008.03.04.06.07.07.03.01.09.058.136.106.046.048.074.072.064.05-.016-.028-.013-.03.013-.005.018.017.075.03.126.03.052 0 .094.01.094.023 0 .047.232.06 1.386.067l1.202.01.01 4.597c.008 4.672.008 4.66.044 4.66.01 0 .02.032.02.072 0 .04.01.074.022.074.01 0 .028.032.035.07.01.043.035.08.065.088.027.01.05.036.05.06 0 .054.074.124.134.124.024 0 .037.007.03.016-.022.02.077.106.12.106.02 0 .03.01.02.024-.008.014.015.025.055.025s.08.01.095.024c.013.013.09.03.17.04.08.008.148.025.153.037.01.027 4.126.027 4.136 0 .006-.012.075-.03.155-.037.08-.01.156-.027.17-.04.013-.013.05-.024.08-.024s.056-.01.056-.025c0-.013.017-.024.037-.024.02 0 .06-.026.093-.058.032-.032.083-.066.112-.076.034-.01.06-.043.068-.087.008-.04.035-.077.06-.085.023-.008.05-.046.06-.086.008-.04.025-.072.037-.072.013 0 .023-.043.023-.096 0-.055.013-.1.03-.106.025-.008.032-.956.037-4.606l.007-4.597h1.194c.733 0 1.198-.01 1.203-.023.005-.012.056-.026.113-.03.057-.002.104-.014.104-.025 0-.01.026-.02.06-.02.086 0 .17-.036.238-.104.033-.033.083-.068.112-.077.028-.01.06-.04.068-.068.01-.028.04-.077.072-.108.03-.03.07-.095.088-.142.017-.048.04-.086.05-.086.01 0 .02-.043.02-.096 0-.053.01-.1.023-.104.013-.004.03-.096.04-.203.01-.11.026-.203.037-.21.01-.007.022-.092.025-.19.002-.097.013-.182.022-.188.01-.006.026-.165.035-.353.01-.19.028-.344.04-.344s.022-.077.022-.17c0-.095.01-.172.02-.172.013 0 .03-.148.04-.33.01-.18.028-.33.04-.33s.02-.07.02-.158c0-.09.012-.16.026-.16.014 0 .024-.073.024-.17 0-.096.01-.168.02-.16.022.012.053-.286.053-.493 0-.057.012-.104.025-.104.03 0 .033-.458.003-.47-.016-.006-.05-.22-.058-.354 0-.017-.01-.024-.02-.017-.013.006-.022-.004-.022-.022 0-.02-.02-.055-.044-.08-.024-.027-.065-.084-.09-.128-.026-.044-.068-.086-.094-.094-.025-.008-.08-.046-.12-.084-.043-.042-.086-.063-.11-.054-.025.01-.032.005-.02-.014.012-.02-.013-.03-.082-.03-.055 0-.1-.01-.1-.023 0-.012-.038-.023-.086-.023-.055 0-.08-.01-.07-.026.008-.014 0-.024-.018-.02-.018 0-.68.002-1.468 0L9.563 8.02v-.95c0-.61.01-.958.024-.968.014-.008.025-.036.025-.062 0-.026.01-.048.022-.048.012 0 .028-.027.037-.06.01-.034.032-.063.052-.066.02 0 .05-.004.067-.006.016 0 .038-.016.05-.033.01-.016.063-.03.117-.03.055 0 .09-.01.083-.023-.01-.015.49-.026 1.34-.03 1.044-.006 1.363-.015 1.387-.04.016-.015.066-.03.11-.03.045 0 .08-.01.08-.024 0-.013.022-.024.048-.024.025 0 .052-.017.06-.038.01-.02.026-.032.04-.023.013.008.024.003.024-.012 0-.014.01-.02.022-.013.012.008.03-.008.038-.035.01-.027.024-.05.035-.05.03 0 .11-.08.12-.12.004-.02.023-.05.042-.065.02-.015.035-.045.035-.067 0-.022.01-.04.024-.04.012 0 .03-.066.04-.147.01-.08.026-.146.037-.146.012 0 .022-.04.022-.087 0-.05.01-.08.023-.072.016.01.024-.605.025-1.732 0-1.153-.007-1.75-.024-1.76-.014-.01-.025-.055-.025-.102 0-.047-.01-.08-.02-.072-.013.007-.03-.054-.038-.135-.008-.082-.024-.16-.034-.177-.017-.028-.022-.042-.028-.09 0-.015-.013-.02-.026-.012-.014.008-.032-.013-.04-.047-.01-.033-.026-.055-.038-.047C13.31.54 13.3.535 13.3.52c0-.036-.153-.197-.188-.197-.016 0-.052-.024-.08-.053-.027-.03-.05-.043-.05-.03 0 .012-.008.01-.02-.007-.01-.016-.094-.037-.188-.047C12.68.176 12.6.16 12.592.15c-.007-.01-.09-.02-.184-.024-.093-.003-.177-.016-.185-.03-.01-.01-.395-.027-.892-.035-.59-.007-.887-.02-.91-.04C10.39 0 10.39 0 10.4.025c.01.017.007.03-.007.03S10.37.045 10.37.03c0-.015-.237-.024-.66-.024-.363 0-.66.01-.66.02m1.93 1.08c0 .017.12.02.366.014.216-.007.37-.003.38.01.007.013.134.024.28.024.163 0 .268.01.268.024s.055.025.123.025h.122v1.723c0 1.462-.007 1.73-.036 1.76-.04.04-.102.045-.124.01-.01-.016-.367-.025-.992-.025-.645 0-.972.01-.962.026.01.015-.08.024-.255.024-.163 0-.27.01-.27.025 0 .013-.048.024-.108.024s-.114.008-.12.02c-.01.012-.04.016-.073.01-.034-.006-.068 0-.077.015-.01.015-.044.027-.077.027-.035 0-.055.01-.046.025.008.013-.008.025-.035.027-.028.002-.062.006-.075.01-.014.003-.042.007-.063.008-.02.002-.03.014-.023.028.01.013-.002.024-.023.024-.02 0-.037.01-.037.025 0 .012-.01.023-.025.023-.06 0-.262.206-.31.317-.023.054-.05.098-.06.098-.01 0-.02.017-.02.037 0 .02-.012.037-.027.037-.014 0-.02.02-.014.05.007.025.003.047-.01.047-.01 0-.02.027-.02.06 0 .034-.012.062-.026.062-.013 0-.024.037-.024.083 0 .046-.014.088-.03.094-.025.007-.033.355-.04 1.6L8.51 9.093h1.93c1.793 0 1.935.004 1.95.042.008.023.003.045-.014.05-.018.007-.028.07-.028.178 0 .092-.012.174-.026.183-.014.01-.026.073-.025.142 0 .21-.025.456-.05.456-.01 0-.02.077-.02.17 0 .095-.01.172-.023.172s-.03.137-.04.305c-.01.168-.027.305-.04.305-.01 0-.02.078-.02.173 0 .11-.01.167-.025.157-.016-.01-.025.05-.025.158 0 .11-.01.172-.028.172-.02 0-.023.044-.01.144.01.09.006.15-.01.16-.014.008-.026.086-.026.173 0 .088-.01.157-.023.157-.014 0-.025.073-.025.17 0 .108-.01.172-.026.172-.017 0-.024.047-.02.128l.01.13-1.692.005-1.69.006v10.04h-4.08V13H1.062l-.006-1.953-.007-1.955H4.432V7.408c0-1.096.01-1.69.026-1.7.013-.007.024-.106.024-.22 0-.12.01-.206.025-.206.013 0 .024-.065.024-.147 0-.092.01-.146.03-.146.017 0 .02-.033.01-.1-.01-.06-.005-.097.01-.097.013 0 .024-.038.024-.085 0-.047.01-.086.025-.086.012 0 .023-.038.023-.085 0-.047.01-.086.023-.086.012 0 .03-.06.04-.133.01-.074.026-.134.038-.134s.02-.022.02-.05c0-.026.014-.048.03-.048.015 0 .02-.025.014-.06-.006-.035-.002-.062.01-.062.01 0 .02-.028.02-.06 0-.035.012-.062.025-.062.014 0 .025-.02.025-.048 0-.027.01-.05.022-.05.012 0 .03-.032.04-.072.007-.04.025-.074.037-.074.013 0 .023-.016.023-.036 0-.02.01-.037.024-.037s.025-.022.025-.05c0-.026.01-.048.026-.048.014 0 .02-.016.013-.036-.01-.02-.005-.038.008-.038.013 0 .024-.02.024-.047 0-.026.022-.054.05-.063.027-.01.047-.03.044-.044-.01-.064.08-.2.11-.17.01.008.017.002.02-.014 0-.015.005-.04.008-.053l.01-.046c0-.012.024-.03.05-.038.028-.01.05-.037.05-.064 0-.027.01-.042.024-.034.014.01.018 0 .01-.023-.008-.02-.003-.038.01-.038.03 0 .224-.19.224-.218 0-.03.144-.174.174-.174.014 0 .063-.037.107-.083.045-.046.09-.077.098-.068.01.01.015.006.01-.007-.01-.047.033-.11.076-.11.023 0 .063-.028.088-.06.026-.035.066-.063.09-.063.024 0 .05-.016.058-.036.008-.02.035-.038.06-.038.026 0 .047-.01.047-.02 0-.013.018-.03.04-.04.082-.03.154-.074.154-.092 0-.01.018-.02.04-.02.042 0 .187-.074.2-.103.005-.01.024-.018.043-.018.02 0 .035-.013.035-.028 0-.015.016-.02.035-.013.02.006.043.002.05-.01.01-.014.036-.024.063-.024.026 0 .047-.01.047-.025 0-.012.022-.023.05-.023.026 0 .048-.01.048-.022 0-.012.055-.03.122-.04.067-.008.116-.026.108-.038-.007-.012.02-.022.06-.022.042 0 .076-.01.076-.025 0-.013.033-.024.073-.024.04 0 .078-.01.085-.02.007-.013.04-.017.072-.01.032.005.066-.002.075-.017.01-.015.06-.027.113-.027.053 0 .096-.01.096-.025 0-.013.055-.024.122-.024s.122-.01.122-.025c0-.018.056-.02.16-.01.11.01.158.008.158-.012s.29-.027 1.087-.027c.735 0 1.087.01 1.087.026" stroke="null"/></g></svg>
