<svg id="SvgjsSvg1197" xmlns="http://www.w3.org/2000/svg" version="1.1" xmlns:xlink="http://www.w3.org/1999/xlink" xmlns:svgjs="http://svgjs.com/svgjs" width="50" height="50" viewBox="0 0 50 50"><title>Shape 1</title><desc>Created with Avocode.</desc><defs id="SvgjsDefs1198"><linearGradient id="SvgjsLinearGradient1201" gradientUnits="userSpaceOnUse" x1="1300.9819275681327" y1="237.25" x2="1265.0180724318673" y2="286.75"><stop id="SvgjsStop1202" stop-opacity="1" stop-color="#0fa0d9" offset="0"></stop><stop id="SvgjsStop1203" stop-opacity="1" stop-color="#0fa0d9" offset="0.45"></stop><stop id="SvgjsStop1204" stop-opacity="1" stop-color="#0ecebf" offset="1"></stop></linearGradient></defs><path id="SvgjsPath1199" d="M1307.17 253.667H1282.17C1281.67 253.667 1281.3300000000002 254 1281.3300000000002 254.5V286.166C1281.3300000000002 286.667 1281.67 287 1282.17 287H1307.17C1307.67 287 1308 286.667 1308 286.166V254.5C1308 254 1307.67 253.667 1307.17 253.667ZM1306.33 255.333V260.33299999999997H1283C1283 259.83299999999997 1283 258.99999999999994 1283 258.666H1293V257H1283C1283 256.833 1283 255.333 1283 255.333ZM1283 285.333C1283 285.333 1283 270.083 1283 262H1306.33V285.33299999999997ZM1290 265V264H1287V265ZM1294 265V264H1291V265ZM1298 265V264H1296V265ZM1302 265V264H1300V265ZM1289 270V268H1286V270ZM1294 270V268H1291V270ZM1299 270V268H1296V270ZM1304 270V268H1301V270ZM1289 273V271H1286V273ZM1294 273V271H1291V273ZM1299 273V271H1296V273ZM1304 273V271H1301V273ZM1289 276V275H1286V276ZM1294 276V275H1291V276ZM1299 276V275H1296V276ZM1304 276V275H1301V276ZM1289 280V278H1286V280ZM1294 280V278H1291V280ZM1299 280V278H1296V280ZM1304 280V278H1301V280ZM1289 283V281H1286V283ZM1294 283V281H1291V283ZM1299 283V281H1296V283ZM1304 283V281H1301V283ZM1259.67 248.667H1268.8300000000002C1269.3300000000002 248.667 1269.67 248.333 1269.67 247.833V238.667H1298V250.333H1299.67V237.833C1299.67 237.333 1299.3300000000002 237 1298.8300000000002 237H1268.8300000000002C1268.7500000000002 237 1268.67 237 1268.5800000000002 237.083H1268.5000000000002C1268.4200000000003 237.166 1268.3300000000002 237.166 1268.2500000000002 237.25L1258.2500000000002 247.25C1258.1700000000003 247.333 1258.1700000000003 247.416 1258.0800000000002 247.5V247.583C1258.0800000000002 247.667 1258.0000000000002 247.75 1258.0000000000002 247.833V257H1259.6700000000003C1259.6700000000003 257 1259.6700000000003 249.583 1259.6700000000003 248.667ZM1260.83 247L1264.4199999999998 243.416L1267.9999999999998 239.833V247ZM1278.83 272.833H1269.6699999999998V261.16700000000003C1269.6699999999998 260.66700000000003 1269.33 260.333 1268.83 260.333H1258.83C1258.33 260.333 1258 260.66700000000003 1258 261.16700000000003V286.16600000000005C1258 286.66700000000003 1258.33 287.00000000000006 1258.83 287.00000000000006H1278.83C1279.33 287.00000000000006 1279.6699999999998 286.66700000000003 1279.6699999999998 286.16600000000005V273.66600000000005C1279.6699999999998 273.16700000000003 1279.33 272.833 1278.83 272.833ZM1259.67 274.5H1268V277H1259.67ZM1268 272.833H1259.67V270.333H1268ZM1268 268.667H1259.67V266.167H1268ZM1259.67 278.667H1268V281.167H1259.67ZM1269.67 278.667H1278V281.167H1269.67ZM1278 277H1269.67V274.5H1278ZM1259.67 262H1268V264.5H1259.67ZM1259.67 282.833H1268V285.333H1259.67ZM1278 285.333H1269.67V282.833H1278ZM1296 243V241H1290V243ZM1296 247V245H1281V247ZM1297 259V257H1295V259Z " fill="#000000" fill-opacity="1" transform="matrix(1,0,0,1,-1258,-237)"></path><path id="SvgjsPath1200" d="M1307.17 253.667H1282.17C1281.67 253.667 1281.3300000000002 254 1281.3300000000002 254.5V286.166C1281.3300000000002 286.667 1281.67 287 1282.17 287H1307.17C1307.67 287 1308 286.667 1308 286.166V254.5C1308 254 1307.67 253.667 1307.17 253.667ZM1306.33 255.333V260.33299999999997H1283C1283 259.83299999999997 1283 258.99999999999994 1283 258.666H1293V257H1283C1283 256.833 1283 255.333 1283 255.333ZM1283 285.333C1283 285.333 1283 270.083 1283 262H1306.33V285.33299999999997ZM1290 265V264H1287V265ZM1294 265V264H1291V265ZM1298 265V264H1296V265ZM1302 265V264H1300V265ZM1289 270V268H1286V270ZM1294 270V268H1291V270ZM1299 270V268H1296V270ZM1304 270V268H1301V270ZM1289 273V271H1286V273ZM1294 273V271H1291V273ZM1299 273V271H1296V273ZM1304 273V271H1301V273ZM1289 276V275H1286V276ZM1294 276V275H1291V276ZM1299 276V275H1296V276ZM1304 276V275H1301V276ZM1289 280V278H1286V280ZM1294 280V278H1291V280ZM1299 280V278H1296V280ZM1304 280V278H1301V280ZM1289 283V281H1286V283ZM1294 283V281H1291V283ZM1299 283V281H1296V283ZM1304 283V281H1301V283ZM1259.67 248.667H1268.8300000000002C1269.3300000000002 248.667 1269.67 248.333 1269.67 247.833V238.667H1298V250.333H1299.67V237.833C1299.67 237.333 1299.3300000000002 237 1298.8300000000002 237H1268.8300000000002C1268.7500000000002 237 1268.67 237 1268.5800000000002 237.083H1268.5000000000002C1268.4200000000003 237.166 1268.3300000000002 237.166 1268.2500000000002 237.25L1258.2500000000002 247.25C1258.1700000000003 247.333 1258.1700000000003 247.416 1258.0800000000002 247.5V247.583C1258.0800000000002 247.667 1258.0000000000002 247.75 1258.0000000000002 247.833V257H1259.6700000000003C1259.6700000000003 257 1259.6700000000003 249.583 1259.6700000000003 248.667ZM1260.83 247L1264.4199999999998 243.416L1267.9999999999998 239.833V247ZM1278.83 272.833H1269.6699999999998V261.16700000000003C1269.6699999999998 260.66700000000003 1269.33 260.333 1268.83 260.333H1258.83C1258.33 260.333 1258 260.66700000000003 1258 261.16700000000003V286.16600000000005C1258 286.66700000000003 1258.33 287.00000000000006 1258.83 287.00000000000006H1278.83C1279.33 287.00000000000006 1279.6699999999998 286.66700000000003 1279.6699999999998 286.16600000000005V273.66600000000005C1279.6699999999998 273.16700000000003 1279.33 272.833 1278.83 272.833ZM1259.67 274.5H1268V277H1259.67ZM1268 272.833H1259.67V270.333H1268ZM1268 268.667H1259.67V266.167H1268ZM1259.67 278.667H1268V281.167H1259.67ZM1269.67 278.667H1278V281.167H1269.67ZM1278 277H1269.67V274.5H1278ZM1259.67 262H1268V264.5H1259.67ZM1259.67 282.833H1268V285.333H1259.67ZM1278 285.333H1269.67V282.833H1278ZM1296 243V241H1290V243ZM1296 247V245H1281V247ZM1297 259V257H1295V259Z " fill="url(#SvgjsLinearGradient1201)" transform="matrix(1,0,0,1,-1258,-237)"></path></svg>