<svg width="23" height="15" xmlns="http://www.w3.org/2000/svg"><g><path fill-rule="evenodd" d="M6.923.162c-.008.014-.136.024-.305.024-.178 0-.29.01-.29.023 0 .012-.03.022-.064.022-.112 0-.6.08-.61.098-.003.01-.047.02-.098.02-.05 0-.09.008-.09.02s-.053.028-.118.037c-.064.01-.122.026-.13.037-.006.012-.043.02-.08.02-.04 0-.07.012-.07.024s-.052.03-.116.038c-.064.01-.117.025-.117.036 0 .01-.026.02-.057.02-.03 0-.063.01-.07.02-.007.013-.055.03-.106.038-.05.01-.093.026-.093.038 0 .01-.028.02-.06.02s-.058.01-.058.02c0 .022-.175.097-.228.097-.023 0-.057.02-.075.047-.02.026-.053.047-.075.047-.046 0-.183.073-.183.098 0 .01-.026.017-.057.017-.03 0-.072.016-.09.035-.02.02-.048.035-.06.035-.015 0-.026.01-.026.02 0 .013-.028.03-.06.037-.032.008-.058.025-.058.037 0 .012-.016.022-.035.022-.02 0-.035.01-.035.023s-.02.024-.047.024c-.025 0-.046.008-.046.02s-.025.03-.054.04c-.03.008-.068.033-.087.055-.02.022-.06.048-.088.057-.028.01-.1.063-.158.12-.06.057-.123.103-.142.103-.02 0-.04.016-.048.035-.007.02-.033.035-.056.035-.024 0-.05.02-.057.046-.007.026-.033.053-.058.06-.024.008-.05.034-.058.06-.008.023-.035.05-.06.057-.025.008-.045.024-.045.036 0 .012-.013.022-.028.022-.026 0-.556.522-.556.548 0 .008-.053.07-.118.136-.18.186-.2.21-.216.254-.008.023-.026.04-.04.04-.012 0-.023.018-.023.038s-.027.06-.06.084c-.03.025-.058.065-.058.09 0 .023-.02.05-.046.057-.026.008-.047.034-.047.057 0 .024-.017.056-.036.072-.02.016-.035.042-.035.058 0 .017-.017.036-.036.043-.02.008-.035.033-.035.056 0 .022-.02.056-.047.074-.025.018-.052.063-.06.1-.008.035-.024.064-.036.064-.01 0-.02.02-.02.047 0 .025-.012.046-.024.046-.013 0-.024.017-.024.036 0 .02-.01.035-.023.035-.012 0-.03.038-.038.083-.01.045-.025.082-.037.082-.01 0-.02.016-.02.035 0 .02-.01.035-.02.035-.012 0-.03.037-.037.08-.01.046-.026.083-.038.083s-.022.016-.022.035c0 .02-.01.035-.023.035s-.024.026-.024.057c0 .03-.016.072-.036.09-.02.02-.035.058-.035.085 0 .026-.01.048-.02.048-.013 0-.03.047-.038.105-.008.058-.025.105-.037.105-.013 0-.022.026-.022.058s-.01.06-.024.06-.024.025-.024.057-.01.058-.02.058-.028.064-.036.14c-.01.078-.026.14-.038.14-.013 0-.023.026-.023.056 0 .03-.008.062-.018.072-.01.01-.02.024-.02.033 0 .01-.01.082-.02.162s-.028.146-.04.146c-.01 0-.02.05-.02.114s-.01.12-.024.123c-.014.005-.03.143-.038.34-.008.184-.023.34-.034.346C0 6.818 0 8.018.026 8.034c.01.007.026.162.034.346.008.197.024.335.038.34.014.004.025.07.025.146 0 .076.01.138.02.138.012 0 .03.055.04.122.024.172.027.186.045.245.01.03.025.054.034.054.01 0 .025.063.034.14.01.077.026.14.038.14s.022.026.022.058.01.058.023.058c.012 0 .023.027.023.06 0 .03.01.057.02.057.012 0 .03.052.038.117.01.064.027.116.038.116.012 0 .02.02.02.047 0 .026.012.047.024.047.013 0 .03.042.038.093.01.05.024.093.036.093.01 0 .02.02.02.047 0 .026.01.047.023.047.012 0 .023.01.023.023 0 .04.08.21.098.21.01 0 .02.01.02.025 0 .045.077.195.12.234.024.02.05.07.057.11.008.04.024.074.035.074.01 0 .02.016.02.035 0 .02.01.035.022.035.012 0 .03.024.04.053.008.028.033.068.055.087.02.02.046.056.054.082.008.025.05.088.096.14.045.05.082.102.082.114 0 .01.02.037.044.058.024.02.05.06.06.09.008.027.036.057.06.065.026.007.046.022.046.034 0 .01.027.047.06.08.03.03.057.065.057.075 0 .01.062.077.14.15.076.073.14.145.14.16 0 .03.25.28.28.28.01 0 .062.042.113.093.05.05.1.093.107.093.016 0 .07.042.113.09.078.083.146.144.163.144.01 0 .045.026.077.058s.07.058.086.058c.015 0 .047.027.072.06.024.03.063.057.087.057.023 0 .042.01.042.023s.01.024.025.024c.014 0 .04.013.058.03.077.068.103.086.126.086.014 0 .025.01.025.024 0 .012.016.023.035.023.02 0 .035.01.035.023s.022.024.048.024c.026 0 .053.015.06.035.008.02.034.035.058.035.026 0 .045.01.045.02 0 .013.032.03.07.038.04.008.07.025.07.037 0 .012.02.02.047.02.026 0 .047.01.047.023s.035.03.08.038.082.025.082.036c0 .012.016.02.035.02.02 0 .035.01.035.022 0 .012.03.03.07.037.038.01.075.026.083.038.007.012.034.02.06.02.025 0 .068.022.095.047.027.025.094.053.15.06.056.01.102.024.102.032 0 .023.13.067.25.086.055.01.1.025.1.036 0 .01.026.02.058.02s.058.01.058.022c0 .012.063.03.14.038.077.008.14.025.14.036 0 .01.042.02.094.02.05 0 .093.008.093.02 0 .02.437.098.542.097.036 0 .065.01.065.023 0 .014.093.023.233.023s.233.01.233.023c0 .015.253.023.712.023.458 0 .71-.008.71-.023 0-.014.102-.024.258-.024.155 0 .256-.01.256-.024 0-.013.024-.023.053-.023.102 0 .577-.08.577-.1 0-.01.042-.017.094-.017.05 0 .093-.01.093-.02s.056-.027.123-.035c.068-.007.126-.024.13-.037.005-.013.05-.024.1-.024s.09-.01.09-.023c0-.012.054-.03.118-.038.065-.01.117-.026.117-.037 0-.01.02-.02.047-.02.026 0 .047-.01.047-.02 0-.013.053-.03.117-.04.065-.007.117-.024.117-.036 0-.01.016-.02.035-.02.018 0 .034-.01.034-.024 0-.013.022-.024.048-.024.027 0 .064-.016.084-.036.02-.02.058-.035.086-.035.028 0 .067-.022.085-.047.02-.026.057-.047.085-.047.03 0 .068-.016.087-.035.018-.018.045-.034.06-.034.013 0 .024-.01.024-.023s.025-.023.057-.023.073-.016.092-.035c.02-.02.046-.035.06-.035.014 0 .025-.01.025-.024 0-.013.022-.023.048-.023.026 0 .053-.016.06-.035.008-.02.033-.035.056-.035.025 0 .05-.02.06-.047.007-.026.034-.046.06-.046.025 0 .05-.016.06-.035.006-.02.032-.035.056-.035.025 0 .044-.01.044-.022 0-.012.024-.03.053-.038.03-.01.07-.037.09-.06.02-.024.048-.044.06-.044.013 0 .05-.03.085-.07.035-.038.072-.07.084-.07.012 0 .03-.02.037-.046.007-.026.03-.047.048-.047.046 0 .64-.593.64-.638 0-.02.02-.042.046-.05.025-.008.046-.025.046-.037 0-.01.032-.05.07-.084.04-.034.07-.076.07-.093 0-.016.02-.043.047-.06.025-.015.046-.047.046-.07 0-.023.016-.048.035-.055.02-.007.035-.023.035-.035 0-.012.027-.05.06-.085.03-.035.057-.076.057-.092 0-.017.01-.03.023-.03s.024-.02.024-.046.01-.047.023-.047c.012 0 .03-.026.037-.058.008-.032.024-.06.036-.06.01 0 .02-.014.02-.034 0-.02.01-.035.024-.035.013 0 .023-.02.023-.047 0-.026.016-.053.035-.06.02-.008.035-.034.035-.058 0-.025.008-.045.018-.045.02 0 .1-.17.1-.21 0-.013.01-.023.022-.023.013 0 .023-.026.023-.058s.01-.06.022-.06c.012 0 .03-.033.038-.074.01-.042.023-.08.03-.088.035-.027.074-.12.088-.21.01-.05.025-.093.036-.093.012 0 .02-.026.02-.056 0-.03.01-.06.024-.064.013-.004.03-.063.04-.13.007-.067.022-.122.033-.122.01 0 .02-.027.02-.06 0-.03.01-.057.024-.057.012 0 .023-.025.023-.055s.008-.062.017-.07c.01-.01.02-.026.02-.034 0-.01.01-.082.02-.162s.028-.146.04-.146c.01 0 .02-.062.02-.138 0-.076.01-.14.024-.146.014-.004.032-.118.04-.258.007-.138.023-.25.033-.25.01 0 .02-.052.02-.115 0-.07.01-.12.03-.125.022-.007.03-.24.03-1.056 0-.816-.008-1.048-.03-1.055-.02-.006-.03-.058-.03-.148 0-.077-.01-.14-.02-.14-.013 0-.023-.057-.023-.13 0-.07-.007-.197-.016-.28l-.016-.15h-7.46v3.524h1.83c1.614 0 1.833.004 1.833.035 0 .018-.01.034-.02.034s-.028.047-.037.105c-.008.057-.025.104-.037.104-.012 0-.022.016-.022.035 0 .018-.01.034-.02.034-.013 0-.03.034-.04.076-.01.04-.035.088-.057.104-.023.016-.048.055-.056.087-.007.034-.024.06-.036.06-.013 0-.023.012-.023.027 0 .014-.026.05-.058.08s-.058.07-.058.09c0 .018-.02.04-.045.048-.026.008-.054.037-.063.064-.013.04-.042.08-.14.183-.115.12-.267.25-.307.264-.028.01-.057.036-.064.06-.008.026-.03.047-.05.047-.018 0-.058.026-.088.058-.03.032-.066.058-.08.058-.015 0-.027.01-.027.023s-.02.024-.043.024c-.024 0-.057.016-.073.035-.016.02-.043.035-.06.035-.02 0-.033.01-.033.022 0 .01-.036.028-.08.037-.046.008-.082.024-.082.036 0 .01-.016.02-.035.02-.02 0-.035.01-.035.024 0 .013-.024.023-.053.023-.03 0-.082.016-.12.035-.036.02-.086.035-.11.035-.024 0-.044.01-.044.023s-.024.024-.054.024-.1.015-.155.035c-.053.02-.15.035-.212.035s-.113.01-.113.023-.058.023-.13.023c-.07 0-.127.01-.127.024s-.113.023-.292.023c-.18 0-.29-.01-.29-.023s-.054-.024-.118-.024-.117-.01-.117-.023-.057-.023-.128-.023c-.07 0-.166-.016-.213-.035-.047-.02-.11-.035-.138-.035-.03 0-.06-.01-.07-.024-.007-.012-.04-.023-.07-.023-.03 0-.057-.01-.057-.023s-.042-.03-.093-.038c-.052-.01-.094-.025-.094-.036 0-.01-.02-.02-.046-.02s-.047-.01-.047-.023c0-.01-.037-.028-.082-.036-.045-.01-.08-.025-.08-.036 0-.012-.017-.02-.036-.02-.02 0-.035-.01-.035-.023s-.037-.03-.082-.038c-.045-.008-.082-.025-.082-.036 0-.01-.015-.02-.035-.02-.02 0-.035-.008-.035-.018 0-.01-.036-.038-.08-.062-.046-.024-.083-.053-.083-.063 0-.01-.01-.02-.025-.02-.014 0-.04-.013-.057-.03-.073-.064-.103-.087-.118-.087-.01 0-.04-.026-.07-.058-.03-.032-.066-.058-.08-.058-.037 0-.513-.488-.513-.525 0-.02-.02-.04-.047-.048-.025-.008-.046-.03-.046-.046 0-.017-.033-.064-.07-.106-.04-.04-.07-.09-.07-.107 0-.018-.012-.033-.025-.033-.013 0-.023-.02-.023-.044 0-.024-.016-.05-.035-.057-.02-.01-.035-.035-.035-.06 0-.026-.02-.053-.044-.06-.028-.01-.05-.045-.06-.095-.008-.045-.025-.08-.037-.08-.01 0-.02-.022-.02-.048 0-.026-.012-.047-.025-.047-.013 0-.023-.015-.023-.034 0-.02-.01-.035-.02-.035-.012 0-.03-.05-.038-.11-.01-.06-.035-.126-.058-.145-.025-.022-.047-.088-.057-.17-.01-.074-.028-.134-.04-.134s-.02-.05-.02-.114c0-.063-.012-.118-.024-.123-.013-.004-.03-.1-.04-.21-.007-.114-.023-.206-.034-.206-.026 0-.026-.39 0-.406.01-.006.028-.106.037-.222.008-.116.025-.21.037-.21.012 0 .022-.048.022-.105 0-.058.008-.105.02-.105s.03-.058.038-.13c.01-.07.025-.127.037-.127.01 0 .02-.02.02-.046 0-.025.01-.046.02-.046.012 0 .028-.042.036-.094.01-.05.026-.093.04-.093.012 0 .022-.02.022-.046 0-.025.01-.046.023-.046s.024-.025.024-.056c0-.03.014-.062.034-.07.02-.007.035-.034.035-.06 0-.026.01-.048.022-.048.013 0 .023-.015.023-.035 0-.02.01-.036.024-.036.01 0 .022-.02.022-.047 0-.026.016-.053.035-.06.02-.008.035-.033.035-.056 0-.022.016-.047.035-.054.02-.007.035-.03.035-.048 0-.02.037-.07.082-.114.044-.043.08-.087.08-.096 0-.01.048-.063.106-.12.058-.056.105-.112.105-.124 0-.036.16-.19.196-.19.02 0 .042-.02.05-.046s.024-.047.036-.047c.01 0 .047-.025.08-.057.03-.032.066-.058.078-.058.01 0 .048-.032.082-.07.035-.04.078-.07.098-.07.02 0 .034-.01.034-.024 0-.01.017-.022.037-.022.02 0 .06-.026.09-.058s.07-.06.092-.06c.02 0 .038-.01.038-.022 0-.013.016-.023.035-.023.02 0 .035-.01.035-.02 0-.012.026-.028.058-.036.032-.01.06-.026.06-.04 0-.012.02-.022.047-.022.026 0 .064-.016.083-.035.02-.02.06-.035.092-.035.03 0 .057-.01.057-.023s.015-.024.035-.024c.02 0 .035-.008.035-.02 0-.01.044-.026.098-.035.053-.008.11-.024.122-.034.014-.01.072-.03.13-.045.057-.016.153-.044.213-.063.06-.02.172-.034.25-.034.08 0 .143-.01.143-.023 0-.015.16-.023.432-.023.247 0 .43.01.43.02 0 .013.077.027.17.033.2.013.45.065.55.116.04.02.117.045.17.054.055.01.12.036.146.06.025.024.08.05.124.058.043.008.078.024.078.035 0 .012.015.02.035.02.02 0 .035.01.035.022 0 .01.026.026.058.034.032.008.058.025.058.038 0 .013.02.023.04.023.024 0 .055.02.072.046.015.027.04.048.054.048.03 0 .092.056.37.333.31.308.14.42 1.613-1.052 1.258-1.258 1.324-1.332 1.212-1.367-.025-.007-.052-.034-.06-.06-.008-.024-.023-.045-.034-.045-.01 0-.113-.094-.23-.21-.116-.115-.217-.21-.225-.21-.007 0-.04-.026-.072-.058-.032-.032-.07-.058-.087-.058-.016 0-.044-.022-.062-.048-.02-.026-.047-.047-.063-.047s-.06-.03-.096-.07c-.037-.038-.084-.07-.105-.07-.022 0-.04-.01-.04-.023s-.013-.023-.03-.023c-.015 0-.048-.028-.072-.06-.024-.032-.064-.058-.087-.058-.023 0-.043-.01-.043-.023 0-.014-.01-.025-.025-.025-.014 0-.04-.015-.06-.035-.02-.02-.06-.035-.09-.035-.033 0-.058-.01-.058-.023S11.054.98 11.04.98c-.015 0-.042-.017-.06-.036-.02-.02-.06-.035-.088-.035-.028 0-.066-.022-.085-.048-.018-.026-.057-.047-.085-.047-.028 0-.067-.015-.086-.035-.02-.02-.057-.035-.084-.035-.026 0-.048-.01-.048-.023S10.488.7 10.47.7c-.02 0-.036-.01-.036-.022 0-.012-.052-.03-.117-.038C10.253.632 10.2.615 10.2.603c0-.01-.02-.02-.046-.02s-.047-.01-.047-.02c0-.012-.052-.028-.116-.037C9.928.518 9.875.5 9.875.488S9.832.465 9.78.465c-.05 0-.093-.01-.093-.02 0-.013-.057-.03-.128-.04C9.49.398 9.43.382 9.43.37c0-.012-.05-.02-.114-.02-.063 0-.118-.01-.122-.022-.01-.022-.48-.096-.613-.096C8.536.232 8.5.222 8.5.21c0-.016-.13-.024-.34-.024-.21 0-.337-.01-.337-.024S7.66.14 7.38.14c-.27 0-.448.008-.457.022M7.915 1c0 .01.167.028.373.038.205.01.373.026.373.037 0 .01.043.02.094.02.052 0 .094.01.094.022 0 .012.084.03.186.038.103.01.187.026.187.037 0 .01.027.02.058.02.03 0 .063.01.07.023.01.013.05.024.09.024.04 0 .095.016.12.034.025.02.08.035.122.035.043 0 .077.01.077.022 0 .013.027.023.06.023.03 0 .057.01.057.022 0 .012.047.03.105.038.057.01.104.022.104.03 0 .02.113.07.204.088.042.008.076.024.076.035 0 .01.025.02.056.02.03 0 .062.016.07.036.007.02.037.035.066.035.03 0 .07.02.088.045.02.026.052.047.075.047.022 0 .04.01.04.02 0 .012.027.028.06.036.03.008.057.025.057.038 0 .012.016.023.035.023.02 0 .035.007.035.017 0 .01.04.037.088.058.048.02.116.066.15.098.035.032.074.06.088.06.013 0 .024.01.024.02 0 .012.024.026.053.03.064.01.082.095.03.14-.022.016-.05.044-.067.06-.015.017-.04.044-.058.06-.017.015-.108.106-.204.202l-.196.198c-.014.013-.038.037-.053.054s-.04.043-.058.058l-.143.142-.14.14-.056.057c-.015.016-.042.042-.06.058l-.057.058c-.015.017-.042.043-.058.06-.018.014-.073.067-.124.116l-.09.09-.054-.057c-.03-.032-.097-.077-.152-.102-.054-.025-.104-.062-.11-.083-.008-.02-.048-.045-.09-.053-.042-.008-.09-.035-.11-.06-.018-.026-.055-.047-.083-.047-.028 0-.063-.016-.08-.035-.015-.02-.053-.035-.084-.035-.03 0-.055-.01-.055-.023s-.016-.024-.035-.024c-.02 0-.035-.01-.035-.02 0-.012-.053-.03-.117-.038-.063-.01-.116-.026-.116-.037 0-.012-.02-.02-.046-.02s-.047-.01-.047-.02c0-.012-.065-.028-.145-.037-.08-.008-.15-.025-.153-.038-.005-.013-.06-.023-.12-.023-.07 0-.117-.01-.123-.03-.01-.022-.204-.028-.87-.028-.667 0-.862.006-.87.03-.005.017-.053.028-.124.028-.063 0-.115.01-.115.022 0 .012-.062.03-.14.038-.076.01-.145.025-.152.036-.007.013-.033.022-.058.022s-.045.01-.045.02c0 .012-.053.03-.117.038-.064.01-.116.026-.116.037 0 .012-.016.02-.035.02-.02 0-.035.012-.035.025 0 .012-.027.023-.06.023-.03 0-.057.01-.057.02 0 .012-.037.028-.082.037-.045.008-.08.025-.08.037 0 .012-.022.022-.048.022-.026 0-.047.01-.047.02 0 .012-.028.028-.062.037-.035.008-.08.034-.1.056-.02.023-.06.05-.088.06-.03.008-.053.025-.053.037 0 .012-.016.022-.035.022-.02 0-.035.01-.035.023s-.02.024-.044.024c-.023 0-.056.015-.072.035-.016.02-.04.035-.055.035s-.046.026-.07.058c-.025.032-.063.058-.086.058-.023 0-.05.02-.056.046-.007.025-.036.052-.064.06-.04.014-.192.145-.31.268-.012.013-.1.1-.192.196-.093.094-.17.18-.17.188 0 .01-.025.043-.057.072-.032.03-.058.067-.058.082s-.038.062-.082.103c-.044.042-.088.106-.097.143-.008.037-.035.08-.058.097-.024.017-.043.046-.043.065 0 .018-.01.033-.023.033-.012 0-.03.025-.038.054-.01.03-.036.078-.058.11-.022.033-.047.088-.055.123-.01.035-.026.064-.04.064-.01 0-.022.022-.022.048 0 .025-.01.046-.023.046-.012 0-.03.042-.038.094-.008.05-.024.093-.035.093-.012 0-.02.027-.02.057 0 .03-.013.06-.027.065-.014.005-.03.06-.038.12-.007.06-.02.11-.033.11-.01 0-.02.025-.02.057 0 .03-.008.058-.018.058-.02 0-.1.35-.1.437.002.03-.01.053-.022.053-.015 0-.023.248-.023.7 0 .384.008.7.02.7.01 0 .026.06.034.133.02.183.068.38.09.38.01 0 .018.026.018.057 0 .032.01.063.02.07.013.008.03.066.038.13.01.064.026.117.038.117.01 0 .02.026.02.058s.01.058.023.058.03.037.04.082c.007.045.023.082.035.082.01 0 .02.016.02.035 0 .018.01.034.023.034.012 0 .03.036.037.08.01.046.025.083.036.083.013 0 .022.016.022.035 0 .02.008.035.018.035.01 0 .036.047.06.105.024.058.053.105.064.105.012 0 .02.016.02.035 0 .02.01.035.023.035.012 0 .03.024.038.052.01.028.037.07.06.09.024.02.044.05.044.063 0 .014.025.05.057.083s.058.068.058.08c0 .01.03.047.064.08l.087.086.293.293.052.054c.015.015.04.042.058.057.015.016.08.077.14.136.063.06.136.115.164.124.028.01.05.026.05.038s.012.022.026.022c.013 0 .05.026.082.058s.07.058.084.058c.014 0 .042.02.063.044.02.024.063.05.095.06.032.01.074.038.093.06.02.022.067.047.107.056.04.008.086.036.104.06.017.026.055.047.082.047.028 0 .064.016.08.035.016.02.052.035.08.035.028 0 .072.02.1.045.025.024.096.052.155.06.06.01.108.024.108.032 0 .025.122.067.233.08.057.008.108.024.112.038.005.014.06.025.12.025.064 0 .118.012.123.026.006.017.124.03.34.04.182.005.332.02.332.03 0 .012.115.02.256.02.142 0 .258-.008.258-.02 0-.01.15-.025.33-.03.217-.01.336-.023.342-.04.004-.015.06-.026.123-.026s.115-.01.115-.02c0-.012.047-.028.104-.037.058-.01.11-.026.118-.038.008-.012.04-.022.07-.022.032 0 .058-.01.058-.02 0-.012.038-.028.084-.037.078-.015.168-.053.196-.084.01-.012.096-.052.25-.118.042-.018.076-.04.076-.047 0-.008.028-.022.063-.03.034-.01.08-.036.1-.06.02-.022.06-.048.088-.057.03-.01.052-.026.052-.038s.02-.022.047-.022c.026 0 .047-.01.047-.023s.01-.024.024-.024c.012 0 .076-.052.14-.116.065-.064.127-.117.14-.117.03 0 .397-.363.397-.395 0-.014.04-.063.085-.108.088-.085.196-.23.196-.265 0-.01.016-.026.036-.033.02-.01.035-.032.035-.054 0-.02.02-.056.044-.076.024-.02.05-.063.06-.095.01-.03.04-.077.063-.103.024-.026.044-.065.044-.088 0-.022.016-.056.036-.075.02-.02.035-.058.035-.085 0-.026.01-.048.02-.048.027 0 .097-.17.097-.234 0-.025.008-.046.018-.046.03 0 .077-.124.092-.24.007-.06.022-.11.033-.11.01 0 .02-.037.02-.08 0-.046.01-.083.022-.083.01 0 .028-.053.037-.117.008-.064.022-.12.03-.126.01-.005.02-.044.023-.086.003-.043.016-.088.028-.1.04-.04.03-.216-.013-.233-.02-.006-.902-.013-1.96-.013H7.705V6.32l2.956.007 2.958.006.007.145c.004.08.017.146.03.146.012 0 .022.097.022.222 0 .132.01.222.023.222.015 0 .023.15.023.408 0 .256-.008.408-.023.408-.013 0-.023.07-.023.163 0 .09-.01.164-.02.164-.013 0-.028.056-.035.123l-.038.368c-.014.135-.036.25-.048.253-.012.005-.023.06-.023.12 0 .064-.01.12-.02.128-.017.01-.046.165-.06.32 0 .01-.01.024-.02.034-.008.01-.016.042-.016.072 0 .03-.01.054-.022.054-.012 0-.03.058-.038.13-.008.07-.025.127-.036.127-.01 0-.02.02-.02.047 0 .025-.01.046-.02.046s-.027.042-.036.094c-.008.05-.025.093-.037.093-.013 0-.024.02-.024.042 0 .05-.052.166-.075.167-.01 0-.024.042-.032.093-.008.052-.024.094-.036.094-.01 0-.02.02-.02.046s-.01.047-.02.047c-.013 0-.03.03-.038.07-.01.038-.025.07-.037.07-.012 0-.02.02-.02.044 0 .025-.017.05-.036.06-.02.006-.036.033-.036.06 0 .025-.01.047-.024.047-.013 0-.023.015-.023.035 0 .02-.01.035-.023.035s-.03.026-.038.058-.024.058-.035.058c-.01 0-.02.017-.02.038 0 .02-.026.06-.058.084-.032.025-.058.06-.058.08 0 .018-.01.033-.024.033-.013 0-.023.016-.023.036 0 .02-.042.08-.093.133-.052.053-.094.107-.094.12 0 .01-.036.052-.08.09-.046.038-.083.08-.083.09 0 .013-.026.05-.058.08-.033.033-.06.07-.06.08 0 .01-.02.027-.045.035-.025.01-.052.035-.06.06-.007.024-.034.05-.058.058s-.05.035-.06.06c-.007.025-.033.045-.056.045s-.062.024-.085.054c-.024.03-.074.074-.113.1-.038.024-.103.078-.143.12-.04.042-.085.076-.1.076-.014 0-.026.01-.026.023s-.016.024-.036.024c-.02 0-.062.026-.095.058-.032.032-.074.058-.093.058-.02 0-.04.016-.048.035-.007.02-.032.036-.055.036-.024 0-.046.008-.05.018-.01.023-.156.1-.19.1-.017 0-.044.02-.062.045-.02.024-.063.05-.1.06-.035.007-.064.023-.064.035 0 .012-.026.02-.058.02s-.058.01-.058.022c0 .01-.037.028-.082.036-.045.01-.08.025-.08.038 0 .013-.022.023-.048.023-.026 0-.047.01-.047.022 0 .012-.04.03-.087.037-.1.018-.216.062-.216.084 0 .008-.047.022-.104.03-.058.01-.11.026-.118.038-.008.012-.06.022-.118.022-.056 0-.103.01-.103.024 0 .012-.015.023-.034.023-.02 0-.035.01-.035.02 0 .012-.088.028-.197.038-.11.01-.2.027-.2.038 0 .012-.035.022-.08.022s-.082.01-.082.02-.138.027-.308.036c-.17.01-.313.027-.317.04-.01.028-1.42.027-1.43-.002-.005-.012-.132-.03-.283-.038-.15-.01-.274-.026-.274-.037 0-.01-.03-.02-.07-.02-.038 0-.07-.01-.07-.02 0-.013-.084-.03-.186-.04-.103-.008-.187-.025-.187-.036 0-.012-.016-.02-.035-.02-.02 0-.035-.012-.035-.024 0-.013-.045-.024-.1-.024-.054 0-.12-.017-.144-.035-.024-.018-.08-.034-.12-.034-.044 0-.078-.01-.078-.023s-.016-.023-.035-.023c-.02 0-.035-.01-.035-.02 0-.012-.048-.03-.105-.038-.058-.008-.105-.025-.105-.037 0-.012-.016-.022-.035-.022-.02 0-.035-.01-.035-.02 0-.012-.042-.027-.094-.036-.05-.008-.093-.025-.093-.038 0-.013-.02-.024-.046-.024-.027 0-.048-.01-.048-.022 0-.012-.037-.03-.082-.038-.045-.008-.08-.024-.08-.036 0-.01-.017-.02-.036-.02-.02 0-.035-.008-.035-.018 0-.01-.043-.036-.095-.058-.05-.023-.093-.05-.093-.064 0-.013-.017-.024-.037-.024-.02 0-.052-.015-.07-.035-.02-.018-.06-.034-.09-.034-.036 0-.062-.017-.07-.045-.01-.024-.038-.052-.067-.06-.028-.01-.068-.036-.09-.06-.02-.024-.047-.044-.06-.044-.013 0-.063-.036-.112-.08-.05-.046-.108-.09-.132-.096-.023-.007-.042-.023-.042-.035 0-.012-.01-.022-.025-.022-.014 0-.057-.03-.095-.07-.04-.038-.08-.07-.09-.07-.028 0-.7-.672-.7-.7 0-.012-.03-.053-.07-.09-.038-.036-.07-.083-.07-.103 0-.02-.02-.043-.046-.052-.026-.008-.047-.03-.047-.05 0-.017-.017-.04-.036-.046-.02-.008-.035-.028-.035-.046s-.01-.033-.023-.033c-.012 0-.03-.023-.038-.052-.01-.028-.037-.07-.06-.09-.025-.02-.044-.05-.044-.063 0-.015-.01-.027-.023-.027s-.03-.026-.038-.058-.024-.06-.035-.06c-.012 0-.02-.018-.02-.043 0-.025-.017-.05-.036-.058-.02-.008-.035-.035-.035-.06 0-.027-.01-.048-.024-.048-.013 0-.024-.016-.024-.035 0-.02-.01-.036-.02-.036-.012 0-.04-.053-.063-.117-.025-.064-.05-.117-.06-.117-.008 0-.033-.047-.055-.105-.022-.057-.05-.105-.06-.105-.013 0-.023-.026-.023-.058s-.01-.058-.023-.058-.03-.042-.04-.094c-.007-.05-.023-.093-.034-.093-.01 0-.02-.022-.02-.048 0-.028-.016-.065-.035-.085-.018-.02-.034-.07-.034-.115 0-.044-.01-.08-.024-.08-.012 0-.023-.026-.023-.058s-.01-.058-.02-.058c-.012 0-.027-.05-.034-.11-.007-.06-.024-.114-.038-.12-.014-.004-.025-.048-.025-.097 0-.05-.01-.096-.022-.104C1 8.916.983 8.843.974 8.76c-.01-.085-.025-.153-.036-.153-.012 0-.02-.073-.02-.163 0-.093-.01-.163-.024-.163C.88 8.28.87 8.22.87 8.14.87 8.064.86 8 .845 8 .83 8 .823 7.79.823 7.418s.008-.583.023-.583c.013 0 .023-.057.023-.128 0-.07.01-.128.023-.128.012 0 .023-.063.023-.14 0-.078.01-.16.022-.18.012-.024.03-.102.037-.176.008-.074.024-.134.036-.134.013 0 .023-.042.023-.094 0-.05.01-.093.022-.093.012 0 .03-.062.038-.14.008-.076.022-.14.03-.14.023 0 .068-.118.085-.226.008-.055.025-.1.037-.1.01 0 .02-.015.02-.034 0-.02.01-.035.022-.035.012 0 .028-.053.037-.117.01-.064.024-.117.033-.117.01 0 .03-.035.05-.08.016-.045.04-.082.05-.082.01 0 .02-.026.02-.057 0-.03.015-.07.034-.09.02-.02.036-.047.036-.06 0-.014.01-.025.022-.025.012 0 .03-.037.038-.082.008-.045.024-.082.036-.082.01 0 .02-.014.02-.034 0-.02.01-.035.022-.035.012 0 .03-.022.038-.05.01-.03.036-.07.06-.09.022-.02.048-.067.058-.105.01-.038.036-.082.06-.1.023-.016.042-.045.042-.063 0-.02.01-.034.023-.034s.03-.024.037-.054c.007-.03.04-.073.07-.096.03-.024.057-.055.057-.07 0-.016.023-.05.05-.077.077-.07.112-.116.112-.144 0-.013.01-.024.022-.024.012 0 .028-.02.036-.046.008-.025.033-.05.055-.058.022-.007.06-.046.084-.086.05-.086.4-.44.435-.44.013 0 .058-.037.1-.082.043-.045.09-.082.104-.082.014 0 .025-.01.025-.02 0-.013.02-.03.046-.038.026-.007.053-.034.06-.06.01-.024.03-.045.05-.045.018 0 .068-.036.11-.08.044-.045.106-.087.138-.096.032-.01.08-.04.108-.072.027-.03.063-.056.08-.056.016 0 .044-.02.063-.047.017-.025.05-.046.07-.046.022 0 .053-.017.07-.036.015-.02.043-.035.06-.035.02 0 .057-.023.085-.05.03-.026.08-.054.116-.06.036-.008.065-.023.065-.034 0-.012.016-.02.035-.02.02 0 .035-.01.035-.022 0-.01.037-.027.082-.036.045-.008.082-.025.082-.037 0-.01.014-.02.033-.02.02 0 .035-.01.035-.022 0-.01.035-.027.076-.035.093-.02.204-.067.204-.088 0-.01.042-.023.094-.03.05-.01.1-.027.106-.038.007-.012.04-.022.07-.022.03 0 .057-.008.057-.018 0-.018.16-.067.298-.09.04-.008.08-.023.09-.034.006-.012.037-.02.068-.02.033 0 .058-.01.058-.022 0-.01.08-.027.175-.036.096-.01.175-.026.175-.037 0-.012.037-.022.082-.022.045 0 .082-.01.082-.02s.146-.028.326-.037c.18-.01.333-.026.34-.038.017-.028 1.037-.028 1.037 0m10.03 3.338V5.48H15.66v2.731h2.286v2.287h2.73V8.21h2.287V5.482h-2.287V3.196h-2.728v1.143m1.89.828V6.32h2.285V7.372h-1.11c-.93 0-1.115.006-1.143.034-.03.028-.035.214-.035 1.155v1.12H18.76V8.54c0-1.02-.004-1.142-.036-1.155-.02-.008-.535-.014-1.144-.014h-1.106V6.322h2.285V4.012h1.072v1.156" stroke="null"/></g></svg>
