<svg id="SvgjsSvg1133" xmlns="http://www.w3.org/2000/svg" version="1.1" xmlns:xlink="http://www.w3.org/1999/xlink" xmlns:svgjs="http://svgjs.com/svgjs" width="50" height="51" viewBox="0 0 50 51"><title>Shape 1</title><desc>Created with Avocode.</desc><defs id="SvgjsDefs1134"><linearGradient id="SvgjsLinearGradient1137" gradientUnits="userSpaceOnUse" x1="423.98282666451104" y1="237.24751249999997" x2="388.01717333548885" y2="286.7499875"><stop id="SvgjsStop1138" stop-opacity="1" stop-color="#0fa0d9" offset="0"></stop><stop id="SvgjsStop1139" stop-opacity="1" stop-color="#0fa0d9" offset="0.45"></stop><stop id="SvgjsStop1140" stop-opacity="1" stop-color="#0ecebf" offset="1"></stop></linearGradient></defs><path id="SvgjsPath1135" d="M390.167 261.98H386.83299999999997C386.37199999999996 261.98 385.99999999999994 262.35400000000004 385.99999999999994 262.814V264.482C385.99999999999994 264.94300000000004 386.37199999999996 265.31600000000003 386.83299999999997 265.31600000000003C387.294 265.31600000000003 387.667 264.94300000000004 387.667 264.482V263.648H389.33299999999997V267.81800000000004C389.33299999999997 268.27900000000005 389.70599999999996 268.65200000000004 390.167 268.65200000000004C390.62699999999995 268.65200000000004 391 268.27900000000005 391 267.81800000000004V262.814C391 262.35400000000004 390.627 261.98 390.167 261.98ZM403.01 240.137L403.96299999999997 240.83L403.57199999999995 241.924C403.45899999999995 242.238 403.54499999999996 242.588 403.78899999999993 242.816C403.9459999999999 242.962 404.14899999999994 243.03900000000002 404.35599999999994 243.03900000000002C404.4699999999999 243.03900000000002 404.58599999999996 243.01600000000002 404.69399999999996 242.967L406.032 242.37400000000002L407.342 242.96500000000003C407.64599999999996 243.10300000000004 407.99899999999997 243.04500000000004 408.245 242.82200000000003C408.491 242.59800000000004 408.581 242.25000000000003 408.473 241.93500000000003L408.104 240.85600000000002L409.024 240.11100000000002C409.299 239.889 409.403 239.51700000000002 409.285 239.18400000000003C409.16700000000003 238.85100000000003 408.853 238.62900000000002 408.5 238.62900000000002H407.348L406.745 237.42200000000003C406.462 236.85600000000002 405.537 236.85600000000002 405.254 237.42200000000003L404.65200000000004 238.62900000000002H403.50000000000006C403.13800000000003 238.62900000000002 402.8190000000001 238.86100000000002 402.70700000000005 239.205C402.59600000000006 239.548 402.71700000000004 239.925 403.01000000000005 240.137ZM405.912 239.836L406 239.65900000000002L406.087 239.836C406.158 239.978 406.267 240.09400000000002 406.397 240.173C406.315 240.324 406.28 240.498 406.3 240.671C406.214 240.642 406.123 240.62699999999998 406.034 240.62699999999998C405.947 240.62699999999998 405.86199999999997 240.64 405.779 240.66699999999997C405.812 240.47599999999997 405.778 240.28199999999998 405.686 240.11499999999998C405.77799999999996 240.04099999999997 405.85699999999997 239.94599999999997 405.912 239.83599999999998ZM385.167 266.984C381.048 266.984 381 277.717 381 277.82599999999996C381 279.84 382.434 281.52399999999994 384.333 281.912V286.166C384.333 286.627 384.706 287 385.16700000000003 287C385.627 287 386.00000000000006 286.627 386.00000000000006 286.166V281.912C387.89900000000006 281.524 389.3330000000001 279.84 389.3330000000001 277.82599999999996C389.3330000000001 277.717 389.2850000000001 266.984 385.1670000000001 266.984ZM385.167 280.328C383.78799999999995 280.328 382.667 279.20599999999996 382.667 277.82599999999996C382.667 273.671 383.782 268.652 385.167 268.652C386.55199999999996 268.652 387.667 273.671 387.667 277.82599999999996C387.667 279.20599999999996 386.54499999999996 280.328 385.167 280.328ZM395.51 240.137L396.46299999999997 240.83L396.07199999999995 241.924C395.95899999999995 242.238 396.04499999999996 242.588 396.28899999999993 242.816C396.4459999999999 242.962 396.64899999999994 243.03900000000002 396.85599999999994 243.03900000000002C396.9699999999999 243.03900000000002 397.08599999999996 243.01600000000002 397.19399999999996 242.967L398.532 242.37400000000002L399.842 242.96500000000003C400.145 243.10300000000004 400.5 243.04500000000004 400.745 242.82200000000003C400.991 242.59800000000004 401.081 242.25000000000003 400.973 241.93500000000003L400.604 240.85600000000002L401.524 240.11100000000002C401.799 239.889 401.903 239.51700000000002 401.785 239.18400000000003C401.66700000000003 238.85100000000003 401.353 238.62900000000002 401 238.62900000000002H399.848L399.245 237.42200000000003C398.962 236.85600000000002 398.037 236.85600000000002 397.754 237.42200000000003L397.15200000000004 238.62900000000002H396.00000000000006C395.63800000000003 238.62900000000002 395.3190000000001 238.86100000000002 395.20700000000005 239.205C395.09600000000006 239.548 395.21700000000004 239.925 395.51000000000005 240.137ZM398.412 239.836L398.5 239.65900000000002L398.587 239.836C398.658 239.978 398.767 240.09400000000002 398.897 240.173C398.815 240.324 398.78 240.498 398.8 240.671C398.714 240.642 398.623 240.62699999999998 398.534 240.62699999999998C398.447 240.62699999999998 398.36199999999997 240.64 398.279 240.66699999999997C398.312 240.47599999999997 398.278 240.28199999999998 398.186 240.11499999999998C398.27799999999996 240.04099999999997 398.35699999999997 239.94599999999997 398.412 239.83599999999998ZM411.343 240.137L412.297 240.83L411.90500000000003 241.924C411.79200000000003 242.238 411.87800000000004 242.588 412.122 242.816C412.279 242.962 412.482 243.03900000000002 412.689 243.03900000000002C412.803 243.03900000000002 412.91900000000004 243.01600000000002 413.02700000000004 242.967L414.36500000000007 242.37400000000002L415.67500000000007 242.96500000000003C415.97900000000004 243.10300000000004 416.3330000000001 243.04500000000004 416.5780000000001 242.82200000000003C416.82400000000007 242.59800000000004 416.9140000000001 242.25000000000003 416.8070000000001 241.93500000000003L416.43700000000007 240.85600000000002L417.3570000000001 240.11100000000002C417.63200000000006 239.889 417.7370000000001 239.51700000000002 417.6180000000001 239.18400000000003C417.5010000000001 238.85100000000003 417.1870000000001 238.62900000000002 416.8330000000001 238.62900000000002H415.6820000000001L415.0780000000001 237.42200000000003C414.7960000000001 236.85600000000002 413.8710000000001 236.85600000000002 413.5870000000001 237.42200000000003L412.9850000000001 238.62900000000002H411.83300000000014C411.47200000000015 238.62900000000002 411.15200000000016 238.86100000000002 411.04100000000017 239.205C410.92900000000014 239.548 411.05100000000016 239.925 411.3430000000002 240.137ZM414.245 239.836L414.333 239.65900000000002L414.42100000000005 239.836C414.4920000000001 239.978 414.6 240.09400000000002 414.73100000000005 240.173C414.648 240.324 414.61300000000006 240.498 414.63300000000004 240.671C414.547 240.642 414.45700000000005 240.62699999999998 414.36800000000005 240.62699999999998C414.28100000000006 240.62699999999998 414.196 240.64 414.11300000000006 240.66699999999997C414.1460000000001 240.47599999999997 414.11100000000005 240.28199999999998 414.01900000000006 240.11499999999998C414.1120000000001 240.04099999999997 414.19000000000005 239.94599999999997 414.24500000000006 239.83599999999998ZM387.177 240.137L388.13 240.83L387.738 241.924C387.626 242.238 387.712 242.588 387.956 242.816C388.112 242.962 388.31600000000003 243.03900000000002 388.522 243.03900000000002C388.637 243.03900000000002 388.752 243.01600000000002 388.861 242.967L390.198 242.37400000000002L391.508 242.96500000000003C391.81199999999995 243.10300000000004 392.167 243.04500000000004 392.412 242.82200000000003C392.657 242.59800000000004 392.74699999999996 242.25000000000003 392.64 241.93500000000003L392.27099999999996 240.85600000000002L393.191 240.11100000000002C393.46599999999995 239.889 393.57 239.51700000000002 393.452 239.18400000000003C393.334 238.85100000000003 393.02 238.62900000000002 392.667 238.62900000000002H391.515L390.912 237.42200000000003C390.62899999999996 236.85600000000002 389.70399999999995 236.85600000000002 389.421 237.42200000000003L388.818 238.62900000000002H387.667C387.30499999999995 238.62900000000002 386.986 238.86100000000002 386.87399999999997 239.205C386.76199999999994 239.548 386.88399999999996 239.925 387.17699999999996 240.137ZM390.078 239.836L390.167 239.65900000000002L390.25399999999996 239.836C390.325 239.978 390.43299999999994 240.09400000000002 390.56399999999996 240.173C390.48199999999997 240.324 390.44699999999995 240.498 390.467 240.671C390.381 240.642 390.28999999999996 240.62699999999998 390.20099999999996 240.62699999999998C390.114 240.62699999999998 390.02899999999994 240.64 389.94599999999997 240.66699999999997C389.979 240.47599999999997 389.94399999999996 240.28199999999998 389.852 240.11499999999998C389.945 240.04099999999997 390.02299999999997 239.94599999999997 390.078 239.83599999999998ZM419.677 240.137L420.63 240.83L420.238 241.924C420.126 242.238 420.212 242.588 420.456 242.816C420.612 242.962 420.81600000000003 243.03900000000002 421.022 243.03900000000002C421.137 243.03900000000002 421.252 243.01600000000002 421.361 242.967L422.698 242.37400000000002L424.008 242.96500000000003C424.31199999999995 243.10300000000004 424.666 243.04500000000004 424.911 242.82200000000003C425.157 242.59800000000004 425.247 242.25000000000003 425.14 241.93500000000003L424.77099999999996 240.85600000000002L425.691 240.11100000000002C425.96599999999995 239.889 426.07 239.51700000000002 425.95099999999996 239.18400000000003C425.83399999999995 238.85100000000003 425.52 238.62900000000002 425.167 238.62900000000002H424.015L423.412 237.42200000000003C423.12899999999996 236.85600000000002 422.20399999999995 236.85600000000002 421.921 237.42200000000003L421.318 238.62900000000002H420.167C419.80499999999995 238.62900000000002 419.486 238.86100000000002 419.37399999999997 239.205C419.26199999999994 239.548 419.38399999999996 239.925 419.67699999999996 240.137ZM422.578 239.836L422.667 239.65900000000002L422.75399999999996 239.836C422.825 239.978 422.93299999999994 240.09400000000002 423.06399999999996 240.173C422.98199999999997 240.324 422.94699999999995 240.498 422.967 240.671C422.881 240.642 422.78999999999996 240.62699999999998 422.70099999999996 240.62699999999998C422.614 240.62699999999998 422.52899999999994 240.64 422.44599999999997 240.66699999999997C422.479 240.47599999999997 422.44399999999996 240.28199999999998 422.352 240.11499999999998C422.445 240.04099999999997 422.52299999999997 239.94599999999997 422.578 239.83599999999998ZM428.5 281.996C428.356 281.996 428.212 282.008 428.072 282.03299999999996C427.497 280.99799999999993 426.402 280.328 425.16700000000003 280.328C423.932 280.328 422.836 280.99699999999996 422.26200000000006 282.03299999999996C422.12100000000004 282.008 421.97700000000003 281.996 421.8330000000001 281.996C420.4550000000001 281.996 419.3330000000001 283.11899999999997 419.3330000000001 284.498C419.3330000000001 285.878 420.4550000000001 287 421.8330000000001 287H428.50000000000006C429.87800000000004 287 431.00000000000006 285.878 431.00000000000006 284.498C431.00000000000006 283.11899999999997 429.87800000000004 281.996 428.50000000000006 281.996ZM428.5 285.332H421.833C421.37300000000005 285.332 421 284.95799999999997 421 284.498C421 284.038 421.373 283.664 421.833 283.664C421.992 283.664 422.14500000000004 283.71 422.285 283.8C422.512 283.947 422.798 283.973 423.05 283.872C423.302 283.77000000000004 423.487 283.552 423.54900000000004 283.288C423.72400000000005 282.527 424.389 281.99600000000004 425.16700000000003 281.99600000000004C425.944 281.99600000000004 426.608 282.52700000000004 426.78400000000005 283.288C426.84700000000004 283.552 427.03100000000006 283.77000000000004 427.2830000000001 283.872C427.5350000000001 283.973 427.82000000000005 283.947 428.04800000000006 283.8C428.59100000000007 283.45 429.3330000000001 283.879 429.3330000000001 284.498C429.3330000000001 284.95799999999997 428.9600000000001 285.332 428.50000000000006 285.332ZM390.167 251.972H386.83299999999997C386.37199999999996 251.972 385.99999999999994 252.346 385.99999999999994 252.806V257.81C385.99999999999994 258.271 386.37199999999996 258.644 386.83299999999997 258.644H390.167C390.62699999999995 258.644 391 258.271 391 257.81V252.806C391 252.346 390.627 251.972 390.167 251.972ZM387.667 256.976V253.64H389.33299999999997V256.976ZM416.833 248.637C416.372 248.637 416 249.01 416 249.47V281.162C416 281.623 416.372 281.996 416.833 281.996C417.29400000000004 281.996 417.66700000000003 281.623 417.66700000000003 281.162V249.46999999999997C417.66700000000003 249.00999999999996 417.29400000000004 248.63699999999997 416.833 248.63699999999997ZM421 267.818C421 268.279 421.372 268.652 421.833 268.652H425.16700000000003C425.627 268.652 426.00000000000006 268.279 426.00000000000006 267.818V262.81399999999996C426.00000000000006 262.354 425.62700000000007 261.97999999999996 425.16700000000003 261.97999999999996H421.833C421.372 261.97999999999996 421 262.354 421 262.81399999999996ZM422.667 263.648H424.33299999999997V266.98400000000004H422.667ZM430.167 243.632C429.70599999999996 243.632 429.33299999999997 244.006 429.33299999999997 244.467V245.3H382.667V244.467C382.667 244.006 382.294 243.632 381.83299999999997 243.632C381.373 243.632 380.99999999999994 244.006 380.99999999999994 244.467V264.482C380.99999999999994 264.94300000000004 381.37199999999996 265.31600000000003 381.83299999999997 265.31600000000003C382.294 265.31600000000003 382.667 264.94300000000004 382.667 264.482V246.96800000000002H429.33299999999997V280.32800000000003C429.33299999999997 280.78900000000004 429.70599999999996 281.16200000000003 430.167 281.16200000000003C430.62699999999995 281.16200000000003 431 280.78900000000004 431 280.32800000000003V244.46700000000004C431 244.00600000000003 430.627 243.63200000000003 430.167 243.63200000000003ZM421 277.826C421 278.28700000000003 421.372 278.66 421.833 278.66H425.16700000000003C425.627 278.66 426.00000000000006 278.28700000000003 426.00000000000006 277.826V272.822C426.00000000000006 272.362 425.62700000000007 271.988 425.16700000000003 271.988H421.833C421.372 271.988 421 272.362 421 272.822ZM422.667 273.656H424.33299999999997V276.992H422.667ZM421.833 258.644H425.16700000000003C425.627 258.644 426.00000000000006 258.271 426.00000000000006 257.81V252.806C426.00000000000006 252.346 425.62700000000007 251.972 425.16700000000003 251.972H421.833C421.372 251.972 421 252.346 421 252.806V257.81C421 258.271 421.372 258.644 421.833 258.644ZM422.667 253.64H424.33299999999997V256.976H422.667ZM408.5 258.644H411.833C412.29400000000004 258.644 412.66700000000003 258.271 412.66700000000003 257.81V252.806C412.66700000000003 252.346 412.29400000000004 251.972 411.833 251.972H408.5C408.039 251.972 407.667 252.346 407.667 252.806V257.81C407.667 258.271 408.039 258.644 408.5 258.644ZM411 253.64V256.976H409.333V253.64ZM396 281.162V249.46999999999997C396 249.00999999999996 395.628 248.63699999999997 395.167 248.63699999999997C394.70599999999996 248.63699999999997 394.33299999999997 249.00999999999996 394.33299999999997 249.46999999999997V281.162C394.33299999999997 281.623 394.70599999999996 281.996 395.167 281.996C395.628 281.996 396 281.623 396 281.162ZM416.833 283.664H393.5C393.039 283.664 392.667 284.037 392.667 284.498V286.166C392.667 286.627 393.039 287 393.5 287C393.961 287 394.333 286.627 394.333 286.166V285.332H416.833C417.29400000000004 285.332 417.66700000000003 284.959 417.66700000000003 284.498C417.66700000000003 284.037 417.29400000000004 283.664 416.833 283.664ZM400.167 268.652H403.5C403.961 268.652 404.333 268.279 404.333 267.818V262.81399999999996C404.333 262.354 403.961 261.97999999999996 403.5 261.97999999999996H400.167C399.70599999999996 261.97999999999996 399.33299999999997 262.354 399.33299999999997 262.81399999999996V267.818C399.33299999999997 268.279 399.70599999999996 268.652 400.167 268.652ZM401 263.648H402.667V266.98400000000004H401ZM400.167 258.644H403.5C403.961 258.644 404.333 258.271 404.333 257.81V252.806C404.333 252.346 403.961 251.972 403.5 251.972H400.167C399.70599999999996 251.972 399.33299999999997 252.346 399.33299999999997 252.806V257.81C399.33299999999997 258.271 399.70599999999996 258.644 400.167 258.644ZM401 253.64H402.667V256.976H401ZM397.667 272.822C397.667 273.283 398.039 273.656 398.5 273.656H399.333V281.16200000000003C399.333 281.62300000000005 399.706 281.99600000000004 400.16700000000003 281.99600000000004C400.627 281.99600000000004 401.00000000000006 281.62300000000005 401.00000000000006 281.16200000000003V273.65600000000006H405.16700000000003V276.9920000000001C404.706 276.9920000000001 404.333 277.36500000000007 404.333 277.8260000000001C404.333 278.2870000000001 404.706 278.6600000000001 405.16700000000003 278.6600000000001V281.1620000000001C405.16700000000003 281.6230000000001 405.53900000000004 281.9960000000001 406.00000000000006 281.9960000000001C406.46100000000007 281.9960000000001 406.8330000000001 281.6230000000001 406.8330000000001 281.1620000000001V278.6600000000001C407.2940000000001 278.6600000000001 407.6660000000001 278.2870000000001 407.6660000000001 277.8260000000001C407.6660000000001 277.36500000000007 407.2940000000001 276.9920000000001 406.8330000000001 276.9920000000001V273.65600000000006H411.00000000000006V281.16200000000003C411.00000000000006 281.62300000000005 411.37200000000007 281.99600000000004 411.8330000000001 281.99600000000004C412.2940000000001 281.99600000000004 412.6670000000001 281.62300000000005 412.6670000000001 281.16200000000003V273.65600000000006H413.5000000000001C413.9610000000001 273.65600000000006 414.33300000000014 273.2830000000001 414.33300000000014 272.82200000000006C414.33300000000014 272.3620000000001 413.9610000000001 271.98800000000006 413.5000000000001 271.98800000000006H398.5000000000001C398.0390000000001 271.98800000000006 397.6670000000001 272.3620000000001 397.6670000000001 272.82200000000006ZM408.5 268.652H411.833C412.29400000000004 268.652 412.66700000000003 268.279 412.66700000000003 267.818V262.81399999999996C412.66700000000003 262.354 412.29400000000004 261.97999999999996 411.833 261.97999999999996H408.5C408.039 261.97999999999996 407.667 262.354 407.667 262.81399999999996V267.818C407.667 268.279 408.039 268.652 408.5 268.652ZM411 263.648V266.98400000000004H409.333V263.648Z " fill="#000000" fill-opacity="1" transform="matrix(1,0,0,1,-381,-236)"></path><path id="SvgjsPath1136" d="M390.167 261.98H386.83299999999997C386.37199999999996 261.98 385.99999999999994 262.35400000000004 385.99999999999994 262.814V264.482C385.99999999999994 264.94300000000004 386.37199999999996 265.31600000000003 386.83299999999997 265.31600000000003C387.294 265.31600000000003 387.667 264.94300000000004 387.667 264.482V263.648H389.33299999999997V267.81800000000004C389.33299999999997 268.27900000000005 389.70599999999996 268.65200000000004 390.167 268.65200000000004C390.62699999999995 268.65200000000004 391 268.27900000000005 391 267.81800000000004V262.814C391 262.35400000000004 390.627 261.98 390.167 261.98ZM403.01 240.137L403.96299999999997 240.83L403.57199999999995 241.924C403.45899999999995 242.238 403.54499999999996 242.588 403.78899999999993 242.816C403.9459999999999 242.962 404.14899999999994 243.03900000000002 404.35599999999994 243.03900000000002C404.4699999999999 243.03900000000002 404.58599999999996 243.01600000000002 404.69399999999996 242.967L406.032 242.37400000000002L407.342 242.96500000000003C407.64599999999996 243.10300000000004 407.99899999999997 243.04500000000004 408.245 242.82200000000003C408.491 242.59800000000004 408.581 242.25000000000003 408.473 241.93500000000003L408.104 240.85600000000002L409.024 240.11100000000002C409.299 239.889 409.403 239.51700000000002 409.285 239.18400000000003C409.16700000000003 238.85100000000003 408.853 238.62900000000002 408.5 238.62900000000002H407.348L406.745 237.42200000000003C406.462 236.85600000000002 405.537 236.85600000000002 405.254 237.42200000000003L404.65200000000004 238.62900000000002H403.50000000000006C403.13800000000003 238.62900000000002 402.8190000000001 238.86100000000002 402.70700000000005 239.205C402.59600000000006 239.548 402.71700000000004 239.925 403.01000000000005 240.137ZM405.912 239.836L406 239.65900000000002L406.087 239.836C406.158 239.978 406.267 240.09400000000002 406.397 240.173C406.315 240.324 406.28 240.498 406.3 240.671C406.214 240.642 406.123 240.62699999999998 406.034 240.62699999999998C405.947 240.62699999999998 405.86199999999997 240.64 405.779 240.66699999999997C405.812 240.47599999999997 405.778 240.28199999999998 405.686 240.11499999999998C405.77799999999996 240.04099999999997 405.85699999999997 239.94599999999997 405.912 239.83599999999998ZM385.167 266.984C381.048 266.984 381 277.717 381 277.82599999999996C381 279.84 382.434 281.52399999999994 384.333 281.912V286.166C384.333 286.627 384.706 287 385.16700000000003 287C385.627 287 386.00000000000006 286.627 386.00000000000006 286.166V281.912C387.89900000000006 281.524 389.3330000000001 279.84 389.3330000000001 277.82599999999996C389.3330000000001 277.717 389.2850000000001 266.984 385.1670000000001 266.984ZM385.167 280.328C383.78799999999995 280.328 382.667 279.20599999999996 382.667 277.82599999999996C382.667 273.671 383.782 268.652 385.167 268.652C386.55199999999996 268.652 387.667 273.671 387.667 277.82599999999996C387.667 279.20599999999996 386.54499999999996 280.328 385.167 280.328ZM395.51 240.137L396.46299999999997 240.83L396.07199999999995 241.924C395.95899999999995 242.238 396.04499999999996 242.588 396.28899999999993 242.816C396.4459999999999 242.962 396.64899999999994 243.03900000000002 396.85599999999994 243.03900000000002C396.9699999999999 243.03900000000002 397.08599999999996 243.01600000000002 397.19399999999996 242.967L398.532 242.37400000000002L399.842 242.96500000000003C400.145 243.10300000000004 400.5 243.04500000000004 400.745 242.82200000000003C400.991 242.59800000000004 401.081 242.25000000000003 400.973 241.93500000000003L400.604 240.85600000000002L401.524 240.11100000000002C401.799 239.889 401.903 239.51700000000002 401.785 239.18400000000003C401.66700000000003 238.85100000000003 401.353 238.62900000000002 401 238.62900000000002H399.848L399.245 237.42200000000003C398.962 236.85600000000002 398.037 236.85600000000002 397.754 237.42200000000003L397.15200000000004 238.62900000000002H396.00000000000006C395.63800000000003 238.62900000000002 395.3190000000001 238.86100000000002 395.20700000000005 239.205C395.09600000000006 239.548 395.21700000000004 239.925 395.51000000000005 240.137ZM398.412 239.836L398.5 239.65900000000002L398.587 239.836C398.658 239.978 398.767 240.09400000000002 398.897 240.173C398.815 240.324 398.78 240.498 398.8 240.671C398.714 240.642 398.623 240.62699999999998 398.534 240.62699999999998C398.447 240.62699999999998 398.36199999999997 240.64 398.279 240.66699999999997C398.312 240.47599999999997 398.278 240.28199999999998 398.186 240.11499999999998C398.27799999999996 240.04099999999997 398.35699999999997 239.94599999999997 398.412 239.83599999999998ZM411.343 240.137L412.297 240.83L411.90500000000003 241.924C411.79200000000003 242.238 411.87800000000004 242.588 412.122 242.816C412.279 242.962 412.482 243.03900000000002 412.689 243.03900000000002C412.803 243.03900000000002 412.91900000000004 243.01600000000002 413.02700000000004 242.967L414.36500000000007 242.37400000000002L415.67500000000007 242.96500000000003C415.97900000000004 243.10300000000004 416.3330000000001 243.04500000000004 416.5780000000001 242.82200000000003C416.82400000000007 242.59800000000004 416.9140000000001 242.25000000000003 416.8070000000001 241.93500000000003L416.43700000000007 240.85600000000002L417.3570000000001 240.11100000000002C417.63200000000006 239.889 417.7370000000001 239.51700000000002 417.6180000000001 239.18400000000003C417.5010000000001 238.85100000000003 417.1870000000001 238.62900000000002 416.8330000000001 238.62900000000002H415.6820000000001L415.0780000000001 237.42200000000003C414.7960000000001 236.85600000000002 413.8710000000001 236.85600000000002 413.5870000000001 237.42200000000003L412.9850000000001 238.62900000000002H411.83300000000014C411.47200000000015 238.62900000000002 411.15200000000016 238.86100000000002 411.04100000000017 239.205C410.92900000000014 239.548 411.05100000000016 239.925 411.3430000000002 240.137ZM414.245 239.836L414.333 239.65900000000002L414.42100000000005 239.836C414.4920000000001 239.978 414.6 240.09400000000002 414.73100000000005 240.173C414.648 240.324 414.61300000000006 240.498 414.63300000000004 240.671C414.547 240.642 414.45700000000005 240.62699999999998 414.36800000000005 240.62699999999998C414.28100000000006 240.62699999999998 414.196 240.64 414.11300000000006 240.66699999999997C414.1460000000001 240.47599999999997 414.11100000000005 240.28199999999998 414.01900000000006 240.11499999999998C414.1120000000001 240.04099999999997 414.19000000000005 239.94599999999997 414.24500000000006 239.83599999999998ZM387.177 240.137L388.13 240.83L387.738 241.924C387.626 242.238 387.712 242.588 387.956 242.816C388.112 242.962 388.31600000000003 243.03900000000002 388.522 243.03900000000002C388.637 243.03900000000002 388.752 243.01600000000002 388.861 242.967L390.198 242.37400000000002L391.508 242.96500000000003C391.81199999999995 243.10300000000004 392.167 243.04500000000004 392.412 242.82200000000003C392.657 242.59800000000004 392.74699999999996 242.25000000000003 392.64 241.93500000000003L392.27099999999996 240.85600000000002L393.191 240.11100000000002C393.46599999999995 239.889 393.57 239.51700000000002 393.452 239.18400000000003C393.334 238.85100000000003 393.02 238.62900000000002 392.667 238.62900000000002H391.515L390.912 237.42200000000003C390.62899999999996 236.85600000000002 389.70399999999995 236.85600000000002 389.421 237.42200000000003L388.818 238.62900000000002H387.667C387.30499999999995 238.62900000000002 386.986 238.86100000000002 386.87399999999997 239.205C386.76199999999994 239.548 386.88399999999996 239.925 387.17699999999996 240.137ZM390.078 239.836L390.167 239.65900000000002L390.25399999999996 239.836C390.325 239.978 390.43299999999994 240.09400000000002 390.56399999999996 240.173C390.48199999999997 240.324 390.44699999999995 240.498 390.467 240.671C390.381 240.642 390.28999999999996 240.62699999999998 390.20099999999996 240.62699999999998C390.114 240.62699999999998 390.02899999999994 240.64 389.94599999999997 240.66699999999997C389.979 240.47599999999997 389.94399999999996 240.28199999999998 389.852 240.11499999999998C389.945 240.04099999999997 390.02299999999997 239.94599999999997 390.078 239.83599999999998ZM419.677 240.137L420.63 240.83L420.238 241.924C420.126 242.238 420.212 242.588 420.456 242.816C420.612 242.962 420.81600000000003 243.03900000000002 421.022 243.03900000000002C421.137 243.03900000000002 421.252 243.01600000000002 421.361 242.967L422.698 242.37400000000002L424.008 242.96500000000003C424.31199999999995 243.10300000000004 424.666 243.04500000000004 424.911 242.82200000000003C425.157 242.59800000000004 425.247 242.25000000000003 425.14 241.93500000000003L424.77099999999996 240.85600000000002L425.691 240.11100000000002C425.96599999999995 239.889 426.07 239.51700000000002 425.95099999999996 239.18400000000003C425.83399999999995 238.85100000000003 425.52 238.62900000000002 425.167 238.62900000000002H424.015L423.412 237.42200000000003C423.12899999999996 236.85600000000002 422.20399999999995 236.85600000000002 421.921 237.42200000000003L421.318 238.62900000000002H420.167C419.80499999999995 238.62900000000002 419.486 238.86100000000002 419.37399999999997 239.205C419.26199999999994 239.548 419.38399999999996 239.925 419.67699999999996 240.137ZM422.578 239.836L422.667 239.65900000000002L422.75399999999996 239.836C422.825 239.978 422.93299999999994 240.09400000000002 423.06399999999996 240.173C422.98199999999997 240.324 422.94699999999995 240.498 422.967 240.671C422.881 240.642 422.78999999999996 240.62699999999998 422.70099999999996 240.62699999999998C422.614 240.62699999999998 422.52899999999994 240.64 422.44599999999997 240.66699999999997C422.479 240.47599999999997 422.44399999999996 240.28199999999998 422.352 240.11499999999998C422.445 240.04099999999997 422.52299999999997 239.94599999999997 422.578 239.83599999999998ZM428.5 281.996C428.356 281.996 428.212 282.008 428.072 282.03299999999996C427.497 280.99799999999993 426.402 280.328 425.16700000000003 280.328C423.932 280.328 422.836 280.99699999999996 422.26200000000006 282.03299999999996C422.12100000000004 282.008 421.97700000000003 281.996 421.8330000000001 281.996C420.4550000000001 281.996 419.3330000000001 283.11899999999997 419.3330000000001 284.498C419.3330000000001 285.878 420.4550000000001 287 421.8330000000001 287H428.50000000000006C429.87800000000004 287 431.00000000000006 285.878 431.00000000000006 284.498C431.00000000000006 283.11899999999997 429.87800000000004 281.996 428.50000000000006 281.996ZM428.5 285.332H421.833C421.37300000000005 285.332 421 284.95799999999997 421 284.498C421 284.038 421.373 283.664 421.833 283.664C421.992 283.664 422.14500000000004 283.71 422.285 283.8C422.512 283.947 422.798 283.973 423.05 283.872C423.302 283.77000000000004 423.487 283.552 423.54900000000004 283.288C423.72400000000005 282.527 424.389 281.99600000000004 425.16700000000003 281.99600000000004C425.944 281.99600000000004 426.608 282.52700000000004 426.78400000000005 283.288C426.84700000000004 283.552 427.03100000000006 283.77000000000004 427.2830000000001 283.872C427.5350000000001 283.973 427.82000000000005 283.947 428.04800000000006 283.8C428.59100000000007 283.45 429.3330000000001 283.879 429.3330000000001 284.498C429.3330000000001 284.95799999999997 428.9600000000001 285.332 428.50000000000006 285.332ZM390.167 251.972H386.83299999999997C386.37199999999996 251.972 385.99999999999994 252.346 385.99999999999994 252.806V257.81C385.99999999999994 258.271 386.37199999999996 258.644 386.83299999999997 258.644H390.167C390.62699999999995 258.644 391 258.271 391 257.81V252.806C391 252.346 390.627 251.972 390.167 251.972ZM387.667 256.976V253.64H389.33299999999997V256.976ZM416.833 248.637C416.372 248.637 416 249.01 416 249.47V281.162C416 281.623 416.372 281.996 416.833 281.996C417.29400000000004 281.996 417.66700000000003 281.623 417.66700000000003 281.162V249.46999999999997C417.66700000000003 249.00999999999996 417.29400000000004 248.63699999999997 416.833 248.63699999999997ZM421 267.818C421 268.279 421.372 268.652 421.833 268.652H425.16700000000003C425.627 268.652 426.00000000000006 268.279 426.00000000000006 267.818V262.81399999999996C426.00000000000006 262.354 425.62700000000007 261.97999999999996 425.16700000000003 261.97999999999996H421.833C421.372 261.97999999999996 421 262.354 421 262.81399999999996ZM422.667 263.648H424.33299999999997V266.98400000000004H422.667ZM430.167 243.632C429.70599999999996 243.632 429.33299999999997 244.006 429.33299999999997 244.467V245.3H382.667V244.467C382.667 244.006 382.294 243.632 381.83299999999997 243.632C381.373 243.632 380.99999999999994 244.006 380.99999999999994 244.467V264.482C380.99999999999994 264.94300000000004 381.37199999999996 265.31600000000003 381.83299999999997 265.31600000000003C382.294 265.31600000000003 382.667 264.94300000000004 382.667 264.482V246.96800000000002H429.33299999999997V280.32800000000003C429.33299999999997 280.78900000000004 429.70599999999996 281.16200000000003 430.167 281.16200000000003C430.62699999999995 281.16200000000003 431 280.78900000000004 431 280.32800000000003V244.46700000000004C431 244.00600000000003 430.627 243.63200000000003 430.167 243.63200000000003ZM421 277.826C421 278.28700000000003 421.372 278.66 421.833 278.66H425.16700000000003C425.627 278.66 426.00000000000006 278.28700000000003 426.00000000000006 277.826V272.822C426.00000000000006 272.362 425.62700000000007 271.988 425.16700000000003 271.988H421.833C421.372 271.988 421 272.362 421 272.822ZM422.667 273.656H424.33299999999997V276.992H422.667ZM421.833 258.644H425.16700000000003C425.627 258.644 426.00000000000006 258.271 426.00000000000006 257.81V252.806C426.00000000000006 252.346 425.62700000000007 251.972 425.16700000000003 251.972H421.833C421.372 251.972 421 252.346 421 252.806V257.81C421 258.271 421.372 258.644 421.833 258.644ZM422.667 253.64H424.33299999999997V256.976H422.667ZM408.5 258.644H411.833C412.29400000000004 258.644 412.66700000000003 258.271 412.66700000000003 257.81V252.806C412.66700000000003 252.346 412.29400000000004 251.972 411.833 251.972H408.5C408.039 251.972 407.667 252.346 407.667 252.806V257.81C407.667 258.271 408.039 258.644 408.5 258.644ZM411 253.64V256.976H409.333V253.64ZM396 281.162V249.46999999999997C396 249.00999999999996 395.628 248.63699999999997 395.167 248.63699999999997C394.70599999999996 248.63699999999997 394.33299999999997 249.00999999999996 394.33299999999997 249.46999999999997V281.162C394.33299999999997 281.623 394.70599999999996 281.996 395.167 281.996C395.628 281.996 396 281.623 396 281.162ZM416.833 283.664H393.5C393.039 283.664 392.667 284.037 392.667 284.498V286.166C392.667 286.627 393.039 287 393.5 287C393.961 287 394.333 286.627 394.333 286.166V285.332H416.833C417.29400000000004 285.332 417.66700000000003 284.959 417.66700000000003 284.498C417.66700000000003 284.037 417.29400000000004 283.664 416.833 283.664ZM400.167 268.652H403.5C403.961 268.652 404.333 268.279 404.333 267.818V262.81399999999996C404.333 262.354 403.961 261.97999999999996 403.5 261.97999999999996H400.167C399.70599999999996 261.97999999999996 399.33299999999997 262.354 399.33299999999997 262.81399999999996V267.818C399.33299999999997 268.279 399.70599999999996 268.652 400.167 268.652ZM401 263.648H402.667V266.98400000000004H401ZM400.167 258.644H403.5C403.961 258.644 404.333 258.271 404.333 257.81V252.806C404.333 252.346 403.961 251.972 403.5 251.972H400.167C399.70599999999996 251.972 399.33299999999997 252.346 399.33299999999997 252.806V257.81C399.33299999999997 258.271 399.70599999999996 258.644 400.167 258.644ZM401 253.64H402.667V256.976H401ZM397.667 272.822C397.667 273.283 398.039 273.656 398.5 273.656H399.333V281.16200000000003C399.333 281.62300000000005 399.706 281.99600000000004 400.16700000000003 281.99600000000004C400.627 281.99600000000004 401.00000000000006 281.62300000000005 401.00000000000006 281.16200000000003V273.65600000000006H405.16700000000003V276.9920000000001C404.706 276.9920000000001 404.333 277.36500000000007 404.333 277.8260000000001C404.333 278.2870000000001 404.706 278.6600000000001 405.16700000000003 278.6600000000001V281.1620000000001C405.16700000000003 281.6230000000001 405.53900000000004 281.9960000000001 406.00000000000006 281.9960000000001C406.46100000000007 281.9960000000001 406.8330000000001 281.6230000000001 406.8330000000001 281.1620000000001V278.6600000000001C407.2940000000001 278.6600000000001 407.6660000000001 278.2870000000001 407.6660000000001 277.8260000000001C407.6660000000001 277.36500000000007 407.2940000000001 276.9920000000001 406.8330000000001 276.9920000000001V273.65600000000006H411.00000000000006V281.16200000000003C411.00000000000006 281.62300000000005 411.37200000000007 281.99600000000004 411.8330000000001 281.99600000000004C412.2940000000001 281.99600000000004 412.6670000000001 281.62300000000005 412.6670000000001 281.16200000000003V273.65600000000006H413.5000000000001C413.9610000000001 273.65600000000006 414.33300000000014 273.2830000000001 414.33300000000014 272.82200000000006C414.33300000000014 272.3620000000001 413.9610000000001 271.98800000000006 413.5000000000001 271.98800000000006H398.5000000000001C398.0390000000001 271.98800000000006 397.6670000000001 272.3620000000001 397.6670000000001 272.82200000000006ZM408.5 268.652H411.833C412.29400000000004 268.652 412.66700000000003 268.279 412.66700000000003 267.818V262.81399999999996C412.66700000000003 262.354 412.29400000000004 261.97999999999996 411.833 261.97999999999996H408.5C408.039 261.97999999999996 407.667 262.354 407.667 262.81399999999996V267.818C407.667 268.279 408.039 268.652 408.5 268.652ZM411 263.648V266.98400000000004H409.333V263.648Z " fill="url(#SvgjsLinearGradient1137)" transform="matrix(1,0,0,1,-381,-236)"></path></svg>