<svg width="23" height="23" xmlns="http://www.w3.org/2000/svg"><g><path fill-rule="evenodd" d="M5.978.023c0 .013-.065.023-.15.023-.083 0-.15.01-.15.023 0 .012-.066.022-.155.022-.09 0-.168.01-.184.028-.018.017-.028.018-.028.003 0-.014-.026-.02-.058-.014-.032.005-.057.02-.057.03 0 .012-.027.02-.06.02-.038 0-.053-.008-.042-.026.01-.016.007-.02-.01-.01-.014.01-.026.032-.026.05 0 .024-.03.033-.104.033-.056 0-.11.01-.117.025-.013.02-.022.018-.034 0C4.794.21 4.78.21 4.753.24c-.02.02-.068.036-.107.036-.04 0-.07.01-.07.023 0 .012-.025.022-.056.022-.03 0-.06.01-.063.023-.007.02-.11.04-.233.045-.023 0-.035.01-.028.024.008.013-.002.023-.02.023-.02 0-.037.01-.037.026 0 .014-.02.02-.047.013-.025-.006-.052-.002-.06.01-.006.01-.036.02-.065.02-.03 0-.066.015-.082.034-.015.02-.037.03-.047.023-.01-.007-.026.01-.035.035-.01.034-.03.044-.07.036-.032-.006-.05 0-.044.01.01.013 0 .023-.02.023s-.037.01-.037.02c0 .026-.088.055-.153.05-.032-.003-.055.013-.065.043-.008.027-.035.048-.06.048-.024 0-.044.01-.044.02 0 .013-.03.03-.068.037-.038.01-.063.025-.056.037.007.01-.003.02-.023.02s-.036.01-.036.024c0 .012-.02.023-.045.023-.024 0-.053.012-.063.027-.034.053-.118.09-.132.057-.008-.015-.007-.004 0 .026.012.046.007.052-.033.04-.034-.01-.05-.003-.06.032-.01.026-.035.047-.058.047s-.058.025-.08.056c-.02.032-.047.058-.06.058-.013 0-.05.025-.08.057-.033.033-.074.06-.093.06-.018 0-.07.035-.112.08-.043.043-.09.08-.103.08-.014 0-.026.01-.026.024 0 .013-.01.018-.023.01-.01-.008-.022-.004-.022.01 0 .01-.036.06-.08.107-.044.048-.08.094-.08.103 0 .01-.028.024-.06.033-.034.008-.055.02-.05.027.018.017-.19.23-.215.22-.01-.002-.02.003-.022.013-.006.07-.022.11-.043.117-.038.012-.138.117-.138.144 0 .034-.062.09-.08.072-.01-.01-.01 0 0 .023.008.023.004.04-.01.04-.015 0-.026.012-.026.028 0 .017-.026.05-.058.074-.03.023-.057.062-.057.085 0 .023-.016.042-.034.042-.018 0-.045.036-.06.08-.014.045-.035.08-.047.08-.013 0-.022.012-.022.025 0 .014-.03.05-.064.083-.034.032-.05.05-.034.043.016-.008.03-.004.03.01 0 .013-.012.024-.024.024-.013 0-.023.016-.023.036 0 .02-.01.03-.023.022s-.023.002-.023.02c0 .02-.012.037-.026.037-.013 0-.018.016-.01.035.006.02.002.034-.01.034s-.022.02-.022.046c0 .025-.02.05-.05.06-.038.012-.045.027-.034.08.008.038.004.068-.01.068-.01 0-.02.016-.02.034 0 .02-.012.035-.024.035-.013 0-.023.016-.023.034 0 .02-.01.035-.025.035-.013 0-.02.018-.017.04.004.022-.01.058-.033.08-.022.023-.04.064-.04.093 0 .03-.02.068-.046.086-.03.02-.04.05-.033.075.007.023-.008.07-.035.108-.026.036-.047.093-.047.126 0 .032-.01.06-.02.06-.013 0-.03.045-.038.102-.008.057-.024.104-.036.104-.01 0-.02.036-.02.08 0 .044-.012.08-.026.08-.014 0-.02.02-.013.047.006.025.002.05-.01.06-.01.006-.02.057-.02.113 0 .057-.01.103-.023.103s-.023.03-.023.066c0 .037-.01.07-.023.075-.013.005-.03.114-.038.244s-.024.235-.034.235c-.01 0-.02.067-.02.15 0 .083-.01.148-.023.148-.015 0-.023 1.82-.023 5.415 0 3.595.008 5.415.023 5.415.013 0 .023.065.023.15 0 .082.01.15.02.15s.026.105.033.235c.007.13.024.24.037.243.013.004.024.044.024.088 0 .047.01.074.024.066.014-.01.023.026.023.09 0 .056.01.11.025.118.02.01.018.02 0 .033-.02.013-.02.027.008.054.02.02.036.067.036.106 0 .04.01.07.023.07.012 0 .022.024.023.053 0 .028.015.077.033.11.018.03.034.085.034.12 0 .036.022.087.047.114.052.056.06.11.017.11-.016 0 0 .023.032.052.038.032.06.074.06.115 0 .035.015.076.034.092.02.015.05.06.066.102.018.04.04.074.047.074.02 0 .048.09.05.154 0 .03.017.057.042.065.023.008.043.034.043.058 0 .026.013.046.03.046.02 0 .02.005-.002.02-.022.013-.015.03.028.062.033.024.06.057.06.072 0 .016.01.03.023.03.014 0 .02.02.01.044-.01.03 0 .048.034.06.027.007.048.032.048.056 0 .023.015.047.034.055.02.007.035.033.035.058s.02.052.046.06c.025.008.046.034.046.057 0 .024.025.063.056.088.032.025.058.052.058.06 0 .01.025.043.057.077.033.034.06.077.06.094 0 .016.037.07.085.117.148.15.224.238.218.258-.003.01.006.018.02.018.035 0 .135.097.135.13 0 .016.02.034.045.042.025.008.05.034.06.058.007.024.032.05.056.058.023.008.05.035.057.06.008.024.04.05.07.058.03.007.083.05.117.092.035.043.08.078.1.078.02 0 .063.026.092.058.03.03.066.057.08.057.013 0 .044.026.068.058.023.032.06.058.084.058.023 0 .048.02.056.046.008.025.035.046.06.046.024 0 .05.015.058.034.007.02.032.035.055.035s.05.02.057.046c.01.033.027.043.06.033.024-.01.043-.004.043.01 0 .013.013.024.03.024.015 0 .048.026.072.058.032.044.047.05.062.03.014-.024.018-.024.02-.002 0 .016.015.03.035.03.04 0 .106.056.087.075-.006.007.015.01.047.006.034-.003.072.008.086.025.015.017.035.026.047.02.01-.008.02-.003.02.01 0 .014.016.025.034.025.02 0 .035.01.035.023 0 .012.018.023.04.023.022 0 .066.02.097.044.03.024.068.038.085.03.017-.005.057.02.088.055.03.037.057.053.057.038 0-.042.06-.036.078.007.007.02.024.03.037.02.012-.007.023-.002.023.01 0 .015.036.026.08.026.045 0 .08.01.08.025 0 .015.016.02.035.014.018-.007.04-.003.047.01.007.01.04.02.07.02.03 0 .056.01.056.024 0 .012.035.023.078.023s.082.012.087.025c.01.03.065.04.21.043.073 0 .107.01.103.03-.004.02.017.026.06.02.037-.003.074.005.083.02.01.014.117.03.25.04.127.007.226.022.22.033-.007.012.06.02.15.02.093 0 .162.01.162.024 0 .015 1.82.023 5.415.023 3.595 0 5.415-.008 5.415-.023 0-.013.065-.023.15-.023.082 0 .15-.008.15-.02 0-.01.105-.025.235-.033s.24-.025.243-.038c.004-.014.038-.024.075-.024.038 0 .068-.01.068-.02s.07-.026.155-.034c.085-.008.16-.025.163-.038.004-.013.043-.023.086-.023.044 0 .08-.008.08-.02 0-.01.045-.027.102-.036.057-.008.104-.025.104-.037 0-.012.036-.02.08-.02.045 0 .08-.012.08-.024 0-.013.016-.023.035-.023.02 0 .035-.012.035-.026 0-.015.02-.02.053-.012.038.01.064 0 .086-.032.018-.025.06-.045.092-.045s.073-.02.09-.043c.018-.026.048-.04.074-.032.024.006.043 0 .043-.016 0-.015.01-.02.023-.013.013.01.03 0 .037-.02.007-.02.022-.03.03-.025.01.006.03-.003.045-.02.014-.017.053-.028.085-.024.033.004.054.002.047-.005-.02-.02.045-.073.115-.09.036-.01.083-.036.103-.06.02-.022.05-.04.063-.04.015 0 .027-.012.027-.026 0-.014.02-.02.044-.01.03.01.048 0 .06-.034.007-.026.022-.043.03-.037.01.005.036-.01.057-.035.022-.025.06-.045.084-.045.024 0 .05-.02.06-.046.007-.025.032-.046.055-.046.02 0 .06-.026.083-.057.024-.03.052-.057.062-.057.01 0 .046-.026.08-.057.034-.032.075-.058.09-.058.017 0 .067-.04.112-.086.044-.048.09-.088.103-.09.012 0 .033-.003.045-.005.013-.002.02-.012.017-.024-.003-.012.04-.064.098-.115.107-.098.132-.12.176-.165l.086-.082c.033-.03.06-.064.06-.075 0-.01.02-.027.046-.035.026-.008.042-.023.035-.034-.006-.01.035-.067.092-.126.057-.06.103-.12.103-.135 0-.015.026-.056.058-.09.03-.034.057-.072.057-.084 0-.01.02-.028.047-.036.027-.01.052-.042.06-.08.007-.038.03-.07.056-.077.026-.007.044-.032.044-.06 0-.027.015-.055.034-.062.02-.008.035-.032.035-.055 0-.022.014-.047.033-.054.02-.007.035-.034.035-.06 0-.025.01-.046.023-.046.014 0 .025-.02.026-.04 0-.035.004-.035.02.004.013.036.02.025.032-.052.008-.053.026-.096.038-.096.013 0 .023-.02.023-.045 0-.023.018-.05.042-.057.024-.008.043-.035.043-.065 0-.077.03-.155.054-.14.01.006.02-.01.02-.036 0-.026.01-.047.025-.047.013 0 .02-.013.015-.03-.006-.015.014-.057.043-.092.03-.035.047-.078.04-.097-.007-.018.004-.05.024-.07.02-.02.037-.067.037-.105 0-.04.01-.062.023-.054.012.008.023-.002.023-.023 0-.02.01-.03.023-.023.012.008.023-.004.024-.027.004-.124.023-.226.044-.233.014-.004.025-.033.025-.064 0-.03.01-.055.023-.055.012 0 .023-.036.023-.08 0-.046.01-.077.022-.07.01.007.018-.013.014-.044-.003-.032.003-.058.014-.058.01 0 .02-.052.02-.115s.01-.115.023-.115c.012 0 .023-.03.023-.067 0-.036.01-.07.025-.074.015-.005.03-.104.038-.238.007-.126.022-.233.033-.237.012-.003.02-.073.02-.154 0-.083.01-.148.024-.148.015 0 .023-1.82.023-5.415 0-3.594-.008-5.415-.023-5.415-.013 0-.023-.065-.023-.15 0-.08-.008-.15-.02-.15-.01 0-.025-.105-.033-.234-.008-.13-.025-.24-.038-.243-.014-.004-.024-.037-.024-.074s-.01-.067-.023-.067-.023-.048-.023-.105c0-.057-.01-.103-.024-.103-.013 0-.017-.025-.01-.058.01-.035.006-.057-.01-.057-.014 0-.025-.037-.025-.08 0-.045-.01-.08-.022-.08-.013 0-.023-.027-.023-.06 0-.03-.01-.056-.02-.056-.013 0-.03-.05-.037-.112-.01-.062-.036-.134-.06-.16-.024-.026-.044-.073-.044-.104 0-.03-.016-.072-.035-.09-.02-.02-.035-.062-.035-.094 0-.033-.02-.072-.05-.093-.028-.02-.044-.042-.035-.05.008-.01.003-.032-.013-.052-.024-.03-.023-.032.006-.017.02.01.01-.003-.017-.028-.03-.025-.052-.057-.052-.07 0-.015-.01-.026-.023-.026-.012 0-.018-.023-.014-.052.004-.028-.01-.067-.03-.086-.02-.02-.058-.074-.083-.123-.084-.166-.09-.176-.107-.176-.01 0-.018-.02-.018-.047 0-.025-.016-.052-.035-.06-.02-.007-.034-.026-.034-.043 0-.016-.012-.034-.025-.038-.014-.006-.028-.025-.03-.043-.015-.07-.044-.115-.075-.115-.018 0-.032-.02-.032-.043 0-.024-.026-.063-.058-.086-.03-.024-.057-.052-.057-.062 0-.01-.026-.045-.057-.076-.063-.062-.075-.09-.03-.066.017.01.004-.01-.028-.043-.032-.033-.07-.074-.085-.093-.015-.018-.04-.037-.053-.04-.014-.006-.028-.028-.03-.05-.008-.042-.408-.445-.436-.436-.01.003-.017-.005-.017-.02 0-.012-.032-.056-.07-.096-.04-.04-.066-.06-.057-.043.014.023.01.024-.03 0-.026-.016-.043-.036-.038-.044.005-.008-.013-.03-.04-.047-.025-.02-.06-.047-.076-.063-.017-.015-.04-.028-.055-.028-.012 0-.054-.034-.092-.074-.038-.04-.07-.065-.07-.056 0 .008-.014.002-.032-.014-.02-.02-.024-.035-.007-.045.013-.008-.014-.022-.06-.03-.055-.01-.09-.032-.098-.062-.01-.03-.03-.042-.056-.035-.023.006-.054-.008-.072-.032-.017-.023-.043-.042-.058-.042-.015 0-.033-.016-.04-.035-.007-.02-.034-.034-.06-.034-.025 0-.046-.01-.046-.02 0-.016-.07-.058-.144-.086-.022-.01-.04-.025-.04-.036 0-.01-.016-.02-.035-.02-.018 0-.055-.02-.08-.047-.03-.03-.064-.042-.093-.032-.025.008-.044.003-.044-.01 0-.014-.016-.025-.035-.025-.02 0-.034-.01-.034-.023s-.016-.023-.036-.023c-.02 0-.03-.01-.02-.027.012-.018 0-.022-.04-.012-.04.01-.065.002-.09-.03-.017-.026-.056-.046-.085-.046-.03 0-.07-.016-.09-.035-.018-.02-.06-.034-.09-.034S18.65.473 18.65.46s-.016-.023-.036-.023c-.02 0-.03-.01-.024-.02.007-.01-.05-.027-.125-.036-.075-.007-.137-.024-.137-.036 0-.012-.026-.022-.058-.022-.03 0-.057-.012-.057-.026 0-.015-.023-.02-.058-.014-.034.006-.073-.003-.092-.023-.02-.02-.05-.03-.068-.022-.02.008-.034.003-.034-.01 0-.01-.05-.02-.114-.02-.062 0-.12-.01-.127-.024-.008-.013-.04-.023-.07-.023-.03 0-.057-.01-.06-.023-.005-.013-.115-.03-.244-.038-.13-.008-.236-.024-.236-.034 0-.01-.067-.02-.15-.02-.084 0-.15-.01-.15-.023 0-.015-1.82-.023-5.414-.023C7.8 0 5.978.008 5.978.023M16.895.84c.117.008.212.024.212.036 0 .01.067.02.148.02.096 0 .15.01.157.03.005.015.042.025.088.022.062-.004.07 0 .044.02-.026.018-.01.022.063.013.054-.005.098 0 .098.01 0 .012.036.022.08.022.045 0 .08.01.08.023 0 .012.02.023.046.023.025 0 .052.01.06.025.01.013.035.02.058.014s.062.003.086.02c.025.017.05.025.06.017.007-.008.014-.003.014.012s.026.027.057.027c.032 0 .058.01.058.025 0 .015.02.02.053.012.037-.01.063 0 .085.032.02.026.06.046.095.046.034 0 .074.015.09.034.016.02.053.035.083.035.033 0 .055.013.055.033 0 .02.013.03.034.02.02-.006.035 0 .035.013 0 .014.015.026.034.026.02 0 .035.01.035.02 0 .013.017.017.036.01.02-.008.053.007.077.035.024.027.062.05.086.05.035 0 .037.003.008.022-.027.017-.02.022.03.022.034 0 .08.02.1.043.02.025.05.04.068.033.017-.007.038.004.045.025.01.02.03.038.05.038.02 0 .055.025.08.057s.057.057.073.057c.015 0 .042.02.06.046.02.026.046.046.062.046s.054.026.086.058c.033.032.07.057.082.057.014 0 .024.016.024.035 0 .02.01.03.022.023.012-.008.035.002.052.022.098.116.252.264.273.264.032 0 .16.127.16.16 0 .027.213.244.26.262.02.01.018.018-.007.035-.026.02-.02.027.03.04.033.008.06.025.06.037 0 .012.027.047.06.08.03.03.056.07.056.085s.02.043.046.06c.025.02.046.045.046.058 0 .013.026.052.058.086.03.034.057.072.057.084 0 .01.015.027.034.034.02.008.034.032.034.055 0 .022.02.055.043.072.026.018.04.05.034.072-.007.025.017.067.062.11.056.054.07.082.057.12-.01.034-.008.046.01.035.015-.01.025.002.025.032 0 .027.01.042.023.034.014-.007.024.008.024.035 0 .028.01.043.023.035.013-.008.023.01.023.043 0 .032.016.073.035.092.018.02.034.057.034.085 0 .028.02.07.047.093.033.028.043.056.033.088-.01.028-.005.048.01.048.013 0 .024.026.024.057 0 .033.01.06.023.06s.023.014.023.033c0 .02.01.035.024.035s.02.036.014.09c-.008.07-.003.088.02.08.022-.01.027 0 .018.035-.007.027 0 .048.013.048s.025.036.025.08c0 .043.01.084.02.09.01.007.014.044.008.083-.008.054-.003.067.023.057.025-.01.03.003.023.055-.006.037 0 .074.015.083.014.008.025.08.025.163s.01.15.02.15c.045 0 .083 11.17.038 11.216-.007.007-.012.056-.012.11s-.01.105-.023.113c-.013.007-.023.08-.023.162 0 .094-.01.145-.023.136-.024-.015-.032.014-.024.087.002.023-.008.056-.022.074-.014.016-.02.052-.01.078.008.027.004.047-.01.047s-.025.036-.025.08c0 .045-.01.08-.023.08s-.023.022-.023.047-.01.046-.02.046c-.013 0-.027.02-.034.046-.006.025-.002.046.01.046.01 0 .02.015.02.034 0 .02-.01.035-.023.035s-.023.015-.023.035c0 .02-.01.03-.023.02-.014-.007-.023.02-.023.07 0 .044-.01.08-.025.08-.014 0-.02.02-.01.045.008.03-.003.055-.035.078-.027.018-.05.058-.052.088-.002.03-.017.068-.033.085-.017.017-.03.056-.03.087 0 .03-.01.056-.023.056s-.023.015-.023.034c0 .02-.01.035-.023.035-.012 0-.022.015-.022.034 0 .02-.01.035-.024.035-.015 0-.02.02-.01.047.008.026.004.046-.01.046s-.025.015-.025.033c0 .018-.02.04-.045.046-.03.01-.042.032-.038.068.004.032-.012.067-.036.085-.023.017-.042.05-.042.072 0 .023-.015.048-.034.055-.02.008-.035.032-.035.056 0 .023-.022.048-.047.056-.026.008-.04.024-.033.036.007.012.002.022-.01.022-.015 0-.026.02-.026.044 0 .024-.02.05-.044.06-.025.006-.048.035-.052.063-.004.026-.042.072-.085.1-.043.03-.066.053-.05.053.027 0 .004.036-.063.1-.148.138-.258.258-.258.28 0 .008-.032.047-.07.087-.04.04-.065.058-.055.04.032-.064-.242.198-.31.296-.02.027-.048.048-.063.048-.016 0-.065.036-.108.08-.043.043-.085.072-.093.065-.007-.01-.03.006-.054.03-.023.027-.064.055-.092.064-.027.008-.056.036-.064.06-.008.025-.033.045-.056.045-.024 0-.048.015-.056.034-.007.02-.032.034-.055.034s-.056.02-.074.045c-.018.025-.064.052-.103.06-.038.01-.085.034-.104.056-.02.02-.068.046-.11.055-.04.01-.074.026-.074.038 0 .01-.016.02-.035.02-.02 0-.034.01-.034.024 0 .013-.025.023-.055.023s-.067.016-.083.035c-.016.018-.055.034-.087.034-.03 0-.076.02-.098.046-.028.032-.06.043-.1.036-.035-.006-.055-.002-.048.01.008.012-.013.022-.045.022-.033 0-.06.01-.06.024s-.01.018-.022.01c-.013-.007-.03.002-.037.022-.01.023-.042.036-.092.036-.043 0-.078.01-.078.02 0 .012-.02.016-.046.01-.026-.007-.046 0-.046.013s-.036.025-.08.025c-.045 0-.08.01-.08.023s-.032.023-.07.023c-.038 0-.07.01-.07.023 0 .015-.02.015-.056 0-.04-.015-.065-.012-.09.013-.02.022-.08.034-.162.034-.07 0-.128.01-.128.023s-.052.023-.115.023-.115.008-.115.017c0 .01-2.478.017-5.507.017-3.03 0-5.507-.007-5.507-.017 0-.01-.046-.017-.102-.017-.056 0-.108-.01-.116-.023-.008-.013-.08-.023-.16-.023-.108 0-.15-.01-.16-.034-.01-.027-.025-.03-.07-.012-.038.014-.058.014-.058 0 0-.013-.032-.023-.07-.023-.037 0-.068-.01-.068-.022 0-.013-.037-.023-.08-.023-.045 0-.08-.012-.08-.026 0-.015-.022-.02-.047-.014-.026.006-.052.002-.06-.01-.006-.01-.042-.02-.08-.02-.037 0-.067-.01-.067-.023s-.016-.023-.036-.023c-.02 0-.03-.01-.022-.023s-.014-.023-.055-.023c-.037 0-.074-.01-.08-.02-.01-.012-.034-.016-.06-.01-.027.007-.054-.005-.073-.037-.018-.03-.054-.048-.09-.048-.034 0-.074-.017-.09-.035-.016-.02-.053-.035-.083-.035-.032 0-.056-.01-.056-.023s-.015-.023-.032-.023c-.018 0-.037-.013-.043-.03-.008-.015-.04-.03-.076-.034-.035-.003-.08-.026-.103-.05-.02-.026-.056-.047-.076-.047-.02 0-.038-.01-.038-.024 0-.015-.01-.02-.024-.01-.014.008-.043-.007-.066-.034-.023-.026-.06-.048-.08-.048-.02 0-.044-.015-.052-.034-.007-.02-.032-.035-.055-.035-.024 0-.05-.02-.057-.045-.01-.037-.055-.07-.104-.075-.007 0-.036-.03-.064-.062-.035-.04-.052-.05-.053-.026 0 .025-.012.02-.044-.017-.024-.028-.056-.052-.07-.052-.015 0-.02-.01-.012-.023.007-.012-.002-.023-.02-.023-.02 0-.06-.025-.09-.056-.202-.216-.28-.288-.316-.288-.014 0-.018-.012-.01-.026.01-.017.007-.02-.01-.01-.025.016-.115-.067-.117-.108 0-.035-.225-.27-.256-.27-.013 0-.022-.02-.022-.046 0-.025-.015-.046-.034-.046-.02 0-.035-.01-.035-.024 0-.013-.03-.05-.068-.082-.038-.03-.063-.07-.056-.088.007-.018-.008-.038-.036-.046-.026-.01-.048-.035-.048-.058 0-.024-.025-.063-.057-.088-.032-.025-.057-.06-.057-.08 0-.02-.016-.04-.035-.048-.02-.007-.034-.032-.034-.055s-.022-.056-.047-.074c-.024-.018-.052-.064-.06-.103-.01-.038-.035-.086-.06-.107-.022-.02-.04-.054-.04-.075 0-.02-.013-.037-.027-.037s-.02-.015-.012-.034c.007-.02.003-.034-.01-.034-.01 0-.02-.016-.02-.035 0-.02-.012-.034-.024-.034-.013 0-.023-.025-.023-.056 0-.03-.014-.07-.03-.086-.016-.016-.03-.054-.033-.084-.002-.03-.026-.07-.052-.09-.04-.026-.046-.048-.035-.105.01-.053.008-.063-.01-.037-.018.027-.024.018-.024-.04 0-.04-.01-.075-.023-.075s-.023-.016-.023-.035c0-.02-.01-.034-.023-.034s-.023-.037-.023-.082c0-.044-.01-.08-.022-.08-.012 0-.016-.014-.01-.032.007-.018.002-.04-.012-.048-.013-.008-.024-.05-.024-.094 0-.043-.01-.08-.023-.08-.014 0-.024-.03-.024-.068 0-.038-.01-.07-.023-.07-.014 0-.014-.02 0-.057.017-.046.014-.062-.012-.073-.024-.01-.033-.05-.033-.16 0-.082-.01-.147-.023-.147s-.023-.052-.023-.115S.844 16.9.835 16.9c-.01 0-.018-2.478-.018-5.507 0-3.03.008-5.507.018-5.507.01 0 .017-.05.017-.115 0-.062.01-.114.024-.114.013 0 .023-.06.023-.138 0-.075.01-.138.02-.138.03 0 .045-.11.018-.136C.918 5.227.92 5.22.938 5.22c.016 0 .028-.03.028-.07 0-.042.01-.065.023-.057.013.01.022-.023.022-.08 0-.052.01-.092.025-.092.015 0 .02-.02.014-.045-.006-.026-.002-.046.01-.046.01 0 .02-.038.02-.082 0-.044.01-.08.024-.08.012 0 .023-.016.023-.036 0-.02.01-.03.023-.022s.023-.014.023-.055c0-.037.01-.075.022-.082.012-.008.016-.03.008-.048-.007-.02.008-.053.036-.077.026-.023.048-.065.048-.093 0-.028.015-.066.034-.085.02-.02.035-.054.035-.08 0-.023.01-.043.023-.043.012 0 .023-.02.023-.046 0-.024.01-.045.02-.045.012 0 .03-.033.038-.073.01-.04.037-.094.06-.12.025-.026.052-.074.06-.106.007-.03.033-.074.056-.095.023-.02.043-.053.043-.074 0-.02.014-.044.033-.052.02-.007.035-.023.035-.034 0-.012.025-.05.057-.084s.057-.07.057-.082c0-.012.022-.04.047-.062s.043-.05.04-.06c-.004-.013.037-.067.09-.122.054-.055.098-.114.098-.13 0-.018.01-.032.02-.032.035 0 .256-.227.256-.26 0-.043.057-.09.08-.067.01.01.014.007.007-.005-.012-.023.023-.068.058-.076.03-.007.148-.117.286-.264.067-.07.1-.09.1-.06 0 .023.006.022.02-.002.013-.02.017-.042.01-.052-.005-.01.004-.02.023-.02.018 0 .04-.014.046-.033.008-.02.034-.036.06-.036.024 0 .05-.02.06-.047.008-.027.028-.043.044-.036.032.013.127-.063.127-.1 0-.013.02-.022.044-.022.024 0 .05-.016.056-.035.008-.02.035-.034.06-.034.026 0 .047-.012.047-.024s.027-.03.058-.037c.032-.01.058-.025.058-.036 0-.01.017-.02.038-.02.02 0 .055-.02.078-.047.022-.026.05-.046.06-.044.036.006.123-.03.123-.05 0-.01.015-.02.034-.02.018 0 .034-.01.034-.023s.024-.023.055-.023c.03 0 .066-.016.082-.035.016-.02.056-.034.09-.034.035 0 .072-.02.09-.047.02-.034.042-.04.088-.03.043.01.056.008.044-.01-.01-.02.007-.027.054-.027.04 0 .07-.008.07-.018 0-.03.114-.07.162-.058.025.007.046 0 .046-.014s.026-.025.057-.025c.032 0 .058-.01.058-.023s.037-.023.08-.023c.045 0 .082-.01.082-.023s.03-.017.07-.01c.043.01.068.005.068-.012 0-.015.03-.024.073-.02.04.003.077-.007.082-.023.006-.018.06-.028.157-.028.08 0 .147-.01.147-.02C5.68.82 16.127.787 16.894.84M6.007 2.293c-.066.005-.12.02-.12.03 0 .013-.037.022-.08.022-.045 0-.082.01-.082.024 0 .01-.044.02-.097.018-.12-.004-.248.022-.248.05 0 .013-.046.022-.103.022-.057 0-.103.01-.103.023s-.016.023-.035.023c-.02 0-.035.01-.035.025 0 .015-.02.02-.044.01-.024-.006-.05-.002-.058.01-.008.014-.04.025-.07.025-.032 0-.057.01-.057.023s-.016.023-.035.023c-.02 0-.034.013-.034.027s-.016.02-.035.012c-.018-.008-.033-.004-.033.008s-.02.022-.046.022c-.025 0-.045.01-.045.023s-.016.023-.035.023c-.02 0-.034.01-.034.02 0 .012-.037.028-.08.036-.046.01-.076.025-.07.037.008.01-.01.02-.043.02-.037 0-.062.017-.072.048-.01.033-.027.043-.056.034-.03-.01-.047 0-.056.028-.013.043-.125.12-.173.12-.014 0-.054.027-.088.06-.034.03-.075.056-.09.056-.017 0-.03.01-.03.023 0 .04-.39.416-.418.4-.017-.01-.02-.007-.01.01.02.03-.046.104-.077.085-.01-.007-.015.01-.01.04.01.037.006.042-.01.02-.018-.027-.026-.023-.04.018-.008.027-.02.045-.027.038-.018-.017-.067.04-.086.097-.01.028-.026.05-.037.05-.012 0-.022.022-.022.047s-.008.046-.02.046c-.01 0-.026.025-.034.056-.008.03-.036.063-.062.07-.033.01-.044.03-.037.06.008.028-.003.047-.032.056-.026.008-.044.035-.044.065 0 .028-.02.065-.045.084-.028.02-.04.05-.033.075.007.022.002.04-.01.04-.015 0-.026.016-.026.035 0 .02-.01.035-.023.035-.012 0-.023.02-.023.046s-.01.047-.022.047c-.012 0-.017.013-.01.03.005.015-.01.05-.036.08-.026.026-.047.074-.047.105 0 .03-.012.06-.026.066-.015.004-.03.044-.036.088-.005.043-.02.082-.03.087-.014.004-.024.048-.024.097 0 .05-.01.09-.023.09-.012 0-.023.016-.023.035 0 .02-.01.034-.02.034-.013 0-.018.06-.012.136.007.08 0 .142-.013.15-.014.008-.025.045-.025.083 0 .036-.01.066-.023.066s-.023.066-.023.15c0 .082-.008.15-.018.15-.01 0-.017 2.352-.017 5.228s.008 5.224.017 5.218c.01-.006.017.052.017.13 0 .077.01.138.022.138.013 0 .023.036.023.08 0 .046.012.08.027.08.017 0 .022.037.012.114-.012.108.02.232.06.232.01 0 .016.047.016.104 0 .057.01.103.023.103.012 0 .03.04.037.092.008.05.024.086.035.08.01-.008.02.018.02.057 0 .038.01.07.023.07s.023.016.023.034c0 .02.012.035.026.035.014 0 .018.02.01.047-.01.026-.004.046.01.046.013 0 .024.015.024.034 0 .02.01.035.02.035.013 0 .03.033.04.075.008.04.035.09.058.112.024.02.043.057.043.082 0 .026.017.053.036.06.02.007.034.03.034.05 0 .04.057.107.076.088.018-.017.044.08.03.105-.01.012-.002.03.012.038.017.01.02.007.01-.01-.008-.014-.005-.026.01-.026.012 0 .023.02.023.046 0 .025.01.046.024.046.012 0 .03.025.037.056.01.032.03.058.046.058s.037.02.045.046c.01.025.024.046.035.046.01 0 .134.114.274.253.14.138.248.252.24.252-.007 0 .003.015.022.034.02.02.04.035.05.035.008 0 .03.014.046.03.08.07.103.085.136.085.02 0 .036.01.036.02 0 .012.025.028.056.036.03.008.062.035.07.06.008.026.035.046.06.046.026 0 .04.01.032.024-.008.013.017.03.055.037.038.007.09.033.115.057.026.024.063.043.082.043.02 0 .036.01.036.023 0 .012.015.016.034.01.02-.01.035-.004.035.008 0 .025.085.06.132.053.016 0 .03.008.03.02 0 .015.014.025.033.025.02 0 .035.01.035.023s.025.023.056.023c.032 0 .063.012.07.024.01.013.035.023.058.023s.047.012.052.027c.004.014.067.03.14.037.072.007.13.02.13.032 0 .01.016.02.035.02.02 0 .034.01.034.02 0 .012.03.026.068.03.038.007.07.003.07-.008 0-.01.03-.02.068-.02.038 0 .07.012.07.024 0 .013.035.023.078.023s.083.014.088.03c.008.023 1.128.03 5.5.03 4.374 0 5.495-.007 5.503-.03.005-.016.044-.03.088-.03.043 0 .078-.01.078-.025 0-.018.043-.02.14-.01.09.01.137.007.137-.01 0-.012.016-.023.035-.023.02 0 .034-.01.034-.023s.03-.024.063-.024c.11 0 .235-.028.222-.05-.007-.01.01-.02.035-.02.026 0 .047-.01.047-.022 0-.012.026-.023.058-.023.033 0 .08-.02.11-.045.026-.026.062-.042.078-.035.017.006.03 0 .03-.01 0-.014.02-.024.046-.024.025 0 .046-.01.046-.023 0-.012.015-.023.034-.023.02 0 .035-.01.035-.024s.02-.02.042-.012c.025.008.053-.004.074-.033.018-.024.057-.045.086-.045.03 0 .06-.015.067-.034.006-.018.03-.034.054-.034.023 0 .048-.02.056-.046.008-.025.04-.052.07-.06.032-.007.057-.023.057-.034 0-.01.015-.02.034-.02.04 0 .12-.06.25-.19.047-.05.098-.08.112-.072.015.01.02.005.01-.01-.013-.02.357-.418.39-.418.02 0 .123-.12.136-.16.008-.026.024-.047.036-.047.012 0 .02-.017.02-.035 0-.02.022-.068.047-.11.027-.04.047-.066.047-.056 0 .01.016.003.035-.016.02-.02.028-.05.02-.07-.007-.02.006-.04.036-.048.03-.01.047-.035.047-.073 0-.03.01-.05.022-.043.012.007.03-.023.037-.068.01-.045.025-.08.036-.08.01 0 .02-.017.02-.036 0-.02.01-.034.023-.034s.023-.016.023-.035c0-.02.01-.034.025-.034.014 0 .02-.02.012-.042-.008-.023.006-.06.033-.09.026-.027.046-.074.046-.105 0-.03.018-.062.038-.07.03-.012.032-.02.01-.05-.02-.022-.02-.033-.003-.033.014 0 .025-.015.025-.034 0-.02.01-.035.023-.035s.023-.046.023-.1c0-.06.012-.107.028-.112.017-.005.03-.073.037-.174.006-.09.02-.165.03-.165.012 0 .02-.034.02-.077 0-.044.01-.082.023-.087.012-.004.024-.067.027-.14.003-.072.01-.132.018-.132.008 0 .014-2.354.014-5.23 0-2.878-.008-5.232-.017-5.232-.01 0-.018-.062-.018-.138 0-.076-.01-.138-.023-.138-.012 0-.023-.036-.023-.08 0-.044-.01-.08-.02-.08-.013 0-.022-.058-.02-.127 0-.08-.014-.15-.037-.185-.02-.03-.037-.092-.037-.135 0-.044-.01-.083-.022-.087-.013-.005-.027-.044-.03-.087-.006-.044-.022-.084-.036-.088-.015-.005-.027-.035-.027-.066 0-.03-.02-.08-.045-.106-.026-.028-.042-.064-.035-.08.006-.016 0-.03-.01-.03-.014 0-.024-.02-.024-.045 0-.025-.01-.045-.023-.045-.012 0-.023-.016-.023-.035 0-.02-.01-.034-.023-.034-.012 0-.023-.02-.023-.045 0-.023-.015-.058-.034-.077-.02-.02-.035-.056-.035-.08 0-.027-.02-.054-.046-.062-.034-.01-.044-.027-.035-.056.01-.03 0-.047-.03-.056-.04-.013-.12-.125-.12-.173 0-.014-.02-.048-.045-.075-.025-.026-.04-.057-.033-.068.007-.01-.005-.02-.025-.02s-.03-.01-.023-.022c.007-.013-.002-.023-.022-.023-.048 0-.132-.095-.118-.133.007-.017.002-.024-.01-.017-.034.02-.124-.07-.103-.105.01-.018.008-.022-.01-.012-.034.022-.218-.16-.196-.196.012-.018.008-.02-.01-.01-.033.02-.14-.07-.14-.117 0-.017-.016-.03-.036-.03-.02 0-.03-.01-.023-.02.008-.013-.012-.03-.044-.036-.032-.007-.057-.024-.057-.036 0-.013-.023-.023-.05-.023-.025 0-.04-.01-.032-.022.008-.012 0-.017-.017-.01-.032.012-.13-.068-.13-.107 0-.012-.02-.017-.045-.01-.032.01-.05.002-.06-.032-.01-.03-.034-.047-.072-.047-.03 0-.05-.01-.043-.02.007-.013-.023-.03-.068-.038-.045-.008-.08-.024-.08-.035 0-.012-.017-.02-.036-.02-.02 0-.034-.01-.034-.024 0-.012-.02-.023-.046-.023-.025 0-.046-.01-.046-.022 0-.012-.013-.017-.03-.01-.016.005-.052-.01-.08-.036-.027-.026-.07-.047-.095-.047-.025 0-.052-.01-.06-.025-.01-.013-.036-.02-.06-.013-.023.006-.043.002-.043-.01 0-.01-.02-.02-.046-.02-.025 0-.046-.01-.046-.024 0-.012-.04-.023-.092-.023-.05 0-.092-.01-.092-.02 0-.03-.128-.056-.247-.052-.055.002-.1-.007-.1-.02 0-.012-.034-.023-.077-.023-.044 0-.083-.013-.088-.028-.01-.027-10.52-.05-10.888-.024M16.67 3.1c0 .013.047.016.104.01.068-.008.103-.003.103.014 0 .014.036.026.08.026.045 0 .08.01.08.023s.043.023.093.023.092.01.092.022c0 .012.052.03.115.038s.115.024.115.035c0 .012.02.02.046.02.025 0 .046.01.046.024 0 .013.016.023.035.023.018 0 .033.01.033.022 0 .01.026.015.058.01.032-.006.058 0 .058.013 0 .012.016.023.036.023.02 0 .03.01.022.023-.01.012.01.022.044.022.033 0 .06.01.06.025 0 .014.012.02.028.015.016-.005.044.007.063.027.04.04.093.074.202.13.04.02.068.048.06.06-.01.014-.005.02.008.01.025-.015.122.065.122.1 0 .013.02.023.044.023.052 0 .258.193.25.235-.004.016.007.027.023.023.04-.007.234.198.234.25 0 .023.02.048.045.056.023.008.05.034.058.06.007.024.023.044.035.044.012 0 .022.015.022.034 0 .02.01.035.02.035s.026.017.034.04c.017.054.063.123.11.167.025.023.035.057.027.092-.01.043-.007.048.012.02.02-.027.024-.02.024.03 0 .038.01.06.024.05.012-.007.023.003.023.023s.01.036.024.036c.013 0 .02.024.013.056-.006.032 0 .058.01.058.013 0 .023.015.023.034 0 .02.01.035.023.035.012 0 .023.02.023.046 0 .024.01.044.02.044s.026.052.035.115c.01.063.026.114.038.114.013 0 .023.042.023.092 0 .05.01.092.024.092.012 0 .023.036.023.08 0 .043.01.084.02.09.012.01.02.06.017.116-.003.056.003.097.013.09.01-.005.018 2.37.018 5.28s-.008 5.29-.017 5.29c-.01 0-.014.04-.01.09.006.058 0 .093-.016.093-.014 0-.025.036-.025.08 0 .045-.01.08-.023.08s-.023.042-.023.09c0 .05-.01.095-.025.1-.014.004-.03.057-.037.117-.007.06-.02.108-.032.108-.01 0-.02.02-.02.046 0 .025-.01.046-.023.046s-.023.016-.023.035c0 .018-.01.033-.022.033-.012 0-.017.026-.01.058.005.032 0 .058-.014.058-.013 0-.023.016-.023.035 0 .018-.01.034-.022.034-.013 0-.023.02-.023.046 0 .025-.012.046-.026.046-.015 0-.02.013-.014.03s-.008.045-.032.062c-.025.018-.044.048-.044.067 0 .02-.02.048-.046.063-.026.017-.04.043-.032.063.008.02.002.035-.012.035s-.025.013-.025.027-.037.06-.08.102c-.045.04-.08.085-.08.098 0 .044-.206.237-.234.22-.016-.01-.02-.008-.01.008.022.036-.22.273-.268.263-.022-.006-.04 0-.04.012 0 .01-.02.044-.046.074-.03.034-.046.04-.046.02 0-.018-.023-.006-.055.03-.03.036-.065.065-.08.065-.012 0-.038.02-.056.047-.018.025-.04.04-.048.03-.008-.008-.034.008-.058.035-.023.027-.075.056-.115.064-.04.008-.073.023-.073.034 0 .01-.015.02-.034.02-.02 0-.035.01-.035.02 0 .012-.047.028-.104.037-.057.01-.098.025-.09.037.007.012-.01.022-.035.022-.027 0-.048.01-.048.024 0 .013-.018.022-.04.02-.078-.01-.24.03-.21.05.02.013-.004.02-.066.02-.054 0-.098.01-.098.024 0 .012-.035.023-.078.023-.044 0-.083.012-.088.028-.015.043-10.943.043-10.957 0-.005-.016-.045-.028-.088-.028s-.08-.01-.08-.023-.034-.023-.076-.023c-.042 0-.107-.015-.143-.034-.036-.02-.094-.034-.13-.034-.034 0-.063-.01-.063-.023 0-.014-.02-.024-.047-.024-.026 0-.04-.01-.034-.02.007-.013-.03-.03-.085-.04-.054-.008-.103-.022-.11-.03-.013-.02-.17-.094-.196-.094-.01 0-.035-.022-.058-.048-.025-.03-.053-.042-.07-.03-.02.01-.024.005-.014-.02.013-.035-.05-.072-.114-.065-.015 0-.034-.02-.042-.046s-.027-.044-.042-.04c-.015.006-.06-.026-.1-.07-.043-.046-.076-.07-.076-.054 0 .015-.113-.084-.25-.22s-.245-.256-.24-.266c.006-.01-.023-.047-.063-.083-.05-.04-.068-.074-.056-.094.012-.02.01-.024-.008-.013-.017.01-.028.002-.028-.02 0-.02-.01-.03-.025-.023-.013.01-.022.002-.02-.016.01-.05-.027-.112-.053-.096-.015.01-.02.002-.01-.02.008-.023-.008-.053-.043-.08-.03-.022-.055-.05-.055-.06 0-.027-.074-.185-.093-.2-.01-.006-.022-.05-.03-.098-.01-.047-.027-.086-.04-.086-.01 0-.02-.02-.02-.046 0-.025-.01-.046-.02-.046-.012 0-.028-.052-.036-.115-.01-.063-.026-.115-.038-.115s-.022-.04-.022-.092c0-.05-.01-.092-.023-.092s-.023-.035-.023-.078c0-.044-.013-.083-.03-.088-.04-.015-.053-10.676-.01-10.73.024-.028.023-.03-.004-.015-.023.014-.027.01-.012-.012.01-.018.016-.07.013-.12-.004-.05.004-.086.018-.086.014 0 .025-.037.025-.08 0-.045.01-.082.023-.082s.023-.04.023-.092c0-.05.01-.092.02-.092.025 0 .06-.13.052-.186-.002-.02.01-.044.03-.05.02-.01.03-.03.022-.05-.008-.02-.002-.035.01-.035.015 0 .033-.042.04-.092.01-.05.025-.09.036-.09.01 0 .02-.017.02-.036 0-.02.01-.034.02-.034s.027-.033.035-.072c.01-.04.033-.09.055-.11.046-.042.088-.105.12-.178.01-.027.043-.065.07-.084.035-.024.04-.038.02-.045-.02-.006-.003-.027.044-.053.04-.024.07-.06.067-.078-.008-.046.23-.283.264-.262.016.01.02.004.01-.01-.017-.03.178-.235.22-.235.014 0 .042-.02.062-.042.02-.022.07-.06.11-.084.04-.023.068-.053.06-.065-.008-.012.002-.016.022-.008.02.008.053-.005.076-.03.022-.024.047-.04.057-.033.01.004.035-.016.058-.046s.055-.05.072-.043c.017.008.03 0 .03-.013s.02-.025.047-.025c.025 0 .046-.01.046-.023 0-.014.015-.024.034-.024.02 0 .035-.01.035-.02s.024-.017.056-.013c.032.003.058-.003.058-.015s.015-.02.034-.02c.02 0 .035-.01.035-.024 0-.013.02-.023.046-.023.024 0 .044-.008.044-.02 0-.01.05-.024.11-.03.06-.008.11-.025.116-.04.004-.013.05-.024.098-.024.05 0 .09-.01.09-.023s.037-.023.08-.023c.045 0 .08-.01.08-.025 0-.014.04-.022.092-.018.05.004.1 0 .108-.01.024-.024 10.562-.02 10.562.004m.454 1.1c-.034.006-.063.02-.063.032s-.014.022-.033.022c-.02 0-.035.01-.035.023 0 .012-.03.023-.07.023-.04 0-.075.014-.082.034-.008.02-.027.035-.044.035-.017 0-.046.02-.064.045-.02.03-.047.042-.076.033-.03-.01-.034-.008-.014.007.04.028-.048.133-.09.108-.018-.01-.024-.01-.015 0 .008.01-.01.043-.04.074-.03.03-.057.08-.057.112 0 .03-.01.056-.023.056-.012 0-.023.016-.023.036 0 .02-.01.028-.024.02-.017-.01-.02.012-.01.068.01.055.008.083-.01.083-.014 0-.025.04-.025.092 0 .05-.01.092-.023.092s-.023.065-.023.15c0 .083.01.148.022.148.013 0 .023.03.023.068 0 .037.012.075.026.083.015.01.02.046.016.082-.005.037 0 .066.01.066s.018.016.018.035c0 .018.012.033.026.033.014 0 .02.016.012.036-.008.02 0 .04.022.048.02.007.03.028.023.046-.008.018-.003.026.01.02.012-.01.022-.004.022.01 0 .048.257.288.302.28.026-.004.042.007.042.03 0 .02.013.03.035.02.018-.007.033 0 .033.013 0 .014.016.025.036.025.02 0 .028.01.02.025-.01.016.01.02.067.01.055-.012.083-.008.083.01 0 .013.036.024.08.024.045 0 .08.012.08.024 0 .013.066.023.15.023.085 0 .15-.01.15-.023 0-.012.04-.023.09-.023.05 0 .098-.01.107-.024.008-.013.04-.018.07-.01.036.008.055.003.055-.016 0-.022.006-.02.02.002.017.025.024.022.037-.017.007-.027.034-.05.058-.052.08-.005.087-.008.133-.06.026-.03.05-.045.056-.035.006.01.007.004.002-.014-.012-.048.088-.127.114-.09.013.02.015.012.006-.02-.01-.037-.002-.054.033-.065.027-.01.048-.036.048-.06 0-.026.015-.052.034-.06.02-.007.035-.04.035-.08 0-.036.01-.066.023-.066.012 0 .023-.015.023-.034 0-.02.01-.035.023-.035.012 0 .023-.024.023-.053 0-.03.005-.06.013-.068.008-.008.014-.124.014-.258s-.006-.25-.014-.258c-.008-.008-.014-.038-.014-.068 0-.03-.012-.053-.024-.053-.013 0-.023-.02-.023-.045 0-.025-.01-.05-.023-.06-.013-.007-.023-.032-.023-.056s-.016-.06-.035-.078c-.02-.018-.034-.043-.034-.053 0-.01-.022-.033-.05-.05-.03-.018-.04-.037-.025-.046.014-.01-.01-.048-.054-.092-.044-.043-.08-.063-.08-.046 0 .018-.018.01-.044-.022-.024-.028-.053-.05-.065-.05-.01 0-.034-.017-.05-.036-.016-.02-.053-.034-.083-.034-.03 0-.055-.01-.055-.023s-.02-.023-.044-.023c-.024 0-.048-.013-.054-.028-.01-.03-.554-.05-.69-.026M10.6 5.358c0 .012-.04.022-.092.022-.05 0-.092.01-.092.02 0 .012-.088.025-.196.03-.108.007-.208.023-.223.038-.015.015-.05.027-.08.027s-.053.01-.053.023-.04.023-.087.023c-.048 0-.1.014-.115.03-.022.02-.028.02-.028-.005 0-.022-.012-.02-.045.01-.026.023-.062.035-.08.028-.02-.008-.05 0-.07.02-.017.018-.054.033-.08.033-.026 0-.048.01-.048.023 0 .012-.03.022-.067.022-.037 0-.083.016-.102.035-.02.02-.05.034-.07.034-.02 0-.037.012-.037.024 0 .013-.025.023-.057.023-.033 0-.06.01-.06.023 0 .012-.014.016-.033.01-.02-.01-.034-.003-.034.01 0 .015-.016.026-.035.026-.02 0-.034.01-.034.023 0 .012-.02.022-.046.022s-.046.012-.046.026c0 .014-.016.02-.035.012-.02-.007-.034-.003-.034.01 0 .01-.022.02-.048.02-.026 0-.04.012-.033.024.008.013-.007.023-.033.023-.027 0-.048.012-.048.026 0 .014-.02.02-.046.014-.03-.008-.05.002-.057.027-.013.037-.224.142-.238.117-.003-.005-.026.023-.05.064-.03.05-.058.07-.08.06-.02-.007-.036 0-.036.013 0 .014-.014.025-.03.025-.018 0-.05.02-.073.046-.023.025-.052.04-.065.03-.013-.007-.017-.003-.01.01.018.026-.072.11-.142.132-.027.008-.043.025-.036.037.008.01-.004.02-.025.02-.022 0-.073.037-.115.08-.048.053-.08.07-.087.053-.007-.016-.012-.01-.013.013 0 .023-.157.195-.347.382-.19.188-.345.358-.345.377 0 .02-.02.042-.047.05-.027.01-.05.043-.06.083-.006.037-.02.067-.032.067-.024 0-.136.12-.136.145 0 .01-.023.04-.052.066-.028.025-.038.04-.023.03.016-.007.03-.003.03.01 0 .015-.016.032-.035.04-.02.007-.035.028-.035.046 0 .017-.01.026-.023.018-.012-.008-.023.002-.023.022 0 .02-.01.036-.024.036s-.02.015-.012.034c.007.02.003.035-.01.035-.012 0-.022.018-.022.04 0 .022-.02.053-.045.07-.027.016-.04.042-.032.062.007.02.002.035-.012.035s-.026.02-.026.046c0 .025-.01.046-.023.046-.012 0-.023.015-.023.034 0 .02-.01.035-.024.035s-.02.015-.012.034c.007.02.003.035-.01.035-.012 0-.022.02-.022.046 0 .025-.01.046-.023.046s-.024.015-.024.034c0 .02-.01.035-.023.035-.012 0-.023.016-.023.036 0 .018-.016.05-.036.07-.03.03-.03.04-.006.056.023.015.024.02.002.02-.016 0-.03.02-.03.044 0 .025-.006.048-.016.052-.01.004-.037.043-.06.086-.025.043-.032.07-.018.062.015-.01.026-.005.026.008 0 .013-.01.024-.023.024s-.024.022-.024.048c0 .026-.015.063-.033.08-.02.02-.028.05-.02.07.007.018 0 .048-.015.066-.015.018-.02.043-.014.056.008.012.004.03-.01.037-.012.006-.023.037-.023.067 0 .03-.01.06-.027.066-.023.01-.022.016.002.033.025.018.024.024-.006.036-.023.008-.03.028-.022.05.008.022 0 .047-.015.057-.018.01-.033.094-.04.226-.008.116-.022.21-.033.21-.01 0-.02.04-.02.092 0 .05-.01.092-.023.092-.014 0-.023.28-.023.793 0 .514.01.794.023.794s.023.04.023.092c0 .05.01.09.02.09s.026.096.032.212c.007.125.023.216.038.22.014.005.025.034.025.065 0 .03.013.055.03.056.02 0 .017.008-.007.024-.026.02-.027.028-.005.037.016.006.028.04.028.078s.014.067.03.068c.022 0 .022.004 0 .02-.025.014-.024.024.005.047.02.017.035.06.035.096 0 .036.01.066.023.066s.023.025.023.057c0 .03.01.057.02.057s.015.026.01.058c-.007.033 0 .057.014.057s.025.015.025.034c0 .02.01.034.023.034s.023.02.023.046c0 .025.01.046.02.046s.015.033.01.072c-.01.05-.004.068.014.057.015-.01.026-.003.026.018 0 .02.01.036.023.036s.023.016.023.035c0 .018.012.033.026.033.014 0 .02.016.012.035-.008.02 0 .04.02.048.017.007.026.028.02.045-.008.02-.002.034.012.034s.025.02.025.046c0 .025.012.046.024.046.013 0 .023.016.023.034 0 .02.01.035.025.035.014 0 .018.02.01.044-.01.03 0 .048.033.058.026.008.047.035.047.06 0 .024.01.044.025.044.013 0 .017.01.01.024-.01.013.006.043.032.066.026.023.047.052.047.065 0 .013.016.03.035.037.02.008.034.034.034.06 0 .026.01.047.023.047.012 0 .022.017.022.037 0 .02.036.07.08.108.045.04.08.08.08.093 0 .012.025.045.055.072.03.027.06.078.07.112.008.034.025.062.037.062.038 0 .14.117.123.143-.01.015-.004.018.013.008.033-.02.123.074.102.108-.008.012 0 .018.017.012.034-.01.09.032.09.07 0 .014.022.037.05.052.07.037.11.08.094.098-.008.008-.003.015.01.015.038 0 .147.114.133.137-.007.01-.002.027.01.035.013.008.024.002.024-.014 0-.015.022-.004.047.026s.046.06.046.072c0 .01.026.025.06.033.06.015.124.06.268.198.05.048.106.086.124.086.018 0 .032.01.032.023s.016.023.036.023c.02 0 .03.01.02.027-.012.017-.007.02.01.01.018-.012.043 0 .063.03.02.027.05.048.067.048.02 0 .034.01.034.022 0 .01.033.028.074.037.04.01.088.035.104.058.017.024.045.037.064.03.018-.008.034-.004.034.008 0 .01.036.035.08.052.044.018.08.04.08.053 0 .012.015.016.033.01.018-.008.038 0 .045.02.008.02.028.026.052.017.026-.01.034-.007.022.01-.01.02 0 .028.03.028.027 0 .05.01.05.023s.015.023.034.023c.022 0 .03.01.02.027-.012.02.004.022.056.012.042-.008.072-.005.072.008 0 .012.02.022.046.022s.046.01.046.023.02.023.046.023.046.013.046.027.02.02.046.014.046-.002.046.01c0 .01.026.02.058.02.03 0 .057.01.057.023s.027.023.06.023c.032 0 .075.017.095.036.03.03.04.03.055.006.012-.02.02-.02.02-.004 0 .015.04.032.087.038.136.02.222.044.238.068.008.013.11.028.224.035.116.006.21.02.21.03 0 .012.04.02.092.02.05 0 .092.01.092.024s.28.022.793.022c.514 0 .794-.008.794-.023 0-.014.04-.024.092-.024.05 0 .09-.01.09-.02s.095-.025.21-.03c.126-.01.217-.024.227-.04.01-.016.03-.025.05-.022.017.004.052-.004.077-.018.025-.014.095-.032.155-.04.058-.01.113-.026.12-.038.02-.034.086-.027.066.007-.01.016.01.005.04-.023.032-.028.08-.052.108-.052.028 0 .05-.01.05-.02s.026-.017.058-.013c.03.003.057-.003.057-.015 0-.01.015-.02.034-.02.02 0 .034-.01.034-.024 0-.012.02-.023.044-.023.024 0 .05-.013.056-.03.007-.016.012-.017.013-.002.002.015.028.02.063.014.043-.008.05-.016.028-.03-.02-.015-.015-.02.022-.02.03 0 .052-.01.052-.024 0-.012.016-.023.035-.023.018 0 .033-.01.033-.023 0-.012.02-.023.046-.023.024 0 .045-.01.045-.022 0-.012.016-.016.035-.01.02.008.034.005.034-.007s.036-.035.08-.053c.045-.017.08-.04.08-.052 0-.012.016-.016.035-.01.018.01.046-.005.063-.03.017-.023.06-.05.097-.06.066-.016.127-.057.193-.13.02-.02.055-.04.077-.04s.04-.01.04-.023c0-.012.017-.023.036-.023.036 0 .15-.106.15-.14 0-.01.03-.024.067-.032.038-.008.074-.034.082-.06.008-.024.033-.044.056-.044.024 0 .072-.035.108-.077.04-.046.078-.072.098-.064.02.007.027.002.018-.012-.01-.014.03-.072.086-.13.063-.064.107-.094.114-.077.006.016.012.01.013-.012 0-.022.064-.102.14-.178.075-.076.156-.14.178-.14.023 0 .028-.007.012-.013-.02-.008 0-.04.05-.088.045-.04.08-.087.08-.102s.03-.054.065-.086c.035-.033.06-.074.056-.09-.004-.02.003-.033.014-.033.036 0 .142-.11.142-.15 0-.018.012-.034.026-.034.014 0 .02-.013.014-.03-.007-.017.007-.045.03-.063.026-.017.046-.047.046-.066 0-.028.004-.03.02-.004.014.022.024.007.035-.05.008-.047.025-.084.037-.084.012 0 .022-.02.022-.045 0-.024.02-.05.047-.06.035-.01.044-.026.034-.058-.008-.026-.003-.045.01-.045.014 0 .025-.016.025-.035 0-.018.01-.034.022-.034.013 0 .023-.02.023-.046 0-.025.012-.046.026-.046.015 0 .02-.015.013-.034-.007-.02-.003-.035.01-.035.01 0 .02-.02.02-.047 0-.026.012-.04.024-.033.013.007.023-.008.023-.034 0-.025.012-.046.026-.046.014 0 .02-.015.012-.034-.007-.02-.003-.035.01-.035.01 0 .02-.026.02-.057 0-.032.012-.058.024-.058.013 0 .023-.02.023-.046 0-.025.01-.046.023-.046.012 0 .03-.04.037-.092.01-.05.024-.092.035-.092.01 0 .02-.026.02-.057 0-.032.01-.058.023-.058s.023-.027.023-.06c0-.032.017-.075.036-.095.027-.027.03-.04.01-.053-.02-.012-.02-.02-.002-.033.014-.01.025-.04.025-.07 0-.03.013-.06.03-.066.02-.01.02-.018-.007-.037-.023-.016-.025-.024-.006-.024.016 0 .03-.026.03-.056 0-.03.01-.06.025-.064.015-.005.03-.096.037-.22.007-.117.02-.212.032-.212.01 0 .02-.04.02-.09 0-.052.01-.093.023-.093s.02-.295.02-.794c0-.5-.007-.793-.02-.793-.014 0-.024-.04-.024-.092 0-.05-.01-.092-.02-.092s-.025-.088-.03-.196c-.006-.108-.023-.208-.038-.223-.036-.036-.035-.093.002-.075.016.008.005-.006-.023-.03-.037-.034-.044-.05-.023-.06.023-.01.023-.016 0-.027-.016-.008-.03-.04-.03-.07 0-.03-.01-.055-.022-.055-.013 0-.02-.026-.013-.057.004-.032-.002-.058-.015-.058s-.02-.02-.012-.046c.007-.027-.003-.063-.022-.082-.02-.02-.022-.034-.007-.034.014 0 .004-.022-.022-.05-.025-.028-.046-.08-.046-.113 0-.034-.015-.078-.034-.097-.02-.02-.035-.05-.035-.07 0-.02-.01-.037-.023-.037-.012 0-.023-.02-.023-.044 0-.025-.01-.05-.023-.058-.012-.008-.016-.03-.01-.048.008-.018.003-.033-.01-.033-.015 0-.027-.016-.027-.035 0-.02-.01-.034-.023-.034-.012 0-.023-.02-.023-.046s-.01-.046-.022-.046c-.012 0-.016-.016-.01-.035.008-.02.005-.034-.007-.034s-.035-.037-.053-.08c-.017-.045-.04-.08-.052-.08-.012 0-.016-.017-.008-.036.008-.02-.006-.046-.032-.063-.025-.016-.046-.04-.046-.057 0-.016-.01-.03-.02-.03s-.027-.036-.036-.08c-.008-.045-.025-.075-.037-.068-.01.006-.02 0-.02-.018 0-.017-.02-.043-.046-.06-.027-.015-.04-.04-.032-.062.007-.02.002-.034-.012-.034s-.026-.014-.026-.03c0-.018-.02-.05-.045-.073-.026-.023-.042-.05-.036-.06.006-.008-.007-.015-.028-.013-.022.002-.043-.017-.05-.043-.004-.025-.033-.068-.063-.096-.03-.027-.055-.062-.055-.078 0-.015-.054-.08-.12-.14-.067-.064-.108-.108-.092-.1.016.01.03.005.03-.01 0-.012-.018-.023-.04-.023-.047 0-.19-.153-.192-.204 0-.033-.003-.034-.022-.004-.018.027-.023.023-.025-.023 0-.033-.007-.046-.013-.03-.008.02-.033.008-.076-.035-.043-.04-.056-.068-.04-.08.017-.01.01-.016-.016-.017-.024 0-.093-.052-.152-.115-.06-.063-.125-.115-.144-.115-.02 0-.04-.015-.05-.034-.006-.02-.028-.035-.047-.035-.02 0-.036-.01-.036-.018 0-.01-.022-.028-.05-.04-.026-.013-.047-.03-.045-.04.004-.03-.088-.11-.125-.11-.02 0-.034-.01-.034-.025 0-.014-.013-.02-.03-.014-.017.007-.06-.02-.095-.056-.035-.037-.094-.074-.13-.08-.036-.01-.066-.024-.066-.035 0-.01-.014-.02-.03-.02s-.042-.02-.057-.045c-.016-.025-.043-.04-.06-.033-.018.006-.038-.004-.046-.023-.008-.02-.028-.03-.05-.02-.018.006-.034 0-.034-.013 0-.014-.015-.026-.034-.026-.02 0-.036-.01-.036-.024s-.015-.02-.034-.012c-.02.007-.035.003-.035-.01 0-.012-.02-.022-.046-.022s-.047-.01-.047-.023-.015-.024-.034-.024c-.02 0-.036-.01-.036-.025 0-.013-.014-.02-.032-.012-.017.006-.053-.008-.08-.032-.032-.03-.05-.035-.057-.015-.01.022-.012.022-.013 0 0-.016-.023-.03-.05-.03-.025 0-.04-.01-.032-.022.008-.012-.002-.024-.022-.025-.02-.002-.046-.006-.06-.01l-.063-.008c-.023 0-.065-.024-.092-.05-.028-.025-.05-.035-.05-.02 0 .014-.016.01-.036-.01-.02-.02-.05-.03-.07-.023-.018.008-.047.002-.065-.012-.017-.015-.048-.02-.068-.012-.02.008-.038.003-.038-.01 0-.016-.04-.027-.092-.027-.05 0-.092-.01-.092-.022 0-.012-.023-.023-.052-.023-.03 0-.066-.012-.08-.027-.015-.015-.116-.03-.224-.037-.107-.005-.195-.018-.195-.03 0-.01-.04-.02-.09-.02-.052 0-.093-.01-.093-.02 0-.015-.306-.024-.794-.024-.502 0-.793.008-.793.022m1.414.79c.238.027.334.045.334.063 0 .012.056.02.126.02s.126.012.126.024c0 .013.032.023.07.023.048 0 .066.01.055.027-.012.02.007.023.067.013.046-.008.09-.004.097.008.006.012.037.02.068.02.03 0 .056.012.056.024s.024.022.052.023c.043 0 .046.004.017.024-.025.02-.01.02.064.01.06-.007.097-.003.097.01 0 .014.016.024.036.024.02 0 .03.012.022.024-.008.014.013.023.052.023.036 0 .086.015.11.034.025.02.068.035.096.035.03 0 .052.01.052.024 0 .012.015.022.032.022.018 0 .037.013.044.03.006.015.04.03.077.034.036.003.07.016.073.028.004.013.02.023.036.023.015 0 .04.02.06.044.016.025.044.04.062.033.017-.007.05.01.074.036.023.026.058.048.077.048.02 0 .047.016.063.035.016.02.04.034.055.034.014 0 .046.026.07.058.023.03.056.057.074.057.016 0 .03.01.03.023s.02.023.045.023c.046 0 .116.062.194.17.023.033.06.06.084.06.022 0 .047.02.055.045.007.024.033.05.057.058.024.01.05.035.058.06.007.025.034.045.058.045.058 0 .23.17.23.228 0 .025.02.05.044.06.024.007.05.033.058.057s.034.05.06.058c.024.007.044.03.044.053 0 .022.036.07.08.108.138.115.15.128.15.174 0 .025.01.045.022.045.012 0 .023.014.023.03 0 .018.025.052.057.075.032.024.058.055.058.07 0 .014.015.04.034.055.02.015.035.044.035.063 0 .02.02.053.047.076.032.028.043.057.033.087-.01.033-.002.05.033.06.025.01.047.03.047.048 0 .02.01.034.023.034.012 0 .023.02.023.046s.01.046.024.046c.013 0 .018.01.01.022-.006.012-.002.028.01.036.014.008.024.035.024.06 0 .025.01.04.02.034.012-.007.028.033.037.09.018.115.067.226.09.203.01-.008.015.003.015.024 0 .02.012.038.026.038.016 0 .02.02.013.052-.014.053.03.178.06.178.01 0 .017.026.017.056 0 .03.01.063.024.07.014.01.018.05.008.098-.01.058-.007.077.01.066.018-.01.027.004.027.042 0 .033.01.06.022.06.013 0 .023.063.024.143 0 .086.008.13.02.113.02-.035.053.193.062.444.003.09.013.18.022.204.026.064-.008.87-.048 1.153-.01.077-.017.148-.015.158.003.01-.005.012-.018.004-.016-.01-.025.033-.025.115 0 .08-.008.124-.023.115-.013-.008-.023.013-.023.05-.002.036-.017.085-.036.11-.026.034-.027.048-.005.062.022.014.022.023 0 .046-.017.016-.03.052-.03.08 0 .03-.01.054-.023.054-.012 0-.023.02-.023.046s-.01.046-.025.046c-.017 0-.02.023-.012.06.012.044.003.07-.033.102-.027.023-.048.048-.047.055.007.06-.002.083-.025.07-.018-.013-.023-.002-.014.032.006.027.003.055-.01.062-.01.007-.02.038-.02.07 0 .03-.01.055-.023.055-.012 0-.023.016-.023.035 0 .02-.016.042-.036.05-.03.01-.03.017-.006.033.023.015.024.02.002.02-.015 0-.028.02-.028.046 0 .025-.01.046-.023.046s-.023.013-.023.03c0 .016-.02.043-.044.06-.025.018-.04.046-.032.064.007.017-.008.05-.033.07-.024.023-.05.07-.06.104-.008.035-.025.063-.038.063-.012 0-.022.013-.022.03 0 .015-.026.047-.058.07-.032.025-.057.064-.057.087 0 .024-.01.043-.023.043s-.023.015-.023.033c0 .036-.07.11-.17.183-.034.023-.06.057-.06.074 0 .018-.048.078-.105.133-.057.055-.103.112-.103.125 0 .034-.2.235-.226.227-.012-.004-.064.037-.116.09-.05.055-.11.1-.13.1-.018 0-.034.006-.034.016 0 .033-.184.213-.22.213-.018 0-.033.01-.033.022 0 .012-.02.023-.043.023-.023 0-.062.025-.086.057-.023.032-.056.058-.072.058-.016 0-.03.01-.03.022 0 .013-.027.03-.062.038-.035.01-.08.033-.098.055-.02.022-.068.047-.11.056-.04.01-.068.027-.06.038.006.012-.004.022-.024.022s-.036.01-.036.022c0 .013-.02.023-.046.023-.025 0-.046.01-.046.023 0 .012-.015.016-.034.01-.022-.01-.035 0-.035.022 0 .023-.012.03-.033.023-.02-.007-.035-.002-.035.012s-.026.025-.057.025c-.032 0-.058.01-.058.023s-.04.03-.092.038c-.05.01-.092.024-.092.035 0 .01-.015.02-.034.02-.02 0-.036.01-.036.02s-.05.027-.115.036c-.064.01-.116.026-.116.038s-.025.022-.057.022-.058.01-.058.02c0 .012-.068.028-.15.037-.082.01-.15.026-.15.037 0 .012-.056.02-.126.02s-.126.012-.126.024c0 .013-.03.023-.068.023-.037 0-.074.012-.082.024-.008.014-.108.02-.243.018-.125-.004-.228.002-.228.01 0 .01-.15.018-.334.018-.183 0-.333-.007-.333-.017 0-.01-.11-.014-.242-.01-.156.004-.24-.002-.24-.018 0-.013-.032-.024-.07-.024-.038 0-.07-.01-.07-.022 0-.012-.056-.023-.125-.023-.07 0-.127-.01-.127-.02s-.043-.025-.095-.032c-.052-.007-.103-.027-.114-.044-.014-.024-.02-.024-.02-.002 0 .016-.016.028-.036.028-.02 0-.03-.01-.02-.023.007-.013-.017-.023-.06-.023-.038 0-.065-.01-.058-.02.008-.012-.04-.03-.106-.038-.066-.01-.134-.03-.15-.048-.02-.018-.044-.025-.058-.017-.015.01-.018.005-.008-.01.016-.027-.012-.037-.075-.03-.017.004-.025-.005-.017-.017.008-.013-.006-.017-.033-.01-.025.007-.046 0-.046-.014s-.026-.026-.058-.026-.058-.01-.058-.025c0-.014-.015-.02-.034-.012-.022.008-.035 0-.035-.023s-.012-.032-.034-.023c-.018.007-.034.003-.034-.01 0-.012-.02-.022-.046-.022-.025 0-.045-.01-.045-.023 0-.012-.017-.022-.036-.022-.02 0-.03-.01-.024-.022.008-.012-.023-.03-.07-.038-.044-.008-.094-.035-.11-.058-.013-.024-.043-.043-.064-.043-.022 0-.053-.014-.07-.03-.018-.016-.052-.04-.077-.055s-.042-.04-.04-.054c.005-.014-.003-.02-.016-.01-.014.007-.024.002-.024-.01 0-.014-.02-.025-.046-.025s-.046-.01-.046-.023-.015-.023-.033-.023c-.037 0-.243-.2-.224-.22.007-.006-.005-.01-.026-.01-.02 0-.086-.05-.143-.107-.058-.06-.11-.1-.118-.093-.02.018-.194-.152-.2-.196-.003-.02-.054-.083-.114-.14-.06-.057-.108-.113-.108-.125 0-.013-.052-.07-.115-.13s-.115-.123-.115-.142c0-.02-.01-.035-.023-.035s-.023-.02-.023-.043c0-.024-.026-.06-.057-.08-.032-.022-.058-.054-.058-.073 0-.02-.01-.034-.022-.034-.013 0-.03-.028-.04-.063-.007-.035-.033-.077-.057-.093-.023-.017-.042-.05-.042-.074 0-.023-.015-.058-.034-.077-.02-.02-.035-.046-.035-.06 0-.013-.01-.024-.02-.024s-.028-.023-.037-.052l-.023-.063c-.004-.006-.014-.035-.023-.063-.01-.028-.026-.052-.037-.052-.012 0-.02-.026-.02-.057 0-.032-.012-.058-.025-.058-.014 0-.02-.02-.01-.046.008-.025.004-.045-.01-.045s-.024-.007-.022-.017c.008-.052-.006-.1-.026-.086-.012.008-.023-.002-.023-.022 0-.02-.008-.036-.02-.036-.01 0-.026-.05-.034-.115-.008-.064-.025-.116-.038-.116-.012 0-.022-.026-.022-.057 0-.032-.01-.058-.023-.058-.012 0-.023-.016-.023-.035 0-.02.013-.035.03-.035.02 0 .02-.005-.003-.02-.017-.01-.036-.062-.043-.114-.007-.052-.022-.09-.033-.082-.01.007-.02-.045-.02-.114 0-.07-.01-.133-.022-.14-.012-.01-.023-.045-.023-.08 0-.038-.01-.074-.023-.082-.014-.01-.018-.102-.01-.243.007-.147.003-.228-.012-.228s-.024-.124-.024-.334c0-.234.008-.333.027-.333.02 0 .02-.064.01-.23-.01-.155-.008-.23.008-.23.014 0 .025-.036.025-.08 0-.05.012-.08.03-.08.018-.002.016-.01-.007-.024-.023-.015-.025-.022-.005-.023.02 0 .028-.038.028-.115 0-.063.01-.115.022-.115.012 0 .028-.054.037-.12.008-.065.03-.132.047-.15.016-.016.024-.046.016-.066-.007-.02 0-.044.015-.054.016-.01.035-.066.04-.124.008-.06.022-.108.033-.108.012 0 .02-.015.02-.034 0-.02.012-.035.024-.035.013 0 .023-.026.023-.06 0-.037.01-.052.027-.04.016.01.02.005.01-.01-.01-.016 0-.05.018-.076.018-.027.028-.063.022-.08-.007-.018 0-.033.013-.033.014 0 .025-.015.025-.034 0-.02.012-.035.026-.035.014 0 .02-.015.012-.034-.007-.018-.003-.034.01-.034.01 0 .02-.02.02-.046 0-.025.01-.046.024-.046.013 0 .023-.014.023-.032 0-.017.016-.038.035-.045.02-.007.034-.035.034-.063 0-.027.02-.066.042-.087.024-.02.05-.065.058-.1.01-.035.026-.063.04-.063.01 0 .02-.01.02-.025 0-.034.06-.093.078-.076.007.007.02-.014.028-.047s.024-.06.036-.06c.01 0 .02-.02.02-.046 0-.025.027-.07.06-.097.13-.113.17-.154.17-.178 0-.014.045-.07.1-.122.056-.053.11-.12.118-.15.01-.034.028-.05.05-.04.02.007.027.003.018-.013-.016-.025.093-.135.132-.135.012 0 .047-.026.078-.058.032-.03.067-.057.078-.057.01 0 .027-.02.035-.046.008-.025.034-.046.057-.046s.058-.025.078-.056c.057-.087.15-.174.188-.174.02 0 .034-.01.034-.023s.02-.023.042-.023c.024 0 .063-.026.086-.057.024-.032.057-.058.073-.058.016 0 .03-.01.03-.022 0-.013.027-.03.062-.04.035-.007.08-.035.103-.06.02-.024.053-.04.07-.032.018.006.047-.008.064-.032.017-.023.045-.043.06-.043.017 0 .03-.008.03-.017 0-.03.115-.074.116-.044 0 .015.015.01.03-.014.018-.022.044-.04.058-.04.015 0 .026-.01.026-.023 0-.014.02-.024.047-.024s.072-.015.1-.034c.03-.02.08-.037.113-.04.033-.002.055-.013.05-.023-.007-.01.004-.02.023-.02.02 0 .036-.01.036-.023 0-.015.03-.018.084-.008.06.01.08.007.068-.012-.01-.016 0-.026.03-.026.027 0 .048-.01.048-.023s.024-.024.053-.024c.03 0 .066-.013.082-.028.022-.023.032-.023.046 0 .014.022.027.02.062-.006.025-.018.073-.034.108-.034s.063-.01.063-.024c0-.012.052-.023.115-.023.064 0 .116-.01.116-.022 0-.012.036-.023.08-.023.043 0 .083-.007.09-.017.005-.01.114-.017.242-.017.127 0 .232-.01.232-.02 0-.018.767-.005.954.017M10.72 7.24c-.04.003-.074.016-.074.027 0 .012-.036.022-.08.022-.045 0-.08.01-.08.022 0 .013-.034.023-.076.023-.12 0-.247.027-.233.05.006.01-.02.02-.057.02-.038 0-.075.01-.083.022-.008.013-.035.023-.06.023-.024 0-.044.01-.044.026 0 .014-.02.02-.046.013-.025-.007-.046-.003-.046.008 0 .01-.026.02-.06.02-.033 0-.077.02-.097.043-.02.025-.074.05-.118.06-.045.007-.096.035-.115.06-.018.025-.055.046-.082.046-.028 0-.063.015-.08.034-.014.02-.04.035-.06.035-.016 0-.03.01-.03.023 0 .012-.02.023-.044.023-.024 0-.06.027-.08.058-.022.032-.054.058-.073.058-.017 0-.033.01-.033.024s-.02.02-.044.01c-.03-.01-.048 0-.06.034-.007.026-.024.047-.036.047-.012 0-.038.014-.057.03-.037.03-.044.037-.337.333-.13.13-.193.18-.206.16-.012-.02-.018-.016-.018.012 0 .022-.032.07-.07.106-.038.037-.07.08-.07.095 0 .04-.06.095-.08.075-.01-.01-.012.007-.005.036.007.028.003.05-.008.05-.012 0-.02.013-.02.028 0 .014-.036.06-.08.102-.045.045-.067.08-.05.087.013.006.007.012-.016.013-.022 0-.034.012-.026.026.008.013-.008.044-.037.07-.028.023-.042.043-.032.043.01 0 .008.013-.008.028-.015.015-.027.046-.027.07 0 .022-.01.04-.023.04s-.023.02-.023.044c0 .024-.015.05-.034.056-.02.008-.03.028-.022.046.007.017-.004.048-.023.067-.02.02-.036.063-.036.095 0 .033-.012.06-.026.06-.013 0-.022.017-.02.04.005.055-.025.143-.05.143-.01 0-.02.036-.02.08 0 .042-.01.08-.023.085-.01.004-.028.072-.037.15-.008.08-.023.145-.034.145-.012 0-.02.035-.02.08 0 .042-.012.08-.025.085-.015.005-.025.088-.025.21 0 .11-.008.196-.016.19-.02-.012-.01.647.01.68.01.017.006.02-.01.01-.015-.01-.027-.005-.027.008 0 .014.01.025.023.025s.023.025.023.056c0 .03-.01.06-.023.07-.013.007-.023.024-.023.036 0 .013.01.017.023.01.014-.01.023.026.023.09 0 .057.01.105.023.105s.023.037.023.08c0 .045.008.082.02.082.01 0 .024.064.032.143.007.078.024.147.037.15.013.006.024.045.024.088s.01.078.023.078.023.022.023.047c0 .026.01.046.024.046.015 0 .02.02.01.046-.008.026-.004.045.01.045s.025.027.025.06c0 .03.02.08.045.107.025.027.045.06.043.073-.004.04.03.128.05.128.01 0 .026.034.035.075.01.04.035.09.06.112.023.02.042.05.042.063 0 .014.01.026.023.026.012 0 .023.015.023.035 0 .02.027.06.058.09.032.028.058.064.058.078 0 .014.01.026.02.026.012 0 .016.02.01.043-.008.03.003.048.035.058.028.01.054.045.062.084.01.037.026.068.038.068.013 0 .16.14.33.308.17.17.328.315.353.323.026.01.054.036.062.062.01.032.03.043.06.036.023-.006.042 0 .042.01s.014.02.03.02c.015 0 .048.027.072.058.022.032.06.058.085.058.023 0 .042.01.042.023 0 .01.01.022.024.022.015 0 .048.02.076.047.028.025.067.042.088.036.02-.005.05.01.068.034.018.023.045.043.06.043.017 0 .03.01.03.025 0 .015.02.02.045.015.025-.007.064.007.09.03.026.025.074.045.106.045s.058.01.058.02c0 .012.043.03.093.037.05.01.092.025.092.037 0 .01.036.02.08.02.045 0 .08.01.08.024 0 .012.022.023.05.023.027 0 .04.01.03.024-.01.018.018.02.102.01.08-.01.118-.01.118.008 0 .014.036.026.08.026.045 0 .08.01.08.023 0 .014.085.024.208.024.114 0 .207.007.207.017 0 .02.633.016.663-.003.01-.006.105-.01.212-.01.113 0 .197-.01.2-.025.006-.014.045-.024.088-.024s.08-.012.08-.026c0-.018.03-.02.09-.01.057.007.093.004.093-.01 0-.013.025-.023.057-.023s.057-.012.057-.024c0-.013.032-.023.07-.023.037 0 .068-.01.068-.02 0-.013.042-.03.092-.038.05-.008.098-.025.105-.036.007-.013.04-.022.07-.022.032 0 .08-.02.107-.046.03-.028.066-.04.09-.033.024.006.042 0 .042-.014s.01-.02.02-.014c.01.007.038-.01.06-.04.023-.03.062-.052.09-.05.05.004.108-.035.09-.063-.005-.01.01-.018.036-.018.025 0 .05-.013.057-.03.01-.02.012-.02.013.002 0 .018.025.006.057-.03.03-.03.074-.057.097-.058.037 0 .038-.003.01-.022-.03-.02-.03-.022.005-.023.02 0 .04-.01.04-.02s.02-.016.043-.01c.03.008.048-.003.06-.035.007-.026.034-.053.06-.06.025-.01.098-.07.162-.135s.126-.116.138-.112c.012.003.017-.003.01-.014-.012-.02.107-.145.338-.36.05-.044.076-.08.06-.08-.014 0-.003-.022.026-.047.03-.025.06-.046.072-.046.01 0 .012-.016.004-.036-.01-.023 0-.046.024-.06.022-.01.034-.028.028-.038-.006-.01.015-.036.046-.06.03-.022.056-.06.056-.084 0-.024.016-.043.036-.043.02 0 .03-.01.02-.024-.007-.013.003-.04.023-.06.02-.02.036-.053.036-.075 0-.02.022-.062.047-.09.026-.026.053-.083.062-.124.007-.04.032-.092.056-.112.023-.02.042-.064.042-.097 0-.032.01-.065.022-.073.012-.007.016-.028.01-.047-.008-.018-.003-.034.01-.034.015 0 .027-.02.027-.044 0-.026.01-.052.023-.06.012-.008.023-.044.023-.08 0-.036.01-.07.024-.074.014-.004.03-.073.038-.15.007-.08.022-.144.033-.144.01 0 .02-.036.02-.08 0-.042.013-.082.028-.087.042-.014.04-1.47 0-1.483-.016-.006-.028-.045-.028-.088 0-.044-.01-.08-.02-.08s-.027-.064-.035-.143c-.008-.078-.025-.146-.038-.15-.012-.004-.022-.043-.022-.086s-.01-.08-.023-.08-.023-.02-.023-.045c0-.026-.01-.047-.023-.047-.012 0-.016-.014-.01-.032.007-.017.002-.038-.012-.046-.013-.01-.024-.042-.024-.075 0-.033-.02-.077-.043-.097-.023-.02-.05-.076-.058-.123-.01-.048-.026-.087-.038-.087-.013 0-.023-.02-.023-.047 0-.026-.01-.04-.023-.033-.013.008-.023-.007-.023-.032s-.016-.055-.037-.067C15 9.28 14.99 9.257 15 9.235c.008-.024 0-.038-.02-.038s-.034-.013-.034-.03-.026-.055-.057-.084c-.032-.03-.052-.062-.045-.073.006-.01-.005-.026-.026-.034-.02-.008-.033-.028-.026-.044.006-.017-.02-.054-.056-.084-.037-.03-.068-.066-.068-.082 0-.015-.01-.028-.024-.028s-.018-.01-.01-.023c.007-.013.004-.023-.007-.023-.048 0-.19-.17-.162-.19.02-.016.018-.018-.01-.01-.034.012-.167-.105-.33-.29-.05-.054-.148-.13-.17-.13-.01 0-.027-.022-.036-.048-.01-.032-.028-.043-.055-.034-.027.008-.05-.005-.066-.04-.012-.028-.024-.038-.025-.022 0 .018-.026.006-.06-.03-.033-.03-.074-.057-.092-.057-.02 0-.034-.01-.034-.022 0-.013-.022-.023-.048-.023-.026 0-.042-.01-.034-.022.007-.01-.01-.028-.04-.037-.028-.01-.06-.028-.068-.042-.012-.017-.017-.015-.017.007s-.015.017-.044-.017c-.024-.027-.08-.056-.12-.064-.044-.01-.096-.036-.116-.06-.02-.022-.064-.04-.097-.04-.032 0-.066-.012-.074-.026-.008-.013-.03-.02-.047-.012-.018.007-.033.002-.033-.01s-.02-.022-.046-.022c-.025 0-.046-.01-.046-.023s-.034-.023-.077-.023-.082-.01-.086-.023c-.005-.01-.073-.028-.152-.037-.08-.008-.143-.023-.143-.034 0-.012-.037-.02-.08-.02-.045 0-.08-.01-.08-.022 0-.01-.038-.024-.082-.03-.044-.005-.08 0-.08.01 0 .012-.013.012-.03.002-.045-.03-1.082-.027-1.103.002-.01.017-.023.018-.034.002-.01-.012-.05-.02-.092-.015m1.237.81c0 .013.018.02.04.018.022-.003.076.003.12.014.045.01.09.02.098.016.01-.002.018.006.018.02 0 .01.04.022.092.022.05 0 .092.01.092.023 0 .012.02.023.047.023.03 0 .04.01.03.026-.01.018.007.023.057.015.04-.006.073-.002.073.01 0 .01.02.018.046.018.025 0 .045.01.045.023 0 .012.016.023.035.023.02 0 .034.01.034.02s.025.016.056.01c.04-.008.06 0 .07.037.01.035.035.05.083.05.044 0 .067.01.067.033 0 .02.008.033.018.032.057-.01.096.01.11.05.01.034.028.045.058.037.025-.007.044-.003.044.01 0 .01.014.02.03.02s.044.022.063.048c.054.078.146.16.18.16.014 0 .036.02.05.045.013.026.034.04.045.034.01-.007.027.01.035.036.01.026.02.042.028.035.015-.014.122.102.122.13 0 .01.012.017.026.017.032 0 .112.09.112.125 0 .015.02.04.045.058.024.018.04.04.033.052-.006.01-.002.018.01.018.03 0 .12.083.12.112 0 .015.008.026.02.026.01 0 .016.02.01.044-.01.03.003.05.036.06.027.008.044.022.038.032-.006.01.01.05.034.09.025.04.045.09.045.107s.023.038.05.046c.034.012.045.03.037.068-.006.034.006.064.033.084.023.017.042.054.042.083 0 .03.01.053.023.053s.023.026.023.058.01.058.02.058c.012 0 .016.02.01.046-.007.026 0 .046.013.046.016 0 .027.04.027.092 0 .05.01.092.023.092s.023.026.023.058c0 .03.01.057.02.057s.016.03.012.067c-.004.037 0 .074.012.08.035.022.032 1.024-.003 1.027-.023 0-.023.004 0 .013.033.014.038.09.005.11-.013.008-.02.045-.015.082.004.036-.002.07-.013.073-.012.004-.023.03-.025.058-.002.03-.012.053-.022.053-.01 0-.018.046-.018.103 0 .06-.01.104-.026.104-.013 0-.018.015-.01.034.007.02.002.034-.01.034s-.022.026-.022.058-.01.057-.023.057-.023.024-.023.053c0 .03-.02.067-.046.085-.03.023-.04.05-.032.077.008.025-.004.058-.03.08-.052.05-.122.18-.122.23 0 .02-.006.03-.014.022-.024-.025-.083.05-.07.086.008.02.004.034-.01.034-.01 0-.02.01-.02.025 0 .013-.048.07-.104.124-.057.053-.104.108-.104.12 0 .035-.082.12-.116.12-.016 0-.023.007-.016.015.016.016-.066.1-.098.1-.013 0-.035.027-.05.058-.014.03-.034.05-.045.045-.01-.007-.02.003-.02.022 0 .02-.023.04-.05.05-.03.01-.096.062-.15.117-.053.055-.108.1-.12.1-.014 0-.025.01-.025.025 0 .013-.02.018-.044.01-.03-.01-.048 0-.06.033-.007.026-.024.047-.037.047-.014 0-.04.016-.058.034-.02.02-.065.035-.1.035-.047 0-.07.015-.08.048-.01.026-.034.046-.055.044-.06-.006-.143.027-.128.05.005.01-.015.02-.048.02-.032 0-.06.01-.06.023s-.024.023-.056.023-.057.01-.057.02c0 .012-.022.016-.047.01-.026-.007-.046 0-.046.013 0 .016-.04.027-.092.027-.05 0-.092.01-.092.023s-.026.023-.058.023-.057.01-.057.024-.058.02-.156.012c-.11-.01-.132-.006-.074.007.048.01-.147.02-.495.018-.35 0-.534-.007-.47-.018.078-.014.06-.016-.074-.008-.11.004-.18 0-.185-.016-.005-.013-.03-.025-.06-.027-.028-.002-.05-.012-.05-.022 0-.01-.04-.018-.09-.018-.052 0-.1-.015-.12-.036-.022-.027-.032-.028-.047-.004-.015.023-.02.023-.02 0 0-.015-.026-.028-.057-.028-.03 0-.057-.01-.057-.023s-.026-.023-.06-.023c-.03 0-.05-.01-.044-.022.006-.012-.027-.03-.074-.038-.048-.01-.103-.034-.122-.055-.02-.022-.073-.046-.12-.055-.05-.01-.082-.026-.075-.038.007-.012-.005-.022-.027-.022-.02 0-.033-.006-.025-.014.024-.025-.048-.08-.085-.064-.02.008-.037.002-.037-.012 0-.013-.016-.025-.036-.025-.02 0-.03-.01-.02-.023.007-.013 0-.023-.014-.023-.015 0-.062-.035-.104-.08-.04-.044-.085-.08-.097-.08-.03 0-.11-.073-.14-.132-.015-.03-.042-.052-.06-.052-.02 0-.035-.015-.035-.034 0-.018-.023-.046-.05-.06-.06-.032-.133-.11-.133-.14 0-.012-.037-.056-.08-.098-.045-.042-.08-.088-.08-.103 0-.014-.012-.02-.024-.012-.013.008-.023-.002-.023-.022 0-.02-.01-.036-.025-.036-.014 0-.018-.02-.01-.044.01-.03 0-.048-.033-.06-.03-.008-.05-.042-.06-.092-.01-.044-.025-.08-.036-.08-.01 0-.02-.013-.02-.03 0-.015-.02-.043-.046-.062-.026-.018-.046-.056-.046-.084 0-.027-.016-.066-.035-.085-.02-.02-.035-.056-.035-.082 0-.025-.013-.047-.03-.047-.018 0-.016-.008.007-.023.023-.014.025-.022.005-.022-.015 0-.028-.016-.028-.035 0-.02-.01-.035-.024-.035-.012 0-.016-.015-.01-.034.01-.02.003-.034-.01-.034-.016 0-.026-.044-.026-.104 0-.057-.008-.103-.018-.103-.01 0-.02-.023-.022-.05-.002-.027-.016-.057-.03-.067-.017-.01-.024-.043-.017-.077.006-.034.003-.067-.008-.074-.01-.006-.02-.035-.02-.062.003-.05.004-.05.022-.005.014.034.018.023.016-.044 0-.05-.005-.078-.01-.064-.005.015-.016.027-.024.027-.02 0 .004-.844.026-.92.013-.048.012-.05-.006-.013-.02.045-.022.045-.024-.004 0-.028.007-.056.018-.062.01-.006.014-.042.01-.08-.007-.043 0-.07.014-.07s.026-.027.026-.058c0-.032.01-.058.023-.058.012 0 .023-.04.023-.092s.01-.092.025-.092c.014 0 .02-.02.014-.045-.007-.024-.003-.048.01-.052.01-.004.022-.03.025-.058.002-.03.012-.052.022-.052.01 0 .018-.02.018-.047 0-.026.02-.068.043-.093.024-.026.04-.066.032-.09-.007-.028.005-.046.038-.057.026-.008.048-.034.048-.06 0-.024.01-.044.024-.044.013 0 .018-.01.01-.022-.007-.012.008-.043.034-.07.026-.025.047-.056.047-.07 0-.01.012-.022.025-.022.014 0 .018-.02.01-.046-.008-.026-.004-.046.01-.046s.025-.01.025-.023c0-.014.045-.068.1-.122.055-.052.108-.12.117-.148.01-.028.025-.045.037-.038.012.007.022-.003.022-.023 0-.018.015-.035.034-.035.02 0 .034-.01.034-.023 0-.026.18-.206.208-.206.01 0 .023-.016.03-.035.008-.018.026-.033.04-.033.015 0 .072-.047.126-.104.055-.057.11-.103.124-.103.013 0 .024-.01.024-.02 0-.013.02-.017.046-.01.026.007.046 0 .046-.014s.018-.026.04-.026c.034 0 .035-.004.007-.02-.026-.018-.02-.026.03-.038.033-.008.06-.025.06-.036 0-.01.025-.02.054-.02.028 0 .066-.02.084-.046.02-.026.056-.046.084-.046.028 0 .066-.016.085-.035.02-.02.056-.035.083-.035.026 0 .047-.01.047-.02s.033-.014.072-.008c.05.008.068.003.057-.015-.01-.016 0-.026.03-.026.027 0 .048-.01.048-.023s.042-.023.093-.023c.064 0 .09-.01.078-.026-.01-.016-.003-.022.017-.015.017.006.065-.003.105-.02.04-.015.095-.023.12-.016.028.007.048 0 .048-.014 0-.018.164-.025.563-.025.383 0 .564.008.564.024" stroke="null"/></g></svg>
