<svg id="SvgjsSvg1045" xmlns="http://www.w3.org/2000/svg" version="1.1" xmlns:xlink="http://www.w3.org/1999/xlink" xmlns:svgjs="http://svgjs.com/svgjs" width="51" height="51" viewBox="0 0 51 51"><title>Forma 1</title><desc>Created with Avocode.</desc><defs id="SvgjsDefs1046"><linearGradient id="SvgjsLinearGradient1049" gradientUnits="userSpaceOnUse" x1="541.9440234305383" y1="237.24940561435758" x2="506.0117265694617" y2="286.70596937494656"><stop id="SvgjsStop1050" stop-opacity="1" stop-color="#3d3daf" offset="0"></stop><stop id="SvgjsStop1051" stop-opacity="1" stop-color="#3d3daf" offset="0.45"></stop><stop id="SvgjsStop1052" stop-opacity="1" stop-color="#c741ba" offset="1"></stop></linearGradient></defs><path id="SvgjsPath1047" d="M516.034 240.287L517.18 241.433C520.9269999999999 237.68699999999998 527.026 237.68699999999998 530.7729999999999 241.433L531.9189999999999 240.286C527.5409999999998 235.904 520.4129999999999 235.904 516.0339999999999 240.287ZM518.017 242.268L519.163 243.415C521.818 240.76399999999998 526.138 240.76399999999998 528.79 243.415L529.938 242.268C526.651 238.983 521.304 238.983 518.0169999999999 242.268ZM520.063 244.317L521.211 245.464C522.737 243.937 525.218 243.937 526.743 245.464L527.892 244.315C525.7330000000001 242.157 522.2220000000001 242.157 520.0630000000001 244.317ZM531.919 283.67L530.773 282.523C527.0260000000001 286.27000000000004 520.9300000000001 286.27000000000004 517.184 282.523L516.036 283.67C520.415 288.05100000000004 527.5429999999999 288.05100000000004 531.919 283.67ZM529.938 281.687L528.792 280.541C526.138 283.192 521.818 283.192 519.166 280.541L518.017 281.687C521.3040000000001 284.974 526.6510000000001 284.974 529.9380000000001 281.687ZM527.892 279.639L526.745 278.492C525.218 280.02000000000004 522.735 280.02000000000004 521.211 278.492L520.063 279.641C522.222 281.798 525.733 281.798 527.8919999999999 279.639ZM545.672 254.037L544.522 255.183C548.2700000000001 258.931 548.2700000000001 265.028 544.523 268.774L545.672 269.92C550.051 265.541 550.051 258.414 545.672 254.037ZM543.687 256.018L542.541 257.16499999999996C545.192 259.81699999999995 545.192 264.138 542.541 266.78999999999996L543.687 267.938C546.972 264.651 546.972 259.303 543.687 256.018ZM541.641 258.064L540.492 259.21000000000004C542.019 260.737 542.019 263.22100000000006 540.492 264.74300000000005L541.641 265.89300000000003C543.798 263.73400000000004 543.798 260.22200000000004 541.641 258.064ZM502.283 269.92L503.434 268.773C499.68600000000004 265.02500000000003 499.68600000000004 258.927 503.43300000000005 255.181L502.2830000000001 254.03500000000003C497.9050000000001 258.415 497.9050000000001 265.54200000000003 502.2830000000001 269.92ZM504.268 267.938L505.414 266.791C502.764 264.138 502.764 259.817 505.414 257.166L504.268 256.018C500.98199999999997 259.30499999999995 500.98199999999997 264.65299999999996 504.268 267.938ZM506.316 265.892L507.464 264.746C505.936 263.21799999999996 505.936 260.73499999999996 507.464 259.212L506.314 258.062C504.156 260.22200000000004 504.156 263.73400000000004 506.31600000000003 265.892ZM537.201 261.985C537.201 261.982 537.201 261.981 537.201 261.978C537.201 261.97700000000003 537.201 261.975 537.201 261.97200000000004C537.2 254.68200000000004 531.2660000000001 248.75200000000004 523.979 248.75200000000004C516.6840000000001 248.75200000000004 510.75300000000004 254.68900000000005 510.75300000000004 261.97800000000007C510.75300000000004 261.97800000000007 510.75300000000004 261.97800000000007 510.75300000000004 261.97900000000004C510.75300000000004 269.271 516.6850000000001 275.20300000000003 523.979 275.20300000000003C531.2660000000001 275.20300000000003 537.197 269.273 537.201 261.985ZM523.979 273.799C522.624 273.799 521.1550000000001 271.21599999999995 520.461 267.12399999999997C521.618 267.24699999999996 522.804 267.311 523.979 267.311C525.1500000000001 267.311 526.3380000000001 267.24699999999996 527.4960000000001 267.12399999999997C526.8000000000001 271.219 525.3330000000001 273.799 523.979 273.799ZM523.979 265.906C522.6560000000001 265.906 521.4100000000001 265.833 520.2560000000001 265.697C520.123 264.547 520.0480000000001 263.298 520.0480000000001 261.978C520.0480000000001 260.658 520.1230000000002 259.41200000000003 520.2560000000001 258.26C521.4080000000001 258.125 522.6550000000001 258.05 523.979 258.05C525.2990000000001 258.05 526.5450000000001 258.123 527.7 258.26C527.8330000000001 259.409 527.909 260.658 527.909 261.978C527.909 263.298 527.833 264.544 527.7 265.697C526.548 265.833 525.302 265.908 523.979 265.906ZM512.156 261.978C512.156 260.623 514.7349999999999 259.153 518.832 258.46000000000004C518.709 259.617 518.645 260.80400000000003 518.645 261.978C518.645 263.152 518.709 264.339 518.832 265.496C514.737 264.80199999999996 512.156 263.33299999999997 512.156 261.978ZM523.979 250.157C525.3330000000001 250.157 526.8000000000001 252.74 527.4960000000001 256.832C526.3380000000001 256.71 525.1500000000001 256.646 523.979 256.646C522.8040000000001 256.646 521.618 256.71000000000004 520.461 256.832C521.155 252.736 522.624 250.15699999999998 523.979 250.15699999999998ZM529.123 258.46C533.215 259.15299999999996 535.792 260.62 535.798 261.97499999999997C535.798 261.97499999999997 535.798 261.977 535.798 261.97799999999995C535.798 261.9789999999999 535.798 261.98099999999994 535.798 261.98199999999997C535.792 263.33599999999996 533.212 264.80199999999996 529.123 265.496C529.2470000000001 264.339 529.3100000000001 263.152 529.3100000000001 261.978C529.3100000000001 260.80400000000003 529.2470000000001 259.617 529.123 258.46000000000004ZM535.477 259.242C533.961 258.18 531.583 257.43 528.9359999999999 257.021C528.5229999999999 254.37 527.775 251.99400000000003 526.713 250.478C531.038 251.50900000000001 534.448 254.92000000000002 535.477 259.242ZM521.243 250.478C520.1790000000001 251.995 519.4330000000001 254.37 519.019 257.021C516.371 257.43 513.995 258.18100000000004 512.479 259.243C513.508 254.92 516.918 251.509 521.243 250.478ZM512.479 264.714C513.995 265.776 516.3710000000001 266.525 519.019 266.934C519.433 269.586 520.181 271.96200000000005 521.243 273.47700000000003C516.918 272.44700000000006 513.508 269.03600000000006 512.479 264.71400000000006ZM526.713 273.477C527.778 271.96099999999996 528.5229999999999 269.58599999999996 528.9359999999999 266.93399999999997C531.583 266.525 533.9609999999999 265.775 535.477 264.71399999999994C534.448 269.03599999999994 531.038 272.44699999999995 526.713 273.4769999999999Z " fill="#000000" fill-opacity="1" transform="matrix(1,0,0,1,-498,-236)"></path><path id="SvgjsPath1048" d="M516.034 240.287L517.18 241.433C520.9269999999999 237.68699999999998 527.026 237.68699999999998 530.7729999999999 241.433L531.9189999999999 240.286C527.5409999999998 235.904 520.4129999999999 235.904 516.0339999999999 240.287ZM518.017 242.268L519.163 243.415C521.818 240.76399999999998 526.138 240.76399999999998 528.79 243.415L529.938 242.268C526.651 238.983 521.304 238.983 518.0169999999999 242.268ZM520.063 244.317L521.211 245.464C522.737 243.937 525.218 243.937 526.743 245.464L527.892 244.315C525.7330000000001 242.157 522.2220000000001 242.157 520.0630000000001 244.317ZM531.919 283.67L530.773 282.523C527.0260000000001 286.27000000000004 520.9300000000001 286.27000000000004 517.184 282.523L516.036 283.67C520.415 288.05100000000004 527.5429999999999 288.05100000000004 531.919 283.67ZM529.938 281.687L528.792 280.541C526.138 283.192 521.818 283.192 519.166 280.541L518.017 281.687C521.3040000000001 284.974 526.6510000000001 284.974 529.9380000000001 281.687ZM527.892 279.639L526.745 278.492C525.218 280.02000000000004 522.735 280.02000000000004 521.211 278.492L520.063 279.641C522.222 281.798 525.733 281.798 527.8919999999999 279.639ZM545.672 254.037L544.522 255.183C548.2700000000001 258.931 548.2700000000001 265.028 544.523 268.774L545.672 269.92C550.051 265.541 550.051 258.414 545.672 254.037ZM543.687 256.018L542.541 257.16499999999996C545.192 259.81699999999995 545.192 264.138 542.541 266.78999999999996L543.687 267.938C546.972 264.651 546.972 259.303 543.687 256.018ZM541.641 258.064L540.492 259.21000000000004C542.019 260.737 542.019 263.22100000000006 540.492 264.74300000000005L541.641 265.89300000000003C543.798 263.73400000000004 543.798 260.22200000000004 541.641 258.064ZM502.283 269.92L503.434 268.773C499.68600000000004 265.02500000000003 499.68600000000004 258.927 503.43300000000005 255.181L502.2830000000001 254.03500000000003C497.9050000000001 258.415 497.9050000000001 265.54200000000003 502.2830000000001 269.92ZM504.268 267.938L505.414 266.791C502.764 264.138 502.764 259.817 505.414 257.166L504.268 256.018C500.98199999999997 259.30499999999995 500.98199999999997 264.65299999999996 504.268 267.938ZM506.316 265.892L507.464 264.746C505.936 263.21799999999996 505.936 260.73499999999996 507.464 259.212L506.314 258.062C504.156 260.22200000000004 504.156 263.73400000000004 506.31600000000003 265.892ZM537.201 261.985C537.201 261.982 537.201 261.981 537.201 261.978C537.201 261.97700000000003 537.201 261.975 537.201 261.97200000000004C537.2 254.68200000000004 531.2660000000001 248.75200000000004 523.979 248.75200000000004C516.6840000000001 248.75200000000004 510.75300000000004 254.68900000000005 510.75300000000004 261.97800000000007C510.75300000000004 261.97800000000007 510.75300000000004 261.97800000000007 510.75300000000004 261.97900000000004C510.75300000000004 269.271 516.6850000000001 275.20300000000003 523.979 275.20300000000003C531.2660000000001 275.20300000000003 537.197 269.273 537.201 261.985ZM523.979 273.799C522.624 273.799 521.1550000000001 271.21599999999995 520.461 267.12399999999997C521.618 267.24699999999996 522.804 267.311 523.979 267.311C525.1500000000001 267.311 526.3380000000001 267.24699999999996 527.4960000000001 267.12399999999997C526.8000000000001 271.219 525.3330000000001 273.799 523.979 273.799ZM523.979 265.906C522.6560000000001 265.906 521.4100000000001 265.833 520.2560000000001 265.697C520.123 264.547 520.0480000000001 263.298 520.0480000000001 261.978C520.0480000000001 260.658 520.1230000000002 259.41200000000003 520.2560000000001 258.26C521.4080000000001 258.125 522.6550000000001 258.05 523.979 258.05C525.2990000000001 258.05 526.5450000000001 258.123 527.7 258.26C527.8330000000001 259.409 527.909 260.658 527.909 261.978C527.909 263.298 527.833 264.544 527.7 265.697C526.548 265.833 525.302 265.908 523.979 265.906ZM512.156 261.978C512.156 260.623 514.7349999999999 259.153 518.832 258.46000000000004C518.709 259.617 518.645 260.80400000000003 518.645 261.978C518.645 263.152 518.709 264.339 518.832 265.496C514.737 264.80199999999996 512.156 263.33299999999997 512.156 261.978ZM523.979 250.157C525.3330000000001 250.157 526.8000000000001 252.74 527.4960000000001 256.832C526.3380000000001 256.71 525.1500000000001 256.646 523.979 256.646C522.8040000000001 256.646 521.618 256.71000000000004 520.461 256.832C521.155 252.736 522.624 250.15699999999998 523.979 250.15699999999998ZM529.123 258.46C533.215 259.15299999999996 535.792 260.62 535.798 261.97499999999997C535.798 261.97499999999997 535.798 261.977 535.798 261.97799999999995C535.798 261.9789999999999 535.798 261.98099999999994 535.798 261.98199999999997C535.792 263.33599999999996 533.212 264.80199999999996 529.123 265.496C529.2470000000001 264.339 529.3100000000001 263.152 529.3100000000001 261.978C529.3100000000001 260.80400000000003 529.2470000000001 259.617 529.123 258.46000000000004ZM535.477 259.242C533.961 258.18 531.583 257.43 528.9359999999999 257.021C528.5229999999999 254.37 527.775 251.99400000000003 526.713 250.478C531.038 251.50900000000001 534.448 254.92000000000002 535.477 259.242ZM521.243 250.478C520.1790000000001 251.995 519.4330000000001 254.37 519.019 257.021C516.371 257.43 513.995 258.18100000000004 512.479 259.243C513.508 254.92 516.918 251.509 521.243 250.478ZM512.479 264.714C513.995 265.776 516.3710000000001 266.525 519.019 266.934C519.433 269.586 520.181 271.96200000000005 521.243 273.47700000000003C516.918 272.44700000000006 513.508 269.03600000000006 512.479 264.71400000000006ZM526.713 273.477C527.778 271.96099999999996 528.5229999999999 269.58599999999996 528.9359999999999 266.93399999999997C531.583 266.525 533.9609999999999 265.775 535.477 264.71399999999994C534.448 269.03599999999994 531.038 272.44699999999995 526.713 273.4769999999999Z " fill="url(#SvgjsLinearGradient1049)" transform="matrix(1,0,0,1,-498,-236)"></path></svg>