<svg id="SvgjsSvg1069" xmlns="http://www.w3.org/2000/svg" version="1.1" xmlns:xlink="http://www.w3.org/1999/xlink" xmlns:svgjs="http://svgjs.com/svgjs" width="61" height="50" viewBox="0 0 61 50"><title>Forma 1</title><desc>Created with Avocode.</desc><defs id="SvgjsDefs1070"><linearGradient id="SvgjsLinearGradient1073" gradientUnits="userSpaceOnUse" x1="870.9820702968376" y1="237.25330313675647" x2="835.0206029702568" y2="286.7500165986772"><stop id="SvgjsStop1074" stop-opacity="1" stop-color="#3d3daf" offset="0"></stop><stop id="SvgjsStop1075" stop-opacity="1" stop-color="#3d3daf" offset="0.45"></stop><stop id="SvgjsStop1076" stop-opacity="1" stop-color="#c741ba" offset="1"></stop></linearGradient></defs><path id="SvgjsPath1071" d="M883 256.765C882.977 256.215 882.671 255.19699999999997 880.894 254.54899999999998L833.5120000000001 237.28699999999998C831.0840000000001 236.40099999999998 828.388 237.65999999999997 827.504 240.09399999999997L826.221 243.62499999999997L823.336 251.56899999999996C822.452 254.00199999999995 823.708 256.703 826.138 257.58899999999994L839.947 262.6189999999999C839.684 264.2179999999999 840.122 265.7979999999999 841.075 267.0069999999999L838.133 275.1049999999999C837.998 275.4769999999999 837.6410000000001 275.7279999999999 837.244 275.7279999999999H828.626V272.9099999999999C828.626 271.35599999999994 827.364 270.0919999999999 825.813 270.0919999999999H823.938C823.4209999999999 270.0919999999999 823.001 270.51199999999994 823.001 271.03099999999995V286.05999999999995C823.001 286.57899999999995 823.4209999999999 286.99999999999994 823.938 286.99999999999994H825.813C827.364 286.99999999999994 828.626 285.73599999999993 828.626 284.18199999999996V281.364H837.244C839.9970000000001 281.364 842.4780000000001 279.623 843.419 277.032L846.299 269.104C847.947 268.87199999999996 849.4449999999999 267.90799999999996 850.334 266.402L866.471 272.281C866.999 272.473 867.538 272.564 868.07 272.564C869.681 272.564 871.2120000000001 271.725 872.07 270.324L873.922 270.999C874.131 271.07500000000005 874.3480000000001 271.113 874.5640000000001 271.113C874.8340000000001 271.113 875.1030000000001 271.054 875.3550000000001 270.937C875.8080000000001 270.725 876.1520000000002 270.348 876.3230000000001 269.877L878.8900000000001 262.813C879.2020000000001 261.954 878.8450000000001 261.012 878.089 260.56L881.095 259.156C882.8090000000001 258.355 883.024 257.314 883 256.765ZM826.751 284.182C826.751 284.7 826.3299999999999 285.12100000000004 825.813 285.12100000000004H824.876V271.97H825.813C826.33 271.97 826.751 272.39200000000005 826.751 272.91ZM841.657 276.389C840.985 278.241 839.212 279.485 837.244 279.485H828.626V277.606H837.244C838.426 277.606 839.491 276.859 839.895 275.747L842.586 268.339C842.895 268.525 843.226 268.684 843.577 268.812C843.827 268.903 844.078 268.975 844.331 269.03000000000003ZM845.631 267.276C845.6089999999999 267.276 845.587 267.276 845.5659999999999 267.277C845.1189999999999 267.28299999999996 844.6639999999999 267.209 844.2189999999999 267.04699999999997C843.698 266.85699999999997 843.2429999999999 266.56399999999996 842.871 266.2C842.837 266.158 842.799 266.12 842.757 266.085C842.059 265.339 841.685 264.328 841.756 263.27799999999996L848.525 265.74299999999994C847.84 266.6859999999999 846.768 267.23999999999995 845.631 267.27599999999995ZM877.128 262.17L874.563 269.23400000000004L872.8 268.59100000000007L875.233 261.89500000000004L875.731 261.66200000000003ZM880.303 257.453L875.291 259.79499999999996C875.2900000000001 259.79499999999996 875.2900000000001 259.79499999999996 875.2890000000001 259.79599999999994L874.089 260.35599999999994C874.0880000000001 260.35599999999994 874.0880000000001 260.3569999999999 874.0880000000001 260.3569999999999L872.6800000000001 261.0139999999999C871.0290000000001 261.7859999999999 868.187 261.9099999999999 866.474 261.2859999999999L839.355 251.4129999999999C838.869 251.2359999999999 838.331 251.4869999999999 838.154 251.9749999999999C837.977 252.4629999999999 838.228 253.00099999999992 838.715 253.17899999999992L865.8330000000001 263.05099999999993C866.777 263.3949999999999 867.94 263.56299999999993 869.1270000000001 263.56299999999993C870.4250000000001 263.56299999999993 871.7500000000001 263.3619999999999 872.8460000000001 262.9719999999999L870.7180000000001 268.8309999999999C870.1870000000001 270.2909999999999 868.57 271.0469999999999 867.113 270.51499999999993L826.779 255.82299999999992C825.321 255.29199999999992 824.567 253.67099999999994 825.098 252.21099999999993L826.702 247.79499999999993C827.237 248.61999999999992 828.032 249.28299999999993 829.023 249.64399999999992L829.904 249.96599999999992C830.391 250.14299999999992 830.929 249.8919999999999 831.106 249.4039999999999C831.283 248.91699999999992 831.032 248.3779999999999 830.546 248.1999999999999L829.6640000000001 247.8789999999999C828.2070000000001 247.3479999999999 827.4530000000001 245.7279999999999 827.9830000000001 244.26799999999992L828.3040000000001 243.38399999999993L829.2660000000001 240.73599999999993C829.797 239.27599999999993 831.4140000000001 238.51999999999992 832.8710000000001 239.05199999999994L880.253 256.31399999999996C880.855 256.534 881.077 256.76199999999994 881.123 256.847C881.085 256.935 880.883 257.18199999999996 880.303 257.453ZM835.831 250.128L834.0690000000001 249.48499999999999C833.5830000000001 249.308 833.0450000000001 249.559 832.868 250.047C832.69 250.534 832.941 251.073 833.428 251.25L835.1899999999999 251.893C835.2959999999999 251.932 835.404 251.95 835.511 251.95C835.894 251.95 836.2529999999999 251.713 836.3919999999999 251.332C836.569 250.845 836.318 250.30599999999998 835.8309999999999 250.128Z " fill="#000000" fill-opacity="1" transform="matrix(1,0,0,1,-823,-237)"></path><path id="SvgjsPath1072" d="M883 256.765C882.977 256.215 882.671 255.19699999999997 880.894 254.54899999999998L833.5120000000001 237.28699999999998C831.0840000000001 236.40099999999998 828.388 237.65999999999997 827.504 240.09399999999997L826.221 243.62499999999997L823.336 251.56899999999996C822.452 254.00199999999995 823.708 256.703 826.138 257.58899999999994L839.947 262.6189999999999C839.684 264.2179999999999 840.122 265.7979999999999 841.075 267.0069999999999L838.133 275.1049999999999C837.998 275.4769999999999 837.6410000000001 275.7279999999999 837.244 275.7279999999999H828.626V272.9099999999999C828.626 271.35599999999994 827.364 270.0919999999999 825.813 270.0919999999999H823.938C823.4209999999999 270.0919999999999 823.001 270.51199999999994 823.001 271.03099999999995V286.05999999999995C823.001 286.57899999999995 823.4209999999999 286.99999999999994 823.938 286.99999999999994H825.813C827.364 286.99999999999994 828.626 285.73599999999993 828.626 284.18199999999996V281.364H837.244C839.9970000000001 281.364 842.4780000000001 279.623 843.419 277.032L846.299 269.104C847.947 268.87199999999996 849.4449999999999 267.90799999999996 850.334 266.402L866.471 272.281C866.999 272.473 867.538 272.564 868.07 272.564C869.681 272.564 871.2120000000001 271.725 872.07 270.324L873.922 270.999C874.131 271.07500000000005 874.3480000000001 271.113 874.5640000000001 271.113C874.8340000000001 271.113 875.1030000000001 271.054 875.3550000000001 270.937C875.8080000000001 270.725 876.1520000000002 270.348 876.3230000000001 269.877L878.8900000000001 262.813C879.2020000000001 261.954 878.8450000000001 261.012 878.089 260.56L881.095 259.156C882.8090000000001 258.355 883.024 257.314 883 256.765ZM826.751 284.182C826.751 284.7 826.3299999999999 285.12100000000004 825.813 285.12100000000004H824.876V271.97H825.813C826.33 271.97 826.751 272.39200000000005 826.751 272.91ZM841.657 276.389C840.985 278.241 839.212 279.485 837.244 279.485H828.626V277.606H837.244C838.426 277.606 839.491 276.859 839.895 275.747L842.586 268.339C842.895 268.525 843.226 268.684 843.577 268.812C843.827 268.903 844.078 268.975 844.331 269.03000000000003ZM845.631 267.276C845.6089999999999 267.276 845.587 267.276 845.5659999999999 267.277C845.1189999999999 267.28299999999996 844.6639999999999 267.209 844.2189999999999 267.04699999999997C843.698 266.85699999999997 843.2429999999999 266.56399999999996 842.871 266.2C842.837 266.158 842.799 266.12 842.757 266.085C842.059 265.339 841.685 264.328 841.756 263.27799999999996L848.525 265.74299999999994C847.84 266.6859999999999 846.768 267.23999999999995 845.631 267.27599999999995ZM877.128 262.17L874.563 269.23400000000004L872.8 268.59100000000007L875.233 261.89500000000004L875.731 261.66200000000003ZM880.303 257.453L875.291 259.79499999999996C875.2900000000001 259.79499999999996 875.2900000000001 259.79499999999996 875.2890000000001 259.79599999999994L874.089 260.35599999999994C874.0880000000001 260.35599999999994 874.0880000000001 260.3569999999999 874.0880000000001 260.3569999999999L872.6800000000001 261.0139999999999C871.0290000000001 261.7859999999999 868.187 261.9099999999999 866.474 261.2859999999999L839.355 251.4129999999999C838.869 251.2359999999999 838.331 251.4869999999999 838.154 251.9749999999999C837.977 252.4629999999999 838.228 253.00099999999992 838.715 253.17899999999992L865.8330000000001 263.05099999999993C866.777 263.3949999999999 867.94 263.56299999999993 869.1270000000001 263.56299999999993C870.4250000000001 263.56299999999993 871.7500000000001 263.3619999999999 872.8460000000001 262.9719999999999L870.7180000000001 268.8309999999999C870.1870000000001 270.2909999999999 868.57 271.0469999999999 867.113 270.51499999999993L826.779 255.82299999999992C825.321 255.29199999999992 824.567 253.67099999999994 825.098 252.21099999999993L826.702 247.79499999999993C827.237 248.61999999999992 828.032 249.28299999999993 829.023 249.64399999999992L829.904 249.96599999999992C830.391 250.14299999999992 830.929 249.8919999999999 831.106 249.4039999999999C831.283 248.91699999999992 831.032 248.3779999999999 830.546 248.1999999999999L829.6640000000001 247.8789999999999C828.2070000000001 247.3479999999999 827.4530000000001 245.7279999999999 827.9830000000001 244.26799999999992L828.3040000000001 243.38399999999993L829.2660000000001 240.73599999999993C829.797 239.27599999999993 831.4140000000001 238.51999999999992 832.8710000000001 239.05199999999994L880.253 256.31399999999996C880.855 256.534 881.077 256.76199999999994 881.123 256.847C881.085 256.935 880.883 257.18199999999996 880.303 257.453ZM835.831 250.128L834.0690000000001 249.48499999999999C833.5830000000001 249.308 833.0450000000001 249.559 832.868 250.047C832.69 250.534 832.941 251.073 833.428 251.25L835.1899999999999 251.893C835.2959999999999 251.932 835.404 251.95 835.511 251.95C835.894 251.95 836.2529999999999 251.713 836.3919999999999 251.332C836.569 250.845 836.318 250.30599999999998 835.8309999999999 250.128Z " fill="url(#SvgjsLinearGradient1073)" transform="matrix(1,0,0,1,-823,-237)"></path></svg>