<svg id="SvgjsSvg1117" xmlns="http://www.w3.org/2000/svg" version="1.1" xmlns:xlink="http://www.w3.org/1999/xlink" xmlns:svgjs="http://svgjs.com/svgjs" width="50" height="50" viewBox="0 0 50 50"><title>Shape 1</title><desc>Created with Avocode.</desc><defs id="SvgjsDefs1118"><linearGradient id="SvgjsLinearGradient1121" gradientUnits="userSpaceOnUse" x1="1415.9819275681327" y1="237.25" x2="1380.0180724318673" y2="286.75"><stop id="SvgjsStop1122" stop-opacity="1" stop-color="#3d3daf" offset="0"></stop><stop id="SvgjsStop1123" stop-opacity="1" stop-color="#3d3daf" offset="0.45"></stop><stop id="SvgjsStop1124" stop-opacity="1" stop-color="#c741ba" offset="1"></stop></linearGradient></defs><path id="SvgjsPath1119" d="M1398 237C1384.19 237 1373 248.193 1373 262C1373 275.807 1384.19 287 1398 287C1411.81 287 1423 275.807 1423 262C1423 248.193 1411.81 237 1398 237ZM1398 285.437C1385.08 285.437 1374.56 274.923 1374.56 262C1374.56 249.076 1385.08 238.562 1398 238.562C1410.92 238.562 1421.44 249.07600000000002 1421.44 262C1421.44 274.923 1410.92 285.437 1398 285.437ZM1387.06 258.094C1384.9099999999999 258.094 1383.1599999999999 259.842 1383.1599999999999 262C1383.1599999999999 264.157 1384.9099999999999 265.906 1387.06 265.906C1389.22 265.906 1390.97 264.157 1390.97 262C1390.97 259.842 1389.22 258.094 1387.06 258.094ZM1387.06 264.344C1385.77 264.344 1384.72 263.292 1384.72 262C1384.72 260.707 1385.77 259.656 1387.06 259.656C1388.35 259.656 1389.4099999999999 260.707 1389.4099999999999 262C1389.4099999999999 263.292 1388.35 264.344 1387.06 264.344ZM1398 258.094C1395.84 258.094 1394.09 259.842 1394.09 262C1394.09 264.157 1395.84 265.906 1398 265.906C1400.16 265.906 1401.91 264.157 1401.91 262C1401.91 259.842 1400.16 258.094 1398 258.094ZM1398 264.344C1396.71 264.344 1395.66 263.292 1395.66 262C1395.66 260.707 1396.71 259.656 1398 259.656C1399.29 259.656 1400.34 260.707 1400.34 262C1400.34 263.292 1399.29 264.344 1398 264.344ZM1408.94 258.094C1406.78 258.094 1405.03 259.842 1405.03 262C1405.03 264.157 1406.78 265.906 1408.94 265.906C1411.0900000000001 265.906 1412.8400000000001 264.157 1412.8400000000001 262C1412.8400000000001 259.842 1411.0900000000001 258.094 1408.94 258.094ZM1408.94 264.344C1407.65 264.344 1406.5900000000001 263.292 1406.5900000000001 262C1406.5900000000001 260.707 1407.65 259.656 1408.94 259.656C1410.23 259.656 1411.28 260.707 1411.28 262C1411.28 263.292 1410.23 264.344 1408.94 264.344Z " fill="#000000" fill-opacity="1" transform="matrix(1,0,0,1,-1373,-237)"></path><path id="SvgjsPath1120" d="M1398 237C1384.19 237 1373 248.193 1373 262C1373 275.807 1384.19 287 1398 287C1411.81 287 1423 275.807 1423 262C1423 248.193 1411.81 237 1398 237ZM1398 285.437C1385.08 285.437 1374.56 274.923 1374.56 262C1374.56 249.076 1385.08 238.562 1398 238.562C1410.92 238.562 1421.44 249.07600000000002 1421.44 262C1421.44 274.923 1410.92 285.437 1398 285.437ZM1387.06 258.094C1384.9099999999999 258.094 1383.1599999999999 259.842 1383.1599999999999 262C1383.1599999999999 264.157 1384.9099999999999 265.906 1387.06 265.906C1389.22 265.906 1390.97 264.157 1390.97 262C1390.97 259.842 1389.22 258.094 1387.06 258.094ZM1387.06 264.344C1385.77 264.344 1384.72 263.292 1384.72 262C1384.72 260.707 1385.77 259.656 1387.06 259.656C1388.35 259.656 1389.4099999999999 260.707 1389.4099999999999 262C1389.4099999999999 263.292 1388.35 264.344 1387.06 264.344ZM1398 258.094C1395.84 258.094 1394.09 259.842 1394.09 262C1394.09 264.157 1395.84 265.906 1398 265.906C1400.16 265.906 1401.91 264.157 1401.91 262C1401.91 259.842 1400.16 258.094 1398 258.094ZM1398 264.344C1396.71 264.344 1395.66 263.292 1395.66 262C1395.66 260.707 1396.71 259.656 1398 259.656C1399.29 259.656 1400.34 260.707 1400.34 262C1400.34 263.292 1399.29 264.344 1398 264.344ZM1408.94 258.094C1406.78 258.094 1405.03 259.842 1405.03 262C1405.03 264.157 1406.78 265.906 1408.94 265.906C1411.0900000000001 265.906 1412.8400000000001 264.157 1412.8400000000001 262C1412.8400000000001 259.842 1411.0900000000001 258.094 1408.94 258.094ZM1408.94 264.344C1407.65 264.344 1406.5900000000001 263.292 1406.5900000000001 262C1406.5900000000001 260.707 1407.65 259.656 1408.94 259.656C1410.23 259.656 1411.28 260.707 1411.28 262C1411.28 263.292 1410.23 264.344 1408.94 264.344Z " fill="url(#SvgjsLinearGradient1121)" transform="matrix(1,0,0,1,-1373,-237)"></path></svg>