<svg id="SvgjsSvg1216" xmlns="http://www.w3.org/2000/svg" version="1.1" xmlns:xlink="http://www.w3.org/1999/xlink" xmlns:svgjs="http://svgjs.com/svgjs" width="50" height="50" viewBox="0 0 50 50"><title>Shape 1</title><desc>Created with Avocode.</desc><defs id="SvgjsDefs1217"><linearGradient id="SvgjsLinearGradient1220" gradientUnits="userSpaceOnUse" x1="1537.981927568133" y1="237.25" x2="1502.0180724318675" y2="286.75"><stop id="SvgjsStop1221" stop-opacity="1" stop-color="#0fa0d9" offset="0"></stop><stop id="SvgjsStop1222" stop-opacity="1" stop-color="#0fa0d9" offset="0.45"></stop><stop id="SvgjsStop1223" stop-opacity="1" stop-color="#0ecebf" offset="1"></stop></linearGradient></defs><path id="SvgjsPath1218" d="M1520 237C1506.19 237 1495 248.193 1495 262C1495 275.807 1506.19 287 1520 287C1533.81 287 1545 275.807 1545 262C1545 248.193 1533.81 237 1520 237ZM1520 285.437C1507.08 285.437 1496.56 274.923 1496.56 262C1496.56 249.076 1507.08 238.562 1520 238.562C1532.92 238.562 1543.44 249.07600000000002 1543.44 262C1543.44 274.923 1532.92 285.437 1520 285.437ZM1509.06 258.094C1506.9099999999999 258.094 1505.1599999999999 259.842 1505.1599999999999 262C1505.1599999999999 264.157 1506.9099999999999 265.906 1509.06 265.906C1511.22 265.906 1512.97 264.157 1512.97 262C1512.97 259.842 1511.22 258.094 1509.06 258.094ZM1509.06 264.344C1507.77 264.344 1506.72 263.292 1506.72 262C1506.72 260.707 1507.77 259.656 1509.06 259.656C1510.35 259.656 1511.4099999999999 260.707 1511.4099999999999 262C1511.4099999999999 263.292 1510.35 264.344 1509.06 264.344ZM1520 258.094C1517.84 258.094 1516.09 259.842 1516.09 262C1516.09 264.157 1517.84 265.906 1520 265.906C1522.16 265.906 1523.91 264.157 1523.91 262C1523.91 259.842 1522.16 258.094 1520 258.094ZM1520 264.344C1518.71 264.344 1517.66 263.292 1517.66 262C1517.66 260.707 1518.71 259.656 1520 259.656C1521.29 259.656 1522.34 260.707 1522.34 262C1522.34 263.292 1521.29 264.344 1520 264.344ZM1530.94 258.094C1528.78 258.094 1527.03 259.842 1527.03 262C1527.03 264.157 1528.78 265.906 1530.94 265.906C1533.0900000000001 265.906 1534.8400000000001 264.157 1534.8400000000001 262C1534.8400000000001 259.842 1533.0900000000001 258.094 1530.94 258.094ZM1530.94 264.344C1529.65 264.344 1528.5900000000001 263.292 1528.5900000000001 262C1528.5900000000001 260.707 1529.65 259.656 1530.94 259.656C1532.23 259.656 1533.28 260.707 1533.28 262C1533.28 263.292 1532.23 264.344 1530.94 264.344Z " fill="#000000" fill-opacity="1" transform="matrix(1,0,0,1,-1495,-237)"></path><path id="SvgjsPath1219" d="M1520 237C1506.19 237 1495 248.193 1495 262C1495 275.807 1506.19 287 1520 287C1533.81 287 1545 275.807 1545 262C1545 248.193 1533.81 237 1520 237ZM1520 285.437C1507.08 285.437 1496.56 274.923 1496.56 262C1496.56 249.076 1507.08 238.562 1520 238.562C1532.92 238.562 1543.44 249.07600000000002 1543.44 262C1543.44 274.923 1532.92 285.437 1520 285.437ZM1509.06 258.094C1506.9099999999999 258.094 1505.1599999999999 259.842 1505.1599999999999 262C1505.1599999999999 264.157 1506.9099999999999 265.906 1509.06 265.906C1511.22 265.906 1512.97 264.157 1512.97 262C1512.97 259.842 1511.22 258.094 1509.06 258.094ZM1509.06 264.344C1507.77 264.344 1506.72 263.292 1506.72 262C1506.72 260.707 1507.77 259.656 1509.06 259.656C1510.35 259.656 1511.4099999999999 260.707 1511.4099999999999 262C1511.4099999999999 263.292 1510.35 264.344 1509.06 264.344ZM1520 258.094C1517.84 258.094 1516.09 259.842 1516.09 262C1516.09 264.157 1517.84 265.906 1520 265.906C1522.16 265.906 1523.91 264.157 1523.91 262C1523.91 259.842 1522.16 258.094 1520 258.094ZM1520 264.344C1518.71 264.344 1517.66 263.292 1517.66 262C1517.66 260.707 1518.71 259.656 1520 259.656C1521.29 259.656 1522.34 260.707 1522.34 262C1522.34 263.292 1521.29 264.344 1520 264.344ZM1530.94 258.094C1528.78 258.094 1527.03 259.842 1527.03 262C1527.03 264.157 1528.78 265.906 1530.94 265.906C1533.0900000000001 265.906 1534.8400000000001 264.157 1534.8400000000001 262C1534.8400000000001 259.842 1533.0900000000001 258.094 1530.94 258.094ZM1530.94 264.344C1529.65 264.344 1528.5900000000001 263.292 1528.5900000000001 262C1528.5900000000001 260.707 1529.65 259.656 1530.94 259.656C1532.23 259.656 1533.28 260.707 1533.28 262C1533.28 263.292 1532.23 264.344 1530.94 264.344Z " fill="url(#SvgjsLinearGradient1220)" transform="matrix(1,0,0,1,-1495,-237)"></path></svg>