<svg id="SvgjsSvg1109" xmlns="http://www.w3.org/2000/svg" version="1.1" xmlns:xlink="http://www.w3.org/1999/xlink" xmlns:svgjs="http://svgjs.com/svgjs" width="59" height="50" viewBox="0 0 59 50"><title>Forma 1</title><desc>Created with Avocode.</desc><defs id="SvgjsDefs1110"><linearGradient id="SvgjsLinearGradient1113" gradientUnits="userSpaceOnUse" x1="1309.4819275681327" y1="237.25" x2="1273.5180724318673" y2="286.75"><stop id="SvgjsStop1114" stop-opacity="1" stop-color="#3d3daf" offset="0"></stop><stop id="SvgjsStop1115" stop-opacity="1" stop-color="#3d3daf" offset="0.45"></stop><stop id="SvgjsStop1116" stop-opacity="1" stop-color="#c741ba" offset="1"></stop></linearGradient></defs><path id="SvgjsPath1111" d="M1314.84 258.451H1314.9599999999998C1315.7599999999998 258.451 1316.4099999999999 257.802 1316.4099999999999 257C1316.4099999999999 256.198 1315.7599999999998 255.548 1314.9599999999998 255.548H1314.84C1314.04 255.548 1313.3899999999999 256.198 1313.3899999999999 257C1313.3899999999999 257.801 1314.04 258.451 1314.84 258.451ZM1308.48 246.677H1308.6C1309.3999999999999 246.677 1310.04 246.027 1310.04 245.226C1310.04 244.424 1309.3999999999999 243.774 1308.6 243.774H1308.48C1307.68 243.774 1307.03 244.424 1307.03 245.226C1307.03 246.027 1307.68 246.677 1308.48 246.677ZM1314.84 264.419H1314.9599999999998C1315.7599999999998 264.419 1316.4099999999999 263.769 1316.4099999999999 262.96799999999996C1316.4099999999999 262.16599999999994 1315.7599999999998 261.51599999999996 1314.9599999999998 261.51599999999996H1314.84C1314.04 261.51599999999996 1313.3899999999999 262.16599999999994 1313.3899999999999 262.96799999999996C1313.3899999999999 263.76899999999995 1314.04 264.419 1314.84 264.419ZM1319.55 284.097H1299.09C1298.3 284.097 1297.6499999999999 284.746 1297.6499999999999 285.548C1297.6499999999999 286.35 1298.3 287 1299.09 287H1319.55C1320.35 287 1321 286.35 1321 285.548C1321 284.746 1320.35 284.097 1319.55 284.097ZM1314.84 246.677H1314.9599999999998C1315.7599999999998 246.677 1316.4099999999999 246.027 1316.4099999999999 245.226C1316.4099999999999 244.424 1315.7599999999998 243.774 1314.9599999999998 243.774H1314.84C1314.04 243.774 1313.3899999999999 244.424 1313.3899999999999 245.226C1313.3899999999999 246.027 1314.04 246.677 1314.84 246.677ZM1319.97 269.097C1319.97 268.29499999999996 1319.33 267.645 1318.53 267.645H1300.05C1299.26 267.645 1298.61 268.29499999999996 1298.61 269.097V280.06399999999996C1298.61 280.866 1299.26 281.51599999999996 1300.05 281.51599999999996H1318.53C1319.33 281.51599999999996 1319.97 280.866 1319.97 280.06399999999996ZM1301.5 278.613V270.548H1317.08V278.613ZM1314.84 252.484H1314.9599999999998C1315.7599999999998 252.484 1316.4099999999999 251.834 1316.4099999999999 251.032C1316.4099999999999 250.23000000000002 1315.7599999999998 249.58100000000002 1314.9599999999998 249.58100000000002H1314.84C1314.04 249.58100000000002 1313.3899999999999 250.23000000000002 1313.3899999999999 251.032C1313.3899999999999 251.834 1314.04 252.484 1314.84 252.484ZM1302.14 238.452C1302.14 237.65 1301.5 237 1300.7 237H1282.22C1281.42 237 1280.78 237.65 1280.78 238.452V249.419C1280.78 250.221 1281.42 250.871 1282.22 250.871H1300.7C1301.5 250.871 1302.14 250.221 1302.14 249.419ZM1283.67 239.903H1299.25V248.129H1283.67ZM1274.4 246.677H1274.52C1275.32 246.677 1275.97 246.027 1275.97 245.226C1275.97 244.424 1275.32 243.774 1274.52 243.774H1274.4C1273.6000000000001 243.774 1272.96 244.424 1272.96 245.226C1272.96 246.027 1273.6000000000001 246.677 1274.4 246.677ZM1284.31 269.097C1284.31 268.29499999999996 1283.6599999999999 267.645 1282.87 267.645H1264.3899999999999C1263.59 267.645 1262.9499999999998 268.29499999999996 1262.9499999999998 269.097V280.06399999999996C1262.9499999999998 280.866 1263.59 281.51599999999996 1264.3899999999999 281.51599999999996H1282.87C1283.6599999999999 281.51599999999996 1284.31 280.866 1284.31 280.06399999999996ZM1265.84 270.548H1281.4199999999998V278.613H1265.84ZM1281.27 256.516H1301.73C1302.53 256.516 1303.18 255.866 1303.18 255.06400000000002C1303.18 254.26300000000003 1302.53 253.61300000000003 1301.73 253.61300000000003H1281.27C1280.47 253.61300000000003 1279.82 254.26300000000003 1279.82 255.06400000000002C1279.82 255.866 1280.47 256.516 1281.27 256.516ZM1294.74 273.774H1294.6200000000001C1293.8200000000002 273.774 1293.18 274.424 1293.18 275.226C1293.18 276.027 1293.8200000000002 276.677 1294.6200000000001 276.677H1294.74C1295.54 276.677 1296.19 276.02700000000004 1296.19 275.226C1296.19 274.424 1295.54 273.774 1294.74 273.774ZM1283.9 284.097H1263.45C1262.65 284.097 1262 284.746 1262 285.548C1262 286.35 1262.65 287 1263.45 287H1283.9C1284.7 287 1285.3500000000001 286.35 1285.3500000000001 285.548C1285.3500000000001 284.746 1284.7 284.097 1283.9 284.097ZM1268.16 249.581H1268.0400000000002C1267.2400000000002 249.581 1266.5900000000001 250.23 1266.5900000000001 251.03199999999998C1266.5900000000001 251.83399999999997 1267.2400000000002 252.48399999999998 1268.0400000000002 252.48399999999998H1268.16C1268.96 252.48399999999998 1269.6100000000001 251.83399999999997 1269.6100000000001 251.03199999999998C1269.6100000000001 250.23 1268.96 249.581 1268.16 249.581ZM1288.38 273.774H1288.2600000000002C1287.4600000000003 273.774 1286.8100000000002 274.424 1286.8100000000002 275.226C1286.8100000000002 276.027 1287.4600000000003 276.677 1288.2600000000002 276.677H1288.38C1289.18 276.677 1289.8300000000002 276.02700000000004 1289.8300000000002 275.226C1289.8300000000002 274.424 1289.18 273.774 1288.38 273.774ZM1268.04 246.677H1268.1599999999999C1268.9599999999998 246.677 1269.61 246.027 1269.61 245.226C1269.61 244.424 1268.9599999999998 243.774 1268.1599999999999 243.774H1268.04C1267.24 243.774 1266.59 244.424 1266.59 245.226C1266.59 246.027 1267.24 246.677 1268.04 246.677ZM1268.16 261.516H1268.0400000000002C1267.2400000000002 261.516 1266.5900000000001 262.166 1266.5900000000001 262.968C1266.5900000000001 263.769 1267.2400000000002 264.41900000000004 1268.0400000000002 264.41900000000004H1268.16C1268.96 264.41900000000004 1269.6100000000001 263.76900000000006 1269.6100000000001 262.968C1269.6100000000001 262.166 1268.96 261.516 1268.16 261.516ZM1269.61 257C1269.61 257.802 1268.9599999999998 258.451 1268.1599999999999 258.451H1268.04C1267.24 258.451 1266.59 257.802 1266.59 257C1266.59 256.198 1267.24 255.548 1268.04 255.548H1268.1599999999999C1268.9599999999998 255.548 1269.61 256.198 1269.61 257Z " fill="#000000" fill-opacity="1" transform="matrix(1,0,0,1,-1262,-237)"></path><path id="SvgjsPath1112" d="M1314.84 258.451H1314.9599999999998C1315.7599999999998 258.451 1316.4099999999999 257.802 1316.4099999999999 257C1316.4099999999999 256.198 1315.7599999999998 255.548 1314.9599999999998 255.548H1314.84C1314.04 255.548 1313.3899999999999 256.198 1313.3899999999999 257C1313.3899999999999 257.801 1314.04 258.451 1314.84 258.451ZM1308.48 246.677H1308.6C1309.3999999999999 246.677 1310.04 246.027 1310.04 245.226C1310.04 244.424 1309.3999999999999 243.774 1308.6 243.774H1308.48C1307.68 243.774 1307.03 244.424 1307.03 245.226C1307.03 246.027 1307.68 246.677 1308.48 246.677ZM1314.84 264.419H1314.9599999999998C1315.7599999999998 264.419 1316.4099999999999 263.769 1316.4099999999999 262.96799999999996C1316.4099999999999 262.16599999999994 1315.7599999999998 261.51599999999996 1314.9599999999998 261.51599999999996H1314.84C1314.04 261.51599999999996 1313.3899999999999 262.16599999999994 1313.3899999999999 262.96799999999996C1313.3899999999999 263.76899999999995 1314.04 264.419 1314.84 264.419ZM1319.55 284.097H1299.09C1298.3 284.097 1297.6499999999999 284.746 1297.6499999999999 285.548C1297.6499999999999 286.35 1298.3 287 1299.09 287H1319.55C1320.35 287 1321 286.35 1321 285.548C1321 284.746 1320.35 284.097 1319.55 284.097ZM1314.84 246.677H1314.9599999999998C1315.7599999999998 246.677 1316.4099999999999 246.027 1316.4099999999999 245.226C1316.4099999999999 244.424 1315.7599999999998 243.774 1314.9599999999998 243.774H1314.84C1314.04 243.774 1313.3899999999999 244.424 1313.3899999999999 245.226C1313.3899999999999 246.027 1314.04 246.677 1314.84 246.677ZM1319.97 269.097C1319.97 268.29499999999996 1319.33 267.645 1318.53 267.645H1300.05C1299.26 267.645 1298.61 268.29499999999996 1298.61 269.097V280.06399999999996C1298.61 280.866 1299.26 281.51599999999996 1300.05 281.51599999999996H1318.53C1319.33 281.51599999999996 1319.97 280.866 1319.97 280.06399999999996ZM1301.5 278.613V270.548H1317.08V278.613ZM1314.84 252.484H1314.9599999999998C1315.7599999999998 252.484 1316.4099999999999 251.834 1316.4099999999999 251.032C1316.4099999999999 250.23000000000002 1315.7599999999998 249.58100000000002 1314.9599999999998 249.58100000000002H1314.84C1314.04 249.58100000000002 1313.3899999999999 250.23000000000002 1313.3899999999999 251.032C1313.3899999999999 251.834 1314.04 252.484 1314.84 252.484ZM1302.14 238.452C1302.14 237.65 1301.5 237 1300.7 237H1282.22C1281.42 237 1280.78 237.65 1280.78 238.452V249.419C1280.78 250.221 1281.42 250.871 1282.22 250.871H1300.7C1301.5 250.871 1302.14 250.221 1302.14 249.419ZM1283.67 239.903H1299.25V248.129H1283.67ZM1274.4 246.677H1274.52C1275.32 246.677 1275.97 246.027 1275.97 245.226C1275.97 244.424 1275.32 243.774 1274.52 243.774H1274.4C1273.6000000000001 243.774 1272.96 244.424 1272.96 245.226C1272.96 246.027 1273.6000000000001 246.677 1274.4 246.677ZM1284.31 269.097C1284.31 268.29499999999996 1283.6599999999999 267.645 1282.87 267.645H1264.3899999999999C1263.59 267.645 1262.9499999999998 268.29499999999996 1262.9499999999998 269.097V280.06399999999996C1262.9499999999998 280.866 1263.59 281.51599999999996 1264.3899999999999 281.51599999999996H1282.87C1283.6599999999999 281.51599999999996 1284.31 280.866 1284.31 280.06399999999996ZM1265.84 270.548H1281.4199999999998V278.613H1265.84ZM1281.27 256.516H1301.73C1302.53 256.516 1303.18 255.866 1303.18 255.06400000000002C1303.18 254.26300000000003 1302.53 253.61300000000003 1301.73 253.61300000000003H1281.27C1280.47 253.61300000000003 1279.82 254.26300000000003 1279.82 255.06400000000002C1279.82 255.866 1280.47 256.516 1281.27 256.516ZM1294.74 273.774H1294.6200000000001C1293.8200000000002 273.774 1293.18 274.424 1293.18 275.226C1293.18 276.027 1293.8200000000002 276.677 1294.6200000000001 276.677H1294.74C1295.54 276.677 1296.19 276.02700000000004 1296.19 275.226C1296.19 274.424 1295.54 273.774 1294.74 273.774ZM1283.9 284.097H1263.45C1262.65 284.097 1262 284.746 1262 285.548C1262 286.35 1262.65 287 1263.45 287H1283.9C1284.7 287 1285.3500000000001 286.35 1285.3500000000001 285.548C1285.3500000000001 284.746 1284.7 284.097 1283.9 284.097ZM1268.16 249.581H1268.0400000000002C1267.2400000000002 249.581 1266.5900000000001 250.23 1266.5900000000001 251.03199999999998C1266.5900000000001 251.83399999999997 1267.2400000000002 252.48399999999998 1268.0400000000002 252.48399999999998H1268.16C1268.96 252.48399999999998 1269.6100000000001 251.83399999999997 1269.6100000000001 251.03199999999998C1269.6100000000001 250.23 1268.96 249.581 1268.16 249.581ZM1288.38 273.774H1288.2600000000002C1287.4600000000003 273.774 1286.8100000000002 274.424 1286.8100000000002 275.226C1286.8100000000002 276.027 1287.4600000000003 276.677 1288.2600000000002 276.677H1288.38C1289.18 276.677 1289.8300000000002 276.02700000000004 1289.8300000000002 275.226C1289.8300000000002 274.424 1289.18 273.774 1288.38 273.774ZM1268.04 246.677H1268.1599999999999C1268.9599999999998 246.677 1269.61 246.027 1269.61 245.226C1269.61 244.424 1268.9599999999998 243.774 1268.1599999999999 243.774H1268.04C1267.24 243.774 1266.59 244.424 1266.59 245.226C1266.59 246.027 1267.24 246.677 1268.04 246.677ZM1268.16 261.516H1268.0400000000002C1267.2400000000002 261.516 1266.5900000000001 262.166 1266.5900000000001 262.968C1266.5900000000001 263.769 1267.2400000000002 264.41900000000004 1268.0400000000002 264.41900000000004H1268.16C1268.96 264.41900000000004 1269.6100000000001 263.76900000000006 1269.6100000000001 262.968C1269.6100000000001 262.166 1268.96 261.516 1268.16 261.516ZM1269.61 257C1269.61 257.802 1268.9599999999998 258.451 1268.1599999999999 258.451H1268.04C1267.24 258.451 1266.59 257.802 1266.59 257C1266.59 256.198 1267.24 255.548 1268.04 255.548H1268.1599999999999C1268.9599999999998 255.548 1269.61 256.198 1269.61 257Z " fill="url(#SvgjsLinearGradient1113)" transform="matrix(1,0,0,1,-1262,-237)"></path></svg>