<svg width="62" height="46" xmlns="http://www.w3.org/2000/svg"><g><path fill-rule="evenodd" d="M.455 19.33v19.05h23.908v3.675h-4.69c-4.71 0-4.79.002-4.79.08 0 .023-.02.042-.047.042s-.056.027-.064.06c-.01.034-.036.06-.06.06-.026 0-.053.03-.062.062-.008.033-.035.06-.06.06-.024 0-.052.027-.06.06-.01.034-.037.06-.06.06-.026 0-.053.03-.062.062-.01.034-.034.06-.056.06s-.048.028-.06.062c-.01.033-.037.06-.06.06s-.05.028-.06.06c-.01.035-.038.062-.06.062s-.047.027-.056.06c-.008.034-.036.062-.06.062-.025 0-.052.027-.06.06-.01.034-.04.06-.065.06-.026 0-.048.02-.048.045 0 .024-.027.052-.06.062-.034.01-.06.038-.06.06 0 .024-.03.05-.062.062-.034.01-.06.04-.06.063 0 .024-.023.043-.05.043-.026 0-.055.028-.064.06-.01.034-.036.062-.06.062-.025 0-.053.027-.06.06-.01.034-.037.06-.062.06s-.052.03-.06.062c-.01.034-.035.06-.057.06s-.048.028-.06.062c-.01.032-.037.06-.06.06-.022 0-.05.027-.06.06-.01.034-.038.06-.06.06s-.047.028-.056.062c-.007.033-.035.06-.06.06-.024 0-.05.028-.06.06-.01.035-.038.062-.064.062-.027 0-.05.02-.05.044 0 .023-.026.052-.06.062-.033.01-.06.038-.06.06 0 .024-.028.05-.06.062-.034.01-.062.037-.062.06 0 .02-.027.046-.06.055-.034.01-.06.036-.06.06 0 .025-.03.053-.062.06-.034.01-.06.037-.06.062 0 .024-.028.05-.062.06-.033.01-.06.036-.06.06 0 .025-.028.053-.06.062-.035.008-.062.037-.062.064 0 .026-.02.048-.044.048-.023 0-.052.028-.062.06-.01.034-.038.062-.06.062-.024 0-.05.027-.062.06-.01.034-.04.06-.063.06-.024 0-.043.023-.043.05 0 .026-.027.055-.06.064-.034.01-.062.036-.062.06 0 .025-.027.053-.06.06-.034.01-.06.035-.06.057s-.028.05-.062.06c-.075.024-.085.18-.013.21.063.023 39.093.023 39.156 0 .072-.03.063-.186-.013-.21-.033-.01-.06-.038-.06-.06s-.028-.047-.06-.056c-.034-.007-.062-.035-.062-.06 0-.024-.027-.05-.06-.06-.034-.01-.06-.038-.06-.064 0-.027-.02-.05-.045-.05-.024 0-.052-.026-.063-.06-.01-.033-.038-.06-.06-.06-.023 0-.05-.028-.06-.06-.012-.034-.038-.062-.06-.062s-.048-.027-.056-.06c-.01-.034-.036-.06-.06-.06-.026 0-.053-.03-.062-.062-.01-.033-.036-.06-.06-.06-.025 0-.053-.028-.06-.062-.01-.033-.037-.06-.062-.06s-.052-.028-.06-.06c-.01-.035-.04-.062-.065-.062-.027 0-.05-.02-.05-.043 0-.024-.026-.053-.06-.063-.033-.01-.06-.038-.06-.06 0-.024-.027-.05-.06-.062-.034-.01-.062-.04-.062-.062 0-.024-.02-.044-.048-.044-.027 0-.056-.027-.064-.06-.008-.034-.036-.062-.06-.062-.025 0-.052-.027-.06-.06-.01-.034-.035-.06-.057-.06s-.048-.028-.06-.062c-.01-.033-.037-.06-.06-.06s-.05-.028-.06-.06c-.01-.035-.038-.062-.06-.062s-.047-.027-.056-.06c-.008-.034-.036-.062-.06-.062-.025 0-.052-.027-.06-.06-.01-.034-.037-.06-.062-.06s-.052-.03-.06-.062c-.01-.033-.038-.06-.065-.06-.027 0-.048-.02-.048-.044 0-.024-.028-.052-.06-.063-.035-.01-.062-.038-.062-.06 0-.024-.027-.05-.06-.062-.034-.01-.062-.038-.062-.062s-.02-.044-.048-.044c-.027 0-.056-.028-.064-.062-.01-.033-.036-.06-.06-.06-.026 0-.053-.028-.062-.06-.01-.035-.034-.062-.056-.062s-.048-.027-.06-.06c-.01-.034-.037-.06-.06-.06-.022 0-.05-.03-.06-.062-.01-.034-.038-.06-.06-.06s-.047-.028-.056-.062c-.008-.033-.036-.06-.06-.06-.025 0-.052-.028-.06-.06-.01-.035-.037-.062-.062-.062-.024 0-.052-.027-.06-.06-.01-.034-.037-.062-.06-.062-.026 0-.053-.027-.062-.06-.01-.034-.038-.06-.064-.06-.027 0-.05-.02-.05-.043 0-.078-.078-.08-4.786-.08h-4.692V38.38h23.911V.28H.456v19.05m58.086 0v16.313H3.128V3.017h55.414V19.33m-23.97 20.887v1.838h-7.474V38.38h7.474v1.837" stroke="null"/></g></svg>
