<svg id="SvgjsSvg1157" xmlns="http://www.w3.org/2000/svg" version="1.1" xmlns:xlink="http://www.w3.org/1999/xlink" xmlns:svgjs="http://svgjs.com/svgjs" width="60" height="51" viewBox="0 0 60 51"><title>Forma 1</title><desc>Created with Avocode.</desc><defs id="SvgjsDefs1158"><linearGradient id="SvgjsLinearGradient1161" gradientUnits="userSpaceOnUse" x1="749.3415661194954" y1="237.255" x2="712.6584338805047" y2="287.745"><stop id="SvgjsStop1162" stop-opacity="1" stop-color="#0fa0d9" offset="0"></stop><stop id="SvgjsStop1163" stop-opacity="1" stop-color="#0fa0d9" offset="0.45"></stop><stop id="SvgjsStop1164" stop-opacity="1" stop-color="#0ecebf" offset="1"></stop></linearGradient></defs><path id="SvgjsPath1159" d="M712.677 245L711.846 240H708.856C708.409 238.28 706.858 237 704.999 237C702.793 237 701 238.794 701 241C701 243.206 702.793 245 704.999 245C706.8580000000001 245 708.409 243.72 708.856 242H710.15L710.65 245H710.622L710.8439999999999 246.161V246.164L713.4019999999999 259.538L714.4459999999999 265H714.4469999999999L715.7889999999999 272.015C713.3209999999999 272.20099999999996 711.2649999999999 274.099 711.0219999999998 276.49C710.8799999999998 277.895 711.3419999999999 279.302 712.2899999999998 280.348C713.2379999999998 281.398 714.5899999999998 282 715.9959999999999 282H717.9949999999999C717.9949999999999 285.309 720.6859999999999 288 723.9939999999999 288C727.3029999999999 288 729.9929999999999 285.309 729.9929999999999 282H740.991C740.991 285.309 743.681 288 746.99 288C750.298 288 752.989 285.309 752.989 282H756.988C757.541 282 757.988 281.553 757.988 281C757.988 280.447 757.541 280 756.988 280H752.639C751.813 277.673 749.596 276 746.99 276C744.383 276 742.167 277.673 741.341 280H729.643C728.817 277.673 726.601 276 723.994 276C721.388 276 719.171 277.673 718.345 280H715.9970000000001C715.1550000000001 280 714.345 279.638 713.773 279.007C713.196 278.368 712.9250000000001 277.546 713.0120000000001 276.69100000000003C713.1640000000001 275.182 714.5580000000001 274.00100000000003 716.1850000000001 274.00100000000003H716.966C716.986 274.00100000000003 717.004 274.00100000000003 717.026 274.00100000000003L723.1529999999999 273.999L733.9929999999999 273.995V273.994L741.137 273.992L751.9899999999999 273.99V273.98900000000003L756.0129999999999 273.98800000000006C758.7639999999999 273.98800000000006 760.9999999999999 271.75100000000003 760.9999999999999 269.00100000000003V244.98800000000003ZM704.999 243C703.8960000000001 243 702.999 242.103 702.999 241C702.999 239.897 703.8960000000001 239 704.999 239C706.102 239 706.999 239.897 706.999 241C706.999 242.103 706.102 243 704.999 243ZM746.991 278C749.196 278 750.99 279.794 750.99 282C750.99 284.206 749.196 286 746.991 286C744.785 286 742.992 284.206 742.992 282C742.992 279.794 744.785 278 746.991 278ZM723.995 278C726.201 278 727.994 279.794 727.994 282C727.994 284.206 726.201 286 723.995 286C721.79 286 719.996 284.206 719.996 282C719.996 279.794 721.79 278 723.995 278ZM759.001 254H751.99V246.989L759.001 246.987ZM742.992 271.992V265.00100000000003H749.99V271.99ZM742.992 263V256H749.99V263ZM724.995 271.997V265H731.994V271.995ZM724.995 263V256H731.994V263ZM714.762 256H722.9949999999999V263H716.1019999999999ZM749.99 254H742.992V247H749.99ZM740.992 254H733.9929999999999V246.994L740.992 246.992ZM731.994 247V254H724.995V247ZM733.993 256H740.9920000000001V263H733.993ZM751.99 256H758.989V263H751.99ZM722.995 246.998V254.00099999999998H714.379L713.039 247.00099999999998ZM716.484 265H722.995V271.997L717.823 271.999ZM733.993 265H740.9920000000001V271.992L733.993 271.994ZM756.013 271.988L751.99 271.989V265H759.001V269C759.001 270.648 757.661 271.988 756.0129999999999 271.988Z " fill="#000000" fill-opacity="1" transform="matrix(1,0,0,1,-701,-237)"></path><path id="SvgjsPath1160" d="M712.677 245L711.846 240H708.856C708.409 238.28 706.858 237 704.999 237C702.793 237 701 238.794 701 241C701 243.206 702.793 245 704.999 245C706.8580000000001 245 708.409 243.72 708.856 242H710.15L710.65 245H710.622L710.8439999999999 246.161V246.164L713.4019999999999 259.538L714.4459999999999 265H714.4469999999999L715.7889999999999 272.015C713.3209999999999 272.20099999999996 711.2649999999999 274.099 711.0219999999998 276.49C710.8799999999998 277.895 711.3419999999999 279.302 712.2899999999998 280.348C713.2379999999998 281.398 714.5899999999998 282 715.9959999999999 282H717.9949999999999C717.9949999999999 285.309 720.6859999999999 288 723.9939999999999 288C727.3029999999999 288 729.9929999999999 285.309 729.9929999999999 282H740.991C740.991 285.309 743.681 288 746.99 288C750.298 288 752.989 285.309 752.989 282H756.988C757.541 282 757.988 281.553 757.988 281C757.988 280.447 757.541 280 756.988 280H752.639C751.813 277.673 749.596 276 746.99 276C744.383 276 742.167 277.673 741.341 280H729.643C728.817 277.673 726.601 276 723.994 276C721.388 276 719.171 277.673 718.345 280H715.9970000000001C715.1550000000001 280 714.345 279.638 713.773 279.007C713.196 278.368 712.9250000000001 277.546 713.0120000000001 276.69100000000003C713.1640000000001 275.182 714.5580000000001 274.00100000000003 716.1850000000001 274.00100000000003H716.966C716.986 274.00100000000003 717.004 274.00100000000003 717.026 274.00100000000003L723.1529999999999 273.999L733.9929999999999 273.995V273.994L741.137 273.992L751.9899999999999 273.99V273.98900000000003L756.0129999999999 273.98800000000006C758.7639999999999 273.98800000000006 760.9999999999999 271.75100000000003 760.9999999999999 269.00100000000003V244.98800000000003ZM704.999 243C703.8960000000001 243 702.999 242.103 702.999 241C702.999 239.897 703.8960000000001 239 704.999 239C706.102 239 706.999 239.897 706.999 241C706.999 242.103 706.102 243 704.999 243ZM746.991 278C749.196 278 750.99 279.794 750.99 282C750.99 284.206 749.196 286 746.991 286C744.785 286 742.992 284.206 742.992 282C742.992 279.794 744.785 278 746.991 278ZM723.995 278C726.201 278 727.994 279.794 727.994 282C727.994 284.206 726.201 286 723.995 286C721.79 286 719.996 284.206 719.996 282C719.996 279.794 721.79 278 723.995 278ZM759.001 254H751.99V246.989L759.001 246.987ZM742.992 271.992V265.00100000000003H749.99V271.99ZM742.992 263V256H749.99V263ZM724.995 271.997V265H731.994V271.995ZM724.995 263V256H731.994V263ZM714.762 256H722.9949999999999V263H716.1019999999999ZM749.99 254H742.992V247H749.99ZM740.992 254H733.9929999999999V246.994L740.992 246.992ZM731.994 247V254H724.995V247ZM733.993 256H740.9920000000001V263H733.993ZM751.99 256H758.989V263H751.99ZM722.995 246.998V254.00099999999998H714.379L713.039 247.00099999999998ZM716.484 265H722.995V271.997L717.823 271.999ZM733.993 265H740.9920000000001V271.992L733.993 271.994ZM756.013 271.988L751.99 271.989V265H759.001V269C759.001 270.648 757.661 271.988 756.0129999999999 271.988Z " fill="url(#SvgjsLinearGradient1161)" transform="matrix(1,0,0,1,-701,-237)"></path></svg>