<svg id="SvgjsSvg1149" xmlns="http://www.w3.org/2000/svg" version="1.1" xmlns:xlink="http://www.w3.org/1999/xlink" xmlns:svgjs="http://svgjs.com/svgjs" width="44" height="50" viewBox="0 0 44 50"><title>Forma 1</title><desc>Created with Avocode.</desc><defs id="SvgjsDefs1150"><linearGradient id="SvgjsLinearGradient1153" gradientUnits="userSpaceOnUse" x1="642.9819275681328" y1="238.25" x2="607.0180724318673" y2="287.75"><stop id="SvgjsStop1154" stop-opacity="1" stop-color="#0fa0d9" offset="0"></stop><stop id="SvgjsStop1155" stop-opacity="1" stop-color="#0fa0d9" offset="0.45"></stop><stop id="SvgjsStop1156" stop-opacity="1" stop-color="#0ecebf" offset="1"></stop></linearGradient></defs><path id="SvgjsPath1151" d="M642.17 267.24C641.721 267.24 641.281 267.3 640.86 267.41700000000003C640.339 265.34200000000004 638.434 263.79900000000004 636.17 263.79900000000004C633.507 263.79900000000004 631.3399999999999 265.93500000000006 631.3399999999999 268.56000000000006V271.98400000000004H618.66V268.56000000000006C618.66 265.93500000000006 616.4929999999999 263.79900000000004 613.8299999999999 263.79900000000004C611.5659999999999 263.79900000000004 609.661 265.34200000000004 609.1399999999999 267.41700000000003C608.7189999999998 267.3 608.2789999999999 267.24 607.8299999999999 267.24C605.1669999999999 267.24 602.9999999999999 269.375 602.9999999999999 272.00100000000003V279.79900000000004C602.9999999999999 282.42400000000004 605.1669999999999 284.559 607.8299999999999 284.559C608.2789999999999 284.559 608.7189999999999 284.499 609.1399999999999 284.382C609.6609999999998 286.457 611.5659999999999 288 613.8299999999999 288C616.4929999999999 288 618.66 285.864 618.66 283.239V279.815H631.3399999999999V283.239C631.3399999999999 285.864 633.507 288 636.17 288C638.434 288 640.3389999999999 286.457 640.86 284.382C641.2810000000001 284.499 641.72 284.559 642.169 284.559C644.833 284.559 647 282.42400000000004 647 279.79900000000004V272.00100000000003C647 269.37500000000006 644.833 267.24 642.17 267.24ZM609 282.103C608.639 282.284 608.242 282.377 607.83 282.377C606.388 282.377 605.214 281.22 605.214 279.79900000000004V272.00100000000003C605.214 270.579 606.388 269.422 607.83 269.422C608.2420000000001 269.422 608.639 269.51500000000004 609 269.696ZM613.83 285.818C612.3870000000001 285.818 611.214 284.661 611.214 283.239V282.707C611.214 282.7 611.214 282.693 611.214 282.686V269.113C611.214 269.106 611.214 269.099 611.214 269.092V268.56C611.214 267.138 612.3870000000001 265.981 613.83 265.981C615.273 265.981 616.446 267.138 616.446 268.56V283.239C616.446 284.661 615.273 285.818 613.83 285.818ZM631.34 277.633H618.6600000000001V274.167H631.34ZM638.786 269.114V282.685C638.786 282.693 638.786 282.7 638.786 282.707V283.239C638.786 284.661 637.6129999999999 285.818 636.17 285.818C634.727 285.818 633.554 284.661 633.554 283.239V268.56C633.554 267.138 634.727 265.981 636.17 265.981C637.6129999999999 265.981 638.786 267.138 638.786 268.56V269.092C638.786 269.099 638.786 269.10699999999997 638.786 269.114ZM642.17 282.377C641.7579999999999 282.377 641.361 282.284 641 282.103V269.696C641.361 269.51500000000004 641.758 269.422 642.17 269.422C643.6129999999999 269.422 644.786 270.57800000000003 644.786 272V279.799C644.786 281.21999999999997 643.612 282.37699999999995 642.17 282.37699999999995ZM617.991 253.273H615.994C615.383 253.273 614.8870000000001 253.762 614.8870000000001 254.364C614.8870000000001 254.967 615.383 255.455 615.994 255.455H617.991C618.603 255.455 619.098 254.967 619.098 254.364C619.098 253.762 618.603 253.273 617.991 253.273ZM617.991 256.79H615.994C615.383 256.79 614.8870000000001 257.278 614.8870000000001 257.88100000000003C614.8870000000001 258.483 615.383 258.97200000000004 615.994 258.97200000000004H617.991C618.603 258.97200000000004 619.098 258.48300000000006 619.098 257.88100000000003C619.098 257.278 618.603 256.79 617.991 256.79ZM609.546 262.697C610.158 262.697 610.653 262.209 610.653 261.606V259.162C612.113 258.318 613.051 256.74899999999997 613.051 255.04899999999998C613.051 253.349 612.113 251.77999999999997 610.653 250.93699999999998V250.856C610.653 249.434 611.827 248.277 613.269 248.277H620.716C622.004 248.277 623.078 249.19899999999998 623.293 250.408C621.704 251.946 620.515 254.434 620.515 256.324C620.515 258.63100000000003 621.806 260.04900000000004 623.333 260.50600000000003V268.684C623.333 269.286 623.828 269.77500000000003 624.4399999999999 269.77500000000003C625.0509999999999 269.77500000000003 625.5469999999999 269.28600000000006 625.5469999999999 268.684V260.50600000000003C627.0729999999999 260.04900000000004 628.3649999999999 258.63100000000003 628.3649999999999 256.324C628.3649999999999 254.407 627.1419999999999 251.876 625.5189999999999 250.34400000000002C625.3019999999999 248.35600000000002 623.8399999999999 246.73100000000002 621.9179999999999 246.24400000000003V242.92000000000002C621.9179999999999 242.318 621.4229999999999 241.829 620.8109999999999 241.829H620.2339999999999V239.091C620.2339999999999 238.488 619.7379999999999 238 619.127 238H614.858C614.247 238 613.752 238.488 613.752 239.091V241.829H613.174C612.563 241.829 612.067 242.318 612.067 242.92000000000002V246.24400000000003C609.984 246.77200000000002 608.439 248.64000000000001 608.439 250.85600000000002V251.61900000000003C608.439 252.07200000000003 608.723 252.47700000000003 609.1519999999999 252.63900000000004C610.16 253.01700000000002 610.8369999999999 253.98600000000005 610.8369999999999 255.04900000000004C610.8369999999999 256.11300000000006 610.1599999999999 257.08200000000005 609.1519999999999 257.46000000000004C608.723 257.62100000000004 608.439 258.02700000000004 608.439 258.47900000000004V261.60600000000005C608.439 262.20900000000006 608.935 262.69700000000006 609.5459999999999 262.69700000000006ZM624.44 252.399C625.407 253.54 626.1510000000001 255.179 626.1510000000001 256.324C626.1510000000001 257.81800000000004 625.291 258.487 624.44 258.487C623.5880000000001 258.487 622.7280000000001 257.81800000000004 622.7280000000001 256.324C622.729 255.179 623.4710000000001 253.54000000000002 624.44 252.399ZM615.965 240.182H618.02V241.82899999999998H615.965ZM614.281 244.011H619.704V246.095H614.281ZM637.552 268.639V269.06C637.552 269.663 637.057 270.151 636.445 270.151C635.8340000000001 270.151 635.3380000000001 269.663 635.3380000000001 269.06V268.639C635.3380000000001 268.03700000000003 635.8340000000001 267.548 636.445 267.548C637.057 267.548 637.552 268.037 637.552 268.639Z " fill="#000000" fill-opacity="1" transform="matrix(1,0,0,1,-603,-238)"></path><path id="SvgjsPath1152" d="M642.17 267.24C641.721 267.24 641.281 267.3 640.86 267.41700000000003C640.339 265.34200000000004 638.434 263.79900000000004 636.17 263.79900000000004C633.507 263.79900000000004 631.3399999999999 265.93500000000006 631.3399999999999 268.56000000000006V271.98400000000004H618.66V268.56000000000006C618.66 265.93500000000006 616.4929999999999 263.79900000000004 613.8299999999999 263.79900000000004C611.5659999999999 263.79900000000004 609.661 265.34200000000004 609.1399999999999 267.41700000000003C608.7189999999998 267.3 608.2789999999999 267.24 607.8299999999999 267.24C605.1669999999999 267.24 602.9999999999999 269.375 602.9999999999999 272.00100000000003V279.79900000000004C602.9999999999999 282.42400000000004 605.1669999999999 284.559 607.8299999999999 284.559C608.2789999999999 284.559 608.7189999999999 284.499 609.1399999999999 284.382C609.6609999999998 286.457 611.5659999999999 288 613.8299999999999 288C616.4929999999999 288 618.66 285.864 618.66 283.239V279.815H631.3399999999999V283.239C631.3399999999999 285.864 633.507 288 636.17 288C638.434 288 640.3389999999999 286.457 640.86 284.382C641.2810000000001 284.499 641.72 284.559 642.169 284.559C644.833 284.559 647 282.42400000000004 647 279.79900000000004V272.00100000000003C647 269.37500000000006 644.833 267.24 642.17 267.24ZM609 282.103C608.639 282.284 608.242 282.377 607.83 282.377C606.388 282.377 605.214 281.22 605.214 279.79900000000004V272.00100000000003C605.214 270.579 606.388 269.422 607.83 269.422C608.2420000000001 269.422 608.639 269.51500000000004 609 269.696ZM613.83 285.818C612.3870000000001 285.818 611.214 284.661 611.214 283.239V282.707C611.214 282.7 611.214 282.693 611.214 282.686V269.113C611.214 269.106 611.214 269.099 611.214 269.092V268.56C611.214 267.138 612.3870000000001 265.981 613.83 265.981C615.273 265.981 616.446 267.138 616.446 268.56V283.239C616.446 284.661 615.273 285.818 613.83 285.818ZM631.34 277.633H618.6600000000001V274.167H631.34ZM638.786 269.114V282.685C638.786 282.693 638.786 282.7 638.786 282.707V283.239C638.786 284.661 637.6129999999999 285.818 636.17 285.818C634.727 285.818 633.554 284.661 633.554 283.239V268.56C633.554 267.138 634.727 265.981 636.17 265.981C637.6129999999999 265.981 638.786 267.138 638.786 268.56V269.092C638.786 269.099 638.786 269.10699999999997 638.786 269.114ZM642.17 282.377C641.7579999999999 282.377 641.361 282.284 641 282.103V269.696C641.361 269.51500000000004 641.758 269.422 642.17 269.422C643.6129999999999 269.422 644.786 270.57800000000003 644.786 272V279.799C644.786 281.21999999999997 643.612 282.37699999999995 642.17 282.37699999999995ZM617.991 253.273H615.994C615.383 253.273 614.8870000000001 253.762 614.8870000000001 254.364C614.8870000000001 254.967 615.383 255.455 615.994 255.455H617.991C618.603 255.455 619.098 254.967 619.098 254.364C619.098 253.762 618.603 253.273 617.991 253.273ZM617.991 256.79H615.994C615.383 256.79 614.8870000000001 257.278 614.8870000000001 257.88100000000003C614.8870000000001 258.483 615.383 258.97200000000004 615.994 258.97200000000004H617.991C618.603 258.97200000000004 619.098 258.48300000000006 619.098 257.88100000000003C619.098 257.278 618.603 256.79 617.991 256.79ZM609.546 262.697C610.158 262.697 610.653 262.209 610.653 261.606V259.162C612.113 258.318 613.051 256.74899999999997 613.051 255.04899999999998C613.051 253.349 612.113 251.77999999999997 610.653 250.93699999999998V250.856C610.653 249.434 611.827 248.277 613.269 248.277H620.716C622.004 248.277 623.078 249.19899999999998 623.293 250.408C621.704 251.946 620.515 254.434 620.515 256.324C620.515 258.63100000000003 621.806 260.04900000000004 623.333 260.50600000000003V268.684C623.333 269.286 623.828 269.77500000000003 624.4399999999999 269.77500000000003C625.0509999999999 269.77500000000003 625.5469999999999 269.28600000000006 625.5469999999999 268.684V260.50600000000003C627.0729999999999 260.04900000000004 628.3649999999999 258.63100000000003 628.3649999999999 256.324C628.3649999999999 254.407 627.1419999999999 251.876 625.5189999999999 250.34400000000002C625.3019999999999 248.35600000000002 623.8399999999999 246.73100000000002 621.9179999999999 246.24400000000003V242.92000000000002C621.9179999999999 242.318 621.4229999999999 241.829 620.8109999999999 241.829H620.2339999999999V239.091C620.2339999999999 238.488 619.7379999999999 238 619.127 238H614.858C614.247 238 613.752 238.488 613.752 239.091V241.829H613.174C612.563 241.829 612.067 242.318 612.067 242.92000000000002V246.24400000000003C609.984 246.77200000000002 608.439 248.64000000000001 608.439 250.85600000000002V251.61900000000003C608.439 252.07200000000003 608.723 252.47700000000003 609.1519999999999 252.63900000000004C610.16 253.01700000000002 610.8369999999999 253.98600000000005 610.8369999999999 255.04900000000004C610.8369999999999 256.11300000000006 610.1599999999999 257.08200000000005 609.1519999999999 257.46000000000004C608.723 257.62100000000004 608.439 258.02700000000004 608.439 258.47900000000004V261.60600000000005C608.439 262.20900000000006 608.935 262.69700000000006 609.5459999999999 262.69700000000006ZM624.44 252.399C625.407 253.54 626.1510000000001 255.179 626.1510000000001 256.324C626.1510000000001 257.81800000000004 625.291 258.487 624.44 258.487C623.5880000000001 258.487 622.7280000000001 257.81800000000004 622.7280000000001 256.324C622.729 255.179 623.4710000000001 253.54000000000002 624.44 252.399ZM615.965 240.182H618.02V241.82899999999998H615.965ZM614.281 244.011H619.704V246.095H614.281ZM637.552 268.639V269.06C637.552 269.663 637.057 270.151 636.445 270.151C635.8340000000001 270.151 635.3380000000001 269.663 635.3380000000001 269.06V268.639C635.3380000000001 268.03700000000003 635.8340000000001 267.548 636.445 267.548C637.057 267.548 637.552 268.037 637.552 268.639Z " fill="url(#SvgjsLinearGradient1153)" transform="matrix(1,0,0,1,-603,-238)"></path></svg>