<svg id="SvgjsSvg1165" xmlns="http://www.w3.org/2000/svg" version="1.1" xmlns:xlink="http://www.w3.org/1999/xlink" xmlns:svgjs="http://svgjs.com/svgjs" width="44" height="51" viewBox="0 0 44 51"><title>Shape 1</title><desc>Created with Avocode.</desc><defs id="SvgjsDefs1166"><linearGradient id="SvgjsLinearGradient1169" gradientUnits="userSpaceOnUse" x1="860.981704562032" y1="237.24875469761105" x2="825.017173648956" y2="286.7496848245954"><stop id="SvgjsStop1170" stop-opacity="1" stop-color="#0fa0d9" offset="0"></stop><stop id="SvgjsStop1171" stop-opacity="1" stop-color="#0fa0d9" offset="0.45"></stop><stop id="SvgjsStop1172" stop-opacity="1" stop-color="#0ecebf" offset="1"></stop></linearGradient></defs><path id="SvgjsPath1167" d="M862.171 275.566H862.192V275.55499999999995C863.451 273.10099999999994 863.103 269.94699999999995 861.259 268.0559999999999C860.143 266.9079999999999 858.617 266.25999999999993 857.029 266.25999999999993H856.999C855.4110000000001 266.25999999999993 853.895 266.89699999999993 852.779 268.04599999999994L841.758 278.06199999999995C840.038 279.84799999999996 838.061 280.78799999999995 836.0540000000001 280.78799999999995C834.138 280.78799999999995 832.2850000000001 279.90999999999997 830.6870000000001 278.25999999999993C829.3960000000001 276.9239999999999 828.4640000000002 273.0589999999999 828.2180000000001 270.13499999999993C833.7590000000001 273.8949999999999 841.1340000000001 273.1529999999999 845.835 268.34899999999993L855.36 258.6359999999999C857.337 256.6199999999999 857.337 253.3509999999999 855.36 251.3249999999999L855.299 251.2629999999999C856.2819999999999 249.7689999999999 855.831 247.7219999999999 854.285 246.80299999999988C852.9639999999999 246.0199999999999 851.233 246.3639999999999 850.3009999999999 247.60699999999989C849.2149999999999 249.05899999999988 849.5629999999999 251.11599999999987 851.0279999999999 252.1189999999999C851.5299999999999 252.46399999999988 852.1239999999999 252.6509999999999 852.7379999999999 252.6509999999999C853.035 252.6509999999999 853.332 252.5989999999999 853.6189999999999 252.5049999999999L853.906 252.79799999999992C855.084 253.9989999999999 855.084 255.9519999999999 853.906 257.1529999999999L844.381 266.86599999999993C842.732 268.55799999999994 840.632 269.70699999999994 838.348 270.1769999999999C838.317 269.9989999999999 838.2349999999999 269.8429999999999 838.122 269.7069999999999L824.7969999999999 255.0959999999999C824.7149999999999 255.0119999999999 824.6229999999999 254.9489999999999 824.521 254.89699999999988C825.074 252.93399999999988 826.108 251.14799999999988 827.5319999999999 249.69599999999988L837.0569999999999 239.9829999999999C838.1939999999998 238.8239999999999 840.1809999999999 238.8239999999999 841.3279999999999 239.9829999999999L841.6149999999999 240.2749999999999C841.1239999999999 241.9259999999999 842.0449999999998 243.6699999999999 843.6639999999999 244.17099999999988C844.7489999999999 244.50499999999988 845.9169999999999 244.20199999999988 846.7159999999999 243.3879999999999C847.9139999999999 242.1549999999999 847.9039999999999 240.17099999999988 846.7049999999999 238.9589999999999C845.6709999999999 237.91499999999988 844.0529999999999 237.74799999999988 842.834 238.5729999999999L842.7719999999999 238.5099999999999C840.7959999999999 236.49499999999992 837.5899999999999 236.49499999999992 835.603 238.5099999999999L826.078 248.2229999999999C820.639 253.7689999999999 820.639 262.8029999999999 826.078 268.3589999999999L826.088 268.36999999999995C826.0269999999999 271.24199999999996 827.01 277.44599999999997 829.222 279.73299999999995C831.209 281.78999999999996 833.5749999999999 282.88699999999994 836.054 282.88699999999994C838.624 282.88699999999994 841.103 281.72799999999995 843.172 279.58699999999993L854.203 269.5709999999999C854.9399999999999 268.7979999999999 855.954 268.3589999999999 857.009 268.3589999999999C858.054 268.3589999999999 859.058 268.7879999999999 859.795 269.5499999999999C860.942 270.7299999999999 861.208 272.6829999999999 860.5319999999999 274.2919999999999C857.2239999999999 272.4529999999999 853.0559999999999 273.7899999999999 851.396 277.28899999999993C849.911 280.4119999999999 851.0169999999999 284.22399999999993 853.9259999999999 286.0199999999999C857.1829999999999 288.0249999999999 861.3929999999999 286.8449999999999 863.1949999999999 283.4609999999999C864.568 280.8819999999999 864.1579999999999 277.6859999999999 862.1709999999999 275.5659999999999ZM853.445 250.302C853.056 250.709 852.4100000000001 250.709 852.0010000000001 250.302C851.6010000000001 249.894 851.6010000000001 249.237 852.0010000000001 248.82899999999998C852.4000000000001 248.42199999999997 853.0450000000001 248.42199999999997 853.445 248.82899999999998C853.844 249.23699999999997 853.844 249.89399999999998 853.445 250.302ZM843.817 240.474C844.002 240.27499999999998 844.268 240.171 844.534 240.171C845.098 240.171 845.558 240.641 845.558 241.215C845.558 241.487 845.446 241.758 845.261 241.947C844.862 242.354 844.217 242.354 843.817 241.947C843.418 241.53900000000002 843.418 240.881 843.817 240.474ZM824.06 258.333C824.06 258.02000000000004 824.0799999999999 257.70700000000005 824.101 257.40400000000005L835.961 270.43800000000005H835.951C829.386 270.43800000000005 824.07 265.01700000000005 824.0600000000001 258.333ZM860.706 283.587C860.686 283.608 860.676 283.618 860.666 283.62899999999996C858.863 285.467 855.9440000000001 285.467 854.152 283.62899999999996C852.359 281.78999999999996 852.349 278.81399999999996 854.152 276.986C855.9540000000001 275.14799999999997 858.873 275.14799999999997 860.666 276.986C862.4680000000001 278.803 862.489 281.759 860.706 283.587Z " fill="#000000" fill-opacity="1" transform="matrix(1,0,0,1,-821,-236)"></path><path id="SvgjsPath1168" d="M862.171 275.566H862.192V275.55499999999995C863.451 273.10099999999994 863.103 269.94699999999995 861.259 268.0559999999999C860.143 266.9079999999999 858.617 266.25999999999993 857.029 266.25999999999993H856.999C855.4110000000001 266.25999999999993 853.895 266.89699999999993 852.779 268.04599999999994L841.758 278.06199999999995C840.038 279.84799999999996 838.061 280.78799999999995 836.0540000000001 280.78799999999995C834.138 280.78799999999995 832.2850000000001 279.90999999999997 830.6870000000001 278.25999999999993C829.3960000000001 276.9239999999999 828.4640000000002 273.0589999999999 828.2180000000001 270.13499999999993C833.7590000000001 273.8949999999999 841.1340000000001 273.1529999999999 845.835 268.34899999999993L855.36 258.6359999999999C857.337 256.6199999999999 857.337 253.3509999999999 855.36 251.3249999999999L855.299 251.2629999999999C856.2819999999999 249.7689999999999 855.831 247.7219999999999 854.285 246.80299999999988C852.9639999999999 246.0199999999999 851.233 246.3639999999999 850.3009999999999 247.60699999999989C849.2149999999999 249.05899999999988 849.5629999999999 251.11599999999987 851.0279999999999 252.1189999999999C851.5299999999999 252.46399999999988 852.1239999999999 252.6509999999999 852.7379999999999 252.6509999999999C853.035 252.6509999999999 853.332 252.5989999999999 853.6189999999999 252.5049999999999L853.906 252.79799999999992C855.084 253.9989999999999 855.084 255.9519999999999 853.906 257.1529999999999L844.381 266.86599999999993C842.732 268.55799999999994 840.632 269.70699999999994 838.348 270.1769999999999C838.317 269.9989999999999 838.2349999999999 269.8429999999999 838.122 269.7069999999999L824.7969999999999 255.0959999999999C824.7149999999999 255.0119999999999 824.6229999999999 254.9489999999999 824.521 254.89699999999988C825.074 252.93399999999988 826.108 251.14799999999988 827.5319999999999 249.69599999999988L837.0569999999999 239.9829999999999C838.1939999999998 238.8239999999999 840.1809999999999 238.8239999999999 841.3279999999999 239.9829999999999L841.6149999999999 240.2749999999999C841.1239999999999 241.9259999999999 842.0449999999998 243.6699999999999 843.6639999999999 244.17099999999988C844.7489999999999 244.50499999999988 845.9169999999999 244.20199999999988 846.7159999999999 243.3879999999999C847.9139999999999 242.1549999999999 847.9039999999999 240.17099999999988 846.7049999999999 238.9589999999999C845.6709999999999 237.91499999999988 844.0529999999999 237.74799999999988 842.834 238.5729999999999L842.7719999999999 238.5099999999999C840.7959999999999 236.49499999999992 837.5899999999999 236.49499999999992 835.603 238.5099999999999L826.078 248.2229999999999C820.639 253.7689999999999 820.639 262.8029999999999 826.078 268.3589999999999L826.088 268.36999999999995C826.0269999999999 271.24199999999996 827.01 277.44599999999997 829.222 279.73299999999995C831.209 281.78999999999996 833.5749999999999 282.88699999999994 836.054 282.88699999999994C838.624 282.88699999999994 841.103 281.72799999999995 843.172 279.58699999999993L854.203 269.5709999999999C854.9399999999999 268.7979999999999 855.954 268.3589999999999 857.009 268.3589999999999C858.054 268.3589999999999 859.058 268.7879999999999 859.795 269.5499999999999C860.942 270.7299999999999 861.208 272.6829999999999 860.5319999999999 274.2919999999999C857.2239999999999 272.4529999999999 853.0559999999999 273.7899999999999 851.396 277.28899999999993C849.911 280.4119999999999 851.0169999999999 284.22399999999993 853.9259999999999 286.0199999999999C857.1829999999999 288.0249999999999 861.3929999999999 286.8449999999999 863.1949999999999 283.4609999999999C864.568 280.8819999999999 864.1579999999999 277.6859999999999 862.1709999999999 275.5659999999999ZM853.445 250.302C853.056 250.709 852.4100000000001 250.709 852.0010000000001 250.302C851.6010000000001 249.894 851.6010000000001 249.237 852.0010000000001 248.82899999999998C852.4000000000001 248.42199999999997 853.0450000000001 248.42199999999997 853.445 248.82899999999998C853.844 249.23699999999997 853.844 249.89399999999998 853.445 250.302ZM843.817 240.474C844.002 240.27499999999998 844.268 240.171 844.534 240.171C845.098 240.171 845.558 240.641 845.558 241.215C845.558 241.487 845.446 241.758 845.261 241.947C844.862 242.354 844.217 242.354 843.817 241.947C843.418 241.53900000000002 843.418 240.881 843.817 240.474ZM824.06 258.333C824.06 258.02000000000004 824.0799999999999 257.70700000000005 824.101 257.40400000000005L835.961 270.43800000000005H835.951C829.386 270.43800000000005 824.07 265.01700000000005 824.0600000000001 258.333ZM860.706 283.587C860.686 283.608 860.676 283.618 860.666 283.62899999999996C858.863 285.467 855.9440000000001 285.467 854.152 283.62899999999996C852.359 281.78999999999996 852.349 278.81399999999996 854.152 276.986C855.9540000000001 275.14799999999997 858.873 275.14799999999997 860.666 276.986C862.4680000000001 278.803 862.489 281.759 860.706 283.587Z " fill="url(#SvgjsLinearGradient1169)" transform="matrix(1,0,0,1,-821,-236)"></path></svg>