<svg width="55" height="55" xmlns="http://www.w3.org/2000/svg"><g><path fill-rule="evenodd" d="M10.48.04c0 .032-.032.042-.134.042-.183 0-.22.02-.22.11 0 .078-.003.08-.186.087l-.184.007-.01.088c-.006.076-.02.088-.095.095-.075.008-.087.02-.095.098-.007.077-.018.09-.086.09-.08 0-.11.04-.11.138 0 .04-.02.052-.083.052-.072 0-.082.01-.082.078 0 .065-.016.083-.09.104-.086.025-.088.03-.096.196-.01.155-.015.17-.07.17-.108 0-.13.05-.13.306 0 .237 0 .24-.065.24-.037 0-.077.016-.09.035-.01.02-.028 3.445-.035 7.613l-.014 7.58-.068.015c-.05.012-.07.037-.077.09-.007.065-.02.074-.102.074-.09 0-.094.004-.094.095 0 .09-.004.096-.096.096-.087 0-.095.008-.095.08 0 .08-.074.11-.277.112-.058 0-.075.016-.088.08-.013.063-.033.083-.093.09-.064.007-.077.023-.085.097-.007.08-.016.088-.102.088-.09 0-.094.005-.094.096v.096H7.2c-.185 0-.222.018-.222.112 0 .072-.008.08-.096.08-.087 0-.096.006-.096.078 0 .07-.012.082-.095.097-.082.016-.095.03-.095.097 0 .07-.01.08-.09.088-.077.008-.09.02-.096.096-.01.076-.02.088-.097.096-.076.007-.09.02-.096.096-.007.076-.02.088-.096.095-.075.008-.087.02-.095.098-.007.078-.018.09-.09.09-.07 0-.08.008-.08.08 0 .07-.01.08-.088.088-.078.008-.09.02-.097.097-.008.076-.02.088-.096.096-.076.007-.088.02-.096.095-.007.076-.02.09-.096.096-.076.008-.088.02-.096.098-.007.077-.018.09-.087.09-.066 0-.08.01-.088.072-.007.057-.028.08-.097.097-.075.02-.09.036-.09.103 0 .07-.01.08-.088.088-.078.01-.09.02-.098.097-.008.076-.02.09-.096.096-.077.007-.09.02-.096.097-.008.078-.02.09-.088.09-.068 0-.08.012-.097.094-.014.076-.032.095-.09.102-.07.008-.073.017-.08.18l-.01.17H4.09c-.09 0-.095.005-.095.096 0 .092-.004.096-.095.096-.092 0-.096.005-.096.096 0 .087-.007.096-.08.096-.08 0-.112.04-.112.137 0 .035-.023.053-.075.06-.07.008-.077.02-.1.18-.023.163-.027.17-.102.17-.07 0-.08.01-.08.096 0 .083-.007.096-.066.096-.087 0-.125.07-.125.23 0 .104-.008.124-.053.124-.098 0-.14.032-.14.11 0 .06-.016.083-.08.105-.073.024-.08.04-.098.19-.018.153-.025.167-.09.174-.07.008-.073.018-.08.178-.01.17-.01.17-.097.178l-.087.008-.008.185-.008.185H2.23c-.09 0-.096.005-.096.096 0 .083-.008.095-.066.095-.085 0-.098.022-.117.204-.013.13-.023.15-.09.175-.068.022-.077.042-.095.192-.015.13-.03.166-.066.166-.09 0-.113.06-.113.305v.24l-.09.008-.088.01-.01.182-.007.183-.088.01-.087.007-.008.266-.008.265-.088.008-.088.01-.008.183c-.008.176-.01.183-.082.19l-.074.01-.008.267c-.007.256-.01.266-.07.266-.113 0-.127.046-.127.4v.336l-.09.008-.088.01-.01.36-.006.36-.09.01-.087.008-.007.36-.008.358-.077.016c-.095.02-.113.138-.113.734 0 .32-.006.38-.04.38-.037 0-.042.315-.042 2.68 0 2.366.005 2.682.04 2.682.036 0 .042.07.042.476 0 .598.01.646.113.646h.08v.422c0 .487.004.51.11.51h.08v.335c0 .357.015.403.13.403.06 0 .062.006.062.273v.274h.189l.008.28.008.28.075.01c.075.008.076.01.076.22 0 .288.015.332.112.332h.08v.202c0 .26.03.344.122.344.066 0 .07.006.07.175 0 .183.016.21.138.21.046 0 .052.02.052.174 0 .172 0 .175.082.19.07.015.08.03.08.11 0 .2.03.264.114.264.078 0 .08.002.08.16 0 .17.03.223.126.223.057 0 .063.016.07.172.008.17.008.17.096.18.087.008.088.01.096.178.007.165.01.17.097.195.084.025.088.032.088.166 0 .147.032.206.115.206.03 0 .05.02.05.052 0 .1.03.14.11.14.075 0 .08.007.08.107 0 .165.042.248.123.248.06 0 .07.012.07.096 0 .09.003.095.095.095h.096v.165c0 .163.002.167.094.205.07.03.096.06.103.115.007.06.025.078.084.084.062.008.075.022.075.086 0 .08.04.11.14.11.044 0 .052.02.052.136 0 .183.02.22.11.22.068 0 .08.012.086.09.008.078.02.09.096.097.076.007.09.02.096.096.007.07.022.088.082.095.057.006.076.025.082.082.007.06.024.075.098.082.08.007.09.016.09.098 0 .19.028.264.11.28.058.012.08.033.085.088.006.054.03.078.097.098.07.02.09.04.09.1 0 .062.013.075.094.09.085.017.097.03.097.1s.01.08.082.08c.062 0 .08.013.08.053 0 .1.033.14.112.14.067 0 .08.01.086.088.008.078.02.09.096.097.076.008.088.02.096.096.007.076.02.09.097.096.078.007.09.02.09.087 0 .066.012.08.074.088.06.007.08.026.09.09l.015.083h.546l.015-.08c.01-.066.03-.085.09-.092.06-.007.074-.022.074-.087 0-.067.01-.08.088-.086.078-.007.09-.02.097-.096.008-.076.02-.088.096-.096.077-.007.09-.02.097-.095.007-.077.02-.09.096-.096.076-.007.088-.02.096-.097.006-.077.017-.09.085-.09.064 0 .082-.013.096-.078.014-.06.038-.082.1-.095.066-.013.08-.03.08-.097 0-.07.01-.082.088-.09.078-.007.09-.02.098-.095.007-.076.02-.09.096-.096.076-.007.088-.02.095-.096.008-.076.02-.088.096-.096.077-.007.09-.02.096-.097.007-.078.017-.09.088-.09.07 0 .08-.01.08-.078 0-.07.01-.08.096-.09l.096-.012v3.272c0 3.522-.004 3.39.113 3.413l.08.016v.237c0 .254.02.304.126.304.055 0 .06.015.07.17.007.166.01.17.096.196.073.02.09.04.09.103 0 .07.01.078.08.078.063 0 .083.014.083.054 0 .1.03.14.11.14.067 0 .078.01.085.088.008.078.02.09.096.097.077.007.09.02.097.095l.01.087.183.01c.183.007.185.007.185.085 0 .092.038.11.22.11.103 0 .136.01.136.042 0 .035 1.895.04 16.885.04 14.99 0 16.884-.005 16.884-.04 0-.032.032-.042.134-.042.183 0 .22-.02.22-.11 0-.08.003-.08.185-.087l.184-.008.01-.087c.006-.076.018-.088.094-.096.077-.008.09-.02.096-.098.008-.077.02-.09.086-.09.08 0 .11-.04.11-.138 0-.04.02-.053.083-.053.072 0 .082-.008.082-.077 0-.064.016-.082.09-.103.086-.025.088-.03.096-.196.01-.155.015-.17.07-.17.107 0 .128-.05.128-.303v-.236l.08-.016c.05-.01.083-.037.094-.08.01-.033.017-5.87.017-12.97V26.822l.075-.007c.063-.008.077-.024.084-.098.007-.08.015-.09.102-.09.09 0 .094-.004.094-.095 0-.09.004-.096.095-.096.093 0 .097-.004.097-.095 0-.093.005-.097.096-.097.088 0 .096-.007.096-.08 0-.07.012-.086.088-.106.068-.017.09-.04.097-.094.007-.056.026-.074.082-.08.06-.008.075-.025.082-.098.007-.082.016-.09.102-.09.09 0 .094-.004.094-.095 0-.09.005-.096.096-.096.09 0 .096-.005.096-.094 0-.086.007-.095.088-.103.074-.007.09-.02.098-.082.006-.056.025-.075.08-.082.056-.006.078-.03.095-.097.02-.076.035-.09.104-.09.074 0 .08-.007.08-.095 0-.09.005-.095.097-.095s.096-.004.096-.096.005-.096.096-.096c.09 0 .096-.005.096-.094 0-.087.007-.095.09-.103.072-.007.09-.02.096-.082.007-.057.025-.076.082-.082.06-.007.076-.024.083-.098.006-.08.015-.09.1-.09.09 0 .095-.004.095-.094s.005-.095.096-.095c.092 0 .097-.005.097-.094 0-.085.007-.094.09-.102.072-.007.09-.02.096-.082.007-.056.025-.076.08-.082.056-.007.078-.03.096-.098.018-.075.034-.088.103-.088.075 0 .08-.008.08-.096 0-.092.006-.096.097-.096.09 0 .096-.005.096-.096 0-.09.004-.096.095-.096.092 0 .097-.004.097-.094 0-.086.008-.094.09-.102.073-.007.09-.022.097-.082.006-.057.025-.076.082-.083.06-.007.075-.023.082-.097.008-.08.016-.09.103-.09.09 0 .095-.004.095-.095 0-.09.004-.094.095-.094.09 0 .096-.005.096-.094 0-.087.008-.095.09-.103.072-.008.09-.023.096-.082.007-.054.028-.076.087-.088.058-.012.08-.035.095-.098.016-.07.032-.084.098-.084.074 0 .08-.008.08-.096 0-.09.005-.095.096-.095.09 0 .095-.005.095-.096 0-.09.004-.095.096-.095s.096-.005.096-.094c0-.085.008-.094.09-.1.073-.01.09-.023.097-.084.006-.057.025-.075.082-.082.06-.007.075-.024.082-.097.008-.082.017-.09.103-.09.09 0 .094-.004.094-.095 0-.09.004-.096.096-.096.09 0 .095-.004.095-.095 0-.09.005-.095.096-.095.088 0 .097-.007.097-.08 0-.065.014-.08.083-.094.064-.012.086-.034.1-.098.013-.07.028-.083.094-.083.072 0 .08-.01.08-.097 0-.09.003-.096.094-.096.092 0 .096-.004.096-.095 0-.092.005-.096.096-.096.09 0 .096-.005.096-.094 0-.086.007-.095.09-.103.072-.008.09-.022.096-.083.007-.057.025-.075.082-.082.06-.007.075-.024.082-.097.008-.082.017-.09.103-.09.088 0 .093-.005.093-.093 0-.087.008-.095.09-.103.088-.01.088-.01.096-.18l.007-.17.095-.016.094-.018v-.175c0-.174 0-.175.08-.175.09 0 .11-.047.11-.253.002-.097.012-.13.043-.13.035 0 .04-.16.04-1.286 0-1.126-.005-1.287-.04-1.287-.032 0-.042-.033-.043-.13 0-.31-.028-.413-.112-.432-.07-.015-.08-.027-.08-.13 0-.19-.022-.238-.11-.238-.073 0-.08-.008-.08-.095 0-.09-.005-.096-.095-.096h-.094l-.008-.17c-.01-.164-.01-.168-.098-.19-.075-.02-.09-.036-.09-.105 0-.072-.008-.08-.078-.08-.068 0-.08-.014-.097-.097-.015-.083-.028-.096-.097-.096-.07 0-.08-.01-.087-.09-.007-.076-.02-.09-.094-.096-.07-.007-.09-.023-.1-.088-.016-.074-.028-.08-.184-.098-.154-.017-.168-.024-.182-.094-.016-.08-.086-.11-.272-.11-.085 0-.093-.006-.093-.08v-.083h-.383v-.191h-.735l-.01-.09-.007-.088-.695-.008c-.736-.007-.77-.002-.77.12 0 .064-.002.064-.362.072l-.363.007-.008.09-.01.088h-.238c-.246 0-.305.022-.305.115 0 .03-.02.05-.053.05-.1 0-.14.03-.14.112 0 .077-.003.08-.143.08-.17 0-.203.017-.216.108-.008.055-.027.07-.098.077-.082.008-.09.017-.09.103 0 .09-.004.094-.095.094-.09 0-.096.004-.096.096 0 .09-.005.096-.097.096-.088 0-.095.006-.095.082 0 .062-.013.082-.053.082-.1 0-.14.032-.14.112 0 .07-.01.08-.08.08s-.083.01-.1.095c-.014.083-.027.096-.096.096-.073 0-.08.01-.08.097 0 .09-.004.095-.096.095-.087 0-.095.007-.095.08 0 .068-.014.08-.097.096-.084.016-.096.03-.096.1s-.01.08-.08.08c-.08 0-.11.04-.11.14 0 .04-.02.052-.084.052-.075 0-.082.007-.082.095 0 .092-.003.096-.094.096h-.096V8.518c0-6.865.005-6.542-.113-6.565l-.08-.016V1.7c0-.254-.02-.304-.126-.304-.055 0-.06-.015-.07-.17-.007-.166-.01-.17-.096-.196-.074-.02-.09-.04-.09-.104 0-.068-.01-.078-.08-.078-.064 0-.083-.012-.083-.052 0-.1-.03-.14-.11-.14-.067 0-.078-.01-.086-.088-.007-.078-.02-.09-.096-.098-.076-.007-.088-.02-.095-.095l-.01-.088L44.79.28c-.183-.01-.185-.01-.185-.087 0-.092-.038-.11-.22-.11-.103 0-.136-.01-.136-.042 0-.035-1.895-.04-16.885-.04C12.375 0 10.48.005 10.48.04m33.035 1.992c.008.078.02.09.096.097.073.006.09.02.097.08.006.06.025.077.084.084.068.007.076.02.076.112 0 .21.026.276.113.276h.077V6.95H10.672V2.683h.08c.085 0 .112-.065.112-.276 0-.093.008-.105.075-.112.058-.007.076-.025.083-.083.007-.06.024-.074.096-.08.075-.008.087-.02.095-.098l.008-.09h32.284l.008.09m-21.507 1.41c-.027.02-.033.24-.028 1.02l.008.997h10.754l.007-.998c.005-.78 0-1-.028-1.02-.045-.027-10.67-.027-10.714 0m22.05 9.638v4.078h-.08c-.072 0-.084.012-.1.096-.016.083-.03.095-.097.095-.07 0-.078.008-.078.095 0 .09-.005.096-.096.096-.087 0-.096.008-.096.08 0 .08-.04.112-.14.112-.04 0-.05.02-.05.08 0 .072-.012.082-.09.09-.08.007-.09.02-.098.097-.007.078-.018.088-.09.088s-.08.008-.08.096c0 .09-.004.096-.095.096-.09 0-.096.004-.096.096 0 .09-.003.095-.094.095-.09 0-.096.008-.096.083 0 .063-.013.083-.053.083-.1 0-.14.03-.14.112 0 .07-.01.08-.078.08-.08 0-.113.038-.113.138 0 .04-.02.053-.082.053-.076 0-.083.006-.083.094 0 .092-.004.096-.095.096-.092 0-.096.005-.096.096 0 .09-.004.096-.095.096-.088 0-.096.006-.096.08 0 .07-.01.08-.09.09-.078.006-.09.018-.097.097-.008.077-.018.087-.09.087-.073 0-.08.01-.08.096 0 .09-.004.096-.095.096-.09 0-.096.004-.096.095 0 .09-.004.096-.096.096-.088 0-.095.007-.095.083 0 .062-.012.082-.052.082-.1 0-.14.032-.14.112 0 .07-.01.08-.078.08-.08 0-.113.04-.113.138 0 .04-.02.053-.082.053-.075 0-.082.008-.082.096 0 .09-.004.095-.096.095-.09 0-.095.004-.095.095 0 .09-.005.096-.096.096-.088 0-.096.008-.096.08 0 .072-.01.083-.09.09-.077.008-.09.02-.096.098-.008.078-.02.09-.09.09-.06 0-.08.01-.08.05 0 .1-.032.14-.112.14-.072 0-.08.01-.08.096 0 .09-.004.096-.095.096-.087 0-.096.007-.096.08 0 .068-.01.08-.095.096-.083.016-.095.028-.095.1 0 .07-.01.08-.08.08-.08 0-.112.04-.112.14 0 .04-.02.05-.082.05-.075 0-.082.01-.082.097 0 .09-.005.096-.096.096-.09 0-.096.003-.096.094 0 .092-.004.096-.095.096-.088 0-.096.007-.096.08 0 .07-.01.082-.088.09-.078.007-.09.02-.098.097-.007.078-.018.09-.09.09-.06 0-.08.012-.08.052 0 .098-.03.138-.11.138-.073 0-.08.008-.08.095 0 .092-.005.096-.096.096-.088 0-.096.006-.096.078 0 .07-.013.082-.096.097-.084.016-.096.028-.096.1 0 .07-.01.08-.08.08-.08 0-.11.04-.11.14 0 .04-.02.05-.083.05-.076 0-.082.01-.082.097 0 .09-.005.096-.096.096-.092 0-.097.004-.097.096 0 .09-.004.095-.096.095-.088 0-.095.006-.095.082 0 .062-.013.082-.053.082-.1 0-.14.032-.14.112 0 .07-.01.08-.08.08-.072 0-.084.01-.1.095-.015.084-.028.097-.097.097-.072 0-.08.008-.08.096 0 .09-.003.095-.094.095-.09 0-.097.007-.097.08 0 .068-.013.08-.096.096-.084.016-.096.028-.096.1 0 .07-.01.08-.078.08-.08 0-.112.04-.112.14 0 .04-.02.052-.082.052-.076 0-.083.007-.083.095 0 .093-.004.097-.095.097-.092 0-.096.005-.096.096 0 .09-.005.096-.096.096-.088 0-.096.005-.096.08 0 .064-.012.083-.052.083-.1 0-.14.032-.14.112 0 .07-.01.08-.08.08s-.083.012-.1.095c-.014.083-.027.096-.096.096-.072 0-.08.01-.08.096 0 .09-.003.096-.095.096-.088 0-.097.007-.097.08 0 .08-.04.11-.14.11-.038 0-.05.02-.05.08 0 .072-.012.083-.09.09-.078.008-.09.02-.098.098-.007.078-.018.09-.09.09s-.08.007-.08.095c0 .092-.003.096-.095.096-.09 0-.095.005-.095.096 0 .09-.005.096-.096.096-.09 0-.097.007-.097.082 0 .063-.012.082-.052.082-.1 0-.138.032-.138.113 0 .07-.01.08-.08.08-.072 0-.084.01-.1.095-.016.083-.028.095-.097.095-.072 0-.08.01-.08.096 0 .092-.004.097-.095.097-.087 0-.096.007-.096.08 0 .08-.04.11-.14.11-.04 0-.05.02-.05.082 0 .07-.012.08-.09.088-.08.007-.09.02-.098.097-.007.078-.018.09-.09.09s-.08.007-.08.095c0 .09-.004.096-.095.096-.09 0-.095.004-.095.095 0 .093-.004.097-.095.097-.09 0-.096.007-.096.082 0 .062-.013.08-.053.08-.098 0-.138.033-.138.114 0 .07-.01.08-.08.08-.08 0-.11.038-.11.138 0 .04-.02.053-.083.053-.077 0-.083.007-.083.095 0 .092-.005.096-.096.096-.09 0-.095.005-.095.096 0 .09-.005.096-.096.096-.09 0-.097.006-.097.08 0 .07-.01.08-.09.09-.077.006-.09.018-.096.096-.008.08-.018.09-.09.09-.073 0-.08.007-.08.095 0 .09-.004.095-.095.095-.09 0-.096.004-.096.096s-.004.097-.096.097c-.088 0-.095.006-.095.082 0 .06-.013.08-.053.08-.1 0-.14.033-.14.113 0 .07-.01.08-.078.08-.08 0-.113.04-.113.138 0 .04-.018.054-.08.054-.076 0-.083.007-.083.096 0 .09-.004.095-.096.095-.09 0-.094.005-.094.096 0 .092-.005.097-.096.097-.088 0-.096.007-.096.08 0 .07-.01.082-.09.09-.077.007-.09.018-.096.097-.008.078-.02.09-.09.09-.06 0-.08.01-.08.05 0 .1-.03.14-.112.14-.072 0-.08.01-.08.096 0 .09-.004.096-.095.096-.086 0-.095.007-.095.08 0 .068-.012.08-.095.096-.084.016-.096.028-.096.1 0 .07-.01.08-.08.08-.08 0-.112.04-.112.14 0 .04-.02.05-.082.05-.075 0-.082.01-.082.097 0 .09-.005.095-.096.095-.09 0-.096.004-.096.095 0 .092-.004.096-.095.096-.087 0-.095.007-.095.08 0 .07-.01.082-.09.09-.077.007-.09.02-.097.097-.007.078-.018.09-.09.09-.06 0-.08.012-.08.05 0 .1-.03.14-.11.14-.073 0-.08.01-.08.096 0 .09-.005.095-.096.095-.087 0-.096.007-.096.08 0 .068-.013.08-.096.096-.083.017-.096.03-.096.1s-.01.08-.08.08c-.08 0-.11.04-.11.14 0 .04-.02.052-.083.052-.075 0-.08.008-.08.096 0 .09-.006.096-.097.096-.09 0-.096.004-.096.096 0 .09-.004.095-.096.095-.087 0-.094.007-.094.083 0 .062-.013.082-.053.082-.1 0-.14.032-.14.112 0 .07-.01.08-.08.08s-.083.01-.1.095c-.014.083-.027.096-.096.096-.072 0-.08.008-.08.096 0 .09-.003.094-.094.094-.088 0-.096.007-.096.08 0 .068-.013.08-.096.096s-.095.028-.095.1c0 .07-.01.08-.08.08-.08 0-.11.04-.11.14 0 .04-.02.052-.083.052-.076 0-.083.007-.083.095 0 .092-.005.096-.096.096-.092 0-.096.005-.096.096 0 .09-.005.095-.096.095-.088 0-.096.006-.096.082 0 .062-.012.082-.052.082-.1 0-.14.03-.14.11 0 .063-.012.078-.074.086-.094.01-.112.1-.115.584l-.002.33-.082.03-.08.03v1.073h-.068c-.11 0-.124.07-.124.614v.508h-.07c-.105 0-.122.087-.122.61v.472l-.078.03c-.1.038-.113.112-.113.673 0 .397-.005.43-.05.43-.106 0-.115.05-.115.595v.528h-.08c-.1 0-.11.034-.11.3s-.046.248.615.248c.582 0 .67-.015.67-.12v-.07l.54-.007.54-.008.027-.088.026-.088.535-.01.535-.006.008-.09.01-.087.55-.007.554-.008.008-.075.01-.075h.376c.596 0 .714-.02.733-.114l.015-.078h.482c.576 0 .606-.006.606-.112v-.08h.383v-.095c0-.09.005-.096.096-.096.09 0 .095-.005.095-.094 0-.086.007-.095.088-.103.074-.007.09-.02.098-.082.007-.057.026-.075.083-.082.06-.007.075-.024.082-.097.008-.083.017-.09.103-.09.09 0 .094-.005.094-.096 0-.09.004-.096.096-.096.09 0 .095-.004.095-.096 0-.09.005-.095.096-.095.086 0 .095-.007.095-.08 0-.065.014-.08.083-.094.064-.013.086-.035.1-.1.013-.068.028-.082.094-.082.072 0 .08-.008.08-.095 0-.09.003-.096.094-.096.092 0 .096-.005.096-.096 0-.092.005-.096.096-.096.09 0 .096-.005.096-.094 0-.086.007-.095.09-.103.072-.006.09-.02.096-.08.007-.058.025-.077.082-.083.06-.007.075-.024.082-.098.008-.082.017-.09.103-.09.09 0 .094-.004.094-.095 0-.092.006-.096.097-.096.09 0 .096-.006.096-.097 0-.09.004-.096.095-.096.088 0 .096-.006.096-.08 0-.066.014-.082.084-.098.063-.015.086-.038.098-.097.012-.06.034-.08.088-.087.06-.007.074-.024.08-.097.01-.082.017-.09.104-.09.09 0 .093-.005.093-.096 0-.09.006-.095.097-.095.09 0 .096-.006.096-.095 0-.087.008-.095.09-.103.073-.007.09-.02.096-.082.006-.057.025-.076.082-.082.06-.007.075-.024.082-.098.008-.08.016-.09.102-.09.09 0 .094-.004.094-.095 0-.09.005-.095.096-.095.09 0 .096-.005.096-.096 0-.09.004-.096.096-.096.088 0 .095-.006.095-.08 0-.07.014-.086.09-.105.068-.018.09-.04.097-.095.006-.055.026-.074.082-.08.06-.008.075-.025.082-.098.008-.082.017-.09.103-.09.09 0 .094-.004.094-.095 0-.09.005-.096.097-.096.09 0 .095-.005.095-.095 0-.086.008-.095.09-.102.073-.007.09-.022.097-.083.005-.056.024-.075.08-.082.062-.007.076-.023.083-.097.008-.08.016-.088.103-.088.09 0 .094-.005.094-.096 0-.09.004-.096.095-.096.092 0 .096-.004.096-.095 0-.092.006-.096.097-.096.088 0 .096-.008.096-.082 0-.07.013-.085.09-.105.067-.017.09-.04.096-.094.006-.057.025-.075.08-.082.062-.007.076-.024.083-.097.008-.08.017-.088.103-.088.09 0 .094-.005.094-.096 0-.09.005-.096.096-.096.09 0 .096-.005.096-.094 0-.086.007-.095.09-.103.072-.007.09-.02.096-.082.006-.055.025-.074.08-.08.056-.007.078-.03.095-.098.02-.076.036-.09.105-.09.074 0 .08-.007.08-.095 0-.09.005-.096.097-.096.09 0 .095-.003.095-.095 0-.09.005-.095.096-.095.09 0 .096-.005.096-.094 0-.087.007-.095.09-.103.073-.007.09-.02.096-.082.007-.056.026-.075.082-.08.06-.008.076-.025.083-.1.007-.08.016-.088.102-.088.09 0 .094-.005.094-.095 0-.092.004-.096.095-.096.09 0 .096-.004.096-.093 0-.086.008-.095.09-.103.073-.007.09-.02.097-.082.007-.056.025-.076.08-.082.056-.007.078-.03.096-.098.02-.075.035-.088.104-.088.075 0 .08-.008.08-.096 0-.092.006-.096.097-.096.09 0 .096-.005.096-.096 0-.09.004-.096.095-.096.09 0 .096-.004.096-.094 0-.086.01-.094.09-.102.074-.007.09-.022.098-.082.006-.057.025-.076.082-.083.06-.008.075-.024.082-.098.008-.08.016-.09.103-.09.09 0 .094-.004.094-.095 0-.09.003-.095.094-.095.09 0 .096-.005.096-.094 0-.087.008-.095.09-.103.072-.007.09-.022.096-.08.007-.055.028-.077.087-.09.06-.01.082-.034.096-.097.015-.07.03-.084.097-.084.074 0 .08-.008.08-.096 0-.09.005-.095.096-.095.09 0 .096-.005.096-.096 0-.09.003-.096.095-.096.09 0 .095-.004.095-.093 0-.086.008-.095.09-.102.073-.008.09-.022.097-.083.006-.057.025-.075.082-.082.06-.007.074-.024.08-.097.01-.082.018-.09.104-.09.09 0 .094-.004.094-.095 0-.09.004-.096.096-.096.09 0 .095-.004.095-.095 0-.092.004-.096.095-.096.087 0 .096-.006.096-.078 0-.066.015-.08.084-.095.064-.013.086-.035.1-.1.013-.068.028-.082.094-.082.072 0 .08-.008.08-.096 0-.092.003-.097.094-.097.092 0 .096-.004.096-.095 0-.092.005-.096.096-.096.09 0 .096-.005.096-.094 0-.086.007-.095.09-.103.072-.007.09-.02.096-.082.007-.057.025-.075.082-.082.06-.006.075-.023.082-.096.008-.082.017-.09.103-.09.09 0 .094-.004.094-.095 0-.092.005-.097.096-.097.09 0 .096-.004.096-.096 0-.09.003-.096.094-.096.088 0 .096-.005.096-.078 0-.067.014-.083.083-.1.064-.013.087-.036.1-.095.01-.06.033-.08.087-.087.06-.006.074-.024.08-.097.01-.08.017-.09.103-.09h.094v16.694H10.672v-1.86h.083c.07 0 .085-.014.1-.08.01-.06.034-.083.094-.095.065-.014.078-.03.078-.097 0-.072.01-.082.09-.09.077-.007.09-.02.096-.096.008-.077.02-.09.096-.097.076-.007.09-.02.096-.095.007-.076.02-.09.096-.096.076-.007.088-.02.096-.098.007-.078.018-.088.09-.088.07 0 .08-.01.08-.08 0-.072.01-.082.088-.09.078-.007.09-.02.097-.096.008-.076.02-.088.096-.095.075-.008.087-.02.095-.096.007-.077.02-.09.096-.097.077-.007.09-.02.096-.097.008-.08.02-.09.09-.09.068 0 .084-.013.097-.08.012-.06.035-.082.095-.094.066-.013.08-.03.08-.096 0-.072.01-.083.088-.09.078-.008.09-.02.098-.096.007-.076.02-.088.095-.096.075-.007.088-.02.095-.096.008-.076.02-.088.096-.095.077-.008.09-.02.097-.098.007-.078.018-.09.09-.09.07 0 .08-.008.08-.08 0-.07.01-.08.088-.088.078-.007.09-.02.097-.096.008-.075.02-.087.096-.095.076-.007.09-.02.096-.095.007-.077.02-.09.096-.096.076-.008.088-.02.096-.098.007-.078.018-.09.09-.09.067 0 .083-.012.096-.08.013-.06.036-.084.096-.097.064-.015.08-.033.08-.097 0-.068.01-.08.087-.086.078-.008.09-.02.098-.096.007-.075.02-.088.096-.095.075-.007.087-.02.094-.096.008-.077.02-.09.096-.097.077-.007.09-.02.096-.097.008-.078.02-.09.087-.09.066 0 .08-.012.087-.074.007-.06.026-.078.09-.09.07-.01.085-.027.092-.1.007-.076.02-.09.096-.096.075-.007.088-.02.095-.096.008-.076.02-.088.096-.095.075-.008.087-.02.095-.096.007-.077.02-.09.095-.097.073-.007.09-.022.102-.09.01-.065.03-.084.09-.09.06-.01.074-.023.074-.09s.01-.078.09-.086c.077-.007.09-.02.096-.096.008-.075.02-.087.096-.094.076-.008.088-.02.096-.096.007-.076.02-.088.095-.096.076-.007.088-.02.095-.097.008-.078.02-.09.087-.09.066 0 .08-.012.088-.074.007-.06.026-.078.09-.09.07-.01.084-.028.09-.1.008-.076.02-.09.097-.096.076-.008.088-.02.096-.096.007-.075.02-.087.095-.095.076-.007.09-.02.096-.096.008-.077.02-.09.096-.096.073-.007.09-.022.1-.09.012-.066.03-.085.09-.092.062-.007.075-.02.075-.087 0-.068.01-.08.09-.087.077-.007.09-.02.096-.096.01-.076.02-.088.097-.096.076-.007.09-.02.096-.095.007-.075.02-.088.096-.095.075-.008.087-.02.095-.098.007-.077.018-.088.086-.088.065 0 .083-.016.097-.08.013-.06.037-.083.098-.096.067-.013.08-.03.08-.097 0-.07.01-.082.09-.09.077-.007.09-.02.097-.095.007-.076.02-.09.096-.096.076-.007.088-.02.095-.096.008-.076.02-.088.096-.096.075-.007.088-.02.095-.097.008-.078.018-.09.09-.09.07 0 .08-.01.08-.08s.01-.08.088-.088c.078-.01.09-.02.098-.097.008-.076.02-.088.096-.096.076-.007.09-.02.096-.096.008-.075.02-.087.096-.094.076-.008.088-.02.096-.098.007-.078.018-.09.09-.09.067 0 .083-.012.096-.078.012-.06.035-.083.095-.095.066-.013.08-.03.08-.097 0-.07.01-.082.09-.09.077-.007.09-.02.096-.095.008-.077.02-.09.097-.096.076-.008.088-.02.096-.096.007-.075.02-.087.095-.095.077-.007.09-.02.096-.097.008-.078.02-.09.09-.09.07 0 .08-.01.08-.08s.01-.08.09-.088c.076-.008.09-.02.096-.096.007-.076.02-.09.096-.096.076-.007.088-.02.095-.096.01-.076.02-.088.097-.096.077-.007.09-.02.096-.097.008-.08.018-.09.09-.09.067 0 .083-.013.097-.08.012-.06.035-.082.095-.094.066-.014.08-.03.08-.097 0-.073.01-.083.088-.09.078-.008.09-.02.097-.097.008-.076.02-.088.096-.096.076-.007.088-.02.096-.095.007-.076.02-.09.096-.096.076-.007.088-.02.096-.097.007-.08.018-.09.09-.09.07 0 .08-.01.08-.08s.01-.082.088-.09c.078-.007.09-.02.097-.096.007-.076.02-.088.095-.095.076-.01.088-.02.096-.097.008-.076.02-.09.097-.096.076-.007.088-.02.095-.097.008-.08.02-.09.09-.09.068 0 .084-.013.097-.078.01-.06.034-.084.094-.096.066-.013.08-.03.08-.096 0-.072.01-.083.088-.09.078-.008.09-.02.098-.096.007-.076.02-.088.095-.096.076-.007.09-.02.096-.096.01-.076.02-.088.097-.095.076-.008.088-.02.096-.098.007-.08.018-.09.09-.09.07 0 .08-.01.08-.08s.01-.08.088-.09c.08-.006.09-.018.098-.095.008-.076.02-.088.096-.096.076-.008.09-.02.096-.096.007-.076.02-.09.096-.096.076-.008.088-.02.096-.098.007-.078.018-.09.09-.09.067 0 .083-.012.096-.08.013-.06.036-.084.096-.097.064-.014.078-.032.078-.096 0-.068.012-.08.09-.086.077-.007.09-.02.097-.095.006-.076.02-.09.095-.096.076-.008.088-.02.095-.097.008-.076.02-.088.096-.096.077-.007.09-.02.096-.097.007-.078.02-.09.087-.09.065 0 .08-.012.086-.074.007-.06.026-.078.09-.09.07-.01.085-.027.092-.1.007-.076.02-.088.095-.096.076-.007.09-.02.096-.096.007-.076.02-.088.095-.095.076-.01.088-.02.096-.097.008-.076.02-.09.096-.096.073-.007.09-.022.102-.09.01-.065.03-.084.09-.09.06-.01.074-.023.074-.09s.01-.078.09-.086c.077-.006.09-.018.096-.095.007-.076.02-.088.096-.095.076-.008.088-.02.096-.096.007-.076.02-.088.095-.096.077-.007.09-.02.096-.097.01-.077.02-.088.088-.088.066 0 .08-.013.088-.075.007-.06.026-.078.09-.09.07-.01.084-.028.09-.1.008-.076.02-.09.097-.096.076-.007.088-.02.096-.095.006-.076.018-.088.094-.096.076-.008.09-.02.096-.096.007-.077.02-.09.096-.096.073-.007.09-.022.1-.09.012-.066.03-.085.09-.092.062-.007.075-.02.075-.087 0-.07.012-.08.09-.088.078-.007.09-.02.097-.096.008-.076.02-.088.096-.096.076-.007.09-.02.096-.095.006-.076.02-.09.095-.096.076-.008.088-.02.096-.1.008-.076.02-.087.087-.087.064 0 .082-.015.096-.08.013-.06.037-.082.098-.094.068-.015.08-.03.08-.1s.012-.08.09-.088c.078-.008.09-.02.098-.096.007-.076.02-.09.096-.096.075-.007.088-.02.095-.096.007-.076.02-.088.095-.095.076-.01.088-.02.096-.1.01-.077.02-.088.09-.088.07 0 .08-.01.08-.08s.01-.082.09-.09c.077-.007.09-.02.097-.095.007-.076.02-.088.095-.096.076-.006.09-.02.096-.095.008-.076.02-.088.096-.095.076-.008.088-.02.096-.098.007-.078.018-.09.09-.09.067 0 .083-.012.096-.078.012-.06.035-.083.095-.095.067-.014.08-.03.08-.098 0-.07.01-.082.09-.09.077-.007.09-.02.097-.095.007-.076.02-.09.096-.096.076-.007.088-.02.096-.095.006-.076.018-.088.094-.096.077-.008.09-.02.096-.098.008-.078.018-.09.09-.09.07 0 .08-.01.08-.08s.01-.08.088-.088c.078-.008.09-.02.098-.096.007-.076.02-.09.096-.096.076-.007.088-.02.095-.096.008-.076.02-.088.096-.096.077-.007.09-.02.096-.097.007-.078.017-.09.09-.09.066 0 .082-.012.096-.078.012-.06.035-.083.095-.095.067-.014.08-.03.08-.097 0-.072.01-.082.09-.09.077-.007.09-.02.096-.096.008-.076.02-.088.096-.095.076-.008.088-.02.096-.096.007-.076.02-.09.096-.096.076-.007.088-.02.096-.097.007-.08.018-.09.088-.09.07 0 .08-.01.08-.08s.01-.08.09-.09c.078-.006.09-.018.097-.095.008-.076.02-.088.096-.095l.088-.01.008-.21c.01-.242-.02-.322-.118-.322-.052 0-.068-.014-.068-.062 0-.08-.048-.13-.126-.13-.047 0-.064-.017-.07-.074-.007-.058-.03-.08-.096-.1-.066-.02-.09-.045-.096-.097-.006-.053-.026-.072-.08-.078-.054-.008-.078-.03-.097-.097-.018-.065-.043-.09-.094-.096-.05-.006-.075-.03-.094-.096-.02-.066-.043-.088-.1-.095-.06-.007-.076-.023-.076-.074 0-.083-.073-.12-.23-.12-.118 0-.123-.004-.13-.09-.008-.08-.02-.09-.098-.098-.078-.007-.09-.018-.09-.086 0-.078-.04-.11-.138-.11-.04 0-.053-.02-.053-.083 0-.075-.007-.082-.095-.082-.09 0-.095-.003-.095-.094 0-.092-.005-.096-.096-.096-.084 0-.096-.01-.096-.068 0-.085-.07-.124-.23-.124-.118 0-.123-.003-.13-.09-.008-.077-.02-.09-.098-.096-.078-.008-.09-.02-.09-.087 0-.07-.01-.08-.088-.088-.075-.007-.09-.02-.103-.09-.015-.08-.02-.083-.186-.09l-.17-.01v-.093c0-.09-.006-.095-.095-.095-.087 0-.095-.008-.103-.09-.01-.088-.01-.088-.18-.097-.157-.007-.17-.013-.17-.07 0-.077-.05-.127-.126-.127-.043 0-.063-.02-.075-.082-.016-.08-.02-.082-.195-.082h-.18v-.191h-.351l-.01-.088c-.007-.078-.02-.09-.095-.098-.07-.007-.09-.023-.104-.085-.017-.08-.098-.11-.294-.112-.065 0-.075-.01-.075-.083 0-.07-.01-.082-.074-.082-.197 0-.275-.03-.29-.112-.016-.077-.02-.078-.194-.078h-.176l-.01-.09-.008-.088-.184-.008c-.176-.008-.185-.01-.185-.076 0-.09-.088-.12-.345-.12h-.203v-.083c0-.09-.03-.104-.245-.116-.105-.006-.125-.016-.138-.075-.017-.067-.025-.07-.28-.076l-.265-.01-.01-.087-.007-.088-.267-.008-.266-.008v-.08c0-.103-.028-.11-.41-.11h-.325l-.01-.09-.008-.088-.363-.008-.364-.007v-.082c0-.058-.013-.082-.048-.085l-.375-.02c-.32-.017-.327-.018-.343-.085l-.016-.07-.633-.006-.633-.01-.008-.087-.01-.088h-4.952l-.014.082-.015.082-.555.006-.553.008v.163h-.297c-.52 0-.634.02-.634.113v.078h-.307c-.392 0-.43.01-.43.113v.08h-.27c-.286 0-.305.008-.305.138 0 .046-.027.052-.267.06l-.266.007-.01.09-.007.088h-.544v.082c0 .08 0 .082-.157.084-.284 0-.375.028-.385.112-.007.07-.015.075-.19.082l-.184.008-.008.088-.01.088-.182.008-.183.008-.008.09-.01.088h-.351v.082c0 .075-.008.082-.096.082h-.096V9.002H44.057v4.077m7.428 1.382l.018.096h.353v.096c0 .09.005.096.094.096.087 0 .095.007.103.09.008.077.02.09.098.096.078.008.09.02.09.087 0 .066.012.08.075.088.07.01.077.02.1.182.022.16.03.173.1.188.074.014.078.023.086.183.01.162.01.168.09.18l.083.016.008.47.008.472h-.07c-.092 0-.123.085-.123.342v.202l-.09.008c-.077.008-.09.02-.096.096-.008.072-.023.09-.083.096-.06.007-.075.024-.082.098-.007.07-.02.088-.07.088-.08 0-.127.05-.127.13 0 .05-.015.062-.083.062-.07 0-.085.013-.1.08-.01.06-.034.086-.09.098-.056.012-.08.037-.092.093-.012.06-.035.08-.1.094-.07.013-.082.028-.082.1 0 .067-.01.08-.062.08-.08 0-.13.05-.13.132 0 .11-.2.078-.218-.035-.01-.064-.03-.084-.086-.09-.055-.007-.076-.028-.088-.09-.012-.062-.035-.085-.096-.097-.06-.012-.084-.035-.095-.093-.012-.057-.036-.08-.097-.094-.063-.014-.084-.036-.09-.092-.007-.056-.027-.075-.09-.086-.066-.01-.085-.03-.096-.096-.01-.063-.03-.084-.086-.09-.054-.006-.078-.03-.097-.096-.02-.066-.043-.09-.097-.096-.054-.006-.075-.028-.087-.09-.013-.062-.035-.084-.098-.097-.06-.013-.083-.034-.09-.087-.006-.054-.03-.076-.095-.093-.068-.018-.09-.04-.096-.098-.006-.06-.026-.077-.09-.09-.065-.01-.085-.03-.096-.094-.01-.064-.03-.084-.086-.09-.056-.007-.078-.028-.092-.09-.013-.062-.037-.086-.094-.098-.057-.01-.08-.035-.093-.092-.01-.058-.035-.08-.096-.095-.064-.013-.085-.035-.092-.09-.006-.058-.026-.077-.09-.088-.065-.01-.085-.03-.096-.096-.01-.066-.03-.085-.09-.092-.06-.007-.08-.026-.093-.09-.01-.047-.036-.09-.06-.1-.032-.012-.028-.02.02-.037.038-.014.058-.045.058-.09 0-.052.016-.068.074-.075.057-.007.08-.03.1-.096.018-.067.042-.09.096-.097.06-.007.073-.024.08-.095.008-.076.02-.09.096-.096.076-.008.09-.02.096-.096.007-.076.02-.088.096-.096.07-.007.09-.022.095-.078.007-.052.032-.077.097-.096.067-.02.09-.043.096-.1.008-.064.022-.076.09-.076.064 0 .08-.012.08-.062 0-.103.035-.126.205-.135.163-.01.164-.01.173-.097l.01-.09h1.467l.018.096M18.47 16.967v.93l1.007-.007 1.006-.007.007-.924.007-.924h.574v.191h1.475l.01.09.007.088.363.008.362.008v.067c0 .095.075.124.327.124h.22v.175c0 .17 0 .175-.077.19-.09.018-.113.097-.113.395v.17h-.163v.437c0 .5-.024.462.293.485.237.016.245.02.274.095l.03.08h.522v.078c0 .107.024.112.496.112h.408v-.274c0-.25.004-.273.053-.273.13 0 .14-.02.14-.304v-.27h.078c.093 0 .112-.038.112-.222v-.135h.178c.158 0 .178.005.178.052 0 .094.075.14.233.14.14 0 .147.002.155.074.01.073.016.076.193.084l.183.008.008.087c.01.088.01.088.18.096.157.01.17.014.17.07 0 .098.054.128.225.128.156 0 .158 0 .158.08 0 .093.037.112.22.112.126 0 .136.005.136.067 0 .085.016.094.216.115.16.017.167.02.167.095 0 .07.01.08.094.08.087 0 .096.006.103.087.008.075.022.09.084.098.12.014.114.197-.007.197-.075 0-.082.006-.082.093 0 .086-.007.094-.09.102-.087.01-.087.01-.096.178-.008.17-.008.17-.095.178-.077.01-.09.02-.097.097-.007.076-.02.088-.095.096-.076.007-.09.02-.096.094-.008.07-.024.09-.09.102-.122.023-.115.326.007.34.06.007.075.024.082.095.006.077.018.09.096.096.072.008.09.022.09.07 0 .096.052.128.21.128.14 0 .144.003.166.09.018.067.04.09.095.096.055.007.074.026.08.082.008.06.025.075.095.082.07.007.09.025.11.096.024.085.03.088.194.096.167.008.168.008.176.095l.01.088h.327l.008-.087c.007-.076.02-.09.096-.096.075-.007.088-.02.095-.096.006-.072.02-.09.08-.096.07-.007.077-.02.1-.18.023-.163.027-.17.102-.17.07 0 .078-.01.078-.094 0-.086.008-.095.09-.103.088-.007.088-.007.096-.178l.008-.17h.092c.08 0 .093.01.107.08.014.07.03.083.096.083.064 0 .08.014.094.077.008.043.043.09.078.107l.063.03-.062.002c-.046 0-.066.022-.078.08-.012.06-.035.084-.093.096-.057.01-.08.035-.094.095-.013.06-.037.084-.098.096-.068.013-.08.03-.08.096 0 .072-.01.083-.09.09-.078.008-.09.02-.097.098-.008.078-.02.09-.09.09-.068 0-.084.012-.097.08-.012.06-.036.084-.096.097-.06.015-.084.04-.096.096-.01.056-.035.08-.09.092-.058.01-.08.035-.093.096-.01.065-.03.084-.09.09-.065.008-.08.024-.086.097-.007.077-.02.09-.096.097-.073.007-.09.02-.1.09-.012.065-.03.084-.09.09-.06.008-.08.028-.093.087-.01.057-.035.08-.092.093-.057.01-.08.036-.094.095-.015.06-.038.084-.1.097-.067.012-.08.028-.08.096 0 .07-.01.082-.09.09-.077.007-.09.02-.097.097-.007.078-.018.09-.09.09-.067 0-.083.012-.096.08-.013.06-.036.084-.097.098-.06.014-.084.038-.095.095-.01.056-.035.08-.09.092-.058.01-.08.035-.093.097-.013.064-.033.083-.092.09-.064.007-.078.023-.085.096-.008.076-.02.088-.096.096-.074.007-.09.022-.102.09-.01.066-.03.084-.09.09-.06.008-.08.028-.092.09-.012.057-.036.082-.093.094-.056.013-.082.038-.094.094-.014.058-.04.082-.097.093-.06.013-.08.033-.087.092-.007.06-.026.078-.09.09-.07.01-.085.028-.092.102-.007.08-.018.09-.09.09-.067 0-.083.012-.097.08-.012.06-.035.084-.096.098-.06.013-.083.037-.094.094-.012.057-.036.08-.09.092-.057.01-.08.036-.093.095-.012.063-.035.085-.1.098-.07.014-.083.03-.083.097 0 .072-.01.082-.09.09-.073.007-.09.022-.1.09-.012.066-.03.085-.09.092-.06.006-.08.026-.093.087-.012.058-.036.083-.093.096-.056.012-.082.038-.094.094-.013.057-.038.08-.096.093-.06.012-.08.033-.088.092-.006.06-.025.078-.09.09-.07.01-.084.027-.09.102-.01.078-.02.088-.09.088-.07 0-.084.013-.098.084-.013.065-.035.087-.097.1-.06.01-.083.035-.094.09-.01.056-.035.08-.092.092-.057.01-.08.035-.094.095-.014.062-.037.085-.098.097-.068.014-.08.03-.08.098 0 .07-.012.082-.09.09-.074.006-.09.02-.103.09-.012.065-.03.084-.09.09-.06.008-.08.027-.093.088-.01.06-.035.083-.093.096-.056.01-.08.037-.094.093-.012.057-.037.08-.095.093-.06.012-.08.033-.088.092-.007.06-.025.08-.09.09-.07.012-.084.028-.09.1-.01.077-.02.09-.097.097-.073.007-.09.02-.096.085-.007.06-.026.08-.09.092-.062.013-.086.035-.097.092-.01.056-.036.08-.092.09-.057.012-.08.037-.094.097-.013.06-.036.085-.098.097-.067.013-.08.03-.08.097 0 .07-.01.082-.09.09-.077.007-.09.02-.097.097-.007.08-.018.09-.09.09-.067 0-.083.013-.097.08-.012.062-.035.085-.096.1-.06.012-.084.036-.095.093-.012.057-.036.08-.093.092-.06.012-.08.033-.086.092-.007.06-.026.08-.09.09-.07.012-.084.028-.09.1-.01.077-.02.09-.097.097-.072.007-.088.02-.095.085-.007.06-.027.08-.09.092-.062.012-.086.035-.097.09-.01.057-.036.08-.092.092-.057.012-.082.036-.095.096-.012.06-.036.084-.097.096-.067.014-.08.03-.08.097 0 .072-.01.082-.09.09-.078.007-.09.02-.097.097-.008.08-.018.09-.09.09-.067 0-.083.012-.097.08-.013.06-.036.085-.097.098-.06.013-.084.037-.095.094-.012.057-.036.08-.09.092-.058.012-.08.036-.093.097-.013.065-.033.085-.093.09-.064.01-.078.025-.085.098-.007.076-.02.088-.095.095-.073.007-.09.022-.097.085-.006.06-.026.08-.09.093-.06.013-.085.036-.097.093-.01.055-.035.08-.092.09-.057.012-.08.036-.094.096-.013.06-.037.083-.098.095-.068.014-.08.03-.08.097 0 .072-.01.082-.09.09-.078.008-.09.02-.097.098-.008.078-.018.09-.09.09-.068 0-.083.012-.097.08-.012.06-.035.084-.096.097-.06.013-.084.038-.096.095-.01.056-.035.08-.09.092-.057.01-.08.035-.093.096-.012.064-.032.084-.092.09-.064.008-.078.024-.085.097-.007.076-.02.088-.096.096-.073.007-.09.02-.1.09-.012.065-.03.084-.09.09-.06.008-.08.028-.093.087-.012.057-.036.08-.093.093-.057.01-.08.036-.094.095-.014.06-.037.084-.098.097-.068.013-.08.03-.08.097 0 .07-.012.082-.09.09-.078.007-.09.02-.098.097-.007.077-.018.088-.09.088-.067 0-.083.013-.096.08-.01.062-.035.085-.095.1-.06.012-.085.036-.096.093-.012.057-.036.082-.092.093-.057.01-.08.035-.092.097-.013.064-.033.083-.092.09-.064.007-.078.023-.085.096-.01.076-.02.088-.097.096-.073.007-.09.022-.1.09-.012.066-.03.084-.09.09-.06.008-.08.028-.093.09-.012.057-.036.082-.093.094-.056.013-.082.038-.094.094-.013.058-.037.082-.096.093-.06.013-.08.033-.087.092-.007.06-.026.08-.09.09-.07.012-.085.03-.092.103-.007.078-.018.09-.09.09-.067 0-.083.012-.097.08-.01.06-.034.084-.095.098-.06.013-.084.037-.095.094-.012.057-.036.08-.09.092-.057.01-.08.036-.093.095-.012.062-.035.084-.1.097-.07.014-.083.03-.083.097 0 .073-.01.083-.088.09-.075.008-.09.023-.103.092-.01.065-.03.084-.09.09-.06.007-.08.027-.092.088-.01.058-.035.083-.092.096-.056.012-.082.038-.094.094-.013.057-.038.08-.096.093-.06.012-.08.033-.087.092-.006.06-.025.08-.09.09-.07.01-.084.028-.09.102-.01.08-.02.09-.09.09-.07 0-.084.012-.098.083-.013.064-.035.087-.097.1-.06.01-.084.035-.095.09-.01.056-.035.08-.092.092-.057.01-.08.035-.094.095-.014.06-.037.084-.098.096-.068.014-.08.03-.08.098 0 .072-.01.083-.09.09-.074.007-.09.022-.102.09-.012.066-.03.085-.09.092-.06.007-.08.026-.093.087-.01.057-.034.082-.092.095-.056.012-.08.038-.094.094-.012.056-.037.08-.095.092-.062.012-.082.033-.09.092-.006.06-.024.08-.09.09-.068.012-.083.028-.09.1-.008.077-.02.09-.096.097-.073.008-.09.022-.096.086-.007.06-.026.08-.09.092-.062.013-.086.035-.097.092-.01.056-.035.08-.09.09-.058.012-.082.037-.095.096-.014.06-.037.085-.1.097-.066.013-.08.03-.08.097 0 .07-.01.082-.088.09-.078.007-.09.02-.098.097-.008.078-.02.09-.09.09-.068 0-.084.012-.097.08-.013.06-.036.084-.097.098-.06.013-.084.037-.095.094-.01.056-.035.08-.092.09-.06.013-.08.034-.086.093-.007.06-.026.08-.09.09-.07.012-.084.028-.09.1-.01.077-.02.09-.097.097-.073.007-.09.02-.096.085-.008.06-.028.08-.092.092-.06.013-.085.035-.096.092-.01.055-.036.08-.092.09-.057.012-.08.036-.095.096-.013.06-.037.084-.098.096-.067.013-.08.03-.08.097 0 .07-.01.08-.09.09-.078.006-.09.018-.097.096-.007.08-.018.09-.09.09-.067 0-.083.012-.097.08-.012.06-.035.085-.096.098-.06.013-.084.037-.095.094-.012.057-.036.08-.09.092-.058.012-.08.036-.093.097-.014.064-.034.084-.094.09-.063.008-.078.024-.085.096-.006.077-.018.09-.094.096-.073.006-.09.02-.096.084-.007.06-.027.08-.09.093-.062.012-.086.035-.098.092-.01.054-.035.078-.09.09-.06.01-.083.035-.096.095-.013.06-.037.084-.098.096-.068.015-.08.03-.08.098 0 .072-.01.082-.09.09-.078.007-.09.02-.097.098-.007.078-.017.088-.09.088-.067 0-.082.014-.096.08-.012.062-.035.086-.096.1-.06.012-.084.037-.096.094-.01.056-.035.08-.09.092-.057.01-.08.035-.092.096-.013.064-.033.084-.093.09-.064.008-.078.024-.085.097-.007.076-.02.088-.096.096-.072.006-.09.02-.1.09-.012.064-.03.083-.09.09-.06.007-.08.026-.093.086-.01.057-.035.08-.092.093-.056.01-.08.034-.093.094-.014.06-.037.084-.098.096-.07.014-.082.03-.082.098 0 .07-.01.082-.09.09-.077.007-.09.02-.096.097-.008.078-.02.09-.09.09-.068 0-.084.012-.097.08-.012.06-.036.084-.096.098-.062.013-.086.037-.098.097-.013.07-.028.08-.108.08h-.092v-.135c0-.184-.02-.22-.113-.22-.075 0-.08-.008-.08-.11v-.108l.185-.008c.18-.01.185-.01.193-.084.008-.062.022-.075.086-.075.08 0 .11-.04.11-.138 0-.043.02-.053.104-.053.17-.002.227-.028.243-.112.014-.063.033-.08.103-.086.074-.007.087-.02.094-.095.007-.072.02-.09.082-.096.135-.015.138-.313.003-.34-.063-.013-.08-.032-.086-.102-.007-.075-.02-.087-.097-.094-.088-.01-.09-.01-.09-.152 0-.157-.03-.21-.128-.21-.054 0-.063-.013-.063-.095 0-.087-.008-.096-.078-.096-.074 0-.08-.006-.103-.17-.023-.148-.034-.17-.095-.185-.048-.01-.072-.038-.082-.095-.03-.17-.738-.18-.738-.012 0 .067-.012.078-.09.085-.078.008-.09.02-.097.098-.008.087-.013.09-.132.09-.158 0-.23.038-.23.124 0 .06-.01.067-.095.067-.09 0-.094.006-.094.097v.096h-.38l-.01-.185-.007-.185-.09-.008c-.086-.008-.087-.01-.095-.178-.007-.157-.013-.17-.076-.18-.09-.01-.11-.046-.11-.196 0-.13-.036-.19-.114-.19-.033 0-.05-.025-.056-.088-.007-.078-.02-.09-.097-.098l-.09-.008v-.352h-.191v-.382h-.189l-.008-.268-.008-.267-.075-.01c-.072-.007-.076-.014-.076-.154 0-.08-.007-.166-.016-.19-.015-.037.014-.043.198-.043.285 0 .33-.015.353-.112l.018-.08h.24c.252 0 .303-.02.303-.127 0-.056.015-.06.186-.07l.184-.007V38.9l-.088-.024-.088-.025-.007-.262-.008-.263-.09-.01-.09-.008v-.542h-.078c-.08 0-.113-.04-.113-.14 0-.05-.023-.053-.303-.053-.334 0-.41.023-.41.124 0 .067 0 .068-.273.068H2.9l-.017.08c-.015.077-.022.08-.193.088-.214.01-.2.025-.2-.187v-.173h-.164v-.326c0-.385-.008-.413-.112-.413h-.08v-.64c0-.686.003-.673-.14-.673-.048 0-.05-.025-.05-.466v-.465H3.61v-2.026H1.943v-.574h.19v-1.287h.08c.104 0 .11-.034.112-.525v-.4l.075-.01.076-.01.008-.265.008-.267h.38v.08c0 .085.03.093.453.118.097.006.11.015.118.082l.01.075h.415c.514 0 .483.027.483-.4v-.337h.193V28.3l.088-.01.09-.008v-.337c0-.407.02-.388-.403-.388-.3 0-.322-.004-.322-.053 0-.13-.018-.14-.302-.14h-.27l-.007-.088c-.008-.074-.022-.09-.084-.098-.094-.01-.118-.196-.026-.196.093 0 .115-.058.115-.305v-.24l.09-.008.088-.01.01-.184.007-.185h.188v-.354h.08c.094 0 .11-.037.11-.235 0-.146.002-.147.083-.147.072 0 .082-.01.083-.076 0-.206.03-.28.112-.28.072 0 .08-.01.08-.096 0-.075.01-.095.052-.095.094 0 .14-.075.14-.234 0-.146 0-.148.08-.148.053 0 .09-.017.1-.044.017-.04.02-.04.043 0 .015.027.06.044.117.044.15 0 .233.044.233.123 0 .058.013.07.082.07.062 0 .08.01.08.05 0 .1.033.14.112.14.062 0 .08.015.094.08.018.083.088.112.278.112.084 0 .092.007.092.08 0 .092.1.13.262.1.08-.016.094-.03.094-.098 0-.07.01-.08.09-.088.077-.008.09-.02.096-.098.008-.078.02-.09.088-.09.07 0 .08-.01.097-.095.012-.065.033-.096.064-.096.08 0 .112-.06.112-.21 0-.14 0-.143.088-.15.078-.01.09-.02.098-.1.006-.07.02-.088.07-.088.096 0 .126-.053.126-.224 0-.15.004-.16.067-.16.085 0 .1-.028.1-.182 0-.15-.025-.17-.216-.172H6.95v-.096c0-.09-.004-.096-.095-.096-.088 0-.096-.007-.096-.08 0-.08-.04-.112-.138-.112-.035 0-.053-.023-.06-.075-.008-.073-.015-.076-.18-.084l-.17-.008v-.095c0-.09-.005-.094-.096-.094-.143 0-.15-.184-.007-.198.077-.007.09-.02.097-.096.007-.076.02-.088.095-.096.076-.007.09-.02.096-.095.007-.072.022-.09.082-.096.058-.008.077-.027.088-.09.01-.067.03-.086.096-.097.065-.012.083-.03.09-.09.007-.06.027-.08.09-.093.062-.012.086-.035.097-.092.012-.056.037-.08.093-.09.057-.012.08-.037.095-.096.013-.06.037-.084.096-.096.06-.012.08-.033.087-.092.008-.06.027-.08.092-.09.065-.012.085-.03.096-.096.01-.065.03-.085.096-.096.064-.01.084-.03.09-.087.007-.056.028-.078.09-.09.062-.015.086-.038.098-.098.012-.063.032-.08.1-.086.076-.006.088-.02.096-.096.007-.08.018-.09.09-.09.067 0 .083-.012.097-.08.014-.073.028-.083.108-.083h.093v.146c0 .148.032.21.11.21.025 0 .053.037.07.09.02.067.042.09.1.097.06.007.074.024.08.095.008.077.02.09.098.096.088.01.09.01.09.152 0 .156.03.21.126.21.05 0 .063.017.07.088l.008.09.19.007c.26.012.308-.003.33-.103.015-.068.032-.082.097-.082.068 0 .08-.013.097-.096.015-.084.028-.096.097-.096.067 0 .078-.01.078-.08 0-.076.004-.08.176-.097.165-.018.177-.024.193-.097.014-.064.034-.08.104-.087.078-.008.09-.02.097-.098.008-.077.02-.09.086-.09.078 0 .11-.04.11-.136 0-.036.024-.054.076-.06.114-.014.117-.332.002-.346-.06-.006-.076-.026-.09-.102-.016-.08-.03-.095-.095-.095-.073 0-.078-.007-.093-.15-.018-.182-.032-.205-.115-.205-.054 0-.067-.016-.074-.09-.008-.077-.02-.09-.098-.097-.08-.008-.09-.016-.09-.102 0-.09-.004-.094-.095-.094-.09 0-.095-.006-.095-.097 0-.09.004-.096.095-.096.09 0 .096-.005.096-.094v-.095l.17-.008c.162-.008.172-.012.18-.08.006-.06.026-.077.103-.09.077-.015.098-.034.11-.098.017-.076.024-.08.185-.088.167-.008.168-.008.177-.097l.008-.09h.173c.18 0 .207-.016.207-.138 0-.047.02-.053.178-.053h.178v-.191h.384v-.164l.198-.002c.273-.004.333-.024.344-.114.018-.152.196-.106.196.05 0 .16.04.23.124.23.065 0 .066.006.074.268l.008.267.088.025.088.026.007.262.007.26h.876l.008-.088.01-.088h.54l.017-.08c.017-.076.02-.077.267-.094.317-.023.297.01.288-.485l-.007-.422-.088-.01-.088-.007-.01-.266-.007-.265-.075-.008c-.064-.01-.075-.023-.076-.097 0-.048-.007-.133-.017-.19l-.017-.102h.248c.302 0 .334-.01.334-.11v-.08l.54-.007.54-.008.01-.09.008-.088h.694c.752 0 .78-.003.78-.094 0-.082.02-.097.128-.097h.09v.93m28.494.575c.067 0 .076.01.076.083 0 .072.01.082.08.082.068 0 .08.013.096.096.016.084.03.097.097.097.07 0 .08.01.088.09.01.076.02.09.097.096.076.007.088.02.096.096.007.075.02.087.097.095.078.007.09.018.09.087 0 .07.012.082.095.097s.096.028.096.096c0 .07.01.08.08.08.072 0 .082.01.09.088.007.078.02.09.096.098.076.007.088.02.096.096.007.076.02.088.095.095.076.008.09.02.096.096.008.076.02.088.098.095.08.008.09.018.09.09 0 .07.01.08.08.08.08 0 .11.04.11.138 0 .04.02.053.08.053.072 0 .083.01.09.09.008.077.02.09.096.096.076.008.09.02.096.096.007.076.02.088.097.096.077.007.088.02.088.086 0 .08.04.11.14.11.04 0 .052.02.052.096 0 .09-.007.096-.083.096-.07 0-.085.013-.1.084-.012.064-.034.087-.093.1-.056.01-.08.035-.094.09-.012.058-.038.083-.095.096-.06.013-.08.035-.088.09-.006.054-.03.076-.097.093-.075.02-.09.036-.09.105 0 .066-.01.08-.062.08-.08 0-.13.05-.13.13 0 .05-.013.063-.08.063-.046 0-.083.013-.083.028 0 .018-.026.012-.06-.012s-.082-.043-.108-.043c-.03 0-.05-.026-.056-.075-.006-.063-.022-.077-.096-.084-.082-.008-.09-.016-.09-.103 0-.088-.004-.094-.093-.094-.085 0-.094-.008-.102-.09-.007-.072-.022-.09-.078-.097-.052-.006-.077-.03-.096-.095-.02-.067-.044-.09-.1-.096-.056-.007-.075-.026-.082-.08-.006-.056-.03-.078-.097-.096-.075-.02-.09-.035-.09-.104 0-.075-.007-.08-.095-.08-.09 0-.096-.006-.096-.097 0-.088-.006-.096-.08-.096-.07 0-.086-.015-.105-.09-.02-.068-.04-.09-.096-.097-.055-.007-.074-.026-.08-.082-.007-.055-.03-.08-.097-.1-.065-.018-.09-.043-.095-.095-.007-.056-.025-.07-.098-.078-.08-.008-.088-.017-.088-.103 0-.09-.006-.094-.094-.094-.087 0-.095-.007-.103-.09-.008-.07-.023-.09-.08-.096-.052-.006-.076-.03-.095-.096-.02-.066-.044-.09-.1-.096-.056-.006-.075-.025-.082-.08-.007-.056-.03-.078-.097-.095-.08-.02-.09-.034-.09-.116 0-.085.008-.093.09-.1.073-.008.09-.022.097-.083.007-.057.025-.076.082-.082.056-.007.08-.03.1-.096.02-.067.043-.09.095-.097.057-.007.072-.025.08-.096.006-.076.02-.088.095-.096.076-.006.088-.018.095-.094.008-.076.02-.09.096-.096.07-.007.09-.022.096-.08.01-.077.157-.15.21-.102.013.013.06.023.102.023m-2.71 2.676c.007.062.024.077.096.084.076.007.088.02.096.095.007.076.02.09.096.096.076.01.088.02.095.097.007.072.022.09.084.096.12.014.114.196-.006.196-.075 0-.082.007-.082.095 0 .09-.004.096-.096.096-.087 0-.095.008-.095.08 0 .072-.01.083-.088.09-.078.008-.09.02-.098.096-.007.076-.02.09-.096.096-.076.007-.088.02-.095.097-.008.077-.02.088-.086.088-.08 0-.11.04-.11.14 0 .04-.02.052-.083.052-.073 0-.082.01-.082.082 0 .063-.013.082-.053.082-.1 0-.14.032-.14.11 0 .068-.01.08-.09.087-.077.008-.09.02-.096.097-.008.076-.02.088-.096.095-.076.008-.088.02-.096.098-.007.078-.018.09-.09.09s-.08.007-.08.094c0 .092-.004.096-.095.096-.088 0-.096.007-.096.08 0 .07-.01.082-.088.09-.077.007-.09.02-.097.095-.007.077-.02.09-.096.096-.077.01-.09.02-.097.1-.007.076-.018.088-.086.088-.078 0-.11.04-.11.14 0 .04-.02.05-.082.05-.073 0-.083.01-.083.083 0 .064-.012.083-.052.083-.1 0-.14.032-.14.11 0 .068-.01.08-.088.087-.078.007-.09.02-.097.096-.008.076-.02.088-.096.096-.078.007-.09.02-.097.097-.008.077-.018.088-.09.088-.073 0-.08.008-.08.096 0 .09-.004.096-.095.096-.088 0-.096.006-.096.08 0 .07-.01.08-.09.09-.077.006-.09.018-.096.095-.008.076-.02.088-.096.095-.076.008-.088.02-.096.098-.007.077-.02.09-.086.09-.08 0-.11.04-.11.138 0 .04-.02.052-.083.052-.072 0-.082.01-.082.08 0 .068-.012.08-.096.096-.083.016-.095.03-.095.097 0 .07-.01.082-.09.09-.077.007-.09.02-.097.095-.007.076-.02.088-.096.096-.077.008-.09.02-.096.098-.008.08-.02.09-.09.09-.06 0-.08.012-.08.052 0 .1-.032.14-.112.14-.07 0-.08.01-.08.08s-.01.08-.088.088c-.078.008-.09.02-.098.096-.007.076-.02.088-.095.096-.076.007-.088.02-.095.097-.008.077-.02.09-.086.09-.08 0-.112.04-.112.138 0 .04-.02.053-.082.053-.072 0-.082.01-.082.08 0 .08-.04.11-.14.11-.04 0-.052.02-.052.082 0 .07-.01.08-.09.088-.076.008-.09.02-.096.096-.007.076-.02.09-.096.096-.076.008-.088.02-.096.098-.007.078-.018.088-.09.088-.06 0-.08.013-.08.053 0 .1-.03.138-.11.138-.07 0-.08.01-.08.082 0 .063-.013.082-.053.082-.098 0-.138.032-.138.11 0 .068-.012.08-.09.087-.077.006-.09.018-.096.095-.008.076-.02.088-.096.096-.077.008-.09.02-.096.098-.008.078-.018.09-.09.09-.07 0-.08.01-.08.078 0 .08-.04.112-.138.112-.04 0-.053.02-.053.08 0 .072-.01.082-.09.09-.077.007-.09.02-.096.096-.008.076-.02.088-.096.095-.075.007-.087.02-.095.097-.007.078-.018.09-.088.09-.068 0-.08.01-.097.095-.015.083-.028.095-.097.095-.07 0-.08.01-.08.082 0 .062-.01.08-.05.08-.1 0-.14.034-.14.112 0 .068-.012.08-.09.086-.077.008-.09.02-.097.096-.007.076-.02.088-.095.096-.076.007-.088.02-.095.097-.008.078-.02.09-.09.09-.073 0-.08.007-.08.095 0 .09-.004.096-.095.096-.088 0-.096.006-.096.08 0 .07-.01.08-.09.09-.077.006-.09.02-.097.095-.007.076-.02.088-.095.096-.077.006-.09.018-.096.096-.008.077-.02.09-.086.09-.08 0-.11.04-.11.138 0 .04-.02.053-.083.053-.073 0-.082.01-.082.082 0 .06-.012.08-.053.08-.098 0-.14.033-.14.11 0 .07-.01.08-.087.087-.078.008-.09.02-.098.096-.007.076-.02.09-.096.096-.075.006-.087.02-.095.096-.007.08-.018.09-.09.09s-.08.007-.08.095c0 .092-.003.097-.095.097-.087 0-.095.007-.095.08 0 .07-.01.082-.09.09-.077.007-.09.02-.097.095-.007.076-.02.09-.096.096-.076.007-.088.02-.095.097-.008.078-.02.09-.086.09-.078 0-.11.04-.11.138 0 .04-.02.053-.082.053-.073 0-.082.01-.082.082 0 .063-.013.082-.053.082-.1 0-.14.032-.14.11 0 .068-.01.08-.088.087-.078.007-.09.02-.097.096-.008.076-.02.088-.096.095-.076.008-.088.02-.096.098-.007.078-.018.09-.09.09s-.08.007-.08.094c0 .092-.004.096-.095.096-.087 0-.095.007-.095.08 0 .07-.01.082-.09.09-.076.007-.09.02-.096.095-.008.077-.02.09-.097.097-.076.008-.088.02-.096.098-.007.077-.018.09-.086.09-.077 0-.11.04-.11.138 0 .04-.02.052-.08.052-.074 0-.084.01-.084.082 0 .063-.012.082-.052.082-.1 0-.14.03-.14.11 0 .067-.01.08-.088.086-.078.007-.09.02-.097.096-.01.076-.02.088-.097.096-.077.007-.09.02-.096.097-.008.078-.018.09-.09.09-.073 0-.08.007-.08.095 0 .09-.004.095-.095.095-.088 0-.096.007-.096.08 0 .072-.01.082-.09.09-.077.007-.09.02-.096.096-.008.077-.02.09-.096.096-.076.008-.088.02-.096.098-.007.077-.02.09-.086.09-.08 0-.11.04-.11.138 0 .04-.02.052-.083.052-.073 0-.083.01-.083.08 0 .068-.012.08-.096.096-.082.016-.094.03-.094.097 0 .07-.01.08-.09.088-.077.008-.09.02-.097.096-.008.077-.02.09-.096.097-.077.007-.09.02-.096.097-.008.08-.02.09-.09.09-.06 0-.08.012-.08.052 0 .1-.032.14-.112.14-.07 0-.08.01-.08.08s-.01.08-.088.088c-.078.008-.09.02-.098.096-.007.076-.02.088-.095.096-.077.007-.09.02-.096.097-.01.077-.02.09-.087.09-.08 0-.11.04-.11.138 0 .04-.02.054-.083.054-.072 0-.082.01-.082.08 0 .08-.04.11-.14.11-.04 0-.052.02-.052.08 0 .072-.01.083-.09.09-.076.008-.09.02-.096.096-.007.076-.02.09-.096.096-.076.007-.088.02-.096.098-.007.078-.018.088-.09.088-.068 0-.08.01-.08.076v.075l-.034-.068c-.022-.043-.062-.072-.11-.077-.058-.007-.074-.023-.074-.078 0-.052-.02-.077-.08-.1-.05-.02-.093-.06-.11-.107-.018-.054-.044-.076-.09-.076-.05 0-.07-.022-.09-.09-.02-.067-.046-.092-.11-.104l-.08-.016.095-.012c.08-.01.097-.023.104-.083.005-.054.03-.077.095-.096.066-.02.09-.043.096-.098.007-.056.026-.075.082-.08.055-.008.08-.03.098-.097.02-.065.042-.09.096-.095.06-.007.074-.024.08-.095.008-.077.02-.09.096-.096.076-.008.09-.02.096-.096.007-.076.02-.088.096-.096.07-.007.09-.022.095-.078.005-.052.03-.077.095-.096.067-.02.09-.044.096-.1.008-.056.026-.075.083-.082.06-.007.075-.024.082-.095.008-.075.02-.088.096-.095.077-.007.09-.02.097-.096.007-.077.02-.09.096-.097.072-.007.09-.02.096-.083.005-.058.027-.08.094-.097.067-.018.09-.04.096-.095.006-.055.026-.074.08-.08.056-.007.08-.03.1-.096.018-.066.04-.09.096-.096.058-.007.073-.025.08-.096.007-.076.02-.088.096-.096.076-.007.088-.02.095-.095.008-.077.02-.09.096-.097.07-.007.09-.022.096-.078.005-.052.03-.077.094-.096.067-.02.09-.045.096-.1.007-.058.026-.076.083-.083.06-.007.075-.024.082-.096.007-.075.02-.087.095-.094.076-.008.09-.02.096-.096.008-.076.02-.09.096-.096.072-.007.09-.02.096-.083.007-.058.028-.08.096-.097.066-.017.09-.04.095-.094.006-.056.025-.075.08-.082.056-.006.08-.03.098-.096.02-.066.043-.09.097-.095.058-.007.073-.025.08-.096.007-.075.02-.087.096-.095.077-.007.09-.02.097-.096.007-.077.02-.09.095-.096.07-.007.09-.022.096-.08.006-.05.03-.075.096-.095.066-.02.09-.044.096-.1.006-.057.025-.076.082-.082.057-.007.076-.026.087-.09.01-.066.03-.085.095-.096.07-.012.083-.03.09-.102.008-.075.02-.088.096-.095.074-.007.09-.022.102-.09.01-.066.03-.085.096-.096.064-.012.084-.03.09-.09.007-.056.026-.074.083-.08.057-.007.08-.03.1-.097.02-.065.044-.09.096-.096.056-.006.07-.025.078-.095.008-.076.02-.09.096-.096.076-.007.088-.02.096-.096.007-.076.02-.088.096-.096.07-.006.088-.02.095-.078.006-.052.03-.077.096-.096.067-.02.09-.043.096-.1.006-.056.024-.075.08-.08.06-.008.077-.028.09-.092.01-.065.03-.084.094-.096.07-.01.084-.028.09-.1.008-.077.02-.09.096-.096.073-.008.09-.022.102-.09.01-.066.03-.086.096-.097.064-.012.083-.03.09-.088.006-.057.025-.076.082-.082.056-.007.08-.03.1-.096.02-.065.043-.09.095-.096.057-.007.072-.025.08-.096.006-.076.018-.088.094-.095.075-.008.088-.02.095-.096.008-.075.02-.087.096-.095.072-.007.09-.022.097-.08.006-.054.03-.078.095-.097.067-.02.09-.042.096-.097.007-.055.026-.074.08-.08.056-.007.078-.03.095-.096.018-.068.04-.09.098-.096.063-.007.077-.024.084-.096.007-.076.02-.088.096-.096.076-.007.088-.02.096-.095.007-.076.02-.088.095-.095.073-.007.09-.022.097-.082.007-.057.025-.076.082-.082.055-.006.08-.03.1-.095.018-.066.042-.09.094-.096.057-.008.072-.026.08-.097.006-.076.02-.088.095-.096.075-.007.087-.02.094-.095.008-.076.02-.09.096-.096.07-.007.09-.022.096-.08.006-.054.03-.078.096-.097.066-.02.09-.043.095-.1.007-.054.026-.073.08-.08.056-.006.078-.03.095-.095.018-.068.04-.09.098-.096.062-.008.076-.025.083-.097.008-.076.02-.09.096-.096.075-.007.087-.02.095-.096.007-.075.02-.087.096-.095.072-.006.09-.02.096-.082.007-.057.026-.075.082-.082.056-.005.08-.028.1-.095.02-.065.044-.09.096-.096.056-.007.07-.025.078-.096.007-.076.02-.088.096-.096.076-.007.088-.02.096-.096.007-.076.02-.088.095-.095.07-.007.088-.022.095-.08.006-.055.03-.078.096-.097.067-.02.09-.043.097-.098.006-.056.025-.075.08-.08.056-.008.08-.03.1-.097.017-.066.04-.09.095-.096.06-.008.074-.025.08-.096.008-.077.02-.09.096-.096.076-.008.09-.02.096-.096.007-.076.02-.088.096-.096.07-.007.09-.022.095-.078.006-.052.03-.077.096-.096.068-.02.09-.043.097-.1.007-.056.025-.075.082-.082.06-.006.074-.023.08-.095.01-.076.02-.09.097-.096.076-.008.09-.02.096-.097.007-.076.02-.088.096-.096.07-.007.087-.02.095-.083.006-.058.028-.08.095-.097s.09-.04.096-.095c.006-.055.026-.074.08-.08.056-.007.08-.03.1-.096.018-.066.04-.09.096-.096.058-.007.073-.025.08-.096.007-.076.02-.088.096-.095.075-.01.088-.02.095-.097.008-.076.02-.09.096-.096.07-.007.088-.022.095-.078.006-.053.03-.078.095-.097.067-.02.09-.044.096-.1.007-.057.026-.075.083-.082.06-.006.074-.023.08-.095.008-.076.02-.088.096-.095.076-.008.09-.02.096-.096.008-.076.02-.088.096-.096.072-.007.09-.02.096-.083.007-.058.028-.08.096-.098.066-.017.09-.04.095-.094.007-.055.026-.074.082-.08.055-.007.078-.03.097-.097.02-.066.043-.09.097-.095.06-.006.074-.024.08-.095.008-.076.02-.088.097-.096.076-.008.088-.02.096-.097.007-.076.02-.088.095-.095.07-.007.09-.022.096-.08.006-.05.03-.075.096-.094.066-.02.09-.044.096-.1.006-.057.025-.075.082-.082.057-.007.076-.026.087-.09.01-.065.03-.085.096-.096.07-.012.084-.03.09-.1.01-.077.02-.09.097-.097.073-.008.09-.023.1-.09.012-.067.032-.086.097-.097.064-.01.084-.03.09-.088.007-.057.026-.075.083-.082.056-.006.08-.03.1-.096.018-.065.043-.09.095-.096.056-.005.07-.024.078-.094.008-.076.02-.09.096-.096.076-.007.088-.02.096-.096.007-.076.02-.088.096-.096.07-.006.088-.02.095-.078.006-.052.03-.077.096-.096.066-.02.088-.043.095-.1.006-.056.025-.075.082-.08.057-.008.076-.028.087-.092.012-.065.03-.084.096-.095.07-.012.084-.03.09-.102.008-.076.02-.088.096-.095.073-.007.09-.022.096-.084.008-.066.02-.075.1-.075s.095.01.102.076m2.225 2.225c.013.064.036.087.096.1.06.01.08.033.086.087.007.06.025.074.096.08.076.008.088.02.096.097.007.075.02.09.104.104l.096.017-.09.003c-.077.003-.092.016-.106.087-.013.064-.035.088-.092.1-.055.01-.08.035-.09.09-.012.057-.036.08-.1.092-.07.014-.083.03-.083.1 0 .067-.01.082-.063.082-.08 0-.13.048-.13.128 0 .05-.013.063-.08.063-.07 0-.085.014-.104.09-.018.068-.04.09-.095.097-.053.006-.075.028-.088.087-.013.058-.038.083-.096.096-.06.013-.08.035-.087.09-.008.054-.03.076-.1.094-.074.02-.088.035-.088.104 0 .067-.01.082-.062.082-.08 0-.13.048-.13.128 0 .052-.014.063-.082.063-.07 0-.085.014-.1.085-.012.063-.034.087-.092.098-.055.01-.08.036-.09.09-.012.058-.036.08-.1.093-.07.014-.082.03-.082.1 0 .068-.01.082-.063.082-.08 0-.128.05-.128.13 0 .05-.015.062-.08.062-.07 0-.086.014-.105.09-.018.067-.04.09-.095.096-.054.007-.076.028-.09.087-.012.06-.037.084-.095.096-.06.012-.08.035-.087.09-.007.054-.03.076-.098.093-.075.02-.09.036-.09.105 0 .066-.01.08-.062.08-.08 0-.128.05-.128.13 0 .05-.015.062-.083.062-.072 0-.086.013-.1.084-.013.064-.035.087-.094.1-.056.01-.082.035-.094.09-.012.056-.037.08-.097.092-.068.013-.08.03-.08.1 0 .067-.012.082-.064.082-.08 0-.127.048-.127.128 0 .052-.015.063-.08.063-.07 0-.086.013-.106.088-.017.068-.04.09-.094.098-.054.006-.077.028-.09.087-.012.057-.038.083-.094.095-.058.013-.082.038-.094.094-.01.06-.035.08-.1.094-.07.014-.082.03-.082.1 0 .067-.01.082-.063.082-.08 0-.128.048-.128.13 0 .05-.014.062-.082.062-.07 0-.086.012-.1.083-.013.064-.035.087-.093.1-.057.01-.082.035-.094.09-.012.057-.037.08-.097.092-.068.014-.08.03-.08.1 0 .062-.013.082-.053.082-.1 0-.14.032-.14.112 0 .064-.01.078-.062.078-.034 0-.077.015-.095.033-.018.02-.033.062-.033.097 0 .052-.015.063-.083.063-.07 0-.086.013-.1.08-.012.06-.035.086-.092.098-.055.012-.08.037-.09.093-.013.06-.036.082-.1.095-.07.014-.083.03-.083.1 0 .068-.01.082-.063.082-.035 0-.078.015-.096.033-.018.018-.033.06-.033.096 0 .052-.014.063-.083.063-.07 0-.085.01-.1.082-.012.064-.034.087-.093.1-.056.01-.08.035-.093.09-.013.057-.038.08-.098.092-.067.014-.08.03-.08.1 0 .068-.01.082-.063.082-.035 0-.078.015-.096.033-.018.017-.033.06-.033.095 0 .05-.014.063-.08.063-.08 0-.11.04-.11.14 0 .04-.02.05-.084.05-.07 0-.085.014-.1.082-.01.06-.035.085-.09.097-.056.012-.08.038-.092.094-.012.06-.035.082-.1.094-.07.015-.083.03-.083.1 0 .068-.01.083-.062.083-.035 0-.078.014-.096.032-.018.017-.033.06-.033.095 0 .052-.015.063-.083.063-.07 0-.084.013-.098.084-.013.063-.035.087-.094.1-.056.01-.08.035-.094.09-.012.058-.038.083-.095.096-.06.013-.082.035-.09.09-.004.048-.026.077-.062.083-.082.016-.123.06-.123.132 0 .05-.015.065-.063.065-.08 0-.13.048-.13.13 0 .05-.013.062-.08.062-.07 0-.087.01-.1.08-.012.06-.036.084-.092.096-.055.013-.08.038-.09.094-.013.06-.036.08-.1.094-.07.014-.084.03-.084.1 0 .067-.01.082-.063.082-.034 0-.077.015-.096.033-.018.017-.032.06-.032.094 0 .052-.015.063-.082.063-.068 0-.084.014-.104.09-.018.068-.04.09-.096.097-.053.006-.076.028-.09.087-.012.06-.037.084-.095.097-.06.013-.082.035-.088.09-.006.054-.03.076-.097.094-.076.02-.09.036-.09.105 0 .067-.01.08-.062.08-.035 0-.078.016-.096.034-.018.017-.033.06-.033.095 0 .052-.014.063-.083.063-.07 0-.084.012-.098.083-.013.065-.035.09-.092.1-.055.01-.08.035-.09.09-.012.058-.036.08-.1.093-.07.014-.083.03-.083.1 0 .067-.01.082-.063.082-.035 0-.078.015-.096.033-.018.018-.033.06-.033.096 0 .05-.014.063-.08.063-.07 0-.086.013-.105.09-.018.067-.04.09-.095.096-.054.006-.076.028-.09.087-.012.058-.037.083-.095.096-.06.013-.08.035-.087.09-.007.054-.03.076-.098.094-.075.02-.088.035-.088.104 0 .067-.012.082-.063.082-.035 0-.078.014-.096.032-.018.018-.033.062-.033.096 0 .052-.015.063-.083.063-.07 0-.085.013-.1.084-.012.064-.034.088-.09.1-.057.01-.08.035-.092.09-.012.057-.036.08-.1.092-.07.014-.082.03-.082.1 0 .068-.01.082-.063.082-.035 0-.078.015-.096.033-.02.018-.034.06-.034.096 0 .052-.015.063-.08.063-.07 0-.086.014-.105.09-.017.067-.04.09-.094.096-.054.007-.076.028-.09.087-.012.058-.037.083-.095.095-.058.013-.08.036-.086.09-.007.055-.03.077-.098.094-.075.02-.09.035-.09.103 0 .067-.01.082-.062.082-.034 0-.077.015-.095.033-.02.018-.034.06-.034.095 0 .052-.015.063-.083.063-.07 0-.085.013-.1.084-.012.064-.034.087-.093.1-.056.01-.082.035-.094.09-.012.056-.037.08-.097.092-.07.013-.082.03-.082.1 0 .067-.01.082-.063.082-.034 0-.077.014-.095.032-.018.02-.033.062-.033.096 0 .048-.016.063-.065.063-.073 0-.116.04-.13.123-.007.036-.036.058-.084.064-.055.006-.077.027-.09.087-.013.056-.038.082-.095.094-.057.013-.08.038-.093.094-.01.06-.035.08-.1.094-.07.014-.082.03-.082.1 0 .067-.01.082-.063.082-.035 0-.078.015-.096.033-.02.018-.034.06-.034.096 0 .05-.014.063-.082.063-.07 0-.086.012-.1.083-.013.063-.035.086-.093.098-.055.01-.08.036-.093.09-.012.058-.037.08-.097.093-.068.015-.08.03-.08.1 0 .063-.013.083-.053.083-.1 0-.14.032-.14.112 0 .065-.01.08-.062.08-.035 0-.078.014-.096.032-.02.018-.034.06-.034.096 0 .052-.015.063-.083.063-.07 0-.085.013-.1.08-.01.06-.034.086-.09.098-.056.012-.08.037-.092.093-.01.06-.034.08-.098.094-.07.015-.083.03-.083.1s-.012.083-.064.083c-.08 0-.13.05-.13.13 0 .05-.013.062-.082.062-.07 0-.085.012-.1.082-.013.07-.028.082-.102.082-.07 0-.09-.016-.117-.083-.023-.062-.048-.082-.102-.082-.055 0-.07-.014-.07-.063 0-.08-.05-.13-.13-.13-.047 0-.062-.014-.062-.062 0-.076-.046-.127-.12-.132-.037-.002-.028-.01.025-.02.063-.013.084-.035.09-.09.007-.055.028-.075.09-.088.062-.012.085-.035.097-.096.012-.06.035-.083.096-.096.06-.012.084-.035.096-.097.013-.06.033-.082.088-.088.056-.007.075-.027.086-.09.012-.066.03-.085.096-.096.064-.01.084-.03.09-.086.007-.054.03-.078.096-.097.066-.018.09-.042.096-.096.006-.054.028-.075.09-.087.062-.013.084-.035.097-.098.012-.06.033-.083.087-.09.054-.005.078-.03.097-.095.018-.066.042-.09.096-.096.056-.005.075-.025.086-.09.01-.064.03-.084.095-.095.063-.01.083-.03.09-.084.006-.05.03-.075.096-.094.066-.02.09-.044.096-.098.007-.056.028-.076.09-.09.063-.01.085-.033.097-.096.013-.06.034-.083.087-.09.053-.006.076-.03.093-.095.018-.068.04-.09.097-.096.06-.006.077-.024.084-.082.007-.06.028-.08.096-.098.066-.017.09-.04.095-.093.007-.053.028-.074.09-.086.062-.012.085-.034.097-.097.013-.062.033-.083.088-.09.053-.006.077-.03.096-.095.02-.066.042-.09.096-.096.056-.006.075-.027.086-.09.01-.065.03-.085.096-.096.063-.01.084-.03.09-.086.006-.054.03-.077.096-.096.066-.02.09-.043.096-.096.006-.055.027-.076.09-.088.062-.012.084-.035.097-.097.012-.062.033-.083.086-.09.053-.006.075-.03.092-.095.018-.068.04-.09.098-.096.058-.007.077-.025.083-.084.007-.058.028-.08.096-.097.065-.016.088-.04.095-.092.006-.053.028-.074.09-.087.062-.01.084-.033.096-.096.014-.062.035-.083.09-.09.053-.006.076-.03.095-.095.02-.067.043-.09.097-.097.055-.007.074-.027.085-.09.01-.065.03-.085.096-.096.064-.01.084-.03.09-.086.007-.053.03-.077.096-.096.065-.018.09-.042.095-.096.006-.054.028-.075.09-.087.062-.012.084-.034.097-.097.012-.06.033-.083.087-.09.052-.005.075-.03.092-.095.017-.067.04-.09.097-.095.058-.007.076-.025.083-.084.006-.06.028-.08.095-.098.066-.017.09-.04.096-.093.006-.055.028-.076.09-.088.062-.013.084-.035.097-.097.013-.062.034-.083.088-.09.054-.006.078-.03.096-.096.02-.067.043-.09.097-.096.056-.007.076-.027.087-.09.01-.066.03-.085.096-.097.063-.01.083-.03.09-.085.006-.054.03-.078.095-.097.066-.02.09-.042.096-.096.007-.055.028-.076.09-.088.062-.013.085-.035.097-.098.013-.06.034-.083.088-.09.053-.006.076-.03.093-.095.018-.07.04-.09.098-.097.06-.006.077-.024.084-.083.007-.058.028-.08.096-.097.066-.017.09-.04.095-.094.006-.054.028-.075.09-.087.062-.013.084-.035.097-.098.012-.06.033-.083.087-.09.054-.005.078-.03.097-.095.018-.066.042-.09.096-.096.056-.006.075-.027.086-.09.01-.065.03-.085.096-.096.063-.01.084-.03.09-.085.006-.054.03-.078.096-.097.065-.02.09-.043.095-.096.007-.054.028-.075.09-.088.063-.012.085-.034.097-.097.013-.062.034-.083.087-.09.054-.006.076-.03.093-.095.018-.068.04-.09.097-.096.06-.007.077-.025.084-.083.008-.058.03-.08.097-.097.066-.017.09-.04.095-.093.007-.053.028-.074.09-.087.062-.012.085-.034.097-.096.01-.06.034-.083.095-.095.06-.013.083-.035.096-.097.013-.063.034-.084.09-.09.055-.006.074-.027.085-.09.01-.065.03-.085.096-.096.064-.012.085-.03.09-.087.007-.054.03-.077.097-.096.066-.02.09-.043.096-.096.006-.054.028-.075.09-.087.062-.013.084-.035.097-.097.012-.062.033-.083.087-.09.054-.006.078-.03.096-.096.02-.066.043-.09.097-.095.055-.007.075-.027.086-.09.01-.066.03-.085.095-.096.065-.012.085-.032.092-.088.006-.055.027-.075.09-.088.06-.012.084-.035.096-.096.012-.06.035-.083.096-.096.06-.012.084-.034.096-.097.013-.062.033-.083.088-.09.056-.006.075-.026.086-.09.01-.065.03-.084.096-.095.064-.01.084-.03.09-.086.007-.054.03-.078.096-.097.066-.018.09-.042.096-.096.006-.053.028-.074.09-.086.062-.013.084-.035.097-.098.01-.06.032-.083.086-.09.054-.005.078-.03.097-.095.018-.065.042-.088.096-.095.055-.006.074-.026.085-.09.01-.065.03-.085.096-.096.064-.012.084-.03.09-.087.007-.055.028-.076.09-.088.063-.012.085-.035.097-.096.013-.062.036-.085.096-.097.06-.012.084-.035.096-.097.012-.06.033-.083.086-.09.053-.006.076-.03.093-.095.016-.067.038-.088.096-.095.06-.006.077-.025.084-.083.007-.06.028-.08.096-.098.066-.017.09-.04.095-.093.008-.052.03-.073.09-.085.063-.013.086-.035.098-.098.012-.062.033-.083.088-.09.053-.006.077-.03.096-.095.02-.066.042-.09.096-.096.056-.006.075-.027.086-.09.01-.065.03-.085.096-.096.063-.01.084-.03.09-.086.006-.054.03-.077.096-.096.066-.02.09-.043.096-.096.006-.055.027-.076.09-.088.062-.012.084-.035.097-.097.01-.062.032-.083.085-.09.054-.006.076-.03.093-.095.018-.068.04-.09.098-.096.058-.007.077-.025.083-.084.006-.058.027-.08.095-.097.066-.017.09-.04.096-.093.007-.053.03-.074.09-.087.063-.012.085-.034.097-.097.013-.062.034-.083.088-.09.053-.006.077-.03.096-.095.02-.066.044-.09.098-.096.055-.007.074-.027.085-.09.01-.065.03-.085.096-.096.063-.01.083-.03.09-.085.006-.054.03-.078.095-.096.066-.02.09-.044.096-.098.007-.054.03-.075.09-.087.063-.013.085-.035.098-.098.012-.06.033-.083.087-.09.053-.005.076-.03.093-.095.017-.067.04-.09.097-.095.06-.007.077-.025.084-.084.005-.058.027-.08.094-.097.066-.017.09-.04.096-.093.006-.054.028-.075.09-.087.062-.013.084-.035.097-.097.012-.063.033-.084.087-.09.054-.007.078-.03.096-.097.02-.066.043-.09.097-.095.055-.007.075-.027.086-.09.01-.066.03-.085.095-.096.065-.012.084-.03.09-.09.015-.118.185-.11.21.01m-29.014.482c-.073.01-.092.026-.106.092l-.016.08h-.322c-.382 0-.41.008-.41.112v.08h-.547v.189l-.28.008-.28.008-.01.075c-.007.065-.02.075-.098.075-.295 0-.43.033-.444.11-.013.068-.028.076-.16.09-.18.02-.205.032-.205.117 0 .062-.01.066-.138.066-.173 0-.245.037-.245.125 0 .06-.012.068-.095.068-.092 0-.096.005-.096.096v.096h-.175c-.172 0-.176 0-.193.08-.016.073-.03.08-.18.098-.154.017-.166.024-.18.097-.013.063-.033.08-.102.086-.074.008-.087.02-.094.096-.008.076-.02.09-.096.096-.077.007-.09.02-.096.097-.01.087-.01.088-.152.088-.157 0-.21.033-.21.13 0 .046-.014.062-.062.062-.074 0-.128.047-.128.11 0 .03-.03.053-.083.064-.066.013-.087.034-.1.1-.014.068-.03.082-.094.082-.067 0-.08.013-.096.095-.015.085-.028.097-.097.097-.072 0-.08.01-.08.096 0 .09-.003.096-.095.096-.087 0-.095.006-.095.078 0 .07-.013.08-.096.097-.083.015-.096.028-.096.096 0 .063-.016.085-.08.108-.057.02-.083.047-.083.085 0 .032-.022.064-.048.072-.11.034-.132.064-.16.22-.024.146-.034.16-.102.17-.062.006-.074.02-.074.088 0 .06-.013.08-.053.08-.097 0-.138.032-.138.11 0 .063-.015.08-.08.095-.087.02-.11.072-.11.252 0 .11-.006.115-.09.123-.09.01-.09.01-.097.18-.008.17-.01.17-.09.17-.072 0-.08.01-.08.09s-.012.095-.09.117c-.086.026-.088.03-.096.197-.01.16-.013.17-.075.17-.084 0-.123.074-.123.23 0 .113-.006.124-.08.14-.09.02-.112.086-.112.358 0 .168-.002.173-.08.19-.086.02-.11.07-.11.247 0 .098-.01.114-.083.142l-.082.03v.686l-.09.01-.088.007-.008.36-.01.362-.087.008-.088.008-.007.828-.007.828h-.066c-.11 0-.124.072-.122.58 0 .607.015.69.114.7l.075.01.002.675c0 .773.002.787.11.81l.08.014v.355c0 .375.005.387.14.387.05 0 .053.023.053.344v.345l.082.03c.08.032.082.035.082.24 0 .34-.01.328.287.328h.255l.017-.08c.013-.06.037-.085.097-.098.066-.015.08-.032.08-.096 0-.07.012-.08.09-.087.077-.008.09-.02.097-.096.007-.075.02-.087.096-.095.076-.007.088-.02.096-.097.007-.077.018-.09.086-.09.078 0 .11-.04.11-.138 0-.04.02-.053.08-.053.067 0 .082-.012.09-.073.006-.057.028-.08.097-.097.074-.02.088-.036.088-.102 0-.07.01-.08.09-.088.077-.008.09-.02.096-.096.008-.075.02-.088.096-.095.076-.007.09-.02.096-.098.008-.078.018-.088.09-.088.068 0 .083-.014.097-.085.013-.064.035-.087.095-.1.064-.012.08-.03.08-.092 0-.067.01-.078.088-.085.078-.008.09-.02.097-.096.008-.076.02-.09.096-.096.075-.007.087-.02.095-.097.007-.08.02-.09.086-.09.08 0 .112-.04.112-.14 0-.04.02-.052.078-.052.065 0 .082-.014.095-.078.012-.06.034-.082.1-.095.07-.014.082-.03.082-.098 0-.07.01-.082.09-.09.077-.007.09-.02.097-.096.007-.075.02-.087.095-.094.076-.008.088-.02.095-.098.008-.078.02-.09.09-.09.068 0 .084-.012.098-.082.012-.064.034-.087.095-.1.064-.012.078-.03.078-.094 0-.06.013-.078.053-.078.097 0 .138-.032.138-.11 0-.068.01-.08.09-.087.076-.008.09-.02.096-.096.007-.075.02-.087.096-.095.076-.007.088-.02.096-.097.007-.077.018-.09.085-.09.064 0 .08-.013.094-.078.012-.06.035-.082.1-.095.07-.014.083-.03.083-.097 0-.072.01-.082.088-.09.078-.007.09-.02.098-.096.007-.076.02-.088.096-.096.075-.007.087-.02.095-.097.007-.08.018-.09.088-.09.066 0 .083-.014.102-.09.018-.068.04-.09.097-.096.06-.008.073-.023.073-.09 0-.06.013-.08.053-.08.1 0 .14-.032.14-.11 0-.068.01-.08.088-.086.078-.008.09-.02.097-.096.008-.076.02-.09.096-.096.075-.007.087-.02.095-.097.007-.08.018-.09.087-.09.064 0 .08-.015.095-.08.014-.06.038-.085.098-.1.066-.013.08-.03.08-.094 0-.07.012-.08.09-.087.078-.01.09-.02.097-.097.008-.076.02-.088.096-.096.076-.007.088-.02.096-.097.007-.078.018-.09.088-.09.067 0 .083-.013.102-.088.018-.07.04-.09.097-.098.062-.007.075-.022.075-.09 0-.06.012-.08.052-.08.1 0 .14-.03.14-.11 0-.067.01-.078.088-.086.078-.007.09-.02.098-.096.007-.076.02-.088.095-.095.077-.008.09-.02.096-.098.008-.078.02-.09.087-.09.065 0 .082-.014.097-.08.013-.06.037-.085.098-.098.066-.014.08-.032.08-.096 0-.068.01-.08.09-.086.077-.008.09-.02.096-.096.01-.076.02-.09.097-.096.077-.008.09-.02.096-.098.007-.077.02-.088.086-.088.078 0 .11-.04.11-.14 0-.04.02-.052.082-.052.073 0 .082-.01.082-.082 0-.063.012-.082.052-.082.1 0 .14-.032.14-.11 0-.068.01-.08.088-.087.078-.008.09-.02.098-.097.007-.076.02-.088.096-.096.076-.007.088-.02.095-.097.008-.078.02-.09.087-.09.064 0 .082-.013.096-.08.013-.06.038-.084.098-.097.066-.015.08-.032.08-.096 0-.068.012-.08.09-.087.077-.007.09-.02.097-.096.008-.076.02-.088.096-.095.077-.01.09-.02.096-.1.008-.076.02-.088.086-.088.08 0 .11-.04.11-.14 0-.04.02-.05.08-.05.068 0 .083-.014.09-.075.007-.057.03-.08.098-.097.074-.02.09-.035.09-.102 0-.07.01-.08.088-.088.077-.008.09-.02.097-.096.008-.076.02-.088.097-.096.076-.007.088-.02.096-.097.007-.077.018-.088.086-.088.064 0 .08-.015.095-.08.014-.06.038-.085.098-.098.066-.015.08-.032.08-.096 0-.068.012-.08.09-.087.077-.006.09-.02.097-.095.007-.076.02-.088.096-.096.076-.008.088-.02.095-.096.01-.077.02-.09.097-.096.077-.008.09-.02.096-.098.008-.077.02-.09.087-.09.065 0 .08-.01.087-.072.007-.057.03-.08.098-.097.075-.018.09-.034.09-.1 0-.07.01-.082.088-.09.078-.007.09-.02.097-.095.008-.076.02-.09.096-.096.076-.008.088-.02.096-.098.008-.08.018-.09.09-.09.068 0 .083-.012.097-.083.012-.065.034-.088.094-.1.064-.013.08-.03.08-.093 0-.067.01-.078.088-.085.078-.008.09-.02.097-.096.007-.076.02-.09.095-.096.076-.007.088-.02.096-.097.008-.078.02-.09.087-.09.078 0 .11-.04.11-.138 0-.04.02-.053.08-.053.064 0 .08-.014.094-.078.013-.06.035-.082.1-.095.07-.015.083-.03.083-.1s.01-.08.09-.09l.088-.007v-.52l-.36-.008c-.336-.007-.364-.01-.364-.06 0-.133-.012-.137-.386-.137h-.353v-.082c0-.102-.024-.108-.437-.117-.31-.008-.313-.008-.33-.076-.01-.048-.04-.074-.096-.086-.087-.018-3.88-.022-4.03-.004m2.107 2.13c-.01.083-.02.094-.09.094-.068 0-.078.01-.078.08 0 .068-.013.08-.096.096s-.096.03-.096.097c0 .07-.01.082-.09.09-.077.007-.09.02-.096.095-.008.076-.02.09-.096.096-.076.008-.088.02-.096.098-.007.078-.02.09-.086.09-.08 0-.11.04-.11.138 0 .04-.02.053-.083.053-.072 0-.082.008-.082.08 0 .07-.01.08-.088.088-.078.008-.09.02-.097.096-.007.076-.02.088-.096.096-.077.007-.09.02-.097.096-.007.076-.02.088-.095.095-.077.01-.09.02-.096.1-.008.077-.02.088-.09.088-.065 0-.08.01-.08.063 0 .08-.048.13-.128.13-.052 0-.063.014-.063.08 0 .07-.01.08-.088.088-.078.008-.09.02-.098.096-.007.076-.02.09-.095.096-.077.008-.09.02-.097.096-.007.076-.02.088-.096.096-.076.007-.088.02-.096.097-.006.077-.017.088-.088.088-.07 0-.08.01-.08.08s-.01.082-.09.09c-.077.007-.09.02-.096.095-.008.076-.02.09-.096.096-.076.006-.09.02-.096.095-.007.076-.02.088-.096.096-.076.008-.088.02-.096.098-.007.078-.018.09-.09.09-.064 0-.08.01-.08.062 0 .08-.047.128-.127.128-.052 0-.063.015-.063.08 0 .072-.01.082-.09.09-.077.007-.09.02-.097.096-.007.076-.02.088-.096.095-.076.007-.09.02-.096.095-.008.076-.02.09-.096.096-.076.008-.088.02-.096.098-.008.08-.018.09-.09.09-.07 0-.08.01-.08.08 0 .064-.012.084-.052.084-.1 0-.14.032-.14.11 0 .068-.01.08-.088.086-.078.008-.09.02-.097.096-.008.076-.02.088-.096.096-.077.007-.09.02-.097.097-.007.078-.018.09-.088.09-.068 0-.08.012-.097.095-.015.083-.028.096-.097.096-.068 0-.078.01-.078.08s-.01.08-.09.09c-.076.007-.09.02-.096.095-.007.076-.02.088-.096.096-.076.006-.088.02-.096.094-.007.077-.02.09-.095.096-.078.008-.09.02-.097.098-.008.078-.018.09-.09.09-.07 0-.08.008-.08.08 0 .063-.012.083-.052.083-.098 0-.138.033-.138.11 0 .07-.012.08-.09.087-.077.008-.09.02-.096.096-.008.076-.02.09-.096.096-.077.006-.09.02-.096.096-.008.078-.02.09-.086.09-.08 0-.11.04-.11.138 0 .04-.02.053-.083.053-.072 0-.082.01-.082.08s-.01.082-.09.09c-.077.007-.09.02-.096.095-.008.076-.02.09-.096.096-.075.007-.087.02-.095.096-.007.076-.02.088-.096.095-.077.007-.09.02-.097.097-.007.078-.018.09-.088.09-.07 0-.08.008-.08.08 0 .064-.013.083-.053.083-.1 0-.14.032-.14.11 0 .068-.01.08-.088.087-.078.007-.09.02-.098.096-.007.076-.02.088-.095.095-.076.008-.088.02-.095.098-.008.077-.02.09-.086.09-.08 0-.112.04-.112.138 0 .04-.02.052-.082.052h-.082v-1.5l.075-.01.074-.01.008-.36c.007-.323.013-.364.055-.364.108 0 .128-.045.143-.306.013-.25.014-.255.086-.263.09-.01.104-.06.105-.34v-.213h.08c.084 0 .113-.064.113-.26 0-.076.01-.09.082-.105.08-.016.082-.018.082-.195 0-.168.004-.178.063-.178.096 0 .128-.053.128-.21 0-.14 0-.143.09-.15l.088-.01.008-.183.008-.184.088-.01c.077-.006.09-.018.096-.096.008-.078.02-.09.088-.09.07 0 .082-.01.097-.093.015-.076.033-.096.09-.103.07-.008.074-.017.082-.18l.008-.17h.094c.09 0 .095-.005.095-.096 0-.09.003-.096.095-.096.088 0 .095-.006.095-.08 0-.07.014-.086.09-.105.068-.018.09-.04.097-.097.007-.06.022-.073.09-.073.072 0 .08-.01.08-.096 0-.09.004-.095.095-.095.09 0 .096-.005.096-.096 0-.092.004-.097.095-.097.092 0 .096-.004.096-.095 0-.092.004-.096.095-.096.087 0 .096-.007.096-.078 0-.076.007-.08.172-.103.158-.022.172-.03.18-.097.006-.06.023-.075.095-.082.076-.006.088-.02.096-.097.008-.086.01-.088.14-.088.184 0 .22-.02.22-.113 0-.072.01-.08.097-.08.087 0 .095-.006.095-.078 0-.077.005-.08.185-.103.174-.02.185-.026.193-.097.008-.07.02-.076.124-.076.18 0 .233-.024.243-.105.007-.07.018-.073.186-.086.177-.014.178-.014.186-.102l.01-.088.264-.008.265-.008.01-.088.008-.087.28-.008.278-.008.008-.076.01-.076.32-.002c.47-.003.563-.02.573-.114l.01-.075h1.324l-.01.096m6.035 15.295c.075.017.09.032.09.1 0 .073.007.08.094.08.093 0 .097.004.097.095 0 .092.005.096.096.096.09 0 .096.004.096.095 0 .088.005.096.08.096.068 0 .083.012.083.064 0 .08.048.128.128.128.053 0 .064.015.064.082 0 .076.008.082.096.082.09 0 .096.005.096.096 0 .09.004.096.096.096.09 0 .096.005.096.094v.095l-.185.008-.185.008-.01.09-.007.088h-.545c-.52 0-.545.003-.545.054 0 .1-.032.14-.113.14h-.08v-.29c0-.257.006-.286.05-.286.106 0 .115-.047.115-.594v-.528h.067c.036 0 .074-.014.085-.03.012-.02.025-.02.036-.004.01.015.058.036.107.046m.285 7.527c-.01.088-.018.096-.104.096-.084 0-.092.008-.092.08 0 .074-.007.078-.17.102-.158.022-.173.03-.18.096-.007.054-.03.078-.097.096-.086.025-.088.03-.096.196l-.008.17h-.095c-.088 0-.093.004-.093.095 0 .084-.01.096-.07.096-.09 0-.122.087-.122.345v.203h-.08c-.11 0-.11.016-.11.862.002.88.01.955.114.967.07.008.073.015.08.19l.01.184.087.01c.087.008.087.01.095.176.008.164.01.168.097.19.075.02.088.036.088.105 0 .072.01.082.08.082.068 0 .08.013.096.096.016.084.028.096.1.096.06 0 .08.012.08.052 0 .1.032.14.11.14.063 0 .08.014.095.08.012.06.035.083.09.092.04.006-3.223.013-7.252.015l-7.325.004-.01-.09c-.006-.077-.018-.09-.094-.096-.073-.006-.09-.02-.097-.082-.007-.057-.025-.075-.084-.082-.068-.008-.076-.02-.076-.113 0-.21-.027-.275-.113-.275h-.078V47.78h15.232l-.012.095m18.165 2.04v2.133h-.078c-.088 0-.114.065-.114.275 0 .094-.008.105-.075.113-.058.007-.077.025-.083.082-.007.06-.024.076-.096.083-.075.008-.087.02-.095.098l-.008.09-7.326-.005c-4.027-.002-7.29-.01-7.25-.015.055-.01.078-.032.09-.092.015-.066.032-.08.095-.08.08 0 .11-.04.11-.14 0-.04.02-.052.082-.052.07 0 .083-.012.098-.096.016-.083.03-.096.097-.096.07 0 .08-.01.08-.08s.013-.086.088-.105c.087-.023.09-.027.097-.19.008-.168.01-.17.096-.177l.088-.01.01-.182c.007-.176.01-.183.08-.19.104-.013.113-.088.114-.968.002-.846 0-.862-.11-.862h-.08v-.203c0-.258-.03-.344-.122-.344-.06 0-.07-.01-.07-.095 0-.09-.004-.095-.093-.095h-.096l-.008-.17c-.008-.166-.01-.17-.096-.196-.066-.018-.09-.042-.096-.096-.007-.066-.022-.074-.18-.096-.163-.024-.17-.028-.17-.103 0-.072-.01-.08-.093-.08-.084 0-.092-.007-.103-.095l-.01-.096h15.23v2.134m-16.31-.192c0 .072.01.082.08.082.075 0 .08.006.097.166.017.153.025.17.1.195.13.045.123.365-.01.4-.067.017-.09.04-.097.093-.006.053-.028.074-.088.086-.07.014-.082.03-.082.1 0 .082 0 .082-.16.082-.086 0-.172.015-.19.033-.026.025-.04.025-.066 0-.018-.02-.104-.034-.192-.034-.158 0-.158 0-.158-.083 0-.07-.013-.085-.08-.1-.062-.01-.084-.032-.09-.085-.006-.054-.03-.076-.097-.094-.133-.034-.14-.354-.01-.4.075-.025.084-.04.1-.194.02-.16.022-.166.098-.166.07 0 .08-.01.08-.082v-.082h.765v.082" stroke="null"/></g></svg>
