<svg id="SvgjsSvg1000" xmlns="http://www.w3.org/2000/svg" version="1.1" xmlns:xlink="http://www.w3.org/1999/xlink" xmlns:svgjs="http://svgjs.com/svgjs" width="50" height="50" viewBox="0 0 50 50"><title>Shape 1</title><desc>Created with Avocode.</desc><defs id="SvgjsDefs1001"><linearGradient id="SvgjsLinearGradient1009" gradientUnits="userSpaceOnUse" x1="760.9819275681326" y1="237.25" x2="725.0180724318673" y2="286.75"><stop id="SvgjsStop1010" stop-opacity="1" stop-color="#3d3daf" offset="0"></stop><stop id="SvgjsStop1011" stop-opacity="1" stop-color="#3d3daf" offset="0.45"></stop><stop id="SvgjsStop1012" stop-opacity="1" stop-color="#c741ba" offset="1"></stop></linearGradient></defs><path id="SvgjsPath1007" d="M759.667 245.333H749.667C747.369 245.333 745.5 247.202 745.5 249.5V251.167C745.5 253.464 747.369 255.333 749.667 255.333H759.667C761.964 255.333 763.8330000000001 253.464 763.8330000000001 251.167V249.5C763.8330000000001 247.202 761.964 245.333 759.667 245.333ZM762.167 251.167C762.167 252.545 761.0450000000001 253.667 759.667 253.667H749.667C748.288 253.667 747.167 252.545 747.167 251.167V249.5C747.167 248.122 748.288 247 749.667 247H759.667C761.0450000000001 247 762.167 248.122 762.167 249.5ZM762.167 257H747.167C746.2470000000001 257 745.5 257.747 745.5 258.666V260.33299999999997C745.5 261.25199999999995 746.247 261.99999999999994 747.167 261.99999999999994H762.167C763.086 261.99999999999994 763.8330000000001 261.25199999999995 763.8330000000001 260.33299999999997V258.666C763.8330000000001 257.747 763.0860000000001 257 762.167 257ZM757.167 258.666V260.33299999999997H752.167V258.666ZM747.167 258.666H750.5V260.33299999999997H747.167ZM758.833 260.333V258.66600000000005H762.1669999999999L762.1679999999999 260.333ZM762.167 263.667H747.167C746.2470000000001 263.667 745.5 264.414 745.5 265.33299999999997V266.99999999999994C745.5 267.9189999999999 746.247 268.6669999999999 747.167 268.6669999999999H762.167C763.086 268.6669999999999 763.8330000000001 267.9189999999999 763.8330000000001 266.99999999999994V265.33299999999997C763.8330000000001 264.414 763.0860000000001 263.667 762.167 263.667ZM757.167 267H752.167V265.333H757.167ZM747.167 265.333H750.5V267H747.167ZM758.833 267V265.333H762.1669999999999L762.1679999999999 267ZM762.167 270.333H747.167C746.2470000000001 270.333 745.5 271.081 745.5 272V273.666C745.5 274.586 746.247 275.33299999999997 747.167 275.33299999999997H762.167C763.086 275.33299999999997 763.8330000000001 274.58599999999996 763.8330000000001 273.666V272C763.8330000000001 271.081 763.0860000000001 270.333 762.167 270.333ZM757.167 272V273.666H752.167V272ZM747.167 272H750.5V273.666H747.167ZM758.833 272H762.1669999999999L762.1679999999999 273.666H758.8329999999999ZM765.5 241.167H735.5V239.5C735.5 238.122 734.378 237 733 237H724.667C723.288 237 722.167 238.122 722.167 239.5V241.167H720.5C719.122 241.167 718 242.288 718 243.666V277C718 278.378 719.122 279.5 720.5 279.5H722.167V281.167C722.167 282.54499999999996 723.288 283.667 724.667 283.667H728.0840000000001C728.471 285.566 730.1540000000001 287 732.167 287C732.206 287 732.246 286.997 732.284 286.991L736.366 286.409C737.6999999999999 286.218 738.91 285.542 739.773 284.507L741.74 282.148C742.373 281.38800000000003 742.783 280.46900000000005 742.934 279.5H765.5C766.878 279.5 768 278.378 768 277V243.666C768 242.288 766.878 241.167 765.5 241.167ZM719.667 277V243.666C719.667 243.206 720.041 242.833 720.5 242.833H722.167V277.83299999999997H720.5C720.041 277.83299999999997 719.667 277.46 719.667 276.99999999999994ZM723.833 281.167V239.49999999999997C723.833 239.03999999999996 724.207 238.66699999999997 724.6669999999999 238.66699999999997H732.9999999999999C733.4589999999998 238.66699999999997 733.8329999999999 239.03999999999996 733.8329999999999 239.49999999999997V281.167C733.8329999999999 281.62699999999995 733.4589999999998 282 732.9999999999999 282H724.6669999999999C724.2069999999999 282 723.833 281.627 723.833 281.167ZM740.46 281.08L738.493 283.441C737.8950000000001 284.15799999999996 737.0550000000001 284.62699999999995 736.13 284.75899999999996L732.112 285.33199999999994C731.049 285.30999999999995 730.1479999999999 284.61999999999995 729.81 283.6669999999999H733C734.378 283.6669999999999 735.5 282.5449999999999 735.5 281.1669999999999V279.49999999999994H741.239C741.1080000000001 280.07699999999994 740.842 280.61999999999995 740.46 281.0799999999999ZM766.333 277C766.333 277.46 765.9599999999999 277.833 765.5 277.833H735.5V242.83300000000003H765.5C765.96 242.83300000000003 766.333 243.20600000000002 766.333 243.66600000000003ZM753 249.5H751.333C750.8729999999999 249.5 750.5 249.872 750.5 250.333C750.5 250.794 750.873 251.167 751.333 251.167H753C753.46 251.167 753.833 250.794 753.833 250.333C753.833 249.87199999999999 753.4599999999999 249.5 753 249.5ZM758 249.5H756.333C755.8729999999999 249.5 755.5 249.872 755.5 250.333C755.5 250.794 755.873 251.167 756.333 251.167H758C758.461 251.167 758.833 250.794 758.833 250.333C758.833 249.87199999999999 758.461 249.5 758 249.5Z " fill="#000000" fill-opacity="1" transform="matrix(1,0,0,1,-718,-237)"></path><path id="SvgjsPath1008" d="M759.667 245.333H749.667C747.369 245.333 745.5 247.202 745.5 249.5V251.167C745.5 253.464 747.369 255.333 749.667 255.333H759.667C761.964 255.333 763.8330000000001 253.464 763.8330000000001 251.167V249.5C763.8330000000001 247.202 761.964 245.333 759.667 245.333ZM762.167 251.167C762.167 252.545 761.0450000000001 253.667 759.667 253.667H749.667C748.288 253.667 747.167 252.545 747.167 251.167V249.5C747.167 248.122 748.288 247 749.667 247H759.667C761.0450000000001 247 762.167 248.122 762.167 249.5ZM762.167 257H747.167C746.2470000000001 257 745.5 257.747 745.5 258.666V260.33299999999997C745.5 261.25199999999995 746.247 261.99999999999994 747.167 261.99999999999994H762.167C763.086 261.99999999999994 763.8330000000001 261.25199999999995 763.8330000000001 260.33299999999997V258.666C763.8330000000001 257.747 763.0860000000001 257 762.167 257ZM757.167 258.666V260.33299999999997H752.167V258.666ZM747.167 258.666H750.5V260.33299999999997H747.167ZM758.833 260.333V258.66600000000005H762.1669999999999L762.1679999999999 260.333ZM762.167 263.667H747.167C746.2470000000001 263.667 745.5 264.414 745.5 265.33299999999997V266.99999999999994C745.5 267.9189999999999 746.247 268.6669999999999 747.167 268.6669999999999H762.167C763.086 268.6669999999999 763.8330000000001 267.9189999999999 763.8330000000001 266.99999999999994V265.33299999999997C763.8330000000001 264.414 763.0860000000001 263.667 762.167 263.667ZM757.167 267H752.167V265.333H757.167ZM747.167 265.333H750.5V267H747.167ZM758.833 267V265.333H762.1669999999999L762.1679999999999 267ZM762.167 270.333H747.167C746.2470000000001 270.333 745.5 271.081 745.5 272V273.666C745.5 274.586 746.247 275.33299999999997 747.167 275.33299999999997H762.167C763.086 275.33299999999997 763.8330000000001 274.58599999999996 763.8330000000001 273.666V272C763.8330000000001 271.081 763.0860000000001 270.333 762.167 270.333ZM757.167 272V273.666H752.167V272ZM747.167 272H750.5V273.666H747.167ZM758.833 272H762.1669999999999L762.1679999999999 273.666H758.8329999999999ZM765.5 241.167H735.5V239.5C735.5 238.122 734.378 237 733 237H724.667C723.288 237 722.167 238.122 722.167 239.5V241.167H720.5C719.122 241.167 718 242.288 718 243.666V277C718 278.378 719.122 279.5 720.5 279.5H722.167V281.167C722.167 282.54499999999996 723.288 283.667 724.667 283.667H728.0840000000001C728.471 285.566 730.1540000000001 287 732.167 287C732.206 287 732.246 286.997 732.284 286.991L736.366 286.409C737.6999999999999 286.218 738.91 285.542 739.773 284.507L741.74 282.148C742.373 281.38800000000003 742.783 280.46900000000005 742.934 279.5H765.5C766.878 279.5 768 278.378 768 277V243.666C768 242.288 766.878 241.167 765.5 241.167ZM719.667 277V243.666C719.667 243.206 720.041 242.833 720.5 242.833H722.167V277.83299999999997H720.5C720.041 277.83299999999997 719.667 277.46 719.667 276.99999999999994ZM723.833 281.167V239.49999999999997C723.833 239.03999999999996 724.207 238.66699999999997 724.6669999999999 238.66699999999997H732.9999999999999C733.4589999999998 238.66699999999997 733.8329999999999 239.03999999999996 733.8329999999999 239.49999999999997V281.167C733.8329999999999 281.62699999999995 733.4589999999998 282 732.9999999999999 282H724.6669999999999C724.2069999999999 282 723.833 281.627 723.833 281.167ZM740.46 281.08L738.493 283.441C737.8950000000001 284.15799999999996 737.0550000000001 284.62699999999995 736.13 284.75899999999996L732.112 285.33199999999994C731.049 285.30999999999995 730.1479999999999 284.61999999999995 729.81 283.6669999999999H733C734.378 283.6669999999999 735.5 282.5449999999999 735.5 281.1669999999999V279.49999999999994H741.239C741.1080000000001 280.07699999999994 740.842 280.61999999999995 740.46 281.0799999999999ZM766.333 277C766.333 277.46 765.9599999999999 277.833 765.5 277.833H735.5V242.83300000000003H765.5C765.96 242.83300000000003 766.333 243.20600000000002 766.333 243.66600000000003ZM753 249.5H751.333C750.8729999999999 249.5 750.5 249.872 750.5 250.333C750.5 250.794 750.873 251.167 751.333 251.167H753C753.46 251.167 753.833 250.794 753.833 250.333C753.833 249.87199999999999 753.4599999999999 249.5 753 249.5ZM758 249.5H756.333C755.8729999999999 249.5 755.5 249.872 755.5 250.333C755.5 250.794 755.873 251.167 756.333 251.167H758C758.461 251.167 758.833 250.794 758.833 250.333C758.833 249.87199999999999 758.461 249.5 758 249.5Z " fill="url(#SvgjsLinearGradient1009)" transform="matrix(1,0,0,1,-718,-237)"></path></svg>