<svg width="34" height="46" xmlns="http://www.w3.org/2000/svg">

 <g>
  <title>background</title>
  <rect fill="none" id="canvas_background" height="48" width="36" y="-1" x="-1"/>
 </g>
 <g>
  <title>Layer 1</title>
  <g stroke="null" id="svgg">
   <path fill-rule="evenodd" d="m0.864826,0.023057c0,0.012624 -0.020658,0.022953 -0.045907,0.022953c-0.030643,0 -0.045907,0.015264 -0.045907,0.045907c0,0.037185 -0.015264,0.045907 -0.081026,0.045907c-0.056351,0 -0.085616,0.01228 -0.095831,0.040169c-0.008148,0.02215 -0.028118,0.048202 -0.0443,0.057957c-0.016182,0.00987 -0.036037,0.052793 -0.044071,0.095486c-0.009181,0.049235 -0.030528,0.081829 -0.058302,0.089059c-0.035578,0.009296 -0.043726,0.032594 -0.043726,0.1259c0,0.080567 -0.010214,0.118325 -0.03443,0.127621c-0.030528,0.011821 -0.03443,2.508468 -0.03443,22.279535c0,19.771067 0.003902,22.267714 0.03443,22.279535c0.024216,0.009296 0.03443,0.047055 0.03443,0.127621c0,0.093306 0.008148,0.116604 0.043726,0.1259c0.027774,0.00723 0.04912,0.039824 0.058302,0.089059c0.008034,0.042693 0.027888,0.085616 0.044071,0.095486c0.016182,0.009755 0.036152,0.035807 0.0443,0.057957c0.010214,0.027888 0.03948,0.040169 0.095831,0.040169c0.065762,0 0.081026,0.008722 0.081026,0.045907c0,0.030643 0.015264,0.045907 0.045907,0.045907c0.025249,0 0.045907,0.010329 0.045907,0.022953c0,0.015264 4.154574,0.022953 12.417815,0.022953c8.263241,0 12.417815,-0.007689 12.417815,-0.022953c0,-0.012624 0.020658,-0.022953 0.045907,-0.022953c0.030643,0 0.045907,-0.015264 0.045907,-0.045907c0,-0.036955 0.015264,-0.045907 0.078845,-0.045907c0.058531,0 0.082518,-0.011706 0.093306,-0.045907c0.008034,-0.025249 0.02938,-0.045907 0.047399,-0.045907c0.018133,0 0.032938,-0.016412 0.032938,-0.036611c0,-0.020084 0.020658,-0.042005 0.045907,-0.048547c0.025364,-0.006656 0.045907,-0.031331 0.045907,-0.055203c0,-0.028003 0.016297,-0.043267 0.045907,-0.043267c0.030643,0 0.045907,-0.015264 0.045907,-0.045907c0,-0.030643 0.015264,-0.045907 0.045907,-0.045907c0.025249,0 0.045907,-0.014805 0.045907,-0.032938c0,-0.018018 0.020658,-0.039365 0.045907,-0.047399c0.025249,-0.008034 0.045907,-0.028118 0.045907,-0.044759c0,-0.016641 0.020658,-0.035578 0.045907,-0.042234c0.025249,-0.006542 0.045907,-0.0272 0.045907,-0.045907c0,-0.018592 0.020658,-0.03925 0.045907,-0.045907c0.025249,-0.006542 0.045907,-0.0272 0.045907,-0.045907c0,-0.018592 0.020658,-0.03925 0.045907,-0.045907c0.025249,-0.006542 0.045907,-0.0272 0.045907,-0.045907c0,-0.018592 0.020658,-0.03925 0.045907,-0.045907c0.025249,-0.006542 0.045907,-0.0272 0.045907,-0.045907c0,-0.018592 0.020658,-0.03925 0.045907,-0.045907c0.025249,-0.006542 0.045907,-0.028462 0.045907,-0.048547c0,-0.020199 0.014805,-0.036611 0.032938,-0.036611c0.018018,0 0.039365,-0.020658 0.047399,-0.045907c0.008034,-0.025249 0.02938,-0.045907 0.047399,-0.045907c0.018133,0 0.032938,-0.020658 0.032938,-0.045907c0,-0.030643 0.015264,-0.045907 0.045907,-0.045907c0.030643,0 0.045907,-0.015264 0.045907,-0.045907c0,-0.030643 0.015264,-0.045907 0.045907,-0.045907c0.030643,0 0.045907,-0.015264 0.045907,-0.045907c0,-0.030643 0.015264,-0.045907 0.045907,-0.045907c0.025249,0 0.045907,-0.014805 0.045907,-0.032938c0,-0.018018 0.020658,-0.039365 0.045907,-0.047399c0.025249,-0.008034 0.045907,-0.028118 0.045907,-0.044759c0,-0.016641 0.020658,-0.035578 0.045907,-0.042234c0.025249,-0.006542 0.045907,-0.0272 0.045907,-0.045907c0,-0.018592 0.020658,-0.03925 0.045907,-0.045907c0.025249,-0.006542 0.045907,-0.0272 0.045907,-0.045907c0,-0.018592 0.020658,-0.03925 0.045907,-0.045907c0.025249,-0.006542 0.045907,-0.0272 0.045907,-0.045907c0,-0.018592 0.020658,-0.03925 0.045907,-0.045907c0.025249,-0.006542 0.045907,-0.0272 0.045907,-0.045907c0,-0.018592 0.020658,-0.03925 0.045907,-0.045907c0.025249,-0.006542 0.045907,-0.028462 0.045907,-0.048547c0,-0.020199 0.014805,-0.036611 0.032938,-0.036611c0.018018,0 0.039365,-0.020658 0.047399,-0.045907c0.008034,-0.025249 0.02938,-0.045907 0.047399,-0.045907c0.018133,0 0.032938,-0.020658 0.032938,-0.045907c0,-0.030643 0.015264,-0.045907 0.045907,-0.045907c0.030643,0 0.045907,-0.015264 0.045907,-0.045907c0,-0.030643 0.015264,-0.045907 0.045907,-0.045907c0.026741,0 0.045907,-0.015264 0.045907,-0.036611c0,-0.020084 0.020658,-0.042005 0.045907,-0.048547c0.025249,-0.006656 0.045907,-0.025134 0.045907,-0.041087c0,-0.015953 0.020658,-0.03443 0.045907,-0.041087c0.025249,-0.006542 0.045907,-0.0272 0.045907,-0.045907c0,-0.018592 0.020658,-0.03925 0.045907,-0.045907c0.025249,-0.006542 0.045907,-0.0272 0.045907,-0.045907c0,-0.018592 0.020658,-0.03925 0.045907,-0.045907c0.025249,-0.006542 0.045907,-0.0272 0.045907,-0.045907c0,-0.018592 0.020658,-0.03925 0.045907,-0.045907c0.025249,-0.006542 0.045907,-0.0272 0.045907,-0.045907c0,-0.018592 0.020658,-0.03925 0.045907,-0.045907c0.025249,-0.006542 0.045907,-0.0272 0.045907,-0.045907c0,-0.018592 0.020658,-0.03925 0.045907,-0.045907c0.025249,-0.006542 0.045907,-0.028462 0.045907,-0.048547c0,-0.020199 0.015494,-0.036611 0.03443,-0.036611c0.018937,0 0.03443,-0.016412 0.03443,-0.036611c0,-0.020084 0.020658,-0.042005 0.045907,-0.048547c0.025364,-0.006656 0.045907,-0.031331 0.045907,-0.055203c0,-0.028003 0.016297,-0.043267 0.045907,-0.043267c0.030643,0 0.045907,-0.015264 0.045907,-0.045907c0,-0.030643 0.015264,-0.045907 0.045907,-0.045907c0.025249,0 0.045907,-0.014805 0.045907,-0.032938c0,-0.018018 0.020658,-0.039365 0.045907,-0.047399c0.025249,-0.008034 0.045907,-0.028118 0.045907,-0.044759c0,-0.016641 0.020658,-0.035578 0.045907,-0.042234c0.025249,-0.006542 0.045907,-0.0272 0.045907,-0.045907c0,-0.018592 0.020658,-0.03925 0.045907,-0.045907c0.025249,-0.006542 0.045907,-0.0272 0.045907,-0.045907c0,-0.018592 0.020658,-0.03925 0.045907,-0.045907c0.025249,-0.006542 0.045907,-0.0272 0.045907,-0.045907c0,-0.018592 0.020658,-0.03925 0.045907,-0.045907c0.025249,-0.006542 0.045907,-0.0272 0.045907,-0.045907c0,-0.018592 0.020658,-0.03925 0.045907,-0.045907c0.025249,-0.006542 0.045907,-0.028462 0.045907,-0.048547c0,-0.020199 0.014805,-0.036611 0.032938,-0.036611c0.018018,0 0.039365,-0.020658 0.047399,-0.045907c0.008034,-0.025249 0.02938,-0.045907 0.047399,-0.045907c0.018133,0 0.032938,-0.020658 0.032938,-0.045907c0,-0.030643 0.015264,-0.045907 0.045907,-0.045907c0.030643,0 0.045907,-0.015264 0.045907,-0.045907c0,-0.030643 0.015264,-0.045907 0.045907,-0.045907c0.030643,0 0.045907,-0.015264 0.045907,-0.045907c0,-0.030643 0.015264,-0.045907 0.045907,-0.045907c0.025249,0 0.045907,-0.014805 0.045907,-0.032938c0,-0.018018 0.020658,-0.039365 0.045907,-0.047399c0.025249,-0.008034 0.045907,-0.028118 0.045907,-0.044759c0,-0.016641 0.020658,-0.035578 0.045907,-0.042234c0.025249,-0.006542 0.045907,-0.0272 0.045907,-0.045907c0,-0.018592 0.020658,-0.03925 0.045907,-0.045907c0.025249,-0.006542 0.045907,-0.0272 0.045907,-0.045907c0,-0.018592 0.020658,-0.03925 0.045907,-0.045907c0.025249,-0.006542 0.045907,-0.0272 0.045907,-0.045907c0,-0.018592 0.020658,-0.03925 0.045907,-0.045907c0.025249,-0.006542 0.045907,-0.0272 0.045907,-0.045907c0,-0.018592 0.020658,-0.03925 0.045907,-0.045907c0.025249,-0.006542 0.045907,-0.028462 0.045907,-0.048547c0,-0.020199 0.014805,-0.036611 0.032938,-0.036611c0.018018,0 0.039365,-0.020658 0.047399,-0.045907c0.008034,-0.025249 0.02938,-0.045907 0.047399,-0.045907c0.018133,0 0.032938,-0.020658 0.032938,-0.045907c0,-0.030643 0.015264,-0.045907 0.045907,-0.045907c0.030643,0 0.045907,-0.015264 0.045907,-0.045907c0,-0.030643 0.015264,-0.045907 0.045907,-0.045907c0.026741,0 0.045907,-0.015264 0.045907,-0.036611c0,-0.020084 0.020658,-0.042005 0.045907,-0.048547c0.025249,-0.006656 0.045907,-0.025134 0.045907,-0.041087c0,-0.015953 0.020658,-0.03443 0.045907,-0.041087c0.025249,-0.006542 0.045907,-0.0272 0.045907,-0.045907c0,-0.018592 0.020658,-0.03925 0.045907,-0.045907c0.025249,-0.006542 0.045907,-0.0272 0.045907,-0.045907c0,-0.018592 0.020658,-0.03925 0.045907,-0.045907c0.025249,-0.006542 0.045907,-0.0272 0.045907,-0.045907c0,-0.018592 0.020658,-0.03925 0.045907,-0.045907c0.025249,-0.006542 0.045907,-0.0272 0.045907,-0.045907c0,-0.018592 0.020658,-0.03925 0.045907,-0.045907c0.025249,-0.006542 0.045907,-0.0272 0.045907,-0.045907c0,-0.018592 0.020658,-0.03925 0.045907,-0.045907c0.025249,-0.006542 0.045907,-0.028462 0.045907,-0.048547c0,-0.020199 0.015494,-0.036611 0.03443,-0.036611c0.018937,0 0.03443,-0.016412 0.03443,-0.036611c0,-0.020084 0.020658,-0.042005 0.045907,-0.048547c0.025364,-0.006656 0.045907,-0.031331 0.045907,-0.055203c0,-0.028003 0.016297,-0.043267 0.045907,-0.043267c0.030643,0 0.045907,-0.015264 0.045907,-0.045907c0,-0.030643 0.015264,-0.045907 0.045907,-0.045907c0.025249,0 0.045907,-0.014805 0.045907,-0.032938c0,-0.018018 0.020658,-0.039365 0.045907,-0.047399c0.025249,-0.008034 0.045907,-0.028118 0.045907,-0.044759c0,-0.016641 0.020658,-0.035578 0.045907,-0.042234c0.025249,-0.006542 0.045907,-0.0272 0.045907,-0.045907c0,-0.018592 0.020658,-0.03925 0.045907,-0.045907c0.025249,-0.006542 0.045907,-0.0272 0.045907,-0.045907c0,-0.018592 0.020658,-0.03925 0.045907,-0.045907c0.025249,-0.006542 0.045907,-0.0272 0.045907,-0.045907c0,-0.018592 0.020658,-0.03925 0.045907,-0.045907c0.025249,-0.006542 0.045907,-0.0272 0.045907,-0.045907c0,-0.018592 0.020658,-0.03925 0.045907,-0.045907c0.025249,-0.006542 0.045907,-0.028462 0.045907,-0.048547c0,-0.020199 0.014805,-0.036611 0.032938,-0.036611c0.018018,0 0.039365,-0.020658 0.047399,-0.045907c0.008034,-0.025249 0.02938,-0.045907 0.047399,-0.045907c0.018133,0 0.032938,-0.020658 0.032938,-0.045907c0,-0.030643 0.015264,-0.045907 0.045907,-0.045907c0.030643,0 0.045907,-0.015264 0.045907,-0.045907c0,-0.030643 0.015264,-0.045907 0.045907,-0.045907c0.030643,0 0.045907,-0.015264 0.045907,-0.045907c0,-0.030643 0.015264,-0.045907 0.045907,-0.045907c0.025249,0 0.045907,-0.014805 0.045907,-0.032938c0,-0.018018 0.020658,-0.039365 0.045907,-0.047399c0.025249,-0.008034 0.045907,-0.028118 0.045907,-0.044759c0,-0.016641 0.020658,-0.035578 0.045907,-0.042234c0.025249,-0.006542 0.045907,-0.0272 0.045907,-0.045907c0,-0.018592 0.020658,-0.03925 0.045907,-0.045907c0.025249,-0.006542 0.045907,-0.0272 0.045907,-0.045907c0,-0.018592 0.020658,-0.03925 0.045907,-0.045907c0.025249,-0.006542 0.045907,-0.028462 0.045907,-0.048547c0,-0.020199 0.015723,-0.036611 0.035004,-0.036611c0.019281,0 0.044759,-0.025823 0.05681,-0.057384c0.012051,-0.031561 0.031905,-0.057384 0.0443,-0.057384c0.012395,0 0.029036,-0.035234 0.037185,-0.078271c0.009296,-0.049809 0.030528,-0.082288 0.058417,-0.089633c0.036381,-0.009526 0.043726,-0.032823 0.043726,-0.139786c0,-0.098815 0.007919,-0.128425 0.03443,-0.128425c0.052449,0 0.052449,-36.995449 0,-37.015649c-0.024216,-0.009296 -0.03443,-0.047055 -0.03443,-0.127621c0,-0.093306 -0.008148,-0.116604 -0.043726,-0.1259c-0.027774,-0.00723 -0.04912,-0.039824 -0.058302,-0.089059c-0.008034,-0.042693 -0.027888,-0.085616 -0.044071,-0.095486c-0.016182,-0.009755 -0.036152,-0.035922 -0.0443,-0.057957c-0.010214,-0.027888 -0.03948,-0.040169 -0.095831,-0.040169c-0.065762,0 -0.081026,-0.008722 -0.081026,-0.045907c0,-0.030643 -0.015264,-0.045907 -0.045907,-0.045907c-0.025249,0 -0.045907,-0.010329 -0.045907,-0.022953c0,-0.015264 -5.409324,-0.022953 -16.182181,-0.022953c-10.772857,0 -16.182181,0.007689 -16.182181,0.022953m30.941248,10.420865l0,8.515729l-0.174331,0c-0.154936,0 -0.175594,0.00505 -0.186267,0.045907c-0.007689,0.029495 -0.031331,0.045907 -0.065876,0.045907c-0.029495,0 -0.072189,0.019051 -0.094798,0.042234c-0.022609,0.023183 -0.059105,0.048776 -0.081255,0.056695c-0.022035,0.007919 -0.040169,0.029036 -0.040169,0.046825c0,0.017904 -0.020658,0.037873 -0.045907,0.04453c-0.025249,0.006542 -0.045907,0.028462 -0.045907,0.048547c0,0.020199 -0.014575,0.036611 -0.032364,0.036611c-0.019969,0 -0.038447,0.035348 -0.047973,0.091814c-0.009526,0.056465 -0.028003,0.091814 -0.047973,0.091814c-0.026741,0 -0.032364,0.074369 -0.032364,0.425442l0,0.425327l0.080337,0.080337c0.044185,0.044185 0.080337,0.094683 0.080337,0.112128c0,0.0614 0.028233,0.104438 0.068631,0.104438c0.02238,0 0.046136,0.020658 0.052793,0.045907c0.008722,0.033397 0.031331,0.045907 0.082977,0.045907c0.055777,0 0.071041,0.00987 0.071041,0.045907c0,0.037758 0.015264,0.045907 0.086764,0.045907c0.058302,0 0.099503,0.015035 0.126014,0.045907c0.028462,0.033282 0.067713,0.045907 0.14277,0.045907l0.10352,0l0,7.758265l0,7.758265l-3.408587,0c-3.393323,0 -3.408587,0.00023 -3.408587,0.045907c0,0.040857 -0.015264,0.045907 -0.137721,0.045907c-0.122457,0 -0.137721,0.00505 -0.137721,0.045907c0,0.030643 -0.015264,0.045907 -0.045907,0.045907c-0.025249,0 -0.066565,0.020658 -0.091814,0.045907c-0.025249,0.025249 -0.060253,0.045907 -0.077927,0.045907c-0.034774,0 -0.059794,0.048087 -0.059794,0.115112c0,0.023298 -0.020658,0.049006 -0.045907,0.057039c-0.025249,0.008034 -0.045907,0.028807 -0.045907,0.046366c0,0.017445 -0.018018,0.041775 -0.040169,0.05417c-0.037988,0.021232 -0.040513,0.215648 -0.046251,3.501549l-0.006083,3.479054l-10.982881,0l-10.982881,0l0,-11.522631l0,-11.522631l0.149427,0c0.120965,0 0.156887,-0.008722 0.188677,-0.045907c0.026511,-0.030872 0.067713,-0.045907 0.126014,-0.045907c0.0715,0 0.086764,-0.008148 0.086764,-0.045907c0,-0.037185 0.015264,-0.045907 0.080337,-0.045907c0.065073,0 0.080337,-0.008722 0.080337,-0.045907c0,-0.029725 0.015264,-0.045907 0.043382,-0.045907c0.031102,0 0.047399,-0.022035 0.057957,-0.078156c0.008034,-0.042923 0.029839,-0.083895 0.048432,-0.09101c0.018592,-0.00723 0.033856,-0.028118 0.033856,-0.046595c0,-0.018478 0.020658,-0.040169 0.045907,-0.048202c0.071615,-0.022724 0.071615,-0.883708 0,-0.883708c-0.038217,0 -0.045907,-0.015264 -0.045907,-0.091814c0,-0.064384 -0.00987,-0.091814 -0.032938,-0.091814c-0.018018,0 -0.039365,-0.020658 -0.047399,-0.045907c-0.008034,-0.025249 -0.028118,-0.045907 -0.044759,-0.045907c-0.016641,0 -0.035578,-0.020658 -0.042234,-0.045907c-0.006886,-0.026396 -0.031331,-0.045907 -0.057384,-0.045907c-0.026052,0 -0.050498,-0.01951 -0.057384,-0.045907c-0.008608,-0.032938 -0.031331,-0.045907 -0.080337,-0.045907c-0.049006,0 -0.07173,-0.012969 -0.080337,-0.045907c-0.010903,-0.04189 -0.031331,-0.045907 -0.232174,-0.045907l-0.220238,0l0,-8.515729l0,-8.515729l14.759067,0l14.759067,0l0,8.515729m-22.184508,-6.58764c-0.032709,0.036037 -0.070697,0.045907 -0.177889,0.045907c-0.116948,0 -0.13795,0.006542 -0.148279,0.045907c-0.0101,0.038562 -0.031331,0.045907 -0.1329,0.045907c-0.101569,0 -0.122801,0.007345 -0.1329,0.045907c-0.008837,0.033742 -0.031331,0.045907 -0.085157,0.045907c-0.053826,0 -0.07632,0.012165 -0.085157,0.045907c-0.006656,0.025364 -0.031331,0.045907 -0.055203,0.045907c-0.028003,0 -0.043267,0.016297 -0.043267,0.045907c0,0.037988 -0.015264,0.045907 -0.089174,0.045907c-0.069778,0 -0.091699,0.009985 -0.10111,0.045907c-0.006542,0.025249 -0.028462,0.045907 -0.048547,0.045907c-0.020199,0 -0.036611,0.015494 -0.036611,0.03443c0,0.018937 -0.016412,0.03443 -0.036611,0.03443c-0.020084,0 -0.042005,0.020658 -0.048547,0.045907c-0.006656,0.025249 -0.027315,0.045907 -0.045907,0.045907c-0.018707,0 -0.039365,0.020658 -0.045907,0.045907c-0.006656,0.025249 -0.027315,0.045907 -0.045907,0.045907c-0.018707,0 -0.039021,0.01974 -0.045333,0.043841c-0.006312,0.023986 -0.031217,0.048891 -0.055203,0.055203c-0.024101,0.006312 -0.043841,0.027888 -0.043841,0.047973c0,0.020199 -0.015494,0.036611 -0.03443,0.036611c-0.018937,0 -0.03443,0.020314 -0.03443,0.045104c0,0.02479 -0.020658,0.056121 -0.045907,0.069664c-0.030069,0.016067 -0.045907,0.048087 -0.045907,0.092617c0,0.052793 -0.010329,0.068057 -0.045907,0.068057c-0.038217,0 -0.045907,0.015264 -0.045907,0.091814c0,0.07655 -0.007689,0.091814 -0.045907,0.091814c-0.038217,0 -0.045907,0.015264 -0.045907,0.091814c0,0.07655 -0.007689,0.091814 -0.045907,0.091814c-0.041775,0 -0.045907,0.015264 -0.045907,0.169511c0,0.150116 -0.005279,0.170774 -0.045907,0.181447c-0.044874,0.011706 -0.045907,0.031331 -0.045907,0.874756c0,0.837801 0.001377,0.863509 0.045907,0.891282c0.043612,0.0272 0.045907,0.053596 0.045907,0.516682c0,0.472726 0.001492,0.48799 0.045907,0.48799c0.042693,0 0.045907,0.015264 0.045907,0.218058c0,0.202794 0.003213,0.218058 0.045907,0.218058c0.038217,0 0.045907,0.015264 0.045907,0.091814c0,0.07655 0.007689,0.091814 0.045907,0.091814c0.038103,0 0.045907,0.015264 0.045907,0.089404c0,0.054514 0.01228,0.093994 0.031561,0.101454c0.01733,0.006656 0.038447,0.049006 0.04694,0.094224c0.009296,0.049579 0.028692,0.082173 0.048776,0.082173c0.018363,0 0.033397,0.016412 0.033397,0.036611c0,0.020084 0.01974,0.041661 0.043726,0.047973c0.027888,0.007345 0.04912,0.039824 0.058417,0.089633c0.008722,0.046481 0.028233,0.078271 0.048087,0.078271c0.018363,0 0.033397,0.019969 0.033397,0.044415c0,0.024331 0.020658,0.050842 0.045907,0.058876c0.025249,0.008034 0.045907,0.02938 0.045907,0.047399c0,0.018133 0.01951,0.032938 0.043267,0.032938c0.023872,0 0.048547,0.020543 0.055203,0.045907c0.008148,0.030987 0.031331,0.045907 0.071385,0.045907c0.03443,0 0.07127,0.019281 0.087912,0.045907c0.015838,0.025249 0.04694,0.045907 0.06909,0.045907c0.025134,0 0.040398,0.017445 0.040398,0.045907c0,0.02961 0.015264,0.045907 0.043267,0.045907c0.023872,0 0.048547,0.020543 0.055203,0.045907c0.009181,0.035119 0.031331,0.045907 0.094453,0.045907c0.067254,0 0.082518,0.008493 0.082518,0.045907c0,0.040398 0.015264,0.045907 0.126244,0.045907c0.11098,0 0.126244,0.005509 0.126244,0.045907c0,0.040742 0.015264,0.045907 0.135081,0.045907c0.115685,0 0.136688,0.006542 0.147017,0.045907c0.021347,0.081485 1.141016,0.067827 1.141016,-0.013887c0,-0.023872 0.035348,-0.03202 0.137721,-0.03202c0.122457,0 0.137721,-0.00505 0.137721,-0.045907c0,-0.040398 0.015264,-0.045907 0.128425,-0.045907c0.109029,0 0.130146,-0.006886 0.14036,-0.045907c0.008608,-0.032938 0.031331,-0.045907 0.080337,-0.045907c0.049006,0 0.07173,-0.012969 0.080337,-0.045907c0.007804,-0.029725 0.031331,-0.045907 0.06668,-0.045907c0.03948,0 0.054744,-0.012854 0.054744,-0.045907c0,-0.030643 0.015264,-0.045907 0.045907,-0.045907c0.030643,0 0.045907,-0.015264 0.045907,-0.045907c0,-0.036037 0.015264,-0.045907 0.071041,-0.045907c0.051645,0 0.074254,-0.01251 0.082977,-0.045907c0.006656,-0.025364 0.031331,-0.045907 0.055203,-0.045907c0.023757,0 0.043267,-0.014805 0.043267,-0.032938c0,-0.018018 0.020658,-0.039365 0.045907,-0.047399c0.025249,-0.008034 0.045907,-0.034545 0.045907,-0.058876c0,-0.024445 0.014346,-0.044415 0.03202,-0.044415c0.035004,0 0.059794,-0.048202 0.059794,-0.116604c0,-0.028807 0.015953,-0.044071 0.045907,-0.044071c0.02961,0 0.045907,-0.015264 0.045907,-0.043267c0,-0.023872 0.020543,-0.048547 0.045907,-0.055203c0.035119,-0.009181 0.045907,-0.031331 0.045907,-0.094453c0,-0.067254 0.008493,-0.082518 0.045907,-0.082518c0.037988,0 0.045907,-0.015264 0.045907,-0.089174c0,-0.069778 0.009985,-0.091699 0.045907,-0.10111c0.033397,-0.008722 0.045907,-0.031331 0.045907,-0.082977c0,-0.040398 0.01974,-0.090781 0.045907,-0.116948c0.038217,-0.038217 0.045907,-0.07655 0.045907,-0.228387c0,-0.150001 0.007116,-0.186497 0.040169,-0.204974c0.036037,-0.020084 0.040972,-0.075746 0.047514,-0.543767c0.006083,-0.433591 0.013657,-0.530913 0.04453,-0.578197c0.074599,-0.113734 0.070697,-1.520781 -0.004361,-1.595838c-0.016526,-0.016641 -0.034545,-0.100651 -0.040054,-0.186726c-0.006771,-0.105242 -0.021576,-0.165035 -0.045333,-0.18248c-0.019396,-0.014231 -0.042579,-0.064614 -0.051416,-0.112013c-0.00987,-0.052678 -0.029036,-0.086075 -0.049465,-0.086075c-0.023068,0 -0.033397,-0.025593 -0.033397,-0.082518c0,-0.063122 -0.010788,-0.085272 -0.045907,-0.094453c-0.025364,-0.006656 -0.045907,-0.031331 -0.045907,-0.055203c0,-0.028003 -0.016297,-0.043267 -0.045907,-0.043267c-0.037414,0 -0.045907,-0.015264 -0.045907,-0.082518c0,-0.063122 -0.010788,-0.085272 -0.045907,-0.094453c-0.025364,-0.006656 -0.045907,-0.031331 -0.045907,-0.055203c0,-0.028003 -0.016297,-0.043267 -0.045907,-0.043267c-0.030643,0 -0.045907,-0.015264 -0.045907,-0.045907c0,-0.030643 -0.015264,-0.045907 -0.045907,-0.045907c-0.030643,0 -0.045907,-0.015264 -0.045907,-0.045907c0,-0.02961 -0.015264,-0.045907 -0.043267,-0.045907c-0.023872,0 -0.048547,-0.020543 -0.055203,-0.045907c-0.006542,-0.025249 -0.028462,-0.045907 -0.048547,-0.045907c-0.020199,0 -0.036611,-0.015494 -0.036611,-0.03443c0,-0.018937 -0.016412,-0.03443 -0.036611,-0.03443c-0.020084,0 -0.042005,-0.020658 -0.048547,-0.045907c-0.009067,-0.034545 -0.031331,-0.045907 -0.089633,-0.045907c-0.062433,0 -0.077697,-0.009067 -0.077697,-0.045907c0,-0.033627 -0.015264,-0.045907 -0.057384,-0.045907c-0.033742,0 -0.057384,-0.013198 -0.057384,-0.03202c0,-0.034545 -0.048087,-0.059794 -0.113964,-0.059794c-0.022724,0 -0.04671,-0.020658 -0.053367,-0.045907c-0.010214,-0.039021 -0.031331,-0.045907 -0.14036,-0.045907c-0.11316,0 -0.128425,-0.005509 -0.128425,-0.045907c0,-0.041546 -0.015264,-0.045907 -0.159871,-0.045907c-0.136343,0 -0.163429,-0.006771 -0.184431,-0.045907c-0.023413,-0.043612 -0.048087,-0.045907 -0.502221,-0.045907c-0.44851,0 -0.480186,0.002754 -0.519207,0.045907m0.562359,1.973997c0.0171,0.031905 0.048087,0.045907 0.101684,0.045907c0.046022,0 0.082173,0.013313 0.089748,0.033168c0.007001,0.018248 0.049465,0.040054 0.094224,0.048432c0.057728,0.010903 0.0816,0.027429 0.0816,0.05681c0,0.065991 0.025249,0.114079 0.059794,0.114079c0.021461,0 0.03202,0.027315 0.03202,0.082518c0,0.063122 0.010788,0.085272 0.045907,0.094453c0.042005,0.011018 0.045907,0.031331 0.045907,0.236191c0,0.20486 -0.003902,0.225173 -0.045907,0.236191c-0.04453,0.011706 -0.045907,0.031331 -0.045907,0.679766c0,0.652567 -0.001033,0.667831 -0.045907,0.667831c-0.040169,0 -0.045907,0.015264 -0.045907,0.123604c0,0.104209 -0.007116,0.125441 -0.045907,0.13554c-0.025249,0.006542 -0.045907,0.0272 -0.045907,0.045907c0,0.018592 -0.020658,0.03925 -0.045907,0.045907c-0.025249,0.006542 -0.045907,0.028462 -0.045907,0.048547c0,0.021347 -0.019166,0.036611 -0.045907,0.036611c-0.025249,0 -0.066565,0.020658 -0.091814,0.045907c-0.025478,0.025478 -0.07655,0.045907 -0.114538,0.045907c-0.043841,0 -0.079075,-0.016641 -0.097323,-0.045907c-0.015838,-0.025249 -0.04694,-0.045907 -0.06909,-0.045907c-0.022265,0 -0.040398,-0.016412 -0.040398,-0.036611c0,-0.020084 -0.020658,-0.042005 -0.045907,-0.048547c-0.025364,-0.006656 -0.045907,-0.031331 -0.045907,-0.055203c0,-0.023757 -0.014116,-0.043267 -0.031446,-0.043267c-0.020429,0 -0.035693,-0.037758 -0.043612,-0.107652c-0.006656,-0.05922 -0.028118,-0.119358 -0.047743,-0.133704c-0.030299,-0.02215 -0.036611,-0.114308 -0.042464,-0.612972c-0.006083,-0.520814 -0.011362,-0.591969 -0.047055,-0.631335c-0.065303,-0.072074 -0.060138,-0.671962 0.005738,-0.671962c0.035578,0 0.045907,-0.015264 0.045907,-0.068057c0,-0.04453 0.015838,-0.07655 0.045907,-0.092617c0.025249,-0.013543 0.045907,-0.038906 0.045907,-0.056351c0,-0.017559 0.031676,-0.038791 0.070467,-0.047284c0.038677,-0.008493 0.075976,-0.029954 0.082747,-0.047743c0.007689,-0.020084 0.046136,-0.03225 0.101684,-0.03225c0.07414,0 0.089404,-0.007804 0.089404,-0.045907c0,-0.025249 0.015149,-0.045907 0.033627,-0.045907c0.018478,0 0.044644,0.020658 0.058187,0.045907m7.719015,0.091814c-0.009067,0.034774 -0.031331,0.045907 -0.091814,0.045907c-0.060482,0 -0.082747,0.011132 -0.091814,0.045907c-0.006656,0.025364 -0.031331,0.045907 -0.055203,0.045907c-0.023757,0 -0.062089,0.018822 -0.085157,0.04189c-0.023068,0.023068 -0.05922,0.048547 -0.080337,0.056695c-0.023757,0.009067 -0.038447,0.040283 -0.038447,0.0816c0,0.047628 -0.013198,0.070467 -0.045907,0.07896c-0.034774,0.009067 -0.045907,0.031331 -0.045907,0.091814c0,0.060482 -0.011132,0.082747 -0.045907,0.091814c-0.043382,0.011362 -0.045907,0.031331 -0.045907,0.358418c0,0.331218 0.002066,0.346482 0.045907,0.346482c0.038217,0 0.045907,0.015264 0.045907,0.091814c0,0.07655 0.007689,0.091814 0.045907,0.091814c0.037414,0 0.045907,0.015264 0.045907,0.082518c0,0.06186 0.010903,0.085272 0.043841,0.09388c0.023986,0.006312 0.048891,0.031217 0.055203,0.055203c0.008034,0.030758 0.031791,0.043841 0.079763,0.043841c0.049006,0 0.07173,0.012969 0.080337,0.045907c0.009067,0.034774 0.031331,0.045907 0.091814,0.045907c0.060482,0 0.082747,0.011132 0.091814,0.045907c0.011936,0.045563 0.031331,0.045907 2.862525,0.045907c2.831193,0 2.850589,-0.000344 2.862525,-0.045907c0.009067,-0.034774 0.031331,-0.045907 0.091814,-0.045907c0.060482,0 0.082747,-0.011132 0.091814,-0.045907c0.006656,-0.025249 0.02961,-0.045907 0.051186,-0.045907c0.04935,0 0.139098,-0.093535 0.139098,-0.144951c0,-0.023413 0.018133,-0.038677 0.045907,-0.038677c0.030643,0 0.045907,-0.015264 0.045907,-0.045907c0,-0.025249 0.014231,-0.045907 0.031561,-0.045907c0.032823,0 0.060253,-0.095486 0.060253,-0.20945c0,-0.043382 0.011821,-0.065991 0.03443,-0.065991c0.028577,0 0.03443,-0.044644 0.03443,-0.263965c0,-0.21932 -0.005853,-0.263965 -0.03443,-0.263965c-0.020888,0 -0.03443,-0.021347 -0.03443,-0.054514c0,-0.103405 -0.028807,-0.197973 -0.060253,-0.197973c-0.01733,0 -0.031561,-0.020658 -0.031561,-0.045907c0,-0.030643 -0.015264,-0.045907 -0.045907,-0.045907c-0.030643,0 -0.045907,-0.015264 -0.045907,-0.045907c0,-0.030643 -0.015264,-0.045907 -0.045907,-0.045907c-0.030643,0 -0.045907,-0.015264 -0.045907,-0.045907c0,-0.02961 -0.015264,-0.045907 -0.043267,-0.045907c-0.023872,0 -0.048547,-0.020543 -0.055203,-0.045907c-0.008952,-0.03443 -0.031331,-0.045907 -0.088945,-0.045907c-0.052104,0 -0.08619,-0.014805 -0.105701,-0.045907c-0.028348,-0.045448 -0.053482,-0.045907 -2.865279,-0.045907c-2.817421,0 -2.836817,0.000344 -2.848752,0.045907m0.009181,4.170986c-0.035463,0.005394 -0.070123,0.02456 -0.077009,0.042579c-0.006886,0.018018 -0.033168,0.032823 -0.058187,0.032823c-0.026282,0 -0.050727,0.019396 -0.057613,0.045907c-0.006656,0.025249 -0.030643,0.045907 -0.053367,0.045907c-0.06427,0 -0.113964,0.024904 -0.113964,0.057154c0,0.016067 -0.020658,0.03466 -0.045907,0.041316c-0.035119,0.009181 -0.045907,0.031331 -0.045907,0.094453c0,0.067254 -0.008493,0.082518 -0.045907,0.082518c-0.038217,0 -0.045907,0.015264 -0.045907,0.091814c0,0.07655 -0.007689,0.091814 -0.045907,0.091814c-0.043956,0 -0.045907,0.015264 -0.045907,0.355778c0,0.340514 0.001951,0.355778 0.045907,0.355778c0.038217,0 0.045907,0.015264 0.045907,0.091814c0,0.07655 0.007689,0.091814 0.045907,0.091814c0.033053,0 0.045907,0.015264 0.045907,0.054744c0,0.038447 0.031217,0.077583 0.105356,0.131982c0.057957,0.042464 0.122227,0.095372 0.142885,0.117407c0.021347,0.022953 0.070697,0.040169 0.114767,0.040169c0.058072,0 0.080452,0.011477 0.089404,0.045907c0.011936,0.045792 0.031331,0.045907 5.772792,0.045907c5.741461,0 5.760856,-0.000115 5.772792,-0.045907c0.009411,-0.035922 0.031331,-0.045907 0.10111,-0.045907c0.062778,0 0.089174,-0.00987 0.089174,-0.033397c0,-0.019969 0.03225,-0.03948 0.080337,-0.048432c0.048891,-0.009181 0.080337,-0.028462 0.080337,-0.04912c0,-0.018707 0.01974,-0.039136 0.043726,-0.045448c0.027888,-0.007345 0.04912,-0.039824 0.058417,-0.089633c0.008722,-0.046481 0.028233,-0.078271 0.048087,-0.078271c0.018363,0 0.033397,-0.020314 0.033397,-0.045104c0,-0.02479 0.020658,-0.056121 0.045907,-0.069664c0.043267,-0.023183 0.045907,-0.048087 0.045907,-0.439099c0,-0.395144 -0.002181,-0.414998 -0.045907,-0.426475c-0.025364,-0.006656 -0.045907,-0.031331 -0.045907,-0.055203c0,-0.023757 -0.015379,-0.043267 -0.034201,-0.043267c-0.022035,0 -0.03925,-0.032364 -0.048776,-0.091814c-0.008608,-0.054055 -0.027315,-0.091814 -0.045448,-0.091814c-0.016871,0 -0.041661,-0.020658 -0.055203,-0.045907c-0.016067,-0.030069 -0.048087,-0.045907 -0.092617,-0.045907c-0.045677,0 -0.068057,-0.011477 -0.068057,-0.035004c0,-0.019281 -0.02479,-0.044415 -0.054974,-0.055892c-0.030184,-0.011477 -0.059449,-0.03443 -0.065073,-0.051071c-0.00964,-0.029036 -11.428981,-0.053826 -11.616281,-0.025249m-10.138308,0.855819c0,0.043382 -0.015264,0.045907 -0.273031,0.045907c-0.221386,0 -0.275441,0.006542 -0.286115,0.03443c-0.008608,0.022494 -0.044415,0.03443 -0.102946,0.03443c-0.135999,0 -0.233092,0.025134 -0.233092,0.060253c0,0.021347 -0.028807,0.031561 -0.089174,0.031561c-0.069778,0 -0.091699,0.009985 -0.10111,0.045907c-0.009526,0.036496 -0.031331,0.045907 -0.10593,0.045907c-0.063352,0 -0.108914,0.01492 -0.139901,0.045907c-0.025249,0.025249 -0.072074,0.045907 -0.103979,0.045907c-0.03202,0 -0.064384,0.016297 -0.072074,0.036152c-0.007575,0.019969 -0.038217,0.045563 -0.068057,0.05681c-0.029839,0.011362 -0.054285,0.036381 -0.054285,0.055662c0,0.024675 -0.023642,0.035004 -0.080337,0.035004c-0.065073,0 -0.080337,0.008722 -0.080337,0.045907c0,0.030643 -0.015264,0.045907 -0.045907,0.045907c-0.030643,0 -0.045907,0.015264 -0.045907,0.045907c0,0.035463 -0.015264,0.045907 -0.067598,0.045907c-0.038906,0 -0.080222,0.017674 -0.097552,0.041661c-0.016412,0.022953 -0.048087,0.048432 -0.070123,0.056695c-0.022035,0.008263 -0.040169,0.030758 -0.040169,0.050153c0,0.019855 -0.019969,0.035119 -0.045907,0.035119c-0.030643,0 -0.045907,0.015264 -0.045907,0.045907c0,0.030643 -0.015264,0.045907 -0.045907,0.045907c-0.025249,0 -0.045907,0.014805 -0.045907,0.032938c0,0.018018 -0.020658,0.039365 -0.045907,0.047399c-0.025249,0.008034 -0.045907,0.023872 -0.045907,0.035234c0,0.011362 -0.036152,0.05681 -0.080337,0.100995c-0.044185,0.044185 -0.080337,0.089404 -0.080337,0.100536c0,0.011132 -0.020658,0.043956 -0.045907,0.073107c-0.025249,0.029151 -0.045907,0.071959 -0.045907,0.095372c0,0.027085 -0.016526,0.042349 -0.045907,0.042349c-0.02961,0 -0.045907,0.015264 -0.045907,0.043267c0,0.023872 -0.020543,0.048547 -0.045907,0.055203c-0.035119,0.009181 -0.045907,0.031331 -0.045907,0.094453c0,0.067254 -0.008493,0.082518 -0.045907,0.082518c-0.030643,0 -0.045907,0.015264 -0.045907,0.045907c0,0.025249 -0.020658,0.066565 -0.045907,0.091814c-0.027774,0.027774 -0.045907,0.07655 -0.045907,0.123604c0,0.058302 -0.011362,0.080567 -0.045907,0.089633c-0.034774,0.009067 -0.045907,0.031331 -0.045907,0.091814c0,0.060482 -0.011132,0.082747 -0.045907,0.091814c-0.039021,0.010214 -0.045907,0.031331 -0.045907,0.14036c0,0.11316 -0.005509,0.128425 -0.045907,0.128425c-0.040398,0 -0.045907,0.015264 -0.045907,0.12831c0,0.09365 -0.012395,0.144262 -0.045907,0.186726c-0.036611,0.046595 -0.045907,0.093191 -0.045907,0.230682c0,0.137606 -0.008034,0.178119 -0.040169,0.201646c-0.032938,0.023986 -0.041546,0.073221 -0.047973,0.272228c-0.005738,0.177774 -0.015723,0.242847 -0.037185,0.242847c-0.041201,0 -0.057728,0.12808 -0.058072,0.450461c-0.00023,0.316528 0.01469,0.42177 0.060023,0.42177c0.018133,0 0.031561,0.023757 0.031561,0.055547c0,0.077468 0.022609,0.12808 0.057269,0.12808c0.016182,0 0.036037,0.035119 0.044071,0.078156c0.01469,0.078386 0.048202,0.105471 0.130031,0.105471c0.028807,0 0.044071,0.015953 0.044071,0.045907c0,0.030643 0.015264,0.045907 0.045907,0.045907c0.030643,0 0.045907,0.015264 0.045907,0.045907c0,0.040857 0.015264,0.045907 0.137721,0.045907c0.122457,0 0.137721,0.00505 0.137721,0.045907c0,0.045792 0.015264,0.045907 5.231894,0.045907c5.21158,0 5.231894,-0.00023 5.246355,-0.045907c0.012165,-0.038447 0.034774,-0.045907 0.139213,-0.045907c0.109488,0 0.124752,-0.005624 0.124752,-0.045907c0,-0.030643 0.015264,-0.045907 0.045907,-0.045907c0.028807,0 0.045907,-0.015264 0.045907,-0.041201c0,-0.026626 0.026282,-0.048891 0.074599,-0.063122c0.056121,-0.016526 0.079993,-0.040398 0.096519,-0.096519c0.014231,-0.048317 0.036496,-0.074599 0.063122,-0.074599c0.032709,0 0.041201,-0.018822 0.041201,-0.091814c0,-0.07655 0.007689,-0.091814 0.045907,-0.091814c0.044185,0 0.045907,-0.015264 0.045907,-0.401685c0,-0.371042 -0.003443,-0.405128 -0.045907,-0.447592c-0.039136,-0.039136 -0.045907,-0.07655 -0.045907,-0.254669c0,-0.189366 -0.004246,-0.209795 -0.045907,-0.220697c-0.041775,-0.010903 -0.045907,-0.031331 -0.045907,-0.224714c0,-0.193383 -0.004132,-0.213811 -0.045907,-0.224714c-0.040857,-0.010673 -0.045907,-0.031331 -0.045907,-0.186267c0,-0.159067 -0.004017,-0.174331 -0.045907,-0.174331c-0.040398,0 -0.045907,-0.015264 -0.045907,-0.128425c0,-0.109029 -0.006886,-0.130146 -0.045907,-0.14036c-0.035922,-0.009411 -0.045907,-0.031331 -0.045907,-0.10111c0,-0.063925 -0.009755,-0.089174 -0.03443,-0.089174c-0.022953,0 -0.03443,-0.022953 -0.03443,-0.068631c0,-0.043841 -0.016641,-0.079075 -0.045907,-0.097323c-0.025249,-0.015838 -0.045907,-0.046022 -0.045907,-0.067254c0,-0.063237 -0.025823,-0.111095 -0.059794,-0.111095c-0.017674,0 -0.03202,-0.019281 -0.03202,-0.042808c0,-0.023527 -0.020658,-0.06909 -0.045907,-0.101225c-0.025249,-0.03202 -0.045907,-0.074713 -0.045907,-0.094913c0,-0.021232 -0.019166,-0.036496 -0.045907,-0.036496c-0.030643,0 -0.045907,-0.015264 -0.045907,-0.045907c0,-0.030643 -0.015264,-0.045907 -0.045907,-0.045907c-0.029954,0 -0.045907,-0.015264 -0.045907,-0.044071c0,-0.068401 -0.02479,-0.116604 -0.059794,-0.116604c-0.017674,0 -0.03202,-0.019969 -0.03202,-0.044415c0,-0.024331 -0.020658,-0.050842 -0.045907,-0.058876c-0.025249,-0.008034 -0.045907,-0.028692 -0.045907,-0.045907c0,-0.017215 -0.020658,-0.037873 -0.045907,-0.045907c-0.025249,-0.008034 -0.045907,-0.02938 -0.045907,-0.047399c0,-0.018133 -0.020658,-0.032938 -0.045907,-0.032938c-0.030643,0 -0.045907,-0.015264 -0.045907,-0.045907c0,-0.030643 -0.015264,-0.045907 -0.045907,-0.045907c-0.030643,0 -0.045907,-0.015264 -0.045907,-0.045907c0,-0.025478 -0.015264,-0.045907 -0.03443,-0.045907c-0.018937,0 -0.055088,-0.020658 -0.080337,-0.045907c-0.025249,-0.025249 -0.066565,-0.045907 -0.091814,-0.045907c-0.030643,0 -0.045907,-0.015264 -0.045907,-0.045907c0,-0.02961 -0.015264,-0.045907 -0.043267,-0.045907c-0.023872,0 -0.048547,-0.020543 -0.055203,-0.045907c-0.009181,-0.035119 -0.031331,-0.045907 -0.094453,-0.045907c-0.067254,0 -0.082518,-0.008493 -0.082518,-0.045907c0,-0.025478 -0.015264,-0.045907 -0.03443,-0.045907c-0.018937,0 -0.055088,-0.020658 -0.080337,-0.045907c-0.025249,-0.025249 -0.068057,-0.045907 -0.095027,-0.045907c-0.02697,0 -0.061171,-0.016526 -0.075976,-0.036726c-0.015035,-0.020543 -0.07414,-0.04212 -0.133933,-0.048891c-0.077812,-0.008722 -0.11075,-0.023757 -0.12062,-0.054974c-0.009411,-0.029725 -0.035348,-0.043038 -0.084124,-0.043038c-0.040054,0 -0.082977,-0.016986 -0.099274,-0.03925c-0.021117,-0.028921 -0.072074,-0.041775 -0.191891,-0.048547c-0.119473,-0.006771 -0.163199,-0.017789 -0.163199,-0.041087c0,-0.025249 -0.054514,-0.031791 -0.266145,-0.031791c-0.24675,0 -0.266949,-0.003328 -0.278081,-0.045907c-0.011591,-0.044415 -0.031331,-0.045907 -0.619743,-0.045907c-0.588412,0 -0.608152,0.001492 -0.619743,0.045907c-0.0101,0.038447 -0.031331,0.045907 -0.130031,0.045907c-0.105471,0 -0.125785,0.008493 -0.191661,0.080337c-0.048317,0.052678 -0.094453,0.080337 -0.134048,0.080337c-0.040857,0 -0.06404,0.01469 -0.072189,0.045907c-0.006656,0.025364 -0.031331,0.045907 -0.055203,0.045907c-0.023757,0 -0.043267,0.014346 -0.043267,0.03202c0,0.035463 -0.048317,0.059794 -0.118784,0.059794c-0.026856,0 -0.051186,0.019166 -0.058187,0.045907c-0.011247,0.043152 -0.031331,0.045907 -0.330644,0.045907c-0.303445,0 -0.318709,-0.002181 -0.318709,-0.045907c0,-0.037185 -0.015264,-0.045907 -0.080337,-0.045907c-0.058187,0 -0.080337,-0.0101 -0.080337,-0.036611c0,-0.020084 -0.020658,-0.042005 -0.045907,-0.048547c-0.025249,-0.006656 -0.045907,-0.025249 -0.045907,-0.041316c0,-0.034545 -0.050727,-0.057154 -0.12808,-0.057154c-0.035578,0 -0.055547,-0.013198 -0.055547,-0.036611c0,-0.020084 -0.020658,-0.042005 -0.045907,-0.048547c-0.025249,-0.006656 -0.045907,-0.026282 -0.045907,-0.043726c0,-0.023527 -0.035348,-0.031791 -0.135081,-0.031791c-0.115685,0 -0.136688,-0.006542 -0.147017,-0.045907c-0.011591,-0.044415 -0.031331,-0.045907 -0.622383,-0.045907c-0.595183,0 -0.610447,0.001148 -0.610447,0.045907m0.711557,2.042857c0,0.038217 0.015264,0.045907 0.091814,0.045907c0.07655,0 0.091814,0.007689 0.091814,0.045907c0,0.038217 0.015264,0.045907 0.091814,0.045907c0.07655,0 0.091814,0.007689 0.091814,0.045907c0,0.037414 0.015264,0.045907 0.082518,0.045907c0.063122,0 0.085272,0.010788 0.094453,0.045907c0.0101,0.038562 0.031331,0.045907 0.1329,0.045907c0.101569,0 0.122801,0.007345 0.1329,0.045907c0.010903,0.04189 0.031331,0.045907 0.232174,0.045907c0.172954,0 0.220238,0.006886 0.220238,0.03202c0,0.051186 0.054514,0.059794 0.37483,0.059449c0.329956,-0.000344 0.405587,-0.011477 0.405587,-0.059679c0,-0.024904 0.047973,-0.031791 0.220238,-0.031791c0.200843,0 0.221271,-0.004017 0.232174,-0.045907c0.010214,-0.038906 0.031331,-0.045907 0.137721,-0.045907c0.106389,0 0.127621,-0.007001 0.137721,-0.045907c0.009411,-0.035922 0.031331,-0.045907 0.10111,-0.045907c0.07391,0 0.089174,-0.007919 0.089174,-0.045907c0,-0.037414 0.015264,-0.045907 0.082518,-0.045907c0.063122,0 0.085272,-0.010788 0.094453,-0.045907c0.009067,-0.034545 0.031331,-0.045907 0.089633,-0.045907c0.062433,0 0.077697,-0.009067 0.077697,-0.045907c0,-0.044185 0.015264,-0.045907 0.413162,-0.045907c0.397898,0 0.413162,0.001722 0.413162,0.045907c0,0.038677 0.015264,0.045907 0.097782,0.045907c0.072877,0 0.105012,0.011706 0.126473,0.045907c0.015723,0.025249 0.050153,0.045907 0.076435,0.045907c0.028577,0 0.052793,0.018478 0.059908,0.045907c0.009067,0.034545 0.031331,0.045907 0.089633,0.045907c0.062433,0 0.077697,0.009067 0.077697,0.045907c0,0.030643 0.015264,0.045907 0.045907,0.045907c0.030643,0 0.045907,0.015264 0.045907,0.045907c0,0.025249 0.015035,0.045907 0.033397,0.045907c0.036266,0 0.15023,0.104094 0.15023,0.137262c0,0.011132 0.020658,0.026856 0.045907,0.034889c0.025249,0.008034 0.045907,0.034545 0.045907,0.058876c0,0.029151 0.015838,0.044415 0.045907,0.044415c0.030528,0 0.045907,0.015264 0.045907,0.045677c0,0.025134 0.020658,0.058646 0.045907,0.074369c0.025249,0.015838 0.045907,0.052104 0.045907,0.080567c0,0.028692 0.014116,0.051875 0.031446,0.051875c0.019051,0 0.037414,0.036381 0.046251,0.091814c0.009526,0.059449 0.026741,0.091814 0.048776,0.091814c0.025134,0 0.034201,0.02697 0.034201,0.101454c0,0.055777 0.006312,0.117751 0.013887,0.137721c0.012739,0.032938 -0.324906,0.036266 -3.724197,0.036266l-3.738084,0.000115l0.007689,-0.135655c0.006197,-0.110521 0.015723,-0.137721 0.051645,-0.147017c0.032709,-0.008608 0.043956,-0.03202 0.043956,-0.091355c0,-0.060482 0.011132,-0.082747 0.045907,-0.091814c0.033397,-0.008722 0.045907,-0.031331 0.045907,-0.082977c0,-0.049694 0.011018,-0.071041 0.036611,-0.071041c0.020084,0 0.042005,-0.020658 0.048547,-0.045907c0.006656,-0.025249 0.026511,-0.045907 0.0443,-0.045907c0.017789,0 0.04212,-0.025823 0.05417,-0.057384c0.012051,-0.031561 0.032364,-0.057384 0.045333,-0.057384c0.012969,0 0.023527,-0.016412 0.023527,-0.036611c0,-0.020084 0.020658,-0.042005 0.045907,-0.048547c0.025249,-0.006656 0.045907,-0.026282 0.045907,-0.043726c0,-0.017445 0.020658,-0.031791 0.045907,-0.031791c0.030643,0 0.045907,-0.015264 0.045907,-0.045907c0,-0.030643 0.015264,-0.045907 0.045907,-0.045907c0.030643,0 0.045907,-0.015264 0.045907,-0.045907c0,-0.035693 0.015264,-0.045907 0.068631,-0.045907c0.043841,0 0.079075,-0.016641 0.097323,-0.045907c0.015838,-0.025249 0.044415,-0.045907 0.063581,-0.045907c0.019166,0 0.047743,-0.020658 0.063581,-0.045907c0.021806,-0.035119 0.053482,-0.045907 0.133819,-0.045907c0.085961,0 0.107537,-0.008378 0.117292,-0.045907c0.011477,-0.043726 0.031331,-0.045907 0.410981,-0.045907c0.383782,0 0.399046,0.001722 0.399046,0.045907m9.330577,1.354253c-0.008034,0.025249 -0.034545,0.045907 -0.058876,0.045907c-0.029151,0 -0.044415,0.015838 -0.044415,0.045907c0,0.037185 -0.015264,0.045907 -0.080337,0.045907c-0.065073,0 -0.080337,0.008722 -0.080337,0.045907c0,0.030643 -0.015264,0.045907 -0.045907,0.045907c-0.038217,0 -0.045907,0.015264 -0.045907,0.091814c0,0.07655 -0.007689,0.091814 -0.045907,0.091814c-0.035578,0 -0.045907,0.015264 -0.045907,0.068057c0,0.04453 -0.015838,0.07655 -0.045907,0.092617c-0.042693,0.022839 -0.045907,0.048087 -0.045907,0.365419c0,0.321463 0.00264,0.341433 0.045907,0.352794c0.035119,0.009181 0.045907,0.031331 0.045907,0.094453c0,0.067254 0.008493,0.082518 0.045907,0.082518c0.025249,0 0.045907,0.015035 0.045907,0.033397c0,0.035578 0.103864,0.15023 0.136114,0.15023c0.010559,0 0.02456,0.020658 0.031217,0.045907c0.006542,0.025249 0.027774,0.045907 0.047055,0.045907c0.019281,0 0.041546,0.020658 0.049579,0.045907c0.012165,0.038332 0.034774,0.045907 0.136573,0.045907c0.102717,0 0.123949,0.00723 0.134048,0.045907c0.011936,0.045792 0.031331,0.045907 5.689586,0.045907c5.652746,0 5.677765,-0.00023 5.706342,-0.045907c0.021806,-0.035119 0.053482,-0.045907 0.133819,-0.045907c0.085961,0 0.107537,-0.008378 0.117292,-0.045907c0.006656,-0.025249 0.030299,-0.045907 0.052563,-0.045907c0.022265,0 0.045792,-0.019855 0.052104,-0.044185c0.00723,-0.027888 0.035693,-0.046825 0.077238,-0.051645c0.054629,-0.006197 0.069319,-0.022035 0.086994,-0.093535c0.011706,-0.047284 0.035004,-0.086075 0.051645,-0.086075c0.016756,0 0.030413,-0.01951 0.030413,-0.043267c0,-0.023872 0.020543,-0.048547 0.045907,-0.055203c0.043841,-0.011477 0.045907,-0.031331 0.045907,-0.438755c0,-0.411555 -0.001607,-0.426819 -0.045907,-0.426819c-0.029495,0 -0.045907,-0.015264 -0.045907,-0.042808c0,-0.023527 -0.020658,-0.06909 -0.045907,-0.101225c-0.025249,-0.03202 -0.045907,-0.074713 -0.045907,-0.094913c0,-0.020084 -0.014346,-0.036496 -0.031791,-0.036496c-0.017445,0 -0.03707,-0.020658 -0.043726,-0.045907c-0.006771,-0.025937 -0.031331,-0.045907 -0.056465,-0.045907c-0.02456,0 -0.063237,-0.020658 -0.086075,-0.045907c-0.022839,-0.025249 -0.059449,-0.045907 -0.081255,-0.045907c-0.021806,0 -0.044989,-0.020658 -0.051645,-0.045907c-0.011936,-0.045792 -0.031331,-0.045907 -5.865754,-0.045907c-5.833504,0 -5.853703,0.000115 -5.868279,0.045907m-13.622871,4.65955c0,0.037414 -0.015264,0.045907 -0.082518,0.045907c-0.063122,0 -0.085272,0.010788 -0.094453,0.045907c-0.006656,0.025364 -0.031331,0.045907 -0.055203,0.045907c-0.028003,0 -0.043267,0.016297 -0.043267,0.045907c0,0.030643 -0.015264,0.045907 -0.045907,0.045907c-0.02961,0 -0.045907,0.015264 -0.045907,0.043267c0,0.023872 -0.020543,0.048547 -0.045907,0.055203c-0.035119,0.009181 -0.045907,0.031331 -0.045907,0.094453c0,0.067254 -0.008493,0.082518 -0.045907,0.082518c-0.042005,0 -0.045907,0.015264 -0.045907,0.181217c0,0.139786 -0.007804,0.184087 -0.03443,0.194301c-0.018937,0.007345 -0.03443,0.039365 -0.03443,0.071385c0,0.036266 0.012854,0.058072 0.03443,0.058072c0.027659,0 0.03443,0.035578 0.03443,0.182136c0,0.161822 0.00505,0.183628 0.045907,0.196596c0.025249,0.008034 0.045907,0.03443 0.045907,0.058761c0,0.024216 0.020658,0.057039 0.045907,0.072762c0.025249,0.015838 0.045907,0.052104 0.045907,0.080567c0,0.036611 0.013543,0.051875 0.045907,0.051875c0.030643,0 0.045907,0.015264 0.045907,0.045907c0,0.038217 0.015264,0.045907 0.091814,0.045907c0.07655,0 0.091814,0.007689 0.091814,0.045907c0,0.037988 0.015264,0.045907 0.089174,0.045907c0.069778,0 0.091699,0.009985 0.10111,0.045907c0.011706,0.044874 0.031331,0.045907 0.850081,0.045907c0.853868,0 0.910678,-0.003787 0.910678,-0.059794c0,-0.022035 0.028692,-0.03202 0.091814,-0.03202c0.07655,0 0.091814,-0.007689 0.091814,-0.045907c0,-0.037414 0.015264,-0.045907 0.082518,-0.045907c0.063122,0 0.085272,-0.010788 0.094453,-0.045907c0.006656,-0.025364 0.031331,-0.045907 0.055203,-0.045907c0.034086,0 0.043267,-0.016986 0.043267,-0.080337c0,-0.058187 0.0101,-0.080337 0.036611,-0.080337c0.020084,0 0.04189,-0.020314 0.048317,-0.045104c0.006542,-0.024904 0.031331,-0.051416 0.055318,-0.05899c0.069434,-0.022035 0.067024,-0.882904 -0.002525,-0.882904c-0.037414,0 -0.045907,-0.015264 -0.045907,-0.082518c0,-0.063122 -0.010788,-0.085272 -0.045907,-0.094453c-0.025364,-0.006656 -0.045907,-0.031331 -0.045907,-0.055203c0,-0.028003 -0.016297,-0.043267 -0.045907,-0.043267c-0.030643,0 -0.045907,-0.015264 -0.045907,-0.045907c0,-0.030643 -0.015264,-0.045907 -0.045907,-0.045907c-0.025249,0 -0.045907,-0.014346 -0.045907,-0.03202c0,-0.036496 -0.048776,-0.059794 -0.125441,-0.059794c-0.033512,0 -0.057269,-0.016756 -0.064843,-0.045907c-0.011706,-0.044989 -0.031331,-0.045907 -0.978161,-0.045907c-0.950961,0 -0.966225,0.000689 -0.966225,0.045907m3.403767,0c-0.008493,0.032479 -0.031331,0.045907 -0.078042,0.045907c-0.041087,0 -0.076779,0.01733 -0.094568,0.045907c-0.015838,0.025249 -0.04694,0.045907 -0.06909,0.045907c-0.025134,0 -0.040398,0.017445 -0.040398,0.045907c0,0.030643 -0.015264,0.045907 -0.045907,0.045907c-0.030643,0 -0.045907,0.015264 -0.045907,0.045907c0,0.025364 -0.015264,0.045907 -0.034201,0.045907c-0.022035,0 -0.03925,0.032364 -0.048776,0.091814c-0.008148,0.050612 -0.027659,0.091814 -0.043497,0.091814c-0.038217,0 -0.056465,0.074828 -0.05681,0.232863c-0.00023,0.09365 -0.00987,0.13313 -0.034774,0.142656c-0.043038,0.016526 -0.045104,0.098011 -0.003099,0.122571c0.019969,0.011706 0.035578,0.079763 0.043038,0.188792c0.008378,0.120391 0.022839,0.178463 0.04912,0.197629c0.020429,0.01492 0.037185,0.037414 0.037185,0.049809c0,0.012395 0.020658,0.041316 0.045907,0.064155c0.025249,0.022839 0.045907,0.061515 0.045907,0.086075c0,0.024904 0.019855,0.049694 0.045104,0.056236c0.024904,0.006542 0.051416,0.031331 0.05899,0.055318c0.009985,0.031446 0.035463,0.043382 0.092502,0.043382c0.063581,0 0.078845,0.008952 0.078845,0.045907c0,0.037758 0.015264,0.045907 0.086305,0.045907c0.0614,0 0.094568,0.013198 0.114997,0.045907c0.027774,0.04453 0.053482,0.045907 0.876936,0.045907c0.824717,0 0.848933,-0.001262 0.872805,-0.045907c0.018248,-0.034086 0.048087,-0.045907 0.115571,-0.045907c0.075746,0 0.09101,-0.007689 0.09101,-0.045907c0,-0.037185 0.015264,-0.045907 0.080337,-0.045907c0.065073,0 0.080337,-0.008722 0.080337,-0.045907c0,-0.030643 0.015264,-0.045907 0.045907,-0.045907c0.035463,0 0.045907,-0.015264 0.045907,-0.067368c0,-0.047055 0.013772,-0.071615 0.045907,-0.081829c0.025249,-0.008034 0.045907,-0.033282 0.045907,-0.056236c0,-0.022953 0.020658,-0.047055 0.045907,-0.053711c0.041316,-0.010788 0.045907,-0.031331 0.045907,-0.20463c0,-0.122686 0.010444,-0.203712 0.028692,-0.223108c0.022953,-0.024331 0.022953,-0.032479 0,-0.040972c-0.019969,-0.007345 -0.028692,-0.072303 -0.028692,-0.215189c0,-0.189366 -0.003443,-0.20463 -0.045907,-0.20463c-0.038217,0 -0.045907,-0.015264 -0.045907,-0.091814c0,-0.07655 -0.007689,-0.091814 -0.045907,-0.091814c-0.02961,0 -0.045907,-0.015264 -0.045907,-0.043267c0,-0.023872 -0.020543,-0.048547 -0.045907,-0.055203c-0.025249,-0.006542 -0.045907,-0.028462 -0.045907,-0.048547c0,-0.020543 -0.018937,-0.036611 -0.043267,-0.036611c-0.023872,0 -0.048547,-0.020543 -0.055203,-0.045907c-0.008608,-0.032938 -0.031331,-0.045907 -0.080337,-0.045907c-0.049006,0 -0.07173,-0.012969 -0.080337,-0.045907c-0.011706,-0.044989 -0.031331,-0.045907 -0.980342,-0.045907c-0.94901,0 -0.968636,0.000918 -0.980342,0.045907m3.401931,0c-0.010329,0.032594 -0.034774,0.045907 -0.08401,0.045907c-0.050153,0 -0.072877,0.012739 -0.081485,0.045907c-0.006656,0.025364 -0.031331,0.045907 -0.055203,0.045907c-0.028003,0 -0.043267,0.016297 -0.043267,0.045907c0,0.030643 -0.015264,0.045907 -0.045907,0.045907c-0.030643,0 -0.045907,0.015264 -0.045907,0.045907c0,0.030643 -0.015264,0.045907 -0.045907,0.045907c-0.038217,0 -0.045907,0.015264 -0.045907,0.091814c0,0.07655 -0.007689,0.091814 -0.045907,0.091814c-0.042464,0 -0.045907,0.015264 -0.045907,0.205204c0,0.12303 -0.009985,0.211401 -0.024904,0.220697c-0.018018,0.011132 -0.018018,0.02238 0,0.040398c0.014002,0.014002 0.024904,0.109488 0.024904,0.217599c0,0.173299 0.004591,0.193842 0.045907,0.20463c0.025364,0.006656 0.045907,0.031331 0.045907,0.055088c0,0.023642 0.020658,0.055892 0.045907,0.071615c0.025249,0.015838 0.045907,0.052104 0.045907,0.080567c0,0.036611 0.013543,0.051875 0.045907,0.051875c0.030643,0 0.045907,0.015264 0.045907,0.045907c0,0.03684 0.015264,0.045907 0.077697,0.045907c0.058302,0 0.080567,0.011362 0.089633,0.045907c0.009411,0.036152 0.031331,0.045907 0.103291,0.045907c0.071959,0 0.093765,0.009755 0.103291,0.045907c0.011706,0.044874 0.031331,0.045907 0.850081,0.045907c0.853868,0 0.910678,-0.003787 0.910678,-0.059794c0,-0.022035 0.028692,-0.03202 0.091814,-0.03202c0.07655,0 0.091814,-0.007689 0.091814,-0.045907c0,-0.037414 0.015264,-0.045907 0.082518,-0.045907c0.063122,0 0.085272,-0.010788 0.094453,-0.045907c0.006656,-0.025364 0.031331,-0.045907 0.055203,-0.045907c0.032709,0 0.043267,-0.016756 0.043267,-0.068057c0,-0.04453 0.015838,-0.07655 0.045907,-0.092617c0.025249,-0.013543 0.045907,-0.035463 0.045907,-0.048776c0,-0.013313 0.020084,-0.041316 0.044759,-0.062319c0.076205,-0.064958 0.077238,-0.875904 0.001148,-0.875904c-0.033282,0 -0.045907,-0.015264 -0.045907,-0.055547c0,-0.079189 -0.022839,-0.12808 -0.059794,-0.12808c-0.017674,0 -0.03202,-0.020658 -0.03202,-0.045907c0,-0.030643 -0.015264,-0.045907 -0.045907,-0.045907c-0.030643,0 -0.045907,-0.015264 -0.045907,-0.045907c0,-0.030643 -0.015264,-0.045907 -0.045907,-0.045907c-0.025249,0 -0.045907,-0.014346 -0.045907,-0.03202c0,-0.036496 -0.048776,-0.059794 -0.125441,-0.059794c-0.033512,0 -0.057269,-0.016756 -0.064843,-0.045907c-0.011706,-0.044989 -0.031331,-0.045907 -0.976669,-0.045907c-0.94442,0 -0.964963,0.000918 -0.979194,0.045907m3.415244,0c-0.007575,0.029151 -0.031331,0.045907 -0.064843,0.045907c-0.076665,0 -0.125441,0.023298 -0.125441,0.059794c0,0.017674 -0.020658,0.03202 -0.045907,0.03202c-0.030643,0 -0.045907,0.015264 -0.045907,0.045907c0,0.030643 -0.015264,0.045907 -0.045907,0.045907c-0.030643,0 -0.045907,0.015264 -0.045907,0.045907c0,0.025249 -0.014346,0.045907 -0.03202,0.045907c-0.036496,0 -0.059794,0.048776 -0.059794,0.125441c0,0.033512 -0.016756,0.057269 -0.045907,0.064843c-0.075861,0.019855 -0.074828,0.804518 0.001148,0.869247c0.024675,0.021002 0.044759,0.049006 0.044759,0.062319c0,0.013313 0.020658,0.035234 0.045907,0.048776c0.030069,0.016067 0.045907,0.048087 0.045907,0.092617c0,0.051301 0.010559,0.068057 0.043267,0.068057c0.023872,0 0.048547,0.020543 0.055203,0.045907c0.009181,0.035119 0.031331,0.045907 0.094453,0.045907c0.067254,0 0.082518,0.008493 0.082518,0.045907c0,0.038217 0.015264,0.045907 0.091814,0.045907c0.063122,0 0.091814,0.009985 0.091814,0.03202c0,0.056006 0.05681,0.059794 0.910678,0.059794c0.818749,0 0.838375,-0.001033 0.850081,-0.045907c0.009526,-0.036152 0.031331,-0.045907 0.103291,-0.045907c0.071959,0 0.09388,-0.009755 0.103291,-0.045907c0.009067,-0.034545 0.031331,-0.045907 0.089633,-0.045907c0.062433,0 0.077697,-0.009067 0.077697,-0.045907c0,-0.030643 0.015264,-0.045907 0.045907,-0.045907c0.032364,0 0.045907,-0.015264 0.045907,-0.051875c0,-0.028462 0.020658,-0.064729 0.045907,-0.080567c0.025249,-0.015723 0.045907,-0.047973 0.045907,-0.071615c0,-0.023757 0.020543,-0.048432 0.045907,-0.055088c0.041316,-0.010788 0.045907,-0.031331 0.045907,-0.20463c0,-0.108111 0.010903,-0.203597 0.024904,-0.217599c0.018018,-0.018018 0.018018,-0.029266 0,-0.040398c-0.01492,-0.009296 -0.024904,-0.097667 -0.024904,-0.220697c0,-0.18994 -0.003443,-0.205204 -0.045907,-0.205204c-0.038217,0 -0.045907,-0.015264 -0.045907,-0.091814c0,-0.07655 -0.007689,-0.091814 -0.045907,-0.091814c-0.030643,0 -0.045907,-0.015264 -0.045907,-0.045907c0,-0.030643 -0.015264,-0.045907 -0.045907,-0.045907c-0.030643,0 -0.045907,-0.015264 -0.045907,-0.045907c0,-0.02961 -0.015264,-0.045907 -0.043267,-0.045907c-0.023872,0 -0.048547,-0.020543 -0.055203,-0.045907c-0.008608,-0.033168 -0.031331,-0.045907 -0.081485,-0.045907c-0.049235,0 -0.073681,-0.013313 -0.08401,-0.045907c-0.014231,-0.044989 -0.034774,-0.045907 -0.979194,-0.045907c-0.945338,0 -0.964963,0.000918 -0.976669,0.045907m3.39711,0c-0.008608,0.032938 -0.031331,0.045907 -0.080337,0.045907c-0.049006,0 -0.07173,0.012969 -0.080337,0.045907c-0.006656,0.025364 -0.031331,0.045907 -0.055203,0.045907c-0.028003,0 -0.043267,0.016297 -0.043267,0.045907c0,0.030643 -0.015264,0.045907 -0.045907,0.045907c-0.030643,0 -0.045907,0.015264 -0.045907,0.045907c0,0.030643 -0.015264,0.045907 -0.045907,0.045907c-0.038217,0 -0.045907,0.015264 -0.045907,0.091814c0,0.07655 -0.007689,0.091814 -0.045907,0.091814c-0.042464,0 -0.045907,0.015264 -0.045907,0.20463c0,0.142885 -0.008722,0.207843 -0.028692,0.215189c-0.022953,0.008493 -0.022953,0.016641 0,0.040972c0.018248,0.019396 0.028692,0.100421 0.028692,0.223108c0,0.173299 0.004591,0.193842 0.045907,0.20463c0.025249,0.006656 0.045907,0.030299 0.045907,0.052563c0,0.022265 0.020658,0.045907 0.045907,0.052563c0.033397,0.008722 0.045907,0.031331 0.045907,0.082977c0,0.055777 0.00987,0.071041 0.045907,0.071041c0.030643,0 0.045907,0.015264 0.045907,0.045907c0,0.03684 0.015264,0.045907 0.077697,0.045907c0.058302,0 0.080567,0.011362 0.089633,0.045907c0.009181,0.035004 0.031331,0.045907 0.09365,0.045907c0.058187,0 0.088715,0.013198 0.106274,0.045907c0.023872,0.044644 0.048087,0.045907 0.872805,0.045907c0.823455,0 0.849163,-0.001377 0.876936,-0.045907c0.020429,-0.032709 0.053596,-0.045907 0.114997,-0.045907c0.071041,0 0.086305,-0.008148 0.086305,-0.045907c0,-0.037414 0.015264,-0.045907 0.082518,-0.045907c0.063122,0 0.085272,-0.010788 0.094453,-0.045907c0.006656,-0.025364 0.031331,-0.045907 0.055203,-0.045907c0.030872,0 0.043267,-0.016526 0.043267,-0.057384c0,-0.031561 0.008608,-0.057384 0.019051,-0.057384c0.010559,0 0.033742,-0.028348 0.051645,-0.063122c0.017904,-0.03466 0.047743,-0.074943 0.066106,-0.089289c0.022265,-0.01733 0.036726,-0.083321 0.042808,-0.195104c0.006197,-0.111669 0.020084,-0.175135 0.041087,-0.1873c0.042349,-0.024445 0.040628,-0.10593 -0.00264,-0.122571c-0.025593,-0.009755 -0.03443,-0.050498 -0.03443,-0.158034c0,-0.165494 -0.014346,-0.217484 -0.059794,-0.217484c-0.018592,0 -0.03202,-0.023413 -0.03202,-0.055547c0,-0.079189 -0.022839,-0.12808 -0.059794,-0.12808c-0.017674,0 -0.03202,-0.020658 -0.03202,-0.045907c0,-0.030643 -0.015264,-0.045907 -0.045907,-0.045907c-0.030643,0 -0.045907,-0.015264 -0.045907,-0.045907c0,-0.030643 -0.015264,-0.045907 -0.045907,-0.045907c-0.025249,0 -0.045907,-0.014346 -0.045907,-0.03202c0,-0.036496 -0.048776,-0.059794 -0.125441,-0.059794c-0.033512,0 -0.057269,-0.016756 -0.064843,-0.045907c-0.011706,-0.044989 -0.031331,-0.045907 -0.980342,-0.045907c-0.94901,0 -0.968636,0.000918 -0.980342,0.045907m3.420064,0c-0.007575,0.029151 -0.031331,0.045907 -0.064843,0.045907c-0.076665,0 -0.125441,0.023298 -0.125441,0.059794c0,0.017674 -0.020658,0.03202 -0.045907,0.03202c-0.030643,0 -0.045907,0.015264 -0.045907,0.045907c0,0.030643 -0.015264,0.045907 -0.045907,0.045907c-0.02961,0 -0.045907,0.015264 -0.045907,0.043267c0,0.023872 -0.020543,0.048547 -0.045907,0.055203c-0.035119,0.009181 -0.045907,0.031331 -0.045907,0.094453c0,0.067254 -0.008493,0.082518 -0.045907,0.082518c-0.0443,0 -0.045907,0.015264 -0.045907,0.434624c0,0.41431 0.002181,0.435197 0.045907,0.449084c0.025249,0.008034 0.045907,0.029036 0.045907,0.046595c0,0.017674 0.020658,0.043152 0.045907,0.056695c0.030069,0.016067 0.045907,0.048087 0.045907,0.092617c0,0.051301 0.010559,0.068057 0.043267,0.068057c0.023872,0 0.048547,0.020543 0.055203,0.045907c0.009181,0.035119 0.031331,0.045907 0.094453,0.045907c0.067254,0 0.082518,0.008493 0.082518,0.045907c0,0.038217 0.015264,0.045907 0.091814,0.045907c0.063122,0 0.091814,0.009985 0.091814,0.03202c0,0.056006 0.05681,0.059794 0.910678,0.059794c0.818749,0 0.838375,-0.001033 0.850081,-0.045907c0.009411,-0.035922 0.031331,-0.045907 0.10111,-0.045907c0.07391,0 0.089174,-0.007919 0.089174,-0.045907c0,-0.038217 0.015264,-0.045907 0.091814,-0.045907c0.07655,0 0.091814,-0.007689 0.091814,-0.045907c0,-0.030643 0.015264,-0.045907 0.045907,-0.045907c0.032364,0 0.045907,-0.015264 0.045907,-0.051875c0,-0.028462 0.020658,-0.064729 0.045907,-0.080567c0.025249,-0.015723 0.045907,-0.048547 0.045907,-0.072762c0,-0.024331 0.020658,-0.050727 0.045907,-0.058761c0.040857,-0.012969 0.045907,-0.034774 0.045907,-0.196596c0,-0.146558 0.006771,-0.182136 0.03443,-0.182136c0.021576,0 0.03443,-0.021806 0.03443,-0.058072c0,-0.03202 -0.015494,-0.06404 -0.03443,-0.071385c-0.026626,-0.010214 -0.03443,-0.054514 -0.03443,-0.194301c0,-0.165953 -0.003902,-0.181217 -0.045907,-0.181217c-0.037414,0 -0.045907,-0.015264 -0.045907,-0.082518c0,-0.063122 -0.010788,-0.085272 -0.045907,-0.094453c-0.025364,-0.006656 -0.045907,-0.031331 -0.045907,-0.055203c0,-0.028003 -0.016297,-0.043267 -0.045907,-0.043267c-0.030643,0 -0.045907,-0.015264 -0.045907,-0.045907c0,-0.02961 -0.015264,-0.045907 -0.043267,-0.045907c-0.023872,0 -0.048547,-0.020543 -0.055203,-0.045907c-0.009181,-0.035119 -0.031331,-0.045907 -0.094453,-0.045907c-0.067254,0 -0.082518,-0.008493 -0.082518,-0.045907c0,-0.045218 -0.015264,-0.045907 -0.966225,-0.045907c-0.94683,0 -0.966455,0.000918 -0.978161,0.045907m3.39711,0c-0.008608,0.032938 -0.031331,0.045907 -0.080337,0.045907c-0.049006,0 -0.07173,0.012969 -0.080337,0.045907c-0.006886,0.026396 -0.031331,0.045907 -0.057384,0.045907c-0.026052,0 -0.050498,0.01951 -0.057384,0.045907c-0.006656,0.025249 -0.026282,0.045907 -0.043726,0.045907c-0.017445,0 -0.031791,0.016412 -0.031791,0.036611c0,0.020084 -0.020658,0.042005 -0.045907,0.048547c-0.035922,0.009411 -0.045907,0.031331 -0.045907,0.10111c0,0.07391 -0.007919,0.089174 -0.045907,0.089174c-0.0443,0 -0.045907,0.015264 -0.045907,0.434624c0,0.41431 0.002181,0.435197 0.045907,0.449084c0.025249,0.008034 0.045907,0.029725 0.045907,0.048202c0,0.018478 0.015264,0.039365 0.033856,0.046595c0.018592,0.007116 0.040398,0.048087 0.048432,0.09101c0.010559,0.056121 0.026856,0.078156 0.057957,0.078156c0.028118,0 0.043382,0.016182 0.043382,0.045907c0,0.037185 0.015264,0.045907 0.080337,0.045907c0.065073,0 0.080337,0.008722 0.080337,0.045907c0,0.037758 0.015264,0.045907 0.086764,0.045907c0.058302,0 0.099503,0.015035 0.126014,0.045907c0.037873,0.0443 0.067713,0.045907 0.877051,0.045907c0.813011,0 0.838719,-0.001377 0.866493,-0.045907c0.020429,-0.032709 0.053596,-0.045907 0.114997,-0.045907c0.071041,0 0.086305,-0.008148 0.086305,-0.045907c0,-0.036955 0.015264,-0.045907 0.078845,-0.045907c0.058531,0 0.082518,-0.011706 0.093306,-0.045907c0.008034,-0.025249 0.028807,-0.045907 0.046251,-0.045907c0.031102,0 0.076665,-0.067483 0.126588,-0.18753c0.014002,-0.033742 0.040283,-0.066909 0.058302,-0.07391c0.024445,-0.009296 0.032823,-0.05658 0.032823,-0.18466c0,-0.148509 0.006312,-0.175364 0.045907,-0.196596c0.025249,-0.013543 0.045907,-0.045792 0.045907,-0.071844c0,-0.027888 -0.018707,-0.052104 -0.045907,-0.05922c-0.040972,-0.010673 -0.045907,-0.031331 -0.045907,-0.192924c0,-0.14059 -0.00723,-0.180988 -0.032364,-0.180988c-0.019969,0 -0.038447,-0.035348 -0.047973,-0.091814c-0.008722,-0.051875 -0.028462,-0.091814 -0.045218,-0.091814c-0.016412,0 -0.035119,-0.020658 -0.041775,-0.045907c-0.006542,-0.025249 -0.0272,-0.045907 -0.045907,-0.045907c-0.018592,0 -0.03925,-0.020658 -0.045907,-0.045907c-0.006542,-0.025249 -0.027774,-0.045907 -0.047055,-0.045907c-0.019281,0 -0.041546,-0.020658 -0.049579,-0.045907c-0.010673,-0.033742 -0.034774,-0.045907 -0.090666,-0.045907c-0.05681,0 -0.079189,-0.011591 -0.088141,-0.045907c-0.011706,-0.044989 -0.031331,-0.045907 -0.980342,-0.045907c-0.94901,0 -0.968636,0.000918 -0.980342,0.045907m3.413407,0c0,0.033282 -0.015264,0.045907 -0.055547,0.045907c-0.079189,0 -0.12808,0.022839 -0.12808,0.059794c0,0.017674 -0.020658,0.03202 -0.045907,0.03202c-0.030643,0 -0.045907,0.015264 -0.045907,0.045907c0,0.030643 -0.015264,0.045907 -0.045907,0.045907c-0.02961,0 -0.045907,0.015264 -0.045907,0.043267c0,0.023872 -0.020543,0.048547 -0.045907,0.055203c-0.035119,0.009181 -0.045907,0.031331 -0.045907,0.094453c0,0.067254 -0.008493,0.082518 -0.045907,0.082518c-0.069549,0 -0.071959,0.860869 -0.002525,0.882904c0.023986,0.007575 0.048776,0.034086 0.055318,0.05899c0.006427,0.02479 0.028233,0.045104 0.048317,0.045104c0.026511,0 0.036611,0.02215 0.036611,0.080337c0,0.063352 0.009181,0.080337 0.043267,0.080337c0.023872,0 0.048547,0.020543 0.055203,0.045907c0.009181,0.035119 0.031331,0.045907 0.094453,0.045907c0.067254,0 0.082518,0.008493 0.082518,0.045907c0,0.038217 0.015264,0.045907 0.091814,0.045907c0.063122,0 0.091814,0.009985 0.091814,0.03202c0,0.056006 0.05681,0.059794 0.910678,0.059794c0.818749,0 0.838375,-0.001033 0.850081,-0.045907c0.009411,-0.035922 0.031331,-0.045907 0.10111,-0.045907c0.07391,0 0.089174,-0.007919 0.089174,-0.045907c0,-0.038217 0.015264,-0.045907 0.091814,-0.045907c0.07655,0 0.091814,-0.007689 0.091814,-0.045907c0,-0.030643 0.015264,-0.045907 0.045907,-0.045907c0.025478,0 0.045907,-0.015264 0.045907,-0.03443c0,-0.018937 0.020658,-0.055088 0.045907,-0.080337c0.025249,-0.025249 0.045907,-0.065417 0.045907,-0.089174c0,-0.023872 0.020543,-0.048547 0.045907,-0.055203c0.040857,-0.010673 0.045907,-0.031331 0.045907,-0.186267c0,-0.096749 0.00987,-0.174331 0.02215,-0.174331c0.033742,0 0.07127,-0.083895 0.055662,-0.124637c-0.007575,-0.01974 -0.028233,-0.036037 -0.045792,-0.036037c-0.024675,0 -0.03202,-0.042005 -0.03202,-0.183628c0,-0.168364 -0.003787,-0.183628 -0.045907,-0.183628c-0.038217,0 -0.045907,-0.015264 -0.045907,-0.091814c0,-0.07655 -0.007689,-0.091814 -0.045907,-0.091814c-0.030643,0 -0.045907,-0.015264 -0.045907,-0.045907c0,-0.030643 -0.015264,-0.045907 -0.045907,-0.045907c-0.030643,0 -0.045907,-0.015264 -0.045907,-0.045907c0,-0.02961 -0.015264,-0.045907 -0.043267,-0.045907c-0.023872,0 -0.048547,-0.020543 -0.055203,-0.045907c-0.009181,-0.035119 -0.031331,-0.045907 -0.094453,-0.045907c-0.067254,0 -0.082518,-0.008493 -0.082518,-0.045907c0,-0.045218 -0.015264,-0.045907 -0.975522,-0.045907c-0.960258,0 -0.975522,0.000689 -0.975522,0.045907m-22.694304,5.026805c-0.008952,0.034315 -0.031331,0.045907 -0.088141,0.045907c-0.055892,0 -0.079993,0.012165 -0.090666,0.045907c-0.010214,0.03225 -0.034774,0.045907 -0.082632,0.045907c-0.043726,0 -0.073336,0.014346 -0.082977,0.040169c-0.008263,0.02215 -0.033742,0.053711 -0.056695,0.070123c-0.022953,0.016526 -0.041661,0.056236 -0.041661,0.088256c0,0.038906 -0.015264,0.062204 -0.045907,0.070238c-0.034315,0.008952 -0.045907,0.031331 -0.045907,0.088141c0,0.055892 -0.012165,0.079993 -0.045907,0.090666c-0.043152,0.013657 -0.045907,0.034774 -0.045907,0.35727c0,0.327546 0.002066,0.34281 0.045907,0.34281c0.038217,0 0.045907,0.015264 0.045907,0.091814c0,0.07655 0.007689,0.091814 0.045907,0.091814c0.033282,0 0.045907,0.015264 0.045907,0.055433c0,0.069549 0.142426,0.220009 0.208303,0.220009c0.029151,0 0.053252,0.018248 0.060482,0.045907c0.008837,0.033627 0.031331,0.045907 0.084124,0.045907c0.047284,0 0.082059,0.015838 0.10088,0.045907c0.028462,0.045677 0.053482,0.045907 5.753397,0.045907c5.73687,0 5.797467,-0.000574 5.797467,-0.059794c0,-0.021461 0.027315,-0.03202 0.082518,-0.03202c0.063122,0 0.085272,-0.010788 0.094453,-0.045907c0.006656,-0.025364 0.031331,-0.045907 0.055203,-0.045907c0.028003,0 0.043267,-0.016297 0.043267,-0.045907c0,-0.030643 0.015264,-0.045907 0.045907,-0.045907c0.030643,0 0.045907,-0.015264 0.045907,-0.045907c0,-0.030643 0.015264,-0.045907 0.045907,-0.045907c0.030643,0 0.045907,-0.015264 0.045907,-0.045907c0,-0.025249 0.014231,-0.045907 0.031561,-0.045907c0.031561,0 0.060253,-0.094568 0.060253,-0.198662c0,-0.030413 0.015494,-0.061171 0.03443,-0.068516c0.027774,-0.010673 0.03443,-0.063352 0.03443,-0.274638c0,-0.21714 -0.005853,-0.261555 -0.03443,-0.261555c-0.020888,0 -0.03443,-0.021347 -0.03443,-0.054514c0,-0.103405 -0.028807,-0.197973 -0.060253,-0.197973c-0.01733,0 -0.031561,-0.020658 -0.031561,-0.045907c0,-0.030643 -0.015264,-0.045907 -0.045907,-0.045907c-0.025249,0 -0.045907,-0.015035 -0.045907,-0.033397c0,-0.043267 -0.106963,-0.15023 -0.15023,-0.15023c-0.018363,0 -0.033397,-0.020658 -0.033397,-0.045907c0,-0.037988 -0.015264,-0.045907 -0.089174,-0.045907c-0.069778,0 -0.091699,-0.009985 -0.10111,-0.045907c-0.011936,-0.045792 -0.031331,-0.045907 -5.777612,-0.045907c-5.746281,0 -5.765677,0.000115 -5.777612,0.045907m0.096634,3.672552c-0.012051,0.037873 -0.034774,0.045907 -0.129917,0.045907c-0.09606,0 -0.117407,0.007689 -0.127392,0.045907c-0.006656,0.025364 -0.031331,0.045907 -0.055203,0.045907c-0.028003,0 -0.043267,0.016297 -0.043267,0.045907c0,0.030643 -0.015264,0.045907 -0.045907,0.045907c-0.030643,0 -0.045907,0.015264 -0.045907,0.045907c0,0.030643 -0.015264,0.045907 -0.045907,0.045907c-0.030643,0 -0.045907,0.015264 -0.045907,0.045907c0,0.030643 -0.015264,0.045907 -0.045907,0.045907c-0.037988,0 -0.045907,0.015264 -0.045907,0.089174c0,0.069778 -0.009985,0.091699 -0.045907,0.10111c-0.043267,0.011362 -0.045907,0.031331 -0.045907,0.349122c0,0.31779 0.00264,0.33776 0.045907,0.349122c0.034545,0.009067 0.045907,0.031331 0.045907,0.089633c0,0.062433 0.009067,0.077697 0.045907,0.077697c0.038217,0 0.045907,0.015264 0.045907,0.091814c0,0.07655 0.007689,0.091814 0.045907,0.091814c0.030643,0 0.045907,0.015264 0.045907,0.045907c0,0.036037 0.015264,0.045907 0.071041,0.045907c0.051645,0 0.074254,0.01251 0.082977,0.045907c0.006656,0.025249 0.030758,0.045907 0.053711,0.045907c0.022953,0 0.048202,0.020658 0.056236,0.045907c0.014575,0.045792 0.034774,0.045907 12.191953,0.045907c12.158097,0 12.177493,-0.000115 12.189429,-0.045907c0.008608,-0.032938 0.031331,-0.045907 0.080337,-0.045907c0.049006,0 0.07173,-0.012969 0.080337,-0.045907c0.006656,-0.025364 0.031331,-0.045907 0.055203,-0.045907c0.024331,0 0.043267,-0.016067 0.043267,-0.036611c0,-0.020084 0.020658,-0.042005 0.045907,-0.048547c0.025249,-0.006656 0.045907,-0.030299 0.045907,-0.052563c0,-0.022265 0.020658,-0.045907 0.045907,-0.052563c0.035119,-0.009181 0.045907,-0.031331 0.045907,-0.094453c0,-0.067254 0.008493,-0.082518 0.045907,-0.082518c0.044185,0 0.045907,-0.015264 0.045907,-0.399849c0,-0.417179 -0.007001,-0.472382 -0.059794,-0.472382c-0.017674,0 -0.03202,-0.020658 -0.03202,-0.045907c0,-0.030643 -0.015264,-0.045907 -0.045907,-0.045907c-0.03684,0 -0.045907,-0.015264 -0.045907,-0.077927c0,-0.079534 -0.028807,-0.105701 -0.116604,-0.105701c-0.025019,0 -0.044071,-0.015838 -0.044071,-0.036611c0,-0.020084 -0.01974,-0.041661 -0.043841,-0.047973c-0.023986,-0.006312 -0.048891,-0.031217 -0.055203,-0.055203c-0.009526,-0.036381 -0.032709,-0.043841 -0.137147,-0.043841c-0.106389,0 -0.127506,-0.007001 -0.137721,-0.045907c-0.018937,-0.072648 -23.991059,-0.072648 -24.014127,0m0.172151,3.672552c-0.021002,0.03925 -0.048087,0.045907 -0.186612,0.045907c-0.142656,0 -0.163429,0.005509 -0.173987,0.045907c-0.008608,0.032938 -0.031331,0.045907 -0.080337,0.045907c-0.049006,0 -0.07173,0.012969 -0.080337,0.045907c-0.006656,0.025364 -0.031331,0.045907 -0.055203,0.045907c-0.028003,0 -0.043267,0.016297 -0.043267,0.045907c0,0.030643 -0.015264,0.045907 -0.045907,0.045907c-0.033627,0 -0.045907,0.015264 -0.045907,0.057384c0,0.033512 -0.013198,0.057384 -0.031791,0.057384c-0.033168,0 -0.05922,0.067254 -0.059679,0.154706c-0.00023,0.028348 -0.021002,0.064384 -0.046251,0.080108c-0.04212,0.026396 -0.045907,0.053596 -0.045907,0.333055c0,0.27372 0.004591,0.308953 0.045907,0.35027c0.026167,0.026167 0.045907,0.07655 0.045907,0.116948c0,0.051645 0.01251,0.074254 0.045907,0.082977c0.025364,0.006656 0.045907,0.031331 0.045907,0.055203c0,0.028003 0.016297,0.043267 0.045907,0.043267c0.030643,0 0.045907,0.015264 0.045907,0.045907c0,0.030643 0.015264,0.045907 0.045907,0.045907c0.030643,0 0.045907,0.015264 0.045907,0.045907c0,0.037185 0.015264,0.045907 0.080337,0.045907c0.065073,0 0.080337,0.008722 0.080337,0.045907c0,0.040742 0.015264,0.045907 0.135081,0.045907c0.115685,0 0.136688,0.006542 0.147017,0.045907c0.011936,0.045792 0.031331,0.045907 11.91766,0.045907c11.886328,0 11.905724,-0.000115 11.91766,-0.045907c0.010559,-0.040398 0.031331,-0.045907 0.172151,-0.045907c0.140819,0 0.161592,-0.005509 0.172151,-0.045907c0.006886,-0.026396 0.031331,-0.045907 0.057384,-0.045907c0.026052,0 0.050498,-0.01951 0.057384,-0.045907c0.006656,-0.025249 0.025593,-0.045907 0.042234,-0.045907c0.016641,0 0.036726,-0.020658 0.044759,-0.045907c0.008034,-0.025249 0.02938,-0.045907 0.047399,-0.045907c0.018133,0 0.032938,-0.020658 0.032938,-0.045907c0,-0.030643 0.015264,-0.045907 0.045907,-0.045907c0.035463,0 0.045907,-0.015264 0.045907,-0.067368c0,-0.047055 0.013772,-0.071615 0.045907,-0.081829c0.043612,-0.013887 0.045907,-0.034774 0.045907,-0.414654c0,-0.384929 -0.001722,-0.400193 -0.045907,-0.400193c-0.038217,0 -0.045907,-0.015264 -0.045907,-0.091814c0,-0.07655 -0.007689,-0.091814 -0.045907,-0.091814c-0.030643,0 -0.045907,-0.015264 -0.045907,-0.045907c0,-0.025249 -0.014805,-0.045907 -0.032938,-0.045907c-0.018018,0 -0.039365,-0.020658 -0.047399,-0.045907c-0.008034,-0.025249 -0.028692,-0.045907 -0.045907,-0.045907c-0.017215,0 -0.037873,-0.020658 -0.045907,-0.045907c-0.010329,-0.032594 -0.034774,-0.045907 -0.08401,-0.045907c-0.050153,0 -0.072877,-0.012739 -0.081485,-0.045907c-0.010329,-0.039365 -0.031331,-0.045907 -0.147017,-0.045907c-0.104438,0 -0.145525,-0.010444 -0.180988,-0.045907c-0.072648,-0.072648 -23.672006,-0.072648 -23.710912,0m-0.309872,6.381059c-0.022839,0.025249 -0.060941,0.045907 -0.084583,0.045907c-0.023757,0 -0.048891,0.015264 -0.056121,0.033856c-0.007116,0.018592 -0.048087,0.040398 -0.09101,0.048432c-0.053941,0.0101 -0.078156,0.0272 -0.078156,0.055318c0,0.02238 -0.020658,0.046022 -0.045907,0.052678c-0.033397,0.008722 -0.045907,0.031331 -0.045907,0.082977c0,0.055777 -0.00987,0.071041 -0.045907,0.071041c-0.037988,0 -0.045907,0.015264 -0.045907,0.089174c0,0.069778 -0.009985,0.091699 -0.045907,0.10111c-0.043267,0.011362 -0.045907,0.031331 -0.045907,0.349122c0,0.31779 0.00264,0.33776 0.045907,0.349122c0.035922,0.009411 0.045907,0.031331 0.045907,0.10111c0,0.07391 0.007919,0.089174 0.045907,0.089174c0.029036,0 0.045907,0.015264 0.045907,0.041775c0,0.046481 0.195908,0.233666 0.244454,0.233666c0.0171,0 0.030987,0.014346 0.030987,0.03202c0,0.036955 0.048891,0.059794 0.12808,0.059794c0.031331,0 0.055547,0.013543 0.055547,0.030987c0,0.05417 0.35004,0.060597 3.305297,0.060597c2.955256,0 3.305297,-0.006427 3.305297,-0.060597c0,-0.020314 0.028577,-0.030987 0.082518,-0.030987c0.063122,0 0.085272,-0.010788 0.094453,-0.045907c0.007575,-0.029151 0.031331,-0.045907 0.064843,-0.045907c0.074943,0 0.125441,-0.023068 0.125441,-0.057154c0,-0.016067 0.020658,-0.03466 0.045907,-0.041316c0.025249,-0.006542 0.045907,-0.028462 0.045907,-0.048547c0,-0.020199 0.020658,-0.057269 0.045907,-0.082518c0.025249,-0.025249 0.045907,-0.065417 0.045907,-0.089174c0,-0.023872 0.020543,-0.048547 0.045907,-0.055203c0.082747,-0.021691 0.072533,-0.888528 -0.010444,-0.888528c-0.016756,0 -0.037185,-0.036152 -0.045448,-0.080337c-0.008263,-0.044185 -0.025134,-0.080337 -0.037529,-0.080337c-0.012395,0 -0.03225,-0.025823 -0.0443,-0.057384c-0.012051,-0.031561 -0.037529,-0.057384 -0.05681,-0.057384c-0.019281,0 -0.035004,-0.015264 -0.035004,-0.033971c0,-0.018707 -0.025019,-0.040283 -0.055777,-0.047973c-0.030643,-0.007689 -0.061286,-0.028577 -0.068057,-0.046366c-0.006886,-0.017789 -0.042579,-0.032364 -0.079304,-0.032364c-0.047628,0 -0.070467,-0.013198 -0.07896,-0.045907c-0.018937,-0.072418 -6.687602,-0.072418 -6.753134,0m9.101042,-0.013887c0,0.035234 -0.048317,0.059794 -0.117407,0.059794c-0.02456,0 -0.050268,0.014461 -0.057039,0.032135c-0.006771,0.017674 -0.03225,0.037414 -0.056695,0.043841c-0.024331,0.006312 -0.0443,0.028003 -0.0443,0.048087c0,0.020199 -0.015838,0.036611 -0.035119,0.036611c-0.019396,0 -0.04189,0.018018 -0.050153,0.040169c-0.008263,0.02215 -0.033742,0.053711 -0.056695,0.070123c-0.023298,0.016871 -0.041661,0.058531 -0.041661,0.094913c0,0.045563 -0.013657,0.068401 -0.045907,0.076894c-0.040857,0.010673 -0.045907,0.031331 -0.045907,0.186267c0,0.139672 -0.006886,0.174331 -0.03443,0.174331c-0.024101,0 -0.03443,0.024216 -0.03443,0.080337c0,0.056121 0.010329,0.080337 0.03443,0.080337c0.027544,0 0.03443,0.03466 0.03443,0.174331c0,0.154936 0.00505,0.175594 0.045907,0.186267c0.029725,0.007804 0.045907,0.031331 0.045907,0.06668c0,0.030069 0.018822,0.073566 0.04189,0.096634c0.023068,0.023068 0.048547,0.05922 0.056695,0.080337c0.008148,0.021117 0.02938,0.038447 0.047169,0.038447c0.017904,0 0.037873,0.020658 0.04453,0.045907c0.008722,0.033282 0.031331,0.045907 0.082173,0.045907c0.04671,0 0.078501,0.015379 0.094798,0.045907c0.01733,0.032364 0.048087,0.045907 0.104094,0.045907c0.051416,0 0.079534,0.010903 0.079534,0.030987c0,0.022839 0.058646,0.034774 0.223796,0.045792c0.510829,0.033856 1.199318,0.007575 1.199318,-0.045792c0,-0.020314 0.028577,-0.030987 0.082518,-0.030987c0.06163,0 0.085272,-0.011018 0.093765,-0.043497c0.006427,-0.024445 0.038906,-0.048891 0.074369,-0.056006c0.094568,-0.018937 0.208417,-0.128884 0.208417,-0.201302c0,-0.041775 0.014461,-0.064843 0.045907,-0.073107c0.025249,-0.006542 0.045907,-0.028462 0.045907,-0.048547c0,-0.020199 0.013887,-0.036611 0.030987,-0.036611c0.039824,0 0.063466,-0.356238 0.04453,-0.671388c-0.009985,-0.166183 -0.021347,-0.223796 -0.044415,-0.223796c-0.0171,0 -0.031102,-0.013543 -0.031102,-0.030069c0,-0.016641 -0.020658,-0.052334 -0.045907,-0.079419c-0.025249,-0.027085 -0.045907,-0.065073 -0.045907,-0.084469c0,-0.019396 -0.020658,-0.048087 -0.045907,-0.063811c-0.025249,-0.015838 -0.045907,-0.041661 -0.045907,-0.057384c0,-0.015723 -0.041316,-0.035234 -0.091814,-0.043267c-0.055433,-0.008837 -0.091814,-0.0272 -0.091814,-0.046251c0,-0.01733 -0.019969,-0.031446 -0.044415,-0.031446c-0.024331,0 -0.050842,-0.020658 -0.058876,-0.045907c-0.019051,-0.060023 -1.595265,-0.073795 -1.595265,-0.013887m15.883786,0.689177c0,0.035807 -0.032823,0.082173 -0.058302,0.082173c-0.016756,0 -0.036955,0.020658 -0.044989,0.045907c-0.008034,0.025249 -0.02938,0.045907 -0.047399,0.045907c-0.018133,0 -0.032938,0.020658 -0.032938,0.045907c0,0.030643 -0.015264,0.045907 -0.045907,0.045907c-0.030643,0 -0.045907,0.015264 -0.045907,0.045907c0,0.030643 -0.015264,0.045907 -0.045907,0.045907c-0.030643,0 -0.045907,0.015264 -0.045907,0.045907c0,0.030643 -0.015264,0.045907 -0.045907,0.045907c-0.025249,0 -0.045907,0.014805 -0.045907,0.032938c0,0.018018 -0.020658,0.039365 -0.045907,0.047399c-0.025249,0.008034 -0.045907,0.028692 -0.045907,0.045907c0,0.017215 -0.020658,0.037873 -0.045907,0.045907c-0.025249,0.008034 -0.045907,0.028118 -0.045907,0.044759c0,0.016641 -0.020658,0.035578 -0.045907,0.042234c-0.025249,0.006542 -0.045907,0.0272 -0.045907,0.045907c0,0.018592 -0.020658,0.03925 -0.045907,0.045907c-0.025249,0.006542 -0.045907,0.0272 -0.045907,0.045907c0,0.018592 -0.020658,0.03925 -0.045907,0.045907c-0.025249,0.006542 -0.045907,0.028462 -0.045907,0.048547c0,0.020199 -0.014805,0.036611 -0.032938,0.036611c-0.018018,0 -0.039365,0.020658 -0.047399,0.045907c-0.008034,0.025249 -0.028118,0.045907 -0.044759,0.045907c-0.016641,0 -0.035578,0.020658 -0.042234,0.045907c-0.006542,0.025249 -0.028462,0.045907 -0.048547,0.045907c-0.021347,0 -0.036611,0.019166 -0.036611,0.045907c0,0.030643 -0.015264,0.045907 -0.045907,0.045907c-0.030643,0 -0.045907,0.015264 -0.045907,0.045907c0,0.02961 -0.015264,0.045907 -0.043267,0.045907c-0.023872,0 -0.048547,0.020543 -0.055203,0.045907c-0.006542,0.025249 -0.028462,0.045907 -0.048547,0.045907c-0.020199,0 -0.036611,0.014805 -0.036611,0.032938c0,0.018018 -0.020658,0.039365 -0.045907,0.047399c-0.025249,0.008034 -0.045907,0.02938 -0.045907,0.047399c0,0.018133 -0.016412,0.032938 -0.036611,0.032938c-0.020084,0 -0.042005,0.020658 -0.048547,0.045907c-0.006656,0.025249 -0.027315,0.045907 -0.045907,0.045907c-0.018707,0 -0.039365,0.020658 -0.045907,0.045907c-0.006656,0.025249 -0.027315,0.045907 -0.045907,0.045907c-0.018707,0 -0.039365,0.020658 -0.045907,0.045907c-0.006656,0.025249 -0.027315,0.045907 -0.045907,0.045907c-0.018707,0 -0.039365,0.020658 -0.045907,0.045907c-0.006656,0.025249 -0.025593,0.045907 -0.042234,0.045907c-0.016641,0 -0.036726,0.020658 -0.044759,0.045907c-0.008034,0.025249 -0.02938,0.045907 -0.047399,0.045907c-0.018133,0 -0.032938,0.016412 -0.032938,0.036611c0,0.020084 -0.020658,0.042005 -0.045907,0.048547c-0.025364,0.006656 -0.045907,0.031331 -0.045907,0.055203c0,0.028003 -0.016297,0.043267 -0.045907,0.043267c-0.030643,0 -0.045907,0.015264 -0.045907,0.045907c0,0.030643 -0.015264,0.045907 -0.045907,0.045907c-0.026741,0 -0.045907,0.015264 -0.045907,0.036611c0,0.020084 -0.020658,0.042005 -0.045907,0.048547c-0.025249,0.006656 -0.045907,0.025593 -0.045907,0.042234c0,0.016641 -0.020658,0.036726 -0.045907,0.044759c-0.025249,0.008034 -0.045907,0.028118 -0.045907,0.044759c0,0.016641 -0.020658,0.035578 -0.045907,0.042234c-0.025249,0.006542 -0.045907,0.0272 -0.045907,0.045907c0,0.018592 -0.020658,0.03925 -0.045907,0.045907c-0.025249,0.006542 -0.045907,0.0272 -0.045907,0.045907c0,0.018592 -0.020658,0.03925 -0.045907,0.045907c-0.025249,0.006542 -0.045907,0.028462 -0.045907,0.048547c0,0.020199 -0.014805,0.036611 -0.032938,0.036611c-0.018018,0 -0.039365,0.020658 -0.047399,0.045907c-0.008034,0.025249 -0.028692,0.045907 -0.045907,0.045907c-0.017215,0 -0.037873,0.020658 -0.045907,0.045907c-0.008034,0.025249 -0.02938,0.045907 -0.047399,0.045907c-0.018133,0 -0.032938,0.020658 -0.032938,0.045907c0,0.030643 -0.015264,0.045907 -0.045907,0.045907c-0.030643,0 -0.045907,0.015264 -0.045907,0.045907c0,0.030643 -0.015264,0.045907 -0.045907,0.045907c-0.030643,0 -0.045907,0.015264 -0.045907,0.045907c0,0.030643 -0.015264,0.045907 -0.045907,0.045907c-0.025249,0 -0.045907,0.014805 -0.045907,0.032938c0,0.018018 -0.020658,0.039365 -0.045907,0.047399c-0.025249,0.008034 -0.045907,0.028692 -0.045907,0.045907c0,0.017215 -0.020658,0.037873 -0.045907,0.045907c-0.025249,0.008034 -0.045907,0.02938 -0.045907,0.047399c0,0.018133 -0.016412,0.032938 -0.036611,0.032938c-0.020084,0 -0.042005,0.020658 -0.048547,0.045907c-0.006656,0.025249 -0.027315,0.045907 -0.045907,0.045907c-0.018707,0 -0.039365,0.020658 -0.045907,0.045907c-0.006656,0.025249 -0.027315,0.045907 -0.045907,0.045907c-0.018707,0 -0.039365,0.020658 -0.045907,0.045907c-0.006656,0.025249 -0.025593,0.045907 -0.042234,0.045907c-0.016641,0 -0.036726,0.020658 -0.044759,0.045907c-0.008034,0.025249 -0.028118,0.045907 -0.044759,0.045907c-0.016641,0 -0.035578,0.020658 -0.042234,0.045907c-0.006542,0.025249 -0.027774,0.045907 -0.04694,0.045907c-0.019281,0 -0.03948,0.023298 -0.044989,0.051645c-0.005509,0.028348 -0.011362,-0.880494 -0.013083,-2.019903l-0.003099,-2.071549l2.03138,0c1.117259,0 2.03138,0.004361 2.03138,0.00964" id="path0"/>
  </g>
 </g>
</svg>
