<svg id="SvgjsSvg1053" xmlns="http://www.w3.org/2000/svg" version="1.1" xmlns:xlink="http://www.w3.org/1999/xlink" xmlns:svgjs="http://svgjs.com/svgjs" width="57" height="50" viewBox="0 0 57 50"><title>Shape 1</title><desc>Created with Avocode.</desc><defs id="SvgjsDefs1054"><linearGradient id="SvgjsLinearGradient1057" gradientUnits="userSpaceOnUse" x1="651.48120829103" y1="237.24999000000003" x2="615.5187917089701" y2="286.74801"><stop id="SvgjsStop1058" stop-opacity="1" stop-color="#3d3daf" offset="0"></stop><stop id="SvgjsStop1059" stop-opacity="1" stop-color="#3d3daf" offset="0.45"></stop><stop id="SvgjsStop1060" stop-opacity="1" stop-color="#c741ba" offset="1"></stop></linearGradient></defs><path id="SvgjsPath1055" d="M609.75 250.461C609.993 250.461 610.236 250.36700000000002 610.422 250.18L614.222 246.333C614.593 245.958 614.593 245.35 614.222 244.974C613.85 244.59799999999998 613.25 244.59799999999998 612.8779999999999 244.974L609.078 248.82C608.707 249.196 608.707 249.804 609.078 250.18C609.264 250.36700000000002 609.507 250.461 609.75 250.461ZM609.75 255.269C609.993 255.269 610.236 255.175 610.422 254.987L612.322 253.064C612.693 252.688 612.693 252.081 612.322 251.70499999999998C611.95 251.32899999999998 611.35 251.32899999999998 610.978 251.70499999999998L609.078 253.628C608.707 254.004 608.707 254.612 609.078 254.987C609.264 255.17499999999998 609.507 255.269 609.75 255.269ZM612.875 249.779C612.703 249.96099999999998 612.6 250.21099999999998 612.6 250.46099999999998C612.6 250.71099999999998 612.703 250.96099999999998 612.875 251.14399999999998C612.961 251.23099999999997 613.065 251.29799999999997 613.189 251.34599999999998C613.303 251.39399999999998 613.4259999999999 251.42299999999997 613.55 251.42299999999997C613.7969999999999 251.42299999999997 614.044 251.31699999999998 614.2239999999999 251.14399999999998C614.395 250.96099999999998 614.4999999999999 250.71099999999998 614.4999999999999 250.46099999999998C614.4999999999999 250.21099999999998 614.3949999999999 249.96099999999998 614.2239999999999 249.779C613.8729999999999 249.423 613.227 249.423 612.8749999999999 249.779ZM614.778 249.218C614.964 249.40599999999998 615.207 249.5 615.45 249.5C615.6930000000001 249.5 615.936 249.406 616.1220000000001 249.218L618.9720000000001 246.333C619.3430000000001 245.958 619.3430000000001 245.35 618.9720000000001 244.974C618.6000000000001 244.59799999999998 618.0000000000001 244.59799999999998 617.628 244.974L614.778 247.85899999999998C614.407 248.23399999999998 614.407 248.84199999999998 614.778 249.218ZM617.628 249.782L609.0780000000001 258.435C608.7070000000001 258.811 608.7070000000001 259.419 609.0780000000001 259.795C609.2640000000001 259.982 609.5070000000001 260.077 609.7500000000001 260.077C609.9930000000002 260.077 610.2360000000001 259.98199999999997 610.4220000000001 259.795L618.9720000000001 251.14100000000002C619.3430000000001 250.76500000000001 619.3430000000001 250.157 618.9720000000001 249.782C618.6000000000001 249.406 618.0000000000001 249.406 617.628 249.782ZM620.874 247.856C620.523 247.5 619.8770000000001 247.5 619.525 247.856C619.4399999999999 247.952 619.3729999999999 248.057 619.326 248.173C619.278 248.288 619.25 248.413 619.25 248.538C619.25 248.788 619.353 249.038 619.525 249.221C619.7049999999999 249.394 619.942 249.5 620.1999999999999 249.5C620.4559999999999 249.5 620.694 249.394 620.8739999999999 249.221C621.0459999999999 249.038 621.1499999999999 248.788 621.1499999999999 248.538C621.1499999999999 248.413 621.1219999999998 248.288 621.0739999999998 248.173C621.0259999999998 248.057 620.9599999999998 247.952 620.8739999999998 247.856ZM623.722 244.974C623.35 244.59799999999998 622.75 244.59799999999998 622.3779999999999 244.974L621.4279999999999 245.93599999999998C621.0569999999999 246.31099999999998 621.0569999999999 246.91899999999998 621.4279999999999 247.295C621.6139999999999 247.482 621.8569999999999 247.577 622.0999999999999 247.577C622.343 247.577 622.5859999999999 247.482 622.7719999999999 247.295L623.722 246.333C624.093 245.958 624.093 245.35 623.722 244.974ZM661.05 237H605.9499999999999C605.424 237 604.9999999999999 237.431 604.9999999999999 237.961V276.423C604.9999999999999 276.954 605.4239999999999 277.384 605.9499999999999 277.384H619.8169999999999C617.6709999999999 278.572 615.7049999999999 280.265 614.1429999999999 282.346C613.6439999999999 283.01 613.4469999999999 283.857 613.6019999999999 284.671C613.7549999999999 285.472 614.2379999999998 286.17199999999997 614.9299999999998 286.592C616.1759999999998 287.34799999999996 617.7909999999998 287.022 618.6839999999999 285.832C621.0769999999999 282.653 624.5099999999999 281.23 626.8499999999999 281.23H640.1499999999999C642.4889999999999 281.23 645.9229999999999 282.653 648.3149999999998 285.831C648.8859999999999 286.59000000000003 649.7489999999998 286.998 650.6219999999998 286.998C651.1179999999998 286.998 651.6189999999998 286.866 652.0699999999998 286.592C652.7609999999999 286.17199999999997 653.2449999999998 285.472 653.3979999999998 284.671C653.5529999999998 283.85699999999997 653.3549999999998 283.01 652.8579999999998 282.346C651.2949999999998 280.265 649.3289999999998 278.572 647.1829999999999 277.384H661.0499999999998C661.5749999999998 277.384 661.9999999999999 276.95300000000003 661.9999999999999 276.423V237.961C661.9999999999999 237.431 661.5749999999999 237 661.0499999999998 237ZM606.9 242.769H660.1V271.615H606.9ZM606.9 238.923H660.1V240.846H606.9ZM651.345 283.51C651.5160000000001 283.739 651.585 284.03 651.532 284.307C651.481 284.576 651.3240000000001 284.802 651.092 284.94300000000004C650.681 285.19500000000005 650.134 285.07500000000005 649.826 284.66700000000003C647.0400000000001 280.96500000000003 642.958 279.307 640.15 279.307H626.85C624.042 279.307 619.961 280.96500000000003 617.173 284.66700000000003C616.867 285.076 616.321 285.19500000000005 615.907 284.94300000000004C615.676 284.802 615.519 284.576 615.467 284.307C615.414 284.03000000000003 615.484 283.73900000000003 615.655 283.51C618.485 279.739 622.762 277.395 626.823 277.384H640.177C644.238 277.39500000000004 648.515 279.73900000000003 651.345 283.51ZM640.178 275.461C640.168 275.461 640.159 275.461 640.15 275.461C640.1469999999999 275.461 640.144 275.461 640.141 275.461H626.86C626.857 275.461 626.8530000000001 275.461 626.85 275.461C626.841 275.461 626.832 275.461 626.823 275.461H606.9V273.538H660.1V275.461Z " fill="#000000" fill-opacity="1" transform="matrix(1,0,0,1,-605,-237)"></path><path id="SvgjsPath1056" d="M609.75 250.461C609.993 250.461 610.236 250.36700000000002 610.422 250.18L614.222 246.333C614.593 245.958 614.593 245.35 614.222 244.974C613.85 244.59799999999998 613.25 244.59799999999998 612.8779999999999 244.974L609.078 248.82C608.707 249.196 608.707 249.804 609.078 250.18C609.264 250.36700000000002 609.507 250.461 609.75 250.461ZM609.75 255.269C609.993 255.269 610.236 255.175 610.422 254.987L612.322 253.064C612.693 252.688 612.693 252.081 612.322 251.70499999999998C611.95 251.32899999999998 611.35 251.32899999999998 610.978 251.70499999999998L609.078 253.628C608.707 254.004 608.707 254.612 609.078 254.987C609.264 255.17499999999998 609.507 255.269 609.75 255.269ZM612.875 249.779C612.703 249.96099999999998 612.6 250.21099999999998 612.6 250.46099999999998C612.6 250.71099999999998 612.703 250.96099999999998 612.875 251.14399999999998C612.961 251.23099999999997 613.065 251.29799999999997 613.189 251.34599999999998C613.303 251.39399999999998 613.4259999999999 251.42299999999997 613.55 251.42299999999997C613.7969999999999 251.42299999999997 614.044 251.31699999999998 614.2239999999999 251.14399999999998C614.395 250.96099999999998 614.4999999999999 250.71099999999998 614.4999999999999 250.46099999999998C614.4999999999999 250.21099999999998 614.3949999999999 249.96099999999998 614.2239999999999 249.779C613.8729999999999 249.423 613.227 249.423 612.8749999999999 249.779ZM614.778 249.218C614.964 249.40599999999998 615.207 249.5 615.45 249.5C615.6930000000001 249.5 615.936 249.406 616.1220000000001 249.218L618.9720000000001 246.333C619.3430000000001 245.958 619.3430000000001 245.35 618.9720000000001 244.974C618.6000000000001 244.59799999999998 618.0000000000001 244.59799999999998 617.628 244.974L614.778 247.85899999999998C614.407 248.23399999999998 614.407 248.84199999999998 614.778 249.218ZM617.628 249.782L609.0780000000001 258.435C608.7070000000001 258.811 608.7070000000001 259.419 609.0780000000001 259.795C609.2640000000001 259.982 609.5070000000001 260.077 609.7500000000001 260.077C609.9930000000002 260.077 610.2360000000001 259.98199999999997 610.4220000000001 259.795L618.9720000000001 251.14100000000002C619.3430000000001 250.76500000000001 619.3430000000001 250.157 618.9720000000001 249.782C618.6000000000001 249.406 618.0000000000001 249.406 617.628 249.782ZM620.874 247.856C620.523 247.5 619.8770000000001 247.5 619.525 247.856C619.4399999999999 247.952 619.3729999999999 248.057 619.326 248.173C619.278 248.288 619.25 248.413 619.25 248.538C619.25 248.788 619.353 249.038 619.525 249.221C619.7049999999999 249.394 619.942 249.5 620.1999999999999 249.5C620.4559999999999 249.5 620.694 249.394 620.8739999999999 249.221C621.0459999999999 249.038 621.1499999999999 248.788 621.1499999999999 248.538C621.1499999999999 248.413 621.1219999999998 248.288 621.0739999999998 248.173C621.0259999999998 248.057 620.9599999999998 247.952 620.8739999999998 247.856ZM623.722 244.974C623.35 244.59799999999998 622.75 244.59799999999998 622.3779999999999 244.974L621.4279999999999 245.93599999999998C621.0569999999999 246.31099999999998 621.0569999999999 246.91899999999998 621.4279999999999 247.295C621.6139999999999 247.482 621.8569999999999 247.577 622.0999999999999 247.577C622.343 247.577 622.5859999999999 247.482 622.7719999999999 247.295L623.722 246.333C624.093 245.958 624.093 245.35 623.722 244.974ZM661.05 237H605.9499999999999C605.424 237 604.9999999999999 237.431 604.9999999999999 237.961V276.423C604.9999999999999 276.954 605.4239999999999 277.384 605.9499999999999 277.384H619.8169999999999C617.6709999999999 278.572 615.7049999999999 280.265 614.1429999999999 282.346C613.6439999999999 283.01 613.4469999999999 283.857 613.6019999999999 284.671C613.7549999999999 285.472 614.2379999999998 286.17199999999997 614.9299999999998 286.592C616.1759999999998 287.34799999999996 617.7909999999998 287.022 618.6839999999999 285.832C621.0769999999999 282.653 624.5099999999999 281.23 626.8499999999999 281.23H640.1499999999999C642.4889999999999 281.23 645.9229999999999 282.653 648.3149999999998 285.831C648.8859999999999 286.59000000000003 649.7489999999998 286.998 650.6219999999998 286.998C651.1179999999998 286.998 651.6189999999998 286.866 652.0699999999998 286.592C652.7609999999999 286.17199999999997 653.2449999999998 285.472 653.3979999999998 284.671C653.5529999999998 283.85699999999997 653.3549999999998 283.01 652.8579999999998 282.346C651.2949999999998 280.265 649.3289999999998 278.572 647.1829999999999 277.384H661.0499999999998C661.5749999999998 277.384 661.9999999999999 276.95300000000003 661.9999999999999 276.423V237.961C661.9999999999999 237.431 661.5749999999999 237 661.0499999999998 237ZM606.9 242.769H660.1V271.615H606.9ZM606.9 238.923H660.1V240.846H606.9ZM651.345 283.51C651.5160000000001 283.739 651.585 284.03 651.532 284.307C651.481 284.576 651.3240000000001 284.802 651.092 284.94300000000004C650.681 285.19500000000005 650.134 285.07500000000005 649.826 284.66700000000003C647.0400000000001 280.96500000000003 642.958 279.307 640.15 279.307H626.85C624.042 279.307 619.961 280.96500000000003 617.173 284.66700000000003C616.867 285.076 616.321 285.19500000000005 615.907 284.94300000000004C615.676 284.802 615.519 284.576 615.467 284.307C615.414 284.03000000000003 615.484 283.73900000000003 615.655 283.51C618.485 279.739 622.762 277.395 626.823 277.384H640.177C644.238 277.39500000000004 648.515 279.73900000000003 651.345 283.51ZM640.178 275.461C640.168 275.461 640.159 275.461 640.15 275.461C640.1469999999999 275.461 640.144 275.461 640.141 275.461H626.86C626.857 275.461 626.8530000000001 275.461 626.85 275.461C626.841 275.461 626.832 275.461 626.823 275.461H606.9V273.538H660.1V275.461Z " fill="url(#SvgjsLinearGradient1057)" transform="matrix(1,0,0,1,-605,-237)"></path></svg>