<svg width="26" height="21" xmlns="http://www.w3.org/2000/svg"><g><path fill-rule="evenodd" d="M17.487.022c0 .012-.176.028-.39.037-.242.008-.396.024-.4.04-.006.016-.067.028-.137.028s-.126.01-.126.023-.046.03-.103.04c-.055.01-.1.027-.1.04 0 .015-.053.027-.117.027s-.116.01-.116.023-.036.032-.08.042c-.046.01-.122.04-.17.066-.046.027-.108.05-.135.05-.028 0-.05.01-.05.022 0 .013-.036.03-.078.04-.042.01-.077.028-.077.04 0 .014-.023.025-.05.025-.03 0-.053.01-.053.024 0 .012-.035.03-.077.04-.042.008-.077.027-.077.04 0 .013-.023.023-.05.023-.03 0-.053.01-.053.023s-.03.03-.064.04c-.035.008-.064.027-.064.04 0 .014-.018.026-.04.026-.02 0-.038.01-.038.025 0 .014-.017.026-.037.026-.02 0-.067.03-.102.064-.035.036-.08.064-.1.064-.02 0-.045.02-.053.04s-.03.038-.05.038c-.018 0-.06.03-.09.065s-.068.064-.084.064c-.042 0-.922.893-.922.935 0 .02-.023.044-.05.053-.03.01-.053.037-.053.063 0 .025-.027.067-.06.093-.036.027-.07.075-.08.107-.007.033-.025.06-.04.06-.013 0-.024.013-.024.03 0 .016-.02.05-.043.077-.05.054-.104.143-.127.207-.01.026-.025.046-.036.046-.012 0-.03.035-.038.077-.01.042-.028.077-.04.077-.014 0-.024.023-.024.05 0 .03-.01.053-.025.053-.013 0-.032.04-.04.09-.01.05-.028.09-.04.09-.013 0-.024.027-.024.06 0 .035-.018.07-.04.077-.02.008-.038.038-.038.067 0 .05-.045.152-.08.18-.008.008-.022.042-.03.078-.055.22-.084.308-.1.308-.012 0-.02.04-.02.09 0 .05-.01.09-.023.09s-.03.07-.04.153c-.01.084-.027.16-.038.165-.01.008-.022.063-.026.123-.003.06-.02.118-.034.128-.02.012-.033.217-.04.598l-.013.58h-.06c-.033 0-.067-.01-.075-.025-.01-.014-.05-.026-.092-.026-.04 0-.075-.01-.075-.02 0-.018-.245-.066-.52-.1-.053-.008-.097-.024-.097-.036 0-.012-.05-.022-.113-.022-.062 0-.12-.01-.128-.024-.01-.013-.073-.03-.144-.04-.07-.01-.135-.03-.143-.042-.007-.012-.06-.023-.113-.023-.054 0-.103-.012-.108-.026-.004-.014-.08-.033-.17-.042-.087-.01-.16-.027-.16-.04 0-.01-.028-.02-.063-.02-.037 0-.066-.012-.066-.024 0-.013-.07-.032-.154-.04-.084-.01-.154-.03-.154-.042 0-.013-.04-.024-.09-.024-.05 0-.09-.01-.09-.025 0-.014-.02-.026-.048-.026-.026 0-.09-.016-.14-.037-.05-.022-.127-.04-.17-.04-.043 0-.078-.01-.078-.025 0-.014-.028-.025-.062-.025s-.066-.013-.07-.03c-.007-.014-.065-.033-.132-.04-.067-.008-.12-.024-.12-.036 0-.013-.024-.023-.052-.023-.03 0-.052-.01-.052-.023 0-.012-.058-.03-.128-.04-.07-.01-.13-.025-.13-.035 0-.023-.122-.076-.224-.096-.045-.01-.083-.028-.083-.04s-.03-.023-.064-.023c-.035 0-.064-.01-.064-.025 0-.014-.03-.026-.065-.026-.036 0-.065-.01-.065-.024s-.04-.032-.09-.042c-.05-.01-.09-.027-.09-.04 0-.012-.017-.022-.038-.022-.02 0-.038-.01-.038-.023 0-.012-.047-.03-.103-.04-.056-.007-.102-.026-.102-.04 0-.014-.023-.026-.05-.026-.03 0-.052-.012-.052-.025 0-.014-.04-.032-.09-.042-.05-.01-.09-.027-.09-.04 0-.012-.03-.022-.064-.022-.036 0-.065-.01-.065-.023s-.034-.03-.077-.04c-.042-.01-.077-.028-.077-.04 0-.014-.02-.024-.045-.024-.026 0-.062-.023-.082-.05-.02-.03-.07-.058-.11-.067-.038-.01-.07-.027-.07-.04 0-.013-.023-.023-.05-.023-.026 0-.055-.018-.063-.04-.008-.02-.038-.037-.067-.037-.028 0-.052-.012-.052-.026 0-.014-.016-.026-.035-.026-.02 0-.05-.017-.07-.038-.016-.02-.054-.04-.082-.04-.03 0-.07-.02-.093-.046-.023-.027-.068-.056-.1-.066-.03-.01-.057-.03-.057-.042 0-.014-.018-.024-.04-.024-.02 0-.037-.012-.037-.026 0-.014-.015-.026-.035-.026-.02 0-.05-.017-.067-.038-.018-.02-.053-.04-.08-.04-.024 0-.052-.022-.06-.05-.01-.028-.035-.05-.056-.05-.037 0-.245-.15-.262-.188-.005-.01-.025-.02-.045-.02-.02 0-.036-.01-.036-.025 0-.014-.022-.025-.047-.025-.026 0-.09-.046-.14-.103-.053-.056-.11-.103-.13-.103-.017 0-.05-.023-.07-.05-.02-.03-.05-.052-.068-.052-.018 0-.078-.047-.134-.103-.055-.058-.108-.104-.117-.104-.008 0-.047-.03-.085-.064-.038-.035-.077-.064-.087-.064-.01 0-.077-.058-.15-.13-.075-.07-.15-.127-.17-.127-.018 0-.034-.016-.034-.037 0-.02-.023-.05-.05-.065-.03-.015-.132-.108-.228-.206-.096-.098-.184-.18-.194-.18-.02 0-.077-.043-.126-.096-.017-.02-.046-.048-.064-.065-.02-.016-.048-.044-.065-.063-.04-.043-.263-.265-.306-.305-.02-.017-.047-.046-.064-.065-.017-.018-.046-.047-.065-.064L2.6 1.1c-.017-.02-.046-.05-.064-.067L2.383.88C2.316.81 2.247.743 2.23.726 2.21.71 2.18.68 2.164.662c-.094-.1-.162-.125-.162-.06 0 .023-.01.04-.023.04-.012 0-.03.04-.04.09-.01.05-.025.09-.035.09-.02 0-.108.188-.108.23 0 .015-.01.026-.025.026-.014 0-.026.024-.026.052 0 .028-.01.05-.026.05-.014 0-.025.02-.025.04s-.01.038-.025.038c-.013 0-.032.04-.04.09-.01.05-.028.09-.04.09-.013 0-.024.03-.024.064 0 .035-.01.064-.024.064s-.032.04-.04.09c-.01.05-.026.09-.035.09-.024 0-.073.126-.092.238-.01.053-.027.096-.04.096-.014 0-.025.04-.025.09 0 .05-.01.09-.025.09-.013 0-.032.07-.042.154-.01.084-.027.154-.04.154-.012 0-.022.045-.022.1 0 .057-.01.11-.024.118-.015.01-.026.06-.026.116 0 .054-.01.106-.022.113-.084.052-.035 1.89.05 1.89.013 0 .023.057.023.128 0 .07.012.128.024.128.013 0 .032.06.04.13.01.07.03.134.042.142.013.008.024.05.024.09 0 .042.01.076.022.076.013 0 .03.052.04.115.01.063.028.12.042.13.013.008.024.037.024.064 0 .028.01.05.025.05.014 0 .033.047.042.103.01.057.027.103.04.103.01 0 .02.023.02.05 0 .03.012.052.025.052.013 0 .03.035.04.077.01.043.028.078.04.078.014 0 .025.023.025.05 0 .03.01.052.025.052.015 0 .026.018.026.04 0 .02.012.037.026.037.014 0 .025.023.025.05 0 .03.018.06.04.068.02.008.038.037.038.064 0 .027.01.048.023.048s.03.033.04.072c.008.04.038.09.066.11.028.02.05.056.05.082 0 .025.018.053.04.06.02.01.037.032.037.05 0 .037.03.074.162.217.04.042.07.094.07.117 0 .022.018.046.04.054.02.01.037.03.037.048 0 .038.297.348.333.348.014 0 .026.02.026.043 0 .022.02.064.044.092.048.055-.15.047-.255-.01-.025-.013-.068-.023-.098-.023s-.053-.01-.053-.022c0-.02-.26-.108-.323-.108-.02 0-.037-.01-.037-.025 0-.015-.017-.026-.04-.026-.02 0-.037-.012-.037-.025 0-.013-.038-.032-.084-.042-.046-.01-.098-.038-.115-.063-.018-.025-.062-.053-.1-.062-.036-.01-.094-.045-.13-.08-.034-.035-.076-.063-.093-.063s-.058-.034-.09-.076c-.033-.042-.094-.083-.135-.092-.042-.01-.076-.027-.076-.04 0-.013-.028-.024-.063-.024s-.064-.012-.064-.026c0-.014-.052-.025-.116-.025-.063 0-.115.01-.115.025 0 .014-.035.026-.077.026-.043 0-.077.01-.077.02S.633 7.4.59 7.425C.55 7.45.51 7.5.5 7.536.49 7.57.47 7.6.46 7.6c-.013 0-.023.03-.023.065S.425 7.73.41 7.73c-.032 0-.033.3 0 .31.013.006.028.04.034.074.005.036.024.097.04.137.016.04.03.09.03.108 0 .02.01.043.025.052.013.008.025.044.025.078 0 .035.01.063.026.063.015 0 .026.024.026.052 0 .028.01.052.023.052.01 0 .028.046.038.102.01.057.027.103.04.103.015 0 .027.022.027.05 0 .03.01.052.025.052.014 0 .026.03.026.065s.017.07.04.08c.02.008.037.032.037.054 0 .057.082.238.108.238.012 0 .02.018.02.04 0 .02.012.037.025.037.013 0 .03.034.04.075.01.04.04.094.066.12.03.024.05.06.05.08 0 .018.01.033.024.033.013 0 .03.03.04.065.008.035.027.064.04.064.014 0 .026.017.026.038 0 .02.01.04.024.04.013 0 .032.025.042.057.01.03.04.076.066.1.026.022.047.053.047.068 0 .016.025.055.057.09.06.062.11.133.14.197.01.022.067.088.128.147.06.06.11.118.11.132 0 .014.05.076.11.14.06.063.134.146.16.184.03.04.067.083.085.1.018.015.047.043.064.06.173.188.41.418.43.418.015 0 .07.043.124.096.054.053.13.12.17.147.04.03.1.084.137.122.035.038.085.07.11.07.025 0 .053.023.06.05.01.028.042.058.074.068.03.01.072.037.094.06.02.025.076.066.122.093.046.027.083.058.083.07 0 .01.016.02.038.02.02 0 .038.01.038.025 0 .014.016.026.035.026.037 0 .146.085.146.113 0 .01-.087.016-.193.016-.11 0-.192-.01-.192-.026 0-.015-.063-.026-.14-.026-.078 0-.142-.01-.142-.022 0-.012-.083-.03-.186-.038-.102-.008-.19-.027-.194-.042-.005-.015-.027-.026-.05-.026-.058 0-.29-.087-.29-.11 0-.01-.022-.02-.05-.02-.028 0-.052-.01-.052-.025 0-.014-.017-.025-.038-.025-.02 0-.04-.01-.04-.023s-.027-.03-.063-.04c-.035-.008-.064-.027-.064-.04 0-.014-.02-.026-.048-.026-.027 0-.054-.013-.06-.03-.008-.024-.095-.033-.32-.033h-.31l-.105.103c-.058.056-.106.123-.106.148 0 .024-.01.045-.025.045-.015 0-.025.085-.025.205 0 .113.01.205.022.205.013 0 .03.052.04.115.01.064.028.122.042.13.013.008.024.038.024.065 0 .027.01.05.025.05.014 0 .033.046.042.103.01.056.027.102.04.102.01 0 .02.023.02.052 0 .028.013.05.027.05s.026.012.026.027c0 .043.088.23.108.23.01 0 .02.018.02.04 0 .02.012.038.026.038.014 0 .025.023.025.052 0 .03.018.06.04.067.02.008.038.037.038.063 0 .027.01.05.023.05s.03.032.04.072c.01.04.042.097.073.126.083.077.12.128.12.158 0 .015.013.027.027.027s.026.013.026.028c0 .032.027.066.183.227.065.067.126.147.136.177.01.03.04.06.066.07.027.008.056.038.064.065.01.028.026.05.038.05s.095.07.185.152c.246.23.25.233.288.233.02 0 .042.017.05.038.01.022.036.04.06.04.027 0 .068.027.094.06.025.035.083.078.128.097.045.018.104.054.132.08.028.026.077.054.11.062.03.007.058.024.058.036 0 .013.023.023.05.023.03 0 .052.01.052.024 0 .013.04.032.09.04.05.01.09.028.09.04 0 .013.017.023.04.023.02 0 .037.012.037.026 0 .014.026.026.058.026s.09.016.13.037c.042.022.097.04.123.04.027 0 .05.008.05.02 0 .03.23.107.313.107.04 0 .07.012.07.026 0 .014.04.026.09.026.05 0 .09.01.09.022 0 .012.073.03.16.038.09.01.165.03.17.043.005.013.048.024.095.024s.093.012.102.026c.01.014.09.025.183.025.135 0 .16.006.133.033-.043.042-.307.173-.347.173-.018 0-.032.012-.032.026 0 .015-.017.026-.038.026-.02 0-.038.01-.038.025 0 .013-.04.032-.09.04-.05.01-.09.028-.09.04 0 .013-.017.023-.04.023-.02 0-.037.012-.037.026 0 .014-.028.026-.062.026-.035 0-.078.014-.098.032-.062.057-.135.09-.245.108-.06.01-.115.03-.123.042-.01.013-.043.023-.078.023-.034 0-.063.01-.063.023s-.076.043-.168.068c-.09.025-.166.055-.166.067 0 .012-.03.022-.065.022-.034 0-.063.01-.063.022 0 .012-.07.03-.154.04-.085.01-.154.028-.154.04 0 .014-.047.025-.102.025-.056 0-.108.01-.116.024-.008.01-.072.03-.142.04-.07.01-.13.028-.13.04 0 .013-.067.024-.15.024-.084 0-.157.012-.162.027-.005.016-.116.035-.247.043-.13.01-.243.025-.25.037-.008.012-.07.022-.14.022s-.127.012-.127.026c0 .014-.058.026-.13.026-.07 0-.127.01-.127.022 0 .012-.332.03-.738.04-.406.01-.742.03-.747.043-.004.01-.03.022-.06.022-.066 0-.33.264-.33.332 0 .03-.01.053-.024.053-.015 0-.026.08-.026.193 0 .11.01.192.026.192.014 0 .025.03.025.064 0 .036.013.065.027.065.013 0 .032.028.04.062.014.055.118.17.154.17.016 0 .04.018.166.128.05.042.11.077.135.077.026 0 .046.012.046.026 0 .014.018.026.04.026.02 0 .037.01.037.023s.026.032.058.042c.033.01.076.037.097.06.022.025.094.066.16.094.068.026.123.057.123.067 0 .01.023.02.05.02.03 0 .053.01.053.025 0 .014.046.033.102.042.057.01.103.024.103.032 0 .02.117.072.218.096.043.01.083.025.09.033.03.037.134.08.23.095.057.01.104.027.104.04 0 .012.02.022.046.022.056 0 .185.057.185.082 0 .01.07.026.155.035.085.01.154.027.154.04 0 .012.022.022.05.022.026 0 .055.01.063.022.007.012.083.03.168.04.086.01.156.028.156.042 0 .013.046.024.102.024.057 0 .103.01.103.024s.07.033.155.042c.085.01.154.028.154.04s.05.022.11.022.123.013.138.028c.015.016.122.035.236.042.115.008.21.025.21.037 0 .012.04.022.088.022.05 0 .09.01.09.023 0 .026.104.044.495.084.15.016.276.038.276.05 0 .013.098.023.218.023s.22.01.22.023.127.032.282.042c.156.01.29.028.297.04.007.013.156.023.33.023.21 0 .32.01.327.028.007.02.293.033.94.043.51.007.93.023.93.035 0 .013.288.023.64.023.354 0 .643-.01.643-.022 0-.01.25-.027.557-.034.384-.01.56-.022.567-.042.007-.02.087-.03.226-.03.12 0 .216-.01.216-.022 0-.013.08-.03.18-.04.1-.01.18-.03.18-.042 0-.013.07-.023.154-.023.085 0 .154-.01.154-.025 0-.013.08-.032.18-.04.1-.01.187-.03.195-.042.006-.012.04-.022.075-.022.034 0 .063-.01.063-.026 0-.014.03-.025.064-.025.035 0 .064-.01.064-.022 0-.012.066-.03.147-.038.08-.008.152-.027.156-.042.004-.015.054-.027.11-.027.054 0 .1-.01.1-.023s.046-.03.102-.04c.057-.01.11-.03.117-.04.007-.014.042-.025.076-.025.035 0 .063-.01.063-.023s.057-.03.128-.04c.07-.01.128-.03.128-.042 0-.013.017-.023.038-.023.022 0 .04-.01.04-.024 0-.012.057-.03.13-.04.085-.013.14-.035.16-.067.016-.026.055-.048.085-.048.03 0 .088-.017.128-.037.04-.02.11-.053.156-.07.046-.02.084-.042.084-.05 0-.01.04-.025.09-.034.05-.008.09-.027.09-.04 0-.014.017-.025.038-.025.02 0 .038-.01.038-.023 0-.012.052-.03.116-.04.064-.01.115-.028.115-.04 0-.015.018-.025.04-.025.02 0 .038-.012.038-.026 0-.013.023-.025.052-.025.028 0 .058-.017.067-.038.008-.02.036-.04.063-.04.027 0 .05-.01.05-.024s.016-.026.037-.026c.02 0 .04-.01.04-.023 0-.012.035-.03.08-.038.043-.01.098-.038.12-.064.024-.026.07-.056.1-.066.032-.01.058-.03.058-.042 0-.013.022-.024.048-.024.027 0 .063-.017.08-.038.018-.022.046-.04.063-.04.018 0 .054-.02.082-.044.028-.025.094-.067.146-.094.053-.027.096-.058.096-.07 0-.012.017-.022.038-.022.02 0 .04-.01.04-.024 0-.013.025-.032.057-.042.03-.01.075-.04.098-.066.023-.026.054-.048.07-.048.015 0 .055-.027.088-.06.034-.034.087-.07.12-.08.03-.01.11-.07.176-.13.066-.063.135-.114.153-.115.017 0 .032-.01.032-.024 0-.013.025-.032.055-.04.03-.01.104-.07.165-.13.06-.063.122-.114.137-.114.016 0 .053-.03.084-.065.03-.036.066-.064.08-.064.022 0 .085-.054.362-.318.084-.08.155-.144.16-.144.02 0 .83-.824.83-.846 0-.013.098-.12.216-.238.118-.117.223-.24.232-.27.01-.03.04-.062.067-.07.027-.01.056-.04.066-.072.01-.03.07-.106.13-.167.063-.062.113-.124.113-.137 0-.014.03-.052.064-.085.035-.032.064-.072.064-.088s.012-.03.025-.03c.013 0 .032-.025.042-.055.01-.03.045-.083.08-.117.032-.033.06-.075.06-.093 0-.017.023-.048.05-.068.03-.02.053-.05.053-.064 0-.015.028-.058.064-.096.035-.038.064-.08.064-.096 0-.015.01-.027.025-.027.014 0 .033-.03.04-.065.01-.035.028-.064.04-.064.013 0 .023-.02.023-.048 0-.027.018-.055.04-.063.02-.01.037-.04.037-.066 0-.028.023-.058.052-.067.028-.01.05-.037.05-.063 0-.025.018-.06.04-.078.02-.018.038-.048.038-.068 0-.02.01-.035.02-.035s.04-.046.064-.103c.024-.056.056-.102.07-.102.014 0 .026-.024.026-.052 0-.028.01-.05.025-.05.014 0 .032-.03.04-.065.01-.035.028-.064.04-.064.013 0 .023-.017.023-.038 0-.02.012-.04.026-.04.013 0 .032-.04.04-.088.01-.05.028-.09.04-.09.013 0 .024-.018.024-.04 0-.02.01-.037.022-.037.013 0 .03-.04.04-.09.01-.05.028-.09.04-.09.015 0 .026-.017.026-.04 0-.02.012-.037.026-.037.014 0 .025-.023.025-.052 0-.028.01-.05.024-.05.013 0 .032-.04.04-.09.01-.05.028-.09.04-.09.013 0 .024-.018.024-.04 0-.02.01-.038.024-.038s.032-.04.042-.09c.01-.05.027-.09.04-.09.012 0 .022-.017.022-.038 0-.02.01-.038.024-.038.012 0 .03-.05.04-.11.01-.06.04-.123.066-.14.027-.02.054-.082.064-.15.01-.062.028-.114.04-.114.013 0 .023-.023.023-.05 0-.03.01-.053.026-.053.013 0 .024-.03.024-.064 0-.036.01-.065.025-.065.012 0 .03-.04.04-.09.01-.05.027-.09.04-.09.012 0 .023-.03.023-.064s.01-.063.023-.063.03-.058.04-.13c.01-.07.03-.127.042-.127.013 0 .023-.03.023-.064 0-.036.01-.064.023-.064s.03-.055.036-.12c.007-.068.026-.127.04-.132.017-.005.03-.037.03-.072 0-.034.01-.062.023-.062s.032-.063.042-.14c.01-.08.028-.15.04-.157.013-.008.023-.054.023-.103 0-.05.01-.088.02-.088.033 0 .085-.17.1-.324.01-.078.025-.147.038-.155.012-.006.022-.04.022-.075 0-.035.01-.063.022-.063.012 0 .03-.083.037-.186.01-.102.028-.19.042-.194.014-.005.026-.048.026-.095 0-.048.012-.094.027-.103.018-.012.017-.03-.005-.055-.023-.03-.024-.044-.003-.057.016-.01.037-.09.047-.178.01-.088.028-.16.04-.16s.022-.087.022-.192c0-.106.01-.193.024-.193.028 0 .047-.157.08-.68.015-.226.037-.43.05-.456.015-.024.026-.142.026-.262 0-.12.012-.224.026-.233.015-.01.025-.194.025-.465v-.448l.065-.025c.036-.014.072-.042.08-.064.008-.02.03-.04.052-.04.043 0 .16-.07.214-.13.02-.022.065-.05.097-.06.03-.01.057-.028.057-.04 0-.015.013-.025.028-.025.043 0 .69-.66.69-.703 0-.02.024-.046.053-.055.03-.01.052-.037.052-.062 0-.026.03-.068.065-.095.035-.026.083-.097.106-.157.023-.06.05-.11.064-.11.012 0 .022-.016.022-.037 0-.02.01-.04.022-.04.012 0 .03-.027.04-.063.008-.035.026-.064.04-.064.014 0 .025-.023.025-.05 0-.03.012-.053.026-.053.014 0 .032-.046.04-.102.01-.056.028-.102.04-.102.013 0 .023-.017.023-.04 0-.02.01-.037.022-.037.013 0 .03-.05.04-.115.01-.063.03-.115.042-.115.013 0 .024-.03.024-.064 0-.036.012-.065.026-.065.014 0 .025-.04.025-.09 0-.048.012-.088.026-.088.015 0 .027-.058.027-.13 0-.07-.012-.127-.026-.127-.013 0-.025-.03-.025-.065 0-.108-.11-.27-.185-.27-.025 0-.046-.01-.046-.025 0-.014-.017-.025-.038-.025-.02 0-.04-.012-.04-.026 0-.015-.09-.026-.217-.026-.13 0-.22.01-.22.026 0 .014-.028.026-.063.026-.036 0-.065.01-.065.022 0 .012-.046.03-.102.04-.057.008-.103.027-.103.04 0 .015-.04.026-.09.026-.05 0-.09.01-.09.023s-.03.03-.064.036c-.035.007-.064.008-.064.004 0-.005.028-.037.063-.072.035-.036.064-.077.064-.09 0-.016.034-.058.075-.095.04-.036.09-.103.108-.147.018-.045.052-.1.075-.12.024-.02.05-.065.06-.096.01-.032.03-.058.043-.058.014 0 .024-.018.024-.04 0-.02.012-.037.026-.037.014 0 .026-.024.026-.052 0-.03.017-.06.038-.067.02-.008.04-.043.04-.077s.01-.062.024-.062c.015 0 .026-.017.026-.038 0-.02.04-.112.087-.203.047-.09.094-.2.104-.244.01-.044.028-.08.04-.08.014 0 .025-.04.025-.088 0-.048.012-.092.027-.097.018-.006.03-.086.03-.213 0-.126-.012-.207-.03-.213-.015-.005-.028-.02-.028-.033 0-.067-.14-.18-.224-.18-.047 0-.085-.01-.085-.024S24.774 0 24.703 0c-.07 0-.128.012-.128.026 0 .014-.024.025-.054.025s-.093.02-.14.04c-.05.02-.128.056-.176.077-.048.02-.1.038-.115.038-.017 0-.03.012-.03.026 0 .015-.03.027-.064.027-.035 0-.064.01-.064.022 0 .012-.037.03-.083.038-.107.02-.226.074-.226.1 0 .01-.023.02-.05.02-.03 0-.053.01-.053.024s-.045.033-.102.042c-.056.01-.102.026-.102.04 0 .01-.03.02-.064.02-.036 0-.065.01-.065.024 0 .012-.04.03-.09.04-.05.01-.09.027-.09.04 0 .014-.028.025-.064.025-.035 0-.064.01-.064.024 0 .013-.038.03-.084.04-.105.022-.225.072-.225.094 0 .01-.057.026-.127.036-.07.01-.13.028-.13.04 0 .014-.016.024-.037.024-.02 0-.04.012-.04.026 0 .014-.033.025-.076.025-.042 0-.077.01-.077.024 0 .012-.04.03-.092.037-.105.018-.24.074-.24.1 0 .01-.07.026-.155.036-.084.01-.154.028-.154.04s-.028.022-.063.022-.064-.01-.064-.023c0-.012-.04-.03-.09-.04-.05-.01-.09-.027-.09-.04 0-.014-.017-.025-.038-.025-.022 0-.04-.012-.04-.026 0-.014-.02-.026-.047-.026s-.063-.017-.08-.038c-.018-.02-.054-.04-.08-.04-.027 0-.05-.01-.05-.024S20.782.95 20.76.95c-.02 0-.057-.017-.078-.038-.02-.022-.064-.04-.095-.04-.03 0-.07-.02-.086-.048-.02-.028-.076-.056-.136-.066-.057-.01-.104-.026-.104-.035 0-.025-.197-.107-.257-.107-.028 0-.05-.01-.05-.025 0-.014-.03-.025-.065-.025-.036 0-.064-.012-.064-.026 0-.014-.047-.033-.103-.042-.056-.01-.102-.027-.102-.04 0-.01-.023-.02-.05-.02-.03 0-.053-.01-.053-.02 0-.027-.12-.076-.237-.096-.053-.01-.096-.027-.096-.04 0-.014-.04-.025-.09-.025-.05 0-.09-.01-.09-.023s-.052-.03-.115-.04c-.063-.01-.122-.028-.13-.04-.008-.015-.058-.026-.11-.026-.054 0-.11-.013-.127-.03-.018-.018-.146-.035-.314-.042-.155-.006-.283-.02-.283-.034 0-.012-.098-.022-.218-.022s-.218.01-.218.022m.616.95c0 .014.038.03.084.04.365.063.43.078.43.096 0 .012.022.022.05.022.027 0 .056.01.064.023.01.013.073.03.143.04.07.01.13.03.13.042 0 .013.028.023.063.023s.064.01.064.023c0 .014.04.032.09.04.05.01.09.03.09.042 0 .014.03.025.064.025.035 0 .064.01.064.024s.052.033.116.042c.063.01.115.028.115.04 0 .013.017.023.038.023.02 0 .038.01.038.023 0 .012.046.04.1.063.056.023.11.053.118.068.01.015.045.027.08.027.034 0 .062.01.062.025 0 .014.03.032.064.04.035.01.064.028.064.04 0 .013.028.023.062.023s.068.017.076.04c.008.02.04.037.068.037.03 0 .077.023.107.05.03.028.087.058.127.067.04.008.074.026.074.04 0 .012.017.023.038.023.022 0 .04.01.04.026 0 .014.02.025.046.025s.085.02.13.043c.102.05.622.043.675-.01.017-.017.058-.032.09-.032.033 0 .06-.01.06-.024 0-.015.028-.026.064-.026.036 0 .065-.01.065-.023s.058-.032.128-.04c.07-.01.13-.03.13-.042 0-.013.022-.023.05-.023.028 0 .05-.012.05-.026 0-.014.042-.026.092-.026.057 0 .096-.014.105-.038.01-.024.05-.04.102-.04.048 0 .087-.01.087-.023 0-.015.04-.033.09-.043.05-.01.09-.027.09-.04 0-.012.028-.022.063-.022.036 0 .065-.012.065-.026 0-.015.018-.027.04-.027.062 0 .293-.085.293-.108 0-.01.025-.02.053-.02.028 0 .05-.01.05-.022 0-.013.047-.03.104-.04.056-.008.103-.027.103-.04 0-.015.023-.026.05-.026.03 0 .052.01.052.025 0 .014-.01.026-.025.026-.015 0-.026.017-.026.038 0 .022-.01.04-.023.04s-.032.025-.042.057c-.01.032-.04.076-.066.1-.027.022-.05.052-.05.067 0 .014-.034.064-.076.11-.042.044-.077.09-.077.103 0 .01-.063.082-.14.157-.08.075-.142.146-.142.158 0 .04-.482.505-.522.505-.022 0-.047.023-.056.05-.008.028-.037.057-.064.066-.027.007-.056.036-.065.063-.008.027-.035.055-.06.063-.023.007-.065.048-.094.09-.028.043-.06.078-.07.078-.01 0-.02.03-.02.064 0 .036-.01.064-.025.064-.016 0-.027.073-.027.167 0 .093.01.166.026.166.013 0 .025.025.025.055 0 .07.183.254.253.254.03 0 .055.012.055.026 0 .014.057.026.128.026.072 0 .13-.012.13-.026 0-.014.017-.026.038-.026.02 0 .038-.01.038-.022 0-.012.06-.03.133-.038.072-.008.144-.027.16-.042.013-.014.05-.026.084-.026.032 0 .06-.01.06-.02 0-.02.176-.074.326-.1.046-.008.084-.024.084-.037 0-.013.017-.024.038-.024.022 0 .04-.01.04-.022 0-.012.068-.03.153-.04.085-.01.154-.028.154-.042 0-.013.027-.024.06-.024.035 0 .067-.01.072-.022.004-.012.05-.028.098-.037.05-.01.076-.01.058-.002-.018.007-.032.035-.032.062 0 .027-.012.05-.026.05-.014 0-.026.016-.026.037 0 .02-.027.064-.06.098-.034.034-.07.086-.08.117-.01.03-.028.055-.04.055-.014 0-.025.012-.025.027 0 .022-.11.146-.25.288-.188.186-.294.276-.327.276-.022 0-.04.012-.04.026 0 .014-.013.025-.028.025-.015 0-.043.014-.063.03-.085.078-.114.098-.14.098-.014 0-.026.01-.026.025 0 .015-.01.026-.026.026-.043 0-.23.087-.23.108 0 .01-.04.02-.09.02-.05 0-.09.01-.09.024 0 .013-.04.032-.086.04l-.086.017-.015.963c-.01.632-.025.973-.043.992-.016.016-.027.144-.027.315 0 .166-.01.292-.026.297-.013.004-.033.16-.042.348-.01.188-.027.34-.04.34-.01 0-.02.04-.02.09 0 .05-.01.09-.02.09-.012 0-.043.145-.07.322-.026.177-.057.328-.07.336-.01.007-.02.07-.02.14s-.01.127-.024.127c-.02 0-.07.267-.058.314.003.01-.006.02-.02.02s-.026.028-.026.064c0 .035-.01.064-.024.064s-.032.07-.042.154c-.01.085-.028.154-.04.154s-.022.03-.022.064c0 .036-.01.065-.022.065-.013 0-.03.06-.038.133-.01.074-.028.14-.042.143-.015.005-.027.03-.027.057 0 .026-.012.055-.026.064-.014.008-.026.042-.026.075 0 .033-.017.093-.038.133-.02.04-.04.106-.04.145 0 .04-.01.07-.025.07-.014 0-.025.023-.025.052 0 .028-.01.05-.024.05-.013 0-.03.047-.04.104-.01.056-.028.102-.04.102-.014 0-.025.03-.025.065s-.01.064-.022.064c-.012 0-.03.052-.04.115-.01.064-.028.116-.04.116-.014 0-.025.03-.025.064 0 .035-.01.064-.025.064-.014 0-.033.03-.042.064-.01.036-.026.065-.04.065-.01 0-.022.03-.022.064s-.008.063-.02.063c-.02 0-.108.187-.108.23 0 .015-.012.027-.026.027-.014 0-.025.022-.025.05 0 .027-.01.056-.023.064-.013.007-.03.052-.04.098-.007.047-.038.1-.066.122-.028.02-.05.046-.05.057 0 .038-.09.226-.108.226-.01 0-.026.038-.036.084-.01.045-.04.098-.066.117-.026.018-.048.056-.048.083 0 .027-.01.05-.022.05-.012 0-.043.052-.07.115-.025.064-.055.116-.065.116-.01 0-.026.027-.036.06-.01.03-.04.075-.065.097-.026.022-.054.07-.064.11-.01.037-.026.068-.037.068-.012 0-.04.04-.064.09-.023.05-.054.09-.067.09-.014 0-.025.023-.025.05 0 .03-.012.052-.026.052-.015 0-.027.013-.027.03 0 .015-.03.055-.064.088-.036.033-.065.077-.065.1 0 .02-.012.04-.026.04-.015 0-.026.016-.026.037 0 .02-.035.072-.078.112-.042.04-.077.092-.077.114 0 .022-.024.048-.052.057-.028.01-.05.04-.05.067 0 .028-.02.057-.04.065s-.038.036-.038.062c0 .024-.023.053-.052.062-.028.01-.05.026-.05.04 0 .01-.03.05-.062.083-.034.033-.07.085-.078.115-.01.03-.04.06-.066.07-.027.008-.057.04-.066.067-.01.03-.08.118-.155.198-.075.08-.138.154-.138.165 0 .01-.015.02-.033.02-.02 0-.054.034-.08.077-.054.09-1.138 1.18-1.176 1.18-.014 0-.063.04-.11.09-.046.05-.1.09-.116.09-.018 0-.055.03-.083.064-.027.037-.062.066-.076.066-.016 0-.076.05-.137.112-.06.062-.134.12-.164.13-.032.01-.057.03-.057.042 0 .013-.014.024-.033.024-.018 0-.076.04-.128.09-.053.05-.107.09-.12.09-.015 0-.027.01-.027.025 0 .013-.016.025-.035.025-.02 0-.073.035-.12.077-.044.042-.097.077-.117.077-.02 0-.036.01-.036.025 0 .014-.017.025-.038.025-.022 0-.04.012-.04.026 0 .014-.02.026-.048.026-.026 0-.068.028-.094.062-.025.034-.076.067-.113.075-.036.006-.09.036-.123.065-.03.03-.068.053-.083.053-.016 0-.028.01-.028.023 0 .014-.03.032-.07.042-.037.01-.086.038-.108.063-.022.025-.078.055-.123.065-.045.01-.083.03-.083.042 0 .013-.023.023-.05.023-.03 0-.053.01-.053.023 0 .012-.02.03-.045.04-.085.03-.16.078-.16.097 0 .01-.028.02-.062.02s-.075.017-.093.04c-.018.02-.06.037-.093.037-.034 0-.06.012-.06.026 0 .014-.018.025-.04.025-.02 0-.038.01-.038.023s-.04.03-.09.04c-.05.01-.09.028-.09.04 0 .015-.03.026-.064.026-.035 0-.064.01-.064.024s-.04.032-.09.042c-.05.01-.09.027-.09.04 0 .012-.03.022-.064.022-.036 0-.064.012-.064.026 0 .013-.047.032-.103.04-.057.01-.103.028-.103.04 0 .013-.03.023-.064.023-.035 0-.064.008-.064.02 0 .01-.08.04-.18.065-.1.025-.18.057-.18.07 0 .013-.03.023-.064.023-.035 0-.064.01-.064.023s-.07.03-.154.04c-.085.01-.154.03-.154.042 0 .014-.04.025-.09.025-.05 0-.09.01-.09.024s-.064.032-.142.042c-.077.01-.147.028-.155.04-.007.013-.062.023-.122.023s-.12.012-.136.027c-.016.016-.116.035-.225.043-.108.008-.203.024-.21.037-.007.012-.047.02-.09.02-.04 0-.075.01-.075.023s-.146.03-.325.04c-.18.01-.346.03-.37.043-.025.013-.116.024-.202.024-.086 0-.155.01-.155.026s-.394.025-1.13.025c-.736 0-1.13-.01-1.13-.025 0-.016-.115-.026-.294-.026-.16 0-.323-.01-.36-.025-.035-.014-.285-.033-.554-.043-.27-.01-.495-.027-.502-.04-.008-.01-.076-.02-.152-.02s-.144-.01-.15-.022c-.01-.012-.162-.03-.343-.037-.192-.01-.33-.027-.336-.043-.007-.015-.087-.027-.188-.027-.098 0-.178-.01-.178-.023 0-.012-.086-.03-.192-.04-.106-.01-.193-.03-.193-.042 0-.013-.07-.023-.153-.023-.083 0-.156-.01-.16-.025-.005-.014-.104-.032-.22-.042-.117-.01-.213-.028-.213-.04s-.028-.022-.064-.022c-.035 0-.064-.01-.064-.025 0-.014-.033-.026-.074-.026-.04 0-.123-.017-.183-.04-.06-.02-.137-.037-.17-.037-.034 0-.062-.012-.062-.026 0-.014-.046-.025-.103-.025-.056 0-.102-.012-.102-.025 0-.013-.058-.03-.13-.04-.07-.01-.127-.03-.127-.042 0-.012-.03-.023-.064-.023-.036 0-.064-.01-.064-.023 0-.012-.055-.03-.122-.04-.134-.02-.264-.067-.264-.097 0-.01-.03-.02-.066-.02-.077 0-.242-.072-.242-.105 0-.013-.028-.023-.062-.023-.035 0-.07-.01-.078-.024-.008-.013-.05-.03-.09-.04-.16-.035-.068-.064.205-.064.154 0 .28-.01.28-.023 0-.01.105-.03.232-.04.127-.01.23-.028.23-.04 0-.014.082-.025.18-.025.1 0 .18-.01.18-.024 0-.012.093-.03.207-.04.112-.01.21-.03.218-.04.008-.013.042-.023.077-.023.034 0 .063-.01.063-.02 0-.013.078-.035.173-.05.28-.048.34-.063.34-.087 0-.013.042-.023.09-.023.05 0 .09-.01.09-.023s.06-.03.13-.04c.07-.01.128-.03.128-.042 0-.013.03-.023.064-.023.035 0 .064-.012.064-.025 0-.014.052-.032.116-.042.063-.01.115-.027.115-.04 0-.012.03-.023.064-.023.037 0 .066-.01.066-.022 0-.012.046-.03.102-.04.057-.008.103-.024.103-.034 0-.024.126-.083.175-.083.02 0 .053-.017.074-.038.02-.02.06-.038.087-.038.027 0 .063-.024.08-.052.02-.028.058-.05.09-.05.03 0 .07-.016.09-.033.04-.04.137-.087.22-.11.03-.01.057-.027.057-.04 0-.014.017-.025.037-.025.046 0 .195-.083.195-.11 0-.01.018-.018.04-.018.02 0 .037-.01.037-.02 0-.012.052-.042.115-.068.063-.027.122-.07.13-.096.01-.03.04-.048.077-.048.034 0 .09-.028.122-.06.034-.035.086-.07.117-.08.03-.01.056-.028.056-.04 0-.015.016-.025.037-.025.02 0 .04-.01.04-.023 0-.014.02-.032.05-.04.026-.01.056-.04.064-.066.01-.027.038-.05.064-.05.026 0 .054-.017.062-.038.008-.02.037-.038.065-.038.03 0 .06-.023.068-.052.01-.028.034-.05.057-.05.022 0 .073-.036.114-.078.04-.042.087-.077.105-.077.018 0 .05-.023.07-.05.02-.03.05-.053.068-.053.018 0 .06-.03.096-.064.034-.035.075-.064.09-.064s.027-.01.027-.024c0-.013.026-.032.058-.042.03-.01.076-.04.1-.066.022-.026.054-.048.07-.048.016 0 .03-.017.03-.038 0-.022.022-.04.05-.04.028 0 .052-.01.052-.022 0-.012.028-.03.064-.04.048-.01.065-.032.065-.08v-.062h-1.09c-.712 0-1.093-.01-1.093-.026 0-.014-.068-.026-.152-.026-.084 0-.16-.01-.167-.022-.007-.013-.075-.03-.15-.036-.305-.03-.584-.078-.584-.1 0-.01-.058-.02-.13-.02-.07 0-.127-.013-.127-.027s-.047-.033-.104-.042c-.057-.01-.11-.026-.118-.04-.007-.01-.047-.02-.09-.02-.04 0-.074-.012-.074-.026 0-.015-.047-.034-.103-.043-.057-.01-.103-.027-.103-.04 0-.01-.022-.02-.05-.02-.027 0-.056-.012-.064-.024-.007-.013-.052-.03-.098-.04-.047-.007-.1-.038-.122-.066-.02-.028-.063-.05-.095-.05s-.06-.012-.06-.025c0-.013-.025-.032-.057-.042-.03-.01-.075-.037-.096-.06-.02-.022-.082-.063-.135-.09-.053-.027-.096-.058-.096-.07 0-.01-.023-.026-.05-.035-.03-.008-.058-.038-.067-.065-.01-.028-.033-.05-.055-.05-.043 0-.497-.446-.497-.488 0-.014-.027-.05-.063-.082-.035-.03-.064-.07-.064-.088 0-.018-.03-.055-.064-.083-.037-.028-.065-.068-.065-.09 0-.02-.018-.045-.04-.053-.02-.008-.037-.037-.037-.065 0-.028-.023-.058-.052-.067-.05-.016-.073-.115-.025-.115.015 0 .026.01.026.025 0 .014.058.026.13.026.07 0 .127.012.127.025 0 .013.08.032.18.042.1.01.18.028.18.04 0 .032 2.175.03 2.195-.003.01-.015.146-.026.322-.026h.307v-.088c0-.048.012-.09.026-.096.014-.005.033-.14.042-.298.01-.158.027-.288.04-.288.01 0 .02-.038.02-.084 0-.094-.058-.132-.25-.163-.06-.008-.11-.026-.11-.038s-.028-.022-.063-.022c-.036 0-.064-.01-.064-.024 0-.013-.035-.03-.077-.04-.042-.01-.076-.028-.076-.04 0-.014-.035-.025-.078-.025-.042 0-.077-.01-.077-.025 0-.014-.018-.025-.04-.025-.02 0-.038-.01-.038-.025 0-.013-.04-.032-.09-.04-.05-.01-.09-.028-.09-.04 0-.013-.017-.024-.038-.024-.02 0-.038-.01-.038-.023 0-.014-.04-.032-.09-.04-.05-.01-.09-.03-.09-.04 0-.014-.017-.024-.04-.024-.02 0-.037-.01-.037-.025 0-.014-.03-.033-.065-.04-.036-.01-.065-.028-.065-.04 0-.013-.02-.023-.048-.023-.027 0-.055-.018-.063-.04-.01-.02-.037-.037-.062-.037-.026 0-.06-.024-.078-.052-.018-.028-.05-.05-.07-.05-.022 0-.04-.013-.04-.027 0-.015-.016-.026-.037-.026-.02 0-.072-.035-.112-.078-.04-.042-.09-.077-.113-.077-.022 0-.048-.024-.057-.052-.01-.028-.035-.05-.057-.05s-.076-.036-.12-.08c-.16-.157-.185-.178-.202-.178-.008 0-.063-.046-.12-.103-.058-.056-.117-.102-.13-.102-.015 0-.075-.052-.135-.115l-.14-.148c-.016-.018-.045-.047-.063-.064l-.064-.064-.064-.064c-.05-.047-.098-.106-.098-.124 0-.008-.04-.054-.09-.1-.05-.047-.09-.096-.09-.11 0-.014-.058-.084-.128-.157s-.13-.144-.13-.16c0-.013-.01-.025-.024-.025s-.032-.03-.04-.064c-.01-.035-.028-.064-.04-.064-.013 0-.023-.014-.023-.032 0-.017-.04-.074-.09-.126-.048-.052-.09-.107-.09-.122s-.01-.028-.024-.028-.026-.023-.026-.052c0-.03-.017-.06-.04-.067-.02-.01-.037-.038-.037-.064 0-.027-.01-.05-.023-.05s-.03-.03-.04-.068c-.01-.038-.038-.087-.063-.11-.097-.085-.088-.163.018-.146.052.01.1.028.103.042.005.014.048.026.095.026s.09.013.095.03c.005.014.064.033.13.04.067.008.12.024.12.036 0 .013.045.023.1.023.053 0 .11.012.125.027.016.016.157.035.314.043.156.007.284.023.284.035 0 .012.082.022.18.022.104 0 .18.01.18.026s.373.025 1.066.025c.74 0 1.066-.008 1.066-.027 0-.03-.063-.1-.09-.1-.008 0-.043-.026-.077-.058-.103-.096-.138-.122-.166-.122-.016 0-.028-.01-.028-.025 0-.014-.026-.032-.06-.04-.03-.008-.08-.043-.105-.077-.026-.035-.068-.063-.093-.063-.026 0-.054-.023-.063-.05-.008-.03-.033-.053-.055-.053s-.065-.027-.095-.06c-.03-.032-.093-.08-.138-.108-.046-.026-.083-.057-.083-.068 0-.012-.018-.02-.04-.02-.02 0-.038-.01-.038-.025 0-.012-.025-.03-.056-.04-.03-.01-.083-.045-.116-.08-.034-.033-.072-.06-.084-.06-.013 0-.03-.023-.04-.05-.008-.03-.03-.053-.05-.053-.02 0-.078-.04-.13-.09-.052-.048-.115-.095-.14-.103-.028-.008-.056-.037-.065-.065-.007-.028-.025-.05-.037-.05-.03 0-.282-.253-.282-.283 0-.012-.022-.03-.05-.038-.027-.01-.056-.04-.065-.066-.008-.027-.038-.056-.065-.065-.028-.01-.05-.034-.05-.055 0-.02-.03-.064-.065-.097S3.26 7.06 3.26 7.05c0-.016-.024-.05-.095-.13-.018-.018-.032-.043-.032-.053 0-.01-.04-.058-.09-.106-.05-.047-.09-.103-.09-.124 0-.02-.017-.045-.04-.053-.02-.008-.037-.037-.037-.063 0-.027-.01-.05-.024-.05-.044 0-.104-.08-.104-.136 0-.032-.024-.074-.052-.094-.028-.02-.058-.075-.067-.12-.01-.048-.027-.086-.04-.086-.012 0-.022-.012-.022-.027s-.017-.045-.04-.066c-.02-.02-.037-.066-.037-.1s-.01-.062-.025-.062c-.014 0-.026-.018-.026-.04 0-.02-.012-.037-.026-.037-.014 0-.026-.02-.026-.044 0-.025-.017-.078-.04-.12-.02-.04-.037-.088-.037-.108 0-.02-.01-.036-.025-.036-.014 0-.025-.028-.025-.064 0-.035-.01-.064-.023-.064-.012 0-.03-.07-.04-.154-.01-.085-.028-.154-.04-.154-.015 0-.026-.046-.026-.103 0-.056-.01-.103-.022-.103-.013 0-.032-.11-.042-.243-.01-.135-.028-.244-.04-.244-.013 0-.023-.168-.023-.373s.01-.372.023-.372c.012 0 .03-.11.04-.244.01-.134.03-.244.042-.244.013 0 .023-.057.023-.126 0-.073.014-.13.03-.136.017-.006.036-.076.043-.157.006-.08.022-.145.034-.145.013 0 .023-.017.023-.038 0-.022.01-.04.025-.04.015 0 .026-.027.026-.062 0-.082.033-.1.085-.045.047.05.092.094.142.14.018.018.047.047.064.066l.065.064.096.088c.034.032.07.058.078.058.01 0 .09.075.182.167.09.092.183.167.204.167.02 0 .037.018.037.04 0 .02.02.046.046.055.025.01.086.06.136.114.05.054.11.098.134.098.022 0 .048.023.057.05.01.028.04.058.07.068.03.01.082.044.116.078.032.033.07.06.083.06.012 0 .03.024.04.052.008.03.036.052.06.052.026 0 .07.03.095.064.027.035.058.064.07.064.02 0 .05.023.132.096.02.018.048.032.064.032.015 0 .027.01.027.024s.027.033.06.043c.03.01.075.04.098.067.023.026.054.047.07.047.015 0 .054.027.086.06.033.032.077.066.098.076.07.032.14.08.182.127.023.025.078.052.122.06.046.01.086.038.095.065.01.027.04.05.067.05.027 0 .057.016.065.037.008.02.036.038.063.038.027 0 .05.01.05.023s.028.03.063.04c.035.008.064.027.064.04 0 .015.018.026.04.026.02 0 .037.012.037.026 0 .014.022.025.05.025.03 0 .052.01.052.023s.03.03.066.04c.037.01.09.04.12.066.028.027.085.056.126.065.04.01.073.028.073.04 0 .014.017.024.04.024.02 0 .037.01.037.023s.04.03.09.04c.05.01.09.025.09.035 0 .02.19.108.23.108.015 0 .027.01.027.025 0 .014.024.026.052.026.028 0 .05.013.05.027s.03.025.066.025c.035 0 .064.01.064.024 0 .013.034.03.077.04.04.01.076.028.076.04 0 .014.033.025.074.025.042 0 .08.017.09.04.007.02.037.038.065.038.027 0 .057.01.066.026.01.014.04.025.067.025.027 0 .05.01.05.022 0 .012.054.03.12.04.067.01.14.04.16.064.023.025.096.054.163.064.067.01.122.03.122.042 0 .013.017.024.038.024.02 0 .04.012.04.026 0 .014.04.025.09.025.048 0 .088.01.088.024 0 .013.058.032.13.042.07.01.127.028.127.04 0 .013.03.024.064.024.035 0 .064.01.064.024s.057.033.128.042c.07.01.128.027.128.04 0 .012.018.022.04.022.02 0 .058.01.083.024.024.014.1.032.166.04.066.01.12.027.12.04 0 .014.035.024.077.024.04 0 .082.01.09.023.007.013.077.03.155.04.078.01.14.03.14.042 0 .013.053.024.117.024.062 0 .114.012.114.027 0 .014.03.025.065.025.034 0 .063.01.063.022 0 .012.072.03.16.04.09.008.165.027.17.04.004.015.047.027.096.027.047 0 .086.01.086.023 0 .012.084.03.187.04.102.008.19.027.194.04.005.015.066.026.135.026.07 0 .126.01.126.02 0 .014.07.032.154.04.085.01.155.03.155.043 0 .013.07.024.154.024.085 0 .155.01.155.023 0 .025.056.036.423.082.127.015.235.04.24.052.005.013.053.023.108.023.054 0 .106.012.115.026.01.014.068.026.13.026h.114v-.783c0-.494.01-.788.026-.798.014-.01.026-.09.026-.182 0-.09.01-.165.023-.165.012 0 .03-.11.04-.244.01-.135.03-.245.042-.245.012 0 .022-.03.022-.064 0-.035.012-.064.026-.064.014 0 .026-.043.026-.096 0-.053.017-.13.038-.17.02-.04.04-.1.04-.135 0-.033.01-.06.02-.06.014 0 .032-.04.04-.09.01-.05.03-.09.043-.09.013 0 .024-.03.024-.065s.01-.064.024-.064c.012 0 .03-.04.04-.09.01-.05.027-.09.04-.09.014 0 .025-.017.025-.038 0-.02.01-.04.025-.04.014 0 .026-.022.026-.05 0-.028.01-.05.024-.05.012 0 .03-.03.04-.066.008-.035.026-.064.04-.064.014 0 .025-.017.025-.038 0-.022.01-.04.025-.04.014 0 .026-.022.026-.05 0-.03.018-.06.04-.068.02-.008.038-.035.038-.06 0-.026.017-.053.038-.06.02-.01.04-.04.04-.066 0-.028.02-.058.05-.067.026-.01.056-.04.066-.07.01-.03.097-.135.194-.23.097-.098.176-.194.176-.214 0-.02.024-.043.052-.052.03-.01.142-.107.252-.217.11-.11.225-.208.256-.218.03-.01.057-.03.057-.043 0-.013.016-.024.037-.024.02 0 .04-.01.04-.024s.02-.03.046-.04c.025-.008.07-.035.096-.06.026-.024.092-.067.145-.094.053-.028.096-.06.096-.07 0-.012.023-.02.05-.02.027 0 .053-.01.058-.02.013-.03.174-.11.218-.11.02 0 .056-.017.077-.038.02-.02.066-.038.1-.038.035 0 .063-.012.063-.026 0-.014.03-.026.064-.026.035 0 .064-.01.064-.023s.05-.03.11-.04c.06-.01.15-.037.198-.06.08-.038.287-.08.636-.124.06-.007.11-.024.11-.037 0-.013.178-.023.397-.023.22 0 .398.01.398.023" stroke="null"/></g></svg>
