<svg width="55" height="52" xmlns="http://www.w3.org/2000/svg"><g><path fill-rule="evenodd" d="M3.335.592c0 .014-.08.025-.194.025-.172 0-.195.006-.207.05C2.923.71 2.9.72 2.8.72c-.086 0-.136.015-.177.052-.03.03-.097.06-.145.068-.065.01-.09.027-.09.062C2.39.94 2.37.95 2.3.95c-.062 0-.096.015-.116.05-.015.03-.05.052-.077.052-.034 0-.05.018-.05.05 0 .044-.018.052-.103.052-.085 0-.102.01-.102.052 0 .03-.017.05-.04.05-.024 0-.048.024-.055.052-.01.036-.043.056-.113.067-.06.01-.1.03-.1.052 0 .02-.028.047-.063.06-.034.013-.063.042-.063.063 0 .022-.023.04-.05.04-.036 0-.053.016-.053.05 0 .035-.017.052-.05.052-.035 0-.052.017-.052.05 0 .03-.017.052-.04.052-.02 0-.05.03-.062.064-.014.035-.04.064-.06.064-.022 0-.042.04-.052.102-.012.07-.03.103-.057.103-.022 0-.046.023-.053.05-.008.03-.035.052-.062.052-.04 0-.048.018-.048.1 0 .087-.008.104-.05.104-.035 0-.052.017-.052.05 0 .028-.023.063-.05.078-.038.02-.053.053-.053.116 0 .07-.01.088-.047.088-.035 0-.052.024-.062.088-.008.048-.04.11-.068.14-.04.04-.053.086-.053.18 0 .102-.01.126-.05.137-.046.013-.052.036-.052.21 0 .11-.01.193-.026.193-.017 0-.025 5.675-.025 16.975s.007 16.975.024 16.975c.014 0 .026.064.026.143 0 .12.008.145.05.156.045.012.052.035.052.162s.008.152.05.165c.05.014.064.043.055.098-.01.055.03.12.076.12.04 0 .05.017.05.114 0 .098.007.115.05.115.043 0 .052.017.052.102 0 .085.008.102.05.102.05 0 .067.05.054.15-.004.018.018.04.047.047.048.01.064.037.055.09 0 .01.02.02.047.02.03 0 .05.02.056.056.006.037.03.06.066.066.037.005.058.026.058.058s.017.05.05.05c.035 0 .052.016.052.05s.017.05.05.05c.035 0 .052.018.052.052 0 .035.017.052.052.052.034 0 .05.017.05.05 0 .034.018.052.05.052s.052.02.058.058c.005.037.028.06.065.065.036.005.057.025.057.057 0 .03.018.05.048.05.027 0 .054.022.062.05.01.04.035.052.105.052.075 0 .092.008.092.05 0 .033.017.05.05.05.027 0 .056.024.065.052.012.04.038.05.116.05.073 0 .1.012.1.04 0 .045.057.072.183.087.008 0 .02.025.03.054.007.03.028.05.047.048.15-.02.277.004.277.053 0 .045.017.05.153.05.137 0 .154.006.154.052 0 .047.018.05.215.05.193 0 .216.006.228.052.013.05.035.05 9.053.05h9.04l-.008.218c-.007.195-.013.217-.058.217-.044 0-.05.02-.05.218 0 .2-.003.217-.05.217-.048 0-.09.112-.076.207.02.133-.003.228-.052.228-.028 0-.05.01-.048.02.024.15-.01.385-.054.397-.046.012-.052.035-.052.22 0 .19-.004.208-.05.208-.048 0-.052.017-.052.217s-.004.218-.05.218c-.048 0-.052.016-.052.217 0 .2-.004.217-.05.217-.048 0-.052.016-.052.202 0 .19-.004.204-.058.21-.054.01-.058.024-.065.22-.008.19-.013.212-.06.212-.044 0-.05.018-.05.217 0 .202-.003.22-.05.22s-.05.016-.05.202c0 .18-.007.204-.052.22-.046.013-.05.037-.05.218 0 .186-.006.203-.053.203-.034 0-.05.017-.05.05 0 .046-.018.052-.154.052-.14 0-.153.005-.168.064l-.016.063h-.42c-.402 0-.42.002-.42.05s-.016.052-.216.052-.218.004-.218.052c0 .045-.017.05-.15.05-.13 0-.155.008-.17.052-.012.04-.038.05-.116.05-.084 0-.1.01-.1.05 0 .048-.082.072-.186.055-.01 0-.02.02-.02.05 0 .027-.008.05-.02.052-.157.017-.197.034-.197.083 0 .016-.026.033-.057.038-.037.005-.058.026-.058.058 0 .04-.018.05-.092.05-.07 0-.095.01-.105.05-.007.028-.034.05-.06.05-.027 0-.05.02-.05.04 0 .022-.028.05-.063.064-.035.013-.064.04-.064.063 0 .022-.02.04-.045.04-.06 0-.156.056-.157.088 0 .016-.023.03-.052.035-.03.005-.052.028-.052.058 0 .032-.018.05-.05.05-.044 0-.052.016-.052.102 0 .084-.01.102-.05.102-.027 0-.056.022-.064.048-.01.027-.04.055-.066.062-.03.008-.05.035-.05.067 0 .036-.017.053-.052.053-.033 0-.05.017-.05.048 0 .027-.024.055-.052.062-.04.01-.05.035-.05.105 0 .075-.01.092-.052.092-.034 0-.052.017-.052.05 0 .027-.023.056-.05.065-.048.014-.057.037-.063.16 0 .024-.025.05-.053.058-.05.014-.055.025-.06.16-.003.046-.014.066-.032.054-.046-.028-.073.043-.074.188 0 .117-.007.134-.05.134-.047 0-.053.017-.053.154 0 .136-.004.153-.05.153-.047 0-.05.018-.05.218 0 .202-.005.218-.053.218-.05 0-.05.013-.05.74.002.41.01.742.02.74.056-.008.082.01.082.052 0 .027.022.054.05.062.03.008.05.034.05.066 0 .036.018.054.05.054.026 0 .054.023.06.05.01.032.036.052.068.052.03 0 .054.012.054.026 0 .017 3.846.026 11.487.026 7.64 0 11.486-.01 11.486-.026 0-.014.03-.026.064-.026.047 0 .064-.013.064-.05 0-.035.017-.052.05-.052.036 0 .052-.017.052-.054 0-.032.02-.058.05-.066.03-.008.053-.035.053-.062 0-.043.025-.06.08-.052.01.002.02-.33.02-.74.002-.727 0-.74-.05-.74-.047 0-.05-.016-.05-.218 0-.2-.005-.217-.053-.217-.045 0-.05-.016-.05-.152 0-.137-.006-.154-.052-.154-.045 0-.05-.017-.05-.134-.002-.145-.03-.216-.075-.188-.018.012-.03-.008-.03-.054-.007-.135-.01-.146-.062-.16-.03-.008-.053-.034-.054-.06-.005-.12-.014-.144-.062-.16-.028-.008-.05-.037-.05-.064 0-.033-.018-.05-.052-.05-.042 0-.05-.017-.05-.092 0-.07-.013-.095-.052-.105-.028-.007-.05-.035-.05-.062 0-.03-.02-.048-.052-.048-.035 0-.052-.017-.052-.053 0-.032-.02-.06-.05-.067-.028-.007-.057-.035-.066-.062-.008-.026-.037-.048-.064-.048-.04 0-.05-.018-.05-.102 0-.086-.008-.103-.05-.103-.035 0-.052-.017-.052-.05 0-.03-.02-.052-.052-.057-.03-.004-.053-.02-.053-.034 0-.03-.1-.086-.158-.087-.025 0-.045-.018-.045-.04 0-.022-.03-.05-.064-.063-.034-.014-.063-.042-.063-.064s-.022-.04-.05-.04c-.035 0-.052-.016-.052-.05 0-.042-.018-.05-.103-.05-.084 0-.102-.01-.102-.05 0-.032-.02-.053-.058-.058-.03-.005-.057-.022-.057-.038 0-.05-.04-.066-.2-.083-.01 0-.018-.025-.018-.053 0-.03-.008-.05-.02-.05-.103.018-.184-.006-.184-.053 0-.04-.017-.05-.1-.05-.08 0-.105-.01-.118-.05-.014-.045-.04-.052-.168-.052-.135 0-.152-.006-.152-.05 0-.05-.017-.053-.217-.053s-.218-.004-.218-.05c0-.05-.017-.052-.42-.052h-.418l-.016-.064c-.015-.06-.027-.065-.17-.065-.135 0-.152-.006-.152-.05 0-.035-.017-.052-.052-.052-.047 0-.05-.017-.05-.203 0-.18-.006-.205-.052-.22-.046-.014-.05-.038-.05-.218 0-.186-.005-.203-.052-.203-.048 0-.05-.018-.05-.22 0-.198-.006-.216-.052-.216-.045 0-.05-.02-.057-.21-.008-.198-.013-.213-.066-.22-.054-.008-.058-.02-.058-.212 0-.186-.004-.203-.05-.203-.048 0-.052-.018-.052-.218s-.004-.217-.05-.217c-.048 0-.052-.018-.052-.218s-.004-.217-.052-.217c-.047 0-.05-.018-.05-.207 0-.186-.006-.21-.052-.22-.046-.013-.078-.25-.054-.398.002-.01-.02-.02-.048-.02-.05 0-.07-.095-.052-.228.013-.095-.03-.207-.077-.207-.046 0-.05-.018-.05-.217 0-.198-.005-.218-.05-.218-.044 0-.05-.022-.057-.217l-.008-.218h9.04c9.018 0 9.04 0 9.053-.05.012-.047.035-.052.228-.052.197 0 .214-.004.214-.05 0-.047.017-.052.154-.052s.154-.006.154-.05c0-.05.128-.074.277-.054.02.003.04-.02.05-.048.006-.03.02-.054.03-.055.125-.016.18-.043.18-.088 0-.028.03-.04.102-.04.078 0 .104-.01.117-.05.008-.028.037-.05.064-.05.033 0 .05-.02.05-.052 0-.042.017-.05.092-.05.07 0 .095-.013.105-.053.01-.028.036-.05.063-.05.03 0 .048-.02.048-.05 0-.032.02-.052.058-.058.037-.006.06-.03.066-.066.005-.037.026-.058.058-.058s.05-.018.05-.05c0-.035.016-.052.05-.052s.05-.017.05-.052c0-.034.02-.05.053-.05.034 0 .05-.018.05-.052s.018-.05.052-.05c.033 0 .05-.018.05-.05s.022-.053.06-.058c.036-.005.06-.03.064-.066.007-.037.027-.057.06-.057.026 0 .047-.01.045-.02-.008-.053.008-.08.056-.09.03-.01.052-.03.05-.05-.014-.1.003-.148.052-.148.043 0 .05-.017.05-.103s.01-.103.052-.103c.044 0 .05-.017.05-.115 0-.097.01-.115.05-.115.046 0 .087-.064.077-.12-.008-.053.007-.08.054-.092.044-.012.052-.035.052-.167 0-.13.007-.154.05-.166.044-.01.052-.035.052-.156 0-.08.012-.143.026-.143.017 0 .025-5.676.025-16.975 0-11.3-.01-16.975-.026-16.975-.015 0-.026-.082-.026-.194 0-.174-.006-.197-.05-.21-.043-.01-.052-.034-.052-.126 0-.127-.036-.213-.088-.213-.02 0-.034-.013-.033-.03.004-.13-.01-.174-.058-.174-.042 0-.052-.017-.052-.088 0-.063-.015-.097-.05-.116-.03-.015-.052-.05-.052-.078 0-.033-.017-.05-.05-.05-.044 0-.052-.017-.052-.103 0-.082-.008-.1-.047-.1-.027 0-.055-.024-.062-.052-.006-.028-.03-.05-.053-.05-.027 0-.046-.034-.057-.104-.01-.062-.03-.102-.052-.102-.02 0-.046-.03-.06-.064-.013-.035-.042-.064-.063-.064-.022 0-.04-.022-.04-.05 0-.035-.016-.052-.05-.052s-.052-.017-.052-.05c0-.036-.017-.053-.05-.053-.03 0-.052-.018-.052-.04 0-.02-.028-.05-.063-.063-.035-.013-.064-.04-.064-.06 0-.022-.04-.042-.1-.052-.07-.01-.102-.03-.112-.067-.006-.028-.03-.05-.053-.05-.024 0-.04-.023-.04-.052 0-.043-.018-.052-.103-.052-.085 0-.102-.008-.102-.05 0-.034-.018-.052-.05-.052-.028 0-.063-.023-.078-.05-.02-.037-.054-.052-.116-.052-.07 0-.09-.01-.09-.048 0-.035-.023-.052-.088-.062-.05-.008-.114-.038-.145-.068-.04-.037-.09-.053-.177-.053-.1 0-.123-.01-.134-.052-.012-.045-.035-.05-.207-.05-.113 0-.195-.012-.195-.026 0-.017-8.1-.026-24.253-.026S3.334.576 3.334.592m47.543 1.893c.012.047.034.05.322.05.287 0 .31.005.31.05 0 .055.047.08.155.08.05 0 .075.012.075.037 0 .035.036.05.166.07.028.004.05.025.052.046 0 .037.013.04.134.048.04.002.057.02.057.054 0 .033.016.05.047.05.027 0 .055.024.062.052.007.03.034.05.066.05.037 0 .054.018.054.052 0 .035.017.052.05.052.036 0 .052.017.052.053 0 .03.02.058.05.066.03.007.052.035.052.062 0 .03.018.048.05.048.04 0 .05.02.058.096.005.064.02.096.045.096.02 0 .042.023.046.05.02.13.035.167.07.167.02 0 .04.02.04.045l.01.07c.003.014.008.046.01.07.002.027.025.045.054.045.047 0 .05.022.058.314.006.257.014.312.045.312.034 0 .04 1.513.045 13.438l.007 13.438H2.055V18.065c0-13.465 0-13.482.052-13.482.047 0 .05-.017.05-.27 0-.25.004-.268.052-.268.03 0 .053-.018.055-.044.002-.024.006-.056.01-.07l.01-.07c0-.025.02-.045.04-.045.035 0 .05-.036.07-.166.004-.03.024-.052.045-.052.026 0 .04-.032.046-.096.007-.075.02-.096.058-.096.032 0 .05-.018.05-.048 0-.027.022-.055.05-.062.03-.008.052-.035.052-.067 0-.037.016-.054.05-.054.035 0 .052-.017.052-.052 0-.034.017-.05.054-.05.032 0 .06-.02.067-.052.006-.028.034-.05.06-.05.03 0 .048-.02.048-.052 0-.035.02-.052.058-.054.12-.007.134-.01.134-.048 0-.02.023-.042.05-.046.13-.02.168-.035.168-.07 0-.025.026-.038.074-.038.108 0 .156-.024.156-.08 0-.044.023-.048.31-.048s.31-.004.322-.05c.014-.052.035-.052 23.29-.052 23.253 0 23.274 0 23.288.05M23.803 8.75v3.73l.095.017c.053.01.675.016 1.382.016h1.286V16.044H12.878V19.78h-.126c-.15 0-.206.018-.206.066 0 .027-.04.036-.154.036-.136 0-.153.005-.153.05 0 .04-.02.053-.078.055-.042.002-.088.006-.102.01-.015.003-.055.008-.09.01-.046.002-.064.017-.064.054 0 .043-.017.052-.102.052-.086 0-.103.01-.103.05 0 .044-.016.052-.098.052-.078 0-.102.01-.113.052-.01.03-.036.05-.068.05-.036 0-.053.017-.053.052 0 .042-.018.05-.093.05-.07 0-.095.013-.105.052-.008.028-.035.05-.062.05-.034 0-.048.02-.048.065 0 .058-.01.064-.1.064-.077 0-.102.01-.112.05-.008.03-.035.052-.067.052-.037 0-.054.016-.054.05 0 .035-.018.052-.052.052s-.05.017-.05.05c0 .035-.018.052-.052.052-.033 0-.05.017-.05.05 0 .025-.024.053-.053.06-.03.008-.05.035-.05.067 0 .036-.017.054-.052.054-.033 0-.05.017-.05.05 0 .034-.017.052-.05.052-.05 0-.078.046-.078.14 0 .036-.02.063-.05.07-.03.008-.052.03-.052.052 0 .02-.023.044-.052.05-.04.012-.05.036-.05.12 0 .087-.01.104-.052.104-.034 0-.05.017-.05.05 0 .034-.018.052-.05.052-.033 0-.052.028-.07.104-.01.057-.032.103-.044.1-.037-.005-.067.06-.067.145 0 .06-.014.084-.053.094-.03.01-.05.03-.048.05.02.14-.004.25-.053.25-.045 0-.05.017-.05.167 0 .15-.005.166-.05.166-.05 0-.052.017-.052.27 0 .25-.004.267-.05.267-.052 0-.053.017-.053.793s0 .793.052.793c.047 0 .05.017.05.27 0 .25.004.268.052.268.044 0 .05.017.05.15 0 .13.008.156.05.17.04.012.05.042.058.16.005.11.017.146.045.146.02 0 .042.024.046.052.02.13.033.163.075.17.025.006.046.027.047.048l.007.097c0 .037.023.066.054.074.028.008.05.036.05.062 0 .032.02.05.052.05.043 0 .05.016.05.1 0 .086.01.103.052.103.034 0 .052.017.052.05 0 .027.023.056.05.065.03.01.052.04.052.066 0 .032.018.05.05.05.036 0 .052.024.065.102.01.056.027.096.04.09.028-.02.105.062.086.092-.008.013-.005.022.007.02.056-.01.082.007.09.06.004.036.024.056.052.054.028-.002.045.014.045.043 0 .026.022.054.05.063.027.008.057.038.066.066.008.028.03.05.046.047.07-.01.17.004.166.02-.008.058.01.084.055.084.035 0 .052.017.052.052 0 .033.017.05.05.05.034 0 .052.017.052.05 0 .036.025.052.102.065.063.01.103.03.103.053 0 .02.026.042.06.05.034.01.068.04.075.067.007.028.03.048.047.046.092-.012.145.006.157.054.007.03.022.05.034.048.124-.02.264.007.264.054 0 .043.017.05.113.05.09 0 .115.01.126.052.01.042.035.05.13.05.09 0 .133.016.176.06.05.048.09.058.287.066.184.007.237.018.27.056.04.045.092.048.78.048.686 0 .74-.003.777-.048.034-.038.087-.05.27-.056.198-.008.24-.018.29-.067.042-.043.086-.058.174-.058.097 0 .12-.01.132-.052.01-.04.034-.05.125-.05.095 0 .112-.01.112-.052 0-.047.14-.075.264-.054.01.002.027-.02.035-.048.01-.048.064-.066.155-.053.02.003.04-.017.047-.045.008-.028.04-.058.075-.066.034-.01.062-.034.062-.054 0-.02.007-.04.018-.04.01 0 .042-.008.07-.015l.084-.014c.017 0 .03-.024.03-.05 0-.03.02-.046.053-.046.034 0 .05-.017.05-.05 0-.036.018-.053.052-.053.046 0 .063-.026.054-.083-.002-.017.097-.03.17-.02.015 0 .036-.02.045-.048.01-.028.038-.058.066-.066.028-.01.05-.037.05-.063 0-.03.018-.045.045-.043.03.002.048-.018.053-.054.008-.053.034-.07.09-.06.012.002.014-.007.006-.02-.018-.03.06-.11.088-.093.012.007.03-.033.04-.09.012-.077.028-.102.065-.102.03 0 .05-.017.05-.05 0-.026.022-.056.05-.065.028-.01.05-.038.05-.065 0-.033.02-.05.052-.05.042 0 .05-.017.05-.102 0-.085.01-.102.052-.102.033 0 .05-.016.05-.048 0-.026.024-.054.052-.06.03-.01.053-.038.055-.075 0-.033.004-.077.005-.097.002-.02.023-.042.048-.047.04-.008.056-.042.076-.17.003-.03.024-.053.044-.053.03 0 .04-.037.046-.145.006-.117.017-.15.057-.162.04-.012.05-.044.056-.174.006-.12.017-.16.046-.16.03 0 .038-.05.044-.26.007-.242.012-.264.058-.264.05 0 .05-.02.05-.793 0-.776 0-.793-.05-.793s-.052-.017-.052-.268c0-.252-.003-.27-.05-.27s-.052-.016-.052-.165c0-.15-.006-.167-.052-.167-.048 0-.07-.11-.052-.25.002-.02-.02-.04-.048-.05-.04-.01-.053-.034-.053-.093 0-.084-.03-.15-.065-.145-.024.005-.088-.17-.068-.19.007-.007-.01-.014-.042-.014-.038 0-.055-.015-.055-.05s-.017-.052-.05-.052c-.044 0-.053-.017-.053-.105 0-.08-.01-.106-.048-.116-.027-.007-.055-.035-.062-.062-.007-.026-.03-.048-.054-.048-.026 0-.04-.023-.04-.062 0-.096-.027-.143-.08-.143-.03 0-.048-.02-.048-.052 0-.034-.017-.05-.05-.05-.036 0-.053-.02-.053-.055 0-.032-.02-.06-.05-.067-.03-.007-.052-.035-.052-.06 0-.033-.018-.05-.05-.05-.035 0-.052-.017-.052-.05 0-.035-.016-.052-.05-.052-.035 0-.052-.017-.052-.05 0-.036-.017-.052-.053-.052-.032 0-.06-.02-.067-.052-.01-.04-.035-.05-.113-.05-.09 0-.1-.007-.1-.065 0-.035-.008-.062-.018-.06-.052.008-.08-.008-.09-.055-.01-.04-.036-.05-.106-.05-.074 0-.09-.01-.09-.052 0-.035-.018-.05-.055-.05-.032 0-.06-.022-.067-.052-.01-.04-.035-.052-.112-.052-.083 0-.1-.008-.1-.05 0-.043-.017-.052-.102-.052-.085 0-.103-.01-.103-.05 0-.038-.017-.053-.062-.055-.036-.002-.076-.007-.09-.01-.014-.004-.06-.008-.102-.01-.06-.002-.077-.015-.077-.054 0-.046-.018-.05-.155-.05-.114 0-.153-.01-.153-.037 0-.048-.057-.067-.207-.067H14.9V18.064h11.666v1.714h-.154c-.136 0-.154.005-.154.05 0 .046-.016.052-.15.052-.13 0-.155.007-.17.05-.013.046-.085.068-.17.055-.05-.007-.15.05-.15.086 0 .03-.027.04-.104.04-.083 0-.107.01-.118.05-.01.04-.035.05-.113.05-.082 0-.1.01-.1.053 0 .034-.016.05-.05.05s-.05.018-.05.05c0 .04-.022.052-.11.058-.076.005-.11.02-.11.046 0 .02-.022.045-.05.052-.028.008-.055.04-.06.07-.007.053-.085.077-.19.06-.01 0-.02.02-.02.048 0 .035-.016.052-.05.052s-.05.017-.05.05c0 .034-.018.052-.05.052-.028 0-.057.023-.066.05-.01.03-.033.052-.054.052-.02 0-.048.03-.062.066-.012.036-.035.058-.05.05-.012-.01-.03.013-.04.05-.008.034-.037.07-.064.078-.027.01-.05.032-.05.052 0 .02-.022.037-.05.037-.043 0-.05.016-.05.1 0 .087-.01.104-.052.104-.034 0-.052.017-.052.05 0 .03-.02.05-.057.057-.048.007-.06.027-.065.117-.007.088-.018.11-.058.11-.033 0-.05.017-.05.05 0 .034-.017.05-.05.05-.043 0-.052.02-.052.1s-.01.103-.05.114c-.042.01-.052.035-.052.12 0 .086-.01.103-.052.103-.028 0-.05.01-.048.02.02.13-.007.287-.05.287-.062 0-.08.048-.08.207 0 .11-.008.126-.052.126-.028 0-.05.01-.048.02.027.168-.01.513-.054.525-.09.024-.076 1.578.015 1.578.027 0 .035.054.035.255 0 .232.005.256.05.27.038.012.053.04.054.1.003.17.035.257.087.237.03-.012.038.013.038.14 0 .134.007.157.05.17.042.01.053.034.053.112 0 .08.01.098.05.098s.05.02.057.11c.006.084.017.107.053.104.03-.003.044.015.044.057 0 .044.015.06.05.06.043 0 .053.018.053.09 0 .073.012.096.064.115.038.015.062.045.062.076 0 .036.017.053.052.053.034 0 .05.017.05.05 0 .035.018.052.052.052.037 0 .052.02.054.064.006.12.01.127.066.135.038.006.05.02.042.047-.01.024.004.043.04.052.05.013.065.04.057.09-.002.012.026.027.06.036.036.01.065.033.065.054 0 .02.022.044.05.05.025.008.053.035.06.062.01.037.036.05.105.05.075 0 .092.01.092.05 0 .034.017.05.05.05.03 0 .052.018.052.042 0 .023.022.047.05.054.027.007.057.035.065.062.01.032.05.053.116.064.077.012.102.028.102.064 0 .03.018.048.048.048.027 0 .054.023.06.05.012.04.036.052.11.052.072 0 .096.012.107.052.01.043.035.05.164.05.134 0 .15.006.15.052 0 .042.018.05.1.05.078 0 .103.012.113.052.01.043.035.05.14.05.104 0 .28.07.198.08-.103.01.122.046.302.048.173 0 .224.01.224.037 0 .06.063.067.793.067s.792-.006.792-.067c0-.028.05-.036.224-.037.18-.002.405-.038.3-.05-.082-.007.095-.077.2-.077.104 0 .127-.01.138-.052.01-.04.035-.05.113-.05.083 0 .1-.01.1-.052 0-.046.017-.05.15-.05.13 0 .152-.01.164-.052.01-.04.036-.052.11-.052.072 0 .096-.01.106-.05.008-.03.035-.052.062-.052.03 0 .048-.018.048-.05 0-.036.025-.052.1-.065.068-.01.104-.032.113-.066.006-.03.034-.05.065-.05.037 0 .054-.016.054-.05 0-.036.016-.053.05-.053s.05-.017.05-.05c0-.042.018-.052.093-.052.07 0 .095-.012.105-.05.007-.026.034-.053.06-.06.028-.007.05-.03.05-.05 0-.022.03-.046.064-.055.035-.01.062-.024.06-.035-.007-.052.01-.078.06-.09.034-.01.048-.03.038-.053-.01-.026.004-.04.042-.047.056-.008.06-.015.065-.136.003-.046.018-.065.055-.065.034 0 .05-.017.05-.05 0-.035.018-.052.052-.052.035 0 .05-.017.05-.052 0-.03.026-.06.065-.075.05-.02.063-.042.063-.114 0-.072.01-.09.05-.09.038 0 .053-.016.053-.06 0-.043.013-.06.044-.058.035.003.047-.02.053-.105.006-.088.017-.11.058-.11.04 0 .05-.017.05-.1 0-.087.01-.104.05-.104.047 0 .053-.017.053-.165 0-.136.006-.163.038-.15.053.02.084-.068.09-.24 0-.057.013-.084.04-.084.02 0 .04-.015.04-.032l.01-.058c.004-.014.008-.12.01-.237.002-.16.01-.21.038-.21.062 0 .067-.063.067-.834 0-.736 0-.753-.05-.753-.047 0-.083-.344-.055-.518 0-.01-.02-.02-.048-.02-.045 0-.052-.016-.052-.125 0-.16-.018-.207-.08-.207-.043 0-.07-.158-.05-.287 0-.01-.02-.02-.05-.02-.04 0-.05-.017-.05-.104 0-.085-.01-.11-.05-.12-.04-.01-.052-.034-.052-.112 0-.082-.01-.1-.05-.1-.035 0-.052-.017-.052-.05 0-.034-.017-.052-.05-.052-.04 0-.05-.02-.058-.11-.006-.09-.017-.11-.065-.115-.037-.005-.058-.025-.058-.057s-.017-.05-.05-.05c-.043 0-.052-.016-.052-.102 0-.084-.008-.1-.05-.1-.03 0-.052-.018-.052-.038s-.02-.043-.048-.052c-.027-.008-.056-.044-.065-.08-.01-.035-.027-.057-.04-.048-.014.008-.037-.014-.05-.05-.014-.036-.042-.066-.063-.066-.02 0-.044-.023-.053-.05-.008-.03-.038-.052-.065-.052-.032 0-.05-.018-.05-.05 0-.035-.016-.052-.05-.052-.035 0-.052-.017-.052-.052 0-.028-.008-.05-.02-.048-.104.017-.18-.007-.19-.06-.003-.03-.03-.062-.058-.07-.028-.007-.05-.03-.05-.052 0-.027-.034-.04-.11-.046-.088-.006-.11-.017-.11-.058 0-.032-.016-.05-.05-.05s-.05-.016-.05-.05c0-.043-.018-.052-.1-.052-.078 0-.103-.01-.113-.05-.01-.04-.035-.052-.118-.052-.077 0-.105-.01-.105-.04 0-.034-.1-.092-.15-.085-.085.013-.157-.01-.17-.054-.015-.044-.04-.05-.17-.05-.134 0-.15-.007-.15-.052s-.018-.05-.154-.05h-.154V18.064H40.28v1.714h-.127c-.15 0-.207.018-.207.066 0 .027-.04.036-.154.036-.136 0-.153.005-.153.05 0 .04-.02.053-.078.055-.042.002-.088.006-.102.01-.014.003-.055.008-.09.01-.046.002-.064.017-.064.054 0 .043-.017.052-.102.052-.085 0-.102.01-.102.05 0 .044-.017.052-.1.052-.078 0-.102.01-.112.052-.008.03-.035.05-.067.05-.037 0-.054.017-.054.052 0 .042-.018.05-.093.05-.07 0-.095.013-.105.052-.008.028-.035.05-.062.05-.034 0-.048.02-.048.065 0 .058-.01.064-.1.064-.077 0-.102.01-.112.05-.008.03-.035.052-.067.052-.036 0-.054.016-.054.05 0 .035-.018.052-.052.052s-.05.017-.05.05c0 .035-.018.052-.052.052-.033 0-.05.017-.05.05 0 .025-.024.053-.052.06-.03.008-.052.035-.052.067 0 .036-.016.054-.05.054-.035 0-.052.017-.052.05 0 .034-.017.052-.048.052-.053 0-.08.046-.08.14 0 .036-.02.063-.05.07-.03.008-.052.03-.052.052 0 .02-.023.044-.05.05-.042.012-.052.036-.052.12 0 .087-.01.104-.052.104-.034 0-.05.017-.05.05 0 .034-.018.052-.048.052-.035 0-.054.028-.07.104-.013.057-.034.103-.046.1-.037-.005-.066.06-.067.145 0 .06-.014.084-.053.094-.03.01-.05.03-.048.05.02.14-.004.25-.053.25-.044 0-.05.017-.05.167 0 .15-.005.166-.05.166-.05 0-.052.017-.052.27 0 .25-.003.267-.05.267-.05 0-.052.017-.052.793s0 .793.05.793.052.017.052.27c0 .25.003.268.05.268.046 0 .052.017.052.15 0 .13.008.156.05.17.04.012.052.042.058.16.005.11.017.146.045.146.02 0 .042.024.046.052.02.13.034.163.075.17.025.006.046.027.048.048 0 .02.004.064.006.097 0 .037.023.066.054.074.028.008.05.036.05.062 0 .032.02.05.052.05.043 0 .052.016.052.1 0 .086.008.103.05.103.034 0 .052.017.052.05 0 .027.023.056.05.065.03.01.052.04.052.066 0 .032.018.05.05.05.036 0 .052.024.065.102.01.056.027.096.04.09.028-.02.105.062.087.092-.01.013-.006.022.006.02.056-.01.082.007.09.06.005.036.024.056.052.054.028-.002.045.014.045.043 0 .026.023.054.05.063.027.008.057.038.066.066.01.028.03.05.046.047.07-.01.17.004.167.02-.01.058.008.084.054.084.035 0 .052.017.052.052 0 .033.017.05.05.05.035 0 .052.017.052.05 0 .036.025.052.103.065.062.01.102.03.102.053 0 .02.027.042.06.05.034.01.068.04.075.067.008.028.03.048.047.046.092-.012.145.006.157.054.007.03.022.05.034.048.124-.02.265.007.265.054 0 .043.016.05.11.05.09 0 .115.01.126.052.01.042.035.05.13.05.09 0 .133.016.176.06.05.048.09.058.287.066.184.007.237.018.27.056.064.074 1.494.074 1.558 0 .033-.038.086-.05.27-.056.198-.008.238-.018.288-.067.043-.043.087-.058.175-.058.097 0 .12-.01.132-.052.01-.04.035-.05.125-.05.095 0 .112-.01.112-.052 0-.047.14-.075.264-.054.012.002.027-.02.035-.048.01-.048.064-.066.156-.053.018.003.04-.017.047-.045.007-.028.04-.058.075-.066.033-.01.06-.034.06-.054 0-.02.01-.04.02-.04s.042-.008.07-.015l.084-.014c.017 0 .032-.024.032-.05 0-.03.018-.046.05-.046.035 0 .052-.017.052-.05 0-.036.017-.053.05-.053.047 0 .064-.026.055-.083 0-.017.098-.03.17-.02.016 0 .036-.02.045-.048.01-.028.04-.058.066-.066.03-.01.05-.037.05-.063 0-.03.018-.045.046-.043.028.002.048-.017.053-.054.006-.053.032-.07.088-.06.012.002.015-.007.006-.02-.018-.03.06-.11.088-.093.012.007.03-.033.04-.09.012-.077.028-.102.065-.102.03 0 .05-.017.05-.05 0-.026.022-.056.05-.065.028-.01.05-.038.05-.065 0-.033.02-.05.052-.05.042 0 .05-.017.05-.102 0-.085.01-.102.052-.102.033 0 .05-.016.05-.048 0-.026.024-.054.052-.06.03-.01.053-.038.055-.075 0-.033.004-.077.005-.097.002-.02.023-.042.048-.047.04-.008.056-.042.076-.17.003-.03.024-.053.045-.053.028 0 .04-.037.045-.145.006-.117.018-.15.057-.162.04-.012.05-.044.056-.174.006-.12.017-.16.046-.16.03 0 .04-.05.045-.26.006-.242.01-.263.057-.263.05 0 .05-.022.05-.794 0-.776 0-.793-.05-.793s-.052-.017-.052-.268c0-.252-.003-.27-.05-.27s-.052-.016-.052-.165c0-.15-.005-.167-.05-.167-.05 0-.073-.11-.054-.25.003-.02-.02-.04-.048-.05-.04-.01-.053-.034-.053-.093 0-.085-.03-.154-.063-.14-.022.01-.09-.175-.07-.195.008-.007-.01-.014-.042-.014-.038 0-.055-.015-.055-.05s-.017-.052-.05-.052c-.044 0-.052-.017-.052-.105 0-.08-.01-.106-.048-.116-.027-.007-.055-.035-.062-.062-.007-.026-.03-.048-.053-.048-.026 0-.04-.023-.04-.062 0-.096-.028-.143-.08-.143-.032 0-.05-.02-.05-.052 0-.034-.016-.05-.05-.05-.035 0-.05-.02-.05-.055 0-.032-.022-.06-.053-.067-.028-.007-.05-.035-.05-.06 0-.033-.02-.05-.052-.05-.034 0-.05-.017-.05-.05 0-.035-.018-.052-.052-.052s-.05-.017-.05-.05c0-.036-.018-.052-.055-.052-.032 0-.06-.02-.067-.052-.01-.04-.035-.05-.113-.05-.09 0-.1-.007-.1-.065 0-.035-.008-.062-.018-.06-.052.008-.078-.008-.09-.055-.01-.04-.036-.05-.106-.05-.074 0-.09-.01-.09-.052 0-.035-.018-.05-.055-.05-.032 0-.058-.022-.067-.052-.01-.04-.034-.052-.112-.052-.082 0-.1-.008-.1-.05 0-.043-.017-.052-.102-.052-.085 0-.102-.01-.102-.05 0-.038-.018-.053-.064-.055-.035-.002-.076-.007-.09-.01-.014-.004-.06-.008-.102-.01-.06-.002-.077-.015-.077-.054 0-.046-.018-.05-.154-.05-.114 0-.154-.01-.154-.037 0-.048-.057-.067-.207-.067H42.3v-3.736H28.612V12.513h1.286c.707 0 1.33-.008 1.382-.017l.096-.016V5.02H23.8V8.75m5.55.054v1.765H25.824V7.038h3.529v1.764M14.49 21.75c0 .04.02.052.083.055l.136.008c.03.002.08.028.113.06.045.04.092.055.183.055.105 0 .124.008.124.05 0 .032.02.052.057.057.032.005.058.026.058.047 0 .026.03.04.096.046.076.007.097.02.097.058 0 .035.017.05.06.05s.06.013.058.044c-.002.03.018.048.054.053.035.005.057.026.057.056 0 .025.022.054.048.062.027.01.055.038.062.067.007.027.028.046.047.042.018-.003.037.02.042.05.006.038.027.058.06.058.03 0 .048.018.048.052s.017.05.05.05c.05 0 .067.05.054.15-.003.02.018.04.047.047.036.01.058.045.073.12.016.075.034.104.065.1.035-.002.043.02.043.11 0 .095.008.112.052.112.046 0 .05.017.05.167 0 .09.01.164.02.162.08-.013.083.004.083.59 0 .573 0 .59-.05.59-.046 0-.05.017-.05.156 0 .134-.008.157-.052.17-.04.01-.052.034-.052.112 0 .082-.008.1-.05.1-.03 0-.05.008-.046.018.015.054-.034.186-.07.186-.02 0-.04.014-.042.032l-.01.057c-.003.014-.007.052-.01.083 0 .04-.018.058-.053.058-.034 0-.05.017-.05.05 0 .03-.018.052-.042.052-.022 0-.047.023-.054.05-.008.03-.036.053-.063.053-.03 0-.048.017-.048.05 0 .034-.018.05-.052.05s-.05.018-.05.052c0 .028-.013.053-.027.054l-.056.007c-.018.003-.03.024-.03.05.003.026-.02.05-.056.058-.038.01-.06.036-.06.065 0 .04-.02.048-.093.048-.07 0-.095.013-.106.052-.01.04-.036.05-.113.05-.083 0-.1.01-.1.052 0 .043-.017.05-.104.05-.084 0-.108.012-.12.052-.01.044-.033.05-.173.05-.184 0-.242.017-.242.067 0 .03-.09.036-.5.036-.41 0-.498-.006-.498-.036 0-.05-.058-.066-.242-.066-.14 0-.163-.006-.175-.05-.01-.04-.035-.052-.118-.052-.088 0-.105-.008-.105-.05 0-.043-.017-.052-.1-.052-.077 0-.1-.01-.112-.05-.01-.04-.035-.053-.105-.053-.073 0-.092-.01-.092-.048 0-.03-.023-.054-.06-.064-.038-.008-.06-.03-.058-.058.002-.025-.01-.046-.028-.05-.018 0-.044-.004-.058-.006-.014 0-.025-.026-.025-.054 0-.034-.016-.05-.05-.05-.035 0-.052-.018-.052-.052 0-.033-.017-.05-.048-.05-.026 0-.054-.024-.06-.053-.01-.028-.033-.05-.056-.05s-.04-.022-.04-.052c0-.034-.017-.05-.05-.05-.037 0-.054-.02-.056-.06 0-.03-.005-.068-.008-.082-.004-.014-.008-.04-.01-.057-.002-.018-.022-.032-.043-.032-.035 0-.084-.132-.07-.186.004-.01-.017-.02-.045-.02-.04 0-.05-.016-.05-.09 0-.07-.013-.096-.052-.106-.044-.012-.05-.035-.05-.177 0-.146-.007-.163-.052-.163-.05 0-.052-.017-.052-.59 0-.586.003-.603.084-.59.01.002.02-.072.02-.163 0-.15.004-.168.05-.168.043 0 .05-.017.05-.114 0-.087.01-.11.037-.1.046.017.065-.015.073-.128.005-.068.018-.092.05-.092.033 0 .05-.03.062-.103.012-.077.028-.102.064-.102.03 0 .048-.018.048-.05 0-.035.017-.053.05-.053.03 0 .05-.02.057-.057.005-.032.026-.058.047-.058.02 0 .042-.026.047-.057.005-.037.026-.058.057-.058.033 0 .05-.017.05-.05 0-.03.02-.05.058-.057.037-.005.057-.024.054-.053-.002-.03.015-.044.058-.044.043 0 .06-.015.06-.05 0-.04.022-.05.097-.058.065-.005.096-.02.096-.046 0-.02.026-.042.057-.047.037-.005.058-.025.058-.057 0-.042.018-.05.123-.05.093 0 .14-.014.185-.056.033-.03.084-.057.113-.06.03 0 .09-.004.136-.007.065-.003.084-.016.084-.056 0-.05.017-.052.6-.052.585 0 .602.002.602.05m13.687 0c0 .053.022.06.243.064.05 0 .08.016.085.043.01.05.08.073.216.073.08 0 .097.01.097.052 0 .033.017.05.05.05.027 0 .068.027.09.058.022.032.045.055.052.052.053-.028.14 0 .14.044 0 .033.017.052.048.052.026 0 .054.022.06.05.01.03.033.052.055.052.023 0 .04.02.04.048 0 .03.025.055.064.064.044.01.06.03.048.056-.01.026.003.044.04.054.028.007.06.035.068.062.008.027.037.048.064.048.033 0 .05.018.05.052s.017.05.05.05c.044 0 .052.018.052.103 0 .085.008.102.05.102.05 0 .068.06.054.17-.002.018.02.04.048.048.04.012.052.038.052.106 0 .07.012.095.05.105.042.01.053.036.055.132.004.188.006.195.066.203l.058.01v1.168l-.058.008c-.062.01-.062.01-.067.2-.003.11-.01.128-.054.128-.04 0-.05.02-.057.11-.007.075-.02.108-.047.108-.025 0-.043.033-.052.097-.006.052-.022.094-.034.092-.037-.005-.066.06-.066.15 0 .065-.01.082-.052.082-.034 0-.05.017-.05.05 0 .036-.018.052-.055.052-.032 0-.06.02-.067.05-.007.03-.03.053-.05.053-.022 0-.045.02-.052.05-.007.027-.035.056-.06.065-.028.008-.05.03-.05.052 0 .02-.017.036-.04.036-.02 0-.05.03-.062.064-.013.035-.042.064-.063.064-.023 0-.04.023-.04.05 0 .04-.02.052-.11.058-.075.006-.108.02-.108.047 0 .026-.035.042-.115.05-.063.008-.112.022-.11.033.02.055-.002.07-.095.07-.085 0-.102.01-.102.05 0 .047-.018.053-.16.056-.088 0-.17.005-.185.008-.015.004-.04.008-.058.01-.018.002-.032.02-.032.043 0 .032-.07.038-.486.038s-.487-.006-.487-.038c0-.022-.015-.04-.032-.043-.017-.002-.043-.006-.057-.01-.014-.003-.097-.007-.185-.008-.142-.003-.16-.01-.16-.055 0-.043-.017-.052-.102-.052-.094 0-.115-.015-.096-.07.003-.01-.046-.025-.11-.032-.08-.01-.114-.025-.114-.05 0-.028-.033-.042-.11-.048-.087-.006-.108-.017-.108-.057 0-.027-.017-.05-.04-.05-.02 0-.05-.028-.062-.063-.013-.035-.042-.064-.063-.064-.022 0-.04-.016-.04-.036 0-.02-.02-.044-.048-.052-.026-.01-.054-.038-.06-.066-.01-.03-.03-.05-.052-.05-.02 0-.044-.024-.05-.053-.01-.03-.036-.05-.068-.05-.037 0-.054-.017-.054-.052 0-.034-.016-.05-.05-.05-.04 0-.05-.018-.052-.084 0-.088-.03-.153-.066-.148-.013.002-.03-.04-.036-.093-.008-.065-.026-.098-.05-.098-.028 0-.042-.033-.047-.11-.007-.087-.018-.108-.06-.108-.04 0-.05-.02-.05-.127-.006-.19-.007-.192-.07-.2l-.056-.01V23.75l.057-.01c.062-.008.064-.015.07-.203 0-.096.012-.12.053-.132.04-.01.05-.035.05-.104 0-.064.014-.093.048-.104.034-.01.05-.042.052-.108.003-.09.044-.147.086-.12.012.007.02-.034.02-.09 0-.088.01-.105.052-.105.034 0 .05-.017.05-.05 0-.03.018-.053.038-.053s.052-.02.07-.046c.02-.026.055-.054.08-.064.03-.01.043-.033.034-.057-.01-.025.007-.05.048-.068.035-.016.064-.043.064-.06s.023-.037.05-.045c.03-.007.052-.03.052-.054s.02-.04.05-.04c.035 0 .052-.018.052-.052 0-.045.087-.072.14-.044.007.003.03-.02.053-.052.023-.03.064-.057.09-.057.034 0 .05-.017.05-.05 0-.042.018-.052.097-.052.137 0 .207-.024.216-.073.006-.027.035-.042.085-.043.22-.005.242-.01.242-.063 0-.05.017-.052.59-.052.57 0 .587.002.587.05m13.713 0c0 .04.02.054.083.057l.137.008c.03.002.08.028.113.06.045.04.092.055.184.055.104 0 .123.008.123.05 0 .032.02.052.057.057.032.005.058.026.058.047 0 .026.03.04.096.046.076.007.097.02.097.058 0 .035.018.05.06.05.043 0 .06.013.06.044-.004.03.016.048.052.053.036.005.057.026.057.056 0 .025.022.054.05.062.025.01.053.038.06.067.008.027.03.046.047.042.02-.003.038.02.043.05.005.038.026.058.058.058s.05.018.05.052.016.05.05.05c.05 0 .066.05.053.15-.003.02.02.04.047.047.036.01.058.045.073.12.016.075.034.104.065.1.035-.002.044.02.044.11 0 .095.007.112.05.112.047 0 .052.017.052.167 0 .09.008.164.018.162.08-.013.083.004.083.59 0 .573 0 .59-.05.59-.045 0-.05.017-.05.156 0 .134-.008.157-.052.17-.04.01-.05.034-.05.112 0 .082-.01.1-.052.1-.03 0-.05.008-.046.018.015.054-.034.186-.07.186-.02 0-.04.014-.042.032-.002.017-.006.043-.01.057-.003.014-.007.052-.01.083 0 .04-.018.058-.053.058-.034 0-.05.017-.05.05 0 .03-.018.052-.042.052-.022 0-.046.023-.054.05-.008.03-.036.053-.062.053-.032 0-.05.017-.05.05 0 .034-.016.05-.05.05s-.05.018-.05.052c0 .028-.012.053-.026.054l-.058.007c-.018.003-.03.024-.028.05.002.026-.02.05-.058.058-.038.01-.06.036-.06.065 0 .04-.02.048-.093.048-.07 0-.095.013-.105.052-.01.04-.035.05-.113.05-.082 0-.1.01-.1.052 0 .043-.017.05-.104.05-.083 0-.108.012-.118.052-.012.044-.035.05-.175.05-.184 0-.242.017-.242.067 0 .03-.09.036-.5.036-.408 0-.498-.006-.498-.036 0-.05-.058-.066-.242-.066-.14 0-.163-.006-.175-.05-.01-.04-.034-.052-.118-.052-.087 0-.104-.008-.104-.05 0-.043-.016-.052-.1-.052-.077 0-.1-.01-.112-.05-.01-.04-.034-.053-.105-.053-.073 0-.092-.01-.092-.048 0-.03-.022-.054-.06-.064-.037-.008-.06-.03-.057-.058 0-.025-.01-.046-.03-.05-.016 0-.042-.004-.056-.006-.014 0-.026-.026-.026-.054 0-.034-.016-.05-.05-.05s-.05-.018-.05-.052c0-.033-.018-.05-.05-.05-.026 0-.054-.024-.06-.053-.008-.028-.033-.05-.055-.05-.024 0-.04-.022-.04-.052 0-.034-.018-.05-.052-.05-.035 0-.052-.02-.054-.06-.003-.03-.007-.068-.01-.082-.004-.014-.008-.04-.01-.057-.002-.018-.02-.032-.043-.032-.035 0-.084-.132-.07-.186.004-.01-.016-.02-.045-.02-.04 0-.05-.016-.05-.09 0-.07-.013-.096-.052-.106-.044-.012-.05-.035-.05-.177 0-.146-.006-.163-.052-.163-.05 0-.05-.017-.05-.59 0-.586 0-.603.082-.59.01.002.02-.072.02-.163 0-.15.004-.168.05-.168.044 0 .05-.017.05-.114 0-.087.01-.11.037-.1.047.017.065-.015.073-.128.005-.068.018-.092.05-.092.033 0 .05-.03.062-.103.012-.077.028-.102.064-.102.03 0 .048-.018.048-.05 0-.035.017-.053.05-.053.03 0 .052-.02.057-.057.005-.032.026-.058.047-.058.022 0 .043-.026.047-.057.005-.037.026-.058.058-.058.03 0 .05-.017.05-.05 0-.03.02-.05.057-.057.035-.005.055-.024.053-.053-.003-.03.015-.044.057-.044.044 0 .06-.015.06-.05 0-.04.022-.05.097-.058.065-.005.096-.02.096-.046 0-.02.026-.042.058-.047.038-.005.058-.025.058-.057 0-.042.02-.05.123-.05.093 0 .14-.014.185-.056.033-.03.084-.057.113-.06.03 0 .09-.004.137-.007.064-.003.083-.016.083-.056 0-.05.017-.052.6-.052.585 0 .602.002.602.05m11.232 13.395c0 1.53 0 1.547-.052 1.547-.048 0-.05.017-.05.28 0 .24-.007.28-.04.267-.05-.02-.08.073-.087.263 0 .032-.023.06-.053.068-.04.01-.05.035-.05.105 0 .075-.01.092-.052.092-.034 0-.05.017-.05.05 0 .026-.024.056-.053.065-.04.013-.05.04-.05.117 0 .083-.01.1-.052.1-.034 0-.05.017-.05.052 0 .033-.018.05-.052.05-.033 0-.05.017-.05.05 0 .038-.017.052-.064.052s-.064.014-.064.05c0 .043-.017.052-.092.052-.07 0-.095.012-.106.052-.007.028-.034.05-.06.05-.032 0-.05.02-.05.052 0 .028-.014.053-.03.055-.06.006-.135.013-.204.017-.044.003-.075.023-.085.056-.014.043-.04.05-.168.05-.135 0-.152.007-.152.052 0 .05-.017.05-23.716.05-23.7 0-23.717 0-23.717-.05 0-.047-.017-.05-.205-.05-.163 0-.205-.01-.205-.038 0-.043-.09-.1-.126-.08-.04.026-.104-.015-.104-.065 0-.035-.018-.048-.065-.048-.042 0-.06-.01-.048-.03.023-.036-.036-.072-.123-.072-.054 0-.07-.013-.07-.052 0-.037-.018-.05-.065-.05s-.064-.015-.064-.052c0-.033-.017-.05-.05-.05-.035 0-.052-.017-.052-.05 0-.036-.017-.052-.05-.052-.044 0-.052-.018-.052-.1 0-.08-.012-.105-.052-.118-.028-.01-.05-.04-.05-.066 0-.032-.018-.05-.052-.05-.042 0-.05-.016-.05-.09 0-.07-.013-.096-.05-.106-.038-.01-.053-.04-.058-.12-.007-.087-.018-.107-.066-.113-.056-.008-.057-.017-.057-.316 0-.287-.005-.31-.052-.322-.05-.013-.052-.035-.052-1.558v-1.545H53.12v1.548m-21.72 5.935c0 .2.003.217.05.217s.05.018.05.208c0 .185.007.208.052.22.046.012.052.035.052.205 0 .17.005.192.05.204.047.012.052.035.052.228 0 .198.004.215.05.215.047 0 .08.226.056.388-.002.01.02.025.048.034.04.012.05.04.053.123.002.06.005.13.008.158l.01.11c.004.038.022.057.056.057.046 0 .05.017.05.204s.005.204.052.204.05.017.05.217c0 .202.005.22.052.22s.05.016.05.206c0 .185.007.208.052.22.046.012.052.035.052.215 0 .12.01.203.025.203h.045c.01 0 .025.094.032.21.012.196.017.213.07.22.054.008.058.02.058.214 0 .184.005.206.05.218.03.008.052.035.052.062 0 .047-.122.048-5.09.048-4.97 0-5.092 0-5.092-.048 0-.027.023-.054.05-.062.047-.012.052-.034.052-.218 0-.194.003-.206.058-.214.053-.007.058-.024.07-.22.007-.116.02-.21.032-.21h.045c.015 0 .025-.084.025-.202 0-.18.006-.202.052-.214.045-.012.05-.035.05-.22 0-.19.005-.207.052-.207s.05-.018.05-.22c0-.2.005-.216.052-.216s.05-.017.05-.205.006-.205.052-.205c.035 0 .053-.02.056-.058l.01-.11c.004-.027.007-.098.01-.157 0-.083.013-.11.052-.123.028-.01.05-.024.048-.034-.023-.162.01-.388.055-.388.046 0 .05-.017.05-.215 0-.193.005-.216.05-.228.047-.012.052-.035.052-.204 0-.17.006-.193.05-.205.047-.012.053-.035.053-.22 0-.19.004-.208.05-.208.048 0 .052-.017.052-.217v-.217H31.4v.218m3.853 7.12c.038.05.026.05.305.053.2.004.218.008.218.055 0 .044.017.052.112.052.09 0 .115.01.125.05.01.04.035.052.106.052.074 0 .09.008.09.05 0 .048.038.063.15.058.018 0 .046.026.06.06.017.034.044.06.062.06.018 0 .04.024.048.052.01.028.024.05.034.048.05-.007.077.008.088.05.007.03.04.047.097.05.103.01.094 0 .106.108.008.068.023.092.065.098.034.005.05.02.042.042-.008.02.01.042.04.05.03.01.053.04.053.066 0 .026.022.055.048.063.04.013.094.14.083.2-.002.01.02.018.048.018.047 0 .07.082.054.186 0 .01.02.018.048.018.038 0 .052.017.052.064v.064H17.893v-.115c0-.097.007-.114.05-.114.03 0 .054-.015.056-.032 0-.018.005-.044.01-.058l.008-.07c0-.026.023-.045.052-.045.032 0 .052-.02.057-.056.005-.032.026-.058.047-.058.02 0 .042-.026.047-.058.008-.052.033-.07.088-.06.01 0 .02-.043.02-.1 0-.085.008-.102.05-.102.035 0 .052-.017.052-.05 0-.035.017-.052.05-.052.035 0 .052-.017.052-.05 0-.043.017-.053.09-.053.066 0 .1-.015.13-.062.023-.035.052-.058.065-.05.012.008.032-.012.045-.045.012-.032.037-.06.057-.06.018-.003.06-.006.092-.008s.056-.012.054-.023c-.01-.066.012-.083.104-.083.078 0 .104-.013.117-.052.013-.04.04-.05.117-.05.083 0 .1-.01.1-.053 0-.047.288-.08.482-.052.02.002.04-.02.048-.048l.014-.053h7.586c7.195 0 7.588.002 7.62.045" stroke="null"/></g></svg>
