<svg width="23" height="23" xmlns="http://www.w3.org/2000/svg"><g><path fill-rule="evenodd" d="M10.65.027c-.004.012-.194.03-.422.038C10 .075 9.813.09 9.813.1c0 .01-.05.02-.113.02s-.114.01-.114.023-.062.023-.142.023c-.135 0-.183.01-.392.068-.05.015-.157.036-.238.05-.08.01-.157.03-.17.04-.013.01-.064.018-.114.02-.05 0-.094.013-.098.026-.005.012-.028.023-.052.023-.023 0-.043.01-.043.02s-.064.026-.142.034c-.078.008-.145.025-.15.037-.004.012-.027.022-.05.022-.025 0-.044.01-.044.02s-.045.026-.1.034c-.057.007-.123.024-.15.037l-.09.046c-.025.012-.068.023-.096.023-.028 0-.072.016-.096.034-.024.02-.073.034-.11.034-.036 0-.058.01-.05.022.007.012-.027.03-.08.037-.05.008-.09.024-.09.034 0 .01-.02.02-.046.02-.025 0-.045.01-.045.023 0 .012-.015.023-.032.023s-.06.015-.096.034c-.037.018-.084.034-.106.034-.022 0-.04.01-.04.024 0 .012-.02.022-.045.022-.026 0-.047.01-.047.02 0 .013-.03.03-.068.037-.037.008-.068.024-.068.036 0 .01-.018.02-.04.02-.022 0-.06.016-.084.035-.024.018-.062.033-.084.033-.023 0-.054.02-.07.042-.016.023-.06.05-.097.058-.036.01-.094.036-.128.06-.034.025-.073.044-.087.044-.013 0-.024.01-.024.022 0 .012-.036.028-.08.037-.046.01-.083.032-.09.056-.008.022-.045.046-.084.054-.04.008-.088.034-.11.058-.02.024-.065.05-.1.06-.034.008-.074.035-.09.058-.013.023-.042.043-.063.043-.02 0-.043.014-.05.033-.008.018-.034.034-.06.034-.025 0-.046.008-.046.02 0 .01-.035.037-.078.06-.044.024-.085.06-.092.08-.007.022-.04.044-.074.05-.035.008-.1.05-.146.095-.046.044-.092.08-.103.08-.01 0-.042.026-.07.058-.027.03-.06.056-.073.056-.013 0-.05.026-.08.057-.032.032-.064.057-.073.057-.008 0-.08.06-.16.136-.078.075-.157.137-.174.137-.017 0-.037.02-.044.044-.008.024-.034.05-.057.058-.024.007-.05.034-.058.058-.007.024-.03.044-.048.044-.03 0-.736.686-.736.716 0 .014-.077.102-.153.175-.027.027-.05.058-.05.07 0 .01-.062.08-.137.154-.075.074-.136.144-.136.156 0 .012-.024.046-.054.076s-.06.076-.07.103c-.008.027-.025.05-.037.05-.01 0-.02.01-.02.025 0 .014-.037.06-.08.1-.044.042-.08.09-.08.11 0 .017-.015.038-.034.045-.02.007-.034.03-.034.05 0 .022-.025.063-.057.092-.03.028-.056.057-.056.065 0 .007-.02.035-.046.063-.025.027-.052.075-.06.107-.008.03-.032.072-.053.09-.02.02-.046.058-.055.086-.008.03-.025.052-.037.052-.012 0-.02.012-.02.026 0 .014-.02.042-.04.063-.023.02-.044.058-.048.083-.004.025-.022.057-.04.07-.017.014-.032.042-.032.063 0 .02-.01.037-.02.037s-.027.026-.035.057c-.008.03-.024.057-.036.057-.013 0-.023.015-.023.034 0 .02-.01.035-.02.035-.012 0-.028.036-.036.08-.008.043-.023.08-.032.08-.01 0-.032.035-.05.078-.016.044-.038.08-.048.08-.01 0-.024.036-.032.08-.008.043-.024.08-.035.08-.01 0-.02.014-.02.033 0 .02-.01.034-.02.034-.012 0-.027.036-.036.08-.007.043-.023.08-.035.08-.012 0-.022.025-.022.056 0 .03-.01.057-.022.057-.012 0-.028.04-.036.09-.008.05-.024.09-.035.09-.012 0-.02.022-.02.047s-.01.045-.02.045c-.013 0-.03.033-.037.074-.016.08-.058.18-.087.2-.01.007-.02.035-.022.062 0 .027-.01.05-.02.05-.008 0-.022.04-.03.09-.01.05-.025.09-.036.09-.012 0-.02.036-.02.08 0 .04-.012.08-.025.084-.014.005-.03.052-.037.104-.007.053-.02.097-.03.097-.01 0-.017.027-.017.06 0 .035-.012.066-.025.07-.014.005-.032.08-.04.166-.01.087-.025.158-.035.158-.01 0-.02.015-.02.033 0 .018-.01.036-.02.04-.01.004-.026.08-.035.166-.008.086-.025.168-.037.18-.012.012-.022.05-.022.084s-.01.068-.023.076c-.012.008-.022.07-.022.136 0 .068-.008.128-.02.135-.01.008-.027.093-.036.19-.01.097-.022.186-.03.198-.02.033-.02.124 0 .11.01-.005.02 0 .02.015 0 .013-.012.024-.024.024-.013 0-.023.05-.023.11 0 .07-.01.117-.028.122-.04.012-.043 2.372-.005 2.397.014.01.032.083.04.164.035.387.065.603.084.61.01.004.02.068.02.142 0 .075.01.135.023.135s.023.035.023.077c0 .043.01.08.02.085.013.004.028.068.036.143.008.075.024.14.036.144.012.004.022.038.022.074 0 .038.01.067.02.067s.025.064.033.142c.01.077.025.145.038.15.013.003.023.03.023.06s.01.06.02.066c.012.007.03.054.037.104.01.05.025.096.036.103.012.007.02.047.02.09 0 .04.012.08.026.084.014.004.03.056.037.115.006.06.018.108.027.108.008 0 .03.035.046.08.017.043.04.08.047.08.01 0 .023.045.032.1.008.057.024.103.036.103.012 0 .022.026.022.057 0 .03.01.057.02.057.012 0 .028.03.036.068.008.037.025.068.036.068.012 0 .02.02.02.047 0 .026.016.062.035.08.02.02.034.06.034.09s.01.055.024.055c.012 0 .02.008.02.018-.008.05.006.097.025.085.012-.008.022.002.022.02 0 .02.01.036.022.036.012 0 .016.016.01.035-.008.017-.003.033.01.033.015 0 .026.02.026.045 0 .025.01.045.023.045.012 0 .023.03.023.063 0 .046.006.054.02.03.016-.024.026-.01.037.05.01.047.025.085.036.085.01 0 .02.016.02.035 0 .018.01.034.02.034.012 0 .028.03.036.067.008.037.024.073.036.08.01.008.02.044.02.082 0 .036-.008.06-.02.055-.01-.007-.025.056-.032.14-.008.084-.025.156-.038.16-.012.005-.023.043-.023.086s-.01.078-.02.078-.027.052-.035.114c-.01.063-.025.114-.037.114-.012 0-.022.04-.022.09 0 .05-.01.09-.023.09s-.023.027-.023.058c0 .03-.01.057-.02.057s-.026.062-.035.137c-.008.075-.024.137-.034.137-.01 0-.023.033-.03.073-.028.183-.07.358-.088.358-.01 0-.02.036-.02.08 0 .043-.008.08-.02.08-.01 0-.027.05-.036.113-.008.062-.023.113-.032.113-.01 0-.02.04-.02.085-.002.046-.015.09-.03.1-.013.008-.03.083-.037.166-.006.083-.02.15-.03.15-.012 0-.02.016-.02.035 0 .02-.01.034-.024.034-.012 0-.022.03-.022.066 0 .037-.008.072-.02.08-.01.006-.026.073-.034.148-.01.075-.026.137-.037.137-.013 0-.023.037-.023.08 0 .044-.01.08-.02.08-.012 0-.028.05-.037.113-.008.063-.025.114-.036.114-.01 0-.02.04-.02.092 0 .05-.01.086-.022.08-.01-.01-.028.052-.036.133-.01.082-.025.148-.036.148-.01 0-.02.026-.02.056 0 .03-.01.06-.02.063-.012.003-.027.063-.035.13-.007.07-.023.13-.036.134-.013.004-.024.042-.024.085 0 .042-.01.077-.023.077-.012 0-.022.035-.022.078s-.01.084-.02.09c-.013.01-.03.066-.038.127-.008.062-.024.107-.035.1-.01-.006-.02.024-.02.067 0 .042-.01.08-.022.085-.013.005-.03.072-.038.15s-.023.142-.034.142c-.01 0-.02.026-.02.057 0 .03-.008.057-.02.057-.01 0-.026.062-.034.137-.01.075-.026.136-.038.136S0 22.51 0 22.553c0 .07.007.08.057.08.03 0 .057-.01.057-.023s.03-.023.07-.023c.04 0 .063-.01.055-.023-.01-.014.028-.023.098-.023.062 0 .116-.01.12-.022.005-.014.067-.03.14-.038.07-.007.13-.022.13-.033 0-.01.024-.02.056-.02.03 0 .057-.012.057-.028 0-.02.01-.018.023.005.012.02.022.023.023.01 0-.015.06-.034.136-.042.075-.01.137-.025.137-.037 0-.012.024-.022.055-.022.032 0 .057-.01.057-.02s.064-.025.142-.034c.078-.008.145-.025.15-.037.004-.012.027-.022.05-.022.025 0 .063-.01.084-.02.022-.013.1-.03.17-.037.072-.007.13-.023.13-.035 0-.01.032-.02.07-.02.037 0 .067-.01.067-.024 0-.012.03-.022.067-.022.037 0 .072-.01.08-.02.006-.01.073-.027.148-.035.075-.01.137-.025.137-.037 0-.012.026-.022.057-.022.03 0 .057-.01.057-.02s.07-.025.154-.033c.084-.008.156-.025.16-.037.005-.013.043-.024.086-.024s.078-.01.078-.02.056-.027.125-.035c.068-.01.124-.026.124-.038s.046-.02.103-.02c.056 0 .102-.01.102-.023s.06-.03.136-.038c.075-.008.137-.024.137-.035 0-.01.025-.02.056-.02.032 0 .09-.018.13-.04.042-.024.142-.05.223-.058.082-.01.15-.027.156-.04.003-.012.036-.022.073-.022.036 0 .066-.008.066-.02 0-.01.056-.025.127-.032.07-.007.14-.024.152-.037.012-.015.052-.025.087-.025.035 0 .063-.01.063-.02 0-.013.067-.03.148-.038.082-.01.154-.025.16-.036.008-.01.037-.02.067-.02.03 0 .057-.01.06-.022.007-.018.103-.035.287-.05.015-.002.028-.01.028-.022 0-.01.026-.018.057-.018.03 0 .057-.01.057-.023 0-.046.214-.026.25.022.017.025.066.052.107.06.042.007.075.023.075.034 0 .012.016.02.034.02.018 0 .033.01.033.02 0 .012.036.028.08.036.044.01.08.025.08.037 0 .012.025.022.056.022.03 0 .056.01.056.02 0 .013.036.03.08.038.043.008.08.024.08.035 0 .01.013.02.03.02.02 0 .037.01.04.024.006.014.053.03.105.037.054.007.098.02.098.032 0 .01.015.02.034.02.018 0 .034.008.034.017 0 .02.105.068.2.086.04.01.072.024.072.035 0 .012.035.02.077.02.048 0 .082.014.09.035.008.02.04.034.07.034.058 0 .147.038.174.073.006.01.065.024.13.032.064.008.117.023.117.034 0 .01.025.018.055.018s.058.01.063.023c.004.014.06.03.126.038.067.008.12.023.12.034 0 .01.02.02.046.02.025 0 .045.01.045.022 0 .013.043.023.094.023.05 0 .087.008.08.017-.005.01.09.037.21.06s.225.05.232.06c.006.012.096.027.198.036.103.008.187.024.187.035 0 .01.04.02.09.02.05 0 .093.01.097.024.005.013.117.028.274.036.148.007.268.022.268.032 0 .01.06.02.136.02.076 0 .136.01.136.023 0 .015.296.023.84.023.546 0 .84-.008.84-.022 0-.012.065-.022.148-.022.08 0 .15-.01.158-.02.007-.01.137-.026.29-.034.154-.01.283-.026.288-.038.004-.012.047-.022.095-.022.047 0 .093-.01.1-.024.01-.013.038-.022.065-.02.063.008.262-.02.322-.045.055-.023.237-.064.37-.084.053-.007.102-.022.11-.033.005-.01.046-.02.09-.02.042 0 .077-.01.077-.023 0-.012.026-.022.057-.022.032 0 .058-.01.058-.02s.053-.026.12-.034c.064-.007.12-.024.126-.037.004-.012.032-.022.062-.022s.055-.01.055-.02.052-.026.115-.035c.062-.008.113-.025.113-.037 0-.012.02-.022.046-.022.025 0 .045-.01.045-.022 0-.013.03-.023.066-.023.036 0 .08-.016.1-.035.02-.02.054-.034.077-.034.024 0 .084-.02.134-.043.05-.024.118-.05.152-.06.032-.008.06-.024.06-.035 0-.01.02-.02.045-.02.025 0 .046-.01.046-.023s.025-.024.055-.024.066-.015.082-.034c.015-.018.053-.034.084-.034.032 0 .05-.01.042-.022-.008-.013.006-.023.03-.023.026 0 .06-.015.08-.034.02-.02.055-.035.08-.035.027 0 .048-.008.048-.017 0-.01.077-.053.17-.097.094-.043.17-.086.17-.095 0-.01.016-.017.035-.017.02 0 .034-.01.034-.023s.02-.023.045-.023c.025 0 .045-.01.045-.023s.015-.023.033-.023c.017 0 .048-.016.068-.036.02-.02.036-.027.036-.018 0 .01.02-.005.047-.032.025-.027.065-.05.088-.05.024 0 .067-.025.097-.056.03-.03.07-.057.093-.057.022 0 .04-.01.04-.023 0-.012.014-.023.032-.023.018 0 .036-.008.04-.02.004-.01.022-.024.04-.028.018-.004.055-.03.082-.06.028-.027.06-.05.075-.05.014 0 .025-.01.025-.02 0-.012.022-.03.05-.038.026-.008.072-.037.1-.064.09-.082.12-.105.145-.105.013 0 .023-.01.023-.023 0-.012.015-.022.033-.022.018 0 .06-.026.09-.057.03-.03.066-.057.077-.057.01 0 .058-.04.104-.09.046-.05.095-.092.107-.092.013 0 .048-.025.08-.056.03-.032.065-.057.075-.057.01 0 .065-.045.122-.1.058-.058.116-.104.13-.104.01 0 .022-.01.022-.023 0-.027.122-.158.147-.158.01 0 .042-.023.07-.05l.083-.08.056-.054.08-.078.08-.083c.015-.017.04-.042.056-.057.016-.016.042-.04.057-.057.015-.016.04-.042.057-.057.045-.043.086-.095.086-.11 0-.008.097-.112.216-.23.12-.12.216-.23.216-.245 0-.017.025-.05.057-.072.03-.024.056-.056.056-.073 0-.016.017-.035.035-.042.02-.007.034-.023.034-.034 0-.012.025-.045.056-.074.03-.03.057-.06.057-.068 0-.01.026-.04.057-.073.03-.032.057-.07.057-.086 0-.015.02-.042.045-.06.025-.018.045-.046.045-.06 0-.017.026-.055.057-.086.032-.03.057-.067.057-.08 0-.014.01-.024.022-.024.012 0 .028-.022.037-.05.008-.027.04-.075.07-.107.028-.032.053-.07.053-.087 0-.016.008-.03.02-.03.01 0 .038-.037.06-.084.025-.047.062-.1.083-.12.02-.02.046-.066.055-.103.01-.037.036-.08.06-.096.022-.017.04-.045.04-.063 0-.018.01-.033.022-.033.01 0 .028-.03.036-.07.01-.04.036-.094.06-.12.024-.025.05-.07.057-.098.007-.028.022-.05.033-.05.01 0 .02-.022.02-.048 0-.026.01-.04.02-.034.01.006.027-.024.035-.067.008-.044.025-.08.037-.08.012 0 .022-.02.022-.045 0-.025.01-.045.02-.045.013 0 .03-.036.038-.08.008-.043.024-.073.035-.066.01.006.02-.01.02-.035 0-.026.01-.047.023-.047.012 0 .023-.015.023-.034 0-.017.01-.033.023-.033s.023-.025.023-.055.016-.07.035-.09c.02-.02.038-.057.04-.082.002-.025.01-.045.02-.045.008 0 .02-.036.03-.08.008-.044.024-.08.036-.08.012 0 .022-.025.022-.056 0-.032.01-.058.02-.058s.027-.048.036-.107c.01-.06.035-.123.06-.144.026-.023.047-.08.057-.165.01-.07.025-.128.035-.128.01 0 .02-.015.02-.034 0-.02.01-.034.023-.034.012 0 .022-.036.022-.08 0-.04.012-.08.025-.085.014-.004.03-.06.038-.12.007-.063.032-.148.056-.19.022-.042.048-.14.055-.216.007-.078.022-.144.033-.148.01-.004.02-.03.02-.058 0-.027.01-.06.022-.073.013-.012.03-.098.037-.19.008-.094.022-.175.032-.182.01-.006.022-.042.027-.08.005-.037.016-.082.023-.1.007-.02.02-.132.027-.25.008-.12.024-.22.036-.225.012-.004.022-.057.022-.12 0-.06.01-.11.022-.11.013 0 .023-.016.023-.034 0-.02-.01-.036-.023-.036-.012 0-.022-.03-.022-.068 0-.037.01-.068.022-.068.014 0 .023-.08.023-.192 0-.106.01-.198.023-.206.03-.02.03-1.35 0-1.35-.013 0-.023-.083-.023-.183 0-.106-.01-.18-.023-.18-.012 0-.022-.037-.022-.08 0-.045.01-.08.022-.08.013 0 .023-.01.023-.025 0-.013-.01-.017-.023-.01-.014.01-.022-.034-.022-.113 0-.072-.01-.148-.023-.172-.013-.023-.03-.15-.038-.282-.008-.132-.023-.24-.034-.24-.01 0-.02-.036-.02-.08 0-.043-.008-.08-.02-.08s-.028-.08-.037-.18c-.01-.1-.025-.182-.036-.182-.01 0-.02-.03-.02-.07 0-.036-.01-.067-.02-.067-.018 0-.06-.235-.052-.278.003-.01-.006-.018-.018-.018-.013 0-.023-.03-.023-.064 0-.035-.01-.073-.022-.085-.02-.02-.058-.15-.085-.288-.006-.035-.02-.063-.032-.063-.01 0-.02-.025-.02-.057 0-.03-.01-.056-.02-.056s-.027-.047-.036-.103c-.01-.056-.025-.108-.037-.115-.012-.007-.022-.033-.022-.057 0-.025-.008-.044-.018-.044-.01 0-.027-.04-.035-.09-.008-.05-.024-.09-.037-.09-.012 0-.022-.027-.022-.058 0-.03-.01-.057-.02-.057s-.027-.036-.036-.08c-.008-.043-.024-.08-.036-.08-.012 0-.022-.024-.022-.056s-.01-.057-.02-.057c-.02 0-.06-.108-.052-.142.002-.01-.006-.016-.02-.016-.01 0-.02-.016-.02-.034 0-.02-.012-.035-.024-.035-.013 0-.023-.015-.023-.034 0-.017-.01-.033-.02-.033s-.027-.035-.035-.08c-.008-.043-.022-.08-.03-.08-.02 0-.097-.166-.097-.203 0-.013-.01-.023-.022-.023-.012 0-.022-.02-.022-.044 0-.025-.01-.046-.022-.046-.012 0-.028-.035-.036-.078-.01-.047-.03-.085-.056-.092-.023-.008-.046-.044-.054-.087-.008-.04-.034-.088-.06-.106-.024-.018-.045-.046-.045-.062s-.01-.03-.02-.03-.026-.032-.034-.073c-.006-.04-.038-.093-.07-.117-.03-.023-.056-.062-.056-.085 0-.023-.01-.042-.023-.042-.012 0-.022-.01-.022-.024s-.013-.04-.028-.056c-.068-.076-.085-.1-.085-.124 0-.013-.01-.023-.02-.023-.012 0-.027-.025-.035-.056-.008-.03-.024-.057-.037-.057-.012 0-.022-.01-.022-.024 0-.013-.022-.048-.05-.078-.085-.09-.108-.122-.108-.147 0-.013-.01-.023-.02-.023-.013 0-.028-.02-.036-.043-.007-.024-.06-.09-.115-.148-.055-.057-.1-.114-.1-.126 0-.03-.11-.138-.138-.138-.012 0-.022-.017-.022-.037 0-.02-.03-.067-.068-.102-.037-.035-.068-.073-.068-.082 0-.028-.122-.154-.165-.17-.023-.008-.04-.032-.04-.05 0-.02-.01-.03-.023-.023-.013.007-.023.004-.023-.008 0-.02-.482-.52-.492-.51-.01.01-.204-.198-.193-.21.005-.005-.007-.01-.028-.01-.02 0-.076-.042-.122-.092-.046-.05-.102-.09-.123-.09-.022 0-.046-.02-.054-.046s-.04-.052-.07-.06c-.03-.008-.05-.023-.042-.034.008-.01.002-.02-.013-.02s-.067-.04-.117-.09c-.05-.05-.103-.092-.118-.092-.014 0-.04-.02-.06-.046-.017-.025-.042-.045-.055-.045-.013 0-.06-.03-.103-.07-.044-.036-.103-.087-.132-.112-.03-.024-.068-.044-.086-.044-.017 0-.032-.01-.032-.023 0-.012-.015-.023-.033-.023-.017 0-.056-.024-.086-.054-.03-.03-.076-.06-.103-.07-.026-.008-.048-.025-.048-.036 0-.012-.013-.02-.03-.02-.015 0-.043-.02-.06-.046-.018-.024-.04-.04-.05-.033-.01.006-.023 0-.03-.012-.008-.013-.035-.023-.06-.023-.023 0-.043-.01-.043-.023 0-.012-.017-.022-.036-.022-.02 0-.03-.01-.023-.02.008-.013-.017-.03-.054-.037-.038-.008-.07-.025-.07-.036 0-.012-.014-.02-.033-.02-.018 0-.034-.01-.034-.02s-.044-.037-.097-.06c-.054-.023-.102-.048-.108-.057-.017-.02-.173-.09-.202-.09-.014 0-.025-.01-.025-.024 0-.012-.016-.023-.035-.023-.018 0-.034-.01-.034-.02s-.036-.027-.08-.035c-.044-.008-.08-.025-.08-.036 0-.012-.02-.022-.046-.022s-.042-.01-.035-.02c.006-.012-.024-.027-.067-.036-.044-.008-.08-.024-.08-.036 0-.012-.024-.022-.054-.022S15.96.99 15.946.972c-.016-.02-.058-.034-.095-.034-.04 0-.06-.01-.053-.023.007-.012-.008-.022-.033-.022-.026 0-.047-.01-.047-.023s-.02-.023-.042-.023c-.023 0-.09-.025-.15-.057-.058-.03-.132-.056-.163-.056-.03 0-.05-.01-.044-.02.008-.012-.035-.028-.095-.037-.06-.01-.112-.024-.12-.034-.005-.01-.03-.022-.055-.026-.025-.005-.052-.017-.06-.027-.007-.01-.058-.024-.113-.03-.1-.012-.202-.05-.227-.083-.007-.01-.068-.023-.136-.03-.068-.006-.127-.02-.13-.033-.005-.01-.033-.02-.063-.02s-.054-.01-.054-.024c0-.012-.045-.023-.1-.023-.056 0-.104-.01-.108-.02-.004-.012-.074-.032-.156-.045-.245-.04-.305-.053-.333-.076-.016-.01-.126-.027-.246-.034-.12-.007-.217-.022-.217-.032 0-.01-.05-.02-.113-.02S12.88.11 12.88.1s-.186-.026-.414-.035c-.228-.01-.418-.026-.423-.038C12.033 0 10.66 0 10.65.027m1.22.797c.008.014.14.023.317.023.176 0 .306.01.31.022.005.012.14.028.298.037.16.008.29.024.29.034 0 .012.028.02.063.02s.074.01.085.02c.012.01.137.038.278.06.14.022.256.05.256.06 0 .01.046.02.102.02.057 0 .103.01.103.02s.052.026.114.034c.063.01.114.025.114.037 0 .014.04.023.092.023.05 0 .087.01.08.02-.013.02.11.048.22.048.038 0 .06.01.05.024-.007.013.01.023.043.023.03 0 .06.01.065.025.004.014.056.03.115.037.06.006.107.02.107.03 0 .012.015.02.034.02.02 0 .034.01.034.023s.026.023.057.023c.03 0 .057.008.057.017 0 .01.066.037.146.06.08.026.142.052.137.06-.012.02.07.044.143.044.028 0 .05.01.05.023s.016.023.035.023c.02 0 .034.01.034.022 0 .012.036.028.08.036.043.01.08.025.08.037 0 .01.014.02.033.02.02 0 .034.01.034.02s.036.027.08.035c.043.008.08.025.08.037 0 .01.015.02.033.02.02 0 .034.01.034.023s.022.023.047.023.045.01.045.02c0 .013.036.03.08.038.045.01.076.02.07.027-.02.02.04.066.11.084.037.01.083.035.102.057.02.023.072.048.116.056.046.01.097.04.122.072.023.03.062.057.085.057.023 0 .042.01.042.022 0 .013.012.023.028.023s.044.02.06.044c.02.025.04.04.048.035.008-.006.037.01.063.034.026.025.058.045.07.045.014 0 .024.008.024.02 0 .01.026.026.057.034.033.008.058.03.058.05 0 .018.01.028.02.022.01-.007.033.002.048.02.016.02.04.035.055.035s.042.02.06.046c.018.025.04.046.05.046.024 0 .07.038.148.12.033.033.068.06.08.06.01 0 .047.027.08.058.034.03.07.057.08.057.01 0 .06.04.11.09.05.05.1.087.11.08.02-.01.056.054.05.087-.003.01.005.013.016.006.022-.013.957.907.957.94 0 .01.016.025.035.032.02.007.034.025.034.04 0 .014.035.06.078.1.044.042.08.087.08.1 0 .015.01.02.023.013.013-.008.023 0 .023.02s.026.06.057.09c.03.033.057.066.057.076 0 .01.026.04.06.068.03.028.06.066.062.085.002.02.027.054.054.078.028.025.05.056.05.07 0 .013.026.05.057.08.032.032.058.068.058.08 0 .014.01.025.022.025.012 0 .03.026.037.057.007.03.023.057.034.057.012 0 .02.014.02.034 0 .02.027.06.058.088.03.028.057.064.057.078 0 .014.01.026.023.026.012 0 .022.018.022.04 0 .022.024.066.053.097.03.03.06.085.07.12.008.033.025.06.037.06.012 0 .022.014.022.03s.02.044.045.062c.025.018.052.066.06.107.007.04.023.074.034.074.012 0 .02.016.02.035 0 .02.01.035.024.035.012 0 .023.02.023.044 0 .023.01.05.023.057.012.008.017.024.01.035-.008.012-.003.022.01.022.014 0 .025.015.025.034 0 .018.01.034.02.034s.026.03.033.07c.008.038.024.063.037.055.013-.008.023.01.023.042 0 .03.01.062.02.07.013.006.03.043.037.08.008.037.024.068.036.068.012 0 .022.02.022.045 0 .025.01.046.023.046.012 0 .022.024.022.056 0 .03.01.056.022.056.01 0 .028.04.036.086.01.046.034.1.055.12.022.018.045.08.053.135.007.056.024.105.037.11.014.004.024.042.024.085 0 .043.01.078.022.078.012 0 .03.035.037.08.008.043.024.08.035.08.01 0 .02.035.02.078 0 .044.01.08.02.08.02 0 .058.16.055.22 0 .017.007.03.018.03.012 0 .022.025.022.056 0 .032.01.057.022.057.013 0 .023.026.023.057 0 .03.01.057.02.057s.026.075.034.165c.01.09.026.17.038.173.013.004.023.052.023.108 0 .055.01.1.02.1.013 0 .03.077.038.17.01.094.025.17.036.17.01 0 .02.083.02.182 0 .1.01.182.02.182.05 0 .1 1.238.076 1.942-.007.23-.06.74-.077.74-.01 0-.02.08-.02.18 0 .1-.008.182-.02.182-.01 0-.028.067-.036.148-.01.08-.025.148-.036.148-.01 0-.02.06-.02.136 0 .075-.01.136-.02.136-.02 0-.06.214-.05.27.003.018-.003.038-.013.046-.036.026-.075.116-.075.172 0 .032-.01.057-.02.057s-.027.062-.035.137c-.01.075-.025.136-.037.136-.012 0-.022.026-.022.058s-.01.053-.02.046c-.01-.007-.025.03-.032.083-.007.053-.024.1-.037.104-.015.005-.026.033-.026.063s-.01.06-.02.066c-.013.007-.03.058-.038.114s-.024.102-.035.102c-.01 0-.02.018-.02.04 0 .022-.016.06-.034.084-.018.024-.033.067-.033.096 0 .03-.01.053-.023.053s-.023.02-.023.044c0 .025-.01.045-.022.045-.013 0-.023.025-.023.056 0 .03-.01.057-.022.057-.012 0-.028.036-.036.08-.01.043-.024.073-.036.066-.01-.008-.02.008-.02.033 0 .026-.01.047-.02.047-.013 0-.03.036-.038.08-.008.043-.024.08-.035.08-.01 0-.02.015-.02.033 0 .02-.01.034-.02.034-.012 0-.027.036-.036.08-.01.044-.025.08-.037.08-.012 0-.022.015-.022.033 0 .02-.01.034-.022.034-.012 0-.022.02-.022.047 0 .026-.016.053-.034.06-.02.007-.035.032-.035.056s-.01.043-.022.043c-.013 0-.023.014-.023.033 0 .02-.01.034-.02.034-.027 0-.07.128-.052.15.008.01.004.01-.01.002-.016-.01-.042.016-.064.063-.02.044-.048.08-.06.08-.01 0-.02.02-.02.045 0 .025-.01.045-.023.045s-.03.026-.037.057c-.008.03-.022.057-.03.057-.01 0-.037.038-.06.085-.025.047-.072.112-.106.145-.034.032-.057.064-.05.07.005.006-.02.043-.058.082-.037.038-.074.095-.082.127-.008.032-.03.058-.05.058-.02 0-.028.006-.02.015.008.008-.02.048-.065.09-.043.04-.08.088-.08.106 0 .018-.024.05-.056.075-.032.024-.057.054-.057.067 0 .013-.026.05-.057.08-.184.18-.24.246-.24.282 0 .018-.007.034-.018.034-.015 0-.106.088-.492.477-.172.175-.375.365-.388.365-.01 0-.08.066-.16.148-.078.08-.153.147-.166.147-.014 0-.056.03-.095.068-.04.037-.09.073-.112.08-.023.008-.048.033-.056.057-.008.023-.034.05-.06.057-.023.008-.043.023-.043.035 0 .012-.015.02-.034.02-.02 0-.034.01-.034.022 0 .01-.024.028-.052.037-.028.01-.068.035-.088.058-.02.023-.048.042-.062.042-.014 0-.055.03-.09.068-.037.038-.083.07-.103.07-.02 0-.038.01-.038.02 0 .014-.01.024-.025.024-.015 0-.043.017-.063.04-.02.02-.076.056-.123.078s-.085.05-.085.06c0 .01-.026.027-.057.035-.03.008-.057.024-.057.036 0 .012-.02.022-.045.022-.025 0-.045.01-.045.02s-.026.026-.057.034c-.03.008-.056.025-.056.037 0 .012-.015.022-.034.022-.02 0-.034.01-.034.023 0 .012-.02.023-.044.023-.025 0-.05.01-.06.024-.006.012-.022.017-.034.01-.012-.008-.02-.003-.02.01 0 .014-.017.025-.035.025-.02 0-.034.01-.034.02 0 .014-.022.024-.047.024s-.045.01-.045.022c0 .012-.036.028-.08.036-.043.01-.08.025-.08.036 0 .01-.015.02-.033.02-.02 0-.034.01-.034.022 0 .013-.012.024-.028.024-.05 0-.2.08-.184.097.01.01-.006.017-.032.017-.026 0-.096.025-.157.055-.06.03-.14.062-.173.07-.035.01-.068.025-.075.036-.007.01-.038.02-.068.02-.03 0-.056.01-.056.023 0 .014-.014.024-.032.024-.018 0-.036.01-.04.02-.004.01-.053.027-.108.034-.056.008-.107.022-.114.03-.027.037-.112.072-.214.087-.058.01-.105.025-.105.036 0 .012-.03.02-.068.02-.038 0-.068.01-.068.02 0 .012-.045.026-.097.033-.053.008-.1.024-.105.037-.004.014-.058.025-.12.025-.06 0-.11.01-.11.02 0 .02-.197.06-.28.055-.02 0-.04.008-.04.02 0 .01-.035.018-.08.018-.042 0-.078.01-.078.023s-.03.024-.068.024c-.038 0-.068.01-.068.02s-.102.026-.227.035c-.125.008-.233.025-.24.036-.007.012-.092.02-.19.02-.096 0-.185.01-.197.024-.058.058-1.902.06-1.972.002-.014-.012-.102-.024-.196-.027-.093-.002-.176-.014-.183-.024-.008-.01-.112-.025-.233-.033-.12-.008-.214-.023-.207-.034.006-.01-.025-.02-.07-.02-.044 0-.08-.01-.08-.022 0-.012-.035-.022-.078-.022s-.084-.01-.09-.02c-.007-.01-.06-.025-.12-.03-.06-.008-.112-.025-.116-.038-.005-.014-.045-.025-.09-.025-.083 0-.307-.068-.32-.097-.004-.01-.037-.017-.074-.017-.036 0-.066-.008-.066-.02s-.056-.028-.125-.037c-.068-.008-.124-.024-.124-.035 0-.01-.02-.02-.045-.02-.024 0-.045-.01-.045-.022 0-.012-.046-.028-.102-.036-.056-.01-.102-.025-.102-.036 0-.01-.025-.02-.056-.02-.03 0-.057-.01-.057-.023 0-.01-.025-.02-.057-.02-.03 0-.056-.01-.056-.023 0-.012-.036-.03-.08-.037-.044-.008-.086-.024-.092-.035-.007-.01-.028-.02-.047-.02-.02 0-.05-.015-.07-.034-.017-.018-.057-.033-.088-.033-.03 0-.055-.01-.055-.023 0-.012-.015-.023-.034-.023-.02 0-.034-.008-.034-.02 0-.01-.04-.027-.09-.035-.05-.01-.092-.025-.092-.037 0-.01-.02-.02-.045-.02-.025 0-.046-.01-.046-.02 0-.013-.03-.03-.067-.037-.037-.007-.068-.023-.068-.035 0-.01-.02-.02-.045-.02-.025 0-.046-.01-.046-.024 0-.01-.015-.02-.034-.02-.02 0-.034-.01-.034-.024 0-.012-.02-.023-.046-.023s-.052-.015-.06-.034c-.007-.02-.032-.035-.055-.035-.024 0-.044-.01-.044-.02 0-.012-.03-.028-.067-.037-.037-.008-.068-.024-.068-.036 0-.01-.02-.02-.043-.02-.024 0-.048-.012-.053-.027-.01-.032-.276-.028-.287.005-.004.012-.037.022-.073.022-.035 0-.07.008-.077.02-.007.01-.074.026-.15.035-.074.008-.136.025-.136.037 0 .01-.025.02-.056.02-.03 0-.056.01-.056.02 0 .012-.067.028-.148.037-.08.01-.143.024-.138.033.006.01-.027.02-.073.022-.046.003-.088.016-.092.027-.004.012-.03.022-.06.022s-.057.01-.06.023c-.005.013-.078.03-.162.038-.083.007-.152.023-.152.033 0 .01-.026.02-.057.02-.03 0-.056.01-.056.02s-.066.027-.147.036c-.082.008-.148.025-.148.036 0 .012-.02.02-.046.02-.025 0-.046.01-.046.02 0 .012-.063.027-.14.035-.078.008-.152.025-.164.037-.013.013-.052.023-.087.023-.035 0-.063.01-.063.02s-.062.026-.137.035c-.074.008-.136.025-.136.037 0 .012-.035.022-.078.022-.044 0-.08.01-.08.02 0 .014-.025.024-.057.024-.03 0-.056.01-.056.02s-.073.027-.16.035c-.088.008-.16.022-.16.03 0 .028-.12.068-.237.08-.062.006-.117.022-.12.036-.006.014-.05.025-.097.025-.05 0-.094.01-.1.022-.008.01-.064.027-.127.036-.063.01-.115.025-.115.036 0 .01-.04.02-.09.02-.05 0-.09.01-.09.02s-.053.027-.117.036c-.063.008-.132.024-.153.034-.02.01-.08.033-.134.048-.053.016-.096.038-.096.048 0 .01-.02.02-.045.02-.032 0-.047-.016-.047-.046 0-.025.01-.046.022-.046.012 0 .03-.05.037-.113.008-.063.024-.114.035-.114.01 0 .02-.034.02-.076 0-.043.01-.082.022-.086.012-.004.028-.07.037-.15.008-.077.023-.14.034-.14.012 0 .02-.027.02-.058 0-.03.01-.057.02-.057.012 0 .028-.06.037-.136.01-.075.025-.136.036-.136.012 0 .02-.03.02-.07 0-.04.01-.063.024-.054.013.008.022-.027.022-.09 0-.057.008-.103.02-.103.01 0 .027-.047.035-.103.008-.057.025-.097.037-.09.012.008.02-.03.02-.088 0-.056.01-.105.023-.11.013-.004.03-.07.038-.15.008-.077.023-.14.034-.14.01 0 .02-.026.02-.056 0-.03.01-.058.024-.063.014-.004.03-.072.038-.15.007-.077.022-.14.032-.14.01 0 .02-.02.02-.046 0-.025.01-.046.02-.046s.027-.07.035-.158c.01-.087.026-.16.037-.16.012 0 .022-.024.022-.054s.01-.062.022-.07c.013-.007.023-.043.023-.08 0-.034.01-.067.02-.07.013-.005.03-.07.038-.145.01-.075.022-.14.03-.148.023-.02.066-.165.083-.278.01-.06.025-.108.036-.108.01 0 .02-.026.02-.056 0-.03.01-.06.02-.068.01-.007.025-.066.03-.13.007-.066.024-.124.038-.128.014-.005.026-.033.026-.064 0-.03.013-.055.028-.055.02 0 .02-.006-.002-.02-.02-.013-.022-.026-.01-.034.014-.008.03-.07.04-.14.008-.068.025-.125.036-.125.05 0 .023-.292-.035-.385-.032-.05-.057-.1-.057-.113 0-.013-.01-.023-.02-.023-.013 0-.03-.032-.037-.07-.008-.037-.024-.067-.036-.067-.01 0-.02-.016-.02-.034 0-.02-.01-.036-.022-.036-.012 0-.03-.035-.037-.08-.008-.043-.024-.08-.035-.08-.01 0-.02-.014-.02-.033 0-.017-.01-.033-.022-.033-.01 0-.027-.035-.036-.08-.008-.043-.024-.08-.035-.08-.012 0-.02-.014-.02-.033 0-.02-.01-.034-.024-.034-.012 0-.022-.02-.022-.045 0-.025-.01-.046-.023-.046-.01 0-.028-.042-.036-.092-.008-.05-.023-.09-.034-.09-.01 0-.02-.016-.02-.035 0-.018-.01-.034-.023-.034-.012 0-.022-.025-.022-.056 0-.03-.016-.07-.034-.09-.018-.018-.034-.054-.034-.08 0-.026-.01-.047-.022-.047-.013 0-.023-.023-.023-.05 0-.03-.015-.082-.033-.118-.02-.036-.034-.085-.034-.108 0-.024-.01-.043-.024-.043s-.02-.01-.012-.022c.007-.012.003-.028-.01-.036-.013-.008-.023-.04-.023-.07 0-.03-.01-.055-.023-.055-.012 0-.023-.017-.023-.038 0-.053-.05-.19-.07-.19-.01 0-.023-.06-.03-.136-.01-.075-.026-.137-.038-.137s-.022-.02-.022-.045c0-.025-.01-.046-.02-.046s-.024-.067-.03-.15c-.008-.082-.024-.16-.038-.174-.014-.014-.025-.064-.025-.112 0-.047-.01-.086-.02-.086-.012 0-.028-.072-.037-.16-.01-.087-.025-.158-.036-.158-.012 0-.02-.05-.02-.114 0-.062-.01-.113-.02-.113-.02 0-.06-.34-.06-.518 0-.053-.007-.097-.017-.097-.01 0-.017-.07-.017-.16s-.01-.158-.023-.158c-.014 0-.023-.11-.023-.284s-.01-.284-.023-.284c-.01 0-.02-.06-.02-.137 0-.076.01-.136.02-.136.015 0 .024-.117.024-.307s.01-.306.023-.306S1 10.357 1 10.25c0-.132.007-.178.026-.166.016.01.02.006.01-.01-.022-.035.033-.572.058-.572.01 0 .02-.066.02-.146 0-.08.01-.152.02-.16.012-.007.028-.07.037-.137.01-.07.026-.132.037-.14.01-.006.02-.05.02-.1 0-.048.01-.093.02-.1.012-.008.03-.082.038-.166.01-.085.022-.16.03-.165.038-.032.075-.13.086-.23.01-.06.024-.112.034-.112.01 0 .02-.025.02-.056 0-.032.01-.057.023-.057.012 0 .022-.036.022-.08 0-.044.01-.08.02-.08.013 0 .03-.035.038-.08.008-.043.024-.078.035-.078.01 0 .02-.032.02-.07 0-.038.015-.085.034-.104.02-.02.034-.06.034-.09 0-.032.01-.05.024-.043.013.008.022-.015.022-.055s.01-.07.022-.07c.012 0 .03-.038.038-.084.008-.045.034-.103.057-.128.024-.025.042-.063.042-.085 0-.022.01-.046.024-.054.01-.008.016-.024.01-.036-.01-.01-.006-.02.005-.02.01 0 .034-.037.05-.08.018-.044.04-.08.05-.08.01 0 .024-.036.032-.08.008-.043.024-.08.035-.08.012 0 .02-.014.02-.033 0-.02.01-.034.022-.034.01 0 .028-.032.036-.072.01-.04.036-.093.06-.12.024-.024.05-.07.056-.097.007-.028.022-.05.034-.05.01 0 .02-.02.02-.044 0-.023.015-.05.034-.056.02-.007.034-.034.034-.06 0-.024.01-.045.023-.045s.023-.013.023-.03c0-.015.02-.043.045-.06.024-.018.04-.04.034-.047-.005-.008.01-.037.036-.063.024-.027.044-.06.044-.072 0-.013.01-.024.023-.024s.023-.02.023-.043c0-.023.025-.06.055-.084.03-.023.062-.065.07-.094.006-.03.022-.053.034-.053.013 0 .023-.016.023-.035 0-.02.025-.06.056-.088.032-.03.057-.064.057-.078 0-.014.02-.04.046-.054.024-.016.044-.04.044-.054 0-.014.03-.06.068-.103.037-.042.068-.085.068-.094 0-.01.046-.062.103-.117.056-.054.102-.106.102-.115 0-.01.036-.05.08-.092.043-.04.08-.087.08-.1 0-.04.902-.938.925-.923.01.006.034-.01.052-.036.018-.026.046-.058.062-.072l.06-.054c.018-.015.04-.028.046-.028.008 0 .066-.05.13-.113.064-.064.13-.115.147-.115.017 0 .03-.01.03-.02 0-.013.022-.03.048-.037.046-.015.12-.073.246-.195.035-.032.092-.066.127-.075.036-.01.084-.04.108-.072.024-.03.063-.055.086-.055.024 0 .05-.02.058-.044.008-.025.034-.046.058-.046s.044-.01.044-.02.026-.027.057-.035c.03-.008.057-.024.057-.036 0-.014.015-.024.034-.024.018 0 .034-.01.034-.02 0-.012.023-.03.05-.038.03-.01.07-.035.09-.058.02-.024.048-.043.063-.043.03 0 .163-.068.183-.093.006-.008.045-.022.085-.03.04-.01.074-.026.074-.037 0-.012.01-.02.026-.02.014 0 .044-.023.066-.05.023-.026.08-.05.133-.058.05-.008.092-.023.092-.034 0-.01.015-.02.034-.02.018 0 .033-.01.033-.02 0-.012.032-.028.072-.037.04-.01.093-.036.118-.06.025-.023.07-.042.097-.042.028 0 .066-.015.084-.034.02-.018.065-.036.102-.04.038 0 .065-.01.06-.02-.012-.02.046-.043.105-.043.025 0 .045-.01.045-.02 0-.014.03-.024.068-.024.037 0 .068-.01.068-.023 0-.012.016-.022.035-.022.02 0 .034-.01.034-.02 0-.013.05-.03.113-.038.062-.01.113-.024.113-.035 0-.01.016-.02.034-.02.02 0 .034-.01.034-.023 0-.012.03-.022.07-.022.037 0 .105-.016.15-.035.045-.018.105-.034.134-.034.03 0 .058-.01.065-.02.007-.012.064-.028.127-.036.062-.01.113-.025.113-.037 0-.01.046-.02.102-.02.057 0 .103-.008.103-.018 0-.022.313-.08.34-.062.01.007.026.002.034-.01.008-.013.044-.024.08-.024.038 0 .068-.01.068-.022 0-.013.036-.023.08-.023.043 0 .08-.008.08-.02 0-.01.124-.025.277-.034.153-.008.288-.025.3-.037.012-.013.158-.023.324-.023.187 0 .303-.01.303-.023 0-.014.19-.022.52-.022.324 0 .528.008.536.022m-1.48 1.09c-.01.012-.15.03-.31.038s-.296.024-.303.035c-.006.01-.046.02-.088.02-.043 0-.08.01-.085.022-.004.01-.092.028-.195.036-.103.008-.187.023-.187.034 0 .01-.026.02-.057.02-.03 0-.057.008-.057.02 0 .01-.075.025-.165.034-.09.008-.17.025-.173.037-.004.013-.022.023-.04.023-.017 0-.032.01-.032.023 0 .012-.046.022-.102.022-.056 0-.102.01-.102.022 0 .012-.038.028-.085.036-.1.017-.21.06-.21.082 0 .01-.043.022-.096.03-.105.017-.22.06-.22.083 0 .01-.042.022-.092.03-.05.008-.09.024-.09.037 0 .012-.022.022-.047.022s-.045.008-.045.02c0 .01-.04.025-.09.033-.05.008-.092.023-.092.033 0 .01-.036.032-.08.05-.043.017-.08.04-.08.05 0 .01-.01.018-.02.018-.04 0-.206.077-.206.095 0 .008-.036.022-.08.03-.043.008-.08.024-.08.035 0 .01-.014.02-.033.02-.02 0-.035.01-.035.023 0 .012-.026.028-.057.036-.03.008-.057.023-.057.035 0 .01-.02.02-.044.02-.025 0-.046.008-.046.02 0 .01-.025.026-.056.034-.032.007-.057.024-.057.036 0 .012-.015.022-.034.022-.02 0-.034.01-.034.023s-.014.023-.03.023-.056.025-.09.057c-.033.03-.072.056-.085.056-.013 0-.023.012-.023.024 0 .013-.02.023-.045.023-.024 0-.068.023-.096.05-.028.03-.077.064-.108.078-.058.026-.117.072-.264.207-.045.04-.09.074-.103.074-.012 0-.047.025-.078.057-.032.03-.067.056-.08.056-.01 0-.06.038-.11.085-.047.046-.128.122-.178.168-.052.046-.087.09-.08.096.006.005-.015.017-.048.025-.032.008-.064.034-.072.057-.007.023-.032.048-.056.056-.024.007-.05.033-.057.057-.007.023-.033.05-.058.057-.025.007-.045.023-.045.034 0 .01-.025.043-.056.072l-.086.08c-.016.017-.043.043-.06.058l-.056.058-.09.093c-.034.035-.062.077-.062.093 0 .017-.006.024-.014.016-.02-.02-.067.032-.086.092-.01.026-.035.055-.06.062-.023.008-.048.032-.055.055-.006.023-.043.074-.08.113-.037.038-.067.08-.067.093 0 .013-.03.053-.068.09-.038.035-.07.08-.07.1 0 .02-.02.042-.044.05-.024.008-.045.03-.045.048 0 .018-.023.056-.052.084-.03.027-.07.085-.09.13-.05.097-.087.158-.124.2-.017.016-.03.04-.03.054 0 .013-.018.04-.04.06-.02.02-.06.076-.083.122-.023.047-.052.086-.062.086-.01 0-.02.02-.02.045 0 .024-.008.044-.02.044-.01 0-.026.026-.034.057-.007.032-.023.058-.036.058-.012 0-.022.024-.022.054s-.015.06-.034.068c-.02.007-.034.04-.034.07 0 .032-.008.058-.02.058-.023 0-.094.15-.094.2 0 .022-.02.054-.044.072-.024.017-.05.07-.058.118-.01.048-.024.087-.036.087-.01 0-.02.015-.02.034 0 .018-.01.033-.023.033-.014 0-.024.026-.024.057 0 .03-.01.057-.02.057-.012 0-.03.043-.038.096-.008.053-.022.102-.03.108-.033.027-.07.12-.085.205-.008.05-.024.09-.034.09-.012 0-.02.022-.02.047s-.01.045-.02.045c-.012 0-.028.062-.036.137-.01.077-.025.13-.037.124-.012-.008-.022.018-.022.056 0 .038-.01.07-.02.07-.015 0-.044.142-.053.266-.002.016-.01.03-.02.03-.012 0-.02.045-.02.1 0 .057-.01.103-.023.103-.014 0-.024.03-.024.064 0 .035-.01.073-.022.086-.012.012-.03.11-.037.22-.01.11-.024.198-.035.198-.01 0-.02.047-.02.103 0 .057-.008.103-.02.103-.01 0-.027.214-.036.477-.01.262-.026.477-.037.477-.012 0-.02.163-.02.363 0 .2.008.364.02.364.01 0 .027.21.036.466.01.256.026.47.037.478.01.008.02.05.02.092 0 .043.008.078.02.078.01 0 .025.1.033.22.008.123.025.226.037.23.013.004.023.033.023.063s.01.055.023.055c.01 0 .022.05.022.113 0 .064.01.115.02.115.013 0 .03.07.038.16.01.086.025.158.035.158.01 0 .02.025.02.057 0 .03.01.056.02.056.012 0 .028.052.037.114.01.062.025.114.036.114.01 0 .02.025.02.056 0 .032.01.057.02.057s.026.054.034.12c.008.065.024.122.037.126.012.004.022.027.022.05 0 .023.01.05.023.056.013.007.023.037.023.066 0 .03.015.065.034.08.02.016.034.054.034.083 0 .03.01.053.023.053.01 0 .02.026.02.057 0 .03.01.057.022.057.012 0 .028.03.036.068.008.037.025.068.036.068.012 0 .02.026.02.057 0 .03.01.057.024.057.012 0 .022.018.022.04 0 .022.026.078.057.124.03.047.057.1.057.118 0 .02.01.04.023.048s.017.024.01.036c-.007.01-.005.02.006.02.01 0 .036.04.058.086.04.085.087.166.11.187.005.007.03.053.055.103.025.05.053.094.063.098.01.004.017.022.017.04 0 .018.01.032.022.032.013 0 .023.015.023.033 0 .02.026.06.057.09.03.032.057.065.057.074 0 .01.015.033.033.053.03.032.03.048 0 .127-.017.05-.032.118-.032.152 0 .035-.01.063-.024.063-.01 0-.022.03-.022.067 0 .037-.01.068-.02.068s-.028.06-.036.136c-.01.08-.027.138-.042.138-.015 0-.01.01.007.022.02.012.024.023.012.023-.038 0-.08.116-.096.256-.008.07-.023.13-.033.13-.01 0-.02.02-.02.046s-.01.04-.022.033c-.013-.01-.022.025-.022.09 0 .057-.01.1-.02.092-.012-.007-.028.044-.036.112-.01.07-.025.125-.037.125-.01 0-.02.04-.02.088 0 .05-.012.092-.025.097-.013.004-.03.066-.037.138-.006.072-.02.13-.032.13-.01 0-.02.025-.02.055s-.01.06-.023.063c-.013.005-.03.068-.038.14-.007.07-.022.13-.032.13-.01 0-.02.024-.02.055 0 .03-.01.06-.02.068-.01.006-.025.065-.03.13-.007.066-.024.123-.038.128-.014.006-.026.034-.026.064s-.01.055-.02.055c-.014 0-.024.044-.024.1 0 .055-.01.104-.026.108-.014.005-.03.062-.037.128-.006.065-.02.124-.03.13-.012.007-.02.033-.02.058 0 .048.272.042.29-.006.005-.01.028-.02.052-.02.024 0 .062-.01.084-.02.02-.013.097-.03.17-.036.07-.008.13-.022.13-.03 0-.01.027-.02.06-.022.034-.003.067-.013.074-.024.007-.01.08-.026.16-.034.082-.008.152-.025.156-.038.004-.012.053-.022.108-.022s.1-.01.1-.023.025-.024.055-.024.058-.01.063-.023c.004-.012.076-.03.16-.037.085-.008.154-.023.154-.034 0-.01.024-.02.055-.02.03 0 .058-.008.062-.02.004-.01.065-.024.135-.03.07-.007.15-.024.175-.038.026-.013.068-.025.094-.025.026 0 .048-.01.048-.02s.07-.027.16-.036c.086-.01.158-.025.158-.037 0-.012.04-.02.09-.02.05 0 .09-.01.09-.022 0-.012.06-.028.132-.036.072-.008.148-.024.17-.036.022-.012.06-.022.085-.022.025 0 .046-.01.046-.023s.024-.023.054-.023.058-.01.062-.022c.012-.034.32-.04.332-.006.005.014.02.027.03.027.013 0 .035.01.05.023.07.057.203.136.233.136.02 0 .034.01.034.022 0 .012.026.03.057.036.032.008.058.024.058.035 0 .01.02.02.043.02.024 0 .05.012.055.028.006.016.04.03.076.034.037.003.07.016.074.028.004.013.022.023.04.023.017 0 .032.01.032.022 0 .01.035.028.08.036.043.01.08.025.08.036 0 .01.014.02.033.02.018 0 .033.008.033.018 0 .018.166.096.204.096.013 0 .023.01.023.023 0 .012.02.022.045.022.025 0 .046.01.046.023 0 .012.042.03.092.037.05.008.09.023.09.034 0 .01.016.02.035.02.018 0 .034.008.034.02 0 .01.057.026.126.035.068.008.125.022.125.03 0 .01.034.03.074.046.04.018.093.04.116.053.023.013.092.03.153.036.062.006.112.02.112.032 0 .01.026.02.057.02.03 0 .057.01.057.02 0 .023.08.045.197.052.04.003.074.013.074.023s.027.018.058.018c.03 0 .057.01.057.02s.074.026.164.034c.09.008.168.025.172.037.004.012.047.022.096.022.05 0 .09.007.09.018 0 .01.094.027.21.035.115.01.22.026.23.038.013.013.123.022.245.022.133 0 .223.01.223.023 0 .014.09.023.226.023.126 0 .232.01.24.022.018.03.572.03.59 0 .008-.012.122-.022.263-.022.15 0 .248-.01.248-.023 0-.014.098-.023.248-.023.143 0 .252-.01.257-.022.004-.012.112-.03.24-.037.128-.01.233-.024.233-.035 0-.01.03-.02.066-.02.037 0 .07-.01.074-.022.007-.02.172-.042.333-.044.03 0 .046-.012.038-.024-.007-.013.016-.023.057-.023.038 0 .07-.01.07-.02s.055-.027.124-.036c.07-.01.13-.026.138-.037.008-.012.038-.02.07-.02.03 0 .054-.01.054-.02 0-.012.05-.026.107-.033.058-.007.11-.023.115-.037.004-.014.03-.025.06-.025.055 0 .17-.048.17-.072.002-.01.048-.023.104-.03.055-.01.1-.026.1-.037 0-.012.027-.02.058-.02.03 0 .057-.01.057-.023 0-.012.038-.03.085-.037.047-.01.102-.035.123-.06.027-.03.04-.034.05-.013.008.023.01.023.012 0 0-.014.016-.027.034-.027.016 0 .043-.015.058-.034.016-.02.053-.034.082-.034.03 0 .054-.01.054-.024 0-.013.01-.018.023-.01.013.008.03 0 .036-.02.007-.018.048-.04.09-.047.044-.007.08-.024.08-.035 0-.012.014-.022.033-.022.018 0 .034-.01.034-.023 0-.012.018-.023.04-.023.023 0 .054-.012.07-.027.014-.015.026-.018.026-.008 0 .01.02-.004.045-.033.026-.03.047-.046.047-.038 0 .01.024 0 .053-.02.03-.018.06-.027.068-.02.008.01.015.005.015-.01 0-.014.016-.026.034-.026.02 0 .034-.01.034-.023 0-.012.027-.028.058-.036.03-.008.057-.024.057-.035 0-.01.013-.02.03-.02.015 0 .043-.02.06-.045.02-.025.052-.046.075-.046.022 0 .047-.014.054-.033.007-.02.028-.034.046-.034s.056-.026.085-.057c.03-.03.064-.057.08-.057.013 0 .024-.01.024-.023s.018-.023.04-.023c.024 0 .066-.026.096-.057.03-.03.062-.057.072-.057.01 0 .053-.034.094-.076.04-.042.096-.084.124-.092.028-.01.05-.026.05-.037 0-.012.012-.022.026-.022.014 0 .09-.064.17-.142.17-.164.206-.197.225-.197.022 0 .738-.724.738-.746 0-.012.066-.088.148-.17.08-.082.147-.156.147-.163 0-.008.026-.04.057-.07.03-.032.057-.068.057-.08 0-.014.036-.06.08-.102.043-.042.08-.092.08-.11 0-.017.014-.037.033-.044.02-.007.034-.033.034-.058s.02-.05.046-.06c.025-.007.046-.032.046-.056 0-.023.024-.06.052-.083.03-.022.072-.084.096-.137.023-.053.05-.097.06-.097.01 0 .02-.015.02-.034 0-.02.008-.034.02-.034s.028-.023.037-.05c.01-.03.022-.057.03-.064.023-.018.07-.098.086-.14.007-.023.022-.04.033-.04.01 0 .02-.022.02-.047s.01-.045.02-.045c.012 0 .03-.033.038-.074.01-.04.035-.087.06-.103.022-.017.04-.045.04-.063 0-.018.01-.033.023-.033.012 0 .028-.036.036-.08.01-.044.024-.074.036-.067.01.007.02-.008.02-.034 0-.027.01-.048.02-.048.013 0 .03-.04.038-.09.008-.05.024-.092.035-.092.01 0 .02-.02.02-.045 0-.025.008-.045.02-.045.01 0 .024-.035.03-.078.008-.042.03-.097.053-.122.042-.05.123-.264.123-.328 0-.022.01-.04.022-.04.013 0 .023-.02.023-.046 0-.025.01-.045.02-.045.013 0 .03-.055.038-.124.008-.07.024-.125.035-.125.01 0 .02-.02.02-.043 0-.024.01-.047.023-.05.014-.005.028-.064.034-.133.006-.068.02-.128.034-.132.013-.005.024-.033.024-.063s.01-.056.023-.056c.012 0 .02-.008.018-.017-.002-.01.004-.08.015-.154.01-.075.018-.144.016-.153-.002-.01.006-.017.02-.017.01 0 .022-.05.022-.114 0-.063.01-.114.022-.114.013 0 .023-.035.023-.078 0-.042.012-.08.025-.085.015-.005.03-.117.038-.275.007-.146.022-.266.032-.266.01 0 .02-.05.02-.114 0-.062.008-.113.02-.113.023 0 .02.08.024-.938 0-.568-.007-.895-.022-.924-.013-.024-.023-.095-.023-.16 0-.062-.01-.114-.02-.114s-.025-.115-.032-.254c-.008-.14-.025-.264-.038-.277-.013-.014-.024-.048-.024-.076 0-.028-.01-.057-.022-.065-.012-.01-.022-.06-.022-.116 0-.055-.01-.1-.02-.1-.013 0-.03-.083-.04-.182-.007-.1-.023-.182-.034-.182-.01 0-.02-.016-.02-.034 0-.02-.01-.034-.02-.034-.012 0-.028-.062-.037-.137-.008-.075-.025-.136-.036-.136-.012 0-.022-.027-.022-.058 0-.03-.008-.057-.02-.057-.01 0-.026-.05-.034-.113-.008-.063-.025-.114-.037-.114-.012 0-.022-.02-.022-.045 0-.025-.01-.046-.02-.046s-.026-.05-.035-.113c-.008-.063-.025-.114-.037-.114-.012 0-.022-.013-.022-.03 0-.04-.052-.15-.07-.15-.01 0-.023-.035-.03-.075-.018-.09-.06-.178-.08-.166-.007.004-.015-.01-.017-.034-.005-.072-.09-.237-.104-.202-.008.017-.014 0-.015-.04 0-.04-.014-.086-.03-.103-.016-.015-.06-.09-.097-.165-.037-.075-.076-.14-.085-.144-.01-.003-.017-.02-.017-.04 0-.016-.01-.03-.022-.03-.012 0-.03-.027-.037-.058-.008-.03-.023-.057-.034-.057-.01 0-.02-.02-.02-.043 0-.023-.016-.05-.036-.056-.02-.008-.03-.023-.023-.035.008-.01-.002-.035-.02-.054-.02-.02-.035-.045-.035-.06 0-.012-.01-.023-.022-.023-.012 0-.028-.022-.037-.048-.007-.027-.043-.08-.08-.117-.035-.037-.07-.09-.08-.116-.008-.027-.034-.065-.057-.085-.023-.02-.042-.05-.042-.063 0-.014-.01-.025-.026-.025-.014 0-.02-.008-.013-.015.01-.007-.02-.05-.063-.095-.043-.046-.078-.09-.078-.1 0-.023-.032-.06-.205-.242-.075-.08-.137-.152-.137-.164 0-.028-.832-.862-.86-.862-.013 0-.048-.027-.08-.06l-.08-.085c-.13-.128-.16-.15-.19-.15-.02 0-.042-.02-.05-.045-.008-.024-.036-.05-.064-.06-.027-.008-.08-.05-.12-.092-.038-.042-.087-.076-.108-.076-.02 0-.038-.01-.038-.023 0-.01-.016-.02-.035-.02-.02 0-.03-.01-.023-.022.007-.01-.014-.027-.046-.035-.032-.008-.084-.04-.114-.07-.03-.03-.07-.056-.09-.056-.018 0-.032-.01-.032-.023 0-.012-.01-.023-.025-.023-.013 0-.038-.01-.056-.027-.075-.067-.1-.085-.123-.085-.013 0-.024-.01-.024-.023 0-.012-.02-.023-.043-.023-.023 0-.05-.016-.056-.035-.007-.02-.022-.03-.034-.023-.01.008-.036-.002-.055-.02-.018-.02-.045-.035-.058-.035-.013 0-.024-.01-.024-.024 0-.012-.013-.023-.03-.023-.015 0-.065-.025-.11-.055s-.108-.063-.14-.07c-.034-.01-.06-.025-.06-.036 0-.01-.02-.02-.046-.02-.025 0-.046-.01-.046-.02 0-.013-.03-.03-.068-.037-.037-.008-.068-.025-.068-.036 0-.012-.02-.022-.046-.022-.025 0-.045-.01-.045-.023 0-.012-.027-.022-.058-.022-.03 0-.057-.01-.057-.022 0-.01-.035-.027-.08-.036-.043-.008-.08-.024-.08-.035 0-.012-.02-.02-.046-.02-.027 0-.063-.016-.082-.035-.02-.02-.06-.034-.09-.034s-.054-.01-.054-.022c0-.012-.026-.022-.057-.022-.03 0-.057-.01-.057-.02s-.04-.027-.09-.035c-.05-.007-.09-.023-.09-.036 0-.012-.026-.022-.056-.022-.03 0-.06-.01-.063-.02-.003-.01-.052-.027-.11-.034-.055-.008-.104-.025-.108-.037-.005-.01-.043-.022-.086-.022-.042 0-.077-.01-.077-.022 0-.013-.026-.023-.056-.023-.03 0-.058-.01-.063-.023-.003-.013-.075-.03-.16-.038-.084-.007-.153-.023-.153-.033 0-.012-.036-.02-.08-.02-.05 0-.076-.01-.068-.023.008-.014-.022-.023-.075-.023-.14 0-.3-.027-.287-.05.007-.01-.03-.018-.08-.018s-.095-.01-.102-.02c-.006-.01-.142-.026-.3-.034-.16-.01-.3-.026-.313-.038-.014-.013-.382-.022-.956-.022s-.942.01-.956.022m1.726.795c.013.012.087.023.165.023.08 0 .148.008.155.02.007.01.117.025.245.032.13.008.237.025.242.038.004.013.058.023.12.023.06 0 .11.01.11.023 0 .01.036.022.078.022.043 0 .08.01.086.02.004.01.07.027.143.035.074.01.146.025.157.037.012.012.045.02.074.02.03 0 .053.01.053.02 0 .012.054.027.12.034.065.008.122.025.126.038.004.012.027.023.05.023.025 0 .044.008.044.02 0 .01.048.024.107.03.06.007.112.024.117.037.004.014.04.025.076.025.037 0 .083.016.102.035.02.018.06.034.09.034.032 0 .05.01.043.023-.008.013.007.023.033.023.027 0 .048.01.048.023 0 .01.023.022.05.022.03 0 .072.016.096.034.024.02.062.034.085.034.022 0 .04.01.04.022 0 .013.015.023.033.023.018 0 .08.026.14.057.058.03.12.057.137.057.017 0 .03.01.03.02 0 .013.026.03.058.037.03.008.056.024.056.035 0 .01.016.02.035.02.017 0 .033.01.033.023 0 .012.02.023.043.023.025 0 .06.015.078.034.02.018.045.034.06.034.012 0 .023.01.023.022 0 .013.01.023.024.023.015 0 .04.017.06.036.02.018.044.028.055.02.012-.006.028.004.035.023.008.02.032.035.054.035s.047.015.054.034c.007.018.03.033.05.033.02 0 .057.025.082.057.025.03.064.057.09.057.023 0 .042.01.042.022 0 .012.016.022.034.022.02 0 .034.01.034.02 0 .013.023.03.052.038.028.01.08.05.116.093.036.042.075.076.086.076.012 0 .047.025.078.056.03.03.07.057.09.057.018 0 .033.015.033.034 0 .02.018.042.04.05.02.008.08.054.13.1.05.05.098.088.107.088.023 0 .813.794.813.817 0 .01.04.06.09.11.05.05.092.103.092.12 0 .015.006.022.014.014.02-.02.068.032.087.092.01.027.036.055.06.063.024.01.044.033.044.056 0 .022.026.06.057.082.03.023.05.05.044.06-.005.01.01.038.037.063.025.027.046.06.046.08 0 .016.015.036.034.044.02.007.034.027.034.044 0 .018.03.056.066.086.036.03.073.08.083.11.01.033.04.094.07.137.03.045.054.093.054.11 0 .015.01.028.022.028.013 0 .023.02.023.047 0 .025.01.04.022.032.013-.008.03.017.037.056.007.038.022.07.033.07.01 0 .02.014.02.032 0 .017.01.035.024.04.013.004.027.028.032.053.004.025.01.05.012.056.002.006.003.02.002.028-.002.01.007.018.02.018.012 0 .022.015.022.034 0 .018.008.034.018.034.018 0 .096.166.096.206 0 .013.01.017.023.01.013-.01.022.014.022.054 0 .037.01.074.022.08.03.02.092.15.092.198 0 .023.01.042.02.042.012 0 .028.046.037.1.008.057.034.12.058.14.024.022.043.07.043.106 0 .036.01.06.02.054.01-.007.026.038.035.1.008.063.025.114.037.114.012 0 .022.04.022.09 0 .048.01.09.023.095.012.005.03.062.037.127.008.066.023.12.034.12.01 0 .02.04.02.09 0 .052.008.088.02.08.02-.01.047.146.047.275 0 .04.01.076.023.076.012 0 .023.035.023.077 0 .043.008.08.02.086.01.003.027.144.034.313.008.168.025.316.036.328.013.013.022.097.022.188 0 .096.01.166.023.166.014 0 .023.144.023.386 0 .243-.01.387-.023.387s-.023.076-.023.183c0 .1-.01.202-.022.225-.013.023-.03.176-.038.34-.008.163-.024.297-.034.297-.01 0-.02.035-.02.08 0 .043-.008.08-.02.08-.01 0-.024.078-.03.174-.01.097-.025.18-.04.184-.012.004-.023.038-.023.074 0 .037-.01.066-.024.066-.012 0-.02.013-.017.03.01.053-.03.266-.05.266-.012 0-.02.036-.02.08 0 .045-.01.076-.02.07-.012-.008-.028.038-.036.1-.01.064-.023.11-.033.104-.01-.007-.018.02-.018.06 0 .04-.012.076-.027.08-.016.005-.027.034-.027.064s-.01.055-.023.055-.023.024-.023.054-.015.07-.034.09c-.02.018-.034.054-.034.08 0 .024-.01.05-.022.058-.01.007-.027.053-.036.103-.008.05-.024.09-.036.09-.01 0-.02.016-.02.035 0 .02-.01.034-.023.034s-.023.024-.023.053c0 .03-.015.072-.033.096-.02.024-.034.06-.035.076 0 .016-.018.044-.04.06-.022.016-.04.037-.042.047-.01.074-.04.167-.055.167-.01 0-.046.06-.082.13-.036.072-.078.14-.093.15-.016.01-.03.036-.03.06 0 .022-.015.047-.035.055-.02.006-.03.023-.02.035.007.013.003.023-.01.023-.013 0-.03.026-.038.057-.008.03-.024.057-.035.057-.01 0-.02.016-.02.035 0 .02-.023.058-.05.085-.03.028-.068.08-.087.118-.018.038-.056.09-.084.116-.028.027-.05.06-.05.076 0 .015-.01.02-.02.014-.012-.007-.028.013-.035.044-.008.032-.025.057-.037.057-.012 0-.022.015-.022.034 0 .02-.01.035-.02.035-.013 0-.03.023-.038.05-.02.06-.068.112-.087.093-.007-.008-.013-.003-.013.01 0 .016-.04.07-.09.124-.05.054-.09.106-.092.116 0 .01-.05.068-.113.128s-.114.122-.114.138c0 .03-.085.114-.116.114-.01 0-.024.02-.03.044-.01.024-.035.05-.06.058-.022.007-.048.033-.055.057-.008.023-.033.05-.057.056-.024.008-.05.034-.057.058-.008.026-.03.046-.05.046-.02 0-.095.06-.167.136-.073.075-.143.136-.156.136-.012 0-.05.028-.085.063-.034.035-.073.064-.086.064-.014 0-.022.014-.02.03.004.014-.01.026-.03.026-.018 0-.028.01-.02.023.008.012 0 .022-.017.022-.033 0-.122.065-.226.165-.036.034-.075.063-.087.063-.012 0-.022.01-.022.02 0 .012-.023.03-.05.038-.03.01-.08.04-.117.07-.034.03-.078.054-.095.054-.018 0-.033.01-.033.023 0 .012-.015.023-.034.023-.018 0-.034.01-.034.02 0 .013-.023.03-.05.038-.03.01-.07.035-.09.06-.02.022-.047.04-.06.04-.015 0-.027.01-.027.022 0 .01-.033.028-.074.037-.04.01-.09.034-.11.057-.018.022-.062.048-.096.056-.033.01-.06.025-.06.036 0 .01-.02.02-.046.02-.024 0-.045.01-.045.02 0 .012-.03.03-.068.037-.037.008-.068.024-.068.036 0 .01-.02.02-.046.02-.025 0-.046.01-.046.022 0 .013-.01.023-.025.023-.03 0-.187.072-.202.093-.005.01-.064.033-.13.055-.065.02-.113.048-.106.06.007.01-.024.02-.068.02-.045 0-.08.01-.08.022 0 .012-.012.023-.026.023-.014 0-.057.013-.097.03-.066.03-.145.054-.395.13-.053.015-.096.037-.096.048 0 .01-.035.02-.077.02-.043 0-.107.014-.142.033-.036.017-.088.033-.116.033-.03 0-.052.01-.052.023 0 .012-.05.022-.113.022s-.114.01-.114.02c0 .012-.07.028-.16.037-.086.01-.158.025-.158.036 0 .013-.05.022-.11.022-.063 0-.117.01-.12.023-.005.013-.143.03-.326.037-.175.007-.322.022-.326.033-.004.01-.1.02-.21.02-.12 0-.203.01-.203.023 0 .014-.113.023-.295.023s-.295-.008-.295-.022c0-.013-.08-.023-.193-.023-.107 0-.193-.008-.193-.02 0-.01-.126-.024-.28-.032-.16-.008-.28-.024-.285-.038-.005-.013-.048-.023-.096-.023-.05 0-.094-.01-.1-.02-.007-.01-.085-.027-.172-.035-.088-.01-.16-.026-.16-.037 0-.012-.04-.022-.088-.022-.05 0-.118-.015-.153-.034-.036-.018-.094-.034-.128-.034-.035 0-.063-.01-.063-.023 0-.012-.03-.022-.07-.022-.036 0-.067-.01-.067-.023s-.023-.023-.052-.023c-.03 0-.063-.01-.076-.024-.013-.013-.053-.03-.09-.036-.036-.006-.07-.02-.073-.033-.005-.012-.032-.02-.06-.02-.03 0-.083-.017-.118-.035-.036-.02-.083-.034-.103-.034-.022 0-.043-.01-.047-.024-.005-.013-.03-.026-.06-.028-.027-.002-.05-.01-.05-.02s-.035-.024-.08-.032c-.043-.008-.08-.024-.08-.035 0-.012-.024-.022-.055-.022-.032 0-.057-.01-.057-.022 0-.013-.015-.023-.035-.023-.02 0-.03-.01-.02-.023.007-.013.005-.02-.005-.02-.044.013-.164-.03-.176-.062-.007-.02-.023-.028-.036-.02-.012.008-.023.004-.023-.007 0-.01-.035-.028-.08-.036-.043-.008-.08-.022-.08-.03 0-.017-.167-.098-.193-.095-.008 0-.032-.02-.054-.046s-.073-.053-.11-.06c-.042-.01-.078-.033-.085-.058-.008-.024-.034-.043-.058-.043s-.044-.01-.044-.02-.024-.027-.056-.034c-.03-.01-.056-.026-.056-.038s-.016-.022-.034-.022c-.02 0-.034-.01-.034-.023 0-.012-.026-.028-.057-.036-.032-.007-.057-.023-.057-.034 0-.01-.013-.02-.03-.02-.014 0-.055-.025-.09-.057-.058-.056-.22-.083-.22-.038 0 .01-.064.026-.14.034-.136.014-.29.056-.315.085-.005.01-.077.02-.158.03-.08.008-.15.025-.155.037-.005.013-.048.023-.097.023-.05 0-.09.01-.09.02 0 .017-.24.06-.31.055-.016 0-.024.007-.017.018.007.01-.034.02-.092.02-.063 0-.1.01-.09.023.008.013-.015.023-.055.023s-.07.007-.07.018c0 .01-.064.026-.142.034-.078.01-.145.025-.15.038-.004.012-.043.022-.086.022s-.074.01-.067.02c.007.01-.062.025-.152.033s-.167.024-.17.037c-.006.013-.048.024-.096.024-.05 0-.092.012-.097.028-.006.016-.02.02-.03.01-.01-.01-.007-.026.01-.035.014-.01.033-.087.04-.17.01-.084.024-.152.035-.152.01 0 .02-.015.02-.034 0-.02.01-.034.022-.034.012 0 .023-.036.023-.08 0-.044.008-.098.02-.12.034-.07.093-.27.093-.318 0-.026.01-.05.023-.054.013-.004.03-.07.038-.15.008-.078.023-.142.034-.142.01 0 .02-.02.02-.045 0-.024.01-.044.02-.044.013 0 .03-.072.038-.16.01-.087.025-.158.036-.158.01 0 .02-.016.02-.034 0-.02.008-.035.02-.035.01 0 .024-.07.032-.152.008-.084.022-.158.032-.165.04-.03.074-.12.074-.193 0-.042.012-.08.027-.086.04-.013.04-.318.003-.33-.016-.005-.03-.022-.03-.037s-.02-.042-.044-.06c-.026-.018-.053-.066-.06-.106-.01-.044-.03-.078-.057-.087-.024-.007-.043-.033-.043-.058 0-.024-.016-.05-.034-.058-.02-.007-.034-.032-.034-.056 0-.022-.01-.042-.02-.042-.012 0-.027-.025-.035-.056-.008-.032-.024-.057-.037-.057-.012 0-.022-.016-.022-.034 0-.018-.01-.033-.023-.033-.012 0-.022-.02-.022-.043 0-.024-.016-.05-.034-.056-.02-.008-.035-.04-.035-.072 0-.034-.01-.053-.023-.045s-.023 0-.023-.02-.01-.036-.023-.036c-.012 0-.028-.036-.036-.08-.007-.043-.023-.08-.034-.08-.01 0-.02-.014-.02-.033 0-.018-.01-.033-.02-.033-.012 0-.028-.036-.036-.08-.008-.043-.024-.08-.036-.08-.012 0-.022-.015-.022-.033 0-.02-.01-.034-.023-.034s-.024-.018-.024-.04c0-.022-.015-.07-.034-.105-.018-.036-.034-.08-.034-.096 0-.02-.01-.033-.02-.033-.02 0-.057-.158-.048-.194.002-.008-.018-.032-.044-.055-.026-.022-.047-.06-.047-.086 0-.025-.016-.075-.035-.11-.018-.037-.034-.084-.034-.106 0-.022-.01-.04-.022-.04-.012 0-.022-.04-.022-.09 0-.05-.01-.09-.02-.09-.022 0-.06-.17-.052-.22.003-.016-.006-.034-.02-.042-.01-.008-.022-.04-.022-.068 0-.03-.01-.057-.023-.06-.014-.006-.03-.078-.038-.163s-.023-.16-.034-.166c-.01-.007-.02-.037-.02-.067 0-.03-.01-.056-.022-.056-.013 0-.023-.063-.023-.144 0-.08-.007-.15-.016-.16-.01-.01-.013-.056-.01-.106.004-.053-.003-.09-.018-.09-.016 0-.025-.057-.025-.15 0-.092-.008-.142-.023-.134-.03.02-.03-1.81-.002-1.84.012-.013.024-.068.028-.125.003-.056.014-.107.023-.114.01-.006.026-.11.034-.232.01-.12.025-.22.035-.22.01 0 .02-.03.02-.07 0-.036.008-.085.02-.107.012-.02.028-.097.036-.17.008-.07.023-.13.035-.13.013 0 .022-.035.022-.078s.01-.084.02-.09c.012-.008.028-.064.037-.127.008-.062.024-.113.035-.113.01 0 .02-.03.02-.068 0-.038.01-.07.02-.07.013 0 .03-.04.038-.09.008-.05.024-.09.036-.09.01 0 .02-.026.02-.057 0-.03.01-.057.022-.057.013 0 .023-.026.023-.057 0-.03.01-.057.02-.057s.026-.04.034-.09c.007-.05.024-.09.036-.09.012 0 .022-.022.022-.047 0-.026.01-.046.02-.046.012 0 .027-.036.036-.08.008-.044.025-.074.036-.067.012.007.022-.012.022-.043 0-.057.065-.2.096-.215.01-.005.018-.028.018-.052 0-.024.01-.044.02-.044.013 0 .03-.035.038-.08.01-.047.03-.083.057-.09.025-.01.045-.035.045-.06 0-.025.015-.06.034-.08.018-.02.028-.043.022-.053-.006-.01.004-.03.022-.045.02-.015.034-.042.034-.06 0-.017.01-.03.02-.03.013 0 .03-.024.04-.052.007-.028.032-.066.054-.085.02-.02.046-.06.056-.09.01-.03.042-.078.07-.108.03-.03.055-.066.055-.082 0-.015.02-.043.046-.06.024-.02.044-.046.044-.062 0-.017.01-.03.022-.03.01 0 .028-.022.037-.05.008-.028.05-.084.092-.124.042-.04.076-.086.076-.1 0-.012.027-.047.058-.076.03-.03.057-.06.057-.068 0-.01.013-.03.028-.048.016-.017.075-.084.13-.15.197-.224.7-.724.728-.724.018 0 .025-.006.018-.013-.015-.015.067-.1.187-.19.103-.08.137-.115.137-.14 0-.01.02-.02.042-.02.023 0 .06-.026.085-.057.022-.03.054-.057.07-.057.016 0 .03-.012.03-.025 0-.013.01-.018.022-.01.012.008.022.003.022-.01 0-.013.017-.024.038-.024.02 0 .032-.005.024-.013-.02-.02.032-.068.093-.087.026-.01.05-.025.05-.037 0-.012.01-.02.022-.02.014 0 .052-.027.085-.058.034-.03.075-.057.09-.057.016 0 .03-.01.03-.02s.024-.027.056-.034c.03-.008.057-.025.057-.037 0-.012.015-.022.034-.022.018 0 .034-.01.034-.022 0-.013.025-.03.056-.037.032-.008.057-.023.057-.035 0-.01.02-.02.042-.02.022 0 .055-.02.072-.043.018-.025.06-.05.096-.06.035-.007.064-.022.064-.034 0-.01.01-.02.024-.02s.04-.016.06-.035c.017-.02.052-.034.076-.034.025 0 .044-.01.044-.023 0-.01.016-.02.034-.02.02 0 .034-.01.034-.023 0-.012.036-.028.08-.037.044-.008.08-.024.08-.035 0-.01.015-.02.034-.02.018 0 .034-.01.034-.023 0-.012.02-.022.047-.022.046 0 .2-.062.226-.09.022-.025.126-.067.2-.08.04-.01.073-.025.073-.037 0-.01.024-.02.056-.02.03 0 .056-.01.056-.02 0-.012.046-.028.103-.036.056-.01.102-.025.102-.037 0-.012.03-.02.066-.02.036 0 .07-.01.074-.02.004-.012.053-.028.11-.036.056-.007.105-.024.11-.036.004-.013.03-.023.06-.023s.057-.01.06-.02c.005-.01.075-.027.156-.035.08-.008.15-.024.155-.037.004-.01.043-.02.085-.02.043 0 .078-.012.078-.024 0-.014.05-.024.113-.024.06 0 .115-.01.12-.022.003-.012.106-.03.23-.037.12-.01.226-.024.233-.035.006-.01.088-.02.18-.02.094 0 .17-.01.17-.02 0-.05 1.482-.05 1.53-.003M7.7 5.753c0 .013-.067.023-.158.023-.088 0-.16.008-.16.02 0 .01-.053.025-.118.033-.076.01-.132.03-.154.056-.02.023-.063.05-.097.058s-.062.025-.062.038c0 .012-.01.022-.022.022-.03 0-.545.515-.545.546 0 .013-.025.048-.056.076-.032.03-.057.06-.057.07 0 .008-.013.03-.03.047-.064.072-.084.1-.084.118 0 .01-.02.034-.044.052-.024.017-.04.04-.034.05.006.008 0 .022-.012.03-.013.008-.023.034-.023.058s-.01.044-.023.044-.023.016-.023.036c0 .02-.01.03-.023.02-.012-.007-.022.006-.022.03 0 .023-.015.062-.034.086-.018.024-.033.06-.034.082 0 .02-.01.04-.025.046-.014.004-.03.05-.038.104-.007.053-.02.096-.032.096-.01 0-.02.025-.02.055s-.01.057-.025.062c-.013.004-.03.092-.037.195-.007.103-.02.187-.032.187-.01 0-.02.07-.02.157 0 .088-.01.165-.022.173-.013.008-.023.106-.023.217 0 .12.01.203.024.203.013 0 .022.072.022.17 0 .094.01.17.02.17s.025.095.032.21c.007.124.022.213.037.218.014.006.025.044.025.087s.01.078.02.078.026.06.035.136c.008.076.025.137.037.137.012 0 .022.026.022.057 0 .03.01.057.024.057.013 0 .018.01.012.02-.007.01.008.06.032.107.025.05.045.106.045.13 0 .02.01.04.023.04.012 0 .023.014.023.033 0 .047.075.216.096.216.008 0 .016.02.016.044 0 .025.01.05.02.057.013.007.03.044.037.08.008.038.024.07.036.07.01 0 .02.02.02.044 0 .026.01.047.022.047.012 0 .03.028.038.062.016.062.164.305.195.32.01.003.017.02.017.04 0 .017.01.03.023.03.012 0 .028.027.036.058.01.03.025.057.036.057.01 0 .02.02.02.047 0 .025.01.04.023.032.012-.008.028.017.036.055.007.037.032.074.055.08.024.008.05.037.058.064.01.028.035.067.058.087.024.02.043.047.043.058 0 .01.025.048.056.082.032.035.05.063.04.063-.008 0 .007.02.035.046.028.024.05.053.05.063 0 .01.018.037.04.06.022.026.07.086.106.136.036.05.09.112.12.138.028.027.052.06.052.073 0 .015.026.05.057.083.03.03.057.063.057.072 0 .008.066.082.148.163.08.08.147.157.147.17 0 .01.082.1.182.2.1.1.18.19.18.2 0 .03.268.298.297.298.012 0 .098.077.19.17.092.095.184.17.204.17.034 0 .048.028.04.077-.002.01.006.012.018.005.012-.008.033.004.046.027.013.022.023.032.024.023 0-.01.04.02.087.068.105.103.212.187.237.187.01 0 .065.046.123.103.058.056.112.102.12.102.01 0 .046.024.08.055.036.03.09.068.124.084.03.017.086.06.12.093.035.035.078.063.097.063.018 0 .034.01.034.023 0 .012.012.023.025.023.013 0 .04.01.056.027.076.067.102.085.124.085.013 0 .024.008.024.018 0 .01.045.037.1.06.056.023.107.054.113.07.007.016.048.04.093.056.045.015.08.036.08.048 0 .01.016.02.035.02.02 0 .034.01.034.02 0 .012.03.027.07.034.07.014.142.068.12.09-.006.006.03.018.08.027.052.008.094.025.094.036 0 .013.015.022.034.022.018 0 .034.008.034.017 0 .017.166.095.204.095.013 0 .023.01.023.023s.02.023.046.023c.025 0 .046.01.046.022 0 .01.03.028.068.036.037.008.068.024.068.036 0 .01.02.02.044.02.025 0 .093.026.15.057.06.033.123.058.14.058.018 0 .048.015.067.034.018.02.058.034.088.034.03 0 .055.01.055.023 0 .01.026.022.057.022.03 0 .057.01.057.022 0 .013.02.023.045.023.025 0 .046.01.046.02 0 .012.05.028.113.037.064.01.115.025.115.036 0 .01.024.02.054.02s.083.016.118.035c.036.018.088.034.115.034.028 0 .056.01.064.022.008.012.044.022.08.022.038 0 .068.01.068.022 0 .012.06.028.136.037.076.008.137.024.137.035 0 .01.03.02.066.02.037 0 .07.013.076.028.007.022.185.03.79.03.602 0 .78-.008.788-.03.005-.015.04-.028.076-.028s.066-.01.066-.02.06-.027.136-.035c.075-.01.137-.025.137-.037 0-.012.025-.022.056-.022.03 0 .056-.01.056-.02 0-.012.033-.03.074-.038.04-.008.08-.022.085-.03.02-.024.26-.14.29-.14.016 0 .028-.01.028-.022 0-.012.016-.022.034-.022.02 0 .034-.01.034-.023 0-.014.016-.024.033-.024s.065-.03.105-.068c.04-.037.083-.068.097-.068.013 0 .018-.006.01-.014-.017-.017.04-.077.072-.077.027 0 .14-.11.14-.135 0-.01.055-.078.124-.15.07-.074.126-.14.126-.15 0-.01.012-.03.028-.047.045-.05.108-.17.108-.21 0-.02.01-.036.023-.036.012 0 .022-.015.022-.034 0-.02.01-.034.023-.034.012 0 .03-.04.037-.09.008-.05.023-.085.034-.08.012.008.02-.007.02-.033 0-.025.01-.046.02-.046.012 0 .028-.056.037-.125.008-.07.025-.126.036-.126.012 0 .02-.025.02-.057 0-.03.01-.056.02-.056s.02-.053.024-.118c.003-.065.017-.126.03-.135.018-.01.03-.137.037-.35.01-.356-.007-.436-.115-.535-.023-.02-.04-.047-.04-.06 0-.026-.08-.12-.102-.12-.01 0-.03-.014-.05-.033-.02-.02-.054-.035-.078-.035s-.044-.01-.044-.023c0-.012-.02-.022-.042-.022-.024 0-.056-.016-.07-.035-.017-.018-.054-.034-.083-.034-.03 0-.053-.01-.053-.02 0-.014-.02-.024-.043-.024-.024 0-.05-.015-.056-.034-.008-.02-.04-.034-.07-.034-.033 0-.06-.01-.06-.023 0-.012-.02-.023-.044-.023-.025 0-.045-.01-.045-.022 0-.013-.026-.023-.057-.023-.03 0-.07-.015-.09-.034-.018-.02-.054-.034-.08-.034-.026 0-.047-.01-.047-.024 0-.012-.015-.023-.034-.023-.02 0-.034-.01-.034-.02 0-.012-.033-.028-.074-.037-.095-.02-.2-.063-.2-.084 0-.008-.035-.022-.078-.03-.044-.01-.08-.022-.08-.03 0-.015-.088-.057-.176-.082-.028-.008-.05-.025-.05-.036 0-.012-.015-.02-.032-.02-.018 0-.06-.017-.097-.035-.035-.02-.082-.035-.104-.035-.022 0-.04-.01-.04-.023s-.015-.023-.034-.023c-.018 0-.034-.01-.034-.018 0-.024-.17-.097-.227-.097-.024 0-.044-.01-.044-.022 0-.013-.015-.023-.032-.023-.018 0-.036-.01-.04-.023-.005-.013-.04-.03-.076-.036-.038-.005-.078-.02-.09-.032-.028-.028-.444-.028-.444 0 0 .01-.046.028-.102.036-.056.01-.102.025-.102.036 0 .01-.012.02-.025.02-.04 0-.27.24-.27.28 0 .02-.02.04-.046.05-.026.007-.046.034-.046.058 0 .025-.016.05-.035.058-.02.007-.035.026-.035.04 0 .017-.045.077-.1.136-.056.06-.108.127-.115.15-.008.024-.034.05-.058.057-.025.007-.045.03-.045.05 0 .02-.04.075-.09.122-.05.048-.09.102-.09.122 0 .02-.01.035-.023.035-.01 0-.028.02-.037.05-.027.086-.146.156-.146.085 0-.013-.014-.023-.033-.023-.02 0-.034-.01-.034-.02 0-.013-.046-.03-.102-.038-.055-.008-.1-.024-.1-.035 0-.012-.017-.02-.035-.02-.02 0-.035-.012-.035-.024 0-.013-.025-.023-.056-.023-.032 0-.057-.008-.057-.017 0-.01-.074-.053-.165-.096-.09-.044-.168-.088-.172-.097-.004-.01-.027-.017-.05-.017-.025 0-.045-.01-.045-.022 0-.013-.025-.03-.057-.037-.03-.008-.056-.023-.056-.034 0-.012-.016-.02-.034-.02-.02 0-.034-.01-.034-.023 0-.012-.026-.03-.057-.036-.032-.008-.057-.024-.057-.035 0-.012-.02-.02-.045-.02-.025 0-.046-.01-.046-.024 0-.012-.015-.023-.033-.023-.018 0-.053-.025-.077-.056-.025-.032-.06-.057-.08-.057-.018 0-.04-.016-.046-.034-.008-.02-.033-.034-.058-.034s-.05-.018-.058-.04c-.008-.022-.07-.076-.138-.12-.068-.043-.124-.087-.124-.096 0-.01-.01-.017-.024-.017-.013 0-.068-.047-.123-.103-.055-.056-.11-.102-.124-.102-.02 0-.17-.145-.383-.37l-.085-.084c-.032-.03-.057-.064-.057-.075 0-.01-.035-.052-.08-.094-.043-.04-.078-.085-.078-.1 0-.014-.035-.06-.077-.1-.042-.04-.083-.096-.092-.124-.008-.027-.035-.055-.06-.063-.024-.007-.044-.032-.044-.055s-.016-.048-.035-.055c-.02-.007-.034-.027-.034-.044 0-.018-.02-.05-.042-.072-.024-.02-.05-.064-.058-.094-.007-.03-.024-.055-.036-.055-.012 0-.022-.016-.022-.035 0-.02-.01-.034-.022-.034-.013 0-.03-.025-.037-.056-.008-.03-.023-.057-.034-.057-.013 0-.022-.028-.022-.062 0-.05-.005-.055-.022-.03-.018.03-.022.026-.023-.016 0-.033.013-.052.038-.052.022 0 .032-.006.024-.015-.008-.008.02-.047.06-.086.043-.04.084-.094.093-.12.008-.027.035-.055.058-.063.024-.007.05-.033.058-.058.007-.024.023-.044.035-.044.012 0 .02-.01.02-.024 0-.013.027-.05.058-.08.03-.032.057-.067.057-.08 0-.013.01-.017.022-.01.013.01.023-.006.023-.03 0-.026.02-.052.047-.06.026-.01.042-.02.035-.028-.007-.006.034-.056.09-.11.055-.055.1-.11.1-.122 0-.013.01-.024.023-.024.012 0 .03-.026.036-.057.007-.03.023-.057.034-.057.01 0 .02-.023.02-.052 0-.03.013-.065.028-.08.065-.064.017-.55-.053-.55-.01 0-.02-.042-.028-.095-.007-.053-.024-.1-.037-.104-.013-.006-.024-.03-.024-.054 0-.025-.01-.04-.022-.03-.013.007-.023-.016-.023-.056s-.01-.07-.022-.07c-.013 0-.03-.04-.037-.09-.008-.05-.023-.092-.034-.092-.01 0-.037-.05-.06-.113-.02-.063-.047-.114-.057-.114-.01 0-.017-.024-.017-.056 0-.03-.01-.056-.02-.056-.013 0-.03-.046-.038-.103-.008-.056-.024-.102-.035-.102-.01 0-.02-.015-.02-.034 0-.04-.04-.118-.086-.166-.016-.017-.03-.056-.03-.086 0-.03-.01-.056-.022-.056-.012 0-.023-.015-.023-.034 0-.018-.008-.034-.02-.034-.01 0-.025-.043-.032-.096-.007-.053-.024-.1-.037-.104-.013-.004-.024-.028-.024-.052 0-.023-.01-.043-.02-.043s-.026-.042-.034-.092c-.008-.05-.025-.09-.037-.09-.012 0-.022-.02-.022-.046 0-.025-.01-.046-.02-.046-.018 0-.058-.127-.05-.164 0-.01-.008-.017-.02-.017-.013 0-.023-.026-.023-.057 0-.03-.01-.057-.023-.057-.012 0-.023-.014-.023-.033 0-.02-.01-.034-.022-.034-.012 0-.028-.022-.037-.05-.05-.164-.277-.29-.518-.29-.1 0-.172-.01-.172-.024s-.102-.023-.26-.023c-.15 0-.266-.01-.274-.023-.008-.013-.04-.023-.07-.023-.03 0-.055.01-.055.024m.395.81l.333.015.034.067c.02.037.034.082.034.1 0 .015.01.03.023.03.01 0 .02.015.02.033 0 .02.01.034.02.034.013 0 .03.046.037.103.008.056.025.102.037.102.01 0 .02.013.02.03 0 .016.017.062.036.1.02.04.037.092.04.117 0 .024.01.04.02.033.016-.01.03.04.02.088 0 .01.008.017.02.017.01 0 .027.03.035.068.01.038.025.068.036.068.013 0 .022.032.022.07 0 .037.01.068.02.068.02 0 .062.13.053.164-.003.01.005.017.018.017.012 0 .023.015.023.033 0 .02.008.034.017.034.018 0 .096.166.096.205 0 .013.01.023.022.023.012 0 .023.03.023.068 0 .037.01.068.022.068.012 0 .03.042.037.092.008.05.024.09.035.09.01 0 .018.016.018.035 0 .018.01.034.02.034s.027.034.035.074c.018.094.065.2.087.2.045 0 .008.076-.084.17-.055.057-.107.123-.114.147-.008.025-.034.05-.057.058-.024.008-.05.034-.057.058-.008.025-.024.044-.036.044-.01 0-.02.01-.02.024 0 .013-.052.075-.114.138-.063.062-.114.123-.114.135 0 .04-.178.202-.19.173-.006-.014-.012-.006-.013.018 0 .025-.023.066-.052.09-.08.075-.112.147-.125.29-.006.072-.02.132-.03.132-.012 0-.02.015-.02.034 0 .02.01.034.022.034.013 0 .023.044.023.097 0 .053.015.125.034.16.02.037.034.077.034.09 0 .012.02.04.042.06.023.02.05.062.06.093.01.03.035.072.057.09.02.02.046.058.055.086.01.028.026.05.037.05.012 0 .022.02.022.046 0 .025.014.063.033.085.02.022.034.048.033.058 0 .01.025.043.057.075.03.03.057.07.057.085 0 .016.02.043.046.06.025.02.045.047.045.063s.01.03.022.03c.012 0 .028.02.036.043.007.023.034.05.058.057.024.008.044.033.044.055 0 .023.026.06.057.083.03.024.057.054.057.067 0 .013.05.077.113.143.063.065.114.13.114.142 0 .013.01.017.024.01.012-.008.022.002.022.02 0 .02.01.037.024.037s.018.01.01.023c-.008.013-.006.02.005.017.027-.01.145.087.128.104-.008.007.004.02.025.03.04.014.133.097.143.128.005.008.014.018.022.02.01.004.08.07.16.15.08.077.156.14.17.14.013 0 .043.026.068.058.025.03.064.056.087.056.023 0 .05.02.056.045.008.024.034.05.06.058.023.008.043.024.043.035 0 .012.015.022.034.022.02 0 .034.01.034.02 0 .012.023.03.05.038.03.01.075.04.102.07.028.03.066.053.085.053.02 0 .037.01.037.024 0 .012.013.023.03.023.015 0 .042.02.06.045.02.025.046.046.06.046.016 0 .042.013.058.03.036.033.185.106.22.106.015 0 .026.016.026.035 0 .02.01.028.024.02.012-.007.022-.003.022.01 0 .012.036.03.08.038.044.008.08.024.08.035 0 .01.015.02.033.02.018 0 .034.01.034.02s.025.027.056.035c.032.007.057.024.057.036 0 .012.026.022.057.022.03 0 .057.01.057.023 0 .012.02.022.046.022.025 0 .046.01.046.02 0 .012.03.028.068.037.037.007.068.023.068.035 0 .01.03.02.07.02.038 0 .063.01.056.02-.007.012.025.028.07.036.087.018.168.056.195.093.024.035.635.03.647-.006.005-.015.024-.028.042-.028.016 0 .03-.01.03-.023s.026-.03.058-.037c.03-.008.05-.023.044-.033-.006-.01.005-.032.024-.05.096-.078.148-.135.148-.16 0-.016.02-.043.045-.06.024-.02.044-.047.044-.063s.03-.058.07-.094c.036-.036.067-.08.067-.1 0-.02.022-.043.047-.05.027-.01.052-.043.06-.082.007-.036.032-.07.055-.08.024-.006.043-.027.043-.045 0-.02.035-.067.077-.108.042-.04.083-.096.092-.124.01-.027.025-.05.037-.05.013 0 .022-.01.022-.023 0-.023.02-.05.088-.126.03-.033.12-.023.136.017.004.01.027.02.05.02.025 0 .044.01.044.023 0 .012.015.022.032.022.018 0 .036.01.04.025.005.013.052.03.105.037.053.007.096.02.096.032 0 .01.015.02.034.02.02 0 .034.01.034.022 0 .012.036.028.08.036.04.008.097.034.123.058.025.024.066.043.09.043.025 0 .06.015.08.034.018.018.052.033.075.034.023 0 .06.016.086.034.024.018.062.033.085.033.02 0 .04.01.04.024 0 .012.015.023.034.023.02 0 .034.01.034.022 0 .012.02.022.044.022.024 0 .05.01.057.02.005.01.047.027.09.035.045.01.08.025.08.037 0 .012.02.022.046.022.025 0 .045.01.045.02 0 .012.032.028.07.036.037.01.073.025.08.036.007.012.033.02.057.02s.044.01.044.024c0 .012.02.023.044.023.023 0 .055.015.07.034.017.018.048.033.072.033.023 0 .043.01.043.02 0 .013.045.03.1.038.072.012.098.024.085.042-.018.024-.05.15-.085.327-.008.04-.024.073-.035.073-.012 0-.02.045-.02.1 0 .056-.01.107-.02.114-.012.007-.028.05-.037.095-.016.085-.048.155-.097.208-.015.017-.028.046-.028.063 0 .018-.01.033-.022.033-.013 0-.023.02-.023.045 0 .026-.01.047-.023.047-.012 0-.023.01-.023.025 0 .015-.034.06-.078.1-.044.042-.08.09-.08.104 0 .037-.155.18-.194.18-.016 0-.036.02-.044.044-.008.024-.034.05-.058.058-.025.008-.044.024-.044.035 0 .012-.016.022-.034.022-.02 0-.035.01-.035.02s-.035.027-.08.035c-.043.008-.08.025-.08.037 0 .012-.014.02-.034.02-.02 0-.03.012-.022.024.008.014-.01.024-.044.024-.032 0-.06.01-.06.022 0 .012-.04.03-.09.037-.05.008-.09.024-.09.035 0 .01-.02.02-.046.02-.025 0-.045.008-.045.02 0 .01-.092.026-.205.035-.112.01-.204.025-.204.037 0 .012-.13.02-.295.02-.167 0-.297-.008-.297-.02s-.092-.028-.204-.037c-.114-.01-.206-.025-.206-.036 0-.01-.03-.02-.068-.02-.037 0-.068-.008-.068-.02 0-.01-.053-.025-.117-.033-.064-.007-.127-.024-.14-.037-.013-.013-.042-.023-.064-.023-.023 0-.04-.01-.04-.023 0-.01-.026-.022-.057-.022-.03 0-.062-.01-.07-.02-.007-.012-.068-.03-.137-.038-.068-.008-.118-.024-.112-.035.008-.01-.012-.02-.044-.02s-.058-.01-.058-.023c0-.012-.04-.03-.09-.037-.05-.008-.086-.023-.08-.034.008-.01-.02-.02-.058-.02-.04 0-.065-.008-.058-.02.007-.01-.028-.027-.078-.036-.05-.008-.09-.022-.09-.03 0-.02-.106-.064-.2-.083-.04-.007-.073-.024-.073-.035 0-.012-.02-.02-.045-.02-.025 0-.045-.01-.045-.024 0-.01-.016-.02-.034-.02-.02 0-.034-.01-.034-.023 0-.012-.036-.03-.08-.037-.043-.008-.073-.024-.066-.035.006-.01-.01-.02-.035-.02-.024 0-.045-.01-.045-.023 0-.012-.015-.022-.033-.022-.018 0-.046-.013-.062-.03-.035-.032-.122-.075-.195-.096-.028-.007-.05-.023-.05-.035 0-.013-.017-.022-.037-.022-.022 0-.03-.01-.02-.03.01-.014.01-.02 0-.012-.02.02-.15-.024-.15-.05 0-.013-.014-.022-.033-.022-.02 0-.034-.01-.034-.02s-.04-.04-.09-.065c-.05-.026-.083-.052-.075-.06.008-.008-.002-.015-.023-.015-.02 0-.038-.01-.038-.022 0-.012-.026-.03-.057-.037-.03-.007-.057-.023-.057-.034 0-.01-.015-.02-.035-.02-.02 0-.06-.026-.087-.057-.03-.03-.065-.057-.08-.057-.013 0-.025-.01-.025-.02 0-.013-.023-.03-.05-.038-.028-.01-.078-.046-.112-.08-.032-.037-.07-.066-.084-.066-.014 0-.025-.018-.026-.04 0-.028-.005-.03-.018-.012-.012.02-.03.01-.06-.03-.022-.03-.06-.055-.082-.055-.022 0-.047-.02-.055-.045-.008-.025-.04-.052-.07-.06-.03-.007-.05-.022-.042-.033.007-.013 0-.022-.014-.022-.015 0-.07-.045-.125-.1-.054-.056-.103-.096-.11-.09-.006.007-.018-.01-.026-.035-.01-.026-.03-.047-.047-.047-.045 0-.897-.857-.897-.902 0-.02-.007-.03-.015-.022-.007.008-.045-.023-.084-.07-.04-.045-.096-.108-.127-.14-.032-.03-.055-.065-.052-.075.003-.01-.01-.018-.03-.018-.02 0-.03-.01-.02-.024.006-.012-.003-.022-.023-.022s-.033-.008-.03-.018c.004-.01-.022-.048-.056-.085-.036-.036-.064-.075-.064-.085 0-.01-.036-.055-.08-.1-.043-.045-.08-.09-.08-.1 0-.01-.023-.043-.053-.072-.03-.03-.06-.077-.07-.104-.008-.028-.025-.05-.036-.05-.012 0-.022-.01-.022-.024 0-.013-.025-.05-.056-.08-.033-.03-.058-.068-.058-.082 0-.013-.02-.04-.043-.06-.024-.02-.063-.076-.088-.122-.025-.047-.05-.08-.058-.072-.007.006-.02-.018-.027-.054-.008-.035-.034-.08-.06-.097-.023-.02-.043-.042-.043-.052 0-.01-.016-.035-.034-.054-.02-.02-.034-.054-.034-.078s-.01-.044-.023-.044-.023-.015-.023-.034c0-.018-.01-.034-.02-.034-.013 0-.03-.036-.038-.08-.008-.043-.023-.08-.033-.08-.017 0-.046-.054-.117-.22-.017-.04-.038-.074-.046-.074s-.02-.036-.03-.08c-.007-.043-.024-.08-.036-.08-.01 0-.02-.025-.02-.056 0-.03-.01-.057-.023-.057s-.023-.025-.023-.056c0-.03-.01-.056-.02-.056-.012 0-.028-.05-.037-.114-.008-.062-.025-.113-.036-.113-.01 0-.02-.026-.02-.057 0-.03-.008-.057-.02-.057-.01 0-.025-.07-.033-.153-.008-.084-.024-.157-.037-.16-.013-.005-.023-.08-.023-.165s-.01-.162-.023-.17c-.013-.008-.023-.135-.023-.306 0-.172.01-.3.024-.308.013-.007.023-.074.023-.15 0-.073.01-.134.02-.134.013 0 .03-.06.038-.136.01-.074.025-.13.036-.123.012.006.02-.01.02-.036 0-.025.01-.046.02-.046.012 0 .028-.036.036-.08.008-.044.024-.08.036-.08.012 0 .022-.02.022-.045 0-.025.01-.045.02-.045s.026-.018.034-.04c.018-.055.063-.123.11-.167.023-.02.04-.047.04-.06 0-.015.043-.07.096-.123.053-.054.096-.103.097-.11 0-.005.008-.008.016-.006.008.004.02-.02.03-.05.008-.033.035-.06.068-.07.03-.007.066-.04.082-.08.02-.05.033-.06.047-.038.015.023.02.02.02-.01 0-.02.016-.04.035-.04.02 0 .03-.008.023-.02-.015-.027.127-.093.202-.093.032 0 .06-.012.06-.026 0-.02.007-.02.03 0 .016.014.175.03.363.04" stroke="null"/></g></svg>
