<svg id="SvgjsSvg1085" xmlns="http://www.w3.org/2000/svg" version="1.1" xmlns:xlink="http://www.w3.org/1999/xlink" xmlns:svgjs="http://svgjs.com/svgjs" width="66" height="52" viewBox="0 0 66 52"><title>Forma 1</title><desc>Created with Avocode.</desc><defs id="SvgjsDefs1086"><linearGradient id="SvgjsLinearGradient1089" gradientUnits="userSpaceOnUse" x1="980.9826468452353" y1="237.24901" x2="945.0173531547645" y2="286.75099"><stop id="SvgjsStop1090" stop-opacity="1" stop-color="#3d3daf" offset="0"></stop><stop id="SvgjsStop1091" stop-opacity="1" stop-color="#3d3daf" offset="0.45"></stop><stop id="SvgjsStop1092" stop-opacity="1" stop-color="#c741ba" offset="1"></stop></linearGradient></defs><path id="SvgjsPath1087" d="M963 273.064C966.776 273.064 969.837 276.184 969.837 280.033C969.837 283.88100000000003 966.776 287.00100000000003 963 287.00100000000003C959.224 287.00100000000003 956.163 283.88100000000003 956.163 280.033C956.163 276.184 959.224 273.064 963 273.064ZM949.1 273.386L947.196 271.446C952.205 266.341 957.523 263.752 963.0020000000001 263.749C963.004 263.749 963.0060000000001 263.749 963.008 263.749C968.486 263.749 973.7990000000001 266.33500000000004 978.803 271.435L976.899 273.375C972.419 268.809 967.745 266.494 963.008 266.494C963.0060000000001 266.494 963.005 266.494 963.003 266.494C958.264 266.495 953.586 268.814 949.1 273.386ZM940.501 264.234L938.597 262.294C946.355 254.38799999999998 954.567 250.37699999999998 963.004 250.374C963.0070000000001 250.374 963.01 250.374 963.014 250.374C971.448 250.374 979.653 254.378 987.403 262.276L985.499 264.217C978.273 256.853 970.707 253.118 963.013 253.118C963.01 253.118 963.008 253.118 963.005 253.118C955.307 253.12099999999998 947.736 256.861 940.501 264.234ZM931.904 255.082L930 253.141C935.208 247.834 940.65 243.774 946.176 241.072C951.701 238.372 957.363 237.001 963.005 236.999C963.009 236.999 963.014 236.999 963.018 236.999C968.6560000000001 236.999 974.312 238.365 979.831 241.06C985.356 243.757 990.796 247.814 996 253.118L994.096 255.058C974.051 234.63 951.964 234.63799999999998 931.904 255.082Z " fill="#000000" fill-opacity="1" transform="matrix(1,0,0,1,-930,-236)"></path><path id="SvgjsPath1088" d="M963 273.064C966.776 273.064 969.837 276.184 969.837 280.033C969.837 283.88100000000003 966.776 287.00100000000003 963 287.00100000000003C959.224 287.00100000000003 956.163 283.88100000000003 956.163 280.033C956.163 276.184 959.224 273.064 963 273.064ZM949.1 273.386L947.196 271.446C952.205 266.341 957.523 263.752 963.0020000000001 263.749C963.004 263.749 963.0060000000001 263.749 963.008 263.749C968.486 263.749 973.7990000000001 266.33500000000004 978.803 271.435L976.899 273.375C972.419 268.809 967.745 266.494 963.008 266.494C963.0060000000001 266.494 963.005 266.494 963.003 266.494C958.264 266.495 953.586 268.814 949.1 273.386ZM940.501 264.234L938.597 262.294C946.355 254.38799999999998 954.567 250.37699999999998 963.004 250.374C963.0070000000001 250.374 963.01 250.374 963.014 250.374C971.448 250.374 979.653 254.378 987.403 262.276L985.499 264.217C978.273 256.853 970.707 253.118 963.013 253.118C963.01 253.118 963.008 253.118 963.005 253.118C955.307 253.12099999999998 947.736 256.861 940.501 264.234ZM931.904 255.082L930 253.141C935.208 247.834 940.65 243.774 946.176 241.072C951.701 238.372 957.363 237.001 963.005 236.999C963.009 236.999 963.014 236.999 963.018 236.999C968.6560000000001 236.999 974.312 238.365 979.831 241.06C985.356 243.757 990.796 247.814 996 253.118L994.096 255.058C974.051 234.63 951.964 234.63799999999998 931.904 255.082Z " fill="url(#SvgjsLinearGradient1089)" transform="matrix(1,0,0,1,-930,-236)"></path></svg>